<?xml version="1.0" encoding="utf-8" standalone="no"?>
<!DOCTYPE svg PUBLIC "-//W3C//DTD SVG 1.1//EN"
  "http://www.w3.org/Graphics/SVG/1.1/DTD/svg11.dtd">
<!-- Created with matplotlib (http://matplotlib.org/) -->
<svg height="648pt" version="1.1" viewBox="0 0 504 648" width="504pt" xmlns="http://www.w3.org/2000/svg" xmlns:xlink="http://www.w3.org/1999/xlink">
 <defs>
  <style type="text/css">
*{stroke-linecap:butt;stroke-linejoin:round;}
  </style>
 </defs>
 <g id="figure_1">
  <g id="patch_1">
   <path d="M 0 648 
L 504 648 
L 504 0 
L 0 0 
z
" style="fill:#ffffff;"/>
  </g>
  <g id="axes_1">
   <g id="patch_2">
    <path d="M 50.565625 182.04375 
L 480.475 182.04375 
L 480.475 25.918125 
L 50.565625 25.918125 
z
" style="fill:#ffffff;"/>
   </g>
   <g id="matplotlib.axis_1">
    <g id="xtick_1">
     <g id="line2d_1">
      <defs>
       <path d="M 0 0 
L 0 3.5 
" id="m34096cf129" style="stroke:#000000;stroke-width:0.8;"/>
      </defs>
      <g>
       <use style="stroke:#000000;stroke-width:0.8;" x="50.565625" xlink:href="#m34096cf129" y="182.04375"/>
      </g>
     </g>
     <g id="text_1">
      <!-- 0 -->
      <defs>
       <path d="M 31.78125 66.40625 
Q 24.171875 66.40625 20.328125 58.90625 
Q 16.5 51.421875 16.5 36.375 
Q 16.5 21.390625 20.328125 13.890625 
Q 24.171875 6.390625 31.78125 6.390625 
Q 39.453125 6.390625 43.28125 13.890625 
Q 47.125 21.390625 47.125 36.375 
Q 47.125 51.421875 43.28125 58.90625 
Q 39.453125 66.40625 31.78125 66.40625 
z
M 31.78125 74.21875 
Q 44.046875 74.21875 50.515625 64.515625 
Q 56.984375 54.828125 56.984375 36.375 
Q 56.984375 17.96875 50.515625 8.265625 
Q 44.046875 -1.421875 31.78125 -1.421875 
Q 19.53125 -1.421875 13.0625 8.265625 
Q 6.59375 17.96875 6.59375 36.375 
Q 6.59375 54.828125 13.0625 64.515625 
Q 19.53125 74.21875 31.78125 74.21875 
z
" id="DejaVuSans-30"/>
      </defs>
      <g transform="translate(47.384375 196.642187)scale(0.1 -0.1)">
       <use xlink:href="#DejaVuSans-30"/>
      </g>
     </g>
    </g>
    <g id="xtick_2">
     <g id="line2d_2">
      <g>
       <use style="stroke:#000000;stroke-width:0.8;" x="104.304297" xlink:href="#m34096cf129" y="182.04375"/>
      </g>
     </g>
     <g id="text_2">
      <!-- 250 -->
      <defs>
       <path d="M 19.1875 8.296875 
L 53.609375 8.296875 
L 53.609375 0 
L 7.328125 0 
L 7.328125 8.296875 
Q 12.9375 14.109375 22.625 23.890625 
Q 32.328125 33.6875 34.8125 36.53125 
Q 39.546875 41.84375 41.421875 45.53125 
Q 43.3125 49.21875 43.3125 52.78125 
Q 43.3125 58.59375 39.234375 62.25 
Q 35.15625 65.921875 28.609375 65.921875 
Q 23.96875 65.921875 18.8125 64.3125 
Q 13.671875 62.703125 7.8125 59.421875 
L 7.8125 69.390625 
Q 13.765625 71.78125 18.9375 73 
Q 24.125 74.21875 28.421875 74.21875 
Q 39.75 74.21875 46.484375 68.546875 
Q 53.21875 62.890625 53.21875 53.421875 
Q 53.21875 48.921875 51.53125 44.890625 
Q 49.859375 40.875 45.40625 35.40625 
Q 44.1875 33.984375 37.640625 27.21875 
Q 31.109375 20.453125 19.1875 8.296875 
z
" id="DejaVuSans-32"/>
       <path d="M 10.796875 72.90625 
L 49.515625 72.90625 
L 49.515625 64.59375 
L 19.828125 64.59375 
L 19.828125 46.734375 
Q 21.96875 47.46875 24.109375 47.828125 
Q 26.265625 48.1875 28.421875 48.1875 
Q 40.625 48.1875 47.75 41.5 
Q 54.890625 34.8125 54.890625 23.390625 
Q 54.890625 11.625 47.5625 5.09375 
Q 40.234375 -1.421875 26.90625 -1.421875 
Q 22.3125 -1.421875 17.546875 -0.640625 
Q 12.796875 0.140625 7.71875 1.703125 
L 7.71875 11.625 
Q 12.109375 9.234375 16.796875 8.0625 
Q 21.484375 6.890625 26.703125 6.890625 
Q 35.15625 6.890625 40.078125 11.328125 
Q 45.015625 15.765625 45.015625 23.390625 
Q 45.015625 31 40.078125 35.4375 
Q 35.15625 39.890625 26.703125 39.890625 
Q 22.75 39.890625 18.8125 39.015625 
Q 14.890625 38.140625 10.796875 36.28125 
z
" id="DejaVuSans-35"/>
      </defs>
      <g transform="translate(94.760547 196.642187)scale(0.1 -0.1)">
       <use xlink:href="#DejaVuSans-32"/>
       <use x="63.623047" xlink:href="#DejaVuSans-35"/>
       <use x="127.246094" xlink:href="#DejaVuSans-30"/>
      </g>
     </g>
    </g>
    <g id="xtick_3">
     <g id="line2d_3">
      <g>
       <use style="stroke:#000000;stroke-width:0.8;" x="158.042969" xlink:href="#m34096cf129" y="182.04375"/>
      </g>
     </g>
     <g id="text_3">
      <!-- 500 -->
      <g transform="translate(148.499219 196.642187)scale(0.1 -0.1)">
       <use xlink:href="#DejaVuSans-35"/>
       <use x="63.623047" xlink:href="#DejaVuSans-30"/>
       <use x="127.246094" xlink:href="#DejaVuSans-30"/>
      </g>
     </g>
    </g>
    <g id="xtick_4">
     <g id="line2d_4">
      <g>
       <use style="stroke:#000000;stroke-width:0.8;" x="211.781641" xlink:href="#m34096cf129" y="182.04375"/>
      </g>
     </g>
     <g id="text_4">
      <!-- 750 -->
      <defs>
       <path d="M 8.203125 72.90625 
L 55.078125 72.90625 
L 55.078125 68.703125 
L 28.609375 0 
L 18.3125 0 
L 43.21875 64.59375 
L 8.203125 64.59375 
z
" id="DejaVuSans-37"/>
      </defs>
      <g transform="translate(202.237891 196.642187)scale(0.1 -0.1)">
       <use xlink:href="#DejaVuSans-37"/>
       <use x="63.623047" xlink:href="#DejaVuSans-35"/>
       <use x="127.246094" xlink:href="#DejaVuSans-30"/>
      </g>
     </g>
    </g>
    <g id="xtick_5">
     <g id="line2d_5">
      <g>
       <use style="stroke:#000000;stroke-width:0.8;" x="265.520313" xlink:href="#m34096cf129" y="182.04375"/>
      </g>
     </g>
     <g id="text_5">
      <!-- 1000 -->
      <defs>
       <path d="M 12.40625 8.296875 
L 28.515625 8.296875 
L 28.515625 63.921875 
L 10.984375 60.40625 
L 10.984375 69.390625 
L 28.421875 72.90625 
L 38.28125 72.90625 
L 38.28125 8.296875 
L 54.390625 8.296875 
L 54.390625 0 
L 12.40625 0 
z
" id="DejaVuSans-31"/>
      </defs>
      <g transform="translate(252.795313 196.642187)scale(0.1 -0.1)">
       <use xlink:href="#DejaVuSans-31"/>
       <use x="63.623047" xlink:href="#DejaVuSans-30"/>
       <use x="127.246094" xlink:href="#DejaVuSans-30"/>
       <use x="190.869141" xlink:href="#DejaVuSans-30"/>
      </g>
     </g>
    </g>
    <g id="xtick_6">
     <g id="line2d_6">
      <g>
       <use style="stroke:#000000;stroke-width:0.8;" x="319.258984" xlink:href="#m34096cf129" y="182.04375"/>
      </g>
     </g>
     <g id="text_6">
      <!-- 1250 -->
      <g transform="translate(306.533984 196.642187)scale(0.1 -0.1)">
       <use xlink:href="#DejaVuSans-31"/>
       <use x="63.623047" xlink:href="#DejaVuSans-32"/>
       <use x="127.246094" xlink:href="#DejaVuSans-35"/>
       <use x="190.869141" xlink:href="#DejaVuSans-30"/>
      </g>
     </g>
    </g>
    <g id="xtick_7">
     <g id="line2d_7">
      <g>
       <use style="stroke:#000000;stroke-width:0.8;" x="372.997656" xlink:href="#m34096cf129" y="182.04375"/>
      </g>
     </g>
     <g id="text_7">
      <!-- 1500 -->
      <g transform="translate(360.272656 196.642187)scale(0.1 -0.1)">
       <use xlink:href="#DejaVuSans-31"/>
       <use x="63.623047" xlink:href="#DejaVuSans-35"/>
       <use x="127.246094" xlink:href="#DejaVuSans-30"/>
       <use x="190.869141" xlink:href="#DejaVuSans-30"/>
      </g>
     </g>
    </g>
    <g id="xtick_8">
     <g id="line2d_8">
      <g>
       <use style="stroke:#000000;stroke-width:0.8;" x="426.736328" xlink:href="#m34096cf129" y="182.04375"/>
      </g>
     </g>
     <g id="text_8">
      <!-- 1750 -->
      <g transform="translate(414.011328 196.642187)scale(0.1 -0.1)">
       <use xlink:href="#DejaVuSans-31"/>
       <use x="63.623047" xlink:href="#DejaVuSans-37"/>
       <use x="127.246094" xlink:href="#DejaVuSans-35"/>
       <use x="190.869141" xlink:href="#DejaVuSans-30"/>
      </g>
     </g>
    </g>
    <g id="xtick_9">
     <g id="line2d_9">
      <g>
       <use style="stroke:#000000;stroke-width:0.8;" x="480.475" xlink:href="#m34096cf129" y="182.04375"/>
      </g>
     </g>
     <g id="text_9">
      <!-- 2000 -->
      <g transform="translate(467.75 196.642187)scale(0.1 -0.1)">
       <use xlink:href="#DejaVuSans-32"/>
       <use x="63.623047" xlink:href="#DejaVuSans-30"/>
       <use x="127.246094" xlink:href="#DejaVuSans-30"/>
       <use x="190.869141" xlink:href="#DejaVuSans-30"/>
      </g>
     </g>
    </g>
    <g id="text_10">
     <!-- $t$ -->
     <defs>
      <path d="M 42.28125 54.6875 
L 40.921875 47.703125 
L 23 47.703125 
L 17.1875 18.015625 
Q 16.890625 16.359375 16.75 15.234375 
Q 16.609375 14.109375 16.609375 13.484375 
Q 16.609375 10.359375 18.484375 8.9375 
Q 20.359375 7.515625 24.515625 7.515625 
L 33.59375 7.515625 
L 32.078125 0 
L 23.484375 0 
Q 15.484375 0 11.546875 3.125 
Q 7.625 6.25 7.625 12.59375 
Q 7.625 13.71875 7.765625 15.0625 
Q 7.90625 16.40625 8.203125 18.015625 
L 14.015625 47.703125 
L 6.390625 47.703125 
L 7.8125 54.6875 
L 15.28125 54.6875 
L 18.3125 70.21875 
L 27.296875 70.21875 
L 24.3125 54.6875 
z
" id="DejaVuSans-Oblique-74"/>
     </defs>
     <g transform="translate(263.520313 210.320312)scale(0.1 -0.1)">
      <use transform="translate(0 0.78125)" xlink:href="#DejaVuSans-Oblique-74"/>
     </g>
    </g>
   </g>
   <g id="matplotlib.axis_2">
    <g id="ytick_1">
     <g id="line2d_10">
      <defs>
       <path d="M 0 0 
L -3.5 0 
" id="md8c077c456" style="stroke:#000000;stroke-width:0.8;"/>
      </defs>
      <g>
       <use style="stroke:#000000;stroke-width:0.8;" x="50.565625" xlink:href="#md8c077c456" y="154.39433"/>
      </g>
     </g>
     <g id="text_11">
      <!-- 20 -->
      <g transform="translate(30.840625 158.193549)scale(0.1 -0.1)">
       <use xlink:href="#DejaVuSans-32"/>
       <use x="63.623047" xlink:href="#DejaVuSans-30"/>
      </g>
     </g>
    </g>
    <g id="ytick_2">
     <g id="line2d_11">
      <g>
       <use style="stroke:#000000;stroke-width:0.8;" x="50.565625" xlink:href="#md8c077c456" y="119.761976"/>
      </g>
     </g>
     <g id="text_12">
      <!-- 40 -->
      <defs>
       <path d="M 37.796875 64.3125 
L 12.890625 25.390625 
L 37.796875 25.390625 
z
M 35.203125 72.90625 
L 47.609375 72.90625 
L 47.609375 25.390625 
L 58.015625 25.390625 
L 58.015625 17.1875 
L 47.609375 17.1875 
L 47.609375 0 
L 37.796875 0 
L 37.796875 17.1875 
L 4.890625 17.1875 
L 4.890625 26.703125 
z
" id="DejaVuSans-34"/>
      </defs>
      <g transform="translate(30.840625 123.561195)scale(0.1 -0.1)">
       <use xlink:href="#DejaVuSans-34"/>
       <use x="63.623047" xlink:href="#DejaVuSans-30"/>
      </g>
     </g>
    </g>
    <g id="ytick_3">
     <g id="line2d_12">
      <g>
       <use style="stroke:#000000;stroke-width:0.8;" x="50.565625" xlink:href="#md8c077c456" y="85.129622"/>
      </g>
     </g>
     <g id="text_13">
      <!-- 60 -->
      <defs>
       <path d="M 33.015625 40.375 
Q 26.375 40.375 22.484375 35.828125 
Q 18.609375 31.296875 18.609375 23.390625 
Q 18.609375 15.53125 22.484375 10.953125 
Q 26.375 6.390625 33.015625 6.390625 
Q 39.65625 6.390625 43.53125 10.953125 
Q 47.40625 15.53125 47.40625 23.390625 
Q 47.40625 31.296875 43.53125 35.828125 
Q 39.65625 40.375 33.015625 40.375 
z
M 52.59375 71.296875 
L 52.59375 62.3125 
Q 48.875 64.0625 45.09375 64.984375 
Q 41.3125 65.921875 37.59375 65.921875 
Q 27.828125 65.921875 22.671875 59.328125 
Q 17.53125 52.734375 16.796875 39.40625 
Q 19.671875 43.65625 24.015625 45.921875 
Q 28.375 48.1875 33.59375 48.1875 
Q 44.578125 48.1875 50.953125 41.515625 
Q 57.328125 34.859375 57.328125 23.390625 
Q 57.328125 12.15625 50.6875 5.359375 
Q 44.046875 -1.421875 33.015625 -1.421875 
Q 20.359375 -1.421875 13.671875 8.265625 
Q 6.984375 17.96875 6.984375 36.375 
Q 6.984375 53.65625 15.1875 63.9375 
Q 23.390625 74.21875 37.203125 74.21875 
Q 40.921875 74.21875 44.703125 73.484375 
Q 48.484375 72.75 52.59375 71.296875 
z
" id="DejaVuSans-36"/>
      </defs>
      <g transform="translate(30.840625 88.92884)scale(0.1 -0.1)">
       <use xlink:href="#DejaVuSans-36"/>
       <use x="63.623047" xlink:href="#DejaVuSans-30"/>
      </g>
     </g>
    </g>
    <g id="ytick_4">
     <g id="line2d_13">
      <g>
       <use style="stroke:#000000;stroke-width:0.8;" x="50.565625" xlink:href="#md8c077c456" y="50.497267"/>
      </g>
     </g>
     <g id="text_14">
      <!-- 80 -->
      <defs>
       <path d="M 31.78125 34.625 
Q 24.75 34.625 20.71875 30.859375 
Q 16.703125 27.09375 16.703125 20.515625 
Q 16.703125 13.921875 20.71875 10.15625 
Q 24.75 6.390625 31.78125 6.390625 
Q 38.8125 6.390625 42.859375 10.171875 
Q 46.921875 13.96875 46.921875 20.515625 
Q 46.921875 27.09375 42.890625 30.859375 
Q 38.875 34.625 31.78125 34.625 
z
M 21.921875 38.8125 
Q 15.578125 40.375 12.03125 44.71875 
Q 8.5 49.078125 8.5 55.328125 
Q 8.5 64.0625 14.71875 69.140625 
Q 20.953125 74.21875 31.78125 74.21875 
Q 42.671875 74.21875 48.875 69.140625 
Q 55.078125 64.0625 55.078125 55.328125 
Q 55.078125 49.078125 51.53125 44.71875 
Q 48 40.375 41.703125 38.8125 
Q 48.828125 37.15625 52.796875 32.3125 
Q 56.78125 27.484375 56.78125 20.515625 
Q 56.78125 9.90625 50.3125 4.234375 
Q 43.84375 -1.421875 31.78125 -1.421875 
Q 19.734375 -1.421875 13.25 4.234375 
Q 6.78125 9.90625 6.78125 20.515625 
Q 6.78125 27.484375 10.78125 32.3125 
Q 14.796875 37.15625 21.921875 38.8125 
z
M 18.3125 54.390625 
Q 18.3125 48.734375 21.84375 45.5625 
Q 25.390625 42.390625 31.78125 42.390625 
Q 38.140625 42.390625 41.71875 45.5625 
Q 45.3125 48.734375 45.3125 54.390625 
Q 45.3125 60.0625 41.71875 63.234375 
Q 38.140625 66.40625 31.78125 66.40625 
Q 25.390625 66.40625 21.84375 63.234375 
Q 18.3125 60.0625 18.3125 54.390625 
z
" id="DejaVuSans-38"/>
      </defs>
      <g transform="translate(30.840625 54.296486)scale(0.1 -0.1)">
       <use xlink:href="#DejaVuSans-38"/>
       <use x="63.623047" xlink:href="#DejaVuSans-30"/>
      </g>
     </g>
    </g>
    <g id="text_15">
     <!-- mean age -->
     <defs>
      <path d="M 52 44.1875 
Q 55.375 50.25 60.0625 53.125 
Q 64.75 56 71.09375 56 
Q 79.640625 56 84.28125 50.015625 
Q 88.921875 44.046875 88.921875 33.015625 
L 88.921875 0 
L 79.890625 0 
L 79.890625 32.71875 
Q 79.890625 40.578125 77.09375 44.375 
Q 74.3125 48.1875 68.609375 48.1875 
Q 61.625 48.1875 57.5625 43.546875 
Q 53.515625 38.921875 53.515625 30.90625 
L 53.515625 0 
L 44.484375 0 
L 44.484375 32.71875 
Q 44.484375 40.625 41.703125 44.40625 
Q 38.921875 48.1875 33.109375 48.1875 
Q 26.21875 48.1875 22.15625 43.53125 
Q 18.109375 38.875 18.109375 30.90625 
L 18.109375 0 
L 9.078125 0 
L 9.078125 54.6875 
L 18.109375 54.6875 
L 18.109375 46.1875 
Q 21.1875 51.21875 25.484375 53.609375 
Q 29.78125 56 35.6875 56 
Q 41.65625 56 45.828125 52.96875 
Q 50 49.953125 52 44.1875 
z
" id="DejaVuSans-6d"/>
      <path d="M 56.203125 29.59375 
L 56.203125 25.203125 
L 14.890625 25.203125 
Q 15.484375 15.921875 20.484375 11.0625 
Q 25.484375 6.203125 34.421875 6.203125 
Q 39.59375 6.203125 44.453125 7.46875 
Q 49.3125 8.734375 54.109375 11.28125 
L 54.109375 2.78125 
Q 49.265625 0.734375 44.1875 -0.34375 
Q 39.109375 -1.421875 33.890625 -1.421875 
Q 20.796875 -1.421875 13.15625 6.1875 
Q 5.515625 13.8125 5.515625 26.8125 
Q 5.515625 40.234375 12.765625 48.109375 
Q 20.015625 56 32.328125 56 
Q 43.359375 56 49.78125 48.890625 
Q 56.203125 41.796875 56.203125 29.59375 
z
M 47.21875 32.234375 
Q 47.125 39.59375 43.09375 43.984375 
Q 39.0625 48.390625 32.421875 48.390625 
Q 24.90625 48.390625 20.390625 44.140625 
Q 15.875 39.890625 15.1875 32.171875 
z
" id="DejaVuSans-65"/>
      <path d="M 34.28125 27.484375 
Q 23.390625 27.484375 19.1875 25 
Q 14.984375 22.515625 14.984375 16.5 
Q 14.984375 11.71875 18.140625 8.90625 
Q 21.296875 6.109375 26.703125 6.109375 
Q 34.1875 6.109375 38.703125 11.40625 
Q 43.21875 16.703125 43.21875 25.484375 
L 43.21875 27.484375 
z
M 52.203125 31.203125 
L 52.203125 0 
L 43.21875 0 
L 43.21875 8.296875 
Q 40.140625 3.328125 35.546875 0.953125 
Q 30.953125 -1.421875 24.3125 -1.421875 
Q 15.921875 -1.421875 10.953125 3.296875 
Q 6 8.015625 6 15.921875 
Q 6 25.140625 12.171875 29.828125 
Q 18.359375 34.515625 30.609375 34.515625 
L 43.21875 34.515625 
L 43.21875 35.40625 
Q 43.21875 41.609375 39.140625 45 
Q 35.0625 48.390625 27.6875 48.390625 
Q 23 48.390625 18.546875 47.265625 
Q 14.109375 46.140625 10.015625 43.890625 
L 10.015625 52.203125 
Q 14.9375 54.109375 19.578125 55.046875 
Q 24.21875 56 28.609375 56 
Q 40.484375 56 46.34375 49.84375 
Q 52.203125 43.703125 52.203125 31.203125 
z
" id="DejaVuSans-61"/>
      <path d="M 54.890625 33.015625 
L 54.890625 0 
L 45.90625 0 
L 45.90625 32.71875 
Q 45.90625 40.484375 42.875 44.328125 
Q 39.84375 48.1875 33.796875 48.1875 
Q 26.515625 48.1875 22.3125 43.546875 
Q 18.109375 38.921875 18.109375 30.90625 
L 18.109375 0 
L 9.078125 0 
L 9.078125 54.6875 
L 18.109375 54.6875 
L 18.109375 46.1875 
Q 21.34375 51.125 25.703125 53.5625 
Q 30.078125 56 35.796875 56 
Q 45.21875 56 50.046875 50.171875 
Q 54.890625 44.34375 54.890625 33.015625 
z
" id="DejaVuSans-6e"/>
      <path id="DejaVuSans-20"/>
      <path d="M 45.40625 27.984375 
Q 45.40625 37.75 41.375 43.109375 
Q 37.359375 48.484375 30.078125 48.484375 
Q 22.859375 48.484375 18.828125 43.109375 
Q 14.796875 37.75 14.796875 27.984375 
Q 14.796875 18.265625 18.828125 12.890625 
Q 22.859375 7.515625 30.078125 7.515625 
Q 37.359375 7.515625 41.375 12.890625 
Q 45.40625 18.265625 45.40625 27.984375 
z
M 54.390625 6.78125 
Q 54.390625 -7.171875 48.1875 -13.984375 
Q 42 -20.796875 29.203125 -20.796875 
Q 24.46875 -20.796875 20.265625 -20.09375 
Q 16.0625 -19.390625 12.109375 -17.921875 
L 12.109375 -9.1875 
Q 16.0625 -11.328125 19.921875 -12.34375 
Q 23.78125 -13.375 27.78125 -13.375 
Q 36.625 -13.375 41.015625 -8.765625 
Q 45.40625 -4.15625 45.40625 5.171875 
L 45.40625 9.625 
Q 42.625 4.78125 38.28125 2.390625 
Q 33.9375 0 27.875 0 
Q 17.828125 0 11.671875 7.65625 
Q 5.515625 15.328125 5.515625 27.984375 
Q 5.515625 40.671875 11.671875 48.328125 
Q 17.828125 56 27.875 56 
Q 33.9375 56 38.28125 53.609375 
Q 42.625 51.21875 45.40625 46.390625 
L 45.40625 54.6875 
L 54.390625 54.6875 
z
" id="DejaVuSans-67"/>
     </defs>
     <g transform="translate(24.760938 129.064531)rotate(-90)scale(0.1 -0.1)">
      <use xlink:href="#DejaVuSans-6d"/>
      <use x="97.412109" xlink:href="#DejaVuSans-65"/>
      <use x="158.935547" xlink:href="#DejaVuSans-61"/>
      <use x="220.214844" xlink:href="#DejaVuSans-6e"/>
      <use x="283.59375" xlink:href="#DejaVuSans-20"/>
      <use x="315.380859" xlink:href="#DejaVuSans-61"/>
      <use x="376.660156" xlink:href="#DejaVuSans-67"/>
      <use x="440.136719" xlink:href="#DejaVuSans-65"/>
     </g>
    </g>
   </g>
   <g id="line2d_14">
    <path clip-path="url(#p275392ae95)" d="M 50.565625 127.587841 
L 50.716093 169.050576 
L 50.909553 174.264908 
L 51.081516 174.947131 
L 51.167498 174.857143 
L 51.360957 174.172514 
L 51.833858 171.399395 
L 56.068465 144.462599 
L 58.647921 129.997419 
L 61.377846 115.952455 
L 64.193752 102.61511 
L 66.988163 90.431403 
L 69.632106 79.869423 
L 72.018103 71.218803 
L 74.124659 64.387322 
L 75.930278 59.248212 
L 77.499447 55.422647 
L 78.832166 52.723549 
L 79.992922 50.846874 
L 81.003209 49.617747 
L 81.863028 48.897305 
L 82.636864 48.52401 
L 83.346215 48.423015 
L 84.03407 48.553234 
L 84.721925 48.91215 
L 85.474266 49.566095 
L 86.31259 50.606859 
L 87.279886 52.185708 
L 88.440641 54.53163 
L 90.074297 58.391012 
L 93.492076 66.568606 
L 94.889282 69.274373 
L 96.093028 71.138109 
L 97.167801 72.410252 
L 98.156593 73.254054 
L 99.102393 73.778214 
L 100.026699 74.03732 
L 100.951004 74.062737 
L 101.896804 73.865386 
L 102.928587 73.415098 
L 104.046351 72.678519 
L 105.314584 71.56649 
L 106.75478 69.997052 
L 108.431427 67.828062 
L 110.430505 64.861581 
L 112.945475 60.705971 
L 116.728678 53.967768 
L 122.038059 44.568513 
L 124.531533 40.612324 
L 126.509116 37.873916 
L 128.142772 35.971436 
L 129.561473 34.645975 
L 130.80821 33.775925 
L 131.904479 33.269403 
L 132.914766 33.039208 
L 133.860566 33.046018 
L 134.784872 33.273236 
L 135.730672 33.74145 
L 136.697968 34.473207 
L 137.751246 35.561339 
L 138.890506 37.069064 
L 140.20173 39.192568 
L 141.792394 42.22207 
L 144.285869 47.530443 
L 147.144766 53.475403 
L 148.821413 56.458692 
L 150.240114 58.553144 
L 151.529842 60.075351 
L 152.712093 61.141885 
L 153.851352 61.875993 
L 154.947621 62.320724 
L 156.022395 62.521367 
L 157.118664 62.502408 
L 158.279419 62.256288 
L 159.526156 61.758015 
L 160.901866 60.959552 
L 162.44954 59.793292 
L 164.233664 58.158912 
L 166.383211 55.87429 
L 169.285099 52.438781 
L 176.357108 43.939603 
L 178.571141 41.698329 
L 180.398256 40.155403 
L 181.967425 39.110691 
L 183.364631 38.437212 
L 184.654359 38.057258 
L 185.858105 37.930948 
L 187.018861 38.030999 
L 188.179616 38.357066 
L 189.361867 38.924321 
L 190.608604 39.774899 
L 191.962818 40.974894 
L 193.510492 42.654829 
L 195.445084 45.104732 
L 202.151671 53.900896 
L 203.806822 55.538279 
L 205.290009 56.699873 
L 206.665719 57.501907 
L 207.998438 58.023502 
L 209.309662 58.297155 
L 210.620885 58.344624 
L 211.996595 58.168129 
L 213.458287 57.749836 
L 215.048952 57.056174 
L 216.833076 56.027398 
L 218.918136 54.558216 
L 221.583574 52.390272 
L 230.439708 44.960918 
L 232.546263 43.610008 
L 234.351883 42.708311 
L 235.985538 42.135975 
L 237.490221 41.838897 
L 238.930418 41.777407 
L 240.349119 41.938905 
L 241.789315 42.33001 
L 243.293998 42.975537 
L 244.927653 43.92808 
L 246.797759 45.288423 
L 249.269738 47.387028 
L 254.686596 52.062789 
L 256.70717 53.460612 
L 258.469799 54.416521 
L 260.103454 55.056324 
L 261.694119 55.442926 
L 263.263288 55.598002 
L 264.875448 55.533859 
L 266.57359 55.240401 
L 268.400705 54.695144 
L 270.46427 53.839137 
L 272.914754 52.56979 
L 276.375524 50.499607 
L 282.007337 47.131371 
L 284.543802 45.889305 
L 286.671854 45.08574 
L 288.606446 44.589455 
L 290.412065 44.354359 
L 292.153198 44.350773 
L 293.894331 44.570418 
L 295.699951 45.026653 
L 297.634543 45.749709 
L 299.891567 46.84218 
L 303.072896 48.657727 
L 307.737413 51.297129 
L 310.12341 52.377306 
L 312.208471 53.079608 
L 314.164558 53.504692 
L 316.077655 53.693169 
L 318.012247 53.660458 
L 320.054317 53.40004 
L 322.26835 52.888538 
L 324.826311 52.059955 
L 328.158108 50.728437 
L 335.939468 47.53587 
L 338.604906 46.735771 
L 340.947912 46.261676 
L 343.118955 46.047025 
L 345.225511 46.060423 
L 347.375058 46.299232 
L 349.632082 46.776831 
L 352.211538 47.557763 
L 355.779786 48.895043 
L 361.304121 50.955918 
L 364.034046 51.719989 
L 366.463034 52.171815 
L 368.784544 52.379268 
L 371.12755 52.364667 
L 373.599529 52.12241 
L 376.329454 51.624883 
L 379.661252 50.779619 
L 390.860391 47.745383 
L 393.676297 47.332132 
L 396.277249 47.172283 
L 398.83521 47.236602 
L 401.500648 47.52843 
L 404.488518 48.086226 
L 408.572657 49.097681 
L 414.91382 50.661251 
L 418.09515 51.197429 
L 420.975543 51.457449 
L 423.791449 51.488195 
L 426.736328 51.296122 
L 430.068126 50.848943 
L 434.539183 50.004259 
L 442.342038 48.516053 
L 445.867295 48.096523 
L 449.048625 47.941301 
L 452.165468 48.012656 
L 455.497265 48.31623 
L 459.581404 48.926288 
L 469.856238 50.565171 
L 473.424486 50.83775 
L 476.842266 50.87532 
L 480.432009 50.689334 
L 480.475 50.685866 
L 480.475 50.685866 
" style="fill:none;stroke:#1f77b4;stroke-linecap:square;stroke-width:1.5;"/>
   </g>
   <g id="patch_3">
    <path d="M 50.565625 182.04375 
L 50.565625 25.918125 
" style="fill:none;stroke:#000000;stroke-linecap:square;stroke-linejoin:miter;stroke-width:0.8;"/>
   </g>
   <g id="patch_4">
    <path d="M 480.475 182.04375 
L 480.475 25.918125 
" style="fill:none;stroke:#000000;stroke-linecap:square;stroke-linejoin:miter;stroke-width:0.8;"/>
   </g>
   <g id="patch_5">
    <path d="M 50.565625 182.04375 
L 480.475 182.04375 
" style="fill:none;stroke:#000000;stroke-linecap:square;stroke-linejoin:miter;stroke-width:0.8;"/>
   </g>
   <g id="patch_6">
    <path d="M 50.565625 25.918125 
L 480.475 25.918125 
" style="fill:none;stroke:#000000;stroke-linecap:square;stroke-linejoin:miter;stroke-width:0.8;"/>
   </g>
   <g id="text_16">
    <!-- System -->
    <defs>
     <path d="M 53.515625 70.515625 
L 53.515625 60.890625 
Q 47.90625 63.578125 42.921875 64.890625 
Q 37.9375 66.21875 33.296875 66.21875 
Q 25.25 66.21875 20.875 63.09375 
Q 16.5 59.96875 16.5 54.203125 
Q 16.5 49.359375 19.40625 46.890625 
Q 22.3125 44.4375 30.421875 42.921875 
L 36.375 41.703125 
Q 47.40625 39.59375 52.65625 34.296875 
Q 57.90625 29 57.90625 20.125 
Q 57.90625 9.515625 50.796875 4.046875 
Q 43.703125 -1.421875 29.984375 -1.421875 
Q 24.8125 -1.421875 18.96875 -0.25 
Q 13.140625 0.921875 6.890625 3.21875 
L 6.890625 13.375 
Q 12.890625 10.015625 18.65625 8.296875 
Q 24.421875 6.59375 29.984375 6.59375 
Q 38.421875 6.59375 43.015625 9.90625 
Q 47.609375 13.234375 47.609375 19.390625 
Q 47.609375 24.75 44.3125 27.78125 
Q 41.015625 30.8125 33.5 32.328125 
L 27.484375 33.5 
Q 16.453125 35.6875 11.515625 40.375 
Q 6.59375 45.0625 6.59375 53.421875 
Q 6.59375 63.09375 13.40625 68.65625 
Q 20.21875 74.21875 32.171875 74.21875 
Q 37.3125 74.21875 42.625 73.28125 
Q 47.953125 72.359375 53.515625 70.515625 
z
" id="DejaVuSans-53"/>
     <path d="M 32.171875 -5.078125 
Q 28.375 -14.84375 24.75 -17.8125 
Q 21.140625 -20.796875 15.09375 -20.796875 
L 7.90625 -20.796875 
L 7.90625 -13.28125 
L 13.1875 -13.28125 
Q 16.890625 -13.28125 18.9375 -11.515625 
Q 21 -9.765625 23.484375 -3.21875 
L 25.09375 0.875 
L 2.984375 54.6875 
L 12.5 54.6875 
L 29.59375 11.921875 
L 46.6875 54.6875 
L 56.203125 54.6875 
z
" id="DejaVuSans-79"/>
     <path d="M 44.28125 53.078125 
L 44.28125 44.578125 
Q 40.484375 46.53125 36.375 47.5 
Q 32.28125 48.484375 27.875 48.484375 
Q 21.1875 48.484375 17.84375 46.4375 
Q 14.5 44.390625 14.5 40.28125 
Q 14.5 37.15625 16.890625 35.375 
Q 19.28125 33.59375 26.515625 31.984375 
L 29.59375 31.296875 
Q 39.15625 29.25 43.1875 25.515625 
Q 47.21875 21.78125 47.21875 15.09375 
Q 47.21875 7.46875 41.1875 3.015625 
Q 35.15625 -1.421875 24.609375 -1.421875 
Q 20.21875 -1.421875 15.453125 -0.5625 
Q 10.6875 0.296875 5.421875 2 
L 5.421875 11.28125 
Q 10.40625 8.6875 15.234375 7.390625 
Q 20.0625 6.109375 24.8125 6.109375 
Q 31.15625 6.109375 34.5625 8.28125 
Q 37.984375 10.453125 37.984375 14.40625 
Q 37.984375 18.0625 35.515625 20.015625 
Q 33.0625 21.96875 24.703125 23.78125 
L 21.578125 24.515625 
Q 13.234375 26.265625 9.515625 29.90625 
Q 5.8125 33.546875 5.8125 39.890625 
Q 5.8125 47.609375 11.28125 51.796875 
Q 16.75 56 26.8125 56 
Q 31.78125 56 36.171875 55.265625 
Q 40.578125 54.546875 44.28125 53.078125 
z
" id="DejaVuSans-73"/>
     <path d="M 18.3125 70.21875 
L 18.3125 54.6875 
L 36.8125 54.6875 
L 36.8125 47.703125 
L 18.3125 47.703125 
L 18.3125 18.015625 
Q 18.3125 11.328125 20.140625 9.421875 
Q 21.96875 7.515625 27.59375 7.515625 
L 36.8125 7.515625 
L 36.8125 0 
L 27.59375 0 
Q 17.1875 0 13.234375 3.875 
Q 9.28125 7.765625 9.28125 18.015625 
L 9.28125 47.703125 
L 2.6875 47.703125 
L 2.6875 54.6875 
L 9.28125 54.6875 
L 9.28125 70.21875 
z
" id="DejaVuSans-74"/>
    </defs>
    <g transform="translate(243.145938 19.918125)scale(0.12 -0.12)">
     <use xlink:href="#DejaVuSans-53"/>
     <use x="63.476562" xlink:href="#DejaVuSans-79"/>
     <use x="122.65625" xlink:href="#DejaVuSans-73"/>
     <use x="174.755859" xlink:href="#DejaVuSans-74"/>
     <use x="213.964844" xlink:href="#DejaVuSans-65"/>
     <use x="275.488281" xlink:href="#DejaVuSans-6d"/>
    </g>
   </g>
  </g>
  <g id="axes_2">
   <g id="patch_7">
    <path d="M 50.565625 394.44375 
L 480.475 394.44375 
L 480.475 238.318125 
L 50.565625 238.318125 
z
" style="fill:#ffffff;"/>
   </g>
   <g id="matplotlib.axis_3">
    <g id="xtick_10">
     <g id="line2d_15">
      <g>
       <use style="stroke:#000000;stroke-width:0.8;" x="50.565625" xlink:href="#m34096cf129" y="394.44375"/>
      </g>
     </g>
     <g id="text_17">
      <!-- 0 -->
      <g transform="translate(47.384375 409.042187)scale(0.1 -0.1)">
       <use xlink:href="#DejaVuSans-30"/>
      </g>
     </g>
    </g>
    <g id="xtick_11">
     <g id="line2d_16">
      <g>
       <use style="stroke:#000000;stroke-width:0.8;" x="104.304297" xlink:href="#m34096cf129" y="394.44375"/>
      </g>
     </g>
     <g id="text_18">
      <!-- 250 -->
      <g transform="translate(94.760547 409.042187)scale(0.1 -0.1)">
       <use xlink:href="#DejaVuSans-32"/>
       <use x="63.623047" xlink:href="#DejaVuSans-35"/>
       <use x="127.246094" xlink:href="#DejaVuSans-30"/>
      </g>
     </g>
    </g>
    <g id="xtick_12">
     <g id="line2d_17">
      <g>
       <use style="stroke:#000000;stroke-width:0.8;" x="158.042969" xlink:href="#m34096cf129" y="394.44375"/>
      </g>
     </g>
     <g id="text_19">
      <!-- 500 -->
      <g transform="translate(148.499219 409.042187)scale(0.1 -0.1)">
       <use xlink:href="#DejaVuSans-35"/>
       <use x="63.623047" xlink:href="#DejaVuSans-30"/>
       <use x="127.246094" xlink:href="#DejaVuSans-30"/>
      </g>
     </g>
    </g>
    <g id="xtick_13">
     <g id="line2d_18">
      <g>
       <use style="stroke:#000000;stroke-width:0.8;" x="211.781641" xlink:href="#m34096cf129" y="394.44375"/>
      </g>
     </g>
     <g id="text_20">
      <!-- 750 -->
      <g transform="translate(202.237891 409.042187)scale(0.1 -0.1)">
       <use xlink:href="#DejaVuSans-37"/>
       <use x="63.623047" xlink:href="#DejaVuSans-35"/>
       <use x="127.246094" xlink:href="#DejaVuSans-30"/>
      </g>
     </g>
    </g>
    <g id="xtick_14">
     <g id="line2d_19">
      <g>
       <use style="stroke:#000000;stroke-width:0.8;" x="265.520313" xlink:href="#m34096cf129" y="394.44375"/>
      </g>
     </g>
     <g id="text_21">
      <!-- 1000 -->
      <g transform="translate(252.795313 409.042187)scale(0.1 -0.1)">
       <use xlink:href="#DejaVuSans-31"/>
       <use x="63.623047" xlink:href="#DejaVuSans-30"/>
       <use x="127.246094" xlink:href="#DejaVuSans-30"/>
       <use x="190.869141" xlink:href="#DejaVuSans-30"/>
      </g>
     </g>
    </g>
    <g id="xtick_15">
     <g id="line2d_20">
      <g>
       <use style="stroke:#000000;stroke-width:0.8;" x="319.258984" xlink:href="#m34096cf129" y="394.44375"/>
      </g>
     </g>
     <g id="text_22">
      <!-- 1250 -->
      <g transform="translate(306.533984 409.042187)scale(0.1 -0.1)">
       <use xlink:href="#DejaVuSans-31"/>
       <use x="63.623047" xlink:href="#DejaVuSans-32"/>
       <use x="127.246094" xlink:href="#DejaVuSans-35"/>
       <use x="190.869141" xlink:href="#DejaVuSans-30"/>
      </g>
     </g>
    </g>
    <g id="xtick_16">
     <g id="line2d_21">
      <g>
       <use style="stroke:#000000;stroke-width:0.8;" x="372.997656" xlink:href="#m34096cf129" y="394.44375"/>
      </g>
     </g>
     <g id="text_23">
      <!-- 1500 -->
      <g transform="translate(360.272656 409.042187)scale(0.1 -0.1)">
       <use xlink:href="#DejaVuSans-31"/>
       <use x="63.623047" xlink:href="#DejaVuSans-35"/>
       <use x="127.246094" xlink:href="#DejaVuSans-30"/>
       <use x="190.869141" xlink:href="#DejaVuSans-30"/>
      </g>
     </g>
    </g>
    <g id="xtick_17">
     <g id="line2d_22">
      <g>
       <use style="stroke:#000000;stroke-width:0.8;" x="426.736328" xlink:href="#m34096cf129" y="394.44375"/>
      </g>
     </g>
     <g id="text_24">
      <!-- 1750 -->
      <g transform="translate(414.011328 409.042187)scale(0.1 -0.1)">
       <use xlink:href="#DejaVuSans-31"/>
       <use x="63.623047" xlink:href="#DejaVuSans-37"/>
       <use x="127.246094" xlink:href="#DejaVuSans-35"/>
       <use x="190.869141" xlink:href="#DejaVuSans-30"/>
      </g>
     </g>
    </g>
    <g id="xtick_18">
     <g id="line2d_23">
      <g>
       <use style="stroke:#000000;stroke-width:0.8;" x="480.475" xlink:href="#m34096cf129" y="394.44375"/>
      </g>
     </g>
     <g id="text_25">
      <!-- 2000 -->
      <g transform="translate(467.75 409.042187)scale(0.1 -0.1)">
       <use xlink:href="#DejaVuSans-32"/>
       <use x="63.623047" xlink:href="#DejaVuSans-30"/>
       <use x="127.246094" xlink:href="#DejaVuSans-30"/>
       <use x="190.869141" xlink:href="#DejaVuSans-30"/>
      </g>
     </g>
    </g>
    <g id="text_26">
     <!-- $t$ -->
     <g transform="translate(263.520313 422.720312)scale(0.1 -0.1)">
      <use transform="translate(0 0.78125)" xlink:href="#DejaVuSans-Oblique-74"/>
     </g>
    </g>
   </g>
   <g id="matplotlib.axis_4">
    <g id="ytick_5">
     <g id="line2d_24">
      <g>
       <use style="stroke:#000000;stroke-width:0.8;" x="50.565625" xlink:href="#md8c077c456" y="380.41953"/>
      </g>
     </g>
     <g id="text_27">
      <!-- 20 -->
      <g transform="translate(30.840625 384.218748)scale(0.1 -0.1)">
       <use xlink:href="#DejaVuSans-32"/>
       <use x="63.623047" xlink:href="#DejaVuSans-30"/>
      </g>
     </g>
    </g>
    <g id="ytick_6">
     <g id="line2d_25">
      <g>
       <use style="stroke:#000000;stroke-width:0.8;" x="50.565625" xlink:href="#md8c077c456" y="348.201267"/>
      </g>
     </g>
     <g id="text_28">
      <!-- 40 -->
      <g transform="translate(30.840625 352.000486)scale(0.1 -0.1)">
       <use xlink:href="#DejaVuSans-34"/>
       <use x="63.623047" xlink:href="#DejaVuSans-30"/>
      </g>
     </g>
    </g>
    <g id="ytick_7">
     <g id="line2d_26">
      <g>
       <use style="stroke:#000000;stroke-width:0.8;" x="50.565625" xlink:href="#md8c077c456" y="315.983005"/>
      </g>
     </g>
     <g id="text_29">
      <!-- 60 -->
      <g transform="translate(30.840625 319.782224)scale(0.1 -0.1)">
       <use xlink:href="#DejaVuSans-36"/>
       <use x="63.623047" xlink:href="#DejaVuSans-30"/>
      </g>
     </g>
    </g>
    <g id="ytick_8">
     <g id="line2d_27">
      <g>
       <use style="stroke:#000000;stroke-width:0.8;" x="50.565625" xlink:href="#md8c077c456" y="283.764743"/>
      </g>
     </g>
     <g id="text_30">
      <!-- 80 -->
      <g transform="translate(30.840625 287.563962)scale(0.1 -0.1)">
       <use xlink:href="#DejaVuSans-38"/>
       <use x="63.623047" xlink:href="#DejaVuSans-30"/>
      </g>
     </g>
    </g>
    <g id="ytick_9">
     <g id="line2d_28">
      <g>
       <use style="stroke:#000000;stroke-width:0.8;" x="50.565625" xlink:href="#md8c077c456" y="251.546481"/>
      </g>
     </g>
     <g id="text_31">
      <!-- 100 -->
      <g transform="translate(24.478125 255.3457)scale(0.1 -0.1)">
       <use xlink:href="#DejaVuSans-31"/>
       <use x="63.623047" xlink:href="#DejaVuSans-30"/>
       <use x="127.246094" xlink:href="#DejaVuSans-30"/>
      </g>
     </g>
    </g>
    <g id="text_32">
     <!-- mean age -->
     <g transform="translate(18.398438 341.464531)rotate(-90)scale(0.1 -0.1)">
      <use xlink:href="#DejaVuSans-6d"/>
      <use x="97.412109" xlink:href="#DejaVuSans-65"/>
      <use x="158.935547" xlink:href="#DejaVuSans-61"/>
      <use x="220.214844" xlink:href="#DejaVuSans-6e"/>
      <use x="283.59375" xlink:href="#DejaVuSans-20"/>
      <use x="315.380859" xlink:href="#DejaVuSans-61"/>
      <use x="376.660156" xlink:href="#DejaVuSans-67"/>
      <use x="440.136719" xlink:href="#DejaVuSans-65"/>
     </g>
    </g>
   </g>
   <g id="line2d_29">
    <path clip-path="url(#pe12fc531d4)" d="M 50.565625 387.347131 
L 50.78058 385.788204 
L 51.339462 383.881616 
L 52.414235 380.112562 
L 53.639477 374.903319 
L 55.466592 366.054856 
L 64.34422 321.794111 
L 67.246109 309.024728 
L 69.976033 297.990802 
L 72.491003 288.725375 
L 74.726532 281.301155 
L 76.704115 275.472047 
L 78.423753 271.063684 
L 79.928435 267.791927 
L 81.239659 265.447819 
L 82.400414 263.809415 
L 83.432197 262.724421 
L 84.356502 262.064412 
L 85.194825 261.727525 
L 85.990158 261.639209 
L 86.78549 261.77266 
L 87.623813 262.144333 
L 88.548118 262.810396 
L 89.601396 263.860327 
L 90.869629 265.458966 
L 92.610762 268.046248 
L 96.759387 274.332557 
L 98.285566 276.17497 
L 99.596789 277.423098 
L 100.77904 278.255391 
L 101.896804 278.778117 
L 102.971578 279.039422 
L 104.046351 279.070537 
L 105.14262 278.875803 
L 106.303375 278.435643 
L 107.550113 277.715871 
L 108.925823 276.654 
L 110.473496 275.165201 
L 112.236125 273.149763 
L 114.342681 270.387055 
L 117.029614 266.471921 
L 126.810053 251.858004 
L 128.787636 249.493883 
L 130.442787 247.84727 
L 131.882983 246.716966 
L 133.151216 245.991929 
L 134.311971 245.575786 
L 135.386745 245.418686 
L 136.440023 245.489628 
L 137.471805 245.7821 
L 138.546579 246.323666 
L 139.685838 247.156902 
L 140.932576 248.35758 
L 142.351277 250.050448 
L 144.070914 252.472149 
L 146.714857 256.637657 
L 150.003663 261.724762 
L 151.852274 264.174362 
L 153.421443 265.898001 
L 154.840144 267.1349 
L 156.151368 267.992255 
L 157.398105 268.550885 
L 158.623346 268.86129 
L 159.848588 268.944976 
L 161.116821 268.807002 
L 162.44954 268.434901 
L 163.889736 267.796903 
L 165.480401 266.843112 
L 167.307516 265.477666 
L 169.478558 263.564977 
L 172.423437 260.648137 
L 178.979555 254.066588 
L 181.193589 252.208804 
L 183.042199 250.937475 
L 184.654359 250.08978 
L 186.116051 249.565318 
L 187.470265 249.308551 
L 188.781489 249.283997 
L 190.071217 249.482326 
L 191.382441 249.910889 
L 192.758151 250.59866 
L 194.262834 251.608448 
L 195.982471 253.043499 
L 198.153513 255.164892 
L 204.795613 261.86041 
L 206.644224 263.297912 
L 208.299375 264.311177 
L 209.847048 265.002215 
L 211.330236 265.424888 
L 212.813423 265.615413 
L 214.318106 265.580997 
L 215.887275 265.317324 
L 217.563922 264.803496 
L 219.412532 263.996227 
L 221.540583 262.813198 
L 224.184526 261.073983 
L 233.685523 254.580821 
L 235.770584 253.561545 
L 237.619194 252.898659 
L 239.317336 252.521096 
L 240.929496 252.386572 
L 242.520161 252.476909 
L 244.132321 252.794622 
L 245.808968 253.355419 
L 247.636083 254.205719 
L 249.785629 255.461624 
L 252.923968 257.585878 
L 257.223062 260.459595 
L 259.523077 261.719345 
L 261.50066 262.554678 
L 263.34927 263.096669 
L 265.133394 263.389428 
L 266.917518 263.456993 
L 268.766128 263.300878 
L 270.722216 262.907675 
L 272.871763 262.243212 
L 275.386733 261.223792 
L 278.826008 259.566772 
L 285.12418 256.506897 
L 287.746627 255.508426 
L 289.982156 254.890309 
L 292.024225 254.552352 
L 293.980313 254.452141 
L 295.914905 254.575065 
L 297.913984 254.927348 
L 300.063531 255.53635 
L 302.578501 256.490096 
L 306.361703 258.196736 
L 310.78977 260.134699 
L 313.390721 261.027447 
L 315.690737 261.585032 
L 317.861779 261.884461 
L 320.011326 261.957494 
L 322.225359 261.809458 
L 324.611356 261.422302 
L 327.319785 260.748852 
L 330.802051 259.636805 
L 339.077807 256.906895 
L 341.893713 256.268513 
L 344.387187 255.926602 
L 346.773184 255.823553 
L 349.137686 255.94477 
L 351.609665 256.296034 
L 354.404076 256.924766 
L 358.187278 258.02602 
L 364.528442 259.878093 
L 367.516312 260.495922 
L 370.203245 260.826195 
L 372.804197 260.922741 
L 375.469635 260.798573 
L 378.371523 260.436241 
L 381.832294 259.768728 
L 388.753835 258.132663 
L 392.859469 257.311885 
L 396.040799 256.89965 
L 398.942687 256.745219 
L 401.82308 256.816037 
L 404.853941 257.116984 
L 408.422189 257.705242 
L 420.803579 259.95564 
L 424.027899 260.181957 
L 427.209228 260.180345 
L 430.584017 259.950931 
L 434.560679 259.44749 
L 448.296283 257.505151 
L 451.843036 257.361594 
L 455.346797 257.444558 
L 459.17299 257.763724 
L 464.460876 258.452522 
L 471.833822 259.388552 
L 475.917961 259.668192 
L 479.744154 259.707183 
L 480.475 259.689907 
L 480.475 259.689907 
" style="fill:none;stroke:#1f77b4;stroke-linecap:square;stroke-width:1.5;"/>
   </g>
   <g id="patch_8">
    <path d="M 50.565625 394.44375 
L 50.565625 238.318125 
" style="fill:none;stroke:#000000;stroke-linecap:square;stroke-linejoin:miter;stroke-width:0.8;"/>
   </g>
   <g id="patch_9">
    <path d="M 480.475 394.44375 
L 480.475 238.318125 
" style="fill:none;stroke:#000000;stroke-linecap:square;stroke-linejoin:miter;stroke-width:0.8;"/>
   </g>
   <g id="patch_10">
    <path d="M 50.565625 394.44375 
L 480.475 394.44375 
" style="fill:none;stroke:#000000;stroke-linecap:square;stroke-linejoin:miter;stroke-width:0.8;"/>
   </g>
   <g id="patch_11">
    <path d="M 50.565625 238.318125 
L 480.475 238.318125 
" style="fill:none;stroke:#000000;stroke-linecap:square;stroke-linejoin:miter;stroke-width:0.8;"/>
   </g>
   <g id="text_33">
    <!-- $X$ -->
    <defs>
     <path d="M 13.71875 72.90625 
L 23.6875 72.90625 
L 36.1875 46.578125 
L 58.796875 72.90625 
L 70.3125 72.90625 
L 40.28125 38.09375 
L 58.40625 0 
L 48.484375 0 
L 33.796875 30.71875 
L 7.171875 0 
L -4.296875 0 
L 29.78125 39.203125 
z
" id="DejaVuSans-Oblique-58"/>
    </defs>
    <g transform="translate(261.380313 232.318125)scale(0.12 -0.12)">
     <use transform="translate(0 0.09375)" xlink:href="#DejaVuSans-Oblique-58"/>
    </g>
   </g>
  </g>
  <g id="axes_3">
   <g id="patch_12">
    <path d="M 50.565625 606.84375 
L 480.475 606.84375 
L 480.475 450.718125 
L 50.565625 450.718125 
z
" style="fill:#ffffff;"/>
   </g>
   <g id="matplotlib.axis_5">
    <g id="xtick_19">
     <g id="line2d_30">
      <g>
       <use style="stroke:#000000;stroke-width:0.8;" x="50.565625" xlink:href="#m34096cf129" y="606.84375"/>
      </g>
     </g>
     <g id="text_34">
      <!-- 0 -->
      <g transform="translate(47.384375 621.442187)scale(0.1 -0.1)">
       <use xlink:href="#DejaVuSans-30"/>
      </g>
     </g>
    </g>
    <g id="xtick_20">
     <g id="line2d_31">
      <g>
       <use style="stroke:#000000;stroke-width:0.8;" x="104.304297" xlink:href="#m34096cf129" y="606.84375"/>
      </g>
     </g>
     <g id="text_35">
      <!-- 250 -->
      <g transform="translate(94.760547 621.442187)scale(0.1 -0.1)">
       <use xlink:href="#DejaVuSans-32"/>
       <use x="63.623047" xlink:href="#DejaVuSans-35"/>
       <use x="127.246094" xlink:href="#DejaVuSans-30"/>
      </g>
     </g>
    </g>
    <g id="xtick_21">
     <g id="line2d_32">
      <g>
       <use style="stroke:#000000;stroke-width:0.8;" x="158.042969" xlink:href="#m34096cf129" y="606.84375"/>
      </g>
     </g>
     <g id="text_36">
      <!-- 500 -->
      <g transform="translate(148.499219 621.442187)scale(0.1 -0.1)">
       <use xlink:href="#DejaVuSans-35"/>
       <use x="63.623047" xlink:href="#DejaVuSans-30"/>
       <use x="127.246094" xlink:href="#DejaVuSans-30"/>
      </g>
     </g>
    </g>
    <g id="xtick_22">
     <g id="line2d_33">
      <g>
       <use style="stroke:#000000;stroke-width:0.8;" x="211.781641" xlink:href="#m34096cf129" y="606.84375"/>
      </g>
     </g>
     <g id="text_37">
      <!-- 750 -->
      <g transform="translate(202.237891 621.442187)scale(0.1 -0.1)">
       <use xlink:href="#DejaVuSans-37"/>
       <use x="63.623047" xlink:href="#DejaVuSans-35"/>
       <use x="127.246094" xlink:href="#DejaVuSans-30"/>
      </g>
     </g>
    </g>
    <g id="xtick_23">
     <g id="line2d_34">
      <g>
       <use style="stroke:#000000;stroke-width:0.8;" x="265.520313" xlink:href="#m34096cf129" y="606.84375"/>
      </g>
     </g>
     <g id="text_38">
      <!-- 1000 -->
      <g transform="translate(252.795313 621.442187)scale(0.1 -0.1)">
       <use xlink:href="#DejaVuSans-31"/>
       <use x="63.623047" xlink:href="#DejaVuSans-30"/>
       <use x="127.246094" xlink:href="#DejaVuSans-30"/>
       <use x="190.869141" xlink:href="#DejaVuSans-30"/>
      </g>
     </g>
    </g>
    <g id="xtick_24">
     <g id="line2d_35">
      <g>
       <use style="stroke:#000000;stroke-width:0.8;" x="319.258984" xlink:href="#m34096cf129" y="606.84375"/>
      </g>
     </g>
     <g id="text_39">
      <!-- 1250 -->
      <g transform="translate(306.533984 621.442187)scale(0.1 -0.1)">
       <use xlink:href="#DejaVuSans-31"/>
       <use x="63.623047" xlink:href="#DejaVuSans-32"/>
       <use x="127.246094" xlink:href="#DejaVuSans-35"/>
       <use x="190.869141" xlink:href="#DejaVuSans-30"/>
      </g>
     </g>
    </g>
    <g id="xtick_25">
     <g id="line2d_36">
      <g>
       <use style="stroke:#000000;stroke-width:0.8;" x="372.997656" xlink:href="#m34096cf129" y="606.84375"/>
      </g>
     </g>
     <g id="text_40">
      <!-- 1500 -->
      <g transform="translate(360.272656 621.442187)scale(0.1 -0.1)">
       <use xlink:href="#DejaVuSans-31"/>
       <use x="63.623047" xlink:href="#DejaVuSans-35"/>
       <use x="127.246094" xlink:href="#DejaVuSans-30"/>
       <use x="190.869141" xlink:href="#DejaVuSans-30"/>
      </g>
     </g>
    </g>
    <g id="xtick_26">
     <g id="line2d_37">
      <g>
       <use style="stroke:#000000;stroke-width:0.8;" x="426.736328" xlink:href="#m34096cf129" y="606.84375"/>
      </g>
     </g>
     <g id="text_41">
      <!-- 1750 -->
      <g transform="translate(414.011328 621.442187)scale(0.1 -0.1)">
       <use xlink:href="#DejaVuSans-31"/>
       <use x="63.623047" xlink:href="#DejaVuSans-37"/>
       <use x="127.246094" xlink:href="#DejaVuSans-35"/>
       <use x="190.869141" xlink:href="#DejaVuSans-30"/>
      </g>
     </g>
    </g>
    <g id="xtick_27">
     <g id="line2d_38">
      <g>
       <use style="stroke:#000000;stroke-width:0.8;" x="480.475" xlink:href="#m34096cf129" y="606.84375"/>
      </g>
     </g>
     <g id="text_42">
      <!-- 2000 -->
      <g transform="translate(467.75 621.442187)scale(0.1 -0.1)">
       <use xlink:href="#DejaVuSans-32"/>
       <use x="63.623047" xlink:href="#DejaVuSans-30"/>
       <use x="127.246094" xlink:href="#DejaVuSans-30"/>
       <use x="190.869141" xlink:href="#DejaVuSans-30"/>
      </g>
     </g>
    </g>
    <g id="text_43">
     <!-- $t$ -->
     <g transform="translate(263.520313 635.120312)scale(0.1 -0.1)">
      <use transform="translate(0 0.78125)" xlink:href="#DejaVuSans-Oblique-74"/>
     </g>
    </g>
   </g>
   <g id="matplotlib.axis_6">
    <g id="ytick_10">
     <g id="line2d_39">
      <g>
       <use style="stroke:#000000;stroke-width:0.8;" x="50.565625" xlink:href="#md8c077c456" y="577.968511"/>
      </g>
     </g>
     <g id="text_44">
      <!-- 20 -->
      <g transform="translate(30.840625 581.76773)scale(0.1 -0.1)">
       <use xlink:href="#DejaVuSans-32"/>
       <use x="63.623047" xlink:href="#DejaVuSans-30"/>
      </g>
     </g>
    </g>
    <g id="ytick_11">
     <g id="line2d_40">
      <g>
       <use style="stroke:#000000;stroke-width:0.8;" x="50.565625" xlink:href="#md8c077c456" y="542.509229"/>
      </g>
     </g>
     <g id="text_45">
      <!-- 40 -->
      <g transform="translate(30.840625 546.308448)scale(0.1 -0.1)">
       <use xlink:href="#DejaVuSans-34"/>
       <use x="63.623047" xlink:href="#DejaVuSans-30"/>
      </g>
     </g>
    </g>
    <g id="ytick_12">
     <g id="line2d_41">
      <g>
       <use style="stroke:#000000;stroke-width:0.8;" x="50.565625" xlink:href="#md8c077c456" y="507.049948"/>
      </g>
     </g>
     <g id="text_46">
      <!-- 60 -->
      <g transform="translate(30.840625 510.849166)scale(0.1 -0.1)">
       <use xlink:href="#DejaVuSans-36"/>
       <use x="63.623047" xlink:href="#DejaVuSans-30"/>
      </g>
     </g>
    </g>
    <g id="ytick_13">
     <g id="line2d_42">
      <g>
       <use style="stroke:#000000;stroke-width:0.8;" x="50.565625" xlink:href="#md8c077c456" y="471.590666"/>
      </g>
     </g>
     <g id="text_47">
      <!-- 80 -->
      <g transform="translate(30.840625 475.389885)scale(0.1 -0.1)">
       <use xlink:href="#DejaVuSans-38"/>
       <use x="63.623047" xlink:href="#DejaVuSans-30"/>
      </g>
     </g>
    </g>
    <g id="text_48">
     <!-- mean age -->
     <g transform="translate(24.760938 553.864531)rotate(-90)scale(0.1 -0.1)">
      <use xlink:href="#DejaVuSans-6d"/>
      <use x="97.412109" xlink:href="#DejaVuSans-65"/>
      <use x="158.935547" xlink:href="#DejaVuSans-61"/>
      <use x="220.214844" xlink:href="#DejaVuSans-6e"/>
      <use x="283.59375" xlink:href="#DejaVuSans-20"/>
      <use x="315.380859" xlink:href="#DejaVuSans-61"/>
      <use x="376.660156" xlink:href="#DejaVuSans-67"/>
      <use x="440.136719" xlink:href="#DejaVuSans-65"/>
     </g>
    </g>
   </g>
   <g id="line2d_43">
    <path clip-path="url(#pd7a7a0ab5f)" d="M 50.565625 538.831606 
L 50.716093 593.68447 
L 50.909553 599.09923 
L 51.081516 599.747131 
L 51.188994 599.57798 
L 51.425444 598.553624 
L 52.048812 594.487478 
L 54.886214 575.425668 
L 57.293707 560.942727 
L 59.873163 546.775461 
L 62.581592 533.128542 
L 65.311517 520.492941 
L 67.933964 509.375843 
L 70.341456 500.102848 
L 72.469508 492.750356 
L 74.318118 487.119498 
L 75.930278 482.888252 
L 77.327484 479.82042 
L 78.53123 477.688761 
L 79.563012 476.282513 
L 80.465822 475.399053 
L 81.28265 474.896623 
L 82.013496 474.696243 
L 82.722846 474.732066 
L 83.432197 474.996006 
L 84.184538 475.521648 
L 85.022861 476.393095 
L 85.990158 477.74198 
L 87.150913 479.771503 
L 88.698587 482.966432 
L 92.954689 491.989639 
L 94.330399 494.269306 
L 95.534146 495.849014 
L 96.608919 496.910354 
L 97.619206 497.60622 
L 98.586502 498.005671 
L 99.532303 498.15537 
L 100.478103 498.080946 
L 101.48839 497.771492 
L 102.563164 497.203368 
L 103.76691 496.303768 
L 105.121125 494.99862 
L 106.668798 493.181595 
L 108.474418 490.700785 
L 110.64546 487.320917 
L 113.482862 482.463891 
L 122.639932 466.472208 
L 124.724992 463.439096 
L 126.44463 461.308743 
L 127.927817 459.811804 
L 129.217545 458.814671 
L 130.356805 458.202593 
L 131.388588 457.888785 
L 132.355884 457.818769 
L 133.301684 457.972449 
L 134.247485 458.354657 
L 135.236276 459.003773 
L 136.289554 459.975153 
L 137.428814 461.339637 
L 138.718542 463.244811 
L 140.266216 465.950817 
L 142.458754 470.285871 
L 146.241956 477.777496 
L 147.961594 480.658069 
L 149.423286 482.687781 
L 150.734509 484.141148 
L 151.938256 485.158427 
L 153.099011 485.853828 
L 154.216775 486.266903 
L 155.313044 486.439579 
L 156.430809 486.393634 
L 157.613059 486.11992 
L 158.881292 485.592929 
L 160.278498 484.764243 
L 161.847667 483.566603 
L 163.674782 481.879581 
L 165.888815 479.516166 
L 168.984162 475.853836 
L 174.916912 468.791395 
L 177.195431 466.460849 
L 179.044042 464.874699 
L 180.634706 463.790182 
L 182.053407 463.081498 
L 183.364631 462.670759 
L 184.589873 462.517847 
L 185.772123 462.594294 
L 186.954374 462.898008 
L 188.15812 463.442264 
L 189.426353 464.265888 
L 190.823559 465.450649 
L 192.414223 467.106693 
L 194.413302 469.533804 
L 201.119888 477.9564 
L 202.81803 479.579808 
L 204.322713 480.722639 
L 205.741414 481.526266 
L 207.095628 482.040783 
L 208.428348 482.310283 
L 209.761067 482.35473 
L 211.158272 482.175224 
L 212.641459 481.753481 
L 214.25362 481.055895 
L 216.059239 480.023371 
L 218.165795 478.552627 
L 220.895719 476.355378 
L 229.128484 469.541852 
L 231.256535 468.169147 
L 233.08365 467.244537 
L 234.738801 466.650345 
L 236.26498 466.333322 
L 237.726671 466.253471 
L 239.166868 466.397384 
L 240.62856 466.770259 
L 242.154738 467.394799 
L 243.809889 468.320207 
L 245.722986 469.658039 
L 248.237956 471.711707 
L 253.697805 476.242683 
L 255.76137 477.616958 
L 257.566989 478.557432 
L 259.243636 479.183525 
L 260.855796 479.551388 
L 262.467956 479.691185 
L 264.101612 479.610219 
L 265.821249 479.301405 
L 267.691355 478.73485 
L 269.797911 477.855931 
L 272.334376 476.542843 
L 276.117579 474.299747 
L 280.932564 471.493263 
L 283.490524 470.263644 
L 285.640071 469.470059 
L 287.574663 468.987897 
L 289.401778 468.760585 
L 291.164407 468.764773 
L 292.927035 468.991195 
L 294.75415 469.451343 
L 296.753229 470.190613 
L 299.096235 471.306766 
L 302.621492 473.269056 
L 306.770117 475.517472 
L 309.199105 476.576129 
L 311.305661 477.256636 
L 313.283244 477.665692 
L 315.239332 477.842504 
L 317.216915 477.795911 
L 319.28048 477.523313 
L 321.537504 476.996797 
L 324.159951 476.14723 
L 327.663713 474.758131 
L 334.606749 471.9645 
L 337.336674 471.139306 
L 339.722671 470.647028 
L 341.936704 470.416587 
L 344.086251 470.417303 
L 346.257293 470.642574 
L 348.557308 471.108938 
L 351.179755 471.875974 
L 354.833985 473.201878 
L 360.336825 475.18477 
L 363.109741 475.932967 
L 365.58172 476.372187 
L 367.946221 476.567313 
L 370.332218 476.539595 
L 372.847188 476.283747 
L 375.641599 475.769296 
L 379.102369 474.89328 
L 389.312717 472.160982 
L 392.214605 471.706431 
L 394.880043 471.512367 
L 397.480995 471.546236 
L 400.167929 471.806298 
L 403.155799 472.325589 
L 407.110965 473.258114 
L 414.161479 474.939377 
L 417.364304 475.444908 
L 420.266192 475.679249 
L 423.146585 475.687052 
L 426.177446 475.468264 
L 429.638216 474.986774 
L 434.60367 474.044035 
L 441.138292 472.838764 
L 444.728035 472.412363 
L 447.952356 472.252115 
L 451.11219 472.318352 
L 454.486978 472.61578 
L 458.635604 473.21824 
L 468.845951 474.797926 
L 472.478686 475.066849 
L 475.960952 475.0998 
L 479.615181 474.908195 
L 480.475 474.834072 
L 480.475 474.834072 
" style="fill:none;stroke:#1f77b4;stroke-linecap:square;stroke-width:1.5;"/>
   </g>
   <g id="patch_13">
    <path d="M 50.565625 606.84375 
L 50.565625 450.718125 
" style="fill:none;stroke:#000000;stroke-linecap:square;stroke-linejoin:miter;stroke-width:0.8;"/>
   </g>
   <g id="patch_14">
    <path d="M 480.475 606.84375 
L 480.475 450.718125 
" style="fill:none;stroke:#000000;stroke-linecap:square;stroke-linejoin:miter;stroke-width:0.8;"/>
   </g>
   <g id="patch_15">
    <path d="M 50.565625 606.84375 
L 480.475 606.84375 
" style="fill:none;stroke:#000000;stroke-linecap:square;stroke-linejoin:miter;stroke-width:0.8;"/>
   </g>
   <g id="patch_16">
    <path d="M 50.565625 450.718125 
L 480.475 450.718125 
" style="fill:none;stroke:#000000;stroke-linecap:square;stroke-linejoin:miter;stroke-width:0.8;"/>
   </g>
   <g id="text_49">
    <!-- $S$ -->
    <defs>
     <path d="M 60.296875 70.515625 
L 58.40625 60.890625 
Q 53.46875 63.53125 48.609375 64.875 
Q 43.75 66.21875 39.203125 66.21875 
Q 30.375 66.21875 25.140625 62.359375 
Q 19.921875 58.5 19.921875 52.09375 
Q 19.921875 48.578125 21.84375 46.703125 
Q 23.78125 44.828125 31.78125 42.671875 
L 37.703125 41.21875 
Q 47.703125 38.625 51.609375 34.640625 
Q 55.515625 30.671875 55.515625 23.484375 
Q 55.515625 12.453125 46.84375 5.515625 
Q 38.1875 -1.421875 24.03125 -1.421875 
Q 18.21875 -1.421875 12.359375 -0.265625 
Q 6.5 0.875 0.59375 3.21875 
L 2.59375 13.375 
Q 8.015625 10.015625 13.453125 8.296875 
Q 18.890625 6.59375 24.3125 6.59375 
Q 33.546875 6.59375 39.109375 10.6875 
Q 44.671875 14.796875 44.671875 21.390625 
Q 44.671875 25.78125 42.453125 28.046875 
Q 40.234375 30.328125 32.90625 32.171875 
L 27 33.6875 
Q 16.890625 36.328125 13.203125 39.765625 
Q 9.515625 43.21875 9.515625 49.421875 
Q 9.515625 60.296875 17.890625 67.25 
Q 26.265625 74.21875 39.703125 74.21875 
Q 44.921875 74.21875 50.046875 73.28125 
Q 55.171875 72.359375 60.296875 70.515625 
z
" id="DejaVuSans-Oblique-53"/>
    </defs>
    <g transform="translate(261.680313 444.718125)scale(0.12 -0.12)">
     <use transform="translate(0 0.78125)" xlink:href="#DejaVuSans-Oblique-53"/>
    </g>
   </g>
  </g>
 </g>
 <defs>
  <clipPath id="p275392ae95">
   <rect height="156.125625" width="429.909375" x="50.565625" y="25.918125"/>
  </clipPath>
  <clipPath id="pe12fc531d4">
   <rect height="156.125625" width="429.909375" x="50.565625" y="238.318125"/>
  </clipPath>
  <clipPath id="pd7a7a0ab5f">
   <rect height="156.125625" width="429.909375" x="50.565625" y="450.718125"/>
  </clipPath>
 </defs>
</svg>
