<?xml version="1.0" encoding="utf-8" standalone="no"?>
<!DOCTYPE svg PUBLIC "-//W3C//DTD SVG 1.1//EN"
  "http://www.w3.org/Graphics/SVG/1.1/DTD/svg11.dtd">
<!-- Created with matplotlib (http://matplotlib.org/) -->
<svg height="1008pt" version="1.1" viewBox="0 0 1008 1008" width="1008pt" xmlns="http://www.w3.org/2000/svg" xmlns:xlink="http://www.w3.org/1999/xlink">
 <defs>
  <style type="text/css">
*{stroke-linecap:butt;stroke-linejoin:round;}
  </style>
 </defs>
 <g id="figure_1">
  <g id="patch_1">
   <path d="M 0 1008 
L 1008 1008 
L 1008 0 
L 0 0 
z
" style="fill:#ffffff;"/>
  </g>
  <g id="axes_1">
   <g id="patch_2">
    <path clip-path="url(#p3f325ce399)" d="M 96.768 653.184 
C 109.599587 653.184 121.907352 648.085957 130.980655 639.012655 
C 140.053957 629.939352 145.152 617.631587 145.152 604.8 
C 145.152 591.968413 140.053957 579.660648 130.980655 570.587345 
C 121.907352 561.514043 109.599587 556.416 96.768 556.416 
C 83.936413 556.416 71.628648 561.514043 62.555345 570.587345 
C 53.482043 579.660648 48.384 591.968413 48.384 604.8 
C 48.384 617.631587 53.482043 629.939352 62.555345 639.012655 
C 71.628648 648.085957 83.936413 653.184 96.768 653.184 
z
" style="fill:#0000ff;opacity:0.3;stroke:#0000ff;stroke-linejoin:miter;"/>
   </g>
   <g id="patch_3">
    <path clip-path="url(#p3f325ce399)" d="M 17.718215 553.917284 
Q 24.97707 560.097843 32.987715 564.963302 
L 36.881134 558.553054 
Q 43.156845 569.754506 52.977451 579.952554 
Q 38.929485 581.657457 23.903069 579.920548 
L 27.796489 573.5103 
Q 19.102722 568.22993 11.235319 561.531223 
L 17.718215 553.917284 
z
" style="fill:#0000ff;opacity:0.5;stroke:#0000ff;stroke-linecap:round;"/>
   </g>
   <g id="patch_4">
    <path clip-path="url(#p3f325ce399)" d="M 212.142773 413.605815 
C 224.97436 413.605815 237.282126 408.507772 246.355428 399.43447 
C 255.42873 390.361168 260.526773 378.053402 260.526773 365.221815 
C 260.526773 352.390228 255.42873 340.082463 246.355428 331.009161 
C 237.282126 321.935859 224.97436 316.837815 212.142773 316.837815 
C 199.311186 316.837815 187.003421 321.935859 177.930119 331.009161 
C 168.856817 340.082463 163.758773 352.390228 163.758773 365.221815 
C 163.758773 378.053402 168.856817 390.361168 177.930119 399.43447 
C 187.003421 408.507772 199.311186 413.605815 212.142773 413.605815 
z
" style="fill:#0000ff;opacity:0.3;stroke:#0000ff;stroke-linejoin:miter;"/>
   </g>
   <g id="patch_5">
    <path clip-path="url(#p3f325ce399)" d="M 471.387535 354.43489 
C 484.219122 354.43489 496.526887 349.336847 505.600189 340.263545 
C 514.673491 331.190242 519.771535 318.882477 519.771535 306.05089 
C 519.771535 293.219303 514.673491 280.911538 505.600189 271.838236 
C 496.526887 262.764933 484.219122 257.66689 471.387535 257.66689 
C 458.555948 257.66689 446.248182 262.764933 437.17488 271.838236 
C 428.101578 280.911538 423.003535 293.219303 423.003535 306.05089 
C 423.003535 318.882477 428.101578 331.190242 437.17488 340.263545 
C 446.248182 349.336847 458.555948 354.43489 471.387535 354.43489 
z
" style="fill:#0000ff;opacity:0.3;stroke:#0000ff;stroke-linejoin:miter;"/>
   </g>
   <g id="patch_6">
    <path clip-path="url(#p3f325ce399)" d="M 679.285692 520.228138 
C 692.117279 520.228138 704.425045 515.130095 713.498347 506.056793 
C 722.571649 496.983491 727.669692 484.675725 727.669692 471.844138 
C 727.669692 459.012551 722.571649 446.704786 713.498347 437.631484 
C 704.425045 428.558182 692.117279 423.460138 679.285692 423.460138 
C 666.454105 423.460138 654.14634 428.558182 645.073038 437.631484 
C 635.999736 446.704786 630.901692 459.012551 630.901692 471.844138 
C 630.901692 484.675725 635.999736 496.983491 645.073038 506.056793 
C 654.14634 515.130095 666.454105 520.228138 679.285692 520.228138 
z
" style="fill:#0000ff;opacity:0.3;stroke:#0000ff;stroke-linejoin:miter;"/>
   </g>
   <g id="patch_7">
    <path clip-path="url(#p3f325ce399)" d="M 704.404889 426.940204 
Q 711.110622 420.163519 716.561112 412.53887 
L 710.459744 408.177299 
Q 722.098859 402.756222 733.002285 393.725177 
Q 733.652616 407.86127 730.797638 422.715869 
L 724.69627 418.354298 
Q 718.780979 426.629153 711.513071 433.973962 
L 704.404889 426.940204 
z
" style="fill:#008000;opacity:0.5;stroke:#008000;stroke-linecap:round;"/>
   </g>
   <g id="patch_8">
    <path clip-path="url(#p3f325ce399)" d="M 679.285692 786.139862 
C 692.117279 786.139862 704.425045 781.041818 713.498347 771.968516 
C 722.571649 762.895214 727.669692 750.587449 727.669692 737.755862 
C 727.669692 724.924275 722.571649 712.616509 713.498347 703.543207 
C 704.425045 694.469905 692.117279 689.371862 679.285692 689.371862 
C 666.454105 689.371862 654.14634 694.469905 645.073038 703.543207 
C 635.999736 712.616509 630.901692 724.924275 630.901692 737.755862 
C 630.901692 750.587449 635.999736 762.895214 645.073038 771.968516 
C 654.14634 781.041818 666.454105 786.139862 679.285692 786.139862 
z
" style="fill:#0000ff;opacity:0.3;stroke:#0000ff;stroke-linejoin:miter;"/>
   </g>
   <g id="patch_9">
    <path clip-path="url(#p3f325ce399)" d="M 728.429905 817.898022 
Q 724.571546 809.18003 719.465248 801.320715 
L 713.176096 805.406858 
Q 712.382004 792.591769 707.95871 779.142645 
Q 721.355221 783.701764 734.139937 791.786382 
L 727.850784 795.872525 
Q 733.392531 804.402057 737.574356 813.850923 
L 728.429905 817.898022 
z
" style="fill:#0000ff;opacity:0.5;stroke:#0000ff;stroke-linecap:round;"/>
   </g>
   <g id="patch_10">
    <path clip-path="url(#p3f325ce399)" d="M 471.387535 951.93311 
C 484.219122 951.93311 496.526887 946.835067 505.600189 937.761764 
C 514.673491 928.688462 519.771535 916.380697 519.771535 903.54911 
C 519.771535 890.717523 514.673491 878.409758 505.600189 869.336455 
C 496.526887 860.263153 484.219122 855.16511 471.387535 855.16511 
C 458.555948 855.16511 446.248182 860.263153 437.17488 869.336455 
C 428.101578 878.409758 423.003535 890.717523 423.003535 903.54911 
C 423.003535 916.380697 428.101578 928.688462 437.17488 937.761764 
C 446.248182 946.835067 458.555948 951.93311 471.387535 951.93311 
z
" style="fill:#0000ff;opacity:0.3;stroke:#0000ff;stroke-linejoin:miter;"/>
   </g>
   <g id="patch_11">
    <path clip-path="url(#p3f325ce399)" d="M 212.142773 892.762185 
C 224.97436 892.762185 237.282126 887.664141 246.355428 878.590839 
C 255.42873 869.517537 260.526773 857.209772 260.526773 844.378185 
C 260.526773 831.546598 255.42873 819.238832 246.355428 810.16553 
C 237.282126 801.092228 224.97436 795.994185 212.142773 795.994185 
C 199.311186 795.994185 187.003421 801.092228 177.930119 810.16553 
C 168.856817 819.238832 163.758773 831.546598 163.758773 844.378185 
C 163.758773 857.209772 168.856817 869.517537 177.930119 878.590839 
C 187.003421 887.664141 199.311186 892.762185 212.142773 892.762185 
z
" style="fill:#0000ff;opacity:0.3;stroke:#0000ff;stroke-linejoin:miter;"/>
   </g>
   <g id="patch_12">
    <path clip-path="url(#p3f325ce399)" d="M 121.561237 560.409987 
Q 164.936439 503.524956 187.34532 436.300285 
L 180.230216 433.928514 
Q 189.988793 424.43313 199.321963 413.949122 
Q 202.061159 427.712975 203.947229 441.834417 
L 196.832125 439.462646 
Q 173.897158 508.265529 129.513247 566.473446 
L 121.561237 560.409987 
z
" style="fill:#008000;opacity:0.5;stroke:#008000;stroke-linecap:round;"/>
   </g>
   <g id="patch_13">
    <path clip-path="url(#p3f325ce399)" d="M 145.547459 619.072123 
Q 364.933282 717.464697 604.22953 729.132624 
L 604.594791 721.641523 
Q 616.636486 728.486655 628.968461 735.107828 
Q 616.264183 740.98223 603.377254 746.611858 
L 603.742516 739.120758 
Q 362.562211 727.360965 141.455266 628.196484 
L 145.547459 619.072123 
z
" style="fill:#008000;opacity:0.5;stroke:#008000;stroke-linecap:round;"/>
   </g>
   <g id="patch_14">
    <path clip-path="url(#p3f325ce399)" d="M 249.899105 399.245168 
Q 404.867963 583.081754 615.40391 697.420945 
L 618.983265 690.830177 
Q 626.862466 702.222123 635.100372 713.538238 
Q 621.105406 713.318711 607.05208 712.799402 
L 610.631436 706.208635 
Q 398.437872 590.969215 242.253254 405.690396 
L 249.899105 399.245168 
z
" style="fill:#008000;opacity:0.5;stroke:#008000;stroke-linecap:round;"/>
   </g>
   <g id="patch_15">
    <path clip-path="url(#p3f325ce399)" d="M 490.641751 353.088448 
Q 535.414183 527.564145 639.195864 673.776301 
L 645.311808 669.435191 
Q 647.343211 683.096716 649.839855 696.874196 
Q 637.331185 690.583872 624.925329 683.905556 
L 631.041273 679.564446 
Q 526.188127 531.842766 480.955581 355.574028 
L 490.641751 353.088448 
z
" style="fill:#0000ff;opacity:0.5;stroke:#0000ff;stroke-linecap:round;"/>
   </g>
   <g id="patch_16">
    <path clip-path="url(#p3f325ce399)" d="M 629.144476 480.150014 
Q 388.793742 486.689309 168.132748 580.003621 
L 171.053926 586.91135 
Q 157.234743 585.968795 143.251197 585.353968 
Q 152.148549 574.549135 161.316667 563.885587 
L 164.237844 570.793316 
Q 386.636173 476.74431 628.872503 470.153713 
L 629.144476 480.150014 
z
" style="fill:#0000ff;opacity:0.5;stroke:#0000ff;stroke-linecap:round;"/>
   </g>
   <g id="patch_17">
    <path clip-path="url(#p3f325ce399)" d="M 676.207863 522.59554 
Q 661.809645 592.666977 670.787633 662.957162 
L 678.227193 662.006926 
Q 673.554912 674.796058 669.694857 688.291334 
Q 661.255015 677.079024 653.42866 665.17438 
L 660.86822 664.224144 
Q 651.679459 592.283778 666.412513 520.582801 
L 676.207863 522.59554 
z
" style="fill:#0000ff;opacity:0.5;stroke:#0000ff;stroke-linecap:round;"/>
   </g>
   <g id="patch_18">
    <path clip-path="url(#p3f325ce399)" d="M 654.515056 516.225128 
Q 546.019617 660.013443 496.413171 832.315017 
L 503.620416 834.390017 
Q 494.205965 844.496053 484.990929 855.038126 
Q 482.109875 841.336501 479.596267 827.47335 
L 486.803512 829.54835 
Q 536.922105 655.467899 646.532523 510.20191 
L 654.515056 516.225128 
z
" style="fill:#0000ff;opacity:0.5;stroke:#0000ff;stroke-linecap:round;"/>
   </g>
   <g id="patch_19">
    <path clip-path="url(#p3f325ce399)" d="M 637.713801 501.082932 
Q 424.002567 611.258908 265.681444 791.073416 
L 271.310485 796.029613 
Q 258.450873 801.176319 245.58537 806.689612 
Q 248.913565 793.094378 252.547013 779.508955 
L 258.176055 784.465153 
Q 417.743691 603.234908 633.13153 492.19458 
L 637.713801 501.082932 
z
" style="fill:#0000ff;opacity:0.5;stroke:#0000ff;stroke-linecap:round;"/>
   </g>
   <g id="patch_20">
    <path clip-path="url(#p3f325ce399)" d="M 660.031476 690.718304 
Q 615.259044 516.242606 511.477363 370.030451 
L 505.361419 374.371561 
Q 503.330016 360.710036 500.833372 346.932556 
Q 513.342042 353.22288 525.747898 359.901196 
L 519.631954 364.242306 
Q 624.4851 511.963986 669.717646 688.232724 
L 660.031476 690.718304 
z
" style="fill:#008000;opacity:0.5;stroke:#008000;stroke-linecap:round;"/>
   </g>
   <g id="patch_21">
    <path clip-path="url(#p3f325ce399)" d="M 682.363522 687.00446 
Q 696.761739 616.933023 687.783751 546.642838 
L 680.344191 547.593074 
Q 685.016472 534.803942 688.876527 521.308666 
Q 697.31637 532.520976 705.142724 544.42562 
L 697.703164 545.375856 
Q 706.891925 617.316222 692.158871 689.017199 
L 682.363522 687.00446 
z
" style="fill:#008000;opacity:0.5;stroke:#008000;stroke-linecap:round;"/>
   </g>
   <g id="patch_22">
    <path clip-path="url(#p3f325ce399)" d="M 512.985574 874.312472 
Q 576.746771 841.880626 626.104167 791.036139 
L 620.722753 785.812119 
Q 633.634819 781.491162 646.592555 776.094907 
Q 643.088574 789.684203 638.6608 803.225518 
L 633.279386 798.001498 
Q 582.763242 850.039645 517.519252 883.225708 
L 512.985574 874.312472 
z
" style="fill:#0000ff;opacity:0.5;stroke:#0000ff;stroke-linecap:round;"/>
   </g>
   <g id="patch_23">
    <path clip-path="url(#p3f325ce399)" d="M 262.285467 836.073553 
Q 442.349498 831.248155 607.989406 762.603762 
L 605.118063 755.67517 
Q 618.889094 756.734674 632.8767 757.366404 
Q 623.960646 768.161726 614.689207 778.770477 
L 611.817863 771.841885 
Q 444.467855 841.194977 262.553354 846.069964 
L 262.285467 836.073553 
z
" style="fill:#0000ff;opacity:0.5;stroke:#0000ff;stroke-linecap:round;"/>
   </g>
   <g id="text_1">
    <!-- $P$ -->
    <defs>
     <path d="M 16.890625 72.90625 
L 39.703125 72.90625 
Q 49.65625 72.90625 54.875 68.265625 
Q 60.109375 63.625 60.109375 54.6875 
Q 60.109375 42.671875 52.390625 35.984375 
Q 44.671875 29.296875 30.71875 29.296875 
L 18.3125 29.296875 
L 12.59375 0 
L 2.6875 0 
z
M 25.203125 64.796875 
L 19.921875 37.40625 
L 32.328125 37.40625 
Q 40.71875 37.40625 45.203125 41.703125 
Q 49.703125 46 49.703125 54 
Q 49.703125 59.125 46.65625 61.953125 
Q 43.609375 64.796875 38.09375 64.796875 
z
" id="DejaVuSans-Oblique-50"/>
    </defs>
    <g transform="translate(89.448 611.4225)scale(0.24 -0.24)">
     <use transform="translate(0 0.09375)" xlink:href="#DejaVuSans-Oblique-50"/>
    </g>
   </g>
   <g id="text_2">
    <!-- $M$ -->
    <defs>
     <path d="M 16.890625 72.90625 
L 31.6875 72.90625 
L 40.1875 23.78125 
L 68.40625 72.90625 
L 83.59375 72.90625 
L 69.390625 0 
L 59.8125 0 
L 72.21875 63.921875 
L 43.609375 14.015625 
L 33.984375 14.015625 
L 24.703125 64.109375 
L 12.3125 0 
L 2.6875 0 
z
" id="DejaVuSans-Oblique-4d"/>
    </defs>
    <g transform="translate(201.702773 371.844315)scale(0.24 -0.24)">
     <use transform="translate(0 0.09375)" xlink:href="#DejaVuSans-Oblique-4d"/>
    </g>
   </g>
   <g id="text_3">
    <!-- $Q$ -->
    <defs>
     <path d="M 36.078125 -1.3125 
Q 35.546875 -1.375 34.953125 -1.390625 
Q 34.375 -1.421875 33.203125 -1.421875 
Q 19.53125 -1.421875 11.8125 6.421875 
Q 4.109375 14.265625 4.109375 28.078125 
Q 4.109375 36.234375 7.0625 44.4375 
Q 10.015625 52.640625 15.28125 59.1875 
Q 21.390625 66.703125 29.03125 70.453125 
Q 36.671875 74.21875 45.90625 74.21875 
Q 59.28125 74.21875 66.984375 66.328125 
Q 74.703125 58.453125 74.703125 44.828125 
Q 74.703125 30.125 66.640625 17.921875 
Q 58.59375 5.71875 45.609375 0.6875 
L 55.515625 -12.890625 
L 44.484375 -12.890625 
z
M 45.609375 66.21875 
Q 37.5 66.21875 31.296875 62.28125 
Q 25.09375 58.34375 20.515625 50.296875 
Q 17.578125 45.171875 16.03125 39.40625 
Q 14.5 33.640625 14.5 27.78125 
Q 14.5 17.625 19.359375 12.109375 
Q 24.21875 6.59375 33.109375 6.59375 
Q 41.109375 6.59375 47.375 10.5625 
Q 53.65625 14.546875 58.109375 22.40625 
Q 61.078125 27.6875 62.640625 33.46875 
Q 64.203125 39.265625 64.203125 45.015625 
Q 64.203125 55.125 59.3125 60.671875 
Q 54.4375 66.21875 45.609375 66.21875 
z
" id="DejaVuSans-Oblique-51"/>
    </defs>
    <g transform="translate(461.907535 312.67339)scale(0.24 -0.24)">
     <use transform="translate(0 0.78125)" xlink:href="#DejaVuSans-Oblique-51"/>
    </g>
   </g>
   <g id="text_4">
    <!-- $B$ -->
    <defs>
     <path d="M 16.890625 72.90625 
L 42.09375 72.90625 
Q 52.34375 72.90625 57.421875 69.09375 
Q 62.5 65.28125 62.5 57.625 
Q 62.5 50.59375 58.125 45.484375 
Q 53.765625 40.375 46.6875 39.3125 
Q 52.734375 37.9375 55.765625 34.078125 
Q 58.796875 30.21875 58.796875 23.78125 
Q 58.796875 12.796875 50.65625 6.390625 
Q 42.53125 0 28.421875 0 
L 2.6875 0 
z
M 19.28125 34.8125 
L 14.109375 8.109375 
L 29.984375 8.109375 
Q 38.921875 8.109375 43.75 12.203125 
Q 48.578125 16.3125 48.578125 23.78125 
Q 48.578125 29.546875 45.375 32.171875 
Q 42.1875 34.8125 35.109375 34.8125 
z
M 25.09375 64.796875 
L 20.796875 42.828125 
L 35.5 42.828125 
Q 43.359375 42.828125 47.78125 46.234375 
Q 52.203125 49.65625 52.203125 55.71875 
Q 52.203125 60.453125 49.21875 62.625 
Q 46.234375 64.796875 39.703125 64.796875 
z
" id="DejaVuSans-Oblique-42"/>
    </defs>
    <g transform="translate(671.005692 478.466638)scale(0.24 -0.24)">
     <use transform="translate(0 0.09375)" xlink:href="#DejaVuSans-Oblique-42"/>
    </g>
   </g>
   <g id="text_5">
    <!-- $D$ -->
    <defs>
     <path d="M 16.890625 72.90625 
L 38.09375 72.90625 
Q 54.984375 72.90625 63.59375 65.75 
Q 72.21875 58.59375 72.21875 44.484375 
Q 72.21875 35.15625 68.9375 26.53125 
Q 65.671875 17.921875 59.90625 12.015625 
Q 54.109375 5.953125 45.171875 2.96875 
Q 36.234375 0 24.03125 0 
L 2.6875 0 
z
M 25.203125 64.796875 
L 14.203125 8.109375 
L 27.09375 8.109375 
Q 43.65625 8.109375 52.734375 17.625 
Q 61.8125 27.15625 61.8125 44.484375 
Q 61.8125 54.984375 55.953125 59.890625 
Q 50.09375 64.796875 37.59375 64.796875 
z
" id="DejaVuSans-Oblique-44"/>
    </defs>
    <g transform="translate(669.925692 744.378362)scale(0.24 -0.24)">
     <use transform="translate(0 0.09375)" xlink:href="#DejaVuSans-Oblique-44"/>
    </g>
   </g>
   <g id="text_6">
    <!-- $EP$ -->
    <defs>
     <path d="M 16.890625 72.90625 
L 62.984375 72.90625 
L 61.375 64.59375 
L 25.09375 64.59375 
L 20.90625 43.015625 
L 55.71875 43.015625 
L 54.109375 34.71875 
L 19.28125 34.71875 
L 14.203125 8.296875 
L 51.3125 8.296875 
L 49.703125 0 
L 2.6875 0 
z
" id="DejaVuSans-Oblique-45"/>
    </defs>
    <g transform="translate(456.507535 910.17161)scale(0.24 -0.24)">
     <use transform="translate(0 0.09375)" xlink:href="#DejaVuSans-Oblique-45"/>
     <use transform="translate(63.183594 0.09375)" xlink:href="#DejaVuSans-Oblique-50"/>
    </g>
   </g>
   <g id="text_7">
    <!-- $EM$ -->
    <g transform="translate(194.142773 851.000685)scale(0.24 -0.24)">
     <use transform="translate(0 0.09375)" xlink:href="#DejaVuSans-Oblique-45"/>
     <use transform="translate(63.183594 0.09375)" xlink:href="#DejaVuSans-Oblique-4d"/>
    </g>
   </g>
   <g id="legend_1">
    <g id="patch_24">
     <path d="M 237.526563 143.638125 
L 568.873438 143.638125 
Q 570.873438 143.638125 570.873438 141.638125 
L 570.873438 127.96 
Q 570.873438 125.96 568.873438 125.96 
L 237.526563 125.96 
Q 235.526563 125.96 235.526563 127.96 
L 235.526563 141.638125 
Q 235.526563 143.638125 237.526563 143.638125 
z
" style="fill:#ffffff;opacity:0.8;stroke:#cccccc;stroke-linejoin:miter;"/>
    </g>
    <g id="patch_25">
     <path d="M 239.526563 137.558437 
L 259.526563 137.558437 
L 259.526563 130.558437 
L 239.526563 130.558437 
z
" style="fill:#0000ff;opacity:0.5;stroke:#0000ff;stroke-linejoin:miter;"/>
    </g>
    <g id="text_8">
     <!-- linear -->
     <defs>
      <path d="M 9.421875 75.984375 
L 18.40625 75.984375 
L 18.40625 0 
L 9.421875 0 
z
" id="DejaVuSans-6c"/>
      <path d="M 9.421875 54.6875 
L 18.40625 54.6875 
L 18.40625 0 
L 9.421875 0 
z
M 9.421875 75.984375 
L 18.40625 75.984375 
L 18.40625 64.59375 
L 9.421875 64.59375 
z
" id="DejaVuSans-69"/>
      <path d="M 54.890625 33.015625 
L 54.890625 0 
L 45.90625 0 
L 45.90625 32.71875 
Q 45.90625 40.484375 42.875 44.328125 
Q 39.84375 48.1875 33.796875 48.1875 
Q 26.515625 48.1875 22.3125 43.546875 
Q 18.109375 38.921875 18.109375 30.90625 
L 18.109375 0 
L 9.078125 0 
L 9.078125 54.6875 
L 18.109375 54.6875 
L 18.109375 46.1875 
Q 21.34375 51.125 25.703125 53.5625 
Q 30.078125 56 35.796875 56 
Q 45.21875 56 50.046875 50.171875 
Q 54.890625 44.34375 54.890625 33.015625 
z
" id="DejaVuSans-6e"/>
      <path d="M 56.203125 29.59375 
L 56.203125 25.203125 
L 14.890625 25.203125 
Q 15.484375 15.921875 20.484375 11.0625 
Q 25.484375 6.203125 34.421875 6.203125 
Q 39.59375 6.203125 44.453125 7.46875 
Q 49.3125 8.734375 54.109375 11.28125 
L 54.109375 2.78125 
Q 49.265625 0.734375 44.1875 -0.34375 
Q 39.109375 -1.421875 33.890625 -1.421875 
Q 20.796875 -1.421875 13.15625 6.1875 
Q 5.515625 13.8125 5.515625 26.8125 
Q 5.515625 40.234375 12.765625 48.109375 
Q 20.015625 56 32.328125 56 
Q 43.359375 56 49.78125 48.890625 
Q 56.203125 41.796875 56.203125 29.59375 
z
M 47.21875 32.234375 
Q 47.125 39.59375 43.09375 43.984375 
Q 39.0625 48.390625 32.421875 48.390625 
Q 24.90625 48.390625 20.390625 44.140625 
Q 15.875 39.890625 15.1875 32.171875 
z
" id="DejaVuSans-65"/>
      <path d="M 34.28125 27.484375 
Q 23.390625 27.484375 19.1875 25 
Q 14.984375 22.515625 14.984375 16.5 
Q 14.984375 11.71875 18.140625 8.90625 
Q 21.296875 6.109375 26.703125 6.109375 
Q 34.1875 6.109375 38.703125 11.40625 
Q 43.21875 16.703125 43.21875 25.484375 
L 43.21875 27.484375 
z
M 52.203125 31.203125 
L 52.203125 0 
L 43.21875 0 
L 43.21875 8.296875 
Q 40.140625 3.328125 35.546875 0.953125 
Q 30.953125 -1.421875 24.3125 -1.421875 
Q 15.921875 -1.421875 10.953125 3.296875 
Q 6 8.015625 6 15.921875 
Q 6 25.140625 12.171875 29.828125 
Q 18.359375 34.515625 30.609375 34.515625 
L 43.21875 34.515625 
L 43.21875 35.40625 
Q 43.21875 41.609375 39.140625 45 
Q 35.0625 48.390625 27.6875 48.390625 
Q 23 48.390625 18.546875 47.265625 
Q 14.109375 46.140625 10.015625 43.890625 
L 10.015625 52.203125 
Q 14.9375 54.109375 19.578125 55.046875 
Q 24.21875 56 28.609375 56 
Q 40.484375 56 46.34375 49.84375 
Q 52.203125 43.703125 52.203125 31.203125 
z
" id="DejaVuSans-61"/>
      <path d="M 41.109375 46.296875 
Q 39.59375 47.171875 37.8125 47.578125 
Q 36.03125 48 33.890625 48 
Q 26.265625 48 22.1875 43.046875 
Q 18.109375 38.09375 18.109375 28.8125 
L 18.109375 0 
L 9.078125 0 
L 9.078125 54.6875 
L 18.109375 54.6875 
L 18.109375 46.1875 
Q 20.953125 51.171875 25.484375 53.578125 
Q 30.03125 56 36.53125 56 
Q 37.453125 56 38.578125 55.875 
Q 39.703125 55.765625 41.0625 55.515625 
z
" id="DejaVuSans-72"/>
     </defs>
     <g transform="translate(267.526563 137.558437)scale(0.1 -0.1)">
      <use xlink:href="#DejaVuSans-6c"/>
      <use x="27.783203" xlink:href="#DejaVuSans-69"/>
      <use x="55.566406" xlink:href="#DejaVuSans-6e"/>
      <use x="118.945312" xlink:href="#DejaVuSans-65"/>
      <use x="180.46875" xlink:href="#DejaVuSans-61"/>
      <use x="241.748047" xlink:href="#DejaVuSans-72"/>
     </g>
    </g>
    <g id="patch_26">
     <path d="M 315.8125 137.558437 
L 335.8125 137.558437 
L 335.8125 130.558437 
L 315.8125 130.558437 
z
" style="fill:#008000;opacity:0.5;stroke:#008000;stroke-linejoin:miter;"/>
    </g>
    <g id="text_9">
     <!-- nonlinear -->
     <defs>
      <path d="M 30.609375 48.390625 
Q 23.390625 48.390625 19.1875 42.75 
Q 14.984375 37.109375 14.984375 27.296875 
Q 14.984375 17.484375 19.15625 11.84375 
Q 23.34375 6.203125 30.609375 6.203125 
Q 37.796875 6.203125 41.984375 11.859375 
Q 46.1875 17.53125 46.1875 27.296875 
Q 46.1875 37.015625 41.984375 42.703125 
Q 37.796875 48.390625 30.609375 48.390625 
z
M 30.609375 56 
Q 42.328125 56 49.015625 48.375 
Q 55.71875 40.765625 55.71875 27.296875 
Q 55.71875 13.875 49.015625 6.21875 
Q 42.328125 -1.421875 30.609375 -1.421875 
Q 18.84375 -1.421875 12.171875 6.21875 
Q 5.515625 13.875 5.515625 27.296875 
Q 5.515625 40.765625 12.171875 48.375 
Q 18.84375 56 30.609375 56 
z
" id="DejaVuSans-6f"/>
     </defs>
     <g transform="translate(343.8125 137.558437)scale(0.1 -0.1)">
      <use xlink:href="#DejaVuSans-6e"/>
      <use x="63.378906" xlink:href="#DejaVuSans-6f"/>
      <use x="124.560547" xlink:href="#DejaVuSans-6e"/>
      <use x="187.939453" xlink:href="#DejaVuSans-6c"/>
      <use x="215.722656" xlink:href="#DejaVuSans-69"/>
      <use x="243.505859" xlink:href="#DejaVuSans-6e"/>
      <use x="306.884766" xlink:href="#DejaVuSans-65"/>
      <use x="368.408203" xlink:href="#DejaVuSans-61"/>
      <use x="429.6875" xlink:href="#DejaVuSans-72"/>
     </g>
    </g>
    <g id="patch_27">
     <path d="M 410.892188 137.558437 
L 430.892188 137.558437 
L 430.892188 130.558437 
L 410.892188 130.558437 
z
" style="fill:#ff0000;opacity:0.5;stroke:#ff0000;stroke-linejoin:miter;"/>
    </g>
    <g id="text_10">
     <!-- no substrate dependence -->
     <defs>
      <path id="DejaVuSans-20"/>
      <path d="M 44.28125 53.078125 
L 44.28125 44.578125 
Q 40.484375 46.53125 36.375 47.5 
Q 32.28125 48.484375 27.875 48.484375 
Q 21.1875 48.484375 17.84375 46.4375 
Q 14.5 44.390625 14.5 40.28125 
Q 14.5 37.15625 16.890625 35.375 
Q 19.28125 33.59375 26.515625 31.984375 
L 29.59375 31.296875 
Q 39.15625 29.25 43.1875 25.515625 
Q 47.21875 21.78125 47.21875 15.09375 
Q 47.21875 7.46875 41.1875 3.015625 
Q 35.15625 -1.421875 24.609375 -1.421875 
Q 20.21875 -1.421875 15.453125 -0.5625 
Q 10.6875 0.296875 5.421875 2 
L 5.421875 11.28125 
Q 10.40625 8.6875 15.234375 7.390625 
Q 20.0625 6.109375 24.8125 6.109375 
Q 31.15625 6.109375 34.5625 8.28125 
Q 37.984375 10.453125 37.984375 14.40625 
Q 37.984375 18.0625 35.515625 20.015625 
Q 33.0625 21.96875 24.703125 23.78125 
L 21.578125 24.515625 
Q 13.234375 26.265625 9.515625 29.90625 
Q 5.8125 33.546875 5.8125 39.890625 
Q 5.8125 47.609375 11.28125 51.796875 
Q 16.75 56 26.8125 56 
Q 31.78125 56 36.171875 55.265625 
Q 40.578125 54.546875 44.28125 53.078125 
z
" id="DejaVuSans-73"/>
      <path d="M 8.5 21.578125 
L 8.5 54.6875 
L 17.484375 54.6875 
L 17.484375 21.921875 
Q 17.484375 14.15625 20.5 10.265625 
Q 23.53125 6.390625 29.59375 6.390625 
Q 36.859375 6.390625 41.078125 11.03125 
Q 45.3125 15.671875 45.3125 23.6875 
L 45.3125 54.6875 
L 54.296875 54.6875 
L 54.296875 0 
L 45.3125 0 
L 45.3125 8.40625 
Q 42.046875 3.421875 37.71875 1 
Q 33.40625 -1.421875 27.6875 -1.421875 
Q 18.265625 -1.421875 13.375 4.4375 
Q 8.5 10.296875 8.5 21.578125 
z
M 31.109375 56 
z
" id="DejaVuSans-75"/>
      <path d="M 48.6875 27.296875 
Q 48.6875 37.203125 44.609375 42.84375 
Q 40.53125 48.484375 33.40625 48.484375 
Q 26.265625 48.484375 22.1875 42.84375 
Q 18.109375 37.203125 18.109375 27.296875 
Q 18.109375 17.390625 22.1875 11.75 
Q 26.265625 6.109375 33.40625 6.109375 
Q 40.53125 6.109375 44.609375 11.75 
Q 48.6875 17.390625 48.6875 27.296875 
z
M 18.109375 46.390625 
Q 20.953125 51.265625 25.265625 53.625 
Q 29.59375 56 35.59375 56 
Q 45.5625 56 51.78125 48.09375 
Q 58.015625 40.1875 58.015625 27.296875 
Q 58.015625 14.40625 51.78125 6.484375 
Q 45.5625 -1.421875 35.59375 -1.421875 
Q 29.59375 -1.421875 25.265625 0.953125 
Q 20.953125 3.328125 18.109375 8.203125 
L 18.109375 0 
L 9.078125 0 
L 9.078125 75.984375 
L 18.109375 75.984375 
z
" id="DejaVuSans-62"/>
      <path d="M 18.3125 70.21875 
L 18.3125 54.6875 
L 36.8125 54.6875 
L 36.8125 47.703125 
L 18.3125 47.703125 
L 18.3125 18.015625 
Q 18.3125 11.328125 20.140625 9.421875 
Q 21.96875 7.515625 27.59375 7.515625 
L 36.8125 7.515625 
L 36.8125 0 
L 27.59375 0 
Q 17.1875 0 13.234375 3.875 
Q 9.28125 7.765625 9.28125 18.015625 
L 9.28125 47.703125 
L 2.6875 47.703125 
L 2.6875 54.6875 
L 9.28125 54.6875 
L 9.28125 70.21875 
z
" id="DejaVuSans-74"/>
      <path d="M 45.40625 46.390625 
L 45.40625 75.984375 
L 54.390625 75.984375 
L 54.390625 0 
L 45.40625 0 
L 45.40625 8.203125 
Q 42.578125 3.328125 38.25 0.953125 
Q 33.9375 -1.421875 27.875 -1.421875 
Q 17.96875 -1.421875 11.734375 6.484375 
Q 5.515625 14.40625 5.515625 27.296875 
Q 5.515625 40.1875 11.734375 48.09375 
Q 17.96875 56 27.875 56 
Q 33.9375 56 38.25 53.625 
Q 42.578125 51.265625 45.40625 46.390625 
z
M 14.796875 27.296875 
Q 14.796875 17.390625 18.875 11.75 
Q 22.953125 6.109375 30.078125 6.109375 
Q 37.203125 6.109375 41.296875 11.75 
Q 45.40625 17.390625 45.40625 27.296875 
Q 45.40625 37.203125 41.296875 42.84375 
Q 37.203125 48.484375 30.078125 48.484375 
Q 22.953125 48.484375 18.875 42.84375 
Q 14.796875 37.203125 14.796875 27.296875 
z
" id="DejaVuSans-64"/>
      <path d="M 18.109375 8.203125 
L 18.109375 -20.796875 
L 9.078125 -20.796875 
L 9.078125 54.6875 
L 18.109375 54.6875 
L 18.109375 46.390625 
Q 20.953125 51.265625 25.265625 53.625 
Q 29.59375 56 35.59375 56 
Q 45.5625 56 51.78125 48.09375 
Q 58.015625 40.1875 58.015625 27.296875 
Q 58.015625 14.40625 51.78125 6.484375 
Q 45.5625 -1.421875 35.59375 -1.421875 
Q 29.59375 -1.421875 25.265625 0.953125 
Q 20.953125 3.328125 18.109375 8.203125 
z
M 48.6875 27.296875 
Q 48.6875 37.203125 44.609375 42.84375 
Q 40.53125 48.484375 33.40625 48.484375 
Q 26.265625 48.484375 22.1875 42.84375 
Q 18.109375 37.203125 18.109375 27.296875 
Q 18.109375 17.390625 22.1875 11.75 
Q 26.265625 6.109375 33.40625 6.109375 
Q 40.53125 6.109375 44.609375 11.75 
Q 48.6875 17.390625 48.6875 27.296875 
z
" id="DejaVuSans-70"/>
      <path d="M 48.78125 52.59375 
L 48.78125 44.1875 
Q 44.96875 46.296875 41.140625 47.34375 
Q 37.3125 48.390625 33.40625 48.390625 
Q 24.65625 48.390625 19.8125 42.84375 
Q 14.984375 37.3125 14.984375 27.296875 
Q 14.984375 17.28125 19.8125 11.734375 
Q 24.65625 6.203125 33.40625 6.203125 
Q 37.3125 6.203125 41.140625 7.25 
Q 44.96875 8.296875 48.78125 10.40625 
L 48.78125 2.09375 
Q 45.015625 0.34375 40.984375 -0.53125 
Q 36.96875 -1.421875 32.421875 -1.421875 
Q 20.0625 -1.421875 12.78125 6.34375 
Q 5.515625 14.109375 5.515625 27.296875 
Q 5.515625 40.671875 12.859375 48.328125 
Q 20.21875 56 33.015625 56 
Q 37.15625 56 41.109375 55.140625 
Q 45.0625 54.296875 48.78125 52.59375 
z
" id="DejaVuSans-63"/>
     </defs>
     <g transform="translate(438.892188 137.558437)scale(0.1 -0.1)">
      <use xlink:href="#DejaVuSans-6e"/>
      <use x="63.378906" xlink:href="#DejaVuSans-6f"/>
      <use x="124.560547" xlink:href="#DejaVuSans-20"/>
      <use x="156.347656" xlink:href="#DejaVuSans-73"/>
      <use x="208.447266" xlink:href="#DejaVuSans-75"/>
      <use x="271.826172" xlink:href="#DejaVuSans-62"/>
      <use x="335.302734" xlink:href="#DejaVuSans-73"/>
      <use x="387.402344" xlink:href="#DejaVuSans-74"/>
      <use x="426.611328" xlink:href="#DejaVuSans-72"/>
      <use x="467.724609" xlink:href="#DejaVuSans-61"/>
      <use x="529.003906" xlink:href="#DejaVuSans-74"/>
      <use x="568.212891" xlink:href="#DejaVuSans-65"/>
      <use x="629.736328" xlink:href="#DejaVuSans-20"/>
      <use x="661.523438" xlink:href="#DejaVuSans-64"/>
      <use x="725" xlink:href="#DejaVuSans-65"/>
      <use x="786.523438" xlink:href="#DejaVuSans-70"/>
      <use x="850" xlink:href="#DejaVuSans-65"/>
      <use x="911.523438" xlink:href="#DejaVuSans-6e"/>
      <use x="974.902344" xlink:href="#DejaVuSans-64"/>
      <use x="1038.378906" xlink:href="#DejaVuSans-65"/>
      <use x="1099.902344" xlink:href="#DejaVuSans-6e"/>
      <use x="1163.28125" xlink:href="#DejaVuSans-63"/>
      <use x="1218.261719" xlink:href="#DejaVuSans-65"/>
     </g>
    </g>
   </g>
  </g>
 </g>
 <defs>
  <clipPath id="p3f325ce399">
   <rect height="806.4" width="806.4" x="0" y="201.6"/>
  </clipPath>
 </defs>
</svg>
