<?xml version="1.0" encoding="utf-8" standalone="no"?>
<!DOCTYPE svg PUBLIC "-//W3C//DTD SVG 1.1//EN"
  "http://www.w3.org/Graphics/SVG/1.1/DTD/svg11.dtd">
<!-- Created with matplotlib (http://matplotlib.org/) -->
<svg height="216pt" version="1.1" viewBox="0 0 216 216" width="216pt" xmlns="http://www.w3.org/2000/svg" xmlns:xlink="http://www.w3.org/1999/xlink">
 <defs>
  <style type="text/css">
*{stroke-linecap:butt;stroke-linejoin:round;}
  </style>
 </defs>
 <g id="figure_1">
  <g id="patch_1">
   <path d="M 0 216 
L 216 216 
L 216 0 
L 0 0 
z
" style="fill:none;"/>
  </g>
  <g id="axes_1">
   <g id="patch_2">
    <path clip-path="url(#pf3625cb8ca)" d="M 67.176 127.426536 
C 72.073153 127.426536 76.77039 125.493429 80.2332 122.05296 
C 83.69601 118.612491 85.641669 113.945558 85.641669 109.08 
C 85.641669 104.214442 83.69601 99.547509 80.2332 96.10704 
C 76.77039 92.666571 72.073153 90.733464 67.176 90.733464 
C 62.278847 90.733464 57.58161 92.666571 54.1188 96.10704 
C 50.65599 99.547509 48.710331 104.214442 48.710331 109.08 
C 48.710331 113.945558 50.65599 118.612491 54.1188 122.05296 
C 57.58161 125.493429 62.278847 127.426536 67.176 127.426536 
z
" style="fill:#0000ff;opacity:0.3;stroke:#0000ff;stroke-linejoin:miter;"/>
   </g>
   <g id="patch_3">
    <path clip-path="url(#pf3625cb8ca)" d="M 37.663323 90.847651 
Q 40.345229 93.002449 43.283551 94.707469 
L 44.41281 92.761377 
Q 46.438666 96.118947 49.303985 99.233144 
Q 45.09389 99.645783 40.648614 99.248351 
L 41.777873 97.302259 
Q 38.643193 95.483298 35.784311 93.186308 
L 37.663323 90.847651 
z
" style="fill:#0000ff;opacity:0.5;stroke:#0000ff;stroke-linecap:round;"/>
   </g>
   <g id="patch_4">
    <path clip-path="url(#pf3625cb8ca)" d="M 49.838338 120.328451 
Q 46.624356 121.555684 43.669182 123.231324 
L 44.778982 125.188578 
Q 40.857951 125.242293 36.72321 126.143509 
Q 38.492432 122.30098 41.079648 118.664397 
L 42.189448 120.621651 
Q 45.342107 118.834034 48.768175 117.525818 
L 49.838338 120.328451 
z
" style="fill:#008000;opacity:0.5;stroke:#008000;stroke-linecap:round;"/>
   </g>
   <g id="patch_5">
    <path clip-path="url(#pf3625cb8ca)" d="M 110.7 84.183336 
C 115.597153 84.183336 120.29439 82.250229 123.7572 78.80976 
C 127.22001 75.369291 129.165669 70.702358 129.165669 65.8368 
C 129.165669 60.971242 127.22001 56.304309 123.7572 52.86384 
C 120.29439 49.423371 115.597153 47.490264 110.7 47.490264 
C 105.802847 47.490264 101.10561 49.423371 97.6428 52.86384 
C 94.17999 56.304309 92.234331 60.971242 92.234331 65.8368 
C 92.234331 70.702358 94.17999 75.369291 97.6428 78.80976 
C 101.10561 82.250229 105.802847 84.183336 110.7 84.183336 
z
" style="fill:#0000ff;opacity:0.3;stroke:#0000ff;stroke-linejoin:miter;"/>
   </g>
   <g id="patch_6">
    <path clip-path="url(#pf3625cb8ca)" d="M 129.036261 36.531693 
Q 126.88537 39.179246 125.176748 42.082221 
L 127.115811 43.223508 
Q 123.747175 45.226004 120.617285 48.071277 
Q 120.228014 43.8609 120.652268 39.41922 
L 122.591331 40.560506 
Q 124.414513 37.462892 126.707814 34.640045 
L 129.036261 36.531693 
z
" style="fill:#0000ff;opacity:0.5;stroke:#0000ff;stroke-linecap:round;"/>
   </g>
   <g id="patch_7">
    <path clip-path="url(#pf3625cb8ca)" d="M 99.383497 48.611828 
Q 98.148223 45.43221 96.472053 42.510377 
L 94.520394 43.629987 
Q 94.448499 39.711756 93.526175 35.583668 
Q 97.376969 37.330146 101.025925 39.897955 
L 99.074265 41.017564 
Q 100.862819 44.135301 102.17988 47.52544 
L 99.383497 48.611828 
z
" style="fill:#008000;opacity:0.5;stroke:#008000;stroke-linecap:round;"/>
   </g>
   <g id="patch_8">
    <path clip-path="url(#pf3625cb8ca)" d="M 154.224 127.426536 
C 159.121153 127.426536 163.81839 125.493429 167.2812 122.05296 
C 170.74401 118.612491 172.689669 113.945558 172.689669 109.08 
C 172.689669 104.214442 170.74401 99.547509 167.2812 96.10704 
C 163.81839 92.666571 159.121153 90.733464 154.224 90.733464 
C 149.326847 90.733464 144.62961 92.666571 141.1668 96.10704 
C 137.70399 99.547509 135.758331 104.214442 135.758331 109.08 
C 135.758331 113.945558 137.70399 118.612491 141.1668 122.05296 
C 144.62961 125.493429 149.326847 127.426536 154.224 127.426536 
z
" style="fill:#0000ff;opacity:0.3;stroke:#0000ff;stroke-linejoin:miter;"/>
   </g>
   <g id="patch_9">
    <path clip-path="url(#pf3625cb8ca)" d="M 110.7 170.669736 
C 115.597153 170.669736 120.29439 168.736629 123.7572 165.29616 
C 127.22001 161.855691 129.165669 157.188758 129.165669 152.3232 
C 129.165669 147.457642 127.22001 142.790709 123.7572 139.35024 
C 120.29439 135.909771 115.597153 133.976664 110.7 133.976664 
C 105.802847 133.976664 101.10561 135.909771 97.6428 139.35024 
C 94.17999 142.790709 92.234331 147.457642 92.234331 152.3232 
C 92.234331 157.188758 94.17999 161.855691 97.6428 165.29616 
C 101.10561 168.736629 105.802847 170.669736 110.7 170.669736 
z
" style="fill:#0000ff;opacity:0.3;stroke:#0000ff;stroke-linejoin:miter;"/>
   </g>
   <g id="patch_10">
    <path clip-path="url(#pf3625cb8ca)" d="M 83.009905 95.983357 
Q 88.806581 92.290771 93.603757 87.494517 
L 92.012919 85.903374 
Q 95.827455 84.750078 99.648713 82.950339 
Q 98.780523 87.082147 97.315711 91.207185 
L 95.724873 89.616041 
Q 90.695416 94.644532 84.62171 98.513591 
L 83.009905 95.983357 
z
" style="fill:#008000;opacity:0.5;stroke:#008000;stroke-linecap:round;"/>
   </g>
   <g id="patch_11">
    <path clip-path="url(#pf3625cb8ca)" d="M 123.875049 81.563492 
Q 127.598264 87.324775 132.415182 92.082677 
L 133.996336 90.481911 
Q 135.173975 94.289652 136.998688 98.099935 
Q 132.860731 97.257517 128.725822 95.817798 
L 130.306976 94.217032 
Q 125.256673 89.228604 121.355407 83.191805 
L 123.875049 81.563492 
z
" style="fill:#008000;opacity:0.5;stroke:#008000;stroke-linecap:round;"/>
   </g>
   <g id="patch_12">
    <path clip-path="url(#pf3625cb8ca)" d="M 138.390095 122.176643 
Q 132.593419 125.869229 127.796243 130.665483 
L 129.387081 132.256626 
Q 125.572545 133.409922 121.751287 135.209661 
Q 122.619477 131.077853 124.084289 126.952815 
L 125.675127 128.543959 
Q 130.704584 123.515468 136.77829 119.646409 
L 138.390095 122.176643 
z
" style="fill:#0000ff;opacity:0.5;stroke:#0000ff;stroke-linecap:round;"/>
   </g>
   <g id="patch_13">
    <path clip-path="url(#pf3625cb8ca)" d="M 133.731834 107.273653 
Q 114.330314 103.393602 94.840578 105.554977 
L 95.088578 107.791268 
Q 91.277149 106.325905 87.249271 105.103777 
Q 90.650601 102.625496 94.26191 100.336966 
L 94.509911 102.573256 
Q 114.462237 100.360581 134.320146 104.331904 
L 133.731834 107.273653 
z
" style="fill:#0000ff;opacity:0.5;stroke:#0000ff;stroke-linecap:round;"/>
   </g>
   <g id="patch_14">
    <path clip-path="url(#pf3625cb8ca)" d="M 112.525221 131.949004 
Q 116.374827 112.709738 114.244188 93.382013 
L 112.007736 93.628554 
Q 113.475734 89.819233 114.699066 85.791995 
Q 117.176357 89.193711 119.462576 92.806751 
L 117.226124 93.053292 
Q 119.407668 112.842797 115.466911 132.53761 
L 112.525221 131.949004 
z
" style="fill:#0000ff;opacity:0.5;stroke:#0000ff;stroke-linecap:round;"/>
   </g>
   <g id="patch_15">
    <path clip-path="url(#pf3625cb8ca)" d="M 87.668166 110.886347 
Q 107.069686 114.766398 126.559422 112.605023 
L 126.311422 110.368732 
Q 130.122851 111.834095 134.150729 113.056223 
Q 130.749399 115.534504 127.13809 117.823034 
L 126.890089 115.586744 
Q 106.937763 117.799419 87.079854 113.828096 
L 87.668166 110.886347 
z
" style="fill:#008000;opacity:0.5;stroke:#008000;stroke-linecap:round;"/>
   </g>
   <g id="patch_16">
    <path clip-path="url(#pf3625cb8ca)" d="M 141.048951 93.353308 
Q 137.325736 87.592025 132.508818 82.834123 
L 130.927664 84.434889 
Q 129.750025 80.627148 127.925312 76.816865 
Q 132.063269 77.659283 136.198178 79.099002 
L 134.617024 80.699768 
Q 139.667327 85.688196 143.568593 91.724995 
L 141.048951 93.353308 
z
" style="fill:#0000ff;opacity:0.5;stroke:#0000ff;stroke-linecap:round;"/>
   </g>
   <g id="text_1">
    <!-- $S$ -->
    <defs>
     <path d="M 63.5 69.109375 
C 63.5 70 62.796875 70 62.59375 70 
C 62.203125 70 62.09375 69.90625 60.90625 68.40625 
C 60.296875 67.703125 56.203125 62.515625 56.09375 62.421875 
C 52.796875 68.90625 46.203125 70 42 70 
C 29.296875 70 17.796875 58.484375 17.796875 47.265625 
C 17.796875 39.828125 22.296875 35.453125 27.203125 33.765625 
C 28.296875 33.359375 34.203125 31.765625 37.203125 31.078125 
C 42.296875 29.6875 43.59375 29.296875 45.703125 27.109375 
C 46.09375 26.609375 48.09375 24.328125 48.09375 19.65625 
C 48.09375 10.421875 39.5 0.890625 29.5 0.890625 
C 21.296875 0.890625 12.203125 4.375 12.203125 15.484375 
C 12.203125 17.375 12.59375 19.765625 12.90625 20.75 
C 12.90625 21.0625 13 21.53125 13 21.734375 
C 13 22.140625 12.796875 22.640625 12 22.640625 
C 11.09375 22.640625 11 22.4375 10.59375 20.75 
L 5.5 0.375 
C 5.5 0.28125 5.09375 -1 5.09375 -1.109375 
C 5.09375 -2 5.90625 -2 6.09375 -2 
C 6.5 -2 6.59375 -1.90625 7.796875 -0.40625 
L 12.40625 5.5625 
C 14.796875 1.96875 20 -2 29.296875 -2 
C 42.203125 -2 54 10.40625 54 22.8125 
C 54 27 53 30.671875 49.203125 34.328125 
C 47.09375 36.421875 45.296875 36.921875 36.09375 39.3125 
C 29.40625 41.09375 28.5 41.390625 26.703125 42.984375 
C 25 44.65625 23.703125 47.046875 23.703125 50.421875 
C 23.703125 58.765625 32.203125 67.3125 41.703125 67.3125 
C 51.5 67.3125 56.09375 61.34375 56.09375 51.921875 
C 56.09375 49.34375 55.59375 46.65625 55.59375 46.265625 
C 55.59375 45.359375 56.40625 45.359375 56.703125 45.359375 
C 57.59375 45.359375 57.703125 45.65625 58.09375 47.25 
z
" id="CMMI12-83"/>
    </defs>
    <g transform="translate(62.37644 113.065056)scale(0.16 -0.16)">
     <use transform="scale(0.996264)" xlink:href="#CMMI12-83"/>
    </g>
   </g>
   <g id="text_2">
    <!-- $D$ -->
    <defs>
     <path d="M 15.703125 7.375 
C 14.796875 3.890625 14.59375 2.890625 7.59375 2.890625 
C 5.703125 2.890625 4.703125 2.890625 4.703125 1.09375 
C 4.703125 0 5.296875 0 7.296875 0 
L 39 0 
C 59.203125 0 78.90625 20.8125 78.90625 43.015625 
C 78.90625 57.359375 70.296875 68 56 68 
L 23.90625 68 
C 22 68 21.09375 68 21.09375 66.109375 
C 21.09375 65.109375 22 65.109375 23.5 65.109375 
C 29.59375 65.109375 29.59375 64.3125 29.59375 63.21875 
C 29.59375 63.03125 29.59375 62.421875 29.203125 60.921875 
z
M 36.796875 61.421875 
C 37.703125 65.109375 38.09375 65.109375 42 65.109375 
L 53 65.109375 
C 62.40625 65.109375 71 60.03125 71 46.296875 
C 71 41.3125 69 24 59.296875 13.046875 
C 56.5 9.765625 48.90625 2.890625 37.40625 2.890625 
L 26 2.890625 
C 24.59375 2.890625 24.40625 2.890625 23.796875 3 
C 22.703125 3.09375 22.59375 3.296875 22.59375 4.09375 
C 22.59375 4.796875 22.796875 5.390625 23 6.28125 
z
" id="CMMI12-68"/>
    </defs>
    <g transform="translate(104.220461 69.821856)scale(0.16 -0.16)">
     <use transform="scale(0.996264)" xlink:href="#CMMI12-68"/>
    </g>
   </g>
   <g id="text_3">
    <!-- $B$ -->
    <defs>
     <path d="M 36.59375 61.265625 
C 37.5 65 37.90625 65 41.796875 65 
L 54.796875 65 
C 66.09375 65 66.09375 55.375 66.09375 54.453125 
C 66.09375 46.34375 58 36 44.796875 36 
L 30.40625 36 
z
M 53.5 35.546875 
C 64.40625 37.53125 74.296875 45.09375 74.296875 54.265625 
C 74.296875 62.03125 67.40625 68 56.09375 68 
L 24 68 
C 22.09375 68 21.203125 68 21.203125 66.03125 
C 21.203125 65 22.09375 65 23.59375 65 
C 29.703125 65 29.703125 64.25 29.703125 63.1875 
C 29.703125 63 29.703125 62.390625 29.296875 60.890625 
L 15.796875 7.375 
C 14.90625 3.890625 14.703125 2.890625 7.703125 2.890625 
C 5.796875 2.890625 4.796875 2.890625 4.796875 1.09375 
C 4.796875 0 5.40625 0 7.40625 0 
L 41.703125 0 
C 57 0 68.796875 11.546875 68.796875 21.609375 
C 68.796875 29.78125 61.59375 34.75 53.5 35.546875 
z
M 39.296875 2.890625 
L 25.796875 2.890625 
C 24.40625 2.890625 24.203125 2.890625 23.59375 3 
C 22.5 3.09375 22.40625 3.296875 22.40625 4.078125 
C 22.40625 4.765625 22.59375 5.359375 22.796875 6.234375 
L 29.796875 34 
L 48.59375 34 
C 60.40625 34 60.40625 23.171875 60.40625 22.390625 
C 60.40625 12.9375 51.703125 2.890625 39.296875 2.890625 
z
" id="CMMI12-66"/>
    </defs>
    <g transform="translate(148.295358 113.065056)scale(0.16 -0.16)">
     <use transform="scale(0.996264)" xlink:href="#CMMI12-66"/>
    </g>
   </g>
   <g id="text_4">
    <!-- $E$ -->
    <defs>
     <path d="M 69.5 23.265625 
C 69.59375 23.5625 69.90625 24.28125 69.90625 24.671875 
C 69.90625 25.171875 69.5 25.671875 68.90625 25.671875 
C 68.5 25.671875 68.296875 25.578125 68 25.265625 
C 67.796875 25.171875 67.796875 24.96875 66.90625 22.953125 
C 61 8.90625 56.703125 2.890625 40.703125 2.890625 
L 26.09375 2.890625 
C 24.703125 2.890625 24.5 2.890625 23.90625 3 
C 22.796875 3.09375 22.703125 3.296875 22.703125 4.09375 
C 22.703125 4.796875 22.90625 5.390625 23.09375 6.296875 
L 30 34 
L 39.90625 34 
C 47.703125 34 48.296875 32.28125 48.296875 29.28125 
C 48.296875 28.28125 48.296875 27.375 47.59375 24.375 
C 47.40625 23.96875 47.296875 23.5625 47.296875 23.265625 
C 47.296875 22.5625 47.796875 22.265625 48.40625 22.265625 
C 49.296875 22.265625 49.40625 22.953125 49.796875 24.359375 
L 55.5 47.53125 
C 55.5 48.015625 55.09375 48.515625 54.5 48.515625 
C 53.59375 48.515625 53.5 48.125 53.09375 46.71875 
C 51.09375 39.078125 49.09375 36.890625 40.203125 36.890625 
L 30.703125 36.890625 
L 36.90625 61.40625 
C 37.796875 64.90625 38 64.90625 42.09375 64.90625 
L 56.40625 64.90625 
C 68.703125 64.90625 71.203125 61.609375 71.203125 54.03125 
C 71.203125 53.921875 71.203125 51.140625 70.796875 47.84375 
C 70.703125 47.4375 70.59375 46.84375 70.59375 46.640625 
C 70.59375 45.84375 71.09375 45.546875 71.703125 45.546875 
C 72.40625 45.546875 72.796875 45.953125 73 47.734375 
L 75.09375 65.21875 
C 75.09375 65.546875 75.296875 66.609375 75.296875 66.828125 
C 75.296875 68 74.40625 68 72.59375 68 
L 23.796875 68 
C 21.90625 68 20.90625 68 20.90625 66.078125 
C 20.90625 64.90625 21.59375 64.90625 23.296875 64.90625 
C 29.5 64.90625 29.5 64.28125 29.5 63.3125 
C 29.5 62.8125 29.40625 62.40625 29.09375 61.3125 
L 15.59375 7.390625 
C 14.703125 3.890625 14.5 2.890625 7.5 2.890625 
C 5.59375 2.890625 4.59375 2.890625 4.59375 1.09375 
C 4.59375 0 5.203125 0 7.203125 0 
L 57.40625 0 
C 59.59375 0 59.703125 0.09375 60.40625 1.71875 
z
" id="CMMI12-69"/>
    </defs>
    <g transform="translate(104.923102 156.308256)scale(0.16 -0.16)">
     <use transform="scale(0.996264)" xlink:href="#CMMI12-69"/>
    </g>
   </g>
  </g>
 </g>
 <defs>
  <clipPath id="pf3625cb8ca">
   <rect height="166.32" width="167.4" x="27" y="25.92"/>
  </clipPath>
 </defs>
</svg>
