<?xml version="1.0" encoding="utf-8" standalone="no"?>
<!DOCTYPE svg PUBLIC "-//W3C//DTD SVG 1.1//EN"
  "http://www.w3.org/Graphics/SVG/1.1/DTD/svg11.dtd">
<!-- Created with matplotlib (http://matplotlib.org/) -->
<svg height="576pt" version="1.1" viewBox="0 0 576 576" width="576pt" xmlns="http://www.w3.org/2000/svg" xmlns:xlink="http://www.w3.org/1999/xlink">
 <defs>
  <style type="text/css">
*{stroke-linecap:butt;stroke-linejoin:round;}
  </style>
 </defs>
 <g id="figure_1">
  <g id="patch_1">
   <path d="M 0 576 
L 576 576 
L 576 0 
L 0 0 
z
" style="fill:#ffffff;"/>
  </g>
  <g id="axes_1">
   <g id="patch_2">
    <path clip-path="url(#pfac92d1d36)" d="M 110.592 396.43023 
C 124.072334 396.43023 137.002364 391.074436 146.5344 381.5424 
C 156.066436 372.010364 161.42223 359.080334 161.42223 345.6 
C 161.42223 332.119666 156.066436 319.189636 146.5344 309.6576 
C 137.002364 300.125564 124.072334 294.76977 110.592 294.76977 
C 97.111666 294.76977 84.181636 300.125564 74.6496 309.6576 
C 65.117564 319.189636 59.76177 332.119666 59.76177 345.6 
C 59.76177 359.080334 65.117564 372.010364 74.6496 381.5424 
C 84.181636 391.074436 97.111666 396.43023 110.592 396.43023 
z
" style="fill:#0000ff;opacity:0.3;stroke:#0000ff;stroke-linejoin:miter;"/>
   </g>
   <g id="patch_3">
    <path clip-path="url(#pfac92d1d36)" d="M 27.307721 292.274176 
Q 35.490314 299.251925 44.581952 304.640986 
L 48.406217 298.189243 
Q 54.852884 309.345397 64.680596 319.529402 
Q 50.639651 321.240124 35.658665 319.695054 
L 39.482931 313.24331 
Q 29.653909 307.417165 20.819074 299.883214 
L 27.307721 292.274176 
z
" style="fill:#0000ff;opacity:0.5;stroke:#0000ff;stroke-linecap:round;"/>
   </g>
   <g id="patch_4">
    <path clip-path="url(#pfac92d1d36)" d="M 66.354848 376.381955 
Q 56.220643 379.979414 47.007761 385.158473 
L 50.683001 391.696256 
Q 37.798155 391.701155 24.064692 395.120201 
Q 29.603636 382.105025 38.432199 369.903646 
L 42.10744 376.441429 
Q 52.067541 370.842318 63.009551 366.958103 
L 66.354848 376.381955 
z
" style="fill:#008000;opacity:0.5;stroke:#008000;stroke-linecap:round;"/>
   </g>
   <g id="patch_5">
    <path clip-path="url(#pfac92d1d36)" d="M 230.4 276.62223 
C 243.880334 276.62223 256.810364 271.266436 266.3424 261.7344 
C 275.874436 252.202364 281.23023 239.272334 281.23023 225.792 
C 281.23023 212.311666 275.874436 199.381636 266.3424 189.8496 
C 256.810364 180.317564 243.880334 174.96177 230.4 174.96177 
C 216.919666 174.96177 203.989636 180.317564 194.4576 189.8496 
C 184.925564 199.381636 179.56977 212.311666 179.56977 225.792 
C 179.56977 239.272334 184.925564 252.202364 194.4576 261.7344 
C 203.989636 271.266436 216.919666 276.62223 230.4 276.62223 
z
" style="fill:#0000ff;opacity:0.3;stroke:#0000ff;stroke-linejoin:miter;"/>
   </g>
   <g id="patch_6">
    <path clip-path="url(#pfac92d1d36)" d="M 283.725824 142.507721 
Q 276.748075 150.690314 271.359014 159.781952 
L 277.810757 163.606217 
Q 266.654603 170.052884 256.470598 179.880596 
Q 254.759876 165.839651 256.304946 150.858665 
L 262.75669 154.682931 
Q 268.582835 144.853909 276.116786 136.019074 
L 283.725824 142.507721 
z
" style="fill:#0000ff;opacity:0.5;stroke:#0000ff;stroke-linecap:round;"/>
   </g>
   <g id="patch_7">
    <path clip-path="url(#pfac92d1d36)" d="M 199.618045 181.554848 
Q 196.020586 171.420643 190.841527 162.207761 
L 184.303744 165.883001 
Q 184.298845 152.998155 180.879799 139.264692 
Q 193.894975 144.803636 206.096354 153.632199 
L 199.558571 157.30744 
Q 205.157682 167.267541 209.041897 178.209551 
L 199.618045 181.554848 
z
" style="fill:#008000;opacity:0.5;stroke:#008000;stroke-linecap:round;"/>
   </g>
   <g id="patch_8">
    <path clip-path="url(#pfac92d1d36)" d="M 350.208 396.43023 
C 363.688334 396.43023 376.618364 391.074436 386.1504 381.5424 
C 395.682436 372.010364 401.03823 359.080334 401.03823 345.6 
C 401.03823 332.119666 395.682436 319.189636 386.1504 309.6576 
C 376.618364 300.125564 363.688334 294.76977 350.208 294.76977 
C 336.727666 294.76977 323.797636 300.125564 314.2656 309.6576 
C 304.733564 319.189636 299.37777 332.119666 299.37777 345.6 
C 299.37777 359.080334 304.733564 372.010364 314.2656 381.5424 
C 323.797636 391.074436 336.727666 396.43023 350.208 396.43023 
z
" style="fill:#0000ff;opacity:0.3;stroke:#0000ff;stroke-linejoin:miter;"/>
   </g>
   <g id="patch_9">
    <path clip-path="url(#pfac92d1d36)" d="M 230.4 516.23823 
C 243.880334 516.23823 256.810364 510.882436 266.3424 501.3504 
C 275.874436 491.818364 281.23023 478.888334 281.23023 465.408 
C 281.23023 451.927666 275.874436 438.997636 266.3424 429.4656 
C 256.810364 419.933564 243.880334 414.57777 230.4 414.57777 
C 216.919666 414.57777 203.989636 419.933564 194.4576 429.4656 
C 184.925564 438.997636 179.56977 451.927666 179.56977 465.408 
C 179.56977 478.888334 184.925564 491.818364 194.4576 501.3504 
C 203.989636 510.882436 216.919666 516.23823 230.4 516.23823 
z
" style="fill:#0000ff;opacity:0.3;stroke:#0000ff;stroke-linejoin:miter;"/>
   </g>
   <g id="patch_10">
    <path clip-path="url(#pfac92d1d36)" d="M 150.804794 310.425525 
Q 168.073516 299.809871 182.186092 285.736034 
L 176.890085 280.42545 
Q 189.500499 276.720463 202.128124 270.415925 
Q 199.533548 284.280177 194.543442 298.127398 
L 189.247435 292.816814 
Q 174.306765 307.716472 156.041742 318.944585 
L 150.804794 310.425525 
z
" style="fill:#008000;opacity:0.5;stroke:#008000;stroke-linecap:round;"/>
   </g>
   <g id="patch_11">
    <path clip-path="url(#pfac92d1d36)" d="M 163.782056 349.075108 
Q 218.329241 360.53122 273.129404 354.590957 
L 272.321149 347.134636 
Q 284.931043 352.061912 298.414124 356.007621 
Q 287.138192 364.380767 275.015332 371.98904 
L 274.207077 364.532718 
Q 217.828059 370.644127 161.726677 358.861599 
L 163.782056 349.075108 
z
" style="fill:#008000;opacity:0.5;stroke:#008000;stroke-linecap:round;"/>
   </g>
   <g id="patch_12">
    <path clip-path="url(#pfac92d1d36)" d="M 265.574475 266.004794 
Q 276.190129 283.273516 290.263966 297.386092 
L 295.57455 292.090085 
Q 299.279537 304.700499 305.584075 317.328124 
Q 291.719823 314.733548 277.872602 309.743442 
L 283.183186 304.447435 
Q 268.283528 289.506765 257.055415 271.241742 
L 265.574475 266.004794 
z
" style="fill:#008000;opacity:0.5;stroke:#008000;stroke-linecap:round;"/>
   </g>
   <g id="patch_13">
    <path clip-path="url(#pfac92d1d36)" d="M 297.017944 342.124892 
Q 242.470759 330.66878 187.670596 336.609043 
L 188.478851 344.065364 
Q 175.868957 339.138088 162.385876 335.192379 
Q 173.661808 326.819233 185.784668 319.21096 
L 186.592923 326.667282 
Q 242.971941 320.555873 299.073323 332.338401 
L 297.017944 342.124892 
z
" style="fill:#0000ff;opacity:0.5;stroke:#0000ff;stroke-linecap:round;"/>
   </g>
   <g id="patch_14">
    <path clip-path="url(#pfac92d1d36)" d="M 315.033525 305.387206 
Q 304.417871 288.118484 290.344034 274.005908 
L 285.03345 279.301915 
Q 281.328463 266.691501 275.023925 254.063876 
Q 288.888177 256.658452 302.735398 261.648558 
L 297.424814 266.944565 
Q 312.324472 281.885235 323.552585 300.150258 
L 315.033525 305.387206 
z
" style="fill:#0000ff;opacity:0.5;stroke:#0000ff;stroke-linecap:round;"/>
   </g>
   <g id="patch_15">
    <path clip-path="url(#pfac92d1d36)" d="M 309.995206 380.774475 
Q 292.726484 391.390129 278.613908 405.463966 
L 283.909915 410.77455 
Q 271.299501 414.479537 258.671876 420.784075 
Q 261.266452 406.919823 266.256558 393.072602 
L 271.552565 398.383186 
Q 286.493235 383.483528 304.758258 372.255415 
L 309.995206 380.774475 
z
" style="fill:#0000ff;opacity:0.5;stroke:#0000ff;stroke-linecap:round;"/>
   </g>
   <g id="patch_16">
    <path clip-path="url(#pfac92d1d36)" d="M 233.875108 412.217944 
Q 245.33122 357.670759 239.390957 302.870596 
L 231.934636 303.678851 
Q 236.861912 291.068957 240.807621 277.585876 
Q 249.180767 288.861808 256.78904 300.984668 
L 249.332718 301.792923 
Q 255.444127 358.171941 243.661599 414.273323 
L 233.875108 412.217944 
z
" style="fill:#0000ff;opacity:0.5;stroke:#0000ff;stroke-linecap:round;"/>
   </g>
   <g id="text_1">
    <!-- $S$ -->
    <defs>
     <path d="M 60.296875 70.515625 
L 58.40625 60.890625 
Q 53.46875 63.53125 48.609375 64.875 
Q 43.75 66.21875 39.203125 66.21875 
Q 30.375 66.21875 25.140625 62.359375 
Q 19.921875 58.5 19.921875 52.09375 
Q 19.921875 48.578125 21.84375 46.703125 
Q 23.78125 44.828125 31.78125 42.671875 
L 37.703125 41.21875 
Q 47.703125 38.625 51.609375 34.640625 
Q 55.515625 30.671875 55.515625 23.484375 
Q 55.515625 12.453125 46.84375 5.515625 
Q 38.1875 -1.421875 24.03125 -1.421875 
Q 18.21875 -1.421875 12.359375 -0.265625 
Q 6.5 0.875 0.59375 3.21875 
L 2.59375 13.375 
Q 8.015625 10.015625 13.453125 8.296875 
Q 18.890625 6.59375 24.3125 6.59375 
Q 33.546875 6.59375 39.109375 10.6875 
Q 44.671875 14.796875 44.671875 21.390625 
Q 44.671875 25.78125 42.453125 28.046875 
Q 40.234375 30.328125 32.90625 32.171875 
L 27 33.6875 
Q 16.890625 36.328125 13.203125 39.765625 
Q 9.515625 43.21875 9.515625 49.421875 
Q 9.515625 60.296875 17.890625 67.25 
Q 26.265625 74.21875 39.703125 74.21875 
Q 44.921875 74.21875 50.046875 73.28125 
Q 55.171875 72.359375 60.296875 70.515625 
z
" id="DejaVuSans-Oblique-53"/>
    </defs>
    <g transform="translate(102.912 352.2225)scale(0.24 -0.24)">
     <use transform="translate(0 0.78125)" xlink:href="#DejaVuSans-Oblique-53"/>
    </g>
   </g>
   <g id="text_2">
    <!-- $D$ -->
    <defs>
     <path d="M 16.890625 72.90625 
L 38.09375 72.90625 
Q 54.984375 72.90625 63.59375 65.75 
Q 72.21875 58.59375 72.21875 44.484375 
Q 72.21875 35.15625 68.9375 26.53125 
Q 65.671875 17.921875 59.90625 12.015625 
Q 54.109375 5.953125 45.171875 2.96875 
Q 36.234375 0 24.03125 0 
L 2.6875 0 
z
M 25.203125 64.796875 
L 14.203125 8.109375 
L 27.09375 8.109375 
Q 43.65625 8.109375 52.734375 17.625 
Q 61.8125 27.15625 61.8125 44.484375 
Q 61.8125 54.984375 55.953125 59.890625 
Q 50.09375 64.796875 37.59375 64.796875 
z
" id="DejaVuSans-Oblique-44"/>
    </defs>
    <g transform="translate(221.04 232.4145)scale(0.24 -0.24)">
     <use transform="translate(0 0.09375)" xlink:href="#DejaVuSans-Oblique-44"/>
    </g>
   </g>
   <g id="text_3">
    <!-- $B$ -->
    <defs>
     <path d="M 16.890625 72.90625 
L 42.09375 72.90625 
Q 52.34375 72.90625 57.421875 69.09375 
Q 62.5 65.28125 62.5 57.625 
Q 62.5 50.59375 58.125 45.484375 
Q 53.765625 40.375 46.6875 39.3125 
Q 52.734375 37.9375 55.765625 34.078125 
Q 58.796875 30.21875 58.796875 23.78125 
Q 58.796875 12.796875 50.65625 6.390625 
Q 42.53125 0 28.421875 0 
L 2.6875 0 
z
M 19.28125 34.8125 
L 14.109375 8.109375 
L 29.984375 8.109375 
Q 38.921875 8.109375 43.75 12.203125 
Q 48.578125 16.3125 48.578125 23.78125 
Q 48.578125 29.546875 45.375 32.171875 
Q 42.1875 34.8125 35.109375 34.8125 
z
M 25.09375 64.796875 
L 20.796875 42.828125 
L 35.5 42.828125 
Q 43.359375 42.828125 47.78125 46.234375 
Q 52.203125 49.65625 52.203125 55.71875 
Q 52.203125 60.453125 49.21875 62.625 
Q 46.234375 64.796875 39.703125 64.796875 
z
" id="DejaVuSans-Oblique-42"/>
    </defs>
    <g transform="translate(341.928 352.2225)scale(0.24 -0.24)">
     <use transform="translate(0 0.09375)" xlink:href="#DejaVuSans-Oblique-42"/>
    </g>
   </g>
   <g id="text_4">
    <!-- $E$ -->
    <defs>
     <path d="M 16.890625 72.90625 
L 62.984375 72.90625 
L 61.375 64.59375 
L 25.09375 64.59375 
L 20.90625 43.015625 
L 55.71875 43.015625 
L 54.109375 34.71875 
L 19.28125 34.71875 
L 14.203125 8.296875 
L 51.3125 8.296875 
L 49.703125 0 
L 2.6875 0 
z
" id="DejaVuSans-Oblique-45"/>
    </defs>
    <g transform="translate(222.72 472.0305)scale(0.24 -0.24)">
     <use transform="translate(0 0.09375)" xlink:href="#DejaVuSans-Oblique-45"/>
    </g>
   </g>
   <g id="legend_1">
    <g id="patch_17">
     <path d="M 64.726562 91.798125 
L 396.073438 91.798125 
Q 398.073438 91.798125 398.073438 89.798125 
L 398.073438 76.12 
Q 398.073438 74.12 396.073438 74.12 
L 64.726562 74.12 
Q 62.726562 74.12 62.726562 76.12 
L 62.726562 89.798125 
Q 62.726562 91.798125 64.726562 91.798125 
z
" style="fill:#ffffff;opacity:0.8;stroke:#cccccc;stroke-linejoin:miter;"/>
    </g>
    <g id="patch_18">
     <path d="M 66.726562 85.718437 
L 86.726562 85.718437 
L 86.726562 78.718437 
L 66.726562 78.718437 
z
" style="fill:#0000ff;opacity:0.5;stroke:#0000ff;stroke-linejoin:miter;"/>
    </g>
    <g id="text_5">
     <!-- linear -->
     <defs>
      <path d="M 9.421875 75.984375 
L 18.40625 75.984375 
L 18.40625 0 
L 9.421875 0 
z
" id="DejaVuSans-6c"/>
      <path d="M 9.421875 54.6875 
L 18.40625 54.6875 
L 18.40625 0 
L 9.421875 0 
z
M 9.421875 75.984375 
L 18.40625 75.984375 
L 18.40625 64.59375 
L 9.421875 64.59375 
z
" id="DejaVuSans-69"/>
      <path d="M 54.890625 33.015625 
L 54.890625 0 
L 45.90625 0 
L 45.90625 32.71875 
Q 45.90625 40.484375 42.875 44.328125 
Q 39.84375 48.1875 33.796875 48.1875 
Q 26.515625 48.1875 22.3125 43.546875 
Q 18.109375 38.921875 18.109375 30.90625 
L 18.109375 0 
L 9.078125 0 
L 9.078125 54.6875 
L 18.109375 54.6875 
L 18.109375 46.1875 
Q 21.34375 51.125 25.703125 53.5625 
Q 30.078125 56 35.796875 56 
Q 45.21875 56 50.046875 50.171875 
Q 54.890625 44.34375 54.890625 33.015625 
z
" id="DejaVuSans-6e"/>
      <path d="M 56.203125 29.59375 
L 56.203125 25.203125 
L 14.890625 25.203125 
Q 15.484375 15.921875 20.484375 11.0625 
Q 25.484375 6.203125 34.421875 6.203125 
Q 39.59375 6.203125 44.453125 7.46875 
Q 49.3125 8.734375 54.109375 11.28125 
L 54.109375 2.78125 
Q 49.265625 0.734375 44.1875 -0.34375 
Q 39.109375 -1.421875 33.890625 -1.421875 
Q 20.796875 -1.421875 13.15625 6.1875 
Q 5.515625 13.8125 5.515625 26.8125 
Q 5.515625 40.234375 12.765625 48.109375 
Q 20.015625 56 32.328125 56 
Q 43.359375 56 49.78125 48.890625 
Q 56.203125 41.796875 56.203125 29.59375 
z
M 47.21875 32.234375 
Q 47.125 39.59375 43.09375 43.984375 
Q 39.0625 48.390625 32.421875 48.390625 
Q 24.90625 48.390625 20.390625 44.140625 
Q 15.875 39.890625 15.1875 32.171875 
z
" id="DejaVuSans-65"/>
      <path d="M 34.28125 27.484375 
Q 23.390625 27.484375 19.1875 25 
Q 14.984375 22.515625 14.984375 16.5 
Q 14.984375 11.71875 18.140625 8.90625 
Q 21.296875 6.109375 26.703125 6.109375 
Q 34.1875 6.109375 38.703125 11.40625 
Q 43.21875 16.703125 43.21875 25.484375 
L 43.21875 27.484375 
z
M 52.203125 31.203125 
L 52.203125 0 
L 43.21875 0 
L 43.21875 8.296875 
Q 40.140625 3.328125 35.546875 0.953125 
Q 30.953125 -1.421875 24.3125 -1.421875 
Q 15.921875 -1.421875 10.953125 3.296875 
Q 6 8.015625 6 15.921875 
Q 6 25.140625 12.171875 29.828125 
Q 18.359375 34.515625 30.609375 34.515625 
L 43.21875 34.515625 
L 43.21875 35.40625 
Q 43.21875 41.609375 39.140625 45 
Q 35.0625 48.390625 27.6875 48.390625 
Q 23 48.390625 18.546875 47.265625 
Q 14.109375 46.140625 10.015625 43.890625 
L 10.015625 52.203125 
Q 14.9375 54.109375 19.578125 55.046875 
Q 24.21875 56 28.609375 56 
Q 40.484375 56 46.34375 49.84375 
Q 52.203125 43.703125 52.203125 31.203125 
z
" id="DejaVuSans-61"/>
      <path d="M 41.109375 46.296875 
Q 39.59375 47.171875 37.8125 47.578125 
Q 36.03125 48 33.890625 48 
Q 26.265625 48 22.1875 43.046875 
Q 18.109375 38.09375 18.109375 28.8125 
L 18.109375 0 
L 9.078125 0 
L 9.078125 54.6875 
L 18.109375 54.6875 
L 18.109375 46.1875 
Q 20.953125 51.171875 25.484375 53.578125 
Q 30.03125 56 36.53125 56 
Q 37.453125 56 38.578125 55.875 
Q 39.703125 55.765625 41.0625 55.515625 
z
" id="DejaVuSans-72"/>
     </defs>
     <g transform="translate(94.726562 85.718437)scale(0.1 -0.1)">
      <use xlink:href="#DejaVuSans-6c"/>
      <use x="27.783203" xlink:href="#DejaVuSans-69"/>
      <use x="55.566406" xlink:href="#DejaVuSans-6e"/>
      <use x="118.945312" xlink:href="#DejaVuSans-65"/>
      <use x="180.46875" xlink:href="#DejaVuSans-61"/>
      <use x="241.748047" xlink:href="#DejaVuSans-72"/>
     </g>
    </g>
    <g id="patch_19">
     <path d="M 143.0125 85.718437 
L 163.0125 85.718437 
L 163.0125 78.718437 
L 143.0125 78.718437 
z
" style="fill:#008000;opacity:0.5;stroke:#008000;stroke-linejoin:miter;"/>
    </g>
    <g id="text_6">
     <!-- nonlinear -->
     <defs>
      <path d="M 30.609375 48.390625 
Q 23.390625 48.390625 19.1875 42.75 
Q 14.984375 37.109375 14.984375 27.296875 
Q 14.984375 17.484375 19.15625 11.84375 
Q 23.34375 6.203125 30.609375 6.203125 
Q 37.796875 6.203125 41.984375 11.859375 
Q 46.1875 17.53125 46.1875 27.296875 
Q 46.1875 37.015625 41.984375 42.703125 
Q 37.796875 48.390625 30.609375 48.390625 
z
M 30.609375 56 
Q 42.328125 56 49.015625 48.375 
Q 55.71875 40.765625 55.71875 27.296875 
Q 55.71875 13.875 49.015625 6.21875 
Q 42.328125 -1.421875 30.609375 -1.421875 
Q 18.84375 -1.421875 12.171875 6.21875 
Q 5.515625 13.875 5.515625 27.296875 
Q 5.515625 40.765625 12.171875 48.375 
Q 18.84375 56 30.609375 56 
z
" id="DejaVuSans-6f"/>
     </defs>
     <g transform="translate(171.0125 85.718437)scale(0.1 -0.1)">
      <use xlink:href="#DejaVuSans-6e"/>
      <use x="63.378906" xlink:href="#DejaVuSans-6f"/>
      <use x="124.560547" xlink:href="#DejaVuSans-6e"/>
      <use x="187.939453" xlink:href="#DejaVuSans-6c"/>
      <use x="215.722656" xlink:href="#DejaVuSans-69"/>
      <use x="243.505859" xlink:href="#DejaVuSans-6e"/>
      <use x="306.884766" xlink:href="#DejaVuSans-65"/>
      <use x="368.408203" xlink:href="#DejaVuSans-61"/>
      <use x="429.6875" xlink:href="#DejaVuSans-72"/>
     </g>
    </g>
    <g id="patch_20">
     <path d="M 238.092188 85.718437 
L 258.092188 85.718437 
L 258.092188 78.718437 
L 238.092188 78.718437 
z
" style="fill:#ff0000;opacity:0.5;stroke:#ff0000;stroke-linejoin:miter;"/>
    </g>
    <g id="text_7">
     <!-- no substrate dependence -->
     <defs>
      <path id="DejaVuSans-20"/>
      <path d="M 44.28125 53.078125 
L 44.28125 44.578125 
Q 40.484375 46.53125 36.375 47.5 
Q 32.28125 48.484375 27.875 48.484375 
Q 21.1875 48.484375 17.84375 46.4375 
Q 14.5 44.390625 14.5 40.28125 
Q 14.5 37.15625 16.890625 35.375 
Q 19.28125 33.59375 26.515625 31.984375 
L 29.59375 31.296875 
Q 39.15625 29.25 43.1875 25.515625 
Q 47.21875 21.78125 47.21875 15.09375 
Q 47.21875 7.46875 41.1875 3.015625 
Q 35.15625 -1.421875 24.609375 -1.421875 
Q 20.21875 -1.421875 15.453125 -0.5625 
Q 10.6875 0.296875 5.421875 2 
L 5.421875 11.28125 
Q 10.40625 8.6875 15.234375 7.390625 
Q 20.0625 6.109375 24.8125 6.109375 
Q 31.15625 6.109375 34.5625 8.28125 
Q 37.984375 10.453125 37.984375 14.40625 
Q 37.984375 18.0625 35.515625 20.015625 
Q 33.0625 21.96875 24.703125 23.78125 
L 21.578125 24.515625 
Q 13.234375 26.265625 9.515625 29.90625 
Q 5.8125 33.546875 5.8125 39.890625 
Q 5.8125 47.609375 11.28125 51.796875 
Q 16.75 56 26.8125 56 
Q 31.78125 56 36.171875 55.265625 
Q 40.578125 54.546875 44.28125 53.078125 
z
" id="DejaVuSans-73"/>
      <path d="M 8.5 21.578125 
L 8.5 54.6875 
L 17.484375 54.6875 
L 17.484375 21.921875 
Q 17.484375 14.15625 20.5 10.265625 
Q 23.53125 6.390625 29.59375 6.390625 
Q 36.859375 6.390625 41.078125 11.03125 
Q 45.3125 15.671875 45.3125 23.6875 
L 45.3125 54.6875 
L 54.296875 54.6875 
L 54.296875 0 
L 45.3125 0 
L 45.3125 8.40625 
Q 42.046875 3.421875 37.71875 1 
Q 33.40625 -1.421875 27.6875 -1.421875 
Q 18.265625 -1.421875 13.375 4.4375 
Q 8.5 10.296875 8.5 21.578125 
z
M 31.109375 56 
z
" id="DejaVuSans-75"/>
      <path d="M 48.6875 27.296875 
Q 48.6875 37.203125 44.609375 42.84375 
Q 40.53125 48.484375 33.40625 48.484375 
Q 26.265625 48.484375 22.1875 42.84375 
Q 18.109375 37.203125 18.109375 27.296875 
Q 18.109375 17.390625 22.1875 11.75 
Q 26.265625 6.109375 33.40625 6.109375 
Q 40.53125 6.109375 44.609375 11.75 
Q 48.6875 17.390625 48.6875 27.296875 
z
M 18.109375 46.390625 
Q 20.953125 51.265625 25.265625 53.625 
Q 29.59375 56 35.59375 56 
Q 45.5625 56 51.78125 48.09375 
Q 58.015625 40.1875 58.015625 27.296875 
Q 58.015625 14.40625 51.78125 6.484375 
Q 45.5625 -1.421875 35.59375 -1.421875 
Q 29.59375 -1.421875 25.265625 0.953125 
Q 20.953125 3.328125 18.109375 8.203125 
L 18.109375 0 
L 9.078125 0 
L 9.078125 75.984375 
L 18.109375 75.984375 
z
" id="DejaVuSans-62"/>
      <path d="M 18.3125 70.21875 
L 18.3125 54.6875 
L 36.8125 54.6875 
L 36.8125 47.703125 
L 18.3125 47.703125 
L 18.3125 18.015625 
Q 18.3125 11.328125 20.140625 9.421875 
Q 21.96875 7.515625 27.59375 7.515625 
L 36.8125 7.515625 
L 36.8125 0 
L 27.59375 0 
Q 17.1875 0 13.234375 3.875 
Q 9.28125 7.765625 9.28125 18.015625 
L 9.28125 47.703125 
L 2.6875 47.703125 
L 2.6875 54.6875 
L 9.28125 54.6875 
L 9.28125 70.21875 
z
" id="DejaVuSans-74"/>
      <path d="M 45.40625 46.390625 
L 45.40625 75.984375 
L 54.390625 75.984375 
L 54.390625 0 
L 45.40625 0 
L 45.40625 8.203125 
Q 42.578125 3.328125 38.25 0.953125 
Q 33.9375 -1.421875 27.875 -1.421875 
Q 17.96875 -1.421875 11.734375 6.484375 
Q 5.515625 14.40625 5.515625 27.296875 
Q 5.515625 40.1875 11.734375 48.09375 
Q 17.96875 56 27.875 56 
Q 33.9375 56 38.25 53.625 
Q 42.578125 51.265625 45.40625 46.390625 
z
M 14.796875 27.296875 
Q 14.796875 17.390625 18.875 11.75 
Q 22.953125 6.109375 30.078125 6.109375 
Q 37.203125 6.109375 41.296875 11.75 
Q 45.40625 17.390625 45.40625 27.296875 
Q 45.40625 37.203125 41.296875 42.84375 
Q 37.203125 48.484375 30.078125 48.484375 
Q 22.953125 48.484375 18.875 42.84375 
Q 14.796875 37.203125 14.796875 27.296875 
z
" id="DejaVuSans-64"/>
      <path d="M 18.109375 8.203125 
L 18.109375 -20.796875 
L 9.078125 -20.796875 
L 9.078125 54.6875 
L 18.109375 54.6875 
L 18.109375 46.390625 
Q 20.953125 51.265625 25.265625 53.625 
Q 29.59375 56 35.59375 56 
Q 45.5625 56 51.78125 48.09375 
Q 58.015625 40.1875 58.015625 27.296875 
Q 58.015625 14.40625 51.78125 6.484375 
Q 45.5625 -1.421875 35.59375 -1.421875 
Q 29.59375 -1.421875 25.265625 0.953125 
Q 20.953125 3.328125 18.109375 8.203125 
z
M 48.6875 27.296875 
Q 48.6875 37.203125 44.609375 42.84375 
Q 40.53125 48.484375 33.40625 48.484375 
Q 26.265625 48.484375 22.1875 42.84375 
Q 18.109375 37.203125 18.109375 27.296875 
Q 18.109375 17.390625 22.1875 11.75 
Q 26.265625 6.109375 33.40625 6.109375 
Q 40.53125 6.109375 44.609375 11.75 
Q 48.6875 17.390625 48.6875 27.296875 
z
" id="DejaVuSans-70"/>
      <path d="M 48.78125 52.59375 
L 48.78125 44.1875 
Q 44.96875 46.296875 41.140625 47.34375 
Q 37.3125 48.390625 33.40625 48.390625 
Q 24.65625 48.390625 19.8125 42.84375 
Q 14.984375 37.3125 14.984375 27.296875 
Q 14.984375 17.28125 19.8125 11.734375 
Q 24.65625 6.203125 33.40625 6.203125 
Q 37.3125 6.203125 41.140625 7.25 
Q 44.96875 8.296875 48.78125 10.40625 
L 48.78125 2.09375 
Q 45.015625 0.34375 40.984375 -0.53125 
Q 36.96875 -1.421875 32.421875 -1.421875 
Q 20.0625 -1.421875 12.78125 6.34375 
Q 5.515625 14.109375 5.515625 27.296875 
Q 5.515625 40.671875 12.859375 48.328125 
Q 20.21875 56 33.015625 56 
Q 37.15625 56 41.109375 55.140625 
Q 45.0625 54.296875 48.78125 52.59375 
z
" id="DejaVuSans-63"/>
     </defs>
     <g transform="translate(266.092188 85.718437)scale(0.1 -0.1)">
      <use xlink:href="#DejaVuSans-6e"/>
      <use x="63.378906" xlink:href="#DejaVuSans-6f"/>
      <use x="124.560547" xlink:href="#DejaVuSans-20"/>
      <use x="156.347656" xlink:href="#DejaVuSans-73"/>
      <use x="208.447266" xlink:href="#DejaVuSans-75"/>
      <use x="271.826172" xlink:href="#DejaVuSans-62"/>
      <use x="335.302734" xlink:href="#DejaVuSans-73"/>
      <use x="387.402344" xlink:href="#DejaVuSans-74"/>
      <use x="426.611328" xlink:href="#DejaVuSans-72"/>
      <use x="467.724609" xlink:href="#DejaVuSans-61"/>
      <use x="529.003906" xlink:href="#DejaVuSans-74"/>
      <use x="568.212891" xlink:href="#DejaVuSans-65"/>
      <use x="629.736328" xlink:href="#DejaVuSans-20"/>
      <use x="661.523438" xlink:href="#DejaVuSans-64"/>
      <use x="725" xlink:href="#DejaVuSans-65"/>
      <use x="786.523438" xlink:href="#DejaVuSans-70"/>
      <use x="850" xlink:href="#DejaVuSans-65"/>
      <use x="911.523438" xlink:href="#DejaVuSans-6e"/>
      <use x="974.902344" xlink:href="#DejaVuSans-64"/>
      <use x="1038.378906" xlink:href="#DejaVuSans-65"/>
      <use x="1099.902344" xlink:href="#DejaVuSans-6e"/>
      <use x="1163.28125" xlink:href="#DejaVuSans-63"/>
      <use x="1218.261719" xlink:href="#DejaVuSans-65"/>
     </g>
    </g>
   </g>
  </g>
 </g>
 <defs>
  <clipPath id="pfac92d1d36">
   <rect height="460.8" width="460.8" x="0" y="115.2"/>
  </clipPath>
 </defs>
</svg>
