<?xml version="1.0" encoding="utf-8" standalone="no"?>
<!DOCTYPE svg PUBLIC "-//W3C//DTD SVG 1.1//EN"
  "http://www.w3.org/Graphics/SVG/1.1/DTD/svg11.dtd">
<!-- Created with matplotlib (http://matplotlib.org/) -->
<svg height="216pt" version="1.1" viewBox="0 0 216 216" width="216pt" xmlns="http://www.w3.org/2000/svg" xmlns:xlink="http://www.w3.org/1999/xlink">
 <defs>
  <style type="text/css">
*{stroke-linecap:butt;stroke-linejoin:round;}
  </style>
 </defs>
 <g id="figure_1">
  <g id="patch_1">
   <path d="M 0 216 
L 216 216 
L 216 0 
L 0 0 
z
" style="fill:none;"/>
  </g>
  <g id="axes_1">
   <g id="patch_2">
    <path clip-path="url(#p56cd06376b)" d="M 80.568 127.04256 
C 85.36266 127.04256 89.961588 125.149911 93.351925 121.781448 
C 96.742261 118.412985 98.6472 113.843727 98.6472 109.08 
C 98.6472 104.316273 96.742261 99.747015 93.351925 96.378552 
C 89.961588 93.010089 85.36266 91.11744 80.568 91.11744 
C 75.77334 91.11744 71.174412 93.010089 67.784075 96.378552 
C 64.393739 99.747015 62.4888 104.316273 62.4888 109.08 
C 62.4888 113.843727 64.393739 118.412985 67.784075 121.781448 
C 71.174412 125.149911 75.77334 127.04256 80.568 127.04256 
z
" style="fill:#0000ff;opacity:0.3;stroke:#0000ff;stroke-linejoin:miter;"/>
   </g>
   <g id="patch_3">
    <path clip-path="url(#p56cd06376b)" d="M 51.726331 91.231791 
Q 54.259666 93.263249 57.026518 94.884987 
L 58.164277 92.943853 
Q 60.169202 96.307219 63.030462 99.424101 
Q 58.820759 99.833789 54.371746 99.414301 
L 55.509505 97.473167 
Q 52.553727 95.740693 49.849549 93.572238 
L 51.726331 91.231791 
z
" style="fill:#0000ff;opacity:0.5;stroke:#0000ff;stroke-linecap:round;"/>
   </g>
   <g id="patch_4">
    <path clip-path="url(#p56cd06376b)" d="M 63.564069 120.137781 
Q 60.531561 121.299032 57.73484 122.868701 
L 58.836069 124.83079 
Q 54.920602 124.863511 50.785592 125.759868 
Q 52.557165 121.919168 55.165306 118.290492 
L 56.266535 120.252582 
Q 59.254221 118.575733 62.491236 117.336169 
L 63.564069 120.137781 
z
" style="fill:#0000ff;opacity:0.5;stroke:#0000ff;stroke-linecap:round;"/>
   </g>
   <g id="patch_5">
    <path clip-path="url(#p56cd06376b)" d="M 140.832 127.04256 
C 145.62666 127.04256 150.225588 125.149911 153.615925 121.781448 
C 157.006261 118.412985 158.9112 113.843727 158.9112 109.08 
C 158.9112 104.316273 157.006261 99.747015 153.615925 96.378552 
C 150.225588 93.010089 145.62666 91.11744 140.832 91.11744 
C 136.03734 91.11744 131.438412 93.010089 128.048075 96.378552 
C 124.657739 99.747015 122.7528 104.316273 122.7528 109.08 
C 122.7528 113.843727 124.657739 118.412985 128.048075 121.781448 
C 131.438412 125.149911 136.03734 127.04256 140.832 127.04256 
z
" style="fill:#0000ff;opacity:0.3;stroke:#0000ff;stroke-linejoin:miter;"/>
   </g>
   <g id="patch_6">
    <path clip-path="url(#p56cd06376b)" d="M 157.835931 98.022219 
Q 160.868439 96.860968 163.66516 95.291299 
L 162.563931 93.32921 
Q 166.479398 93.296489 170.614408 92.400132 
Q 168.842835 96.240832 166.234694 99.869508 
L 165.133465 97.907418 
Q 162.145779 99.584267 158.908764 100.823831 
L 157.835931 98.022219 
z
" style="fill:#0000ff;opacity:0.5;stroke:#0000ff;stroke-linecap:round;"/>
   </g>
   <g id="patch_7">
    <path clip-path="url(#p56cd06376b)" d="M 100.68924 110.878755 
Q 107.178597 112.289793 113.732967 112.285625 
L 113.731536 110.035625 
Q 117.242478 111.915085 121.222534 113.332836 
Q 117.692743 115.651414 113.736306 117.535623 
L 113.734875 115.285624 
Q 106.857148 115.289998 100.051818 113.810255 
L 100.68924 110.878755 
z
" style="fill:#0000ff;opacity:0.5;stroke:#0000ff;stroke-linecap:round;"/>
   </g>
   <g id="text_1">
    <!-- $Y$ -->
    <defs>
     <path d="M 58.796875 56.953125 
L 61.09375 59.234375 
C 65.5 63.71875 69.203125 64.828125 72.703125 65.109375 
C 73.796875 65.203125 74.703125 65.296875 74.703125 67 
C 74.703125 68 73.703125 68 73.5 68 
C 72.296875 68 71 68 69.796875 68 
L 65.703125 68 
C 62.796875 68 59.703125 68 56.90625 68 
C 56.203125 68 55.09375 68 55.09375 66.03125 
C 55.09375 65.09375 56.09375 65 56.40625 65 
C 59.40625 65 59.40625 63.5 59.40625 62.90625 
C 59.40625 61.8125 58.59375 60.3125 56.59375 58.015625 
L 32.796875 30.765625 
L 21.5 61.109375 
C 20.90625 62.5 20.90625 62.703125 20.90625 62.90625 
C 20.90625 65 25 65 26.203125 65 
C 27.40625 65 28.5 65 28.5 66.859375 
C 28.5 68 27.59375 68 27 68 
C 25.296875 68 23.296875 68 21.59375 68 
L 10.5 68 
C 8.703125 68 6.796875 68 5.09375 68 
C 4.40625 68 3.296875 68 3.296875 66.03125 
C 3.296875 65 4.203125 65 5.703125 65 
C 10.59375 65 11.5 64.09375 12.40625 61.8125 
L 24.796875 28.671875 
C 24.90625 28.375 25.203125 27.265625 25.203125 26.96875 
C 25.203125 26.671875 20.296875 7.0625 20 6.0625 
C 19.203125 3.390625 18.203125 2.890625 11.796875 2.890625 
C 10.09375 2.890625 9.296875 2.890625 9.296875 1 
C 9.296875 0 10.40625 0 10.703125 0 
C 12.5 0 14.59375 0 16.5 0 
L 28.296875 0 
C 30.09375 0 32.203125 0 34 0 
C 34.703125 0 35.90625 0 35.90625 1.796875 
C 35.90625 2.890625 35.203125 2.890625 33.5 2.890625 
C 27.296875 2.890625 27.296875 3.59375 27.296875 4.6875 
C 27.296875 5.390625 28.09375 8.5625 28.59375 10.5625 
L 32.203125 24.90625 
C 32.796875 26.984375 32.796875 27.171875 33.703125 28.171875 
z
" id="CMMI12-89"/>
    </defs>
    <g transform="translate(76.040111 113.065056)scale(0.16 -0.16)">
     <use transform="scale(0.996264)" xlink:href="#CMMI12-89"/>
    </g>
   </g>
   <g id="text_2">
    <!-- $O$ -->
    <defs>
     <path d="M 72.59375 43.703125 
C 72.59375 60.125 61.796875 70.1875 47.796875 70.1875 
C 26.40625 70.1875 4.796875 47.28125 4.796875 24.28125 
C 4.796875 8.65625 15.203125 -2 29.703125 -2 
C 50.703125 -2 72.59375 19.8125 72.59375 43.703125 
z
M 30.296875 0.296875 
C 22.09375 0.296875 13.40625 6.265625 13.40625 21.796875 
C 13.40625 30.84375 16.703125 45.6875 24.90625 55.65625 
C 32.203125 64.421875 40.59375 68 47.296875 68 
C 56.09375 68 64.59375 61.625 64.59375 47.28125 
C 64.59375 38.421875 60.796875 24.578125 54.09375 15.125 
C 46.796875 4.96875 37.703125 0.296875 30.296875 0.296875 
z
" id="CMMI12-79"/>
    </defs>
    <g transform="translate(134.867946 113.065056)scale(0.16 -0.16)">
     <use transform="scale(0.996264)" xlink:href="#CMMI12-79"/>
    </g>
   </g>
  </g>
 </g>
 <defs>
  <clipPath id="p56cd06376b">
   <rect height="166.32" width="167.4" x="27" y="25.92"/>
  </clipPath>
 </defs>
</svg>
