<?xml version="1.0" encoding="utf-8" standalone="no"?>
<!DOCTYPE svg PUBLIC "-//W3C//DTD SVG 1.1//EN"
  "http://www.w3.org/Graphics/SVG/1.1/DTD/svg11.dtd">
<!-- Created with matplotlib (http://matplotlib.org/) -->
<svg height="504pt" version="1.1" viewBox="0 0 432 504" width="432pt" xmlns="http://www.w3.org/2000/svg" xmlns:xlink="http://www.w3.org/1999/xlink">
 <defs>
  <style type="text/css">
*{stroke-linecap:butt;stroke-linejoin:round;}
  </style>
 </defs>
 <g id="figure_1">
  <g id="patch_1">
   <path d="M 0 504 
L 432 504 
L 432 0 
L 0 0 
z
" style="fill:#ffffff;"/>
  </g>
  <g id="axes_1">
   <g id="patch_2">
    <path d="M 23.655677 480.344323 
L 417.7 480.344323 
L 417.7 14.3 
L 23.655677 14.3 
z
" style="fill:#ffffff;"/>
   </g>
   <g id="PathCollection_1">
    <defs>
     <path d="M 0 3.872983 
C 1.027127 3.872983 2.012324 3.464901 2.738613 2.738613 
C 3.464901 2.012324 3.872983 1.027127 3.872983 0 
C 3.872983 -1.027127 3.464901 -2.012324 2.738613 -2.738613 
C 2.012324 -3.464901 1.027127 -3.872983 0 -3.872983 
C -1.027127 -3.872983 -2.012324 -3.464901 -2.738613 -2.738613 
C -3.464901 -2.012324 -3.872983 -1.027127 -3.872983 0 
C -3.872983 1.027127 -3.464901 2.012324 -2.738613 2.738613 
C -2.012324 3.464901 -1.027127 3.872983 0 3.872983 
z
" id="m4bbba5fc65" style="stroke:#1f77b4;"/>
    </defs>
    <g clip-path="url(#p2b3528865b)">
     <use style="fill:#1f77b4;stroke:#1f77b4;" x="220.677838" xlink:href="#m4bbba5fc65" y="247.322162"/>
    </g>
   </g>
   <g id="patch_3">
    <path clip-path="url(#p2b3528865b)" d="M 220.677838 247.322162 
Q 220.677838 247.322162 220.677838 247.322162 
L 220.677838 247.322162 
Q 220.677838 247.322162 220.677838 247.322162 
Q 220.677838 247.322162 220.677838 247.322162 
L 220.677838 247.322162 
Q 220.677838 247.322162 220.677838 247.322162 
L 220.677838 247.322162 
z
" style="fill:#1f77b4;stroke:#000000;stroke-linecap:round;"/>
   </g>
   <g id="matplotlib.axis_1">
    <g id="text_1">
     <!-- $O$ -->
     <defs>
      <path d="M 72.59375 43.703125 
C 72.59375 60.125 61.796875 70.1875 47.796875 70.1875 
C 26.40625 70.1875 4.796875 47.28125 4.796875 24.28125 
C 4.796875 8.65625 15.203125 -2 29.703125 -2 
C 50.703125 -2 72.59375 19.8125 72.59375 43.703125 
z
M 30.296875 0.296875 
C 22.09375 0.296875 13.40625 6.265625 13.40625 21.796875 
C 13.40625 30.84375 16.703125 45.6875 24.90625 55.65625 
C 32.203125 64.421875 40.59375 68 47.296875 68 
C 56.09375 68 64.59375 61.625 64.59375 47.28125 
C 64.59375 38.421875 60.796875 24.578125 54.09375 15.125 
C 46.796875 4.96875 37.703125 0.296875 30.296875 0.296875 
z
" id="CMMI12-79"/>
     </defs>
     <g transform="translate(216.878206 491.262822)scale(0.1 -0.1)">
      <use transform="scale(0.996264)" xlink:href="#CMMI12-79"/>
     </g>
    </g>
   </g>
   <g id="matplotlib.axis_2">
    <g id="text_2">
     <!-- $Y$ -->
     <defs>
      <path d="M 58.796875 56.953125 
L 61.09375 59.234375 
C 65.5 63.71875 69.203125 64.828125 72.703125 65.109375 
C 73.796875 65.203125 74.703125 65.296875 74.703125 67 
C 74.703125 68 73.703125 68 73.5 68 
C 72.296875 68 71 68 69.796875 68 
L 65.703125 68 
C 62.796875 68 59.703125 68 56.90625 68 
C 56.203125 68 55.09375 68 55.09375 66.03125 
C 55.09375 65.09375 56.09375 65 56.40625 65 
C 59.40625 65 59.40625 63.5 59.40625 62.90625 
C 59.40625 61.8125 58.59375 60.3125 56.59375 58.015625 
L 32.796875 30.765625 
L 21.5 61.109375 
C 20.90625 62.5 20.90625 62.703125 20.90625 62.90625 
C 20.90625 65 25 65 26.203125 65 
C 27.40625 65 28.5 65 28.5 66.859375 
C 28.5 68 27.59375 68 27 68 
C 25.296875 68 23.296875 68 21.59375 68 
L 10.5 68 
C 8.703125 68 6.796875 68 5.09375 68 
C 4.40625 68 3.296875 68 3.296875 66.03125 
C 3.296875 65 4.203125 65 5.703125 65 
C 10.59375 65 11.5 64.09375 12.40625 61.8125 
L 24.796875 28.671875 
C 24.90625 28.375 25.203125 27.265625 25.203125 26.96875 
C 25.203125 26.671875 20.296875 7.0625 20 6.0625 
C 19.203125 3.390625 18.203125 2.890625 11.796875 2.890625 
C 10.09375 2.890625 9.296875 2.890625 9.296875 1 
C 9.296875 0 10.40625 0 10.703125 0 
C 12.5 0 14.59375 0 16.5 0 
L 28.296875 0 
C 30.09375 0 32.203125 0 34 0 
C 34.703125 0 35.90625 0 35.90625 1.796875 
C 35.90625 2.890625 35.203125 2.890625 33.5 2.890625 
C 27.296875 2.890625 27.296875 3.59375 27.296875 4.6875 
C 27.296875 5.390625 28.09375 8.5625 28.59375 10.5625 
L 32.203125 24.90625 
C 32.796875 26.984375 32.796875 27.171875 33.703125 28.171875 
z
" id="CMMI12-89"/>
     </defs>
     <g transform="translate(17.718498 250.214096)rotate(-90)scale(0.1 -0.1)">
      <use transform="scale(0.996264)" xlink:href="#CMMI12-89"/>
     </g>
    </g>
   </g>
   <g id="line2d_1">
    <path clip-path="url(#p2b3528865b)" d="M 220.677838 247.322162 
L 220.677838 247.322162 
" style="fill:none;stroke:#1f77b4;stroke-linecap:square;stroke-width:1.5;"/>
   </g>
   <g id="patch_4">
    <path d="M 23.655677 480.344323 
L 23.655677 14.3 
" style="fill:none;stroke:#000000;stroke-linecap:square;stroke-linejoin:miter;stroke-width:0.8;"/>
   </g>
   <g id="patch_5">
    <path d="M 417.7 480.344323 
L 417.7 14.3 
" style="fill:none;stroke:#000000;stroke-linecap:square;stroke-linejoin:miter;stroke-width:0.8;"/>
   </g>
   <g id="patch_6">
    <path d="M 23.655677 480.344323 
L 417.7 480.344323 
" style="fill:none;stroke:#000000;stroke-linecap:square;stroke-linejoin:miter;stroke-width:0.8;"/>
   </g>
   <g id="patch_7">
    <path d="M 23.655677 14.3 
L 417.7 14.3 
" style="fill:none;stroke:#000000;stroke-linecap:square;stroke-linejoin:miter;stroke-width:0.8;"/>
   </g>
  </g>
 </g>
 <defs>
  <clipPath id="p2b3528865b">
   <rect height="466.044323" width="394.044323" x="23.655677" y="14.3"/>
  </clipPath>
 </defs>
</svg>
