<?xml version="1.0" encoding="utf-8" standalone="no"?>
<!DOCTYPE svg PUBLIC "-//W3C//DTD SVG 1.1//EN"
  "http://www.w3.org/Graphics/SVG/1.1/DTD/svg11.dtd">
<!-- Created with matplotlib (http://matplotlib.org/) -->
<svg height="216pt" version="1.1" viewBox="0 0 216 216" width="216pt" xmlns="http://www.w3.org/2000/svg" xmlns:xlink="http://www.w3.org/1999/xlink">
 <defs>
  <style type="text/css">
*{stroke-linecap:butt;stroke-linejoin:round;}
  </style>
 </defs>
 <g id="figure_1">
  <g id="patch_1">
   <path d="M 0 216 
L 216 216 
L 216 0 
L 0 0 
z
" style="fill:none;"/>
  </g>
  <g id="axes_1">
   <g id="patch_2">
    <path clip-path="url(#p52334eb1cf)" d="M 73.872 128.09293 
C 78.94703 128.09293 83.814883 126.089607 87.403471 122.524171 
C 90.992059 118.958735 93.00839 114.122288 93.00839 109.08 
C 93.00839 104.037712 90.992059 99.201265 87.403471 95.635829 
C 83.814883 92.070393 78.94703 90.06707 73.872 90.06707 
C 68.79697 90.06707 63.929117 92.070393 60.340529 95.635829 
C 56.751941 99.201265 54.73561 104.037712 54.73561 109.08 
C 54.73561 114.122288 56.751941 118.958735 60.340529 122.524171 
C 63.929117 126.089607 68.79697 128.09293 73.872 128.09293 
z
" style="fill:#0000ff;opacity:0.3;stroke:#0000ff;stroke-linejoin:miter;"/>
   </g>
   <g id="patch_3">
    <path clip-path="url(#p52334eb1cf)" d="M 43.20327 90.187689 
Q 46.140896 92.554403 49.375649 94.400155 
L 50.490742 92.445912 
Q 52.547573 95.791453 55.41468 98.89981 
Q 51.20841 99.318556 46.773766 98.960057 
L 47.888859 97.005813 
Q 44.445655 95.041119 41.32114 92.523837 
L 43.20327 90.187689 
z
" style="fill:#0000ff;opacity:0.5;stroke:#0000ff;stroke-linecap:round;"/>
   </g>
   <g id="patch_4">
    <path clip-path="url(#p52334eb1cf)" d="M 55.945063 120.663294 
Q 52.419056 122.004285 49.192748 123.864761 
L 50.316736 125.813902 
Q 46.390451 125.900428 42.259848 126.806136 
Q 44.021869 122.963827 46.57011 119.316765 
L 47.694098 121.265906 
Q 51.128311 119.28554 54.878639 117.859236 
L 55.945063 120.663294 
z
" style="fill:#ff0000;opacity:0.5;stroke:#ff0000;stroke-linecap:round;"/>
   </g>
   <g id="patch_5">
    <path clip-path="url(#p52334eb1cf)" d="M 129.114 96.404714 
C 134.18903 96.404714 139.056883 94.401391 142.645471 90.835955 
C 146.234059 87.27052 148.25039 82.434072 148.25039 77.391784 
C 148.25039 72.349496 146.234059 67.513049 142.645471 63.947613 
C 139.056883 60.382177 134.18903 58.378855 129.114 58.378855 
C 124.03897 58.378855 119.171117 60.382177 115.582529 63.947613 
C 111.993941 67.513049 109.97761 72.349496 109.97761 77.391784 
C 109.97761 82.434072 111.993941 87.27052 115.582529 90.835955 
C 119.171117 94.401391 124.03897 96.404714 129.114 96.404714 
z
" style="fill:#0000ff;opacity:0.3;stroke:#0000ff;stroke-linejoin:miter;"/>
   </g>
   <g id="patch_6">
    <path clip-path="url(#p52334eb1cf)" d="M 160.904863 60.455684 
Q 157.378856 61.796675 154.152548 63.657151 
L 155.276536 65.606292 
Q 151.350251 65.692818 147.219648 66.598525 
Q 148.981669 62.756217 151.52991 59.109155 
L 152.653898 61.058296 
Q 156.088111 59.077929 159.838439 57.651626 
L 160.904863 60.455684 
z
" style="fill:#0000ff;opacity:0.5;stroke:#0000ff;stroke-linecap:round;"/>
   </g>
   <g id="patch_7">
    <path clip-path="url(#p52334eb1cf)" d="M 127.98611 56.171264 
Q 128.569641 52.48959 128.564603 48.809384 
L 126.314605 48.812463 
Q 128.196424 45.366936 129.466823 41.333696 
Q 131.922551 44.774091 133.814598 48.802198 
L 131.564601 48.805278 
Q 131.569964 52.723819 130.949123 56.64089 
L 127.98611 56.171264 
z
" style="fill:#0000ff;opacity:0.5;stroke:#0000ff;stroke-linecap:round;"/>
   </g>
   <g id="patch_8">
    <path clip-path="url(#p52334eb1cf)" d="M 129.114 159.781145 
C 134.18903 159.781145 139.056883 157.777823 142.645471 154.212387 
C 146.234059 150.646951 148.25039 145.810504 148.25039 140.768216 
C 148.25039 135.725928 146.234059 130.88948 142.645471 127.324045 
C 139.056883 123.758609 134.18903 121.755286 129.114 121.755286 
C 124.03897 121.755286 119.171117 123.758609 115.582529 127.324045 
C 111.993941 130.88948 109.97761 135.725928 109.97761 140.768216 
C 109.97761 145.810504 111.993941 150.646951 115.582529 154.212387 
C 119.171117 157.777823 124.03897 159.781145 129.114 159.781145 
z
" style="fill:#0000ff;opacity:0.3;stroke:#0000ff;stroke-linejoin:miter;"/>
   </g>
   <g id="patch_9">
    <path clip-path="url(#p52334eb1cf)" d="M 127.98611 176.586485 
Q 128.569641 172.90481 128.564603 169.224604 
L 126.314605 169.227684 
Q 128.196424 165.782157 129.466823 161.748917 
Q 131.922551 165.189311 133.814598 169.217418 
L 131.564601 169.220498 
Q 131.569964 173.139039 130.949123 177.056111 
L 127.98611 176.586485 
z
" style="fill:#0000ff;opacity:0.5;stroke:#0000ff;stroke-linecap:round;"/>
   </g>
   <g id="patch_10">
    <path clip-path="url(#p52334eb1cf)" d="M 148.16307 150.395299 
Q 151.100696 152.762013 154.335449 154.607766 
L 155.450542 152.653522 
Q 157.507373 155.999064 160.37448 159.107421 
Q 156.16821 159.526166 151.733566 159.167667 
L 152.848659 157.213424 
Q 149.405455 155.248729 146.28094 152.731448 
L 148.16307 150.395299 
z
" style="fill:#0000ff;opacity:0.5;stroke:#0000ff;stroke-linecap:round;"/>
   </g>
   <g id="text_1">
    <!-- $C_{L}$ -->
    <defs>
     <path d="M 74.703125 69.109375 
C 74.703125 70 74 70 73.796875 70 
C 73.59375 70 73.203125 70 72.40625 69 
L 65.5 60.65625 
C 62 66.625 56.5 70 49 70 
C 27.40625 70 5 48.25 5 24.921875 
C 5 8.328125 16.703125 -2 31.296875 -2 
C 39.296875 -2 46.296875 1.375 52.09375 6.25 
C 60.796875 13.484375 63.40625 23.140625 63.40625 23.921875 
C 63.40625 24.8125 62.59375 24.8125 62.296875 24.8125 
C 61.40625 24.8125 61.296875 24.21875 61.09375 23.8125 
C 56.5 8.34375 43 0.890625 33 0.890625 
C 22.40625 0.890625 13.203125 7.640625 13.203125 21.734375 
C 13.203125 24.921875 14.203125 42.1875 25.5 55.1875 
C 31 61.546875 40.40625 67.109375 49.90625 67.109375 
C 60.90625 67.109375 65.796875 58.078125 65.796875 47.9375 
C 65.796875 45.359375 65.5 43.1875 65.5 42.78125 
C 65.5 41.890625 66.5 41.890625 66.796875 41.890625 
C 67.90625 41.890625 68 41.984375 68.40625 43.765625 
z
" id="CMMI12-67"/>
     <path d="M 36.703125 60.328125 
C 37.59375 64.109375 37.90625 65.109375 46.703125 65.109375 
C 49.40625 65.109375 50.09375 65.109375 50.09375 67 
C 50.09375 68 49 68 48.59375 68 
C 46.59375 68 44.296875 68 42.296875 68 
L 28.90625 68 
C 27 68 24.796875 68 22.90625 68 
C 22.09375 68 21 68 21 66.109375 
C 21 65.109375 21.90625 65.109375 23.40625 65.109375 
C 29.5 65.109375 29.5 64.3125 29.5 63.21875 
C 29.5 63.03125 29.5 62.421875 29.09375 60.921875 
L 15.59375 7.375 
C 14.703125 3.890625 14.5 2.890625 7.5 2.890625 
C 5.59375 2.890625 4.59375 2.890625 4.59375 1.09375 
C 4.59375 0 5.203125 0 7.203125 0 
L 52 0 
C 54.203125 0 54.296875 0.09375 55 1.890625 
L 62.703125 23.09375 
C 62.90625 23.59375 63.09375 24.1875 63.09375 24.484375 
C 63.09375 25.078125 62.59375 25.484375 62.09375 25.484375 
C 62 25.484375 61.5 25.484375 61.296875 25.078125 
C 61.09375 24.984375 61.09375 24.78125 60.296875 22.890625 
C 57.09375 14.140625 52.59375 2.890625 35.703125 2.890625 
L 26.09375 2.890625 
C 24.703125 2.890625 24.5 2.890625 23.90625 3 
C 22.796875 3.09375 22.703125 3.296875 22.703125 4.09375 
C 22.703125 4.796875 22.90625 5.390625 23.09375 6.265625 
z
" id="CMMI12-76"/>
    </defs>
    <g transform="translate(64.491771 113.065056)scale(0.16 -0.16)">
     <use transform="translate(0 14.943915)scale(0.996264)" xlink:href="#CMMI12-67"/>
     <use transform="translate(69.792037 0)scale(0.697382)" xlink:href="#CMMI12-76"/>
    </g>
   </g>
   <g id="text_2">
    <!-- $C_{S}$ -->
    <defs>
     <path d="M 63.5 69.109375 
C 63.5 70 62.796875 70 62.59375 70 
C 62.203125 70 62.09375 69.90625 60.90625 68.40625 
C 60.296875 67.703125 56.203125 62.515625 56.09375 62.421875 
C 52.796875 68.90625 46.203125 70 42 70 
C 29.296875 70 17.796875 58.484375 17.796875 47.265625 
C 17.796875 39.828125 22.296875 35.453125 27.203125 33.765625 
C 28.296875 33.359375 34.203125 31.765625 37.203125 31.078125 
C 42.296875 29.6875 43.59375 29.296875 45.703125 27.109375 
C 46.09375 26.609375 48.09375 24.328125 48.09375 19.65625 
C 48.09375 10.421875 39.5 0.890625 29.5 0.890625 
C 21.296875 0.890625 12.203125 4.375 12.203125 15.484375 
C 12.203125 17.375 12.59375 19.765625 12.90625 20.75 
C 12.90625 21.0625 13 21.53125 13 21.734375 
C 13 22.140625 12.796875 22.640625 12 22.640625 
C 11.09375 22.640625 11 22.4375 10.59375 20.75 
L 5.5 0.375 
C 5.5 0.28125 5.09375 -1 5.09375 -1.109375 
C 5.09375 -2 5.90625 -2 6.09375 -2 
C 6.5 -2 6.59375 -1.90625 7.796875 -0.40625 
L 12.40625 5.5625 
C 14.796875 1.96875 20 -2 29.296875 -2 
C 42.203125 -2 54 10.40625 54 22.8125 
C 54 27 53 30.671875 49.203125 34.328125 
C 47.09375 36.421875 45.296875 36.921875 36.09375 39.3125 
C 29.40625 41.09375 28.5 41.390625 26.703125 42.984375 
C 25 44.65625 23.703125 47.046875 23.703125 50.421875 
C 23.703125 58.765625 32.203125 67.3125 41.703125 67.3125 
C 51.5 67.3125 56.09375 61.34375 56.09375 51.921875 
C 56.09375 49.34375 55.59375 46.65625 55.59375 46.265625 
C 55.59375 45.359375 56.40625 45.359375 56.703125 45.359375 
C 57.59375 45.359375 57.703125 45.65625 58.09375 47.25 
z
" id="CMMI12-83"/>
    </defs>
    <g transform="translate(120.109589 81.37684)scale(0.16 -0.16)">
     <use transform="translate(0 14.943915)scale(0.996264)" xlink:href="#CMMI12-67"/>
     <use transform="translate(69.792037 0)scale(0.697382)" xlink:href="#CMMI12-83"/>
    </g>
   </g>
   <g id="text_3">
    <!-- $C_{R}$ -->
    <defs>
     <path d="M 36.796875 61.3125 
C 37.703125 65 38.09375 65 42 65 
L 49.203125 65 
C 57.796875 65 64.203125 62.421875 64.203125 54.671875 
C 64.203125 49.609375 61.59375 35 41.5 35 
L 30.203125 35 
z
M 50.703125 33.890625 
C 63.09375 36.578125 72.796875 44.546875 72.796875 53.09375 
C 72.796875 60.84375 64.90625 68 51 68 
L 23.90625 68 
C 21.90625 68 21 68 21 66.03125 
C 21 65 21.703125 65 23.59375 65 
C 29.59375 65 29.59375 64.25 29.59375 63.203125 
C 29.59375 63.015625 29.59375 62.40625 29.203125 60.921875 
L 15.703125 7.484375 
C 14.796875 4 14.59375 3 7.703125 3 
C 5.40625 3 4.703125 3 4.703125 1.109375 
C 4.703125 0.109375 5.796875 0.109375 6.09375 0.109375 
C 7.90625 0.109375 10 0.109375 11.90625 0.109375 
L 23.703125 0.109375 
C 25.5 0.109375 27.59375 0.109375 29.40625 0.109375 
C 30.203125 0.109375 31.296875 0.109375 31.296875 2 
C 31.296875 3 30.40625 3 28.90625 3 
C 22.796875 3 22.796875 3.796875 22.796875 4.78125 
C 22.796875 4.890625 22.796875 5.578125 23 6.359375 
L 29.703125 33 
L 41.703125 33 
C 51.203125 33 53 27.046875 53 23.78125 
C 53 22.296875 52 18.421875 51.296875 15.84375 
C 50.203125 11.296875 49.90625 10.1875 49.90625 8.3125 
C 49.90625 1.28125 55.703125 -2 62.40625 -2 
C 70.5 -2 74 7.828125 74 9.234375 
C 74 9.921875 73.5 10.21875 72.90625 10.21875 
C 72.09375 10.21875 71.90625 9.625 71.703125 8.828125 
C 69.296875 1.78125 65.203125 0 62.703125 0 
C 60.203125 0 58.59375 1.09375 58.59375 5.5625 
C 58.59375 7.953125 59.796875 17 59.90625 17.5 
C 60.40625 21.171875 60.40625 21.5625 60.40625 22.375 
C 60.40625 29.625 54.5 32.703125 50.703125 33.890625 
" id="CMMI12-82"/>
    </defs>
    <g transform="translate(119.294523 144.753272)scale(0.16 -0.16)">
     <use transform="translate(0 14.943915)scale(0.996264)" xlink:href="#CMMI12-67"/>
     <use transform="translate(69.792037 0)scale(0.697382)" xlink:href="#CMMI12-82"/>
    </g>
   </g>
  </g>
 </g>
 <defs>
  <clipPath id="p52334eb1cf">
   <rect height="166.32" width="167.4" x="27" y="25.92"/>
  </clipPath>
 </defs>
</svg>
