<?xml version="1.0" encoding="utf-8" standalone="no"?>
<!DOCTYPE svg PUBLIC "-//W3C//DTD SVG 1.1//EN"
  "http://www.w3.org/Graphics/SVG/1.1/DTD/svg11.dtd">
<!-- Created with matplotlib (https://matplotlib.org/) -->
<svg height="725.04pt" version="1.1" viewBox="0 0 504 725.04" width="504pt" xmlns="http://www.w3.org/2000/svg" xmlns:xlink="http://www.w3.org/1999/xlink">
 <defs>
  <style type="text/css">
*{stroke-linecap:butt;stroke-linejoin:round;}
  </style>
 </defs>
 <g id="figure_1">
  <g id="patch_1">
   <path d="M 0 725.04 
L 504 725.04 
L 504 0 
L 0 0 
z
" style="fill:#ffffff;"/>
  </g>
  <g id="axes_1">
   <g id="patch_2">
    <path d="M 100.8 493.0272 
L 453.6 493.0272 
L 453.6 58.0032 
L 100.8 58.0032 
z
" style="fill:#ffffff;"/>
   </g>
   <g id="PathCollection_1">
    <defs>
     <path d="M -3.535534 3.535534 
L 3.535534 -3.535534 
M -3.535534 -3.535534 
L 3.535534 3.535534 
" id="m0e15dfe92c" style="stroke:#a05837;stroke-opacity:0.9;stroke-width:1.5;"/>
    </defs>
    <g clip-path="url(#p031de76e2d)">
     <use style="fill:#a05837;fill-opacity:0.9;stroke:#a05837;stroke-opacity:0.9;stroke-width:1.5;" x="337.332428" xlink:href="#m0e15dfe92c" y="166.7592"/>
    </g>
   </g>
   <g id="PathCollection_2">
    <defs>
     <path d="M 0 -3.535534 
L -3.061862 -1.767767 
L -3.061862 1.767767 
L -0 3.535534 
L 3.061862 1.767767 
L 3.061862 -1.767767 
z
" id="mcb0bbd782b" style="stroke:#a1c299;stroke-opacity:0.9;"/>
    </defs>
    <g clip-path="url(#p031de76e2d)">
     <use style="fill:#a1c299;fill-opacity:0.9;stroke:#a1c299;stroke-opacity:0.9;" x="227.377408" xlink:href="#mcb0bbd782b" y="384.2712"/>
    </g>
   </g>
   <g id="PathCollection_3">
    <defs>
     <path d="M -0 3.535534 
L 3.535534 -3.535534 
L -3.535534 -3.535534 
z
" id="mc18bf477fb" style="stroke:#6b002c;stroke-opacity:0.9;"/>
    </defs>
    <g clip-path="url(#p031de76e2d)">
     <use style="fill:#6b002c;fill-opacity:0.9;stroke:#6b002c;stroke-opacity:0.9;" x="221.652732" xlink:href="#mc18bf477fb" y="384.2712"/>
    </g>
   </g>
   <g id="PathCollection_4">
    <defs>
     <path d="M -1.35299 -3.266407 
L -3.266407 -1.35299 
L -3.266407 1.35299 
L -1.35299 3.266407 
L 1.35299 3.266407 
L 3.266407 1.35299 
L 3.266407 -1.35299 
L 1.35299 -3.266407 
z
" id="m42bfbcae09" style="stroke:#300018;stroke-opacity:0.9;"/>
    </defs>
    <g clip-path="url(#p031de76e2d)">
     <use style="fill:#300018;fill-opacity:0.9;stroke:#300018;stroke-opacity:0.9;" x="229.002261" xlink:href="#m42bfbcae09" y="384.2712"/>
    </g>
   </g>
   <g id="PathCollection_5">
    <defs>
     <path d="M 0 0 
L 0 -3.535534 
M 0 0 
L -2.828427 1.767767 
M 0 0 
L 2.828427 1.767767 
" id="m5499afa97c" style="stroke:#772600;stroke-opacity:0.9;stroke-width:1.5;"/>
    </defs>
    <g clip-path="url(#p031de76e2d)">
     <use style="fill:#772600;fill-opacity:0.9;stroke:#772600;stroke-opacity:0.9;stroke-width:1.5;" x="220.871129" xlink:href="#m5499afa97c" y="166.7592"/>
    </g>
   </g>
   <g id="PathCollection_6">
    <defs>
     <path d="M -1.767767 -3.061862 
L -3.535534 -0 
L -1.767767 3.061862 
L 1.767767 3.061862 
L 3.535534 0 
L 1.767767 -3.061862 
z
" id="m1b0e2ab293" style="stroke:#0aa6d8;stroke-opacity:0.9;"/>
    </defs>
    <g clip-path="url(#p031de76e2d)">
     <use style="fill:#0aa6d8;fill-opacity:0.9;stroke:#0aa6d8;stroke-opacity:0.9;" x="225.052732" xlink:href="#m1b0e2ab293" y="384.2712"/>
    </g>
   </g>
   <g id="PathCollection_7">
    <defs>
     <path d="M 0 -3.535534 
L -3.535534 3.535534 
L 3.535534 3.535534 
z
" id="m55e4088ca5" style="stroke:#d790ff;stroke-opacity:0.9;"/>
    </defs>
    <g clip-path="url(#p031de76e2d)">
     <use style="fill:#d790ff;fill-opacity:0.9;stroke:#d790ff;stroke-opacity:0.9;" x="220.442031" xlink:href="#m55e4088ca5" y="384.2712"/>
    </g>
   </g>
   <g id="PathCollection_8">
    <defs>
     <path d="M -0 5 
L 3 0 
L 0 -5 
L -3 -0 
z
" id="m922eda6ba8" style="stroke:#013349;stroke-opacity:0.9;"/>
    </defs>
    <g clip-path="url(#p031de76e2d)">
     <use style="fill:#013349;fill-opacity:0.9;stroke:#013349;stroke-opacity:0.9;" x="229.314433" xlink:href="#m922eda6ba8" y="166.7592"/>
    </g>
   </g>
   <g id="PathCollection_9">
    <defs>
     <path d="M 0 0 
L -3.535534 -0 
M 0 0 
L 1.767767 2.828427 
M 0 0 
L 1.767767 -2.828427 
" id="mb29058f100" style="stroke:#9b9700;stroke-opacity:0.9;stroke-width:1.5;"/>
    </defs>
    <g clip-path="url(#p031de76e2d)">
     <use style="fill:#9b9700;fill-opacity:0.9;stroke:#9b9700;stroke-opacity:0.9;stroke-width:1.5;" x="337.191737" xlink:href="#mb29058f100" y="166.7592"/>
    </g>
   </g>
   <g id="PathCollection_10">
    <defs>
     <path d="M 0 1.767767 
C 0.468817 1.767767 0.918496 1.581504 1.25 1.25 
C 1.581504 0.918496 1.767767 0.468817 1.767767 0 
C 1.767767 -0.468817 1.581504 -0.918496 1.25 -1.25 
C 0.918496 -1.581504 0.468817 -1.767767 0 -1.767767 
C -0.468817 -1.767767 -0.918496 -1.581504 -1.25 -1.25 
C -1.581504 -0.918496 -1.767767 -0.468817 -1.767767 0 
C -1.767767 0.468817 -1.581504 0.918496 -1.25 1.25 
C -0.918496 1.581504 -0.468817 1.767767 0 1.767767 
z
" id="mf0773596df" style="stroke:#00846f;stroke-opacity:0.9;"/>
    </defs>
    <g clip-path="url(#p031de76e2d)">
     <use style="fill:#00846f;fill-opacity:0.9;stroke:#00846f;stroke-opacity:0.9;" x="339.935035" xlink:href="#mf0773596df" y="166.7592"/>
    </g>
   </g>
   <g id="PathCollection_11">
    <defs>
     <path d="M 0 0 
L 3.535534 0 
M 0 0 
L -1.767767 -2.828427 
M 0 0 
L -1.767767 2.828427 
" id="ma4ce42c185" style="stroke:#549e79;stroke-opacity:0.9;stroke-width:1.5;"/>
    </defs>
    <g clip-path="url(#p031de76e2d)">
     <use style="fill:#549e79;fill-opacity:0.9;stroke:#549e79;stroke-opacity:0.9;stroke-width:1.5;" x="337.407061" xlink:href="#ma4ce42c185" y="166.7592"/>
    </g>
   </g>
   <g id="PathCollection_12">
    <defs>
     <path d="M 0 3.535534 
L 0 -3.535534 
" id="m6e05548a3a" style="stroke:#372101;stroke-opacity:0.9;stroke-width:1.5;"/>
    </defs>
    <g clip-path="url(#p031de76e2d)">
     <use style="fill:#372101;fill-opacity:0.9;stroke:#372101;stroke-opacity:0.9;stroke-width:1.5;" x="225.889419" xlink:href="#m6e05548a3a" y="384.2712"/>
    </g>
   </g>
   <g id="PathCollection_13">
    <defs>
     <path d="M 0 0 
L 0 3.535534 
M 0 0 
L 2.828427 -1.767767 
M 0 0 
L -2.828427 -1.767767 
" id="me84102eaa4" style="stroke:#72418f;stroke-opacity:0.9;stroke-width:1.5;"/>
    </defs>
    <g clip-path="url(#p031de76e2d)">
     <use style="fill:#72418f;fill-opacity:0.9;stroke:#72418f;stroke-opacity:0.9;stroke-width:1.5;" x="337.328084" xlink:href="#me84102eaa4" y="384.2712"/>
    </g>
   </g>
   <g id="PathCollection_14">
    <defs>
     <path d="M 3.535534 0 
L -3.535534 -0 
" id="mf245fa978d" style="stroke:#ffb500;stroke-opacity:0.9;stroke-width:1.5;"/>
    </defs>
    <g clip-path="url(#p031de76e2d)">
     <use style="fill:#ffb500;fill-opacity:0.9;stroke:#ffb500;stroke-opacity:0.9;stroke-width:1.5;" x="224.77276" xlink:href="#mf245fa978d" y="384.2712"/>
    </g>
   </g>
   <g id="PathCollection_15">
    <defs>
     <path d="M -3.535534 3.535534 
L 3.535534 3.535534 
L 3.535534 -3.535534 
L -3.535534 -3.535534 
z
" id="m027a0d2112" style="stroke:#201625;stroke-opacity:0.9;"/>
    </defs>
    <g clip-path="url(#p031de76e2d)">
     <use style="fill:#201625;fill-opacity:0.9;stroke:#201625;stroke-opacity:0.9;" x="342.855647" xlink:href="#m027a0d2112" y="166.7592"/>
    </g>
   </g>
   <g id="PathCollection_16">
    <defs>
     <path d="M 0 -3.535534 
L -3.362493 -1.09254 
L -2.078135 2.860307 
L 2.078135 2.860307 
L 3.362493 -1.09254 
z
" id="mca0cf5946a" style="stroke:#c2ffed;stroke-opacity:0.9;"/>
    </defs>
    <g clip-path="url(#p031de76e2d)">
     <use style="fill:#c2ffed;fill-opacity:0.9;stroke:#c2ffed;stroke-opacity:0.9;" x="340.017932" xlink:href="#mca0cf5946a" y="166.7592"/>
    </g>
   </g>
   <g id="PathCollection_17">
    <g clip-path="url(#p031de76e2d)">
     <use style="fill:#72418f;fill-opacity:0.9;stroke:#72418f;stroke-opacity:0.9;stroke-width:1.5;" x="228.200875" xlink:href="#me84102eaa4" y="166.7592"/>
    </g>
   </g>
   <g id="PathCollection_18">
    <defs>
     <path d="M -0 5 
L 5 0 
L 0 -5 
L -5 -0 
z
" id="m055a20997c" style="stroke:#a079bf;stroke-opacity:0.9;"/>
    </defs>
    <g clip-path="url(#p031de76e2d)">
     <use style="fill:#a079bf;fill-opacity:0.9;stroke:#a079bf;stroke-opacity:0.9;" x="343.989469" xlink:href="#m055a20997c" y="166.7592"/>
    </g>
   </g>
   <g id="PathCollection_19">
    <defs>
     <path d="M 0 -3.535534 
L -3.061862 -1.767767 
L -3.061862 1.767767 
L -0 3.535534 
L 3.061862 1.767767 
L 3.061862 -1.767767 
z
" id="me9ac801655" style="stroke:#bc23ff;stroke-opacity:0.9;"/>
    </defs>
    <g clip-path="url(#p031de76e2d)">
     <use style="fill:#bc23ff;fill-opacity:0.9;stroke:#bc23ff;stroke-opacity:0.9;" x="339.995538" xlink:href="#me9ac801655" y="166.7592"/>
    </g>
   </g>
   <g id="matplotlib.axis_1">
    <g id="xtick_1">
     <g id="line2d_1">
      <defs>
       <path d="M 0 0 
L 0 3.5 
" id="m93044c86cb" style="stroke:#000000;stroke-width:0.8;"/>
      </defs>
      <g>
       <use style="stroke:#000000;stroke-width:0.8;" x="218.4" xlink:href="#m93044c86cb" y="493.0272"/>
      </g>
     </g>
     <g id="text_1">
      <!-- fixed -->
      <defs>
       <path d="M 37.109375 75.984375 
L 37.109375 68.5 
L 28.515625 68.5 
Q 23.6875 68.5 21.796875 66.546875 
Q 19.921875 64.59375 19.921875 59.515625 
L 19.921875 54.6875 
L 34.71875 54.6875 
L 34.71875 47.703125 
L 19.921875 47.703125 
L 19.921875 0 
L 10.890625 0 
L 10.890625 47.703125 
L 2.296875 47.703125 
L 2.296875 54.6875 
L 10.890625 54.6875 
L 10.890625 58.5 
Q 10.890625 67.625 15.140625 71.796875 
Q 19.390625 75.984375 28.609375 75.984375 
z
" id="DejaVuSans-102"/>
       <path d="M 9.421875 54.6875 
L 18.40625 54.6875 
L 18.40625 0 
L 9.421875 0 
z
M 9.421875 75.984375 
L 18.40625 75.984375 
L 18.40625 64.59375 
L 9.421875 64.59375 
z
" id="DejaVuSans-105"/>
       <path d="M 54.890625 54.6875 
L 35.109375 28.078125 
L 55.90625 0 
L 45.3125 0 
L 29.390625 21.484375 
L 13.484375 0 
L 2.875 0 
L 24.125 28.609375 
L 4.6875 54.6875 
L 15.28125 54.6875 
L 29.78125 35.203125 
L 44.28125 54.6875 
z
" id="DejaVuSans-120"/>
       <path d="M 56.203125 29.59375 
L 56.203125 25.203125 
L 14.890625 25.203125 
Q 15.484375 15.921875 20.484375 11.0625 
Q 25.484375 6.203125 34.421875 6.203125 
Q 39.59375 6.203125 44.453125 7.46875 
Q 49.3125 8.734375 54.109375 11.28125 
L 54.109375 2.78125 
Q 49.265625 0.734375 44.1875 -0.34375 
Q 39.109375 -1.421875 33.890625 -1.421875 
Q 20.796875 -1.421875 13.15625 6.1875 
Q 5.515625 13.8125 5.515625 26.8125 
Q 5.515625 40.234375 12.765625 48.109375 
Q 20.015625 56 32.328125 56 
Q 43.359375 56 49.78125 48.890625 
Q 56.203125 41.796875 56.203125 29.59375 
z
M 47.21875 32.234375 
Q 47.125 39.59375 43.09375 43.984375 
Q 39.0625 48.390625 32.421875 48.390625 
Q 24.90625 48.390625 20.390625 44.140625 
Q 15.875 39.890625 15.1875 32.171875 
z
" id="DejaVuSans-101"/>
       <path d="M 45.40625 46.390625 
L 45.40625 75.984375 
L 54.390625 75.984375 
L 54.390625 0 
L 45.40625 0 
L 45.40625 8.203125 
Q 42.578125 3.328125 38.25 0.953125 
Q 33.9375 -1.421875 27.875 -1.421875 
Q 17.96875 -1.421875 11.734375 6.484375 
Q 5.515625 14.40625 5.515625 27.296875 
Q 5.515625 40.1875 11.734375 48.09375 
Q 17.96875 56 27.875 56 
Q 33.9375 56 38.25 53.625 
Q 42.578125 51.265625 45.40625 46.390625 
z
M 14.796875 27.296875 
Q 14.796875 17.390625 18.875 11.75 
Q 22.953125 6.109375 30.078125 6.109375 
Q 37.203125 6.109375 41.296875 11.75 
Q 45.40625 17.390625 45.40625 27.296875 
Q 45.40625 37.203125 41.296875 42.84375 
Q 37.203125 48.484375 30.078125 48.484375 
Q 22.953125 48.484375 18.875 42.84375 
Q 14.796875 37.203125 14.796875 27.296875 
z
" id="DejaVuSans-100"/>
      </defs>
      <g transform="translate(196.434375 513.704388)scale(0.18 -0.18)">
       <use xlink:href="#DejaVuSans-102"/>
       <use x="35.205078" xlink:href="#DejaVuSans-105"/>
       <use x="62.988281" xlink:href="#DejaVuSans-120"/>
       <use x="119.042969" xlink:href="#DejaVuSans-101"/>
       <use x="180.566406" xlink:href="#DejaVuSans-100"/>
      </g>
     </g>
    </g>
    <g id="xtick_2">
     <g id="line2d_2">
      <g>
       <use style="stroke:#000000;stroke-width:0.8;" x="336" xlink:href="#m93044c86cb" y="493.0272"/>
      </g>
     </g>
     <g id="text_2">
      <!-- dynamic -->
      <defs>
       <path d="M 32.171875 -5.078125 
Q 28.375 -14.84375 24.75 -17.8125 
Q 21.140625 -20.796875 15.09375 -20.796875 
L 7.90625 -20.796875 
L 7.90625 -13.28125 
L 13.1875 -13.28125 
Q 16.890625 -13.28125 18.9375 -11.515625 
Q 21 -9.765625 23.484375 -3.21875 
L 25.09375 0.875 
L 2.984375 54.6875 
L 12.5 54.6875 
L 29.59375 11.921875 
L 46.6875 54.6875 
L 56.203125 54.6875 
z
" id="DejaVuSans-121"/>
       <path d="M 54.890625 33.015625 
L 54.890625 0 
L 45.90625 0 
L 45.90625 32.71875 
Q 45.90625 40.484375 42.875 44.328125 
Q 39.84375 48.1875 33.796875 48.1875 
Q 26.515625 48.1875 22.3125 43.546875 
Q 18.109375 38.921875 18.109375 30.90625 
L 18.109375 0 
L 9.078125 0 
L 9.078125 54.6875 
L 18.109375 54.6875 
L 18.109375 46.1875 
Q 21.34375 51.125 25.703125 53.5625 
Q 30.078125 56 35.796875 56 
Q 45.21875 56 50.046875 50.171875 
Q 54.890625 44.34375 54.890625 33.015625 
z
" id="DejaVuSans-110"/>
       <path d="M 34.28125 27.484375 
Q 23.390625 27.484375 19.1875 25 
Q 14.984375 22.515625 14.984375 16.5 
Q 14.984375 11.71875 18.140625 8.90625 
Q 21.296875 6.109375 26.703125 6.109375 
Q 34.1875 6.109375 38.703125 11.40625 
Q 43.21875 16.703125 43.21875 25.484375 
L 43.21875 27.484375 
z
M 52.203125 31.203125 
L 52.203125 0 
L 43.21875 0 
L 43.21875 8.296875 
Q 40.140625 3.328125 35.546875 0.953125 
Q 30.953125 -1.421875 24.3125 -1.421875 
Q 15.921875 -1.421875 10.953125 3.296875 
Q 6 8.015625 6 15.921875 
Q 6 25.140625 12.171875 29.828125 
Q 18.359375 34.515625 30.609375 34.515625 
L 43.21875 34.515625 
L 43.21875 35.40625 
Q 43.21875 41.609375 39.140625 45 
Q 35.0625 48.390625 27.6875 48.390625 
Q 23 48.390625 18.546875 47.265625 
Q 14.109375 46.140625 10.015625 43.890625 
L 10.015625 52.203125 
Q 14.9375 54.109375 19.578125 55.046875 
Q 24.21875 56 28.609375 56 
Q 40.484375 56 46.34375 49.84375 
Q 52.203125 43.703125 52.203125 31.203125 
z
" id="DejaVuSans-97"/>
       <path d="M 52 44.1875 
Q 55.375 50.25 60.0625 53.125 
Q 64.75 56 71.09375 56 
Q 79.640625 56 84.28125 50.015625 
Q 88.921875 44.046875 88.921875 33.015625 
L 88.921875 0 
L 79.890625 0 
L 79.890625 32.71875 
Q 79.890625 40.578125 77.09375 44.375 
Q 74.3125 48.1875 68.609375 48.1875 
Q 61.625 48.1875 57.5625 43.546875 
Q 53.515625 38.921875 53.515625 30.90625 
L 53.515625 0 
L 44.484375 0 
L 44.484375 32.71875 
Q 44.484375 40.625 41.703125 44.40625 
Q 38.921875 48.1875 33.109375 48.1875 
Q 26.21875 48.1875 22.15625 43.53125 
Q 18.109375 38.875 18.109375 30.90625 
L 18.109375 0 
L 9.078125 0 
L 9.078125 54.6875 
L 18.109375 54.6875 
L 18.109375 46.1875 
Q 21.1875 51.21875 25.484375 53.609375 
Q 29.78125 56 35.6875 56 
Q 41.65625 56 45.828125 52.96875 
Q 50 49.953125 52 44.1875 
z
" id="DejaVuSans-109"/>
       <path d="M 48.78125 52.59375 
L 48.78125 44.1875 
Q 44.96875 46.296875 41.140625 47.34375 
Q 37.3125 48.390625 33.40625 48.390625 
Q 24.65625 48.390625 19.8125 42.84375 
Q 14.984375 37.3125 14.984375 27.296875 
Q 14.984375 17.28125 19.8125 11.734375 
Q 24.65625 6.203125 33.40625 6.203125 
Q 37.3125 6.203125 41.140625 7.25 
Q 44.96875 8.296875 48.78125 10.40625 
L 48.78125 2.09375 
Q 45.015625 0.34375 40.984375 -0.53125 
Q 36.96875 -1.421875 32.421875 -1.421875 
Q 20.0625 -1.421875 12.78125 6.34375 
Q 5.515625 14.109375 5.515625 27.296875 
Q 5.515625 40.671875 12.859375 48.328125 
Q 20.21875 56 33.015625 56 
Q 37.15625 56 41.109375 55.140625 
Q 45.0625 54.296875 48.78125 52.59375 
z
" id="DejaVuSans-99"/>
      </defs>
      <g transform="translate(297.525 513.704388)scale(0.18 -0.18)">
       <use xlink:href="#DejaVuSans-100"/>
       <use x="63.476562" xlink:href="#DejaVuSans-121"/>
       <use x="122.65625" xlink:href="#DejaVuSans-110"/>
       <use x="186.035156" xlink:href="#DejaVuSans-97"/>
       <use x="247.314453" xlink:href="#DejaVuSans-109"/>
       <use x="344.726562" xlink:href="#DejaVuSans-105"/>
       <use x="372.509766" xlink:href="#DejaVuSans-99"/>
      </g>
     </g>
    </g>
    <g id="text_3">
     <!-- Partitioning scheme -->
     <defs>
      <path d="M 19.671875 64.796875 
L 19.671875 37.40625 
L 32.078125 37.40625 
Q 38.96875 37.40625 42.71875 40.96875 
Q 46.484375 44.53125 46.484375 51.125 
Q 46.484375 57.671875 42.71875 61.234375 
Q 38.96875 64.796875 32.078125 64.796875 
z
M 9.8125 72.90625 
L 32.078125 72.90625 
Q 44.34375 72.90625 50.609375 67.359375 
Q 56.890625 61.8125 56.890625 51.125 
Q 56.890625 40.328125 50.609375 34.8125 
Q 44.34375 29.296875 32.078125 29.296875 
L 19.671875 29.296875 
L 19.671875 0 
L 9.8125 0 
z
" id="DejaVuSans-80"/>
      <path d="M 41.109375 46.296875 
Q 39.59375 47.171875 37.8125 47.578125 
Q 36.03125 48 33.890625 48 
Q 26.265625 48 22.1875 43.046875 
Q 18.109375 38.09375 18.109375 28.8125 
L 18.109375 0 
L 9.078125 0 
L 9.078125 54.6875 
L 18.109375 54.6875 
L 18.109375 46.1875 
Q 20.953125 51.171875 25.484375 53.578125 
Q 30.03125 56 36.53125 56 
Q 37.453125 56 38.578125 55.875 
Q 39.703125 55.765625 41.0625 55.515625 
z
" id="DejaVuSans-114"/>
      <path d="M 18.3125 70.21875 
L 18.3125 54.6875 
L 36.8125 54.6875 
L 36.8125 47.703125 
L 18.3125 47.703125 
L 18.3125 18.015625 
Q 18.3125 11.328125 20.140625 9.421875 
Q 21.96875 7.515625 27.59375 7.515625 
L 36.8125 7.515625 
L 36.8125 0 
L 27.59375 0 
Q 17.1875 0 13.234375 3.875 
Q 9.28125 7.765625 9.28125 18.015625 
L 9.28125 47.703125 
L 2.6875 47.703125 
L 2.6875 54.6875 
L 9.28125 54.6875 
L 9.28125 70.21875 
z
" id="DejaVuSans-116"/>
      <path d="M 30.609375 48.390625 
Q 23.390625 48.390625 19.1875 42.75 
Q 14.984375 37.109375 14.984375 27.296875 
Q 14.984375 17.484375 19.15625 11.84375 
Q 23.34375 6.203125 30.609375 6.203125 
Q 37.796875 6.203125 41.984375 11.859375 
Q 46.1875 17.53125 46.1875 27.296875 
Q 46.1875 37.015625 41.984375 42.703125 
Q 37.796875 48.390625 30.609375 48.390625 
z
M 30.609375 56 
Q 42.328125 56 49.015625 48.375 
Q 55.71875 40.765625 55.71875 27.296875 
Q 55.71875 13.875 49.015625 6.21875 
Q 42.328125 -1.421875 30.609375 -1.421875 
Q 18.84375 -1.421875 12.171875 6.21875 
Q 5.515625 13.875 5.515625 27.296875 
Q 5.515625 40.765625 12.171875 48.375 
Q 18.84375 56 30.609375 56 
z
" id="DejaVuSans-111"/>
      <path d="M 45.40625 27.984375 
Q 45.40625 37.75 41.375 43.109375 
Q 37.359375 48.484375 30.078125 48.484375 
Q 22.859375 48.484375 18.828125 43.109375 
Q 14.796875 37.75 14.796875 27.984375 
Q 14.796875 18.265625 18.828125 12.890625 
Q 22.859375 7.515625 30.078125 7.515625 
Q 37.359375 7.515625 41.375 12.890625 
Q 45.40625 18.265625 45.40625 27.984375 
z
M 54.390625 6.78125 
Q 54.390625 -7.171875 48.1875 -13.984375 
Q 42 -20.796875 29.203125 -20.796875 
Q 24.46875 -20.796875 20.265625 -20.09375 
Q 16.0625 -19.390625 12.109375 -17.921875 
L 12.109375 -9.1875 
Q 16.0625 -11.328125 19.921875 -12.34375 
Q 23.78125 -13.375 27.78125 -13.375 
Q 36.625 -13.375 41.015625 -8.765625 
Q 45.40625 -4.15625 45.40625 5.171875 
L 45.40625 9.625 
Q 42.625 4.78125 38.28125 2.390625 
Q 33.9375 0 27.875 0 
Q 17.828125 0 11.671875 7.65625 
Q 5.515625 15.328125 5.515625 27.984375 
Q 5.515625 40.671875 11.671875 48.328125 
Q 17.828125 56 27.875 56 
Q 33.9375 56 38.28125 53.609375 
Q 42.625 51.21875 45.40625 46.390625 
L 45.40625 54.6875 
L 54.390625 54.6875 
z
" id="DejaVuSans-103"/>
      <path id="DejaVuSans-32"/>
      <path d="M 44.28125 53.078125 
L 44.28125 44.578125 
Q 40.484375 46.53125 36.375 47.5 
Q 32.28125 48.484375 27.875 48.484375 
Q 21.1875 48.484375 17.84375 46.4375 
Q 14.5 44.390625 14.5 40.28125 
Q 14.5 37.15625 16.890625 35.375 
Q 19.28125 33.59375 26.515625 31.984375 
L 29.59375 31.296875 
Q 39.15625 29.25 43.1875 25.515625 
Q 47.21875 21.78125 47.21875 15.09375 
Q 47.21875 7.46875 41.1875 3.015625 
Q 35.15625 -1.421875 24.609375 -1.421875 
Q 20.21875 -1.421875 15.453125 -0.5625 
Q 10.6875 0.296875 5.421875 2 
L 5.421875 11.28125 
Q 10.40625 8.6875 15.234375 7.390625 
Q 20.0625 6.109375 24.8125 6.109375 
Q 31.15625 6.109375 34.5625 8.28125 
Q 37.984375 10.453125 37.984375 14.40625 
Q 37.984375 18.0625 35.515625 20.015625 
Q 33.0625 21.96875 24.703125 23.78125 
L 21.578125 24.515625 
Q 13.234375 26.265625 9.515625 29.90625 
Q 5.8125 33.546875 5.8125 39.890625 
Q 5.8125 47.609375 11.28125 51.796875 
Q 16.75 56 26.8125 56 
Q 31.78125 56 36.171875 55.265625 
Q 40.578125 54.546875 44.28125 53.078125 
z
" id="DejaVuSans-115"/>
      <path d="M 54.890625 33.015625 
L 54.890625 0 
L 45.90625 0 
L 45.90625 32.71875 
Q 45.90625 40.484375 42.875 44.328125 
Q 39.84375 48.1875 33.796875 48.1875 
Q 26.515625 48.1875 22.3125 43.546875 
Q 18.109375 38.921875 18.109375 30.90625 
L 18.109375 0 
L 9.078125 0 
L 9.078125 75.984375 
L 18.109375 75.984375 
L 18.109375 46.1875 
Q 21.34375 51.125 25.703125 53.5625 
Q 30.078125 56 35.796875 56 
Q 45.21875 56 50.046875 50.171875 
Q 54.890625 44.34375 54.890625 33.015625 
z
" id="DejaVuSans-104"/>
     </defs>
     <g transform="translate(187.734375 535.125013)scale(0.18 -0.18)">
      <use xlink:href="#DejaVuSans-80"/>
      <use x="55.802734" xlink:href="#DejaVuSans-97"/>
      <use x="117.082031" xlink:href="#DejaVuSans-114"/>
      <use x="158.195312" xlink:href="#DejaVuSans-116"/>
      <use x="197.404297" xlink:href="#DejaVuSans-105"/>
      <use x="225.1875" xlink:href="#DejaVuSans-116"/>
      <use x="264.396484" xlink:href="#DejaVuSans-105"/>
      <use x="292.179688" xlink:href="#DejaVuSans-111"/>
      <use x="353.361328" xlink:href="#DejaVuSans-110"/>
      <use x="416.740234" xlink:href="#DejaVuSans-105"/>
      <use x="444.523438" xlink:href="#DejaVuSans-110"/>
      <use x="507.902344" xlink:href="#DejaVuSans-103"/>
      <use x="571.378906" xlink:href="#DejaVuSans-32"/>
      <use x="603.166016" xlink:href="#DejaVuSans-115"/>
      <use x="655.265625" xlink:href="#DejaVuSans-99"/>
      <use x="710.246094" xlink:href="#DejaVuSans-104"/>
      <use x="773.625" xlink:href="#DejaVuSans-101"/>
      <use x="835.148438" xlink:href="#DejaVuSans-109"/>
      <use x="932.560547" xlink:href="#DejaVuSans-101"/>
     </g>
    </g>
   </g>
   <g id="matplotlib.axis_2">
    <g id="ytick_1">
     <g id="line2d_3">
      <defs>
       <path d="M 0 0 
L -3.5 0 
" id="md1055c95e0" style="stroke:#000000;stroke-width:0.8;"/>
      </defs>
      <g>
       <use style="stroke:#000000;stroke-width:0.8;" x="100.8" xlink:href="#md1055c95e0" y="384.2712"/>
      </g>
     </g>
     <g id="text_4">
      <!-- No -->
      <defs>
       <path d="M 9.8125 72.90625 
L 23.09375 72.90625 
L 55.421875 11.921875 
L 55.421875 72.90625 
L 64.984375 72.90625 
L 64.984375 0 
L 51.703125 0 
L 19.390625 60.984375 
L 19.390625 0 
L 9.8125 0 
z
" id="DejaVuSans-78"/>
      </defs>
      <g transform="translate(69.32 391.109794)scale(0.18 -0.18)">
       <use xlink:href="#DejaVuSans-78"/>
       <use x="74.804688" xlink:href="#DejaVuSans-111"/>
      </g>
     </g>
    </g>
    <g id="ytick_2">
     <g id="line2d_4">
      <g>
       <use style="stroke:#000000;stroke-width:0.8;" x="100.8" xlink:href="#md1055c95e0" y="166.7592"/>
      </g>
     </g>
     <g id="text_5">
      <!-- Yes -->
      <defs>
       <path d="M -0.203125 72.90625 
L 10.40625 72.90625 
L 30.609375 42.921875 
L 50.6875 72.90625 
L 61.28125 72.90625 
L 35.5 34.71875 
L 35.5 0 
L 25.59375 0 
L 25.59375 34.71875 
z
" id="DejaVuSans-89"/>
      </defs>
      <g transform="translate(64.738438 173.597794)scale(0.18 -0.18)">
       <use xlink:href="#DejaVuSans-89"/>
       <use x="47.833984" xlink:href="#DejaVuSans-101"/>
       <use x="109.357422" xlink:href="#DejaVuSans-115"/>
      </g>
     </g>
    </g>
    <g id="text_6">
     <!-- Claimed to have a  -->
     <defs>
      <path d="M 64.40625 67.28125 
L 64.40625 56.890625 
Q 59.421875 61.53125 53.78125 63.8125 
Q 48.140625 66.109375 41.796875 66.109375 
Q 29.296875 66.109375 22.65625 58.46875 
Q 16.015625 50.828125 16.015625 36.375 
Q 16.015625 21.96875 22.65625 14.328125 
Q 29.296875 6.6875 41.796875 6.6875 
Q 48.140625 6.6875 53.78125 8.984375 
Q 59.421875 11.28125 64.40625 15.921875 
L 64.40625 5.609375 
Q 59.234375 2.09375 53.4375 0.328125 
Q 47.65625 -1.421875 41.21875 -1.421875 
Q 24.65625 -1.421875 15.125 8.703125 
Q 5.609375 18.84375 5.609375 36.375 
Q 5.609375 53.953125 15.125 64.078125 
Q 24.65625 74.21875 41.21875 74.21875 
Q 47.75 74.21875 53.53125 72.484375 
Q 59.328125 70.75 64.40625 67.28125 
z
" id="DejaVuSans-67"/>
      <path d="M 9.421875 75.984375 
L 18.40625 75.984375 
L 18.40625 0 
L 9.421875 0 
z
" id="DejaVuSans-108"/>
      <path d="M 2.984375 54.6875 
L 12.5 54.6875 
L 29.59375 8.796875 
L 46.6875 54.6875 
L 56.203125 54.6875 
L 35.6875 0 
L 23.484375 0 
z
" id="DejaVuSans-118"/>
     </defs>
     <g transform="translate(36.838938 360.409106)rotate(-90)scale(0.18 -0.18)">
      <use xlink:href="#DejaVuSans-67"/>
      <use x="69.824219" xlink:href="#DejaVuSans-108"/>
      <use x="97.607422" xlink:href="#DejaVuSans-97"/>
      <use x="158.886719" xlink:href="#DejaVuSans-105"/>
      <use x="186.669922" xlink:href="#DejaVuSans-109"/>
      <use x="284.082031" xlink:href="#DejaVuSans-101"/>
      <use x="345.605469" xlink:href="#DejaVuSans-100"/>
      <use x="409.082031" xlink:href="#DejaVuSans-32"/>
      <use x="440.869141" xlink:href="#DejaVuSans-116"/>
      <use x="480.078125" xlink:href="#DejaVuSans-111"/>
      <use x="541.259766" xlink:href="#DejaVuSans-32"/>
      <use x="573.046875" xlink:href="#DejaVuSans-104"/>
      <use x="636.425781" xlink:href="#DejaVuSans-97"/>
      <use x="697.705078" xlink:href="#DejaVuSans-118"/>
      <use x="756.884766" xlink:href="#DejaVuSans-101"/>
      <use x="818.408203" xlink:href="#DejaVuSans-32"/>
      <use x="850.195312" xlink:href="#DejaVuSans-97"/>
      <use x="911.474609" xlink:href="#DejaVuSans-32"/>
     </g>
     <!--  dynamic partitioning scheme? -->
     <defs>
      <path d="M 18.109375 8.203125 
L 18.109375 -20.796875 
L 9.078125 -20.796875 
L 9.078125 54.6875 
L 18.109375 54.6875 
L 18.109375 46.390625 
Q 20.953125 51.265625 25.265625 53.625 
Q 29.59375 56 35.59375 56 
Q 45.5625 56 51.78125 48.09375 
Q 58.015625 40.1875 58.015625 27.296875 
Q 58.015625 14.40625 51.78125 6.484375 
Q 45.5625 -1.421875 35.59375 -1.421875 
Q 29.59375 -1.421875 25.265625 0.953125 
Q 20.953125 3.328125 18.109375 8.203125 
z
M 48.6875 27.296875 
Q 48.6875 37.203125 44.609375 42.84375 
Q 40.53125 48.484375 33.40625 48.484375 
Q 26.265625 48.484375 22.1875 42.84375 
Q 18.109375 37.203125 18.109375 27.296875 
Q 18.109375 17.390625 22.1875 11.75 
Q 26.265625 6.109375 33.40625 6.109375 
Q 40.53125 6.109375 44.609375 11.75 
Q 48.6875 17.390625 48.6875 27.296875 
z
" id="DejaVuSans-112"/>
      <path d="M 19.09375 12.40625 
L 29 12.40625 
L 29 0 
L 19.09375 0 
z
M 28.71875 19.578125 
L 19.390625 19.578125 
L 19.390625 27.09375 
Q 19.390625 32.03125 20.75 35.203125 
Q 22.125 38.375 26.515625 42.578125 
L 30.90625 46.921875 
Q 33.6875 49.515625 34.9375 51.8125 
Q 36.1875 54.109375 36.1875 56.5 
Q 36.1875 60.84375 32.984375 63.53125 
Q 29.78125 66.21875 24.515625 66.21875 
Q 20.65625 66.21875 16.28125 64.5 
Q 11.921875 62.796875 7.171875 59.515625 
L 7.171875 68.703125 
Q 11.765625 71.484375 16.46875 72.84375 
Q 21.1875 74.21875 26.21875 74.21875 
Q 35.203125 74.21875 40.640625 69.484375 
Q 46.09375 64.75 46.09375 56.984375 
Q 46.09375 53.265625 44.328125 49.921875 
Q 42.578125 46.578125 38.1875 42.390625 
L 33.890625 38.1875 
Q 31.59375 35.890625 30.640625 34.59375 
Q 29.6875 33.296875 29.296875 32.078125 
Q 29 31.0625 28.859375 29.59375 
Q 28.71875 28.125 28.71875 25.59375 
z
" id="DejaVuSans-63"/>
     </defs>
     <g transform="translate(56.995 414.645356)rotate(-90)scale(0.18 -0.18)">
      <use xlink:href="#DejaVuSans-32"/>
      <use x="31.787109" xlink:href="#DejaVuSans-100"/>
      <use x="95.263672" xlink:href="#DejaVuSans-121"/>
      <use x="154.443359" xlink:href="#DejaVuSans-110"/>
      <use x="217.822266" xlink:href="#DejaVuSans-97"/>
      <use x="279.101562" xlink:href="#DejaVuSans-109"/>
      <use x="376.513672" xlink:href="#DejaVuSans-105"/>
      <use x="404.296875" xlink:href="#DejaVuSans-99"/>
      <use x="459.277344" xlink:href="#DejaVuSans-32"/>
      <use x="491.064453" xlink:href="#DejaVuSans-112"/>
      <use x="554.541016" xlink:href="#DejaVuSans-97"/>
      <use x="615.820312" xlink:href="#DejaVuSans-114"/>
      <use x="656.933594" xlink:href="#DejaVuSans-116"/>
      <use x="696.142578" xlink:href="#DejaVuSans-105"/>
      <use x="723.925781" xlink:href="#DejaVuSans-116"/>
      <use x="763.134766" xlink:href="#DejaVuSans-105"/>
      <use x="790.917969" xlink:href="#DejaVuSans-111"/>
      <use x="852.099609" xlink:href="#DejaVuSans-110"/>
      <use x="915.478516" xlink:href="#DejaVuSans-105"/>
      <use x="943.261719" xlink:href="#DejaVuSans-110"/>
      <use x="1006.640625" xlink:href="#DejaVuSans-103"/>
      <use x="1070.117188" xlink:href="#DejaVuSans-32"/>
      <use x="1101.904297" xlink:href="#DejaVuSans-115"/>
      <use x="1154.003906" xlink:href="#DejaVuSans-99"/>
      <use x="1208.984375" xlink:href="#DejaVuSans-104"/>
      <use x="1272.363281" xlink:href="#DejaVuSans-101"/>
      <use x="1333.886719" xlink:href="#DejaVuSans-109"/>
      <use x="1431.298828" xlink:href="#DejaVuSans-101"/>
      <use x="1492.822266" xlink:href="#DejaVuSans-63"/>
     </g>
    </g>
   </g>
   <g id="patch_3">
    <path d="M 100.8 493.0272 
L 100.8 58.0032 
" style="fill:none;stroke:#000000;stroke-linecap:square;stroke-linejoin:miter;stroke-width:0.8;"/>
   </g>
   <g id="patch_4">
    <path d="M 453.6 493.0272 
L 453.6 58.0032 
" style="fill:none;stroke:#000000;stroke-linecap:square;stroke-linejoin:miter;stroke-width:0.8;"/>
   </g>
   <g id="patch_5">
    <path d="M 100.8 493.0272 
L 453.6 493.0272 
" style="fill:none;stroke:#000000;stroke-linecap:square;stroke-linejoin:miter;stroke-width:0.8;"/>
   </g>
   <g id="patch_6">
    <path d="M 100.8 58.0032 
L 453.6 58.0032 
" style="fill:none;stroke:#000000;stroke-linecap:square;stroke-linejoin:miter;stroke-width:0.8;"/>
   </g>
   <g id="legend_1">
    <g id="patch_7">
     <path d="M 100.40375 785.583616 
L 418.71625 785.583616 
Q 420.71625 785.583616 420.71625 783.583616 
L 420.71625 637.802366 
Q 420.71625 635.802366 418.71625 635.802366 
L 100.40375 635.802366 
Q 98.40375 635.802366 98.40375 637.802366 
L 98.40375 783.583616 
Q 98.40375 785.583616 100.40375 785.583616 
z
" style="fill:#ffffff;opacity:0.8;stroke:#cccccc;stroke-linejoin:miter;"/>
    </g>
    <g id="PathCollection_20">
     <g>
      <use style="fill:#a05837;fill-opacity:0.9;stroke:#a05837;stroke-opacity:0.9;stroke-width:1.5;" x="112.40375" xlink:href="#m0e15dfe92c" y="644.775803"/>
     </g>
    </g>
    <g id="text_7">
     <!-- Turgman2018EcologyLetters -->
     <defs>
      <path d="M -0.296875 72.90625 
L 61.375 72.90625 
L 61.375 64.59375 
L 35.5 64.59375 
L 35.5 0 
L 25.59375 0 
L 25.59375 64.59375 
L -0.296875 64.59375 
z
" id="DejaVuSans-84"/>
      <path d="M 8.5 21.578125 
L 8.5 54.6875 
L 17.484375 54.6875 
L 17.484375 21.921875 
Q 17.484375 14.15625 20.5 10.265625 
Q 23.53125 6.390625 29.59375 6.390625 
Q 36.859375 6.390625 41.078125 11.03125 
Q 45.3125 15.671875 45.3125 23.6875 
L 45.3125 54.6875 
L 54.296875 54.6875 
L 54.296875 0 
L 45.3125 0 
L 45.3125 8.40625 
Q 42.046875 3.421875 37.71875 1 
Q 33.40625 -1.421875 27.6875 -1.421875 
Q 18.265625 -1.421875 13.375 4.4375 
Q 8.5 10.296875 8.5 21.578125 
z
M 31.109375 56 
z
" id="DejaVuSans-117"/>
      <path d="M 19.1875 8.296875 
L 53.609375 8.296875 
L 53.609375 0 
L 7.328125 0 
L 7.328125 8.296875 
Q 12.9375 14.109375 22.625 23.890625 
Q 32.328125 33.6875 34.8125 36.53125 
Q 39.546875 41.84375 41.421875 45.53125 
Q 43.3125 49.21875 43.3125 52.78125 
Q 43.3125 58.59375 39.234375 62.25 
Q 35.15625 65.921875 28.609375 65.921875 
Q 23.96875 65.921875 18.8125 64.3125 
Q 13.671875 62.703125 7.8125 59.421875 
L 7.8125 69.390625 
Q 13.765625 71.78125 18.9375 73 
Q 24.125 74.21875 28.421875 74.21875 
Q 39.75 74.21875 46.484375 68.546875 
Q 53.21875 62.890625 53.21875 53.421875 
Q 53.21875 48.921875 51.53125 44.890625 
Q 49.859375 40.875 45.40625 35.40625 
Q 44.1875 33.984375 37.640625 27.21875 
Q 31.109375 20.453125 19.1875 8.296875 
z
" id="DejaVuSans-50"/>
      <path d="M 31.78125 66.40625 
Q 24.171875 66.40625 20.328125 58.90625 
Q 16.5 51.421875 16.5 36.375 
Q 16.5 21.390625 20.328125 13.890625 
Q 24.171875 6.390625 31.78125 6.390625 
Q 39.453125 6.390625 43.28125 13.890625 
Q 47.125 21.390625 47.125 36.375 
Q 47.125 51.421875 43.28125 58.90625 
Q 39.453125 66.40625 31.78125 66.40625 
z
M 31.78125 74.21875 
Q 44.046875 74.21875 50.515625 64.515625 
Q 56.984375 54.828125 56.984375 36.375 
Q 56.984375 17.96875 50.515625 8.265625 
Q 44.046875 -1.421875 31.78125 -1.421875 
Q 19.53125 -1.421875 13.0625 8.265625 
Q 6.59375 17.96875 6.59375 36.375 
Q 6.59375 54.828125 13.0625 64.515625 
Q 19.53125 74.21875 31.78125 74.21875 
z
" id="DejaVuSans-48"/>
      <path d="M 12.40625 8.296875 
L 28.515625 8.296875 
L 28.515625 63.921875 
L 10.984375 60.40625 
L 10.984375 69.390625 
L 28.421875 72.90625 
L 38.28125 72.90625 
L 38.28125 8.296875 
L 54.390625 8.296875 
L 54.390625 0 
L 12.40625 0 
z
" id="DejaVuSans-49"/>
      <path d="M 31.78125 34.625 
Q 24.75 34.625 20.71875 30.859375 
Q 16.703125 27.09375 16.703125 20.515625 
Q 16.703125 13.921875 20.71875 10.15625 
Q 24.75 6.390625 31.78125 6.390625 
Q 38.8125 6.390625 42.859375 10.171875 
Q 46.921875 13.96875 46.921875 20.515625 
Q 46.921875 27.09375 42.890625 30.859375 
Q 38.875 34.625 31.78125 34.625 
z
M 21.921875 38.8125 
Q 15.578125 40.375 12.03125 44.71875 
Q 8.5 49.078125 8.5 55.328125 
Q 8.5 64.0625 14.71875 69.140625 
Q 20.953125 74.21875 31.78125 74.21875 
Q 42.671875 74.21875 48.875 69.140625 
Q 55.078125 64.0625 55.078125 55.328125 
Q 55.078125 49.078125 51.53125 44.71875 
Q 48 40.375 41.703125 38.8125 
Q 48.828125 37.15625 52.796875 32.3125 
Q 56.78125 27.484375 56.78125 20.515625 
Q 56.78125 9.90625 50.3125 4.234375 
Q 43.84375 -1.421875 31.78125 -1.421875 
Q 19.734375 -1.421875 13.25 4.234375 
Q 6.78125 9.90625 6.78125 20.515625 
Q 6.78125 27.484375 10.78125 32.3125 
Q 14.796875 37.15625 21.921875 38.8125 
z
M 18.3125 54.390625 
Q 18.3125 48.734375 21.84375 45.5625 
Q 25.390625 42.390625 31.78125 42.390625 
Q 38.140625 42.390625 41.71875 45.5625 
Q 45.3125 48.734375 45.3125 54.390625 
Q 45.3125 60.0625 41.71875 63.234375 
Q 38.140625 66.40625 31.78125 66.40625 
Q 25.390625 66.40625 21.84375 63.234375 
Q 18.3125 60.0625 18.3125 54.390625 
z
" id="DejaVuSans-56"/>
      <path d="M 9.8125 72.90625 
L 55.90625 72.90625 
L 55.90625 64.59375 
L 19.671875 64.59375 
L 19.671875 43.015625 
L 54.390625 43.015625 
L 54.390625 34.71875 
L 19.671875 34.71875 
L 19.671875 8.296875 
L 56.78125 8.296875 
L 56.78125 0 
L 9.8125 0 
z
" id="DejaVuSans-69"/>
      <path d="M 9.8125 72.90625 
L 19.671875 72.90625 
L 19.671875 8.296875 
L 55.171875 8.296875 
L 55.171875 0 
L 9.8125 0 
z
" id="DejaVuSans-76"/>
     </defs>
     <g transform="translate(130.40375 647.400803)scale(0.1 -0.1)">
      <use xlink:href="#DejaVuSans-84"/>
      <use x="45.958984" xlink:href="#DejaVuSans-117"/>
      <use x="109.337891" xlink:href="#DejaVuSans-114"/>
      <use x="148.701172" xlink:href="#DejaVuSans-103"/>
      <use x="212.177734" xlink:href="#DejaVuSans-109"/>
      <use x="309.589844" xlink:href="#DejaVuSans-97"/>
      <use x="370.869141" xlink:href="#DejaVuSans-110"/>
      <use x="434.248047" xlink:href="#DejaVuSans-50"/>
      <use x="497.871094" xlink:href="#DejaVuSans-48"/>
      <use x="561.494141" xlink:href="#DejaVuSans-49"/>
      <use x="625.117188" xlink:href="#DejaVuSans-56"/>
      <use x="688.740234" xlink:href="#DejaVuSans-69"/>
      <use x="751.923828" xlink:href="#DejaVuSans-99"/>
      <use x="806.904297" xlink:href="#DejaVuSans-111"/>
      <use x="868.085938" xlink:href="#DejaVuSans-108"/>
      <use x="895.869141" xlink:href="#DejaVuSans-111"/>
      <use x="957.050781" xlink:href="#DejaVuSans-103"/>
      <use x="1020.527344" xlink:href="#DejaVuSans-121"/>
      <use x="1079.707031" xlink:href="#DejaVuSans-76"/>
      <use x="1133.669922" xlink:href="#DejaVuSans-101"/>
      <use x="1195.193359" xlink:href="#DejaVuSans-116"/>
      <use x="1234.402344" xlink:href="#DejaVuSans-116"/>
      <use x="1273.611328" xlink:href="#DejaVuSans-101"/>
      <use x="1335.134766" xlink:href="#DejaVuSans-114"/>
      <use x="1376.248047" xlink:href="#DejaVuSans-115"/>
     </g>
    </g>
    <g id="PathCollection_21">
     <g>
      <use style="fill:#a1c299;fill-opacity:0.9;stroke:#a1c299;stroke-opacity:0.9;" x="112.40375" xlink:href="#mcb0bbd782b" y="659.453929"/>
     </g>
    </g>
    <g id="text_8">
     <!-- CASA -->
     <defs>
      <path d="M 34.1875 63.1875 
L 20.796875 26.90625 
L 47.609375 26.90625 
z
M 28.609375 72.90625 
L 39.796875 72.90625 
L 67.578125 0 
L 57.328125 0 
L 50.6875 18.703125 
L 17.828125 18.703125 
L 11.1875 0 
L 0.78125 0 
z
" id="DejaVuSans-65"/>
      <path d="M 53.515625 70.515625 
L 53.515625 60.890625 
Q 47.90625 63.578125 42.921875 64.890625 
Q 37.9375 66.21875 33.296875 66.21875 
Q 25.25 66.21875 20.875 63.09375 
Q 16.5 59.96875 16.5 54.203125 
Q 16.5 49.359375 19.40625 46.890625 
Q 22.3125 44.4375 30.421875 42.921875 
L 36.375 41.703125 
Q 47.40625 39.59375 52.65625 34.296875 
Q 57.90625 29 57.90625 20.125 
Q 57.90625 9.515625 50.796875 4.046875 
Q 43.703125 -1.421875 29.984375 -1.421875 
Q 24.8125 -1.421875 18.96875 -0.25 
Q 13.140625 0.921875 6.890625 3.21875 
L 6.890625 13.375 
Q 12.890625 10.015625 18.65625 8.296875 
Q 24.421875 6.59375 29.984375 6.59375 
Q 38.421875 6.59375 43.015625 9.90625 
Q 47.609375 13.234375 47.609375 19.390625 
Q 47.609375 24.75 44.3125 27.78125 
Q 41.015625 30.8125 33.5 32.328125 
L 27.484375 33.5 
Q 16.453125 35.6875 11.515625 40.375 
Q 6.59375 45.0625 6.59375 53.421875 
Q 6.59375 63.09375 13.40625 68.65625 
Q 20.21875 74.21875 32.171875 74.21875 
Q 37.3125 74.21875 42.625 73.28125 
Q 47.953125 72.359375 53.515625 70.515625 
z
" id="DejaVuSans-83"/>
     </defs>
     <g transform="translate(130.40375 662.078929)scale(0.1 -0.1)">
      <use xlink:href="#DejaVuSans-67"/>
      <use x="69.824219" xlink:href="#DejaVuSans-65"/>
      <use x="138.232422" xlink:href="#DejaVuSans-83"/>
      <use x="203.583984" xlink:href="#DejaVuSans-65"/>
     </g>
    </g>
    <g id="PathCollection_22">
     <g>
      <use style="fill:#6b002c;fill-opacity:0.9;stroke:#6b002c;stroke-opacity:0.9;" x="112.40375" xlink:href="#mc18bf477fb" y="674.132053"/>
     </g>
    </g>
    <g id="text_9">
     <!-- ACONITE -->
     <defs>
      <path d="M 39.40625 66.21875 
Q 28.65625 66.21875 22.328125 58.203125 
Q 16.015625 50.203125 16.015625 36.375 
Q 16.015625 22.609375 22.328125 14.59375 
Q 28.65625 6.59375 39.40625 6.59375 
Q 50.140625 6.59375 56.421875 14.59375 
Q 62.703125 22.609375 62.703125 36.375 
Q 62.703125 50.203125 56.421875 58.203125 
Q 50.140625 66.21875 39.40625 66.21875 
z
M 39.40625 74.21875 
Q 54.734375 74.21875 63.90625 63.9375 
Q 73.09375 53.65625 73.09375 36.375 
Q 73.09375 19.140625 63.90625 8.859375 
Q 54.734375 -1.421875 39.40625 -1.421875 
Q 24.03125 -1.421875 14.8125 8.828125 
Q 5.609375 19.09375 5.609375 36.375 
Q 5.609375 53.65625 14.8125 63.9375 
Q 24.03125 74.21875 39.40625 74.21875 
z
" id="DejaVuSans-79"/>
      <path d="M 9.8125 72.90625 
L 19.671875 72.90625 
L 19.671875 0 
L 9.8125 0 
z
" id="DejaVuSans-73"/>
     </defs>
     <g transform="translate(130.40375 676.757053)scale(0.1 -0.1)">
      <use xlink:href="#DejaVuSans-65"/>
      <use x="66.658203" xlink:href="#DejaVuSans-67"/>
      <use x="136.482422" xlink:href="#DejaVuSans-79"/>
      <use x="215.193359" xlink:href="#DejaVuSans-78"/>
      <use x="289.998047" xlink:href="#DejaVuSans-73"/>
      <use x="319.490234" xlink:href="#DejaVuSans-84"/>
      <use x="380.574219" xlink:href="#DejaVuSans-69"/>
     </g>
    </g>
    <g id="PathCollection_23">
     <g>
      <use style="fill:#300018;fill-opacity:0.9;stroke:#300018;stroke-opacity:0.9;" x="112.40375" xlink:href="#m42bfbcae09" y="688.810179"/>
     </g>
    </g>
    <g id="text_10">
     <!-- FOREST-BGC -->
     <defs>
      <path d="M 9.8125 72.90625 
L 51.703125 72.90625 
L 51.703125 64.59375 
L 19.671875 64.59375 
L 19.671875 43.109375 
L 48.578125 43.109375 
L 48.578125 34.8125 
L 19.671875 34.8125 
L 19.671875 0 
L 9.8125 0 
z
" id="DejaVuSans-70"/>
      <path d="M 44.390625 34.1875 
Q 47.5625 33.109375 50.5625 29.59375 
Q 53.5625 26.078125 56.59375 19.921875 
L 66.609375 0 
L 56 0 
L 46.6875 18.703125 
Q 43.0625 26.03125 39.671875 28.421875 
Q 36.28125 30.8125 30.421875 30.8125 
L 19.671875 30.8125 
L 19.671875 0 
L 9.8125 0 
L 9.8125 72.90625 
L 32.078125 72.90625 
Q 44.578125 72.90625 50.734375 67.671875 
Q 56.890625 62.453125 56.890625 51.90625 
Q 56.890625 45.015625 53.6875 40.46875 
Q 50.484375 35.9375 44.390625 34.1875 
z
M 19.671875 64.796875 
L 19.671875 38.921875 
L 32.078125 38.921875 
Q 39.203125 38.921875 42.84375 42.21875 
Q 46.484375 45.515625 46.484375 51.90625 
Q 46.484375 58.296875 42.84375 61.546875 
Q 39.203125 64.796875 32.078125 64.796875 
z
" id="DejaVuSans-82"/>
      <path d="M 4.890625 31.390625 
L 31.203125 31.390625 
L 31.203125 23.390625 
L 4.890625 23.390625 
z
" id="DejaVuSans-45"/>
      <path d="M 19.671875 34.8125 
L 19.671875 8.109375 
L 35.5 8.109375 
Q 43.453125 8.109375 47.28125 11.40625 
Q 51.125 14.703125 51.125 21.484375 
Q 51.125 28.328125 47.28125 31.5625 
Q 43.453125 34.8125 35.5 34.8125 
z
M 19.671875 64.796875 
L 19.671875 42.828125 
L 34.28125 42.828125 
Q 41.5 42.828125 45.03125 45.53125 
Q 48.578125 48.25 48.578125 53.8125 
Q 48.578125 59.328125 45.03125 62.0625 
Q 41.5 64.796875 34.28125 64.796875 
z
M 9.8125 72.90625 
L 35.015625 72.90625 
Q 46.296875 72.90625 52.390625 68.21875 
Q 58.5 63.53125 58.5 54.890625 
Q 58.5 48.1875 55.375 44.234375 
Q 52.25 40.28125 46.1875 39.3125 
Q 53.46875 37.75 57.5 32.78125 
Q 61.53125 27.828125 61.53125 20.40625 
Q 61.53125 10.640625 54.890625 5.3125 
Q 48.25 0 35.984375 0 
L 9.8125 0 
z
" id="DejaVuSans-66"/>
      <path d="M 59.515625 10.40625 
L 59.515625 29.984375 
L 43.40625 29.984375 
L 43.40625 38.09375 
L 69.28125 38.09375 
L 69.28125 6.78125 
Q 63.578125 2.734375 56.6875 0.65625 
Q 49.8125 -1.421875 42 -1.421875 
Q 24.90625 -1.421875 15.25 8.5625 
Q 5.609375 18.5625 5.609375 36.375 
Q 5.609375 54.25 15.25 64.234375 
Q 24.90625 74.21875 42 74.21875 
Q 49.125 74.21875 55.546875 72.453125 
Q 61.96875 70.703125 67.390625 67.28125 
L 67.390625 56.78125 
Q 61.921875 61.421875 55.765625 63.765625 
Q 49.609375 66.109375 42.828125 66.109375 
Q 29.4375 66.109375 22.71875 58.640625 
Q 16.015625 51.171875 16.015625 36.375 
Q 16.015625 21.625 22.71875 14.15625 
Q 29.4375 6.6875 42.828125 6.6875 
Q 48.046875 6.6875 52.140625 7.59375 
Q 56.25 8.5 59.515625 10.40625 
z
" id="DejaVuSans-71"/>
     </defs>
     <g transform="translate(130.40375 691.435179)scale(0.1 -0.1)">
      <use xlink:href="#DejaVuSans-70"/>
      <use x="57.519531" xlink:href="#DejaVuSans-79"/>
      <use x="136.230469" xlink:href="#DejaVuSans-82"/>
      <use x="205.712891" xlink:href="#DejaVuSans-69"/>
      <use x="268.896484" xlink:href="#DejaVuSans-83"/>
      <use x="332.373047" xlink:href="#DejaVuSans-84"/>
      <use x="384.332031" xlink:href="#DejaVuSans-45"/>
      <use x="416.791016" xlink:href="#DejaVuSans-66"/>
      <use x="483.644531" xlink:href="#DejaVuSans-71"/>
      <use x="561.134766" xlink:href="#DejaVuSans-67"/>
     </g>
    </g>
    <g id="PathCollection_24">
     <g>
      <use style="fill:#772600;fill-opacity:0.9;stroke:#772600;stroke-opacity:0.9;stroke-width:1.5;" x="112.40375" xlink:href="#m5499afa97c" y="703.488304"/>
     </g>
    </g>
    <g id="text_11">
     <!-- DeAngelis2012TheorEcol -->
     <defs>
      <path d="M 19.671875 64.796875 
L 19.671875 8.109375 
L 31.59375 8.109375 
Q 46.6875 8.109375 53.6875 14.9375 
Q 60.6875 21.78125 60.6875 36.53125 
Q 60.6875 51.171875 53.6875 57.984375 
Q 46.6875 64.796875 31.59375 64.796875 
z
M 9.8125 72.90625 
L 30.078125 72.90625 
Q 51.265625 72.90625 61.171875 64.09375 
Q 71.09375 55.28125 71.09375 36.53125 
Q 71.09375 17.671875 61.125 8.828125 
Q 51.171875 0 30.078125 0 
L 9.8125 0 
z
" id="DejaVuSans-68"/>
     </defs>
     <g transform="translate(130.40375 706.113304)scale(0.1 -0.1)">
      <use xlink:href="#DejaVuSans-68"/>
      <use x="77.001953" xlink:href="#DejaVuSans-101"/>
      <use x="138.525391" xlink:href="#DejaVuSans-65"/>
      <use x="206.933594" xlink:href="#DejaVuSans-110"/>
      <use x="270.3125" xlink:href="#DejaVuSans-103"/>
      <use x="333.789062" xlink:href="#DejaVuSans-101"/>
      <use x="395.3125" xlink:href="#DejaVuSans-108"/>
      <use x="423.095703" xlink:href="#DejaVuSans-105"/>
      <use x="450.878906" xlink:href="#DejaVuSans-115"/>
      <use x="502.978516" xlink:href="#DejaVuSans-50"/>
      <use x="566.601562" xlink:href="#DejaVuSans-48"/>
      <use x="630.224609" xlink:href="#DejaVuSans-49"/>
      <use x="693.847656" xlink:href="#DejaVuSans-50"/>
      <use x="757.470703" xlink:href="#DejaVuSans-84"/>
      <use x="818.554688" xlink:href="#DejaVuSans-104"/>
      <use x="881.933594" xlink:href="#DejaVuSans-101"/>
      <use x="943.457031" xlink:href="#DejaVuSans-111"/>
      <use x="1004.638672" xlink:href="#DejaVuSans-114"/>
      <use x="1045.751953" xlink:href="#DejaVuSans-69"/>
      <use x="1108.935547" xlink:href="#DejaVuSans-99"/>
      <use x="1163.916016" xlink:href="#DejaVuSans-111"/>
      <use x="1225.097656" xlink:href="#DejaVuSans-108"/>
     </g>
    </g>
    <g id="PathCollection_25">
     <g>
      <use style="fill:#0aa6d8;fill-opacity:0.9;stroke:#0aa6d8;stroke-opacity:0.9;" x="112.40375" xlink:href="#m1b0e2ab293" y="718.166429"/>
     </g>
    </g>
    <g id="text_12">
     <!-- Murty2000EcolModell -->
     <defs>
      <path d="M 9.8125 72.90625 
L 24.515625 72.90625 
L 43.109375 23.296875 
L 61.8125 72.90625 
L 76.515625 72.90625 
L 76.515625 0 
L 66.890625 0 
L 66.890625 64.015625 
L 48.09375 14.015625 
L 38.1875 14.015625 
L 19.390625 64.015625 
L 19.390625 0 
L 9.8125 0 
z
" id="DejaVuSans-77"/>
     </defs>
     <g transform="translate(130.40375 720.791429)scale(0.1 -0.1)">
      <use xlink:href="#DejaVuSans-77"/>
      <use x="86.279297" xlink:href="#DejaVuSans-117"/>
      <use x="149.658203" xlink:href="#DejaVuSans-114"/>
      <use x="190.771484" xlink:href="#DejaVuSans-116"/>
      <use x="229.980469" xlink:href="#DejaVuSans-121"/>
      <use x="289.160156" xlink:href="#DejaVuSans-50"/>
      <use x="352.783203" xlink:href="#DejaVuSans-48"/>
      <use x="416.40625" xlink:href="#DejaVuSans-48"/>
      <use x="480.029297" xlink:href="#DejaVuSans-48"/>
      <use x="543.652344" xlink:href="#DejaVuSans-69"/>
      <use x="606.835938" xlink:href="#DejaVuSans-99"/>
      <use x="661.816406" xlink:href="#DejaVuSans-111"/>
      <use x="722.998047" xlink:href="#DejaVuSans-108"/>
      <use x="750.78125" xlink:href="#DejaVuSans-77"/>
      <use x="837.060547" xlink:href="#DejaVuSans-111"/>
      <use x="898.242188" xlink:href="#DejaVuSans-100"/>
      <use x="961.71875" xlink:href="#DejaVuSans-101"/>
      <use x="1023.242188" xlink:href="#DejaVuSans-108"/>
      <use x="1051.025391" xlink:href="#DejaVuSans-108"/>
     </g>
    </g>
    <g id="PathCollection_26">
     <g>
      <use style="fill:#d790ff;fill-opacity:0.9;stroke:#d790ff;stroke-opacity:0.9;" x="112.40375" xlink:href="#m55e4088ca5" y="732.844553"/>
     </g>
    </g>
    <g id="text_13">
     <!-- CABLE -->
     <g transform="translate(130.40375 735.469553)scale(0.1 -0.1)">
      <use xlink:href="#DejaVuSans-67"/>
      <use x="69.824219" xlink:href="#DejaVuSans-65"/>
      <use x="138.232422" xlink:href="#DejaVuSans-66"/>
      <use x="206.835938" xlink:href="#DejaVuSans-76"/>
      <use x="262.548828" xlink:href="#DejaVuSans-69"/>
     </g>
    </g>
    <g id="PathCollection_27">
     <g>
      <use style="fill:#013349;fill-opacity:0.9;stroke:#013349;stroke-opacity:0.9;" x="112.40375" xlink:href="#m922eda6ba8" y="747.522678"/>
     </g>
    </g>
    <g id="text_14">
     <!-- King1993TreePhysiol -->
     <defs>
      <path d="M 9.8125 72.90625 
L 19.671875 72.90625 
L 19.671875 42.09375 
L 52.390625 72.90625 
L 65.09375 72.90625 
L 28.90625 38.921875 
L 67.671875 0 
L 54.6875 0 
L 19.671875 35.109375 
L 19.671875 0 
L 9.8125 0 
z
" id="DejaVuSans-75"/>
      <path d="M 10.984375 1.515625 
L 10.984375 10.5 
Q 14.703125 8.734375 18.5 7.8125 
Q 22.3125 6.890625 25.984375 6.890625 
Q 35.75 6.890625 40.890625 13.453125 
Q 46.046875 20.015625 46.78125 33.40625 
Q 43.953125 29.203125 39.59375 26.953125 
Q 35.25 24.703125 29.984375 24.703125 
Q 19.046875 24.703125 12.671875 31.3125 
Q 6.296875 37.9375 6.296875 49.421875 
Q 6.296875 60.640625 12.9375 67.421875 
Q 19.578125 74.21875 30.609375 74.21875 
Q 43.265625 74.21875 49.921875 64.515625 
Q 56.59375 54.828125 56.59375 36.375 
Q 56.59375 19.140625 48.40625 8.859375 
Q 40.234375 -1.421875 26.421875 -1.421875 
Q 22.703125 -1.421875 18.890625 -0.6875 
Q 15.09375 0.046875 10.984375 1.515625 
z
M 30.609375 32.421875 
Q 37.25 32.421875 41.125 36.953125 
Q 45.015625 41.5 45.015625 49.421875 
Q 45.015625 57.28125 41.125 61.84375 
Q 37.25 66.40625 30.609375 66.40625 
Q 23.96875 66.40625 20.09375 61.84375 
Q 16.21875 57.28125 16.21875 49.421875 
Q 16.21875 41.5 20.09375 36.953125 
Q 23.96875 32.421875 30.609375 32.421875 
z
" id="DejaVuSans-57"/>
      <path d="M 40.578125 39.3125 
Q 47.65625 37.796875 51.625 33 
Q 55.609375 28.21875 55.609375 21.1875 
Q 55.609375 10.40625 48.1875 4.484375 
Q 40.765625 -1.421875 27.09375 -1.421875 
Q 22.515625 -1.421875 17.65625 -0.515625 
Q 12.796875 0.390625 7.625 2.203125 
L 7.625 11.71875 
Q 11.71875 9.328125 16.59375 8.109375 
Q 21.484375 6.890625 26.8125 6.890625 
Q 36.078125 6.890625 40.9375 10.546875 
Q 45.796875 14.203125 45.796875 21.1875 
Q 45.796875 27.640625 41.28125 31.265625 
Q 36.765625 34.90625 28.71875 34.90625 
L 20.21875 34.90625 
L 20.21875 43.015625 
L 29.109375 43.015625 
Q 36.375 43.015625 40.234375 45.921875 
Q 44.09375 48.828125 44.09375 54.296875 
Q 44.09375 59.90625 40.109375 62.90625 
Q 36.140625 65.921875 28.71875 65.921875 
Q 24.65625 65.921875 20.015625 65.03125 
Q 15.375 64.15625 9.8125 62.3125 
L 9.8125 71.09375 
Q 15.4375 72.65625 20.34375 73.4375 
Q 25.25 74.21875 29.59375 74.21875 
Q 40.828125 74.21875 47.359375 69.109375 
Q 53.90625 64.015625 53.90625 55.328125 
Q 53.90625 49.265625 50.4375 45.09375 
Q 46.96875 40.921875 40.578125 39.3125 
z
" id="DejaVuSans-51"/>
     </defs>
     <g transform="translate(130.40375 750.147678)scale(0.1 -0.1)">
      <use xlink:href="#DejaVuSans-75"/>
      <use x="65.576172" xlink:href="#DejaVuSans-105"/>
      <use x="93.359375" xlink:href="#DejaVuSans-110"/>
      <use x="156.738281" xlink:href="#DejaVuSans-103"/>
      <use x="220.214844" xlink:href="#DejaVuSans-49"/>
      <use x="283.837891" xlink:href="#DejaVuSans-57"/>
      <use x="347.460938" xlink:href="#DejaVuSans-57"/>
      <use x="411.083984" xlink:href="#DejaVuSans-51"/>
      <use x="474.707031" xlink:href="#DejaVuSans-84"/>
      <use x="521.041016" xlink:href="#DejaVuSans-114"/>
      <use x="559.904297" xlink:href="#DejaVuSans-101"/>
      <use x="621.427734" xlink:href="#DejaVuSans-101"/>
      <use x="682.951172" xlink:href="#DejaVuSans-80"/>
      <use x="743.253906" xlink:href="#DejaVuSans-104"/>
      <use x="806.632812" xlink:href="#DejaVuSans-121"/>
      <use x="865.8125" xlink:href="#DejaVuSans-115"/>
      <use x="917.912109" xlink:href="#DejaVuSans-105"/>
      <use x="945.695312" xlink:href="#DejaVuSans-111"/>
      <use x="1006.876953" xlink:href="#DejaVuSans-108"/>
     </g>
    </g>
    <g id="PathCollection_28">
     <g>
      <use style="fill:#9b9700;fill-opacity:0.9;stroke:#9b9700;stroke-opacity:0.9;stroke-width:1.5;" x="112.40375" xlink:href="#mb29058f100" y="762.200804"/>
     </g>
    </g>
    <g id="text_15">
     <!-- CTEM -->
     <g transform="translate(130.40375 764.825804)scale(0.1 -0.1)">
      <use xlink:href="#DejaVuSans-67"/>
      <use x="69.824219" xlink:href="#DejaVuSans-84"/>
      <use x="130.908203" xlink:href="#DejaVuSans-69"/>
      <use x="194.091797" xlink:href="#DejaVuSans-77"/>
     </g>
    </g>
    <g id="PathCollection_29">
     <g>
      <use style="fill:#00846f;fill-opacity:0.9;stroke:#00846f;stroke-opacity:0.9;" x="112.40375" xlink:href="#mf0773596df" y="776.878929"/>
     </g>
    </g>
    <g id="text_16">
     <!-- JeDi-DGVM -->
     <defs>
      <path d="M 9.8125 72.90625 
L 19.671875 72.90625 
L 19.671875 5.078125 
Q 19.671875 -8.109375 14.671875 -14.0625 
Q 9.671875 -20.015625 -1.421875 -20.015625 
L -5.171875 -20.015625 
L -5.171875 -11.71875 
L -2.09375 -11.71875 
Q 4.4375 -11.71875 7.125 -8.046875 
Q 9.8125 -4.390625 9.8125 5.078125 
z
" id="DejaVuSans-74"/>
      <path d="M 28.609375 0 
L 0.78125 72.90625 
L 11.078125 72.90625 
L 34.1875 11.53125 
L 57.328125 72.90625 
L 67.578125 72.90625 
L 39.796875 0 
z
" id="DejaVuSans-86"/>
     </defs>
     <g transform="translate(130.40375 779.503929)scale(0.1 -0.1)">
      <use xlink:href="#DejaVuSans-74"/>
      <use x="29.492188" xlink:href="#DejaVuSans-101"/>
      <use x="91.015625" xlink:href="#DejaVuSans-68"/>
      <use x="168.017578" xlink:href="#DejaVuSans-105"/>
      <use x="195.800781" xlink:href="#DejaVuSans-45"/>
      <use x="231.884766" xlink:href="#DejaVuSans-68"/>
      <use x="308.886719" xlink:href="#DejaVuSans-71"/>
      <use x="386.376953" xlink:href="#DejaVuSans-86"/>
      <use x="454.785156" xlink:href="#DejaVuSans-77"/>
     </g>
    </g>
    <g id="PathCollection_30">
     <g>
      <use style="fill:#549e79;fill-opacity:0.9;stroke:#549e79;stroke-opacity:0.9;stroke-width:1.5;" x="303.24125" xlink:href="#ma4ce42c185" y="644.775803"/>
     </g>
    </g>
    <g id="text_17">
     <!-- HAVANA -->
     <defs>
      <path d="M 9.8125 72.90625 
L 19.671875 72.90625 
L 19.671875 43.015625 
L 55.515625 43.015625 
L 55.515625 72.90625 
L 65.375 72.90625 
L 65.375 0 
L 55.515625 0 
L 55.515625 34.71875 
L 19.671875 34.71875 
L 19.671875 0 
L 9.8125 0 
z
" id="DejaVuSans-72"/>
     </defs>
     <g transform="translate(321.24125 647.400803)scale(0.1 -0.1)">
      <use xlink:href="#DejaVuSans-72"/>
      <use x="75.195312" xlink:href="#DejaVuSans-65"/>
      <use x="137.228516" xlink:href="#DejaVuSans-86"/>
      <use x="199.261719" xlink:href="#DejaVuSans-65"/>
      <use x="267.669922" xlink:href="#DejaVuSans-78"/>
      <use x="342.474609" xlink:href="#DejaVuSans-65"/>
     </g>
    </g>
    <g id="PathCollection_31">
     <g>
      <use style="fill:#372101;fill-opacity:0.9;stroke:#372101;stroke-opacity:0.9;stroke-width:1.5;" x="303.24125" xlink:href="#m6e05548a3a" y="659.453928"/>
     </g>
    </g>
    <g id="text_18">
     <!-- Luo2012TE -->
     <g transform="translate(321.24125 662.078928)scale(0.1 -0.1)">
      <use xlink:href="#DejaVuSans-76"/>
      <use x="53.962891" xlink:href="#DejaVuSans-117"/>
      <use x="117.341797" xlink:href="#DejaVuSans-111"/>
      <use x="178.523438" xlink:href="#DejaVuSans-50"/>
      <use x="242.146484" xlink:href="#DejaVuSans-48"/>
      <use x="305.769531" xlink:href="#DejaVuSans-49"/>
      <use x="369.392578" xlink:href="#DejaVuSans-50"/>
      <use x="433.015625" xlink:href="#DejaVuSans-84"/>
      <use x="494.099609" xlink:href="#DejaVuSans-69"/>
     </g>
    </g>
    <g id="PathCollection_32">
     <g>
      <use style="fill:#72418f;fill-opacity:0.9;stroke:#72418f;stroke-opacity:0.9;stroke-width:1.5;" x="303.24125" xlink:href="#me84102eaa4" y="674.132053"/>
     </g>
    </g>
    <g id="text_19">
     <!-- IBIS -->
     <g transform="translate(321.24125 676.757053)scale(0.1 -0.1)">
      <use xlink:href="#DejaVuSans-73"/>
      <use x="29.492188" xlink:href="#DejaVuSans-66"/>
      <use x="98.095703" xlink:href="#DejaVuSans-73"/>
      <use x="127.587891" xlink:href="#DejaVuSans-83"/>
     </g>
    </g>
    <g id="PathCollection_33">
     <g>
      <use style="fill:#ffb500;fill-opacity:0.9;stroke:#ffb500;stroke-opacity:0.9;stroke-width:1.5;" x="303.24125" xlink:href="#mf245fa978d" y="688.810179"/>
     </g>
    </g>
    <g id="text_20">
     <!-- G'DAY -->
     <defs>
      <path d="M 17.921875 72.90625 
L 17.921875 45.796875 
L 9.625 45.796875 
L 9.625 72.90625 
z
" id="DejaVuSans-39"/>
     </defs>
     <g transform="translate(321.24125 691.435179)scale(0.1 -0.1)">
      <use xlink:href="#DejaVuSans-71"/>
      <use x="77.490234" xlink:href="#DejaVuSans-39"/>
      <use x="104.980469" xlink:href="#DejaVuSans-68"/>
      <use x="180.232422" xlink:href="#DejaVuSans-65"/>
      <use x="240.890625" xlink:href="#DejaVuSans-89"/>
     </g>
    </g>
    <g id="PathCollection_34">
     <g>
      <use style="fill:#201625;fill-opacity:0.9;stroke:#201625;stroke-opacity:0.9;" x="303.24125" xlink:href="#m027a0d2112" y="703.488304"/>
     </g>
    </g>
    <g id="text_21">
     <!-- Hilbert1991AnnBot -->
     <defs>
      <path d="M 48.6875 27.296875 
Q 48.6875 37.203125 44.609375 42.84375 
Q 40.53125 48.484375 33.40625 48.484375 
Q 26.265625 48.484375 22.1875 42.84375 
Q 18.109375 37.203125 18.109375 27.296875 
Q 18.109375 17.390625 22.1875 11.75 
Q 26.265625 6.109375 33.40625 6.109375 
Q 40.53125 6.109375 44.609375 11.75 
Q 48.6875 17.390625 48.6875 27.296875 
z
M 18.109375 46.390625 
Q 20.953125 51.265625 25.265625 53.625 
Q 29.59375 56 35.59375 56 
Q 45.5625 56 51.78125 48.09375 
Q 58.015625 40.1875 58.015625 27.296875 
Q 58.015625 14.40625 51.78125 6.484375 
Q 45.5625 -1.421875 35.59375 -1.421875 
Q 29.59375 -1.421875 25.265625 0.953125 
Q 20.953125 3.328125 18.109375 8.203125 
L 18.109375 0 
L 9.078125 0 
L 9.078125 75.984375 
L 18.109375 75.984375 
z
" id="DejaVuSans-98"/>
     </defs>
     <g transform="translate(321.24125 706.113304)scale(0.1 -0.1)">
      <use xlink:href="#DejaVuSans-72"/>
      <use x="75.195312" xlink:href="#DejaVuSans-105"/>
      <use x="102.978516" xlink:href="#DejaVuSans-108"/>
      <use x="130.761719" xlink:href="#DejaVuSans-98"/>
      <use x="194.238281" xlink:href="#DejaVuSans-101"/>
      <use x="255.761719" xlink:href="#DejaVuSans-114"/>
      <use x="296.875" xlink:href="#DejaVuSans-116"/>
      <use x="336.083984" xlink:href="#DejaVuSans-49"/>
      <use x="399.707031" xlink:href="#DejaVuSans-57"/>
      <use x="463.330078" xlink:href="#DejaVuSans-57"/>
      <use x="526.953125" xlink:href="#DejaVuSans-49"/>
      <use x="590.576172" xlink:href="#DejaVuSans-65"/>
      <use x="658.984375" xlink:href="#DejaVuSans-110"/>
      <use x="722.363281" xlink:href="#DejaVuSans-110"/>
      <use x="785.742188" xlink:href="#DejaVuSans-66"/>
      <use x="854.345703" xlink:href="#DejaVuSans-111"/>
      <use x="915.527344" xlink:href="#DejaVuSans-116"/>
     </g>
    </g>
    <g id="PathCollection_35">
     <g>
      <use style="fill:#c2ffed;fill-opacity:0.9;stroke:#c2ffed;stroke-opacity:0.9;" x="303.24125" xlink:href="#mca0cf5946a" y="718.166428"/>
     </g>
    </g>
    <g id="text_22">
     <!-- DALEC -->
     <g transform="translate(321.24125 720.791428)scale(0.1 -0.1)">
      <use xlink:href="#DejaVuSans-68"/>
      <use x="75.251953" xlink:href="#DejaVuSans-65"/>
      <use x="143.660156" xlink:href="#DejaVuSans-76"/>
      <use x="199.373047" xlink:href="#DejaVuSans-69"/>
      <use x="262.556641" xlink:href="#DejaVuSans-67"/>
     </g>
    </g>
    <g id="PathCollection_36">
     <g>
      <use style="fill:#72418f;fill-opacity:0.9;stroke:#72418f;stroke-opacity:0.9;stroke-width:1.5;" x="303.24125" xlink:href="#me84102eaa4" y="732.844553"/>
     </g>
    </g>
    <g id="text_23">
     <!-- IBIS -->
     <g transform="translate(321.24125 735.469553)scale(0.1 -0.1)">
      <use xlink:href="#DejaVuSans-73"/>
      <use x="29.492188" xlink:href="#DejaVuSans-66"/>
      <use x="98.095703" xlink:href="#DejaVuSans-73"/>
      <use x="127.587891" xlink:href="#DejaVuSans-83"/>
     </g>
    </g>
    <g id="PathCollection_37">
     <g>
      <use style="fill:#a079bf;fill-opacity:0.9;stroke:#a079bf;stroke-opacity:0.9;" x="303.24125" xlink:href="#m055a20997c" y="747.522678"/>
     </g>
    </g>
    <g id="text_24">
     <!-- ISAM -->
     <g transform="translate(321.24125 750.147678)scale(0.1 -0.1)">
      <use xlink:href="#DejaVuSans-73"/>
      <use x="29.492188" xlink:href="#DejaVuSans-83"/>
      <use x="94.84375" xlink:href="#DejaVuSans-65"/>
      <use x="163.251953" xlink:href="#DejaVuSans-77"/>
     </g>
    </g>
    <g id="PathCollection_38">
     <g>
      <use style="fill:#bc23ff;fill-opacity:0.9;stroke:#bc23ff;stroke-opacity:0.9;" x="303.24125" xlink:href="#me9ac801655" y="762.200804"/>
     </g>
    </g>
    <g id="text_25">
     <!-- CEVSA2 -->
     <g transform="translate(321.24125 764.825804)scale(0.1 -0.1)">
      <use xlink:href="#DejaVuSans-67"/>
      <use x="69.824219" xlink:href="#DejaVuSans-69"/>
      <use x="133.007812" xlink:href="#DejaVuSans-86"/>
      <use x="201.416016" xlink:href="#DejaVuSans-83"/>
      <use x="266.767578" xlink:href="#DejaVuSans-65"/>
      <use x="335.175781" xlink:href="#DejaVuSans-50"/>
     </g>
    </g>
   </g>
  </g>
  <g id="axes_2">
   <g id="matplotlib.axis_3">
    <g id="xtick_3">
     <g id="line2d_5">
      <path clip-path="url(#p031de76e2d)" d="M 218.4 493.0272 
L 218.4 58.0032 
" style="fill:none;stroke:#b0b0b0;stroke-linecap:square;stroke-width:0.8;"/>
     </g>
     <g id="line2d_6">
      <defs>
       <path d="M 0 0 
L 0 -3.5 
" id="m71cbb212cc" style="stroke:#000000;stroke-width:0.8;"/>
      </defs>
      <g>
       <use style="stroke:#000000;stroke-width:0.8;" x="218.4" xlink:href="#m71cbb212cc" y="58.0032"/>
      </g>
     </g>
     <g id="text_26">
      <!-- 10 -->
      <g transform="translate(206.9475 47.259762)scale(0.18 -0.18)">
       <use xlink:href="#DejaVuSans-49"/>
       <use x="63.623047" xlink:href="#DejaVuSans-48"/>
      </g>
     </g>
    </g>
    <g id="xtick_4">
     <g id="line2d_7">
      <path clip-path="url(#p031de76e2d)" d="M 336 493.0272 
L 336 58.0032 
" style="fill:none;stroke:#b0b0b0;stroke-linecap:square;stroke-width:0.8;"/>
     </g>
     <g id="line2d_8">
      <g>
       <use style="stroke:#000000;stroke-width:0.8;" x="336" xlink:href="#m71cbb212cc" y="58.0032"/>
      </g>
     </g>
     <g id="text_27">
      <!-- 9 -->
      <g transform="translate(330.27375 47.259762)scale(0.18 -0.18)">
       <use xlink:href="#DejaVuSans-57"/>
      </g>
     </g>
    </g>
    <g id="text_28">
     <!--  models -->
     <g transform="translate(241.626094 29.582575)scale(0.18 -0.18)">
      <use xlink:href="#DejaVuSans-32"/>
      <use x="31.787109" xlink:href="#DejaVuSans-109"/>
      <use x="129.199219" xlink:href="#DejaVuSans-111"/>
      <use x="190.380859" xlink:href="#DejaVuSans-100"/>
      <use x="253.857422" xlink:href="#DejaVuSans-101"/>
      <use x="315.380859" xlink:href="#DejaVuSans-108"/>
      <use x="343.164062" xlink:href="#DejaVuSans-115"/>
     </g>
    </g>
   </g>
   <g id="patch_8">
    <path d="M 100.8 493.0272 
L 100.8 58.0032 
" style="fill:none;stroke:#000000;stroke-linecap:square;stroke-linejoin:miter;stroke-width:0.8;"/>
   </g>
   <g id="patch_9">
    <path d="M 453.6 493.0272 
L 453.6 58.0032 
" style="fill:none;stroke:#000000;stroke-linecap:square;stroke-linejoin:miter;stroke-width:0.8;"/>
   </g>
   <g id="patch_10">
    <path d="M 100.8 493.0272 
L 453.6 493.0272 
" style="fill:none;stroke:#000000;stroke-linecap:square;stroke-linejoin:miter;stroke-width:0.8;"/>
   </g>
   <g id="patch_11">
    <path d="M 100.8 58.0032 
L 453.6 58.0032 
" style="fill:none;stroke:#000000;stroke-linecap:square;stroke-linejoin:miter;stroke-width:0.8;"/>
   </g>
  </g>
  <g id="axes_3">
   <g id="matplotlib.axis_4">
    <g id="ytick_3">
     <g id="line2d_9">
      <path clip-path="url(#p031de76e2d)" d="M 100.8 384.2712 
L 453.6 384.2712 
" style="fill:none;stroke:#b0b0b0;stroke-linecap:square;stroke-width:0.8;"/>
     </g>
     <g id="line2d_10">
      <defs>
       <path d="M 0 0 
L 3.5 0 
" id="m3c18af7d33" style="stroke:#000000;stroke-width:0.8;"/>
      </defs>
      <g>
       <use style="stroke:#000000;stroke-width:0.8;" x="453.6" xlink:href="#m3c18af7d33" y="384.2712"/>
      </g>
     </g>
     <g id="text_29">
      <!-- 8 -->
      <g transform="translate(460.6 391.109794)scale(0.18 -0.18)">
       <use xlink:href="#DejaVuSans-56"/>
      </g>
     </g>
    </g>
    <g id="ytick_4">
     <g id="line2d_11">
      <path clip-path="url(#p031de76e2d)" d="M 100.8 166.7592 
L 453.6 166.7592 
" style="fill:none;stroke:#b0b0b0;stroke-linecap:square;stroke-width:0.8;"/>
     </g>
     <g id="line2d_12">
      <g>
       <use style="stroke:#000000;stroke-width:0.8;" x="453.6" xlink:href="#m3c18af7d33" y="166.7592"/>
      </g>
     </g>
     <g id="text_30">
      <!-- 11 -->
      <g transform="translate(460.6 173.597794)scale(0.18 -0.18)">
       <use xlink:href="#DejaVuSans-49"/>
       <use x="63.623047" xlink:href="#DejaVuSans-49"/>
      </g>
     </g>
    </g>
    <g id="text_31">
     <!--  models -->
     <g transform="translate(501.182187 311.089106)rotate(-90)scale(0.18 -0.18)">
      <use xlink:href="#DejaVuSans-32"/>
      <use x="31.787109" xlink:href="#DejaVuSans-109"/>
      <use x="129.199219" xlink:href="#DejaVuSans-111"/>
      <use x="190.380859" xlink:href="#DejaVuSans-100"/>
      <use x="253.857422" xlink:href="#DejaVuSans-101"/>
      <use x="315.380859" xlink:href="#DejaVuSans-108"/>
      <use x="343.164062" xlink:href="#DejaVuSans-115"/>
     </g>
    </g>
   </g>
   <g id="patch_12">
    <path d="M 100.8 493.0272 
L 100.8 58.0032 
" style="fill:none;stroke:#000000;stroke-linecap:square;stroke-linejoin:miter;stroke-width:0.8;"/>
   </g>
   <g id="patch_13">
    <path d="M 453.6 493.0272 
L 453.6 58.0032 
" style="fill:none;stroke:#000000;stroke-linecap:square;stroke-linejoin:miter;stroke-width:0.8;"/>
   </g>
   <g id="patch_14">
    <path d="M 100.8 493.0272 
L 453.6 493.0272 
" style="fill:none;stroke:#000000;stroke-linecap:square;stroke-linejoin:miter;stroke-width:0.8;"/>
   </g>
   <g id="patch_15">
    <path d="M 100.8 58.0032 
L 453.6 58.0032 
" style="fill:none;stroke:#000000;stroke-linecap:square;stroke-linejoin:miter;stroke-width:0.8;"/>
   </g>
  </g>
 </g>
 <defs>
  <clipPath id="p031de76e2d">
   <rect height="435.024" width="352.8" x="100.8" y="58.0032"/>
  </clipPath>
 </defs>
</svg>
