<?xml version="1.0" encoding="utf-8" standalone="no"?>
<!DOCTYPE svg PUBLIC "-//W3C//DTD SVG 1.1//EN"
  "http://www.w3.org/Graphics/SVG/1.1/DTD/svg11.dtd">
<!-- Created with matplotlib (http://matplotlib.org/) -->
<svg height="216pt" version="1.1" viewBox="0 0 216 216" width="216pt" xmlns="http://www.w3.org/2000/svg" xmlns:xlink="http://www.w3.org/1999/xlink">
 <defs>
  <style type="text/css">
*{stroke-linecap:butt;stroke-linejoin:round;}
  </style>
 </defs>
 <g id="figure_1">
  <g id="patch_1">
   <path d="M 0 216 
L 216 216 
L 216 0 
L 0 0 
z
" style="fill:none;"/>
  </g>
  <g id="axes_1">
   <g id="patch_2">
    <path clip-path="url(#p21869853ca)" d="M 67.176 127.426536 
C 72.073153 127.426536 76.77039 125.493429 80.2332 122.05296 
C 83.69601 118.612491 85.641669 113.945558 85.641669 109.08 
C 85.641669 104.214442 83.69601 99.547509 80.2332 96.10704 
C 76.77039 92.666571 72.073153 90.733464 67.176 90.733464 
C 62.278847 90.733464 57.58161 92.666571 54.1188 96.10704 
C 50.65599 99.547509 48.710331 104.214442 48.710331 109.08 
C 48.710331 113.945558 50.65599 118.612491 54.1188 122.05296 
C 57.58161 125.493429 62.278847 127.426536 67.176 127.426536 
z
" style="fill:#0000ff;opacity:0.3;stroke:#0000ff;stroke-linejoin:miter;"/>
   </g>
   <g id="patch_3">
    <path clip-path="url(#p21869853ca)" d="M 37.663323 90.847651 
Q 40.345229 93.002449 43.283551 94.707469 
L 44.41281 92.761377 
Q 46.438666 96.118947 49.303985 99.233144 
Q 45.09389 99.645783 40.648614 99.248351 
L 41.777873 97.302259 
Q 38.643193 95.483298 35.784311 93.186308 
L 37.663323 90.847651 
z
" style="fill:#0000ff;opacity:0.5;stroke:#0000ff;stroke-linecap:round;"/>
   </g>
   <g id="patch_4">
    <path clip-path="url(#p21869853ca)" d="M 49.838338 120.328451 
Q 46.624356 121.555684 43.669182 123.231324 
L 44.778982 125.188578 
Q 40.857951 125.242293 36.72321 126.143509 
Q 38.492432 122.30098 41.079648 118.664397 
L 42.189448 120.621651 
Q 45.342107 118.834034 48.768175 117.525818 
L 49.838338 120.328451 
z
" style="fill:#008000;opacity:0.5;stroke:#008000;stroke-linecap:round;"/>
   </g>
   <g id="patch_5">
    <path clip-path="url(#p21869853ca)" d="M 110.7 84.183336 
C 115.597153 84.183336 120.29439 82.250229 123.7572 78.80976 
C 127.22001 75.369291 129.165669 70.702358 129.165669 65.8368 
C 129.165669 60.971242 127.22001 56.304309 123.7572 52.86384 
C 120.29439 49.423371 115.597153 47.490264 110.7 47.490264 
C 105.802847 47.490264 101.10561 49.423371 97.6428 52.86384 
C 94.17999 56.304309 92.234331 60.971242 92.234331 65.8368 
C 92.234331 70.702358 94.17999 75.369291 97.6428 78.80976 
C 101.10561 82.250229 105.802847 84.183336 110.7 84.183336 
z
" style="fill:#0000ff;opacity:0.3;stroke:#0000ff;stroke-linejoin:miter;"/>
   </g>
   <g id="patch_6">
    <path clip-path="url(#p21869853ca)" d="M 129.036261 36.531693 
Q 126.88537 39.179246 125.176748 42.082221 
L 127.115811 43.223508 
Q 123.747175 45.226004 120.617285 48.071277 
Q 120.228014 43.8609 120.652268 39.41922 
L 122.591331 40.560506 
Q 124.414513 37.462892 126.707814 34.640045 
L 129.036261 36.531693 
z
" style="fill:#0000ff;opacity:0.5;stroke:#0000ff;stroke-linecap:round;"/>
   </g>
   <g id="patch_7">
    <path clip-path="url(#p21869853ca)" d="M 99.383497 48.611828 
Q 98.148223 45.43221 96.472053 42.510377 
L 94.520394 43.629987 
Q 94.448499 39.711756 93.526175 35.583668 
Q 97.376969 37.330146 101.025925 39.897955 
L 99.074265 41.017564 
Q 100.862819 44.135301 102.17988 47.52544 
L 99.383497 48.611828 
z
" style="fill:#008000;opacity:0.5;stroke:#008000;stroke-linecap:round;"/>
   </g>
   <g id="patch_8">
    <path clip-path="url(#p21869853ca)" d="M 154.224 127.426536 
C 159.121153 127.426536 163.81839 125.493429 167.2812 122.05296 
C 170.74401 118.612491 172.689669 113.945558 172.689669 109.08 
C 172.689669 104.214442 170.74401 99.547509 167.2812 96.10704 
C 163.81839 92.666571 159.121153 90.733464 154.224 90.733464 
C 149.326847 90.733464 144.62961 92.666571 141.1668 96.10704 
C 137.70399 99.547509 135.758331 104.214442 135.758331 109.08 
C 135.758331 113.945558 137.70399 118.612491 141.1668 122.05296 
C 144.62961 125.493429 149.326847 127.426536 154.224 127.426536 
z
" style="fill:#0000ff;opacity:0.3;stroke:#0000ff;stroke-linejoin:miter;"/>
   </g>
   <g id="patch_9">
    <path clip-path="url(#p21869853ca)" d="M 110.7 170.669736 
C 115.597153 170.669736 120.29439 168.736629 123.7572 165.29616 
C 127.22001 161.855691 129.165669 157.188758 129.165669 152.3232 
C 129.165669 147.457642 127.22001 142.790709 123.7572 139.35024 
C 120.29439 135.909771 115.597153 133.976664 110.7 133.976664 
C 105.802847 133.976664 101.10561 135.909771 97.6428 139.35024 
C 94.17999 142.790709 92.234331 147.457642 92.234331 152.3232 
C 92.234331 157.188758 94.17999 161.855691 97.6428 165.29616 
C 101.10561 168.736629 105.802847 170.669736 110.7 170.669736 
z
" style="fill:#0000ff;opacity:0.3;stroke:#0000ff;stroke-linejoin:miter;"/>
   </g>
   <g id="patch_10">
    <path clip-path="url(#p21869853ca)" d="M 83.009905 95.983357 
Q 88.806581 92.290771 93.603757 87.494517 
L 92.012919 85.903374 
Q 95.827455 84.750078 99.648713 82.950339 
Q 98.780523 87.082147 97.315711 91.207185 
L 95.724873 89.616041 
Q 90.695416 94.644532 84.62171 98.513591 
L 83.009905 95.983357 
z
" style="fill:#008000;opacity:0.5;stroke:#008000;stroke-linecap:round;"/>
   </g>
   <g id="patch_11">
    <path clip-path="url(#p21869853ca)" d="M 87.668166 110.886347 
Q 107.069686 114.766398 126.559422 112.605023 
L 126.311422 110.368732 
Q 130.122851 111.834095 134.150729 113.056223 
Q 130.749399 115.534504 127.13809 117.823034 
L 126.890089 115.586744 
Q 106.937763 117.799419 87.079854 113.828096 
L 87.668166 110.886347 
z
" style="fill:#008000;opacity:0.5;stroke:#008000;stroke-linecap:round;"/>
   </g>
   <g id="patch_12">
    <path clip-path="url(#p21869853ca)" d="M 123.875049 81.563492 
Q 127.598264 87.324775 132.415182 92.082677 
L 133.996336 90.481911 
Q 135.173975 94.289652 136.998688 98.099935 
Q 132.860731 97.257517 128.725822 95.817798 
L 130.306976 94.217032 
Q 125.256673 89.228604 121.355407 83.191805 
L 123.875049 81.563492 
z
" style="fill:#008000;opacity:0.5;stroke:#008000;stroke-linecap:round;"/>
   </g>
   <g id="patch_13">
    <path clip-path="url(#p21869853ca)" d="M 133.731834 107.273653 
Q 114.330314 103.393602 94.840578 105.554977 
L 95.088578 107.791268 
Q 91.277149 106.325905 87.249271 105.103777 
Q 90.650601 102.625496 94.26191 100.336966 
L 94.509911 102.573256 
Q 114.462237 100.360581 134.320146 104.331904 
L 133.731834 107.273653 
z
" style="fill:#0000ff;opacity:0.5;stroke:#0000ff;stroke-linecap:round;"/>
   </g>
   <g id="patch_14">
    <path clip-path="url(#p21869853ca)" d="M 141.048951 93.353308 
Q 137.325736 87.592025 132.508818 82.834123 
L 130.927664 84.434889 
Q 129.750025 80.627148 127.925312 76.816865 
Q 132.063269 77.659283 136.198178 79.099002 
L 134.617024 80.699768 
Q 139.667327 85.688196 143.568593 91.724995 
L 141.048951 93.353308 
z
" style="fill:#0000ff;opacity:0.5;stroke:#0000ff;stroke-linecap:round;"/>
   </g>
   <g id="patch_15">
    <path clip-path="url(#p21869853ca)" d="M 138.390095 122.176643 
Q 132.593419 125.869229 127.796243 130.665483 
L 129.387081 132.256626 
Q 125.572545 133.409922 121.751287 135.209661 
Q 122.619477 131.077853 124.084289 126.952815 
L 125.675127 128.543959 
Q 130.704584 123.515468 136.77829 119.646409 
L 138.390095 122.176643 
z
" style="fill:#0000ff;opacity:0.5;stroke:#0000ff;stroke-linecap:round;"/>
   </g>
   <g id="patch_16">
    <path clip-path="url(#p21869853ca)" d="M 112.525221 131.949004 
Q 116.374827 112.709738 114.244188 93.382013 
L 112.007736 93.628554 
Q 113.475734 89.819233 114.699066 85.791995 
Q 117.176357 89.193711 119.462576 92.806751 
L 117.226124 93.053292 
Q 119.407668 112.842797 115.466911 132.53761 
L 112.525221 131.949004 
z
" style="fill:#0000ff;opacity:0.5;stroke:#0000ff;stroke-linecap:round;"/>
   </g>
   <g id="text_1">
    <!-- $S$ -->
    <defs>
     <path d="M 60.296875 70.515625 
L 58.40625 60.890625 
Q 53.46875 63.53125 48.609375 64.875 
Q 43.75 66.21875 39.203125 66.21875 
Q 30.375 66.21875 25.140625 62.359375 
Q 19.921875 58.5 19.921875 52.09375 
Q 19.921875 48.578125 21.84375 46.703125 
Q 23.78125 44.828125 31.78125 42.671875 
L 37.703125 41.21875 
Q 47.703125 38.625 51.609375 34.640625 
Q 55.515625 30.671875 55.515625 23.484375 
Q 55.515625 12.453125 46.84375 5.515625 
Q 38.1875 -1.421875 24.03125 -1.421875 
Q 18.21875 -1.421875 12.359375 -0.265625 
Q 6.5 0.875 0.59375 3.21875 
L 2.59375 13.375 
Q 8.015625 10.015625 13.453125 8.296875 
Q 18.890625 6.59375 24.3125 6.59375 
Q 33.546875 6.59375 39.109375 10.6875 
Q 44.671875 14.796875 44.671875 21.390625 
Q 44.671875 25.78125 42.453125 28.046875 
Q 40.234375 30.328125 32.90625 32.171875 
L 27 33.6875 
Q 16.890625 36.328125 13.203125 39.765625 
Q 9.515625 43.21875 9.515625 49.421875 
Q 9.515625 60.296875 17.890625 67.25 
Q 26.265625 74.21875 39.703125 74.21875 
Q 44.921875 74.21875 50.046875 73.28125 
Q 55.171875 72.359375 60.296875 70.515625 
z
" id="DejaVuSans-Oblique-53"/>
    </defs>
    <g transform="translate(62.056 113.495)scale(0.16 -0.16)">
     <use transform="translate(0 0.78125)" xlink:href="#DejaVuSans-Oblique-53"/>
    </g>
   </g>
   <g id="text_2">
    <!-- $D$ -->
    <defs>
     <path d="M 16.890625 72.90625 
L 38.09375 72.90625 
Q 54.984375 72.90625 63.59375 65.75 
Q 72.21875 58.59375 72.21875 44.484375 
Q 72.21875 35.15625 68.9375 26.53125 
Q 65.671875 17.921875 59.90625 12.015625 
Q 54.109375 5.953125 45.171875 2.96875 
Q 36.234375 0 24.03125 0 
L 2.6875 0 
z
M 25.203125 64.796875 
L 14.203125 8.109375 
L 27.09375 8.109375 
Q 43.65625 8.109375 52.734375 17.625 
Q 61.8125 27.15625 61.8125 44.484375 
Q 61.8125 54.984375 55.953125 59.890625 
Q 50.09375 64.796875 37.59375 64.796875 
z
" id="DejaVuSans-Oblique-44"/>
    </defs>
    <g transform="translate(104.46 70.2518)scale(0.16 -0.16)">
     <use transform="translate(0 0.09375)" xlink:href="#DejaVuSans-Oblique-44"/>
    </g>
   </g>
   <g id="text_3">
    <!-- $B$ -->
    <defs>
     <path d="M 16.890625 72.90625 
L 42.09375 72.90625 
Q 52.34375 72.90625 57.421875 69.09375 
Q 62.5 65.28125 62.5 57.625 
Q 62.5 50.59375 58.125 45.484375 
Q 53.765625 40.375 46.6875 39.3125 
Q 52.734375 37.9375 55.765625 34.078125 
Q 58.796875 30.21875 58.796875 23.78125 
Q 58.796875 12.796875 50.65625 6.390625 
Q 42.53125 0 28.421875 0 
L 2.6875 0 
z
M 19.28125 34.8125 
L 14.109375 8.109375 
L 29.984375 8.109375 
Q 38.921875 8.109375 43.75 12.203125 
Q 48.578125 16.3125 48.578125 23.78125 
Q 48.578125 29.546875 45.375 32.171875 
Q 42.1875 34.8125 35.109375 34.8125 
z
M 25.09375 64.796875 
L 20.796875 42.828125 
L 35.5 42.828125 
Q 43.359375 42.828125 47.78125 46.234375 
Q 52.203125 49.65625 52.203125 55.71875 
Q 52.203125 60.453125 49.21875 62.625 
Q 46.234375 64.796875 39.703125 64.796875 
z
" id="DejaVuSans-Oblique-42"/>
    </defs>
    <g transform="translate(148.704 113.495)scale(0.16 -0.16)">
     <use transform="translate(0 0.09375)" xlink:href="#DejaVuSans-Oblique-42"/>
    </g>
   </g>
   <g id="text_4">
    <!-- $E$ -->
    <defs>
     <path d="M 16.890625 72.90625 
L 62.984375 72.90625 
L 61.375 64.59375 
L 25.09375 64.59375 
L 20.90625 43.015625 
L 55.71875 43.015625 
L 54.109375 34.71875 
L 19.28125 34.71875 
L 14.203125 8.296875 
L 51.3125 8.296875 
L 49.703125 0 
L 2.6875 0 
z
" id="DejaVuSans-Oblique-45"/>
    </defs>
    <g transform="translate(105.58 156.7382)scale(0.16 -0.16)">
     <use transform="translate(0 0.09375)" xlink:href="#DejaVuSans-Oblique-45"/>
    </g>
   </g>
  </g>
 </g>
 <defs>
  <clipPath id="p21869853ca">
   <rect height="166.32" width="167.4" x="27" y="25.92"/>
  </clipPath>
 </defs>
</svg>
