<?xml version="1.0" encoding="utf-8" standalone="no"?>
<!DOCTYPE svg PUBLIC "-//W3C//DTD SVG 1.1//EN"
  "http://www.w3.org/Graphics/SVG/1.1/DTD/svg11.dtd">
<!-- Created with matplotlib (http://matplotlib.org/) -->
<svg height="216pt" version="1.1" viewBox="0 0 216 216" width="216pt" xmlns="http://www.w3.org/2000/svg" xmlns:xlink="http://www.w3.org/1999/xlink">
 <defs>
  <style type="text/css">
*{stroke-linecap:butt;stroke-linejoin:round;}
  </style>
 </defs>
 <g id="figure_1">
  <g id="patch_1">
   <path d="M 0 216 
L 216 216 
L 216 0 
L 0 0 
z
" style="fill:none;"/>
  </g>
  <g id="axes_1">
   <g id="patch_2">
    <path clip-path="url(#p9269e58ea5)" d="M 80.568 127.04256 
C 85.36266 127.04256 89.961588 125.149911 93.351925 121.781448 
C 96.742261 118.412985 98.6472 113.843727 98.6472 109.08 
C 98.6472 104.316273 96.742261 99.747015 93.351925 96.378552 
C 89.961588 93.010089 85.36266 91.11744 80.568 91.11744 
C 75.77334 91.11744 71.174412 93.010089 67.784075 96.378552 
C 64.393739 99.747015 62.4888 104.316273 62.4888 109.08 
C 62.4888 113.843727 64.393739 118.412985 67.784075 121.781448 
C 71.174412 125.149911 75.77334 127.04256 80.568 127.04256 
z
" style="fill:#0000ff;opacity:0.3;stroke:#0000ff;stroke-linejoin:miter;"/>
   </g>
   <g id="patch_3">
    <path clip-path="url(#p9269e58ea5)" d="M 63.564069 120.137781 
Q 60.531561 121.299032 57.73484 122.868701 
L 58.836069 124.83079 
Q 54.920602 124.863511 50.785592 125.759868 
Q 52.557165 121.919168 55.165306 118.290492 
L 56.266535 120.252582 
Q 59.254221 118.575733 62.491236 117.336169 
L 63.564069 120.137781 
z
" style="fill:#008000;opacity:0.5;stroke:#008000;stroke-linecap:round;"/>
   </g>
   <g id="patch_4">
    <path clip-path="url(#p9269e58ea5)" d="M 140.832 127.04256 
C 145.62666 127.04256 150.225588 125.149911 153.615925 121.781448 
C 157.006261 118.412985 158.9112 113.843727 158.9112 109.08 
C 158.9112 104.316273 157.006261 99.747015 153.615925 96.378552 
C 150.225588 93.010089 145.62666 91.11744 140.832 91.11744 
C 136.03734 91.11744 131.438412 93.010089 128.048075 96.378552 
C 124.657739 99.747015 122.7528 104.316273 122.7528 109.08 
C 122.7528 113.843727 124.657739 118.412985 128.048075 121.781448 
C 131.438412 125.149911 136.03734 127.04256 140.832 127.04256 
z
" style="fill:#0000ff;opacity:0.3;stroke:#0000ff;stroke-linejoin:miter;"/>
   </g>
   <g id="patch_5">
    <path clip-path="url(#p9269e58ea5)" d="M 169.673669 126.928209 
Q 167.140334 124.896751 164.373482 123.275013 
L 163.235723 125.216147 
Q 161.230798 121.852781 158.369538 118.735899 
Q 162.579241 118.326211 167.028254 118.745699 
L 165.890495 120.686833 
Q 168.846273 122.419307 171.550451 124.587762 
L 169.673669 126.928209 
z
" style="fill:#0000ff;opacity:0.5;stroke:#0000ff;stroke-linecap:round;"/>
   </g>
   <g id="patch_6">
    <path clip-path="url(#p9269e58ea5)" d="M 157.835931 98.022219 
Q 160.868439 96.860968 163.66516 95.291299 
L 162.563931 93.32921 
Q 166.479398 93.296489 170.614408 92.400132 
Q 168.842835 96.240832 166.234694 99.869508 
L 165.133465 97.907418 
Q 162.145779 99.584267 158.908764 100.823831 
L 157.835931 98.022219 
z
" style="fill:#008000;opacity:0.5;stroke:#008000;stroke-linecap:round;"/>
   </g>
   <g id="patch_7">
    <path clip-path="url(#p9269e58ea5)" d="M 100.68924 110.878755 
Q 107.178597 112.289793 113.732967 112.285625 
L 113.731536 110.035625 
Q 117.242478 111.915085 121.222534 113.332836 
Q 117.692743 115.651414 113.736306 117.535623 
L 113.734875 115.285624 
Q 106.857148 115.289998 100.051818 113.810255 
L 100.68924 110.878755 
z
" style="fill:#008000;opacity:0.5;stroke:#008000;stroke-linecap:round;"/>
   </g>
   <g id="patch_8">
    <path clip-path="url(#p9269e58ea5)" d="M 120.71076 107.281245 
Q 114.221403 105.870207 107.667033 105.874375 
L 107.668464 108.124375 
Q 104.157522 106.244915 100.177466 104.827164 
Q 103.707257 102.508586 107.663694 100.624377 
L 107.665125 102.874376 
Q 114.542852 102.870002 121.348182 104.349745 
L 120.71076 107.281245 
z
" style="fill:#008000;opacity:0.5;stroke:#008000;stroke-linecap:round;"/>
   </g>
   <g id="text_1">
    <!-- $X$ -->
    <defs>
     <path d="M 13.71875 72.90625 
L 23.6875 72.90625 
L 36.1875 46.578125 
L 58.796875 72.90625 
L 70.3125 72.90625 
L 40.28125 38.09375 
L 58.40625 0 
L 48.484375 0 
L 33.796875 30.71875 
L 7.171875 0 
L -4.296875 0 
L 29.78125 39.203125 
z
" id="DejaVuSans-Oblique-58"/>
    </defs>
    <g transform="translate(75.048 113.495)scale(0.16 -0.16)">
     <use transform="translate(0 0.09375)" xlink:href="#DejaVuSans-Oblique-58"/>
    </g>
   </g>
   <g id="text_2">
    <!-- $S$ -->
    <defs>
     <path d="M 60.296875 70.515625 
L 58.40625 60.890625 
Q 53.46875 63.53125 48.609375 64.875 
Q 43.75 66.21875 39.203125 66.21875 
Q 30.375 66.21875 25.140625 62.359375 
Q 19.921875 58.5 19.921875 52.09375 
Q 19.921875 48.578125 21.84375 46.703125 
Q 23.78125 44.828125 31.78125 42.671875 
L 37.703125 41.21875 
Q 47.703125 38.625 51.609375 34.640625 
Q 55.515625 30.671875 55.515625 23.484375 
Q 55.515625 12.453125 46.84375 5.515625 
Q 38.1875 -1.421875 24.03125 -1.421875 
Q 18.21875 -1.421875 12.359375 -0.265625 
Q 6.5 0.875 0.59375 3.21875 
L 2.59375 13.375 
Q 8.015625 10.015625 13.453125 8.296875 
Q 18.890625 6.59375 24.3125 6.59375 
Q 33.546875 6.59375 39.109375 10.6875 
Q 44.671875 14.796875 44.671875 21.390625 
Q 44.671875 25.78125 42.453125 28.046875 
Q 40.234375 30.328125 32.90625 32.171875 
L 27 33.6875 
Q 16.890625 36.328125 13.203125 39.765625 
Q 9.515625 43.21875 9.515625 49.421875 
Q 9.515625 60.296875 17.890625 67.25 
Q 26.265625 74.21875 39.703125 74.21875 
Q 44.921875 74.21875 50.046875 73.28125 
Q 55.171875 72.359375 60.296875 70.515625 
z
" id="DejaVuSans-Oblique-53"/>
    </defs>
    <g transform="translate(135.712 113.495)scale(0.16 -0.16)">
     <use transform="translate(0 0.78125)" xlink:href="#DejaVuSans-Oblique-53"/>
    </g>
   </g>
  </g>
 </g>
 <defs>
  <clipPath id="p9269e58ea5">
   <rect height="166.32" width="167.4" x="27" y="25.92"/>
  </clipPath>
 </defs>
</svg>
