<?xml version="1.0" encoding="utf-8" standalone="no"?>
<!DOCTYPE svg PUBLIC "-//W3C//DTD SVG 1.1//EN"
  "http://www.w3.org/Graphics/SVG/1.1/DTD/svg11.dtd">
<!-- Created with matplotlib (http://matplotlib.org/) -->
<svg height="504pt" version="1.1" viewBox="0 0 432 504" width="432pt" xmlns="http://www.w3.org/2000/svg" xmlns:xlink="http://www.w3.org/1999/xlink">
 <defs>
  <style type="text/css">
*{stroke-linecap:butt;stroke-linejoin:round;}
  </style>
 </defs>
 <g id="figure_1">
  <g id="patch_1">
   <path d="M 0 504 
L 432 504 
L 432 0 
L 0 0 
z
" style="fill:#ffffff;"/>
  </g>
  <g id="axes_1">
   <g id="patch_2">
    <path d="M 23.655677 480.344323 
L 417.7 480.344323 
L 417.7 14.3 
L 23.655677 14.3 
z
" style="fill:#ffffff;"/>
   </g>
   <g id="PathCollection_1">
    <defs>
     <path d="M 0 3.872983 
C 1.027127 3.872983 2.012324 3.464901 2.738613 2.738613 
C 3.464901 2.012324 3.872983 1.027127 3.872983 0 
C 3.872983 -1.027127 3.464901 -2.012324 2.738613 -2.738613 
C 2.012324 -3.464901 1.027127 -3.872983 0 -3.872983 
C -1.027127 -3.872983 -2.012324 -3.464901 -2.738613 -2.738613 
C -3.464901 -2.012324 -3.872983 -1.027127 -3.872983 0 
C -3.872983 1.027127 -3.464901 2.012324 -2.738613 2.738613 
C -2.012324 3.464901 -1.027127 3.872983 0 3.872983 
z
" id="mb6d96d6adc" style="stroke:#1f77b4;"/>
    </defs>
    <g clip-path="url(#peb50c4a11b)">
     <use style="fill:#1f77b4;stroke:#1f77b4;" x="44.81898" xlink:href="#mb6d96d6adc" y="435.000001"/>
    </g>
   </g>
   <g id="patch_3">
    <path clip-path="url(#peb50c4a11b)" d="M 329.637499 318.239853 
Q 333.276225 313.996072 336.914951 309.752292 
Q 338.12674 315.209541 339.338528 320.666791 
z
" style="fill:#1f77b4;stroke:#000000;stroke-linecap:round;"/>
   </g>
   <g id="matplotlib.axis_1">
    <g id="text_1">
     <!-- $S$ -->
     <defs>
      <path d="M 63.5 69.109375 
C 63.5 70 62.796875 70 62.59375 70 
C 62.203125 70 62.09375 69.90625 60.90625 68.40625 
C 60.296875 67.703125 56.203125 62.515625 56.09375 62.421875 
C 52.796875 68.90625 46.203125 70 42 70 
C 29.296875 70 17.796875 58.484375 17.796875 47.265625 
C 17.796875 39.828125 22.296875 35.453125 27.203125 33.765625 
C 28.296875 33.359375 34.203125 31.765625 37.203125 31.078125 
C 42.296875 29.6875 43.59375 29.296875 45.703125 27.109375 
C 46.09375 26.609375 48.09375 24.328125 48.09375 19.65625 
C 48.09375 10.421875 39.5 0.890625 29.5 0.890625 
C 21.296875 0.890625 12.203125 4.375 12.203125 15.484375 
C 12.203125 17.375 12.59375 19.765625 12.90625 20.75 
C 12.90625 21.0625 13 21.53125 13 21.734375 
C 13 22.140625 12.796875 22.640625 12 22.640625 
C 11.09375 22.640625 11 22.4375 10.59375 20.75 
L 5.5 0.375 
C 5.5 0.28125 5.09375 -1 5.09375 -1.109375 
C 5.09375 -2 5.90625 -2 6.09375 -2 
C 6.5 -2 6.59375 -1.90625 7.796875 -0.40625 
L 12.40625 5.5625 
C 14.796875 1.96875 20 -2 29.296875 -2 
C 42.203125 -2 54 10.40625 54 22.8125 
C 54 27 53 30.671875 49.203125 34.328125 
C 47.09375 36.421875 45.296875 36.921875 36.09375 39.3125 
C 29.40625 41.09375 28.5 41.390625 26.703125 42.984375 
C 25 44.65625 23.703125 47.046875 23.703125 50.421875 
C 23.703125 58.765625 32.203125 67.3125 41.703125 67.3125 
C 51.5 67.3125 56.09375 61.34375 56.09375 51.921875 
C 56.09375 49.34375 55.59375 46.65625 55.59375 46.265625 
C 55.59375 45.359375 56.40625 45.359375 56.703125 45.359375 
C 57.59375 45.359375 57.703125 45.65625 58.09375 47.25 
z
" id="CMMI12-83"/>
     </defs>
     <g transform="translate(217.623321 491.262822)scale(0.1 -0.1)">
      <use transform="scale(0.996264)" xlink:href="#CMMI12-83"/>
     </g>
    </g>
   </g>
   <g id="matplotlib.axis_2">
    <g id="text_2">
     <!-- $X$ -->
     <defs>
      <path d="M 47.5 40.5625 
L 38.09375 62.40625 
C 39.40625 64.796875 42.40625 65.1875 43.59375 65.296875 
C 44.203125 65.296875 45.296875 65.296875 45.296875 67.0625 
C 45.296875 68.1875 44.40625 68.1875 43.796875 68.1875 
C 42.09375 68.1875 40.09375 68.1875 38.40625 68.1875 
L 32.59375 68.1875 
C 26.5 68.1875 22.09375 68.1875 22 68.1875 
C 21.203125 68.1875 20.203125 68.1875 20.203125 66.296875 
C 20.203125 65.296875 21.09375 65.296875 22.40625 65.296875 
C 28.203125 65.296875 28.59375 64.296875 29.59375 61.90625 
L 41.5 34.140625 
L 19.796875 10.828125 
C 16.203125 6.90625 11.90625 3.09375 4.5 3.09375 
C 3.296875 3 2.5 3 2.5 1.0625 
C 2.5 0.75 2.59375 0 3.703125 0 
C 5.09375 0 6.59375 0 8 0 
L 12.703125 0 
C 15.90625 0 19.40625 0 22.5 0 
C 23.203125 0 24.40625 0 24.40625 1.796875 
C 24.40625 2.796875 23.703125 2.890625 23.09375 2.890625 
C 21.09375 3.09375 19.796875 4.1875 19.796875 5.78125 
C 19.796875 7.484375 21 8.703125 23.90625 11.6875 
L 32.796875 21.375 
C 35 23.6875 40.296875 29.46875 42.5 31.65625 
L 53 7.078125 
C 53.09375 6.890625 53.5 5.890625 53.5 5.78125 
C 53.5 4.890625 51.296875 3.09375 48.09375 3.09375 
C 47.5 3.09375 46.40625 3.09375 46.40625 1.109375 
C 46.40625 0 47.40625 0 47.90625 0 
C 49.59375 0 51.59375 0 53.296875 0 
L 64.296875 0 
C 66.09375 0 68 0 69.703125 0 
C 70.40625 0 71.5 0 71.5 2.03125 
C 71.5 3.09375 70.5 3.09375 69.59375 3.09375 
C 63.59375 3.09375 63.40625 3.59375 61.703125 7.265625 
L 48.5 38.140625 
L 61.203125 51.8125 
C 62.203125 52.828125 64.5 55.34375 65.40625 56.34375 
C 69.703125 60.875 73.703125 65 81.796875 65 
C 82.796875 65.296875 83.796875 65.296875 83.796875 67.0625 
C 83.796875 68.1875 82.90625 68.1875 82.5 68.1875 
C 81.09375 68.1875 79.59375 68.1875 78.203125 68.1875 
L 73.59375 68.1875 
C 70.40625 68.1875 66.90625 68.1875 63.796875 68.1875 
C 63.09375 68.1875 61.90625 68.1875 61.90625 66.390625 
C 61.90625 65.390625 62.59375 65.296875 63.203125 65.296875 
C 64.796875 65.109375 66.5 64.3125 66.5 62.40625 
L 66.40625 62.21875 
C 66.296875 61.515625 66.09375 60.515625 65 59.328125 
z
" id="CMMI12-88"/>
     </defs>
     <g transform="translate(17.718498 251.44905)rotate(-90)scale(0.1 -0.1)">
      <use transform="scale(0.996264)" xlink:href="#CMMI12-88"/>
     </g>
    </g>
   </g>
   <g id="line2d_1">
    <path clip-path="url(#peb50c4a11b)" d="M 44.81898 435.000001 
L 69.644412 439.047359 
L 92.550821 442.287095 
L 113.6933 444.937749 
L 133.211792 447.140639 
L 151.233825 448.992599 
L 183.246152 451.90293 
L 210.555627 454.039345 
L 233.861616 455.623503 
L 253.758234 456.798209 
L 278.295096 457.996982 
L 297.680269 458.705273 
L 313.013836 459.062115 
L 325.160559 459.16049 
L 334.800383 459.06498 
L 342.467998 458.821711 
L 350.337095 458.32441 
L 356.194753 457.680271 
L 360.590894 456.928368 
L 363.924794 456.09593 
L 366.486355 455.202153 
L 368.486068 454.260683 
L 370.076766 453.281282 
L 371.655989 452.014178 
L 372.919578 450.708175 
L 374.160416 449.098436 
L 375.367288 447.170425 
L 376.696701 444.622386 
L 378.263718 441.115573 
L 380.174608 436.257608 
L 382.300486 430.227446 
L 384.414115 423.578584 
L 386.504722 416.268502 
L 388.461131 408.625441 
L 390.278683 400.653701 
L 392.028394 391.955216 
L 393.614487 382.908019 
L 395.031378 373.519769 
L 396.273666 363.799339 
L 397.33616 353.756964 
L 398.213908 343.404389 
L 398.928952 332.264153 
L 399.431985 320.817005 
L 399.718445 309.082768 
L 399.784236 297.083818 
L 399.625783 284.845276 
L 399.24009 272.395174 
L 398.624798 259.764626 
L 397.77825 246.987964 
L 396.699547 234.102873 
L 395.38862 221.150465 
L 393.846287 208.175355 
L 392.156105 195.787476 
L 390.258235 183.467925 
L 388.155994 171.264635 
L 385.853635 159.228267 
L 383.474044 147.943578 
L 380.922284 136.907704 
L 378.337698 126.674358 
L 375.608788 116.756345 
L 372.742436 107.198911 
L 369.899021 98.495101 
L 367.103627 90.623578 
L 364.216004 83.150319 
L 361.410422 76.487914 
L 358.535069 70.237983 
L 355.77102 64.756592 
L 353.134006 59.990608 
L 350.457782 55.603034 
L 347.92909 51.863894 
L 345.37494 48.481394 
L 342.98425 45.670237 
L 340.578943 43.185689 
L 338.348823 41.189222 
L 336.112232 39.483856 
L 334.058835 38.180829 
L 332.004726 37.130425 
L 329.952185 36.335771 
L 328.089524 35.837523 
L 326.231771 35.554467 
L 324.380642 35.487883 
L 322.537853 35.63869 
L 320.70511 36.007439 
L 318.884108 36.594309 
L 317.076527 37.399091 
L 315.105675 38.535318 
L 313.155262 39.933166 
L 311.227438 41.590733 
L 309.324314 43.505547 
L 307.278777 45.884244 
L 305.26771 48.560767 
L 303.130896 51.790047 
L 301.040637 55.354452 
L 298.845087 59.557512 
L 296.710576 64.126356 
L 294.495177 69.411887 
L 292.357642 75.083322 
L 290.167527 81.536027 
L 288.074207 88.380018 
L 285.960231 96.050495 
L 283.849918 104.583307 
L 281.875276 113.498431 
L 279.941926 123.276749 
L 278.166898 133.383153 
L 276.472284 144.319926 
L 274.887056 156.069351 
L 273.502027 168.024785 
L 272.266156 180.699047 
L 271.249695 193.454933 
L 270.45087 206.223547 
L 269.84543 219.515977 
L 269.470652 232.683073 
L 269.321397 245.662148 
L 269.391693 258.3966 
L 269.674846 270.835973 
L 270.163549 282.935907 
L 270.849978 294.657974 
L 271.725893 305.969416 
L 272.782719 316.842834 
L 274.011626 327.255809 
L 275.4036 337.190495 
L 276.949501 346.633205 
L 278.640123 355.573958 
L 280.466233 364.006087 
L 282.331229 371.592144 
L 284.303733 378.708179 
L 286.375785 385.3548 
L 288.539505 391.534131 
L 290.683234 396.999773 
L 292.896711 402.04655 
L 295.17335 406.678988 
L 297.39436 410.710265 
L 299.661255 414.375072 
L 301.9686 417.678415 
L 304.193172 420.486503 
L 306.444908 422.977588 
L 308.719361 425.156257 
L 310.891095 426.936244 
L 313.075621 428.443858 
L 315.269324 429.682953 
L 317.34637 430.610081 
L 319.425461 431.304238 
L 321.503675 431.768514 
L 323.578127 432.005932 
L 325.645968 432.01945 
L 327.704386 431.811954 
L 329.750603 431.386263 
L 331.781875 430.745127 
L 333.913331 429.834436 
L 336.021815 428.688337 
L 338.104189 427.309881 
L 340.270502 425.606073 
L 342.400675 423.65017 
L 344.600022 421.322739 
L 346.751315 418.723732 
L 348.95406 415.706819 
L 351.094818 412.39946 
L 353.266129 408.628176 
L 355.359389 404.548747 
L 357.458939 399.960572 
L 359.462171 395.048555 
L 361.443939 389.585399 
L 363.308919 383.785951 
L 365.121151 377.397168 
L 366.794014 370.664664 
L 368.321428 363.600609 
L 369.749423 355.916552 
L 371.007678 347.90458 
L 372.090439 339.582618 
L 372.992389 330.970352 
L 373.73248 321.742745 
L 374.267573 312.251906 
L 374.593536 302.526925 
L 374.706969 292.599597 
L 374.605271 282.504553 
L 374.286699 272.27935 
L 373.750436 261.964547 
L 372.996652 251.603716 
L 372.02657 241.24343 
L 370.842521 230.933179 
L 369.448001 220.725232 
L 367.847722 210.674435 
L 366.117797 201.197732 
L 364.209047 191.972448 
L 362.212111 183.38937 
L 360.064555 175.137481 
L 357.869247 167.572858 
L 355.650511 160.692475 
L 353.32759 154.211569 
L 351.016278 148.420335 
L 348.736146 143.293645 
L 346.504513 138.799831 
L 344.336491 134.901922 
L 342.127919 131.383349 
L 340.003878 128.414481 
L 337.974553 125.947754 
L 336.048249 123.934118 
L 334.11018 122.226411 
L 332.286161 120.908835 
L 330.458737 119.869999 
L 328.753061 119.155101 
L 327.050135 118.688476 
L 325.473723 118.478967 
L 323.904268 118.485835 
L 322.343961 118.709443 
L 320.79498 119.14966 
L 319.259476 119.805854 
L 317.623366 120.75275 
L 316.007964 121.946733 
L 314.303064 123.497062 
L 312.627953 125.323658 
L 310.877367 127.570788 
L 309.062155 130.288323 
L 307.297045 133.336034 
L 305.486998 136.910399 
L 303.646798 141.054859 
L 301.793006 145.808991 
L 300.02966 150.940935 
L 298.280617 156.707793 
L 296.566088 163.130959 
L 294.907758 170.222949 
L 293.328608 177.985997 
L 291.852675 186.410734 
L 290.553035 195.121599 
L 289.39135 204.420236 
L 288.391842 214.264706 
L 287.603652 224.229607 
L 287.00861 234.616595 
L 286.637621 244.985065 
L 286.486977 255.26633 
L 286.557957 265.755195 
L 286.853245 276.018222 
L 287.364974 285.997733 
L 288.084305 295.642668 
L 289.00157 304.908444 
L 290.065304 313.458949 
L 291.294064 321.590996 
L 292.677619 329.280159 
L 294.205421 336.506459 
L 295.805181 343.021386 
L 297.519227 349.080044 
L 299.268553 354.475384 
L 301.10577 359.434857 
L 302.946917 363.789521 
L 304.853182 367.736797 
L 306.737149 371.142751 
L 308.666945 374.173897 
L 310.552975 376.728504 
L 312.384949 378.853144 
L 314.23897 380.66818 
L 316.024557 382.114237 
L 317.821118 383.283002 
L 319.53833 384.140796 
L 321.257795 384.752064 
L 322.975824 385.119475 
L 324.603305 385.2452 
L 326.223122 385.155888 
L 327.832237 384.854146 
L 329.511184 384.309991 
L 331.171506 383.536695 
L 332.89109 382.481794 
L 334.582546 381.181982 
L 336.320255 379.56212 
L 338.094873 377.59148 
L 339.821781 375.34332 
L 341.567877 372.708152 
L 343.320557 369.656773 
L 345.06574 366.160806 
L 346.787809 362.193119 
L 348.411423 357.893773 
L 349.984432 353.098651 
L 351.487709 347.787201 
L 352.855947 342.142653 
L 354.122318 335.97379 
L 355.264682 329.271619 
L 356.231539 322.263884 
L 357.039283 314.741379 
L 357.648242 306.960804 
L 358.053907 298.960503 
L 358.255714 290.523684 
L 358.235232 281.945443 
L 357.991398 273.277468 
L 357.524626 264.57464 
L 356.836881 255.894873 
L 355.931743 247.298856 
L 354.814463 238.849706 
L 353.535008 230.858359 
L 352.07051 223.126904 
L 350.484208 215.942701 
L 348.801502 209.329657 
L 347.046554 203.301829 
L 345.242047 197.863903 
L 343.408987 193.011919 
L 341.566566 188.734051 
L 339.73208 185.011545 
L 337.920891 181.819724 
L 336.146437 179.128992 
L 334.420276 176.905847 
L 332.752167 175.113871 
L 331.150171 173.714664 
L 329.620781 172.668706 
L 328.169055 171.936121 
L 326.718255 171.457446 
L 325.352156 171.239984 
L 323.993125 171.251095 
L 322.644166 171.490675 
L 321.308246 171.957888 
L 319.988293 172.651154 
L 318.611288 173.629009 
L 317.184377 174.929264 
L 315.715985 176.589554 
L 314.215901 178.646557 
L 312.69533 181.135098 
L 311.166931 184.087165 
L 309.644814 187.530813 
L 308.144504 191.48901 
L 306.682865 195.97847 
L 305.277969 201.008451 
L 303.903943 206.784776 
L 302.636116 213.115434 
L 301.495982 219.976442 
L 300.505113 227.33197 
L 299.684757 235.134158 
L 299.070779 243.080988 
L 298.654028 251.341673 
L 298.451782 259.841812 
L 298.475491 268.2595 
L 298.719166 276.520787 
L 299.175138 284.558028 
L 299.834245 292.310222 
L 300.686015 299.723136 
L 301.718856 306.749284 
L 302.883679 313.165475 
L 304.195323 319.146188 
L 305.596695 324.509342 
L 307.064757 329.275446 
L 308.628875 333.599016 
L 310.224863 337.354826 
L 311.834962 340.57684 
L 313.443558 343.301113 
L 315.037066 345.564855 
L 316.603811 347.405692 
L 318.133889 348.861071 
L 319.619027 349.967817 
L 321.052441 350.761781 
L 322.428695 351.277587 
L 323.803231 351.555609 
L 325.171936 351.598281 
L 326.530756 351.4084 
L 327.875703 350.989107 
L 329.20286 350.343877 
L 330.564598 349.433826 
L 331.95343 348.233727 
L 333.360738 346.718805 
L 334.776723 344.865052 
L 336.190362 342.649588 
L 337.636362 339.956095 
L 339.048699 336.839149 
L 340.411612 333.282546 
L 341.708096 329.273611 
L 342.919993 324.803968 
L 344.028115 319.870382 
L 345.012417 314.47572 
L 345.852224 308.630007 
L 346.526523 302.35159 
L 347.014318 295.668373 
L 347.290785 288.797263 
L 347.353286 281.796875 
L 347.194396 274.547449 
L 346.811131 267.296831 
L 346.207228 260.117499 
L 345.411789 253.257454 
L 344.420201 246.606307 
L 343.274852 240.393987 
L 342.000374 234.661853 
L 340.620953 229.440715 
L 339.159936 224.751074 
L 337.639508 220.60355 
L 336.128753 217.102313 
L 334.602147 214.110808 
L 333.127345 211.690331 
L 331.669229 209.716408 
L 330.292586 208.214366 
L 328.954796 207.078654 
L 327.717158 206.306032 
L 326.531713 205.81416 
L 325.34894 205.56564 
L 324.226248 205.55593 
L 323.113375 205.767955 
L 322.013857 206.200277 
L 320.880088 206.886872 
L 319.718758 207.856241 
L 318.537667 209.13588 
L 317.298962 210.822099 
L 316.063507 212.890836 
L 314.801082 215.455814 
L 313.572673 218.460429 
L 312.357073 222.029154 
L 311.180875 226.193562 
L 310.102331 230.834329 
L 309.115785 236.073113 
L 308.273631 241.743377 
L 307.57981 247.952328 
L 307.077093 254.487302 
L 306.7818 261.270446 
L 306.706948 268.053668 
L 306.853895 274.908983 
L 307.219505 281.588944 
L 307.793734 288.015358 
L 308.544321 293.980275 
L 309.469174 299.578575 
L 310.526149 304.641979 
L 311.689952 309.161207 
L 312.936831 313.137728 
L 314.24479 316.581745 
L 315.556409 319.436852 
L 316.887995 321.821652 
L 318.184626 323.710435 
L 319.471309 325.204667 
L 320.696352 326.302177 
L 321.891278 327.083831 
L 323.049199 327.578836 
L 324.164518 327.816085 
L 325.27374 327.819855 
L 326.37213 327.593047 
L 327.455045 327.139218 
L 328.556872 326.433288 
L 329.670106 325.455282 
L 330.822741 324.139654 
L 332.000455 322.442601 
L 333.153265 320.387191 
L 334.298682 317.88793 
L 335.41487 314.910772 
L 336.477129 311.428017 
L 337.458027 307.420491 
L 338.309767 302.98676 
L 339.01264 298.151624 
L 339.557087 292.831658 
L 339.906124 287.182871 
L 340.041897 281.391394 
L 339.959438 275.409221 
L 339.655661 269.443026 
L 339.135951 263.579573 
L 338.408964 257.906446 
L 337.507694 252.619676 
L 336.45768 247.779544 
L 335.312415 243.525634 
L 334.105288 239.862575 
L 332.866219 236.778319 
L 331.62134 234.247037 
L 330.392877 232.232027 
L 329.199208 230.688595 
L 328.055038 229.5667 
L 326.971697 228.813339 
L 325.957485 228.374586 
L 324.98204 228.194879 
L 324.049802 228.247659 
L 323.128961 228.520666 
L 322.189381 229.034454 
L 321.237905 229.810446 
L 320.250014 230.909281 
L 319.238772 232.375191 
L 318.219835 234.248923 
L 317.184614 236.634527 
L 316.185931 239.507724 
L 315.226795 242.969299 
L 314.36157 246.947599 
L 313.619061 251.422061 
L 313.028561 256.352185 
L 312.61882 261.676197 
L 312.418571 267.20201 
L 312.438586 272.8287 
L 312.678748 278.344395 
L 313.129058 283.652531 
L 313.776149 288.665585 
L 314.586204 293.220783 
L 315.531808 297.277764 
L 316.563369 300.744599 
L 317.64923 303.639447 
L 318.761739 305.993072 
L 319.877312 307.845126 
L 320.948499 309.210581 
L 321.986335 310.185805 
L 322.979108 310.819521 
L 323.918028 311.160009 
L 324.825099 311.253443 
L 325.695258 311.124159 
L 326.579268 310.767443 
L 327.470147 310.167063 
L 328.385697 309.279415 
L 329.338088 308.033682 
L 330.285289 306.41968 
L 331.230523 304.358595 
L 332.14702 301.807605 
L 332.987535 298.80061 
L 333.739177 295.266969 
L 334.354788 291.284217 
L 334.805687 286.888525 
L 335.061294 282.220869 
L 335.10739 277.363244 
L 334.933676 272.410765 
L 334.543172 267.553166 
L 333.94635 262.895348 
L 333.188393 258.68362 
L 332.287108 254.905749 
L 331.309773 251.730355 
L 330.273098 249.095364 
L 329.228592 247.03253 
L 328.227664 245.523131 
L 327.269436 244.459573 
L 326.369316 243.777252 
L 325.53806 243.410131 
L 324.733939 243.293318 
L 323.962433 243.404701 
L 323.181045 243.748594 
L 322.397054 244.341217 
L 321.575134 245.252466 
L 320.731433 246.53605 
L 319.88602 248.240439 
L 319.046078 250.455625 
L 318.261014 253.170245 
L 317.5513 256.452916 
L 316.969415 260.230529 
L 316.55699 264.379576 
L 316.338564 268.812122 
L 316.33464 273.41948 
L 316.549874 277.934246 
L 316.972653 282.241115 
L 317.575298 286.175584 
L 318.329556 289.667607 
L 319.190535 292.621483 
L 320.106992 294.992583 
L 321.02653 296.786767 
L 321.937836 298.100019 
L 322.800385 298.97395 
L 323.617297 299.498709 
L 324.377918 299.733904 
L 325.113864 299.731165 
L 325.838093 299.50289 
L 326.562522 299.039392 
L 327.31378 298.288864 
L 328.093121 297.180937 
L 328.877754 295.658112 
L 329.639379 293.671302 
L 330.344214 291.185381 
L 330.944957 288.236444 
L 331.413361 284.794777 
L 331.700559 281.019498 
L 331.783277 277.001764 
L 331.646951 272.914269 
L 331.296255 268.941835 
L 330.754579 265.260065 
L 330.061022 262.014689 
L 329.252103 259.266462 
L 328.393076 257.11317 
L 327.539037 255.543996 
L 326.723014 254.480838 
L 325.951796 253.824186 
L 325.240306 253.501248 
L 324.581463 253.440735 
L 323.948811 253.602859 
L 323.301117 254.004296 
L 322.633846 254.690025 
L 321.948274 255.724206 
L 321.2542 257.187769 
L 320.583845 259.136004 
L 319.976111 261.601938 
L 319.475459 264.586181 
L 319.133054 267.998349 
L 318.988188 271.693619 
L 319.063105 275.488469 
L 319.354861 279.137639 
L 319.838148 282.464563 
L 320.472578 285.332947 
L 321.208284 287.659362 
L 321.979913 289.394249 
L 322.747558 290.599635 
L 323.468227 291.342993 
L 324.134403 291.730081 
L 324.76031 291.842495 
L 325.351084 291.724234 
L 325.95108 291.370213 
L 326.57317 290.729424 
L 327.210267 289.735056 
L 327.845696 288.30762 
L 328.441993 286.393076 
L 328.947973 283.998804 
L 329.319321 281.14643 
L 329.509606 277.941477 
L 329.48783 274.581616 
L 329.248092 271.25627 
L 328.811224 268.192795 
L 328.216004 265.54759 
L 327.531646 263.475015 
L 326.818379 261.984194 
L 326.129182 261.024284 
L 325.494762 260.494244 
L 324.92258 260.286166 
L 324.389413 260.320517 
L 323.859086 260.5822 
L 323.310815 261.114257 
L 322.743092 261.993545 
L 322.175735 263.303362 
L 321.648555 265.098675 
L 321.209861 267.398537 
L 320.916026 270.136986 
L 320.814535 273.178796 
L 320.931351 276.266113 
L 321.25703 279.160738 
L 321.753766 281.65927 
L 322.356095 283.608377 
L 323.0036 284.992491 
L 323.634007 285.847911 
L 324.213968 286.28252 
L 324.732938 286.407734 
L 325.225385 286.296819 
L 325.717049 285.948505 
L 326.22668 285.300903 
L 326.743844 284.266733 
L 327.235727 282.762615 
L 327.645426 280.771922 
L 327.912899 278.371167 
L 327.912899 278.371167 
" style="fill:none;stroke:#1f77b4;stroke-linecap:square;stroke-width:1.5;"/>
   </g>
   <g id="patch_4">
    <path d="M 23.655677 480.344323 
L 23.655677 14.3 
" style="fill:none;stroke:#000000;stroke-linecap:square;stroke-linejoin:miter;stroke-width:0.8;"/>
   </g>
   <g id="patch_5">
    <path d="M 417.7 480.344323 
L 417.7 14.3 
" style="fill:none;stroke:#000000;stroke-linecap:square;stroke-linejoin:miter;stroke-width:0.8;"/>
   </g>
   <g id="patch_6">
    <path d="M 23.655677 480.344323 
L 417.7 480.344323 
" style="fill:none;stroke:#000000;stroke-linecap:square;stroke-linejoin:miter;stroke-width:0.8;"/>
   </g>
   <g id="patch_7">
    <path d="M 23.655677 14.3 
L 417.7 14.3 
" style="fill:none;stroke:#000000;stroke-linecap:square;stroke-linejoin:miter;stroke-width:0.8;"/>
   </g>
  </g>
 </g>
 <defs>
  <clipPath id="peb50c4a11b">
   <rect height="466.044323" width="394.044323" x="23.655677" y="14.3"/>
  </clipPath>
 </defs>
</svg>
