<?xml version="1.0" encoding="utf-8" standalone="no"?>
<!DOCTYPE svg PUBLIC "-//W3C//DTD SVG 1.1//EN"
  "http://www.w3.org/Graphics/SVG/1.1/DTD/svg11.dtd">
<!-- Created with matplotlib (http://matplotlib.org/) -->
<svg height="504pt" version="1.1" viewBox="0 0 432 504" width="432pt" xmlns="http://www.w3.org/2000/svg" xmlns:xlink="http://www.w3.org/1999/xlink">
 <defs>
  <style type="text/css">
*{stroke-linecap:butt;stroke-linejoin:round;}
  </style>
 </defs>
 <g id="figure_1">
  <g id="patch_1">
   <path d="M 0 504 
L 432 504 
L 432 0 
L 0 0 
z
" style="fill:#ffffff;"/>
  </g>
  <g id="axes_1">
   <g id="patch_2">
    <path d="M 23.655677 480.344323 
L 417.7 480.344323 
L 417.7 14.3 
L 23.655677 14.3 
z
" style="fill:#ffffff;"/>
   </g>
   <g id="PathCollection_1">
    <defs>
     <path d="M 0 3.872983 
C 1.027127 3.872983 2.012324 3.464901 2.738613 2.738613 
C 3.464901 2.012324 3.872983 1.027127 3.872983 0 
C 3.872983 -1.027127 3.464901 -2.012324 2.738613 -2.738613 
C 2.012324 -3.464901 1.027127 -3.872983 0 -3.872983 
C -1.027127 -3.872983 -2.012324 -3.464901 -2.738613 -2.738613 
C -3.464901 -2.012324 -3.872983 -1.027127 -3.872983 0 
C -3.872983 1.027127 -3.464901 2.012324 -2.738613 2.738613 
C -2.012324 3.464901 -1.027127 3.872983 0 3.872983 
z
" id="m3e36fd3236" style="stroke:#1f77b4;"/>
    </defs>
    <g clip-path="url(#p4dc507f6e8)">
     <use style="fill:#1f77b4;stroke:#1f77b4;" x="44.81898" xlink:href="#m3e36fd3236" y="451.993652"/>
    </g>
   </g>
   <g id="patch_3">
    <path clip-path="url(#p4dc507f6e8)" d="M 257.919697 331.514946 
Q 262.600273 334.571449 267.280849 337.627952 
Q 262.027301 339.538511 256.773753 341.44907 
z
" style="fill:#1f77b4;stroke:#000000;stroke-linecap:round;"/>
   </g>
   <g id="matplotlib.axis_1">
    <g id="text_1">
     <!-- $S$ -->
     <defs>
      <path d="M 63.5 69.109375 
C 63.5 70 62.796875 70 62.59375 70 
C 62.203125 70 62.09375 69.90625 60.90625 68.40625 
C 60.296875 67.703125 56.203125 62.515625 56.09375 62.421875 
C 52.796875 68.90625 46.203125 70 42 70 
C 29.296875 70 17.796875 58.484375 17.796875 47.265625 
C 17.796875 39.828125 22.296875 35.453125 27.203125 33.765625 
C 28.296875 33.359375 34.203125 31.765625 37.203125 31.078125 
C 42.296875 29.6875 43.59375 29.296875 45.703125 27.109375 
C 46.09375 26.609375 48.09375 24.328125 48.09375 19.65625 
C 48.09375 10.421875 39.5 0.890625 29.5 0.890625 
C 21.296875 0.890625 12.203125 4.375 12.203125 15.484375 
C 12.203125 17.375 12.59375 19.765625 12.90625 20.75 
C 12.90625 21.0625 13 21.53125 13 21.734375 
C 13 22.140625 12.796875 22.640625 12 22.640625 
C 11.09375 22.640625 11 22.4375 10.59375 20.75 
L 5.5 0.375 
C 5.5 0.28125 5.09375 -1 5.09375 -1.109375 
C 5.09375 -2 5.90625 -2 6.09375 -2 
C 6.5 -2 6.59375 -1.90625 7.796875 -0.40625 
L 12.40625 5.5625 
C 14.796875 1.96875 20 -2 29.296875 -2 
C 42.203125 -2 54 10.40625 54 22.8125 
C 54 27 53 30.671875 49.203125 34.328125 
C 47.09375 36.421875 45.296875 36.921875 36.09375 39.3125 
C 29.40625 41.09375 28.5 41.390625 26.703125 42.984375 
C 25 44.65625 23.703125 47.046875 23.703125 50.421875 
C 23.703125 58.765625 32.203125 67.3125 41.703125 67.3125 
C 51.5 67.3125 56.09375 61.34375 56.09375 51.921875 
C 56.09375 49.34375 55.59375 46.65625 55.59375 46.265625 
C 55.59375 45.359375 56.40625 45.359375 56.703125 45.359375 
C 57.59375 45.359375 57.703125 45.65625 58.09375 47.25 
z
" id="CMMI12-83"/>
     </defs>
     <g transform="translate(217.623321 491.262822)scale(0.1 -0.1)">
      <use transform="scale(0.996264)" xlink:href="#CMMI12-83"/>
     </g>
    </g>
   </g>
   <g id="matplotlib.axis_2">
    <g id="text_2">
     <!-- $X$ -->
     <defs>
      <path d="M 47.5 40.5625 
L 38.09375 62.40625 
C 39.40625 64.796875 42.40625 65.1875 43.59375 65.296875 
C 44.203125 65.296875 45.296875 65.296875 45.296875 67.0625 
C 45.296875 68.1875 44.40625 68.1875 43.796875 68.1875 
C 42.09375 68.1875 40.09375 68.1875 38.40625 68.1875 
L 32.59375 68.1875 
C 26.5 68.1875 22.09375 68.1875 22 68.1875 
C 21.203125 68.1875 20.203125 68.1875 20.203125 66.296875 
C 20.203125 65.296875 21.09375 65.296875 22.40625 65.296875 
C 28.203125 65.296875 28.59375 64.296875 29.59375 61.90625 
L 41.5 34.140625 
L 19.796875 10.828125 
C 16.203125 6.90625 11.90625 3.09375 4.5 3.09375 
C 3.296875 3 2.5 3 2.5 1.0625 
C 2.5 0.75 2.59375 0 3.703125 0 
C 5.09375 0 6.59375 0 8 0 
L 12.703125 0 
C 15.90625 0 19.40625 0 22.5 0 
C 23.203125 0 24.40625 0 24.40625 1.796875 
C 24.40625 2.796875 23.703125 2.890625 23.09375 2.890625 
C 21.09375 3.09375 19.796875 4.1875 19.796875 5.78125 
C 19.796875 7.484375 21 8.703125 23.90625 11.6875 
L 32.796875 21.375 
C 35 23.6875 40.296875 29.46875 42.5 31.65625 
L 53 7.078125 
C 53.09375 6.890625 53.5 5.890625 53.5 5.78125 
C 53.5 4.890625 51.296875 3.09375 48.09375 3.09375 
C 47.5 3.09375 46.40625 3.09375 46.40625 1.109375 
C 46.40625 0 47.40625 0 47.90625 0 
C 49.59375 0 51.59375 0 53.296875 0 
L 64.296875 0 
C 66.09375 0 68 0 69.703125 0 
C 70.40625 0 71.5 0 71.5 2.03125 
C 71.5 3.09375 70.5 3.09375 69.59375 3.09375 
C 63.59375 3.09375 63.40625 3.59375 61.703125 7.265625 
L 48.5 38.140625 
L 61.203125 51.8125 
C 62.203125 52.828125 64.5 55.34375 65.40625 56.34375 
C 69.703125 60.875 73.703125 65 81.796875 65 
C 82.796875 65.296875 83.796875 65.296875 83.796875 67.0625 
C 83.796875 68.1875 82.90625 68.1875 82.5 68.1875 
C 81.09375 68.1875 79.59375 68.1875 78.203125 68.1875 
L 73.59375 68.1875 
C 70.40625 68.1875 66.90625 68.1875 63.796875 68.1875 
C 63.09375 68.1875 61.90625 68.1875 61.90625 66.390625 
C 61.90625 65.390625 62.59375 65.296875 63.203125 65.296875 
C 64.796875 65.109375 66.5 64.3125 66.5 62.40625 
L 66.40625 62.21875 
C 66.296875 61.515625 66.09375 60.515625 65 59.328125 
z
" id="CMMI12-88"/>
     </defs>
     <g transform="translate(17.718498 251.44905)rotate(-90)scale(0.1 -0.1)">
      <use transform="scale(0.996264)" xlink:href="#CMMI12-88"/>
     </g>
    </g>
   </g>
   <g id="line2d_1">
    <path clip-path="url(#p4dc507f6e8)" d="M 44.81898 451.993652 
L 62.761512 453.12118 
L 94.631903 454.722711 
L 121.836881 455.815826 
L 155.398267 456.924823 
L 196.479593 458.012307 
L 236.674035 458.819867 
L 262.505747 459.138261 
L 276.239203 459.117974 
L 283.857138 458.897799 
L 288.741613 458.537989 
L 293.086624 457.984407 
L 297.756498 457.15596 
L 303.080683 455.97777 
L 308.523108 454.540757 
L 313.893106 452.888928 
L 319.188977 451.019695 
L 324.19693 449.017218 
L 329.123429 446.806691 
L 333.761639 444.488358 
L 338.312034 441.969147 
L 342.76793 439.24326 
L 346.935291 436.43658 
L 351.003605 433.4288 
L 354.966387 430.21331 
L 358.644432 426.943728 
L 362.214159 423.471939 
L 365.669308 419.791095 
L 368.84748 416.084619 
L 371.91007 412.175605 
L 374.851102 408.057415 
L 377.66441 403.723241 
L 380.212954 399.399385 
L 382.634866 394.868272 
L 384.924367 390.123798 
L 387.075521 385.159848 
L 389.082235 379.970339 
L 390.938269 374.549273 
L 392.637238 368.890788 
L 394.17262 362.989232 
L 395.537772 356.839229 
L 396.725937 350.435762 
L 397.730264 343.774264 
L 398.543826 336.850718 
L 399.159643 329.661774 
L 399.570706 322.204864 
L 399.770011 314.478344 
L 399.750594 306.481643 
L 399.505566 298.215424 
L 399.028163 289.681761 
L 398.311794 280.88433 
L 397.3501 271.828616 
L 396.137013 262.522134 
L 394.666832 252.974649 
L 392.934294 243.198436 
L 390.934659 233.208529 
L 388.663803 223.022977 
L 386.118314 212.66312 
L 383.295595 202.153852 
L 380.364194 192.085864 
L 377.181923 181.937303 
L 373.749169 171.739415 
L 370.067348 161.527061 
L 366.36366 151.903522 
L 362.443232 142.33717 
L 358.559179 133.420467 
L 354.491268 124.623571 
L 350.244848 115.983714 
L 346.107322 108.061624 
L 341.824491 100.346675 
L 337.702112 93.364638 
L 333.465339 86.62471 
L 329.434759 80.61035 
L 325.317469 74.857421 
L 321.11996 69.39205 
L 317.18016 64.625168 
L 313.183794 60.146686 
L 309.47604 56.312554 
L 305.730951 52.754165 
L 301.953752 49.487181 
L 298.496641 46.782974 
L 295.021708 44.343461 
L 291.533305 42.179436 
L 288.385914 40.475911 
L 285.234554 39.011075 
L 282.082612 37.791692 
L 278.933527 36.824071 
L 275.790779 36.114024 
L 273.005386 35.703373 
L 270.230258 35.503706 
L 267.46789 35.517937 
L 264.720776 35.748561 
L 261.991408 36.197626 
L 259.282266 36.866721 
L 256.595818 37.756952 
L 253.934505 38.868921 
L 251.30074 40.202713 
L 248.696903 41.757886 
L 246.125326 43.533457 
L 243.273708 45.792488 
L 240.468982 48.325481 
L 237.714219 51.128526 
L 235.012377 54.196826 
L 232.366295 57.524707 
L 229.494892 61.518828 
L 226.699182 65.815175 
L 223.982451 70.402371 
L 221.347748 75.267884 
L 218.547654 80.925156 
L 215.853569 86.883264 
L 213.268478 93.121479 
L 210.575724 100.220603 
L 208.018596 107.59754 
L 205.599371 115.221758 
L 203.136156 123.724198 
L 200.838294 132.44016 
L 198.54947 142.01938 
L 196.453398 151.750239 
L 194.420618 162.289594 
L 192.606278 172.890447 
L 191.007494 183.498605 
L 189.535506 194.765021 
L 188.299098 205.925669 
L 187.236558 217.611098 
L 186.424642 229.065797 
L 185.854411 240.243389 
L 185.516438 251.104927 
L 185.400959 261.61863 
L 185.510123 272.343965 
L 185.845627 282.629315 
L 186.39557 292.459735 
L 187.14819 301.826583 
L 188.091948 310.726684 
L 189.2156 319.161522 
L 190.508247 327.136466 
L 191.959375 334.660048 
L 193.558878 341.743308 
L 195.297071 348.399214 
L 197.164701 354.642143 
L 199.15294 360.487446 
L 201.253382 365.951065 
L 203.458033 371.049227 
L 205.759294 375.798179 
L 208.149948 380.213982 
L 210.623139 384.312348 
L 213.172359 388.108507 
L 215.79142 391.617116 
L 218.474443 394.852189 
L 221.215834 397.827045 
L 224.166963 400.698781 
L 227.171226 403.30855 
L 230.22294 405.66937 
L 233.316687 407.793358 
L 236.612981 409.785607 
L 239.944333 411.539941 
L 243.305208 413.067418 
L 246.860091 414.438137 
L 250.435751 415.580442 
L 254.197757 416.542516 
L 257.969977 417.274122 
L 261.746279 417.783907 
L 265.692122 418.087922 
L 269.629266 418.165314 
L 273.551209 418.022519 
L 277.451571 417.664961 
L 281.4917 417.06772 
L 285.494411 416.245586 
L 289.452689 415.201688 
L 293.359549 413.938269 
L 297.20801 412.456769 
L 300.991079 410.757881 
L 304.70173 408.841622 
L 308.332885 406.707391 
L 311.731539 404.456485 
L 315.044274 402.002891 
L 318.264663 399.344797 
L 321.386196 396.480076 
L 324.402276 393.406334 
L 327.306215 390.12097 
L 330.091232 386.621232 
L 332.637542 383.070442 
L 335.062662 379.318412 
L 337.360425 375.362675 
L 339.5246 371.200873 
L 341.548897 366.830816 
L 343.426981 362.250562 
L 345.152484 357.458494 
L 346.719022 352.453409 
L 348.120212 347.234615 
L 349.3497 341.802029 
L 350.401186 336.156292 
L 351.26845 330.298887 
L 351.945397 324.232265 
L 352.426085 317.959987 
L 352.704776 311.486859 
L 352.775987 304.819091 
L 352.634538 297.964461 
L 352.275613 290.932468 
L 351.663093 283.403588 
L 350.803665 275.708759 
L 349.693595 267.866099 
L 348.394533 260.245445 
L 346.861639 252.529764 
L 345.093939 244.742812 
L 343.09139 236.911197 
L 340.854971 229.064489 
L 338.386777 221.235289 
L 335.817586 213.811016 
L 333.044192 206.468749 
L 330.071718 199.244553 
L 327.061485 192.509264 
L 323.88295 185.950934 
L 320.71437 179.9178 
L 317.408198 174.110042 
L 314.156675 168.846209 
L 310.986352 164.114317 
L 307.726783 159.640268 
L 304.584395 155.687089 
L 301.376794 152.004694 
L 298.316983 148.816294 
L 295.212714 145.899789 
L 292.281172 143.43684 
L 289.322355 141.236545 
L 286.555547 139.43869 
L 283.775033 137.885917 
L 280.985709 136.586241 
L 278.407438 135.617505 
L 275.829884 134.875791 
L 273.25706 134.365608 
L 270.693007 134.090803 
L 268.141774 134.054499 
L 265.607408 134.259062 
L 263.302497 134.659532 
L 261.018221 135.264334 
L 258.553394 136.157146 
L 256.120638 137.292298 
L 253.723768 138.668088 
L 251.366506 140.281923 
L 249.052467 142.130323 
L 246.598418 144.392385 
L 244.203461 146.917926 
L 241.87166 149.699114 
L 239.435523 152.969868 
L 237.08158 156.514214 
L 234.813991 160.318339 
L 232.484579 164.665402 
L 230.262887 169.273668 
L 228.016008 174.453434 
L 225.899827 179.879911 
L 223.798218 185.885039 
L 221.850919 192.103776 
L 219.959801 198.883212 
L 218.156019 206.212915 
L 216.550749 213.674999 
L 215.075265 221.622979 
L 213.818162 229.616793 
L 212.730453 238.0076 
L 211.876581 246.34555 
L 211.251337 254.584343 
L 210.834848 263.06412 
L 210.654599 271.34815 
L 210.701893 279.400926 
L 210.967457 287.192845 
L 211.441591 294.699908 
L 212.114308 301.903333 
L 212.975445 308.789099 
L 214.014774 315.347454 
L 215.22208 321.572408 
L 216.587238 327.46123 
L 218.100269 333.013962 
L 219.751381 338.232956 
L 221.531008 343.122455 
L 223.429833 347.688208 
L 225.438806 351.937125 
L 227.549151 355.876979 
L 229.752373 359.516144 
L 232.040256 362.863368 
L 234.40486 365.927591 
L 236.838514 368.717784 
L 239.333805 371.242824 
L 241.883566 373.511387 
L 244.480869 375.531873 
L 247.119005 377.312337 
L 249.913661 378.925416 
L 252.73864 380.292807 
L 255.586954 381.42225 
L 258.45181 382.320944 
L 261.326594 382.995543 
L 264.329976 383.467152 
L 267.329984 383.707729 
L 270.31961 383.722991 
L 273.291986 383.518069 
L 276.240362 383.097542 
L 279.278905 382.434594 
L 282.276796 381.546127 
L 285.226723 380.435648 
L 288.121454 379.106195 
L 290.953824 377.560384 
L 293.716728 375.800475 
L 296.403108 373.828418 
L 299.005955 371.645925 
L 301.518299 369.254527 
L 303.933214 366.655645 
L 306.243816 363.850658 
L 308.443271 360.840977 
L 310.5248 357.628126 
L 312.557277 354.073089 
L 314.447484 350.302421 
L 316.188076 346.318823 
L 317.771846 342.125557 
L 319.191757 337.72657 
L 320.440975 333.126629 
L 321.512911 328.331453 
L 322.401262 323.347863 
L 323.100069 318.183927 
L 323.603763 312.849105 
L 323.914847 307.140051 
L 324.004892 301.272876 
L 323.869472 295.264018 
L 323.50495 289.132237 
L 322.908573 282.89878 
L 322.078581 276.587524 
L 321.014303 270.225071 
L 319.716272 263.840839 
L 318.186325 257.467096 
L 316.496871 251.372074 
L 314.599585 245.353063 
L 312.500054 239.446064 
L 310.297071 233.907298 
L 307.921121 228.542666 
L 305.485671 223.59047 
L 303.018029 219.057664 
L 300.428526 214.763462 
L 297.84659 210.906657 
L 295.294915 207.477912 
L 292.667035 204.3184 
L 290.101956 201.579162 
L 287.616655 199.237046 
L 285.091868 197.16294 
L 282.670701 195.45725 
L 280.228118 194.01431 
L 277.907968 192.901131 
L 275.58114 192.03736 
L 273.39061 191.457397 
L 271.204813 191.107352 
L 269.028945 190.990164 
L 266.868192 191.107791 
L 264.727707 191.46116 
L 262.612581 192.050139 
L 260.527822 192.873517 
L 258.47833 193.92899 
L 256.468873 195.213167 
L 254.382847 196.823175 
L 252.352535 198.679643 
L 250.382999 200.774605 
L 248.369163 203.242513 
L 246.329045 206.112767 
L 244.382488 209.239596 
L 242.440303 212.788873 
L 240.52476 216.776583 
L 238.741368 221.005128 
L 237.019813 225.662747 
L 235.385145 230.745755 
L 233.922934 236.009366 
L 232.583737 241.652962 
L 231.392983 247.650354 
L 230.410891 253.722648 
L 229.609628 260.069389 
L 229.030069 266.401956 
L 228.658479 272.916723 
L 228.515623 279.325729 
L 228.594382 285.590077 
L 228.88664 291.675883 
L 229.383457 297.554201 
L 230.075237 303.200822 
L 230.951876 308.596006 
L 232.002897 313.724124 
L 233.217569 318.573274 
L 234.585004 323.134869 
L 236.094247 327.403225 
L 237.734348 331.375153 
L 239.494419 335.049575 
L 241.363678 338.427161 
L 243.256974 341.401046 
L 245.23231 344.104472 
L 247.280503 346.541055 
L 249.392544 348.714974 
L 251.559606 350.630814 
L 253.773041 352.293422 
L 256.024388 353.707801 
L 258.305364 354.879006 
L 260.607863 355.812078 
L 262.923947 356.51198 
L 265.245846 356.983556 
L 267.565943 357.231505 
L 269.876775 357.260353 
L 272.258832 357.063075 
L 274.614963 356.638893 
L 276.937282 355.992294 
L 279.21805 355.127596 
L 281.449675 354.048976 
L 283.704078 352.708801 
L 285.889469 351.147401 
L 287.997864 349.369221 
L 290.021452 347.378748 
L 292.019764 345.098295 
L 293.910645 342.600376 
L 295.68606 339.890632 
L 297.392909 336.870984 
L 298.959564 333.638416 
L 300.378082 330.200941 
L 301.640911 326.567438 
L 302.774731 322.617385 
L 303.727438 318.480759 
L 304.492379 314.171213 
L 305.063608 309.704024 
L 305.444618 304.94548 
L 305.609033 300.058051 
L 305.553261 295.064963 
L 305.274919 289.991873 
L 304.772946 284.866942 
L 304.047715 279.720871 
L 303.101139 274.586868 
L 301.936775 269.500559 
L 300.55991 264.499817 
L 299.030115 259.774557 
L 297.315668 255.204741 
L 295.489929 250.966889 
L 293.579125 247.076819 
L 291.535656 243.422499 
L 289.447931 240.147917 
L 287.339158 237.252967 
L 285.230535 234.731836 
L 283.141118 232.573547 
L 281.087752 230.762615 
L 279.085054 229.279743 
L 277.056859 228.054788 
L 275.101048 227.132791 
L 273.226982 226.486572 
L 271.352869 226.073296 
L 269.485567 225.896086 
L 267.719775 225.948414 
L 265.972224 226.2168 
L 264.248686 226.700388 
L 262.471008 227.437503 
L 260.732416 228.405807 
L 259.03906 229.600073 
L 257.320007 231.086334 
L 255.589788 232.887555 
L 253.934813 234.929589 
L 252.294992 237.302106 
L 250.68845 240.017326 
L 249.134678 243.082268 
L 247.654331 246.497917 
L 246.268955 250.2585 
L 245.000661 254.350928 
L 243.871753 258.754438 
L 242.904298 263.440499 
L 242.119675 268.372998 
L 241.552352 273.352869 
L 241.192706 278.488021 
L 241.057761 283.575265 
L 241.141545 288.570789 
L 241.448678 293.580353 
L 241.970293 298.413264 
L 242.695418 303.037142 
L 243.612049 307.424722 
L 244.672717 311.436004 
L 245.889406 315.187031 
L 247.249393 318.664896 
L 248.739665 321.859894 
L 250.296721 324.681402 
L 251.951754 327.22634 
L 253.692629 329.492455 
L 255.449547 331.4212 
L 257.26475 333.088155 
L 259.127422 334.494811 
L 260.965136 335.610386 
L 262.827742 336.486946 
L 264.705835 337.127586 
L 266.590165 337.535781 
L 268.471651 337.71532 
L 270.341386 337.670262 
L 272.19065 337.404899 
L 274.01091 336.923741 
L 275.852529 336.204855 
L 277.645328 335.266044 
L 279.435522 334.072332 
L 281.155137 332.656998 
L 282.845083 330.972733 
L 284.440985 329.068412 
L 285.977336 326.885475 
L 287.39487 324.488545 
L 288.720657 321.809366 
L 289.933722 318.843346 
L 290.985173 315.679668 
L 291.888922 312.240267 
L 292.605718 308.630776 
L 293.140464 304.770285 
L 293.465549 300.780695 
L 293.576942 296.691021 
L 293.466639 292.422675 
L 293.128303 288.118733 
L 292.563592 283.818454 
L 291.77645 279.563479 
L 290.801555 275.502843 
L 289.629566 271.5686 
L 288.308857 267.900154 
L 286.864867 264.52281 
L 285.276625 261.371587 
L 283.607623 258.558476 
L 281.9343 256.160779 
L 280.231958 254.095536 
L 278.520181 252.358382 
L 276.816632 250.940134 
L 275.136948 249.827397 
L 273.494694 249.003217 
L 271.901378 248.447786 
L 270.366505 248.139138 
L 268.839157 248.054716 
L 267.327261 248.195092 
L 265.838623 248.559129 
L 264.380869 249.143979 
L 262.907649 249.980147 
L 261.48363 251.042538 
L 260.066876 252.373763 
L 258.67221 253.98636 
L 257.272135 255.956224 
L 255.934472 258.234545 
L 254.67844 260.81809 
L 253.523792 263.697208 
L 252.463295 266.948224 
L 251.553646 270.463242 
L 250.814508 274.208598 
L 250.264153 278.143822 
L 249.918957 282.222364 
L 249.792918 286.392573 
L 249.892041 290.499886 
L 250.208372 294.496151 
L 250.731773 298.338413 
L 251.450228 301.989114 
L 252.350142 305.416078 
L 253.388755 308.518043 
L 254.57114 311.360868 
L 255.847593 313.867471 
L 257.231129 316.100444 
L 258.667701 318.004715 
L 260.136733 319.596135 
L 261.661753 320.925214 
L 263.186724 321.965303 
L 264.740078 322.755965 
L 266.266106 323.286867 
L 267.796762 323.585627 
L 269.321366 323.655426 
L 270.829458 323.50026 
L 272.310835 323.124884 
L 273.796225 322.514824 
L 275.232428 321.684337 
L 276.646713 320.609001 
L 278.02316 319.280008 
L 279.344561 317.690618 
L 280.592527 315.836583 
L 281.747644 313.716633 
L 282.789672 311.333038 
L 283.697816 308.692235 
L 284.451059 305.805533 
L 285.028579 302.689866 
L 285.404234 299.442003 
L 285.574756 296.022646 
L 285.527114 292.543555 
L 285.253554 288.972369 
L 284.756261 285.432897 
L 284.059466 282.047989 
L 283.164387 278.790206 
L 282.108913 275.772936 
L 280.918853 273.028358 
L 279.620199 270.581711 
L 278.238563 268.451115 
L 276.834718 266.688137 
L 275.436507 265.275462 
L 274.028858 264.162002 
L 272.668144 263.358424 
L 271.330967 262.818227 
L 270.02949 262.525305 
L 268.7349 262.46256 
L 267.495807 262.621375 
L 266.244552 263.009171 
L 265.029882 263.619526 
L 263.826482 264.473448 
L 262.648664 265.580156 
L 261.481431 266.985861 
L 260.348989 268.708807 
L 259.30289 270.706573 
L 258.340876 273.022377 
L 257.492708 275.647457 
L 256.788994 278.560936 
L 256.269015 281.662036 
L 255.948251 284.901012 
L 255.839038 288.2229 
L 255.950066 291.568916 
L 256.277287 294.814469 
L 256.80887 297.908536 
L 257.530155 300.806338 
L 258.404646 303.418806 
L 259.404879 305.730504 
L 260.52898 307.774183 
L 261.704792 309.464583 
L 262.931387 310.852808 
L 264.187606 311.948964 
L 265.454402 312.766509 
L 266.714876 313.321371 
L 267.954272 313.631224 
L 269.189918 313.714249 
L 270.409607 313.57417 
L 271.60147 313.216183 
L 272.781584 312.630418 
L 273.934804 311.809913 
L 275.069177 310.723635 
L 276.139005 309.387122 
L 277.145115 307.767124 
L 278.042933 305.89816 
L 278.825992 303.749278 
L 279.453955 301.376717 
L 279.914064 298.757704 
L 280.174336 295.972594 
L 280.219402 293.065861 
L 280.042732 290.142287 
L 279.648868 287.259004 
L 279.046784 284.474187 
L 278.265685 281.891071 
L 277.33198 279.553485 
L 276.273495 277.497094 
L 275.141791 275.779765 
L 273.969598 274.402042 
L 272.811578 273.373443 
L 271.668165 272.644442 
L 270.558816 272.190303 
L 269.472497 271.979658 
L 268.421852 271.997034 
L 267.392109 272.232749 
L 266.370202 272.695905 
L 265.370703 273.394206 
L 264.38764 274.355375 
L 263.443083 275.592342 
L 262.544219 277.1441 
L 261.739647 278.980523 
L 261.045924 281.125775 
L 260.508645 283.514094 
L 260.154507 286.100556 
L 260.007042 288.827755 
L 260.08208 291.582493 
L 260.375172 294.250548 
L 260.872532 296.769458 
L 261.543448 299.048421 
L 262.358781 301.054117 
L 263.289036 302.764812 
L 264.286685 304.146739 
L 265.32061 305.212101 
L 266.363896 305.980288 
L 267.414672 306.483088 
L 268.433827 306.731181 
L 269.447102 306.75074 
L 270.439806 306.546178 
L 271.416877 306.113609 
L 272.36142 305.449707 
L 273.272164 304.535549 
L 274.140077 303.340707 
L 274.920707 301.880626 
L 275.596064 300.133913 
L 276.122579 298.144213 
L 276.472247 295.943804 
L 276.619574 293.578156 
L 276.54607 291.142559 
L 276.252414 288.742305 
L 275.749665 286.448328 
L 275.066709 284.359329 
L 274.24728 282.554307 
L 273.344616 281.083523 
L 272.382073 279.930002 
L 271.426509 279.117625 
L 270.472907 278.591691 
L 269.560951 278.335284 
L 268.672286 278.313186 
L 267.804224 278.516044 
L 266.95513 278.947946 
L 266.127103 279.625247 
L 265.32868 280.574355 
L 264.5892 281.805237 
L 263.931541 283.340756 
L 263.403798 285.141455 
L 263.036214 287.198861 
L 262.870639 289.396038 
L 262.923807 291.656013 
L 263.194163 293.835976 
L 263.665083 295.861133 
L 264.303777 297.64398 
L 265.065152 299.124023 
L 265.897633 300.272188 
L 266.762765 301.101311 
L 267.628352 301.635445 
L 268.482898 301.908494 
L 269.320335 301.943204 
L 270.123251 301.755773 
L 270.564752 301.554092 
L 270.564752 301.554092 
" style="fill:none;stroke:#1f77b4;stroke-linecap:square;stroke-width:1.5;"/>
   </g>
   <g id="patch_4">
    <path d="M 23.655677 480.344323 
L 23.655677 14.3 
" style="fill:none;stroke:#000000;stroke-linecap:square;stroke-linejoin:miter;stroke-width:0.8;"/>
   </g>
   <g id="patch_5">
    <path d="M 417.7 480.344323 
L 417.7 14.3 
" style="fill:none;stroke:#000000;stroke-linecap:square;stroke-linejoin:miter;stroke-width:0.8;"/>
   </g>
   <g id="patch_6">
    <path d="M 23.655677 480.344323 
L 417.7 480.344323 
" style="fill:none;stroke:#000000;stroke-linecap:square;stroke-linejoin:miter;stroke-width:0.8;"/>
   </g>
   <g id="patch_7">
    <path d="M 23.655677 14.3 
L 417.7 14.3 
" style="fill:none;stroke:#000000;stroke-linecap:square;stroke-linejoin:miter;stroke-width:0.8;"/>
   </g>
  </g>
 </g>
 <defs>
  <clipPath id="p4dc507f6e8">
   <rect height="466.044323" width="394.044323" x="23.655677" y="14.3"/>
  </clipPath>
 </defs>
</svg>
