<?xml version="1.0" encoding="utf-8" standalone="no"?>
<!DOCTYPE svg PUBLIC "-//W3C//DTD SVG 1.1//EN"
  "http://www.w3.org/Graphics/SVG/1.1/DTD/svg11.dtd">
<!-- Created with matplotlib (http://matplotlib.org/) -->
<svg height="504pt" version="1.1" viewBox="0 0 432 504" width="432pt" xmlns="http://www.w3.org/2000/svg" xmlns:xlink="http://www.w3.org/1999/xlink">
 <defs>
  <style type="text/css">
*{stroke-linecap:butt;stroke-linejoin:round;}
  </style>
 </defs>
 <g id="figure_1">
  <g id="patch_1">
   <path d="M 0 504 
L 432 504 
L 432 0 
L 0 0 
z
" style="fill:#ffffff;"/>
  </g>
  <g id="axes_1">
   <g id="patch_2">
    <path d="M 23.655677 480.344323 
L 417.7 480.344323 
L 417.7 14.3 
L 23.655677 14.3 
z
" style="fill:#ffffff;"/>
   </g>
   <g id="PathCollection_1">
    <defs>
     <path d="M 0 3.872983 
C 1.027127 3.872983 2.012324 3.464901 2.738613 2.738613 
C 3.464901 2.012324 3.872983 1.027127 3.872983 0 
C 3.872983 -1.027127 3.464901 -2.012324 2.738613 -2.738613 
C 2.012324 -3.464901 1.027127 -3.872983 0 -3.872983 
C -1.027127 -3.872983 -2.012324 -3.464901 -2.738613 -2.738613 
C -3.464901 -2.012324 -3.872983 -1.027127 -3.872983 0 
C -3.872983 1.027127 -3.464901 2.012324 -2.738613 2.738613 
C -2.012324 3.464901 -1.027127 3.872983 0 3.872983 
z
" id="m164282211f" style="stroke:#1f77b4;"/>
    </defs>
    <g clip-path="url(#pb21ac89bfe)">
     <use style="fill:#1f77b4;stroke:#1f77b4;" x="44.81898" xlink:href="#m164282211f" y="233.706626"/>
    </g>
   </g>
   <g id="patch_3">
    <path clip-path="url(#pb21ac89bfe)" d="M 320.684384 278.246839 
Q 321.644517 272.73974 322.60465 267.23264 
Q 326.43425 271.305006 330.26385 275.377372 
z
" style="fill:#1f77b4;stroke:#000000;stroke-linecap:round;"/>
   </g>
   <g id="matplotlib.axis_1">
    <g id="text_1">
     <!-- $S$ -->
     <defs>
      <path d="M 63.5 69.109375 
C 63.5 70 62.796875 70 62.59375 70 
C 62.203125 70 62.09375 69.90625 60.90625 68.40625 
C 60.296875 67.703125 56.203125 62.515625 56.09375 62.421875 
C 52.796875 68.90625 46.203125 70 42 70 
C 29.296875 70 17.796875 58.484375 17.796875 47.265625 
C 17.796875 39.828125 22.296875 35.453125 27.203125 33.765625 
C 28.296875 33.359375 34.203125 31.765625 37.203125 31.078125 
C 42.296875 29.6875 43.59375 29.296875 45.703125 27.109375 
C 46.09375 26.609375 48.09375 24.328125 48.09375 19.65625 
C 48.09375 10.421875 39.5 0.890625 29.5 0.890625 
C 21.296875 0.890625 12.203125 4.375 12.203125 15.484375 
C 12.203125 17.375 12.59375 19.765625 12.90625 20.75 
C 12.90625 21.0625 13 21.53125 13 21.734375 
C 13 22.140625 12.796875 22.640625 12 22.640625 
C 11.09375 22.640625 11 22.4375 10.59375 20.75 
L 5.5 0.375 
C 5.5 0.28125 5.09375 -1 5.09375 -1.109375 
C 5.09375 -2 5.90625 -2 6.09375 -2 
C 6.5 -2 6.59375 -1.90625 7.796875 -0.40625 
L 12.40625 5.5625 
C 14.796875 1.96875 20 -2 29.296875 -2 
C 42.203125 -2 54 10.40625 54 22.8125 
C 54 27 53 30.671875 49.203125 34.328125 
C 47.09375 36.421875 45.296875 36.921875 36.09375 39.3125 
C 29.40625 41.09375 28.5 41.390625 26.703125 42.984375 
C 25 44.65625 23.703125 47.046875 23.703125 50.421875 
C 23.703125 58.765625 32.203125 67.3125 41.703125 67.3125 
C 51.5 67.3125 56.09375 61.34375 56.09375 51.921875 
C 56.09375 49.34375 55.59375 46.65625 55.59375 46.265625 
C 55.59375 45.359375 56.40625 45.359375 56.703125 45.359375 
C 57.59375 45.359375 57.703125 45.65625 58.09375 47.25 
z
" id="CMMI12-83"/>
     </defs>
     <g transform="translate(217.623321 491.262822)scale(0.1 -0.1)">
      <use transform="scale(0.996264)" xlink:href="#CMMI12-83"/>
     </g>
    </g>
   </g>
   <g id="matplotlib.axis_2">
    <g id="text_2">
     <!-- $X$ -->
     <defs>
      <path d="M 47.5 40.5625 
L 38.09375 62.40625 
C 39.40625 64.796875 42.40625 65.1875 43.59375 65.296875 
C 44.203125 65.296875 45.296875 65.296875 45.296875 67.0625 
C 45.296875 68.1875 44.40625 68.1875 43.796875 68.1875 
C 42.09375 68.1875 40.09375 68.1875 38.40625 68.1875 
L 32.59375 68.1875 
C 26.5 68.1875 22.09375 68.1875 22 68.1875 
C 21.203125 68.1875 20.203125 68.1875 20.203125 66.296875 
C 20.203125 65.296875 21.09375 65.296875 22.40625 65.296875 
C 28.203125 65.296875 28.59375 64.296875 29.59375 61.90625 
L 41.5 34.140625 
L 19.796875 10.828125 
C 16.203125 6.90625 11.90625 3.09375 4.5 3.09375 
C 3.296875 3 2.5 3 2.5 1.0625 
C 2.5 0.75 2.59375 0 3.703125 0 
C 5.09375 0 6.59375 0 8 0 
L 12.703125 0 
C 15.90625 0 19.40625 0 22.5 0 
C 23.203125 0 24.40625 0 24.40625 1.796875 
C 24.40625 2.796875 23.703125 2.890625 23.09375 2.890625 
C 21.09375 3.09375 19.796875 4.1875 19.796875 5.78125 
C 19.796875 7.484375 21 8.703125 23.90625 11.6875 
L 32.796875 21.375 
C 35 23.6875 40.296875 29.46875 42.5 31.65625 
L 53 7.078125 
C 53.09375 6.890625 53.5 5.890625 53.5 5.78125 
C 53.5 4.890625 51.296875 3.09375 48.09375 3.09375 
C 47.5 3.09375 46.40625 3.09375 46.40625 1.109375 
C 46.40625 0 47.40625 0 47.90625 0 
C 49.59375 0 51.59375 0 53.296875 0 
L 64.296875 0 
C 66.09375 0 68 0 69.703125 0 
C 70.40625 0 71.5 0 71.5 2.03125 
C 71.5 3.09375 70.5 3.09375 69.59375 3.09375 
C 63.59375 3.09375 63.40625 3.59375 61.703125 7.265625 
L 48.5 38.140625 
L 61.203125 51.8125 
C 62.203125 52.828125 64.5 55.34375 65.40625 56.34375 
C 69.703125 60.875 73.703125 65 81.796875 65 
C 82.796875 65.296875 83.796875 65.296875 83.796875 67.0625 
C 83.796875 68.1875 82.90625 68.1875 82.5 68.1875 
C 81.09375 68.1875 79.59375 68.1875 78.203125 68.1875 
L 73.59375 68.1875 
C 70.40625 68.1875 66.90625 68.1875 63.796875 68.1875 
C 63.09375 68.1875 61.90625 68.1875 61.90625 66.390625 
C 61.90625 65.390625 62.59375 65.296875 63.203125 65.296875 
C 64.796875 65.109375 66.5 64.3125 66.5 62.40625 
L 66.40625 62.21875 
C 66.296875 61.515625 66.09375 60.515625 65 59.328125 
z
" id="CMMI12-88"/>
     </defs>
     <g transform="translate(17.718498 251.44905)rotate(-90)scale(0.1 -0.1)">
      <use transform="scale(0.996264)" xlink:href="#CMMI12-88"/>
     </g>
    </g>
   </g>
   <g id="line2d_1">
    <path clip-path="url(#pb21ac89bfe)" d="M 44.81898 233.706626 
L 72.62908 237.251713 
L 98.277659 240.110698 
L 121.936708 242.444229 
L 143.762842 244.363634 
L 163.899385 245.949215 
L 182.47788 247.260804 
L 215.434853 249.235001 
L 243.490698 250.547516 
L 267.373048 251.367862 
L 287.700592 251.811938 
L 304.999789 251.962258 
L 319.718814 251.879438 
L 332.239307 251.609149 
L 342.886318 251.186522 
L 351.936716 250.639022 
L 359.626369 249.988438 
L 366.156224 249.252253 
L 371.697482 248.444633 
L 376.39601 247.577147 
L 380.376092 246.659315 
L 383.743629 245.699015 
L 386.588854 244.702796 
L 388.988654 243.676129 
L 391.008544 242.623599 
L 392.70435 241.549063 
L 394.123643 240.455773 
L 395.306957 239.346478 
L 396.713612 237.657524 
L 397.761666 235.944152 
L 398.526498 234.211412 
L 399.067403 232.463284 
L 399.519418 230.113852 
L 399.739149 227.748308 
L 399.778463 224.775065 
L 399.586682 221.19087 
L 399.071318 216.395361 
L 398.178854 210.388671 
L 396.785276 202.578585 
L 394.724797 192.390208 
L 392.329626 181.664192 
L 389.593527 170.4469 
L 386.654903 159.375536 
L 383.69006 149.058325 
L 380.554545 138.94456 
L 377.254062 129.071508 
L 373.991196 120.002578 
L 370.592813 111.215733 
L 367.276389 103.233636 
L 363.85163 95.559718 
L 360.324916 88.222578 
L 356.93209 81.675292 
L 353.461625 75.472526 
L 350.158035 70.014496 
L 346.797675 64.895139 
L 343.631405 60.460422 
L 340.425671 56.347182 
L 337.435658 52.847313 
L 334.419998 49.642949 
L 331.382671 46.743722 
L 328.582892 44.361921 
L 325.771509 42.250712 
L 322.951757 40.416184 
L 320.383836 38.993235 
L 317.814187 37.807384 
L 315.245311 36.862064 
L 312.679721 36.160293 
L 310.119939 35.704666 
L 307.568489 35.497344 
L 305.281394 35.524466 
L 303.004925 35.755001 
L 300.740907 36.189544 
L 298.491156 36.828365 
L 296.010351 37.777665 
L 293.551823 38.978503 
L 291.117981 40.429801 
L 288.711201 42.129962 
L 286.333812 44.076863 
L 283.988098 46.267872 
L 281.44706 48.956161 
L 278.949937 51.931111 
L 276.499528 55.187106 
L 273.882805 59.052186 
L 271.328254 63.235065 
L 268.839083 67.725687 
L 266.219791 72.925115 
L 263.684443 78.457905 
L 261.051835 84.770723 
L 258.524429 91.430382 
L 256.105781 98.414582 
L 253.638692 106.231361 
L 251.303601 114.364442 
L 248.961696 123.354154 
L 246.776422 132.631739 
L 244.628899 142.762268 
L 242.663117 153.12967 
L 240.880519 163.688923 
L 239.193533 175.029289 
L 237.712783 186.484064 
L 236.372669 198.644969 
L 235.259719 210.823302 
L 234.371304 222.967034 
L 233.704022 235.027599 
L 233.236007 247.583841 
L 233.002958 259.950586 
L 232.998705 272.084965 
L 233.216514 283.94892 
L 233.649177 295.50913 
L 234.289097 306.73684 
L 235.128366 317.607664 
L 236.158833 328.101324 
L 237.372171 338.201361 
L 238.759937 347.894838 
L 240.313613 357.172005 
L 242.024663 366.025996 
L 243.88456 374.452497 
L 245.884823 382.449447 
L 247.907429 389.64856 
L 250.041999 396.461209 
L 252.281494 402.889876 
L 254.61898 408.938024 
L 257.04763 414.609928 
L 259.560739 419.910519 
L 262.151719 424.845246 
L 264.814108 429.419955 
L 267.396498 433.427347 
L 270.032005 437.12249 
L 272.715443 440.510843 
L 275.441724 443.597897 
L 278.205858 446.389125 
L 281.002945 448.889946 
L 283.828177 451.105687 
L 286.518038 452.941264 
L 289.224882 454.531474 
L 291.944865 455.880462 
L 294.674203 456.992235 
L 297.409169 457.870652 
L 300.146095 458.519425 
L 302.881363 458.942107 
L 305.611406 459.142101 
L 308.332707 459.122656 
L 311.04179 458.886866 
L 313.735227 458.437675 
L 316.566282 457.732575 
L 319.372019 456.794537 
L 322.148511 455.62656 
L 324.891872 454.231499 
L 327.598258 452.612071 
L 330.410688 450.662129 
L 333.173261 448.468013 
L 335.881603 446.032537 
L 338.531385 443.35843 
L 341.252658 440.288709 
L 343.899362 436.960597 
L 346.466618 433.377152 
L 348.949609 429.54146 
L 351.460857 425.245956 
L 353.868538 420.67961 
L 356.167315 415.846388 
L 358.351948 410.750498 
L 360.512586 405.135138 
L 362.536535 399.242064 
L 364.418169 393.077403 
L 366.152027 386.64788 
L 367.800968 379.65096 
L 369.276833 372.382012 
L 370.574098 364.851425 
L 371.687536 357.070718 
L 372.612249 349.052654 
L 373.343707 340.811358 
L 373.877778 332.362409 
L 374.220635 323.343285 
L 374.340918 314.138158 
L 374.235614 304.770519 
L 373.90239 295.266044 
L 373.339645 285.652679 
L 372.54657 275.960683 
L 371.523204 266.222692 
L 370.270491 256.473718 
L 368.79033 246.751123 
L 367.161102 237.495077 
L 365.329134 228.336486 
L 363.298832 219.313899 
L 361.075565 210.467455 
L 358.774247 202.208744 
L 356.3086 194.186514 
L 353.808401 186.784503 
L 351.172127 179.666184 
L 348.541956 173.181411 
L 345.802645 167.013539 
L 343.106327 161.473775 
L 340.325719 156.270166 
L 337.620558 151.671892 
L 334.853298 147.415858 
L 332.189113 143.727238 
L 329.642319 140.562846 
L 327.062805 137.708276 
L 324.619633 135.323136 
L 322.15707 133.228026 
L 319.845296 131.540861 
L 317.524539 130.118289 
L 315.198681 128.965086 
L 313.03781 128.139035 
L 310.879063 127.551497 
L 308.725593 127.204627 
L 306.580548 127.099999 
L 304.610696 127.219284 
L 302.653151 127.546128 
L 300.710344 128.080393 
L 298.62506 128.892546 
L 296.562917 129.946064 
L 294.526885 131.238951 
L 292.519873 132.768588 
L 290.39419 134.676925 
L 288.308914 136.851221 
L 286.123329 139.469516 
L 283.991931 142.378678 
L 281.782435 145.792317 
L 279.643276 149.514731 
L 277.452094 153.793409 
L 275.349585 158.388785 
L 273.224787 163.579388 
L 271.208805 169.081686 
L 269.203461 175.201235 
L 267.233283 181.956802 
L 265.411661 188.999661 
L 263.662751 196.664508 
L 262.084858 204.564424 
L 260.617885 213.046896 
L 259.343056 221.693506 
L 258.216613 230.857902 
L 257.300941 240.098853 
L 256.568891 249.769605 
L 256.062595 259.416402 
L 255.778541 268.989311 
L 255.712264 278.442098 
L 255.869055 288.115399 
L 256.249475 297.569148 
L 256.845853 306.764763 
L 257.649851 315.668278 
L 258.652565 324.250207 
L 259.844627 332.485327 
L 261.158102 340.045042 
L 262.628219 347.250036 
L 264.245907 354.087691 
L 266.001955 360.548033 
L 267.887059 366.623488 
L 269.806065 372.079572 
L 271.82676 377.173995 
L 273.940907 381.904987 
L 276.140304 386.271997 
L 278.316325 390.109003 
L 280.5558 393.614649 
L 282.851711 396.790783 
L 285.089526 399.517345 
L 287.366456 401.948292 
L 289.676592 404.086386 
L 291.902252 405.853152 
L 294.147754 407.359798 
L 296.40818 408.609231 
L 298.678674 409.604466 
L 300.840603 410.317308 
L 303.003237 410.806239 
L 305.162573 411.074008 
L 307.31466 411.123397 
L 309.455601 410.957209 
L 311.581553 410.578273 
L 313.799036 409.952682 
L 315.991353 409.097858 
L 318.154214 408.017171 
L 320.388896 406.643094 
L 322.581642 405.027753 
L 324.72773 403.175205 
L 326.920921 400.98453 
L 329.052598 398.542931 
L 331.209855 395.727501 
L 333.288595 392.649227 
L 335.367997 389.16356 
L 337.34973 385.405759 
L 339.303779 381.210346 
L 341.138939 376.737293 
L 342.914716 371.801395 
L 344.548522 366.587709 
L 346.034045 361.108959 
L 347.4134 355.153622 
L 348.620276 348.943748 
L 349.649011 342.497208 
L 350.522237 335.582595 
L 351.193389 328.45751 
L 351.658206 321.1471 
L 351.913234 313.678463 
L 351.955881 306.080721 
L 351.774384 298.108812 
L 351.362532 290.068866 
L 350.720769 282.000243 
L 349.850797 273.944593 
L 348.797098 266.220128 
L 347.537381 258.589822 
L 346.07679 251.09643 
L 344.421717 243.78399 
L 342.648724 236.9462 
L 340.709999 230.359431 
L 338.694909 224.292226 
L 336.628748 218.747827 
L 334.445479 213.519657 
L 332.248244 208.827133 
L 330.057958 204.655354 
L 327.793458 200.824681 
L 325.566181 197.499306 
L 323.391872 194.650232 
L 321.284069 192.244973 
L 319.254208 190.248485 
L 317.2034 188.541555 
L 315.246453 187.198125 
L 313.390226 186.178621 
L 311.530541 185.404973 
L 309.671647 184.879992 
L 307.926626 184.614832 
L 306.1896 184.572668 
L 304.46408 184.753784 
L 302.753542 185.157774 
L 301.061417 185.783536 
L 299.391083 186.629269 
L 297.643931 187.766079 
L 295.928993 189.144551 
L 294.152468 190.862284 
L 292.325771 192.956354 
L 290.55369 195.330087 
L 288.752435 198.119693 
L 286.937351 201.355702 
L 285.125497 205.06502 
L 283.411137 209.080381 
L 281.728847 213.581204 
L 280.099051 218.57909 
L 278.543475 224.078431 
L 277.084938 230.075448 
L 275.747086 236.557333 
L 274.593233 243.250287 
L 273.59383 250.362336 
L 272.772015 257.85616 
L 272.167401 265.423268 
L 271.769107 273.269786 
L 271.59885 281.077911 
L 271.652154 288.793513 
L 271.923207 296.366523 
L 272.404992 303.751197 
L 273.089424 310.906219 
L 273.967481 317.794731 
L 275.029333 324.384263 
L 276.264457 330.646589 
L 277.612688 336.36639 
L 279.102018 341.739377 
L 280.721668 346.7502 
L 282.398775 351.232849 
L 284.176974 355.35729 
L 285.977838 358.988742 
L 287.85396 362.276208 
L 289.723077 365.113939 
L 291.645113 367.628261 
L 293.535443 369.740341 
L 295.459762 371.553139 
L 297.332347 373.01275 
L 299.144131 374.154842 
L 300.967136 375.047353 
L 302.795869 375.692296 
L 304.545443 376.079707 
L 306.290597 376.245084 
L 308.026705 376.191005 
L 309.749209 375.920277 
L 311.530594 375.408892 
L 313.287174 374.667751 
L 315.014012 373.700826 
L 316.778996 372.455713 
L 318.571711 370.907695 
L 320.311858 369.109568 
L 322.059687 366.981187 
L 323.801315 364.500375 
L 325.521327 361.646259 
L 327.14655 358.516444 
L 328.722591 354.996679 
L 330.230601 351.072277 
L 331.606793 346.876031 
L 332.883045 342.272966 
L 334.037725 337.258567 
L 335.020307 332.001305 
L 335.847019 326.353032 
L 336.478818 320.504866 
L 336.921245 314.304929 
L 337.148573 307.965478 
L 337.158695 301.526814 
L 336.950986 295.031457 
L 336.526367 288.524017 
L 335.887362 282.051005 
L 335.038149 275.660568 
L 333.984589 269.402158 
L 332.734248 263.326123 
L 331.341261 257.65128 
L 329.831219 252.401927 
L 328.174876 247.444288 
L 326.441773 242.958044 
L 324.655229 238.94684 
L 322.836838 235.407164 
L 321.006318 232.329047 
L 319.181418 229.696888 
L 317.377868 227.490261 
L 315.680663 225.7509 
L 314.031892 224.360742 
L 312.367893 223.248231 
L 310.768043 222.448819 
L 309.238821 221.930433 
L 307.712659 221.653007 
L 306.266595 221.613608 
L 304.832131 221.79338 
L 303.413498 222.191252 
L 301.945523 222.841587 
L 300.504297 223.726874 
L 299.02812 224.901511 
L 297.52713 226.393248 
L 296.012902 228.228067 
L 294.498469 230.429391 
L 292.998303 233.01726 
L 291.528255 236.007427 
L 290.105454 239.410477 
L 288.748162 243.230947 
L 287.435529 247.612235 
L 286.237469 252.414887 
L 285.175225 257.617138 
L 284.269938 263.18804 
L 283.542225 269.087363 
L 283.023468 275.093207 
L 282.707703 281.319201 
L 282.610568 287.532964 
L 282.734101 293.844863 
L 283.077517 300.022403 
L 283.632393 306.010998 
L 284.388661 311.761201 
L 285.334813 317.228864 
L 286.425515 322.240597 
L 287.671175 326.917062 
L 289.017955 331.117018 
L 290.441926 334.850154 
L 291.967419 338.225908 
L 293.533133 341.148873 
L 295.120185 343.64232 
L 296.711854 345.732089 
L 298.293509 347.445737 
L 299.852505 348.811821 
L 301.378068 349.859337 
L 302.861167 350.617248 
L 304.349517 351.128696 
L 305.781734 351.389967 
L 307.207252 351.426611 
L 308.620525 351.241391 
L 310.016107 350.837591 
L 311.440926 350.19098 
L 312.886062 349.280913 
L 314.291914 348.132915 
L 315.700039 346.700167 
L 317.144024 344.903392 
L 318.56027 342.772407 
L 319.933344 340.294449 
L 321.246577 337.459725 
L 322.482153 334.262014 
L 323.621253 330.699321 
L 324.644231 326.774604 
L 325.530856 322.496561 
L 326.260608 317.880478 
L 326.813036 312.949107 
L 327.168199 307.733578 
L 327.306516 302.405208 
L 327.226971 297.016826 
L 326.920898 291.492211 
L 326.391368 286.023089 
L 325.665053 280.797095 
L 324.740288 275.741344 
L 323.657033 271.028375 
L 322.440224 266.692817 
L 321.114457 262.760529 
L 319.703563 259.248818 
L 318.23025 256.166839 
L 316.760074 253.586907 
L 315.271742 251.412289 
L 313.829001 249.681533 
L 312.401241 248.306749 
L 311.048904 247.29834 
L 309.734102 246.582726 
L 308.464509 246.135287 
L 307.197713 245.926737 
L 305.987958 245.951793 
L 304.791783 246.197021 
L 303.567818 246.683206 
L 302.369996 247.401198 
L 301.159759 248.386442 
L 299.947257 249.658112 
L 298.703374 251.291637 
L 297.485676 253.259057 
L 296.273281 255.645239 
L 295.090848 258.478098 
L 293.994617 261.683258 
L 292.978246 265.34618 
L 292.072823 269.462281 
L 291.326749 273.901049 
L 290.758518 278.615477 
L 290.384932 283.549836 
L 290.220576 288.640454 
L 290.277305 293.816767 
L 290.555144 298.891519 
L 291.04502 303.798124 
L 291.735335 308.475907 
L 292.590854 312.776346 
L 293.585204 316.67471 
L 294.720778 320.235975 
L 295.920168 323.289744 
L 297.185602 325.926242 
L 298.496224 328.155229 
L 299.797258 329.94749 
L 301.105522 331.383007 
L 302.406997 332.482956 
L 303.651612 333.251162 
L 304.866601 333.746614 
L 306.043945 333.993315 
L 307.214694 334.012448 
L 308.372133 333.806987 
L 309.509694 333.380853 
L 310.656324 332.714643 
L 311.802268 331.79343 
L 312.969232 330.565413 
L 314.13981 328.998172 
L 315.265196 327.115673 
L 316.355744 324.854353 
L 317.386502 322.195307 
L 318.329936 319.127315 
L 319.140145 315.727135 
L 319.809829 311.93637 
L 320.299599 307.863346 
L 320.591375 303.553179 
L 320.669226 299.06097 
L 320.52521 294.542264 
L 320.163042 290.067734 
L 319.58995 285.708749 
L 318.816625 281.536224 
L 317.878017 277.694746 
L 316.824655 274.298484 
L 315.664738 271.298058 
L 314.452073 268.768403 
L 313.215948 266.695904 
L 311.981682 265.056366 
L 310.802793 263.845987 
L 309.66529 262.982083 
L 308.581857 262.423847 
L 307.529074 262.123258 
L 306.514284 262.059029 
L 305.511302 262.217252 
L 304.526715 262.595269 
L 303.536446 263.211366 
L 302.520804 264.109951 
L 301.494835 265.324121 
L 300.476297 266.882726 
L 299.485616 268.808457 
L 298.52465 271.174029 
L 297.645375 273.937432 
L 296.860764 277.157656 
L 296.221218 280.747984 
L 295.755691 284.663044 
L 295.494365 288.762181 
L 295.449057 292.966354 
L 295.627298 297.190417 
L 296.022709 301.272804 
L 296.609364 305.068928 
L 297.376645 308.589575 
L 298.268759 311.666519 
L 299.271421 314.343621 
L 300.335881 316.56665 
L 301.43302 318.35536 
L 302.537799 319.738027 
L 303.603558 320.728763 
L 304.638215 321.398911 
L 305.629131 321.787078 
L 306.592767 321.933036 
L 307.547005 321.852404 
L 308.483893 321.549062 
L 309.419942 321.011383 
L 310.367869 320.206003 
L 311.312337 319.107507 
L 312.255645 317.659296 
L 313.171533 315.827827 
L 314.013859 313.63502 
L 314.769394 311.032003 
L 315.391908 308.076181 
L 315.853075 304.798294 
L 316.125567 301.245268 
L 316.185306 297.543729 
L 316.022497 293.775057 
L 315.640722 290.089332 
L 315.0629 286.630212 
L 314.31447 283.468062 
L 313.439723 280.706322 
L 312.473747 278.370415 
L 311.469336 276.501297 
L 310.459345 275.071832 
L 309.470545 274.042598 
L 308.523786 273.366145 
L 307.634452 272.99072 
L 306.768872 272.862477 
L 305.935514 272.962712 
L 305.099052 273.293392 
L 304.269694 273.866002 
L 303.420174 274.734637 
L 302.570697 275.937496 
L 301.745546 277.505094 
L 300.959102 279.496874 
L 300.261548 281.886409 
L 299.687519 284.656766 
L 299.272328 287.768385 
L 299.051787 291.104328 
L 299.046068 294.575724 
L 299.259527 297.978043 
L 299.680145 301.216136 
L 300.279913 304.16097 
L 301.029727 306.753562 
L 301.86977 308.888011 
L 302.760928 310.575456 
L 303.669896 311.843268 
L 304.569404 312.729868 
L 305.420199 313.271951 
L 306.241967 313.540149 
L 307.023583 313.567387 
L 307.791299 313.373773 
L 308.56915 312.9414 
L 309.343226 312.249355 
L 310.12634 311.237314 
L 310.878461 309.892398 
L 311.583621 308.168222 
L 312.205259 306.050546 
L 312.702944 303.545808 
L 313.030987 300.72817 
L 313.156622 297.707828 
L 313.064169 294.620466 
L 312.75152 291.57204 
L 312.241425 288.74833 
L 311.57315 286.268558 
L 310.797045 284.214284 
L 309.968321 282.62199 
L 309.126532 281.466241 
L 308.318127 280.714835 
L 307.552175 280.292372 
L 306.829342 280.140067 
L 306.130712 280.221063 
L 305.451399 280.525652 
L 304.760868 281.086507 
L 304.064733 281.951167 
L 303.377541 283.177673 
L 302.73495 284.80067 
L 302.178775 286.832419 
L 301.759651 289.220731 
L 301.516854 291.905264 
L 301.483865 294.721129 
L 301.671805 297.550788 
L 302.063394 300.173267 
L 302.629142 302.494833 
L 303.315364 304.398831 
L 304.067219 305.850226 
L 304.831434 306.85951 
L 305.5613 307.475115 
L 306.256345 307.782039 
L 306.912939 307.832878 
L 307.543697 307.659171 
L 308.172097 307.252211 
L 308.803565 306.572185 
L 309.432837 305.553829 
L 310.023001 304.155619 
L 310.523849 302.382819 
L 310.891701 300.255279 
L 311.08226 297.828218 
L 311.059649 295.284427 
L 310.819082 292.777649 
L 310.382716 290.487398 
L 309.798477 288.558373 
L 309.121487 287.059314 
L 308.658828 286.326229 
L 308.658828 286.326229 
" style="fill:none;stroke:#1f77b4;stroke-linecap:square;stroke-width:1.5;"/>
   </g>
   <g id="patch_4">
    <path d="M 23.655677 480.344323 
L 23.655677 14.3 
" style="fill:none;stroke:#000000;stroke-linecap:square;stroke-linejoin:miter;stroke-width:0.8;"/>
   </g>
   <g id="patch_5">
    <path d="M 417.7 480.344323 
L 417.7 14.3 
" style="fill:none;stroke:#000000;stroke-linecap:square;stroke-linejoin:miter;stroke-width:0.8;"/>
   </g>
   <g id="patch_6">
    <path d="M 23.655677 480.344323 
L 417.7 480.344323 
" style="fill:none;stroke:#000000;stroke-linecap:square;stroke-linejoin:miter;stroke-width:0.8;"/>
   </g>
   <g id="patch_7">
    <path d="M 23.655677 14.3 
L 417.7 14.3 
" style="fill:none;stroke:#000000;stroke-linecap:square;stroke-linejoin:miter;stroke-width:0.8;"/>
   </g>
  </g>
 </g>
 <defs>
  <clipPath id="pb21ac89bfe">
   <rect height="466.044323" width="394.044323" x="23.655677" y="14.3"/>
  </clipPath>
 </defs>
</svg>
