<?xml version="1.0" encoding="utf-8" standalone="no"?>
<!DOCTYPE svg PUBLIC "-//W3C//DTD SVG 1.1//EN"
  "http://www.w3.org/Graphics/SVG/1.1/DTD/svg11.dtd">
<!-- Created with matplotlib (https://matplotlib.org/) -->
<svg height="216pt" version="1.1" viewBox="0 0 216 216" width="216pt" xmlns="http://www.w3.org/2000/svg" xmlns:xlink="http://www.w3.org/1999/xlink">
 <defs>
  <style type="text/css">
*{stroke-linecap:butt;stroke-linejoin:round;}
  </style>
 </defs>
 <g id="figure_1">
  <g id="patch_1">
   <path d="M 0 216 
L 216 216 
L 216 0 
L 0 0 
z
" style="fill:none;"/>
  </g>
  <g id="axes_1">
   <g id="patch_2">
    <path clip-path="url(#p8829f44f0e)" d="M 73.872 128.09293 
C 78.94703 128.09293 83.814883 126.089607 87.403471 122.524171 
C 90.992059 118.958735 93.00839 114.122288 93.00839 109.08 
C 93.00839 104.037712 90.992059 99.201265 87.403471 95.635829 
C 83.814883 92.070393 78.94703 90.06707 73.872 90.06707 
C 68.79697 90.06707 63.929117 92.070393 60.340529 95.635829 
C 56.751941 99.201265 54.73561 104.037712 54.73561 109.08 
C 54.73561 114.122288 56.751941 118.958735 60.340529 122.524171 
C 63.929117 126.089607 68.79697 128.09293 73.872 128.09293 
z
" style="fill:#0000ff;opacity:0.3;stroke:#0000ff;stroke-linejoin:miter;"/>
   </g>
   <g id="patch_3">
    <path clip-path="url(#p8829f44f0e)" d="M 43.20327 90.187689 
Q 46.140896 92.554403 49.375649 94.400155 
L 50.490742 92.445912 
Q 52.547573 95.791453 55.41468 98.89981 
Q 51.20841 99.318556 46.773766 98.960057 
L 47.888859 97.005813 
Q 44.445655 95.041119 41.32114 92.523837 
L 43.20327 90.187689 
z
" style="fill:#0000ff;opacity:0.5;stroke:#0000ff;stroke-linecap:round;"/>
   </g>
   <g id="patch_4">
    <path clip-path="url(#p8829f44f0e)" d="M 55.945063 120.663294 
Q 52.419056 122.004285 49.192748 123.864761 
L 50.316736 125.813902 
Q 46.390451 125.900428 42.259848 126.806136 
Q 44.021869 122.963827 46.57011 119.316765 
L 47.694098 121.265906 
Q 51.128311 119.28554 54.878639 117.859236 
L 55.945063 120.663294 
z
" style="fill:#0000ff;opacity:0.5;stroke:#0000ff;stroke-linecap:round;"/>
   </g>
   <g id="patch_5">
    <path clip-path="url(#p8829f44f0e)" d="M 129.114 96.404714 
C 134.18903 96.404714 139.056883 94.401391 142.645471 90.835955 
C 146.234059 87.27052 148.25039 82.434072 148.25039 77.391784 
C 148.25039 72.349496 146.234059 67.513049 142.645471 63.947613 
C 139.056883 60.382177 134.18903 58.378855 129.114 58.378855 
C 124.03897 58.378855 119.171117 60.382177 115.582529 63.947613 
C 111.993941 67.513049 109.97761 72.349496 109.97761 77.391784 
C 109.97761 82.434072 111.993941 87.27052 115.582529 90.835955 
C 119.171117 94.401391 124.03897 96.404714 129.114 96.404714 
z
" style="fill:#0000ff;opacity:0.3;stroke:#0000ff;stroke-linejoin:miter;"/>
   </g>
   <g id="patch_6">
    <path clip-path="url(#p8829f44f0e)" d="M 160.904863 60.455684 
Q 157.378856 61.796675 154.152548 63.657151 
L 155.276536 65.606292 
Q 151.350251 65.692818 147.219648 66.598525 
Q 148.981669 62.756217 151.52991 59.109155 
L 152.653898 61.058296 
Q 156.088111 59.077929 159.838439 57.651626 
L 160.904863 60.455684 
z
" style="fill:#0000ff;opacity:0.5;stroke:#0000ff;stroke-linecap:round;"/>
   </g>
   <g id="patch_7">
    <path clip-path="url(#p8829f44f0e)" d="M 127.98611 56.171264 
Q 128.569641 52.48959 128.564603 48.809384 
L 126.314605 48.812463 
Q 128.196424 45.366936 129.466823 41.333696 
Q 131.922551 44.774091 133.814598 48.802198 
L 131.564601 48.805278 
Q 131.569964 52.723819 130.949123 56.64089 
L 127.98611 56.171264 
z
" style="fill:#0000ff;opacity:0.5;stroke:#0000ff;stroke-linecap:round;"/>
   </g>
   <g id="patch_8">
    <path clip-path="url(#p8829f44f0e)" d="M 129.114 159.781145 
C 134.18903 159.781145 139.056883 157.777823 142.645471 154.212387 
C 146.234059 150.646951 148.25039 145.810504 148.25039 140.768216 
C 148.25039 135.725928 146.234059 130.88948 142.645471 127.324045 
C 139.056883 123.758609 134.18903 121.755286 129.114 121.755286 
C 124.03897 121.755286 119.171117 123.758609 115.582529 127.324045 
C 111.993941 130.88948 109.97761 135.725928 109.97761 140.768216 
C 109.97761 145.810504 111.993941 150.646951 115.582529 154.212387 
C 119.171117 157.777823 124.03897 159.781145 129.114 159.781145 
z
" style="fill:#0000ff;opacity:0.3;stroke:#0000ff;stroke-linejoin:miter;"/>
   </g>
   <g id="patch_9">
    <path clip-path="url(#p8829f44f0e)" d="M 127.98611 176.586485 
Q 128.569641 172.90481 128.564603 169.224604 
L 126.314605 169.227684 
Q 128.196424 165.782157 129.466823 161.748917 
Q 131.922551 165.189311 133.814598 169.217418 
L 131.564601 169.220498 
Q 131.569964 173.139039 130.949123 177.056111 
L 127.98611 176.586485 
z
" style="fill:#0000ff;opacity:0.5;stroke:#0000ff;stroke-linecap:round;"/>
   </g>
   <g id="patch_10">
    <path clip-path="url(#p8829f44f0e)" d="M 148.16307 150.395299 
Q 151.100696 152.762013 154.335449 154.607766 
L 155.450542 152.653522 
Q 157.507373 155.999064 160.37448 159.107421 
Q 156.16821 159.526166 151.733566 159.167667 
L 152.848659 157.213424 
Q 149.405455 155.248729 146.28094 152.731448 
L 148.16307 150.395299 
z
" style="fill:#0000ff;opacity:0.5;stroke:#0000ff;stroke-linecap:round;"/>
   </g>
   <g id="text_1">
    <!-- $C_{S}$ -->
    <defs>
     <path d="M 69.484375 67.28125 
L 67.484375 56.890625 
Q 62.796875 61.625 57.546875 63.921875 
Q 52.296875 66.21875 46.1875 66.21875 
Q 37.84375 66.21875 31.515625 62.203125 
Q 25.203125 58.203125 20.609375 50 
Q 17.671875 44.734375 16.125 38.84375 
Q 14.59375 32.953125 14.59375 27 
Q 14.59375 17.046875 19.75 11.8125 
Q 24.90625 6.59375 34.71875 6.59375 
Q 41.5 6.59375 47.75 8.765625 
Q 54 10.9375 59.90625 15.28125 
L 57.625 3.609375 
Q 51.8125 1.125 45.875 -0.140625 
Q 39.9375 -1.421875 33.984375 -1.421875 
Q 19.96875 -1.421875 12.078125 6.1875 
Q 4.203125 13.8125 4.203125 27.390625 
Q 4.203125 36.078125 7.203125 44.46875 
Q 10.203125 52.875 15.828125 59.8125 
Q 21.78125 67.1875 29.421875 70.703125 
Q 37.0625 74.21875 47.21875 74.21875 
Q 53.46875 74.21875 59.0625 72.484375 
Q 64.65625 70.75 69.484375 67.28125 
z
" id="DejaVuSans-Oblique-67"/>
     <path d="M 60.296875 70.515625 
L 58.40625 60.890625 
Q 53.46875 63.53125 48.609375 64.875 
Q 43.75 66.21875 39.203125 66.21875 
Q 30.375 66.21875 25.140625 62.359375 
Q 19.921875 58.5 19.921875 52.09375 
Q 19.921875 48.578125 21.84375 46.703125 
Q 23.78125 44.828125 31.78125 42.671875 
L 37.703125 41.21875 
Q 47.703125 38.625 51.609375 34.640625 
Q 55.515625 30.671875 55.515625 23.484375 
Q 55.515625 12.453125 46.84375 5.515625 
Q 38.1875 -1.421875 24.03125 -1.421875 
Q 18.21875 -1.421875 12.359375 -0.265625 
Q 6.5 0.875 0.59375 3.21875 
L 2.59375 13.375 
Q 8.015625 10.015625 13.453125 8.296875 
Q 18.890625 6.59375 24.3125 6.59375 
Q 33.546875 6.59375 39.109375 10.6875 
Q 44.671875 14.796875 44.671875 21.390625 
Q 44.671875 25.78125 42.453125 28.046875 
Q 40.234375 30.328125 32.90625 32.171875 
L 27 33.6875 
Q 16.890625 36.328125 13.203125 39.765625 
Q 9.515625 43.21875 9.515625 49.421875 
Q 9.515625 60.296875 17.890625 67.25 
Q 26.265625 74.21875 39.703125 74.21875 
Q 44.921875 74.21875 50.046875 73.28125 
Q 55.171875 72.359375 60.296875 70.515625 
z
" id="DejaVuSans-Oblique-83"/>
    </defs>
    <g transform="translate(64.512 113.495)scale(0.16 -0.16)">
     <use transform="translate(0 0.78125)" xlink:href="#DejaVuSans-Oblique-67"/>
     <use transform="translate(69.824219 -15.625)scale(0.7)" xlink:href="#DejaVuSans-Oblique-83"/>
    </g>
   </g>
   <g id="text_2">
    <!-- $C_{R}$ -->
    <defs>
     <path d="M 25.203125 64.796875 
L 20.21875 38.921875 
L 32.90625 38.921875 
Q 40.375 38.921875 44.984375 43.046875 
Q 49.609375 47.171875 49.609375 53.8125 
Q 49.609375 59.125 46.5 61.953125 
Q 43.40625 64.796875 37.59375 64.796875 
z
M 43.3125 35.015625 
Q 46.4375 34.28125 48.515625 31.390625 
Q 50.59375 28.515625 53.328125 19.921875 
L 59.515625 0 
L 49.125 0 
L 43.40625 18.703125 
Q 41.21875 25.921875 38.328125 28.359375 
Q 35.453125 30.8125 29.5 30.8125 
L 18.609375 30.8125 
L 12.59375 0 
L 2.6875 0 
L 16.890625 72.90625 
L 39.109375 72.90625 
Q 49.21875 72.90625 54.609375 68.328125 
Q 60.015625 63.765625 60.015625 55.171875 
Q 60.015625 47.5625 55.421875 41.984375 
Q 50.828125 36.421875 43.3125 35.015625 
z
" id="DejaVuSans-Oblique-82"/>
    </defs>
    <g transform="translate(119.354 81.806784)scale(0.16 -0.16)">
     <use transform="translate(0 0.78125)" xlink:href="#DejaVuSans-Oblique-67"/>
     <use transform="translate(69.824219 -15.625)scale(0.7)" xlink:href="#DejaVuSans-Oblique-82"/>
    </g>
   </g>
   <g id="text_3">
    <!-- $C_{L}$ -->
    <defs>
     <path d="M 16.796875 72.90625 
L 26.703125 72.90625 
L 14.203125 8.203125 
L 49.703125 8.203125 
L 48.09375 0 
L 2.6875 0 
z
" id="DejaVuSans-Oblique-76"/>
    </defs>
    <g transform="translate(120.154 145.183216)scale(0.16 -0.16)">
     <use transform="translate(0 0.78125)" xlink:href="#DejaVuSans-Oblique-67"/>
     <use transform="translate(69.824219 -15.625)scale(0.7)" xlink:href="#DejaVuSans-Oblique-76"/>
    </g>
   </g>
  </g>
 </g>
 <defs>
  <clipPath id="p8829f44f0e">
   <rect height="166.32" width="167.4" x="27" y="25.92"/>
  </clipPath>
 </defs>
</svg>
