<?xml version="1.0" encoding="utf-8" standalone="no"?>
<!DOCTYPE svg PUBLIC "-//W3C//DTD SVG 1.1//EN"
  "http://www.w3.org/Graphics/SVG/1.1/DTD/svg11.dtd">
<!-- Created with matplotlib (http://matplotlib.org/) -->
<svg height="216pt" version="1.1" viewBox="0 0 216 216" width="216pt" xmlns="http://www.w3.org/2000/svg" xmlns:xlink="http://www.w3.org/1999/xlink">
 <defs>
  <style type="text/css">
*{stroke-linecap:butt;stroke-linejoin:round;stroke-miterlimit:100000;}
  </style>
 </defs>
 <g id="figure_1">
  <g id="patch_1">
   <path d="M 0 216 
L 216 216 
L 216 0 
L 0 0 
L 0 216 
z
" style="fill:none;"/>
  </g>
  <g id="axes_1">
   <g id="patch_2">
    <path clip-path="url(#p70289ccd28)" d="M 60.48 132.692116 
C 67.028426 132.692116 73.309527 130.090399 77.939963 125.459963 
C 82.570399 120.829527 85.172116 114.548426 85.172116 108 
C 85.172116 101.451574 82.570399 95.170473 77.939963 90.540037 
C 73.309527 85.909601 67.028426 83.307884 60.48 83.307884 
C 53.931574 83.307884 47.650473 85.909601 43.020037 90.540037 
C 38.389601 95.170473 35.787884 101.451574 35.787884 108 
C 35.787884 114.548426 38.389601 120.829527 43.020037 125.459963 
C 47.650473 130.090399 53.931574 132.692116 60.48 132.692116 
z
" style="fill:#0000ff;opacity:0.3;stroke:#0000ff;stroke-linejoin:miter;"/>
   </g>
   <g id="patch_3">
    <path clip-path="url(#p70289ccd28)" d="M 9.503912 77.294002 
Q 19.315131 85.566101 30.875682 90.803789 
L 31.804224 88.754323 
Q 34.295273 91.944618 37.208126 94.993712 
Q 33.020379 95.477489 28.709083 95.585875 
L 29.637625 93.53641 
Q 17.698828 88.127351 7.570134 79.587581 
L 9.503912 77.294002 
z
" style="fill:#0000ff;opacity:0.5;stroke:#000000;stroke-linecap:round;"/>
   </g>
   <g id="patch_4">
    <path clip-path="url(#p70289ccd28)" d="M 37.716219 122.417615 
Q 25.646761 126.77833 15.330515 134.171217 
L 16.641133 136.000091 
Q 12.632732 136.562256 8.535713 137.560314 
Q 10.210623 133.69173 12.272406 129.903845 
L 13.583024 131.732719 
Q 24.236805 124.097946 36.69681 119.596125 
L 37.716219 122.417615 
z
" style="fill:#0000ff;opacity:0.5;stroke:#0000ff;stroke-linecap:round;"/>
   </g>
   <g id="patch_5">
    <path clip-path="url(#p70289ccd28)" d="M 131.76 91.538589 
C 138.308426 91.538589 144.589527 88.936872 149.219963 84.306436 
C 153.850399 79.675999 156.452116 73.394899 156.452116 66.846473 
C 156.452116 60.298047 153.850399 54.016946 149.219963 49.38651 
C 144.589527 44.756074 138.308426 42.154356 131.76 42.154356 
C 125.211574 42.154356 118.930473 44.756074 114.300037 49.38651 
C 109.669601 54.016946 107.067884 60.298047 107.067884 66.846473 
C 107.067884 73.394899 109.669601 79.675999 114.300037 84.306436 
C 118.930473 88.936872 125.211574 91.538589 131.76 91.538589 
z
" style="fill:#0000ff;opacity:0.3;stroke:#0000ff;stroke-linejoin:miter;"/>
   </g>
   <g id="patch_6">
    <path clip-path="url(#p70289ccd28)" d="M 183.840219 38.052885 
Q 171.770761 42.4136 161.454515 49.806487 
L 162.765133 51.635361 
Q 158.756732 52.197525 154.659713 53.195583 
Q 156.334623 49.326999 158.396406 45.539114 
L 159.707024 47.367988 
Q 170.360805 39.733215 182.82081 35.231395 
L 183.840219 38.052885 
z
" style="fill:#0000ff;opacity:0.5;stroke:#000000;stroke-linecap:round;"/>
   </g>
   <g id="patch_7">
    <path clip-path="url(#p70289ccd28)" d="M 130.655869 39.923652 
Q 132.914108 27.290838 131.669804 14.660263 
L 129.430643 14.880855 
Q 130.947995 11.128395 132.132161 7.081244 
Q 134.644998 10.466051 136.894511 14.145549 
L 134.655351 14.366141 
Q 135.940368 27.409972 133.609056 40.451563 
L 130.655869 39.923652 
z
" style="fill:#0000ff;opacity:0.5;stroke:#0000ff;stroke-linecap:round;"/>
   </g>
   <g id="patch_8">
    <path clip-path="url(#p70289ccd28)" d="M 131.76 173.845644 
C 138.308426 173.845644 144.589527 171.243926 149.219963 166.61349 
C 153.850399 161.983054 156.452116 155.701953 156.452116 149.153527 
C 156.452116 142.605101 153.850399 136.324001 149.219963 131.693564 
C 144.589527 127.063128 138.308426 124.461411 131.76 124.461411 
C 125.211574 124.461411 118.930473 127.063128 114.300037 131.693564 
C 109.669601 136.324001 107.067884 142.605101 107.067884 149.153527 
C 107.067884 155.701953 109.669601 161.983054 114.300037 166.61349 
C 118.930473 171.243926 125.211574 173.845644 131.76 173.845644 
z
" style="fill:#0000ff;opacity:0.3;stroke:#0000ff;stroke-linejoin:miter;"/>
   </g>
   <g id="patch_9">
    <path clip-path="url(#p70289ccd28)" d="M 130.655869 208.653114 
Q 132.914108 196.020299 131.669804 183.389725 
L 129.430643 183.610316 
Q 130.947995 179.857857 132.132161 175.810705 
Q 134.644998 179.195512 136.894511 182.875011 
L 134.655351 183.095602 
Q 135.940368 196.139433 133.609056 209.181025 
L 130.655869 208.653114 
z
" style="fill:#0000ff;opacity:0.5;stroke:#000000;stroke-linecap:round;"/>
   </g>
   <g id="patch_10">
    <path clip-path="url(#p70289ccd28)" d="M 155.627912 161.658732 
Q 165.439131 169.930832 176.999682 175.16852 
L 177.928224 173.119054 
Q 180.419273 176.309349 183.332126 179.358443 
Q 179.144379 179.84222 174.833083 179.950606 
L 175.761625 177.90114 
Q 163.822828 172.492082 153.694134 163.952311 
L 155.627912 161.658732 
z
" style="fill:#0000ff;opacity:0.5;stroke:#0000ff;stroke-linecap:round;"/>
   </g>
   <g id="text_1">
    <!-- $W_{l}$ -->
    <defs>
     <path d="M 4.390625 8.109375 
Q 4.390625 8.40625 4.46875 8.984375 
Q 4.546875 9.578125 4.609375 10.125 
Q 4.6875 10.6875 4.6875 10.984375 
L 17.09375 60.5 
Q 17.484375 62.203125 17.578125 63.1875 
Q 17.578125 64.796875 11.078125 64.796875 
Q 10.109375 64.796875 10.109375 66.109375 
Q 10.15625 66.359375 10.328125 66.984375 
Q 10.5 67.625 10.765625 67.96875 
Q 11.03125 68.3125 11.53125 68.3125 
L 25 69.390625 
Q 26.21875 69.390625 26.21875 68.109375 
L 11.8125 10.59375 
Q 11.078125 8.984375 11.078125 5.8125 
Q 11.078125 1.515625 14.015625 1.515625 
Q 17.09375 1.515625 18.625 5.34375 
Q 20.171875 9.1875 21.390625 14.703125 
Q 21.578125 15.28125 22.21875 15.28125 
L 23.390625 15.28125 
Q 23.78125 15.28125 24.046875 14.96875 
Q 24.3125 14.65625 24.3125 14.3125 
Q 23.140625 9.46875 22.1875 6.65625 
Q 21.234375 3.859375 19.140625 1.359375 
Q 17.046875 -1.125 13.8125 -1.125 
Q 9.8125 -1.125 7.09375 1.453125 
Q 4.390625 4.046875 4.390625 8.109375 
" id="Cmmi10-6c"/>
     <path d="M 17.828125 -1.125 
L 13.1875 62.59375 
Q 12.84375 64.0625 10.984375 64.421875 
Q 9.125 64.796875 6.390625 64.796875 
Q 5.421875 64.796875 5.421875 66.109375 
Q 5.765625 67.390625 5.953125 67.84375 
Q 6.15625 68.3125 7.078125 68.3125 
L 30.90625 68.3125 
Q 31.890625 68.3125 31.890625 67 
Q 31.5 64.796875 30.609375 64.796875 
Q 22.609375 64.796875 22.125 62.015625 
L 25.6875 11.53125 
L 50.6875 55.078125 
L 50.203125 62.59375 
Q 49.859375 64.0625 48 64.421875 
Q 46.140625 64.796875 43.40625 64.796875 
Q 42.390625 64.796875 42.390625 66.109375 
Q 42.71875 67.390625 42.90625 67.84375 
Q 43.109375 68.3125 44.09375 68.3125 
L 67.921875 68.3125 
Q 68.890625 68.3125 68.890625 67 
Q 68.84375 66.75 68.703125 66.15625 
Q 68.5625 65.578125 68.3125 65.1875 
Q 68.0625 64.796875 67.578125 64.796875 
Q 59.515625 64.796875 59.078125 62.015625 
L 59.078125 61.28125 
L 62.703125 11.53125 
L 89.890625 58.984375 
Q 90.484375 60.0625 90.484375 61.078125 
Q 90.484375 63.140625 88.46875 63.96875 
Q 86.46875 64.796875 83.984375 64.796875 
Q 83.015625 64.796875 83.015625 66.109375 
Q 83.203125 66.890625 83.328125 67.328125 
Q 83.453125 67.78125 83.765625 68.046875 
Q 84.078125 68.3125 84.71875 68.3125 
L 103.8125 68.3125 
Q 104.78125 68.3125 104.78125 67 
Q 104.734375 66.75 104.578125 66.140625 
Q 104.4375 65.53125 104.171875 65.15625 
Q 103.90625 64.796875 103.515625 64.796875 
Q 96.390625 64.796875 92.671875 58.296875 
Q 92.390625 58.015625 92.390625 58.015625 
L 58.5 -1.125 
Q 57.953125 -2.203125 56.78125 -2.203125 
L 56 -2.203125 
Q 54.78125 -2.203125 54.78125 -1.125 
L 50.984375 50.390625 
L 21.578125 -1.125 
Q 20.84375 -2.203125 19.828125 -2.203125 
L 19 -2.203125 
Q 17.828125 -2.203125 17.828125 -1.125 
" id="Cmmi10-57"/>
    </defs>
    <g transform="translate(50.72 112.415)scale(0.16 -0.16)">
     <use transform="translate(0.0 0.6875)" xlink:href="#Cmmi10-57"/>
     <use transform="translate(94.384765625 -16.318749999999994)scale(0.7)" xlink:href="#Cmmi10-6c"/>
    </g>
   </g>
   <g id="text_2">
    <!-- $W_{s}$ -->
    <defs>
     <path d="M 8.6875 6.109375 
Q 11.375 1.515625 19.484375 1.515625 
Q 23 1.515625 26.171875 2.703125 
Q 29.34375 3.90625 31.421875 6.296875 
Q 33.5 8.6875 33.5 12.109375 
Q 33.5 14.703125 31.640625 16.359375 
Q 29.78125 18.015625 27.09375 18.609375 
L 21.6875 19.671875 
Q 17.96875 20.609375 15.578125 23.140625 
Q 13.1875 25.6875 13.1875 29.296875 
Q 13.1875 33.734375 15.59375 37.15625 
Q 18.015625 40.578125 21.96875 42.375 
Q 25.921875 44.1875 30.171875 44.1875 
Q 34.71875 44.1875 38.296875 42.015625 
Q 41.890625 39.84375 41.890625 35.59375 
Q 41.890625 33.296875 40.59375 31.53125 
Q 39.3125 29.78125 37.015625 29.78125 
Q 35.6875 29.78125 34.734375 30.640625 
Q 33.796875 31.5 33.796875 32.8125 
Q 33.796875 33.984375 34.453125 35.078125 
Q 35.109375 36.1875 36.203125 36.84375 
Q 37.3125 37.5 38.484375 37.5 
Q 37.59375 39.65625 35.171875 40.625 
Q 32.765625 41.609375 29.984375 41.609375 
Q 27.4375 41.609375 24.890625 40.578125 
Q 22.359375 39.546875 20.8125 37.5625 
Q 19.28125 35.59375 19.28125 32.90625 
Q 19.28125 31.109375 20.546875 29.734375 
Q 21.828125 28.375 23.6875 27.78125 
L 29.5 26.609375 
Q 32.28125 26.03125 34.59375 24.53125 
Q 36.921875 23.046875 38.25 20.765625 
Q 39.59375 18.5 39.59375 15.578125 
Q 39.59375 11.859375 37.515625 8.25 
Q 35.453125 4.640625 32.421875 2.484375 
Q 27.09375 -1.125 19.390625 -1.125 
Q 14.0625 -1.125 9.609375 1.3125 
Q 5.171875 3.765625 5.171875 8.59375 
Q 5.171875 11.328125 6.75 13.34375 
Q 8.34375 15.375 11.078125 15.375 
Q 12.703125 15.375 13.796875 14.390625 
Q 14.890625 13.421875 14.890625 11.8125 
Q 14.890625 9.515625 13.171875 7.8125 
Q 11.46875 6.109375 9.1875 6.109375 
z
" id="Cmmi10-73"/>
    </defs>
    <g transform="translate(121.04 71.2614728122)scale(0.16 -0.16)">
     <use transform="translate(0.0 0.6875)" xlink:href="#Cmmi10-57"/>
     <use transform="translate(94.384765625 -16.318749999999994)scale(0.7)" xlink:href="#Cmmi10-73"/>
    </g>
   </g>
   <g id="text_3">
    <!-- $W_{r}$ -->
    <defs>
     <path d="M 7.71875 1.703125 
Q 7.71875 2.296875 7.8125 2.59375 
L 15.28125 32.421875 
Q 16.015625 35.203125 16.015625 37.3125 
Q 16.015625 41.609375 13.09375 41.609375 
Q 9.96875 41.609375 8.453125 37.859375 
Q 6.9375 34.125 5.515625 28.421875 
Q 5.515625 28.125 5.21875 27.953125 
Q 4.9375 27.78125 4.6875 27.78125 
L 3.515625 27.78125 
Q 3.171875 27.78125 2.921875 28.140625 
Q 2.6875 28.515625 2.6875 28.8125 
Q 3.765625 33.15625 4.765625 36.171875 
Q 5.765625 39.203125 7.890625 41.6875 
Q 10.015625 44.1875 13.1875 44.1875 
Q 16.65625 44.1875 19.265625 42.1875 
Q 21.875 40.1875 22.515625 36.921875 
Q 25.046875 40.234375 28.296875 42.203125 
Q 31.546875 44.1875 35.40625 44.1875 
Q 38.578125 44.1875 40.984375 42.328125 
Q 43.40625 40.484375 43.40625 37.3125 
Q 43.40625 34.765625 41.8125 32.875 
Q 40.234375 31 37.59375 31 
Q 35.984375 31 34.890625 32 
Q 33.796875 33.015625 33.796875 34.625 
Q 33.796875 36.8125 35.40625 38.546875 
Q 37.015625 40.28125 39.109375 40.28125 
Q 37.5 41.609375 35.203125 41.609375 
Q 30.90625 41.609375 27.734375 38.546875 
Q 24.5625 35.5 22.015625 30.8125 
L 14.890625 2.203125 
Q 14.546875 0.828125 13.34375 -0.140625 
Q 12.15625 -1.125 10.6875 -1.125 
Q 9.46875 -1.125 8.59375 -0.34375 
Q 7.71875 0.4375 7.71875 1.703125 
" id="Cmmi10-72"/>
    </defs>
    <g transform="translate(121.12 153.568527188)scale(0.16 -0.16)">
     <use transform="translate(0.0 0.6875)" xlink:href="#Cmmi10-57"/>
     <use transform="translate(94.384765625 -16.318749999999994)scale(0.7)" xlink:href="#Cmmi10-72"/>
    </g>
   </g>
  </g>
 </g>
 <defs>
  <clipPath id="p70289ccd28">
   <rect height="216.0" width="216.0" x="0.0" y="0.0"/>
  </clipPath>
 </defs>
</svg>
