<?xml version="1.0" encoding="utf-8" standalone="no"?>
<!DOCTYPE svg PUBLIC "-//W3C//DTD SVG 1.1//EN"
  "http://www.w3.org/Graphics/SVG/1.1/DTD/svg11.dtd">
<!-- Created with matplotlib (http://matplotlib.org/) -->
<svg height="216pt" version="1.1" viewBox="0 0 216 216" width="216pt" xmlns="http://www.w3.org/2000/svg" xmlns:xlink="http://www.w3.org/1999/xlink">
 <defs>
  <style type="text/css">
*{stroke-linecap:butt;stroke-linejoin:round;stroke-miterlimit:100000;}
  </style>
 </defs>
 <g id="figure_1">
  <g id="patch_1">
   <path d="M 0 216 
L 216 216 
L 216 0 
L 0 0 
L 0 216 
z
" style="fill:none;"/>
  </g>
  <g id="axes_1">
   <g id="patch_2">
    <path clip-path="url(#p6dc09ea0c8)" d="M 43.2 129.6 
C 48.928387 129.6 54.422925 127.324088 58.473506 123.273506 
C 62.524088 119.222925 64.8 113.728387 64.8 108 
C 64.8 102.271613 62.524088 96.777075 58.473506 92.726494 
C 54.422925 88.675912 48.928387 86.4 43.2 86.4 
C 37.471613 86.4 31.977075 88.675912 27.926494 92.726494 
C 23.875912 96.777075 21.6 102.271613 21.6 108 
C 21.6 113.728387 23.875912 119.222925 27.926494 123.273506 
C 31.977075 127.324088 37.471613 129.6 43.2 129.6 
z
" style="fill:#0000ff;opacity:0.3;stroke:#0000ff;stroke-linejoin:miter;"/>
   </g>
   <g id="patch_3">
    <path clip-path="url(#p6dc09ea0c8)" d="M 2.653512 83.305356 
Q 9.029732 88.610394 16.376285 92.230385 
L 17.370787 90.212102 
Q 19.711187 93.461375 22.607475 96.533335 
Q 18.411953 96.990153 14.055779 96.939711 
L 15.050282 94.921428 
Q 7.384533 91.144155 0.734769 85.611527 
L 2.653512 83.305356 
z
" style="fill:#0000ff;opacity:0.5;stroke:#0000ff;stroke-linecap:round;"/>
   </g>
   <g id="patch_4">
    <path clip-path="url(#p6dc09ea0c8)" d="M 23.139628 120.87782 
Q 18.439125 122.6552 14.208419 125.242688 
L 15.382362 127.162157 
Q 11.434904 127.368129 7.314541 128.305068 
Q 9.047539 124.453306 11.469221 120.763928 
L 12.643163 122.683397 
Q 17.114373 119.948817 22.078572 118.071726 
L 23.139628 120.87782 
z
" style="fill:#0000ff;opacity:0.5;stroke:#0000ff;stroke-linecap:round;"/>
   </g>
   <g id="patch_5">
    <path clip-path="url(#p6dc09ea0c8)" d="M 87.975699 67.971538 
C 93.704086 67.971538 99.198624 65.695625 103.249205 61.645044 
C 107.299787 57.594463 109.575699 52.099925 109.575699 46.371538 
C 109.575699 40.643151 107.299787 35.148613 103.249205 31.098031 
C 99.198624 27.04745 93.704086 24.771538 87.975699 24.771538 
C 82.247312 24.771538 76.752774 27.04745 72.702192 31.098031 
C 68.651611 35.148613 66.375699 40.643151 66.375699 46.371538 
C 66.375699 52.099925 68.651611 57.594463 72.702192 61.645044 
C 76.752774 65.695625 82.247312 67.971538 87.975699 67.971538 
z
" style="fill:#0000ff;opacity:0.3;stroke:#0000ff;stroke-linejoin:miter;"/>
   </g>
   <g id="patch_6">
    <path clip-path="url(#p6dc09ea0c8)" d="M 69.529168 31.272455 
Q 66.386244 27.351252 62.618037 24.12719 
L 61.155281 25.836824 
Q 59.739559 22.146217 57.575214 18.517049 
Q 61.773984 18.974969 66.031132 20.138045 
L 64.568377 21.847678 
Q 68.550797 25.255019 71.870038 29.396201 
L 69.529168 31.272455 
z
" style="fill:#0000ff;opacity:0.5;stroke:#0000ff;stroke-linecap:round;"/>
   </g>
   <g id="patch_7">
    <path clip-path="url(#p6dc09ea0c8)" d="M 160.424301 91.511516 
C 166.152688 91.511516 171.647226 89.235603 175.697808 85.185022 
C 179.748389 81.134441 182.024301 75.639903 182.024301 69.911516 
C 182.024301 64.183129 179.748389 58.68859 175.697808 54.638009 
C 171.647226 50.587428 166.152688 48.311516 160.424301 48.311516 
C 154.695914 48.311516 149.201376 50.587428 145.150795 54.638009 
C 141.100213 58.68859 138.824301 64.183129 138.824301 69.911516 
C 138.824301 75.639903 141.100213 81.134441 145.150795 85.185022 
C 149.201376 89.235603 154.695914 91.511516 160.424301 91.511516 
z
" style="fill:#0000ff;opacity:0.3;stroke:#0000ff;stroke-linejoin:miter;"/>
   </g>
   <g id="patch_8">
    <path clip-path="url(#p6dc09ea0c8)" d="M 169.084091 47.70195 
Q 171.84216 43.501133 173.743985 38.921064 
L 171.66601 38.058207 
Q 174.738503 35.571316 177.521228 32.391427 
Q 178.383212 36.526199 178.592592 40.934397 
L 176.514617 40.07154 
Q 174.504679 44.911973 171.591883 49.348454 
L 169.084091 47.70195 
z
" style="fill:#0000ff;opacity:0.5;stroke:#0000ff;stroke-linecap:round;"/>
   </g>
   <g id="patch_9">
    <path clip-path="url(#p6dc09ea0c8)" d="M 160.424301 167.688484 
C 166.152688 167.688484 171.647226 165.412572 175.697808 161.361991 
C 179.748389 157.31141 182.024301 151.816871 182.024301 146.088484 
C 182.024301 140.360097 179.748389 134.865559 175.697808 130.814978 
C 171.647226 126.764397 166.152688 124.488484 160.424301 124.488484 
C 154.695914 124.488484 149.201376 126.764397 145.150795 130.814978 
C 141.100213 134.865559 138.824301 140.360097 138.824301 146.088484 
C 138.824301 151.816871 141.100213 157.31141 145.150795 161.361991 
C 149.201376 165.412572 154.695914 167.688484 160.424301 167.688484 
z
" style="fill:#0000ff;opacity:0.3;stroke:#0000ff;stroke-linejoin:miter;"/>
   </g>
   <g id="patch_10">
    <path clip-path="url(#p6dc09ea0c8)" d="M 184.222876 147.4613 
Q 189.07038 148.786256 194.013981 149.17968 
L 194.192477 146.936771 
Q 197.507104 149.090394 201.391267 150.754282 
Q 197.725233 152.851793 193.597489 154.413133 
L 193.775986 152.170225 
Q 188.551355 151.754436 183.431907 150.35515 
L 184.222876 147.4613 
z
" style="fill:#0000ff;opacity:0.5;stroke:#0000ff;stroke-linecap:round;"/>
   </g>
   <g id="patch_11">
    <path clip-path="url(#p6dc09ea0c8)" d="M 87.975699 191.228462 
C 93.704086 191.228462 99.198624 188.95255 103.249205 184.901969 
C 107.299787 180.851387 109.575699 175.356849 109.575699 169.628462 
C 109.575699 163.900075 107.299787 158.405537 103.249205 154.354956 
C 99.198624 150.304375 93.704086 148.028462 87.975699 148.028462 
C 82.247312 148.028462 76.752774 150.304375 72.702192 154.354956 
C 68.651611 158.405537 66.375699 163.900075 66.375699 169.628462 
C 66.375699 175.356849 68.651611 180.851387 72.702192 184.901969 
C 76.752774 188.95255 82.247312 191.228462 87.975699 191.228462 
z
" style="fill:#0000ff;opacity:0.3;stroke:#0000ff;stroke-linejoin:miter;"/>
   </g>
   <g id="patch_12">
    <path clip-path="url(#p6dc09ea0c8)" d="M 94.024237 192.686475 
Q 94.262091 197.70616 95.415579 202.529378 
L 97.60387 202.006041 
Q 96.579929 205.823945 96.19775 210.032173 
Q 93.070032 207.193734 90.309566 203.750497 
L 92.497857 203.22716 
Q 91.278797 198.129756 91.027599 192.828468 
L 94.024237 192.686475 
z
" style="fill:#0000ff;opacity:0.5;stroke:#0000ff;stroke-linecap:round;"/>
   </g>
   <g id="patch_13">
    <path clip-path="url(#p6dc09ea0c8)" d="M 58.982359 90.291338 
Q 67.321486 82.844732 73.36409 73.592847 
L 71.480283 72.362493 
Q 75.005023 70.401105 78.444902 67.960365 
Q 78.317045 72.174852 77.759639 76.463675 
L 75.875832 75.23332 
Q 69.615994 84.817813 60.980549 92.529024 
L 58.982359 90.291338 
z
" style="fill:#0000ff;opacity:0.5;stroke:#0000ff;stroke-linecap:round;"/>
   </g>
   <g id="patch_14">
    <path clip-path="url(#p6dc09ea0c8)" d="M 109.694654 55.909176 
Q 119.35373 61.539029 130.020062 64.426897 
L 130.60807 62.25509 
Q 133.562665 65.001214 136.946928 67.518504 
Q 132.899203 68.699253 128.648042 69.494447 
L 129.236051 67.32264 
Q 118.18626 64.330951 108.183964 58.501051 
L 109.694654 55.909176 
z
" style="fill:#0000ff;opacity:0.5;stroke:#0000ff;stroke-linecap:round;"/>
   </g>
   <g id="patch_15">
    <path clip-path="url(#p6dc09ea0c8)" d="M 111.152786 164.578492 
Q 122.276287 163.455676 132.602977 159.522498 
L 131.802129 157.419847 
Q 135.806579 157.90484 140.02413 157.952151 
Q 137.443479 161.28659 134.471621 164.428685 
L 133.670773 162.326033 
Q 122.972834 166.400611 111.454077 167.563324 
L 111.152786 164.578492 
z
" style="fill:#0000ff;opacity:0.5;stroke:#0000ff;stroke-linecap:round;"/>
   </g>
   <g id="text_1">
    <!-- $B$ -->
    <defs>
     <path d="M 36.59375 61.265625 
C 37.5 65 37.90625 65 41.796875 65 
L 54.796875 65 
C 66.09375 65 66.09375 55.375 66.09375 54.453125 
C 66.09375 46.34375 58 36 44.796875 36 
L 30.40625 36 
z
M 53.5 35.546875 
C 64.40625 37.53125 74.296875 45.09375 74.296875 54.265625 
C 74.296875 62.03125 67.40625 68 56.09375 68 
L 24 68 
C 22.09375 68 21.203125 68 21.203125 66.03125 
C 21.203125 65 22.09375 65 23.59375 65 
C 29.703125 65 29.703125 64.25 29.703125 63.1875 
C 29.703125 63 29.703125 62.390625 29.296875 60.890625 
L 15.796875 7.375 
C 14.90625 3.890625 14.703125 2.890625 7.703125 2.890625 
C 5.796875 2.890625 4.796875 2.890625 4.796875 1.09375 
C 4.796875 0 5.40625 0 7.40625 0 
L 41.703125 0 
C 57 0 68.796875 11.546875 68.796875 21.609375 
C 68.796875 29.78125 61.59375 34.75 53.5 35.546875 
M 39.296875 2.890625 
L 25.796875 2.890625 
C 24.40625 2.890625 24.203125 2.890625 23.59375 3 
C 22.5 3.09375 22.40625 3.296875 22.40625 4.078125 
C 22.40625 4.765625 22.59375 5.359375 22.796875 6.234375 
L 29.796875 34 
L 48.59375 34 
C 60.40625 34 60.40625 23.171875 60.40625 22.390625 
C 60.40625 12.9375 51.703125 2.890625 39.296875 2.890625 
" id="CMMI12-66"/>
    </defs>
    <g transform="translate(37.2713580786 112.399471829)scale(0.16 -0.16)">
     <use transform="scale(0.9962640099626402)" xlink:href="#CMMI12-66"/>
    </g>
   </g>
   <g id="text_2">
    <!-- $G$ -->
    <defs>
     <path d="M 74.59375 69.109375 
C 74.59375 70 73.90625 70 73.703125 70 
C 73.5 70 73.09375 70 72.296875 69 
L 65.40625 60.765625 
C 64.90625 61.5625 62.90625 65.046875 59 67.328125 
C 54.703125 70 50.40625 70 48.90625 70 
C 27.5 70 5 48.359375 5 24.921875 
C 5 8.53125 16.40625 -2 31.40625 -2 
C 38.59375 -2 47.703125 0.390625 52.703125 6.671875 
C 53.796875 2.890625 56 0.1875 56.703125 0.1875 
C 57.203125 0.1875 57.296875 0.5 57.40625 0.5 
C 57.5 0.6875 58.296875 4.21875 58.796875 6.015625 
L 60.40625 12.453125 
C 61.203125 15.765625 61.59375 17.171875 62.296875 20.171875 
C 63.296875 24 63.5 24 69 24 
C 69.40625 24 70.59375 24 70.59375 26.03125 
C 70.59375 27.09375 69.59375 27.09375 69.296875 27.09375 
C 67.59375 27.09375 65.703125 27.09375 63.90625 27.09375 
L 58.5 27.09375 
C 54.296875 27.09375 49.90625 27.09375 45.796875 27.09375 
C 44.90625 27.09375 43.703125 27.09375 43.703125 25.171875 
C 43.703125 24.09375 44.5 24.09375 44.5 24 
L 47 24 
C 54.90625 24 54.90625 23.265625 54.90625 21.90625 
C 54.90625 21.796875 53 11.734375 51.09375 8.765625 
C 47.296875 3.1875 39.40625 0.890625 33.5 0.890625 
C 25.796875 0.890625 13.296875 4.875 13.296875 22.03125 
C 13.296875 28.6875 15.703125 43.875 25.40625 55.09375 
C 31.703125 62.25 41 67.109375 49.796875 67.109375 
C 61.59375 67.109375 65.796875 57.109375 65.796875 47.984375 
C 65.796875 46.40625 65.40625 44.234375 65.40625 42.84375 
C 65.40625 41.953125 66.40625 41.953125 66.703125 41.953125 
C 67.796875 41.953125 67.90625 42.046875 68.296875 43.828125 
z
" id="CMMI12-71"/>
    </defs>
    <g transform="translate(81.8199498153 50.7710095733)scale(0.16 -0.16)">
     <use transform="scale(0.9962640099626402)" xlink:href="#CMMI12-71"/>
    </g>
   </g>
   <g id="text_3">
    <!-- $C$ -->
    <defs>
     <path d="M 74.703125 69.109375 
C 74.703125 70 74 70 73.796875 70 
C 73.59375 70 73.203125 70 72.40625 69 
L 65.5 60.65625 
C 62 66.625 56.5 70 49 70 
C 27.40625 70 5 48.25 5 24.921875 
C 5 8.328125 16.703125 -2 31.296875 -2 
C 39.296875 -2 46.296875 1.375 52.09375 6.25 
C 60.796875 13.484375 63.40625 23.140625 63.40625 23.921875 
C 63.40625 24.8125 62.59375 24.8125 62.296875 24.8125 
C 61.40625 24.8125 61.296875 24.21875 61.09375 23.8125 
C 56.5 8.34375 43 0.890625 33 0.890625 
C 22.40625 0.890625 13.203125 7.640625 13.203125 21.734375 
C 13.203125 24.921875 14.203125 42.1875 25.5 55.1875 
C 31 61.546875 40.40625 67.109375 49.90625 67.109375 
C 60.90625 67.109375 65.796875 58.078125 65.796875 47.9375 
C 65.796875 45.359375 65.5 43.1875 65.5 42.78125 
C 65.5 41.890625 66.5 41.890625 66.796875 41.890625 
C 67.90625 41.890625 68 41.984375 68.40625 43.765625 
z
" id="CMMI12-67"/>
    </defs>
    <g transform="translate(154.840937397 74.3109874807)scale(0.16 -0.16)">
     <use transform="scale(0.9962640099626402)" xlink:href="#CMMI12-67"/>
    </g>
   </g>
   <g id="text_4">
    <!-- $D$ -->
    <defs>
     <path d="M 15.703125 7.375 
C 14.796875 3.890625 14.59375 2.890625 7.59375 2.890625 
C 5.703125 2.890625 4.703125 2.890625 4.703125 1.09375 
C 4.703125 0 5.296875 0 7.296875 0 
L 39 0 
C 59.203125 0 78.90625 20.8125 78.90625 43.015625 
C 78.90625 57.359375 70.296875 68 56 68 
L 23.90625 68 
C 22 68 21.09375 68 21.09375 66.109375 
C 21.09375 65.109375 22 65.109375 23.5 65.109375 
C 29.59375 65.109375 29.59375 64.3125 29.59375 63.21875 
C 29.59375 63.03125 29.59375 62.421875 29.203125 60.921875 
z
M 36.796875 61.421875 
C 37.703125 65.109375 38.09375 65.109375 42 65.109375 
L 53 65.109375 
C 62.40625 65.109375 71 60.03125 71 46.296875 
C 71 41.3125 69 24 59.296875 13.046875 
C 56.5 9.765625 48.90625 2.890625 37.40625 2.890625 
L 26 2.890625 
C 24.59375 2.890625 24.40625 2.890625 23.796875 3 
C 22.703125 3.09375 22.59375 3.296875 22.59375 4.09375 
C 22.59375 4.796875 22.796875 5.390625 23 6.28125 
z
" id="CMMI12-68"/>
    </defs>
    <g transform="translate(153.944761922 150.487956178)scale(0.16 -0.16)">
     <use transform="scale(0.9962640099626402)" xlink:href="#CMMI12-68"/>
    </g>
   </g>
   <g id="text_5">
    <!-- $M$ -->
    <defs>
     <path d="M 90.796875 60.71875 
C 91.703125 64.109375 91.90625 65.109375 99 65.109375 
C 100.90625 65.109375 101.796875 65.109375 101.796875 67 
C 101.796875 68 101.09375 68 99.203125 68 
L 87.203125 68 
C 84.703125 68 84.59375 67.90625 83.5 66.296875 
L 47 8.78125 
L 39.5 65.796875 
C 39.203125 68 39.09375 68 36.5 68 
L 24.09375 68 
C 22.203125 68 21.296875 68 21.296875 66.109375 
C 21.296875 65.109375 22.203125 65.109375 23.703125 65.109375 
C 29.796875 65.109375 29.796875 64.3125 29.796875 63.21875 
C 29.796875 63.03125 29.796875 62.421875 29.40625 60.921875 
L 16.59375 9.90625 
C 15.40625 5.109375 13.09375 2.90625 6.40625 2.90625 
C 6.09375 2.90625 4.90625 2.90625 4.90625 1.140625 
C 4.90625 0 5.796875 0 6.203125 0 
C 8.203125 0 13.296875 0 15.296875 0 
L 20.09375 0 
C 21.5 0 23.203125 0 24.59375 0 
C 25.296875 0 26.40625 0 26.40625 1.90625 
C 26.40625 2.8125 25.40625 2.90625 25 2.90625 
C 21.703125 2.90625 18.5 3.5 18.5 7.09375 
C 18.5 8.09375 18.5 8.1875 18.90625 9.578125 
L 32.703125 64.515625 
L 32.796875 64.515625 
L 41.09375 2.6875 
C 41.40625 0.296875 41.5 0 42.40625 0 
C 43.5 0 44 0.796875 44.5 1.703125 
L 84.703125 65.015625 
L 84.796875 65.015625 
L 70.296875 7.390625 
C 69.40625 3.90625 69.203125 2.90625 62.203125 2.90625 
C 60.296875 2.90625 59.296875 2.90625 59.296875 1.09375 
C 59.296875 0 60.203125 0 60.796875 0 
C 62.5 0 64.5 0 66.203125 0 
L 78 0 
C 79.703125 0 81.796875 0 83.5 0 
C 84.296875 0 85.40625 0 85.40625 1.90625 
C 85.40625 2.90625 84.5 2.90625 83 2.90625 
C 76.90625 2.90625 76.90625 3.65625 76.90625 4.59375 
C 76.90625 4.703125 76.90625 5.390625 77.09375 6.1875 
z
" id="CMMI12-77"/>
    </defs>
    <g transform="translate(80.4258247569 174.027934085)scale(0.16 -0.16)">
     <use transform="scale(0.9962640099626402)" xlink:href="#CMMI12-77"/>
    </g>
   </g>
  </g>
 </g>
 <defs>
  <clipPath id="p6dc09ea0c8">
   <rect height="216.0" width="216.0" x="0.0" y="0.0"/>
  </clipPath>
 </defs>
</svg>
