<?xml version="1.0" encoding="utf-8" standalone="no"?>
<!DOCTYPE svg PUBLIC "-//W3C//DTD SVG 1.1//EN"
  "http://www.w3.org/Graphics/SVG/1.1/DTD/svg11.dtd">
<!-- Created with matplotlib (http://matplotlib.org/) -->
<svg height="720pt" version="1.1" viewBox="0 0 720 720" width="720pt" xmlns="http://www.w3.org/2000/svg" xmlns:xlink="http://www.w3.org/1999/xlink">
 <defs>
  <style type="text/css">
*{stroke-linecap:butt;stroke-linejoin:round;}
  </style>
 </defs>
 <g id="figure_1">
  <g id="patch_1">
   <path d="M 0 720 
L 720 720 
L 720 0 
L 0 0 
z
" style="fill:#ffffff;"/>
  </g>
  <g id="axes_1">
   <g id="patch_2">
    <path d="M 90 419.04 
L 648 419.04 
L 648 86.4 
L 90 86.4 
z
" style="fill:#ffffff;"/>
   </g>
   <g id="PathCollection_1">
    <defs>
     <path d="M 0 -7.071068 
L -6.724985 -2.18508 
L -4.156269 5.720614 
L 4.156269 5.720614 
L 6.724985 -2.18508 
z
" id="m130605bbc0"/>
    </defs>
    <g clip-path="url(#pc4bea03d60)">
     <use style="fill:#4fc601;fill-opacity:0.9;" x="119.099007" xlink:href="#m130605bbc0" y="352.512"/>
    </g>
   </g>
   <g id="PathCollection_2">
    <defs>
     <path d="M -0 10 
L 10 0 
L 0 -10 
L -10 -0 
z
" id="mdd8cb25ebd"/>
    </defs>
    <g clip-path="url(#pc4bea03d60)">
     <use style="fill:#3b5dff;fill-opacity:0.9;" x="285.888726" xlink:href="#mdd8cb25ebd" y="302.616"/>
    </g>
   </g>
   <g id="PathCollection_3">
    <defs>
     <path d="M -7.071068 0 
L 7.071068 0 
M 0 7.071068 
L 0 -7.071068 
" id="mb2c46565cb" style="stroke:#4a3b53;stroke-opacity:0.9;stroke-width:1.5;"/>
    </defs>
    <g clip-path="url(#pc4bea03d60)">
     <use style="fill:#4a3b53;fill-opacity:0.9;stroke:#4a3b53;stroke-opacity:0.9;stroke-width:1.5;" x="508.275019" xlink:href="#mb2c46565cb" y="202.824"/>
    </g>
   </g>
   <g id="PathCollection_4">
    <defs>
     <path d="M 0 -7.071068 
L -1.587554 -2.18508 
L -6.724985 -2.18508 
L -2.568716 0.834626 
L -4.156269 5.720614 
L -0 2.700907 
L 4.156269 5.720614 
L 2.568716 0.834626 
L 6.724985 -2.18508 
L 1.587554 -2.18508 
z
" id="m6fd53c2394"/>
    </defs>
    <g clip-path="url(#pc4bea03d60)">
     <use style="fill:#ff2f80;fill-opacity:0.9;" x="119.099007" xlink:href="#m6fd53c2394" y="335.88"/>
    </g>
   </g>
   <g id="PathCollection_5">
    <defs>
     <path d="M -7.071068 -0 
L 7.071068 7.071068 
L 7.071068 -7.071068 
z
" id="m43ffddbe81"/>
    </defs>
    <g clip-path="url(#pc4bea03d60)">
     <use style="fill:#61615a;fill-opacity:0.9;" x="285.888726" xlink:href="#m43ffddbe81" y="252.72"/>
    </g>
   </g>
   <g id="PathCollection_6">
    <defs>
     <path d="M 0 7.071068 
C 1.875269 7.071068 3.673985 6.326016 5 5 
C 6.326016 3.673985 7.071068 1.875269 7.071068 0 
C 7.071068 -1.875269 6.326016 -3.673985 5 -5 
C 3.673985 -6.326016 1.875269 -7.071068 0 -7.071068 
C -1.875269 -7.071068 -3.673985 -6.326016 -5 -5 
C -6.326016 -3.673985 -7.071068 -1.875269 -7.071068 0 
C -7.071068 1.875269 -6.326016 3.673985 -5 5 
C -3.673985 6.326016 -1.875269 7.071068 0 7.071068 
z
" id="m54be805de1"/>
    </defs>
    <g clip-path="url(#pc4bea03d60)">
     <use style="fill:#ba0900;fill-opacity:0.9;" x="230.292153" xlink:href="#m54be805de1" y="285.984"/>
    </g>
   </g>
   <g id="PathCollection_7">
    <defs>
     <path d="M -7.070926 7.070926 
L 7.071209 7.070926 
L 7.071209 -7.071209 
L -7.070926 -7.071209 
z
" id="m60cf149f65"/>
    </defs>
    <g clip-path="url(#pc4bea03d60)">
     <use style="fill:#6b7900;fill-opacity:0.9;" x="230.292153" xlink:href="#m60cf149f65" y="285.984"/>
    </g>
   </g>
   <g id="PathCollection_8">
    <defs>
     <path d="M -7.071068 7.071068 
L 7.071068 -7.071068 
M -7.071068 -7.071068 
L 7.071068 7.071068 
" id="m226e60538b" style="stroke:#00c2a0;stroke-opacity:0.9;stroke-width:1.5;"/>
    </defs>
    <g clip-path="url(#pc4bea03d60)">
     <use style="fill:#00c2a0;fill-opacity:0.9;stroke:#00c2a0;stroke-opacity:0.9;stroke-width:1.5;" x="230.292153" xlink:href="#m226e60538b" y="302.616"/>
    </g>
   </g>
   <g id="PathCollection_9">
    <defs>
     <path d="M -0 7.071068 
L 7.071068 -7.071068 
L -7.071068 -7.071068 
z
" id="m104ddcd312"/>
    </defs>
    <g clip-path="url(#pc4bea03d60)">
     <use style="fill:#ffaa92;fill-opacity:0.9;" x="285.888726" xlink:href="#m104ddcd312" y="219.456"/>
    </g>
   </g>
   <g id="PathCollection_10">
    <defs>
     <path d="M 0 0 
L 0 -7.071068 
M 0 0 
L -5.656854 3.535534 
M 0 0 
L 5.656854 3.535534 
" id="m05fdb18968" style="stroke:#ff90c9;stroke-opacity:0.9;stroke-width:1.5;"/>
    </defs>
    <g clip-path="url(#pc4bea03d60)">
     <use style="fill:#ff90c9;fill-opacity:0.9;stroke:#ff90c9;stroke-opacity:0.9;stroke-width:1.5;" x="619.468165" xlink:href="#m05fdb18968" y="152.928"/>
    </g>
   </g>
   <g id="PathCollection_11">
    <defs>
     <path d="M 0 -7.071068 
L -7.071068 7.071068 
L 7.071068 7.071068 
z
" id="me353bdb27a"/>
    </defs>
    <g clip-path="url(#pc4bea03d60)">
     <use style="fill:#b903aa;fill-opacity:0.9;" x="397.081872" xlink:href="#me353bdb27a" y="103.032"/>
    </g>
   </g>
   <g id="matplotlib.axis_1">
    <g id="xtick_1">
     <g id="line2d_1">
      <defs>
       <path d="M 0 0 
L 0 3.5 
" id="m7eab560caf" style="stroke:#000000;stroke-width:0.8;"/>
      </defs>
      <g>
       <use style="stroke:#000000;stroke-width:0.8;" x="119.099007" xlink:href="#m7eab560caf" y="419.04"/>
      </g>
     </g>
     <g id="text_1">
      <!-- $2$ -->
      <defs>
       <path d="M 19.1875 8.296875 
L 53.609375 8.296875 
L 53.609375 0 
L 7.328125 0 
L 7.328125 8.296875 
Q 12.9375 14.109375 22.625 23.890625 
Q 32.328125 33.6875 34.8125 36.53125 
Q 39.546875 41.84375 41.421875 45.53125 
Q 43.3125 49.21875 43.3125 52.78125 
Q 43.3125 58.59375 39.234375 62.25 
Q 35.15625 65.921875 28.609375 65.921875 
Q 23.96875 65.921875 18.8125 64.3125 
Q 13.671875 62.703125 7.8125 59.421875 
L 7.8125 69.390625 
Q 13.765625 71.78125 18.9375 73 
Q 24.125 74.21875 28.421875 74.21875 
Q 39.75 74.21875 46.484375 68.546875 
Q 53.21875 62.890625 53.21875 53.421875 
Q 53.21875 48.921875 51.53125 44.890625 
Q 49.859375 40.875 45.40625 35.40625 
Q 44.1875 33.984375 37.640625 27.21875 
Q 31.109375 20.453125 19.1875 8.296875 
" id="DejaVuSans-32"/>
      </defs>
      <g transform="translate(112.699007 441.236875)scale(0.2 -0.2)">
       <use transform="translate(0 0.78125)" xlink:href="#DejaVuSans-32"/>
      </g>
     </g>
    </g>
    <g id="xtick_2">
     <g id="line2d_2">
      <g>
       <use style="stroke:#000000;stroke-width:0.8;" x="230.292153" xlink:href="#m7eab560caf" y="419.04"/>
      </g>
     </g>
     <g id="text_2">
      <!-- $4$ -->
      <defs>
       <path d="M 37.796875 64.3125 
L 12.890625 25.390625 
L 37.796875 25.390625 
z
M 35.203125 72.90625 
L 47.609375 72.90625 
L 47.609375 25.390625 
L 58.015625 25.390625 
L 58.015625 17.1875 
L 47.609375 17.1875 
L 47.609375 0 
L 37.796875 0 
L 37.796875 17.1875 
L 4.890625 17.1875 
L 4.890625 26.703125 
z
" id="DejaVuSans-34"/>
      </defs>
      <g transform="translate(223.892153 441.236875)scale(0.2 -0.2)">
       <use transform="translate(0 0.09375)" xlink:href="#DejaVuSans-34"/>
      </g>
     </g>
    </g>
    <g id="xtick_3">
     <g id="line2d_3">
      <g>
       <use style="stroke:#000000;stroke-width:0.8;" x="341.485299" xlink:href="#m7eab560caf" y="419.04"/>
      </g>
     </g>
     <g id="text_3">
      <!-- $6$ -->
      <defs>
       <path d="M 33.015625 40.375 
Q 26.375 40.375 22.484375 35.828125 
Q 18.609375 31.296875 18.609375 23.390625 
Q 18.609375 15.53125 22.484375 10.953125 
Q 26.375 6.390625 33.015625 6.390625 
Q 39.65625 6.390625 43.53125 10.953125 
Q 47.40625 15.53125 47.40625 23.390625 
Q 47.40625 31.296875 43.53125 35.828125 
Q 39.65625 40.375 33.015625 40.375 
M 52.59375 71.296875 
L 52.59375 62.3125 
Q 48.875 64.0625 45.09375 64.984375 
Q 41.3125 65.921875 37.59375 65.921875 
Q 27.828125 65.921875 22.671875 59.328125 
Q 17.53125 52.734375 16.796875 39.40625 
Q 19.671875 43.65625 24.015625 45.921875 
Q 28.375 48.1875 33.59375 48.1875 
Q 44.578125 48.1875 50.953125 41.515625 
Q 57.328125 34.859375 57.328125 23.390625 
Q 57.328125 12.15625 50.6875 5.359375 
Q 44.046875 -1.421875 33.015625 -1.421875 
Q 20.359375 -1.421875 13.671875 8.265625 
Q 6.984375 17.96875 6.984375 36.375 
Q 6.984375 53.65625 15.1875 63.9375 
Q 23.390625 74.21875 37.203125 74.21875 
Q 40.921875 74.21875 44.703125 73.484375 
Q 48.484375 72.75 52.59375 71.296875 
" id="DejaVuSans-36"/>
      </defs>
      <g transform="translate(335.085299 441.236875)scale(0.2 -0.2)">
       <use transform="translate(0 0.78125)" xlink:href="#DejaVuSans-36"/>
      </g>
     </g>
    </g>
    <g id="xtick_4">
     <g id="line2d_4">
      <g>
       <use style="stroke:#000000;stroke-width:0.8;" x="452.678446" xlink:href="#m7eab560caf" y="419.04"/>
      </g>
     </g>
     <g id="text_4">
      <!-- $8$ -->
      <defs>
       <path d="M 31.78125 34.625 
Q 24.75 34.625 20.71875 30.859375 
Q 16.703125 27.09375 16.703125 20.515625 
Q 16.703125 13.921875 20.71875 10.15625 
Q 24.75 6.390625 31.78125 6.390625 
Q 38.8125 6.390625 42.859375 10.171875 
Q 46.921875 13.96875 46.921875 20.515625 
Q 46.921875 27.09375 42.890625 30.859375 
Q 38.875 34.625 31.78125 34.625 
M 21.921875 38.8125 
Q 15.578125 40.375 12.03125 44.71875 
Q 8.5 49.078125 8.5 55.328125 
Q 8.5 64.0625 14.71875 69.140625 
Q 20.953125 74.21875 31.78125 74.21875 
Q 42.671875 74.21875 48.875 69.140625 
Q 55.078125 64.0625 55.078125 55.328125 
Q 55.078125 49.078125 51.53125 44.71875 
Q 48 40.375 41.703125 38.8125 
Q 48.828125 37.15625 52.796875 32.3125 
Q 56.78125 27.484375 56.78125 20.515625 
Q 56.78125 9.90625 50.3125 4.234375 
Q 43.84375 -1.421875 31.78125 -1.421875 
Q 19.734375 -1.421875 13.25 4.234375 
Q 6.78125 9.90625 6.78125 20.515625 
Q 6.78125 27.484375 10.78125 32.3125 
Q 14.796875 37.15625 21.921875 38.8125 
M 18.3125 54.390625 
Q 18.3125 48.734375 21.84375 45.5625 
Q 25.390625 42.390625 31.78125 42.390625 
Q 38.140625 42.390625 41.71875 45.5625 
Q 45.3125 48.734375 45.3125 54.390625 
Q 45.3125 60.0625 41.71875 63.234375 
Q 38.140625 66.40625 31.78125 66.40625 
Q 25.390625 66.40625 21.84375 63.234375 
Q 18.3125 60.0625 18.3125 54.390625 
" id="DejaVuSans-38"/>
      </defs>
      <g transform="translate(446.278446 441.236875)scale(0.2 -0.2)">
       <use transform="translate(0 0.78125)" xlink:href="#DejaVuSans-38"/>
      </g>
     </g>
    </g>
    <g id="xtick_5">
     <g id="line2d_5">
      <g>
       <use style="stroke:#000000;stroke-width:0.8;" x="563.871592" xlink:href="#m7eab560caf" y="419.04"/>
      </g>
     </g>
     <g id="text_5">
      <!-- $10$ -->
      <defs>
       <path d="M 12.40625 8.296875 
L 28.515625 8.296875 
L 28.515625 63.921875 
L 10.984375 60.40625 
L 10.984375 69.390625 
L 28.421875 72.90625 
L 38.28125 72.90625 
L 38.28125 8.296875 
L 54.390625 8.296875 
L 54.390625 0 
L 12.40625 0 
z
" id="DejaVuSans-31"/>
       <path d="M 31.78125 66.40625 
Q 24.171875 66.40625 20.328125 58.90625 
Q 16.5 51.421875 16.5 36.375 
Q 16.5 21.390625 20.328125 13.890625 
Q 24.171875 6.390625 31.78125 6.390625 
Q 39.453125 6.390625 43.28125 13.890625 
Q 47.125 21.390625 47.125 36.375 
Q 47.125 51.421875 43.28125 58.90625 
Q 39.453125 66.40625 31.78125 66.40625 
M 31.78125 74.21875 
Q 44.046875 74.21875 50.515625 64.515625 
Q 56.984375 54.828125 56.984375 36.375 
Q 56.984375 17.96875 50.515625 8.265625 
Q 44.046875 -1.421875 31.78125 -1.421875 
Q 19.53125 -1.421875 13.0625 8.265625 
Q 6.59375 17.96875 6.59375 36.375 
Q 6.59375 54.828125 13.0625 64.515625 
Q 19.53125 74.21875 31.78125 74.21875 
" id="DejaVuSans-30"/>
      </defs>
      <g transform="translate(551.071592 441.236875)scale(0.2 -0.2)">
       <use transform="translate(0 0.78125)" xlink:href="#DejaVuSans-31"/>
       <use transform="translate(63.623047 0.78125)" xlink:href="#DejaVuSans-30"/>
      </g>
     </g>
    </g>
    <g id="text_6">
     <!-- # variables -->
     <defs>
      <path d="M 50.875 44 
L 37.109375 44 
L 33.015625 27.6875 
L 46.921875 27.6875 
z
M 44 71.78125 
L 39.015625 51.515625 
L 52.78125 51.515625 
L 57.8125 71.78125 
L 66.21875 71.78125 
L 61.078125 51.515625 
L 76.125 51.515625 
L 76.125 44 
L 59.1875 44 
L 55.171875 27.6875 
L 70.515625 27.6875 
L 70.515625 20.21875 
L 53.328125 20.21875 
L 48.296875 0 
L 39.890625 0 
L 45.015625 20.21875 
L 31.203125 20.21875 
L 26.125 0 
L 17.828125 0 
L 22.796875 20.21875 
L 7.71875 20.21875 
L 7.71875 27.6875 
L 24.703125 27.6875 
L 28.71875 44 
L 13.28125 44 
L 13.28125 51.515625 
L 30.609375 51.515625 
L 35.6875 71.78125 
z
" id="DejaVuSerif-23"/>
      <path id="DejaVuSerif-20"/>
      <path d="M 24.703125 0 
L 5.609375 46.6875 
L -0.296875 46.6875 
L -0.296875 51.90625 
L 23.578125 51.90625 
L 23.578125 46.6875 
L 15.28125 46.6875 
L 29.890625 10.984375 
L 44.484375 46.6875 
L 36.71875 46.6875 
L 36.71875 51.90625 
L 56.203125 51.90625 
L 56.203125 46.6875 
L 50.390625 46.6875 
L 31.296875 0 
z
" id="DejaVuSerif-76"/>
      <path d="M 39.796875 16.3125 
L 39.796875 27.296875 
L 28.21875 27.296875 
Q 21.53125 27.296875 18.25 24.40625 
Q 14.984375 21.53125 14.984375 15.578125 
Q 14.984375 10.15625 18.296875 6.984375 
Q 21.625 3.8125 27.296875 3.8125 
Q 32.90625 3.8125 36.34375 7.28125 
Q 39.796875 10.75 39.796875 16.3125 
M 48.78125 32.421875 
L 48.78125 5.171875 
L 56.78125 5.171875 
L 56.78125 0 
L 39.796875 0 
L 39.796875 5.609375 
Q 36.8125 2 32.90625 0.28125 
Q 29 -1.421875 23.78125 -1.421875 
Q 15.140625 -1.421875 10.0625 3.171875 
Q 4.984375 7.765625 4.984375 15.578125 
Q 4.984375 23.640625 10.796875 28.078125 
Q 16.609375 32.515625 27.203125 32.515625 
L 39.796875 32.515625 
L 39.796875 36.078125 
Q 39.796875 42 36.203125 45.234375 
Q 32.625 48.484375 26.125 48.484375 
Q 20.75 48.484375 17.578125 46.046875 
Q 14.40625 43.609375 13.625 38.8125 
L 8.984375 38.8125 
L 8.984375 49.3125 
Q 13.671875 51.3125 18.09375 52.3125 
Q 22.515625 53.328125 26.703125 53.328125 
Q 37.5 53.328125 43.140625 47.96875 
Q 48.78125 42.625 48.78125 32.421875 
" id="DejaVuSerif-61"/>
      <path d="M 47.796875 52 
L 47.796875 39.015625 
L 42.625 39.015625 
Q 42.390625 42.875 40.484375 44.78125 
Q 38.578125 46.6875 34.90625 46.6875 
Q 28.265625 46.6875 24.71875 42.09375 
Q 21.1875 37.5 21.1875 28.90625 
L 21.1875 5.171875 
L 31.59375 5.171875 
L 31.59375 0 
L 4.109375 0 
L 4.109375 5.171875 
L 12.203125 5.171875 
L 12.203125 46.78125 
L 3.609375 46.78125 
L 3.609375 51.90625 
L 21.1875 51.90625 
L 21.1875 42.671875 
Q 23.828125 48.09375 27.96875 50.703125 
Q 32.125 53.328125 38.09375 53.328125 
Q 40.28125 53.328125 42.703125 52.984375 
Q 45.125 52.640625 47.796875 52 
" id="DejaVuSerif-72"/>
      <path d="M 9.71875 68.015625 
Q 9.71875 70.265625 11.34375 71.921875 
Q 12.984375 73.578125 15.28125 73.578125 
Q 17.53125 73.578125 19.15625 71.921875 
Q 20.796875 70.265625 20.796875 68.015625 
Q 20.796875 65.71875 19.1875 64.109375 
Q 17.578125 62.5 15.28125 62.5 
Q 12.984375 62.5 11.34375 64.109375 
Q 9.71875 65.71875 9.71875 68.015625 
M 21.1875 5.171875 
L 29.6875 5.171875 
L 29.6875 0 
L 3.609375 0 
L 3.609375 5.171875 
L 12.203125 5.171875 
L 12.203125 46.6875 
L 3.609375 46.6875 
L 3.609375 51.90625 
L 21.1875 51.90625 
z
" id="DejaVuSerif-69"/>
      <path d="M 11.53125 5.171875 
L 11.53125 70.796875 
L 2.875 70.796875 
L 2.875 75.984375 
L 20.515625 75.984375 
L 20.515625 43.796875 
Q 23.140625 48.6875 27.21875 51 
Q 31.296875 53.328125 37.3125 53.328125 
Q 46.875 53.328125 52.921875 45.75 
Q 58.984375 38.1875 58.984375 25.984375 
Q 58.984375 13.765625 52.921875 6.171875 
Q 46.875 -1.421875 37.3125 -1.421875 
Q 31.296875 -1.421875 27.21875 0.890625 
Q 23.140625 3.21875 20.515625 8.109375 
L 20.515625 0 
L 2.875 0 
L 2.875 5.171875 
z
M 20.515625 23.390625 
Q 20.515625 14.015625 24.09375 9.109375 
Q 27.6875 4.203125 34.515625 4.203125 
Q 41.40625 4.203125 44.9375 9.71875 
Q 48.484375 15.234375 48.484375 25.984375 
Q 48.484375 36.765625 44.9375 42.234375 
Q 41.40625 47.703125 34.515625 47.703125 
Q 27.6875 47.703125 24.09375 42.765625 
Q 20.515625 37.84375 20.515625 28.515625 
z
" id="DejaVuSerif-62"/>
      <path d="M 20.515625 5.171875 
L 29 5.171875 
L 29 0 
L 2.875 0 
L 2.875 5.171875 
L 11.53125 5.171875 
L 11.53125 70.796875 
L 2.875 70.796875 
L 2.875 75.984375 
L 20.515625 75.984375 
z
" id="DejaVuSerif-6c"/>
      <path d="M 54.203125 25 
L 15.484375 25 
L 15.484375 24.609375 
Q 15.484375 14.109375 19.4375 8.765625 
Q 23.390625 3.421875 31.109375 3.421875 
Q 37.015625 3.421875 40.796875 6.515625 
Q 44.578125 9.625 46.09375 15.71875 
L 53.328125 15.71875 
Q 51.171875 7.171875 45.375 2.875 
Q 39.59375 -1.421875 30.171875 -1.421875 
Q 18.796875 -1.421875 11.890625 6.078125 
Q 4.984375 13.578125 4.984375 25.984375 
Q 4.984375 38.28125 11.765625 45.796875 
Q 18.5625 53.328125 29.59375 53.328125 
Q 41.359375 53.328125 47.65625 46.0625 
Q 53.953125 38.8125 54.203125 25 
M 43.609375 30.171875 
Q 43.3125 39.265625 39.765625 43.875 
Q 36.234375 48.484375 29.59375 48.484375 
Q 23.390625 48.484375 19.828125 43.84375 
Q 16.265625 39.203125 15.484375 30.171875 
z
" id="DejaVuSerif-65"/>
      <path d="M 5.609375 2.875 
L 5.609375 14.984375 
L 10.796875 14.984375 
Q 10.984375 9.1875 14.421875 6.296875 
Q 17.875 3.421875 24.609375 3.421875 
Q 30.671875 3.421875 33.84375 5.6875 
Q 37.015625 7.953125 37.015625 12.3125 
Q 37.015625 15.71875 34.6875 17.8125 
Q 32.375 19.921875 24.90625 22.3125 
L 18.40625 24.515625 
Q 11.71875 26.65625 8.71875 29.875 
Q 5.71875 33.109375 5.71875 38.09375 
Q 5.71875 45.21875 10.9375 49.265625 
Q 16.15625 53.328125 25.390625 53.328125 
Q 29.5 53.328125 34.03125 52.25 
Q 38.578125 51.171875 43.40625 49.125 
L 43.40625 37.796875 
L 38.234375 37.796875 
Q 38.03125 42.828125 34.703125 45.65625 
Q 31.390625 48.484375 25.6875 48.484375 
Q 20.015625 48.484375 17.109375 46.484375 
Q 14.203125 44.484375 14.203125 40.484375 
Q 14.203125 37.203125 16.40625 35.21875 
Q 18.609375 33.25 25.203125 31.203125 
L 32.328125 29 
Q 39.703125 26.703125 42.9375 23.265625 
Q 46.1875 19.828125 46.1875 14.40625 
Q 46.1875 7.03125 40.546875 2.796875 
Q 34.90625 -1.421875 25 -1.421875 
Q 19.96875 -1.421875 15.1875 -0.34375 
Q 10.40625 0.734375 5.609375 2.875 
" id="DejaVuSerif-73"/>
     </defs>
     <g transform="translate(305.462969 482.112812)scale(0.22 -0.22)">
      <use xlink:href="#DejaVuSerif-23"/>
      <use x="83.789062" xlink:href="#DejaVuSerif-20"/>
      <use x="115.576172" xlink:href="#DejaVuSerif-76"/>
      <use x="172.070312" xlink:href="#DejaVuSerif-61"/>
      <use x="231.689453" xlink:href="#DejaVuSerif-72"/>
      <use x="279.492188" xlink:href="#DejaVuSerif-69"/>
      <use x="311.474609" xlink:href="#DejaVuSerif-61"/>
      <use x="371.09375" xlink:href="#DejaVuSerif-62"/>
      <use x="435.107422" xlink:href="#DejaVuSerif-6c"/>
      <use x="467.089844" xlink:href="#DejaVuSerif-65"/>
      <use x="526.269531" xlink:href="#DejaVuSerif-73"/>
     </g>
    </g>
   </g>
   <g id="matplotlib.axis_2">
    <g id="ytick_1">
     <g id="line2d_6">
      <defs>
       <path d="M 0 0 
L -3.5 0 
" id="ma5b22ae8e9" style="stroke:#000000;stroke-width:0.8;"/>
      </defs>
      <g>
       <use style="stroke:#000000;stroke-width:0.8;" x="90" xlink:href="#ma5b22ae8e9" y="419.04"/>
      </g>
     </g>
     <g id="text_7">
      <!-- $0.0$ -->
      <defs>
       <path d="M 10.6875 12.40625 
L 21 12.40625 
L 21 0 
L 10.6875 0 
z
" id="DejaVuSans-2e"/>
      </defs>
      <g transform="translate(51 426.638437)scale(0.2 -0.2)">
       <use transform="translate(0 0.78125)" xlink:href="#DejaVuSans-30"/>
       <use transform="translate(63.623047 0.78125)" xlink:href="#DejaVuSans-2e"/>
       <use transform="translate(95.410156 0.78125)" xlink:href="#DejaVuSans-30"/>
      </g>
     </g>
    </g>
    <g id="ytick_2">
     <g id="line2d_7">
      <g>
       <use style="stroke:#000000;stroke-width:0.8;" x="90" xlink:href="#ma5b22ae8e9" y="377.46"/>
      </g>
     </g>
     <g id="text_8">
      <!-- $2.5$ -->
      <defs>
       <path d="M 10.796875 72.90625 
L 49.515625 72.90625 
L 49.515625 64.59375 
L 19.828125 64.59375 
L 19.828125 46.734375 
Q 21.96875 47.46875 24.109375 47.828125 
Q 26.265625 48.1875 28.421875 48.1875 
Q 40.625 48.1875 47.75 41.5 
Q 54.890625 34.8125 54.890625 23.390625 
Q 54.890625 11.625 47.5625 5.09375 
Q 40.234375 -1.421875 26.90625 -1.421875 
Q 22.3125 -1.421875 17.546875 -0.640625 
Q 12.796875 0.140625 7.71875 1.703125 
L 7.71875 11.625 
Q 12.109375 9.234375 16.796875 8.0625 
Q 21.484375 6.890625 26.703125 6.890625 
Q 35.15625 6.890625 40.078125 11.328125 
Q 45.015625 15.765625 45.015625 23.390625 
Q 45.015625 31 40.078125 35.4375 
Q 35.15625 39.890625 26.703125 39.890625 
Q 22.75 39.890625 18.8125 39.015625 
Q 14.890625 38.140625 10.796875 36.28125 
z
" id="DejaVuSans-35"/>
      </defs>
      <g transform="translate(51 385.058437)scale(0.2 -0.2)">
       <use transform="translate(0 0.78125)" xlink:href="#DejaVuSans-32"/>
       <use transform="translate(63.623047 0.78125)" xlink:href="#DejaVuSans-2e"/>
       <use transform="translate(95.410156 0.78125)" xlink:href="#DejaVuSans-35"/>
      </g>
     </g>
    </g>
    <g id="ytick_3">
     <g id="line2d_8">
      <g>
       <use style="stroke:#000000;stroke-width:0.8;" x="90" xlink:href="#ma5b22ae8e9" y="335.88"/>
      </g>
     </g>
     <g id="text_9">
      <!-- $5.0$ -->
      <g transform="translate(51 343.478437)scale(0.2 -0.2)">
       <use transform="translate(0 0.78125)" xlink:href="#DejaVuSans-35"/>
       <use transform="translate(63.623047 0.78125)" xlink:href="#DejaVuSans-2e"/>
       <use transform="translate(95.410156 0.78125)" xlink:href="#DejaVuSans-30"/>
      </g>
     </g>
    </g>
    <g id="ytick_4">
     <g id="line2d_9">
      <g>
       <use style="stroke:#000000;stroke-width:0.8;" x="90" xlink:href="#ma5b22ae8e9" y="294.3"/>
      </g>
     </g>
     <g id="text_10">
      <!-- $7.5$ -->
      <defs>
       <path d="M 8.203125 72.90625 
L 55.078125 72.90625 
L 55.078125 68.703125 
L 28.609375 0 
L 18.3125 0 
L 43.21875 64.59375 
L 8.203125 64.59375 
z
" id="DejaVuSans-37"/>
      </defs>
      <g transform="translate(51 301.898437)scale(0.2 -0.2)">
       <use transform="translate(0 0.09375)" xlink:href="#DejaVuSans-37"/>
       <use transform="translate(63.623047 0.09375)" xlink:href="#DejaVuSans-2e"/>
       <use transform="translate(95.410156 0.09375)" xlink:href="#DejaVuSans-35"/>
      </g>
     </g>
    </g>
    <g id="ytick_5">
     <g id="line2d_10">
      <g>
       <use style="stroke:#000000;stroke-width:0.8;" x="90" xlink:href="#ma5b22ae8e9" y="252.72"/>
      </g>
     </g>
     <g id="text_11">
      <!-- $10.0$ -->
      <g transform="translate(38.4 260.318437)scale(0.2 -0.2)">
       <use transform="translate(0 0.78125)" xlink:href="#DejaVuSans-31"/>
       <use transform="translate(63.623047 0.78125)" xlink:href="#DejaVuSans-30"/>
       <use transform="translate(127.246094 0.78125)" xlink:href="#DejaVuSans-2e"/>
       <use transform="translate(159.033203 0.78125)" xlink:href="#DejaVuSans-30"/>
      </g>
     </g>
    </g>
    <g id="ytick_6">
     <g id="line2d_11">
      <g>
       <use style="stroke:#000000;stroke-width:0.8;" x="90" xlink:href="#ma5b22ae8e9" y="211.14"/>
      </g>
     </g>
     <g id="text_12">
      <!-- $12.5$ -->
      <g transform="translate(38.4 218.738437)scale(0.2 -0.2)">
       <use transform="translate(0 0.78125)" xlink:href="#DejaVuSans-31"/>
       <use transform="translate(63.623047 0.78125)" xlink:href="#DejaVuSans-32"/>
       <use transform="translate(127.246094 0.78125)" xlink:href="#DejaVuSans-2e"/>
       <use transform="translate(159.033203 0.78125)" xlink:href="#DejaVuSans-35"/>
      </g>
     </g>
    </g>
    <g id="ytick_7">
     <g id="line2d_12">
      <g>
       <use style="stroke:#000000;stroke-width:0.8;" x="90" xlink:href="#ma5b22ae8e9" y="169.56"/>
      </g>
     </g>
     <g id="text_13">
      <!-- $15.0$ -->
      <g transform="translate(38.4 177.158437)scale(0.2 -0.2)">
       <use transform="translate(0 0.78125)" xlink:href="#DejaVuSans-31"/>
       <use transform="translate(63.623047 0.78125)" xlink:href="#DejaVuSans-35"/>
       <use transform="translate(127.246094 0.78125)" xlink:href="#DejaVuSans-2e"/>
       <use transform="translate(159.033203 0.78125)" xlink:href="#DejaVuSans-30"/>
      </g>
     </g>
    </g>
    <g id="ytick_8">
     <g id="line2d_13">
      <g>
       <use style="stroke:#000000;stroke-width:0.8;" x="90" xlink:href="#ma5b22ae8e9" y="127.98"/>
      </g>
     </g>
     <g id="text_14">
      <!-- $17.5$ -->
      <g transform="translate(38.4 135.578438)scale(0.2 -0.2)">
       <use transform="translate(0 0.09375)" xlink:href="#DejaVuSans-31"/>
       <use transform="translate(63.623047 0.09375)" xlink:href="#DejaVuSans-37"/>
       <use transform="translate(127.246094 0.09375)" xlink:href="#DejaVuSans-2e"/>
       <use transform="translate(159.033203 0.09375)" xlink:href="#DejaVuSans-35"/>
      </g>
     </g>
    </g>
    <g id="ytick_9">
     <g id="line2d_14">
      <g>
       <use style="stroke:#000000;stroke-width:0.8;" x="90" xlink:href="#ma5b22ae8e9" y="86.4"/>
      </g>
     </g>
     <g id="text_15">
      <!-- $20.0$ -->
      <g transform="translate(38.4 93.998437)scale(0.2 -0.2)">
       <use transform="translate(0 0.78125)" xlink:href="#DejaVuSans-32"/>
       <use transform="translate(63.623047 0.78125)" xlink:href="#DejaVuSans-30"/>
       <use transform="translate(127.246094 0.78125)" xlink:href="#DejaVuSans-2e"/>
       <use transform="translate(159.033203 0.78125)" xlink:href="#DejaVuSans-30"/>
      </g>
     </g>
    </g>
    <g id="text_16">
     <!-- # parameters -->
     <defs>
      <path d="M 20.515625 28.515625 
L 20.515625 23.390625 
Q 20.515625 14.015625 24.09375 9.109375 
Q 27.6875 4.203125 34.515625 4.203125 
Q 41.40625 4.203125 44.9375 9.71875 
Q 48.484375 15.234375 48.484375 25.984375 
Q 48.484375 36.765625 44.9375 42.234375 
Q 41.40625 47.703125 34.515625 47.703125 
Q 27.6875 47.703125 24.09375 42.765625 
Q 20.515625 37.84375 20.515625 28.515625 
M 11.53125 46.6875 
L 2.875 46.6875 
L 2.875 51.90625 
L 20.515625 51.90625 
L 20.515625 43.796875 
Q 23.140625 48.6875 27.21875 51 
Q 31.296875 53.328125 37.3125 53.328125 
Q 46.875 53.328125 52.921875 45.75 
Q 58.984375 38.1875 58.984375 25.984375 
Q 58.984375 13.765625 52.921875 6.171875 
Q 46.875 -1.421875 37.3125 -1.421875 
Q 31.296875 -1.421875 27.21875 0.890625 
Q 23.140625 3.21875 20.515625 8.109375 
L 20.515625 -15.578125 
L 29 -15.578125 
L 29 -20.796875 
L 2.875 -20.796875 
L 2.875 -15.578125 
L 11.53125 -15.578125 
z
" id="DejaVuSerif-70"/>
      <path d="M 51.8125 41.796875 
Q 54.390625 47.515625 58.421875 50.421875 
Q 62.453125 53.328125 67.828125 53.328125 
Q 75.984375 53.328125 79.984375 48.265625 
Q 83.984375 43.21875 83.984375 33.015625 
L 83.984375 5.171875 
L 92.09375 5.171875 
L 92.09375 0 
L 67.1875 0 
L 67.1875 5.171875 
L 75 5.171875 
L 75 31.984375 
Q 75 39.9375 72.65625 43.3125 
Q 70.3125 46.6875 64.890625 46.6875 
Q 58.890625 46.6875 55.734375 42.140625 
Q 52.59375 37.59375 52.59375 28.90625 
L 52.59375 5.171875 
L 60.40625 5.171875 
L 60.40625 0 
L 35.796875 0 
L 35.796875 5.171875 
L 43.609375 5.171875 
L 43.609375 32.328125 
Q 43.609375 40.09375 41.265625 43.390625 
Q 38.921875 46.6875 33.5 46.6875 
Q 27.484375 46.6875 24.328125 42.140625 
Q 21.1875 37.59375 21.1875 28.90625 
L 21.1875 5.171875 
L 29 5.171875 
L 29 0 
L 4.109375 0 
L 4.109375 5.171875 
L 12.203125 5.171875 
L 12.203125 46.78125 
L 3.609375 46.78125 
L 3.609375 51.90625 
L 21.1875 51.90625 
L 21.1875 42.671875 
Q 23.6875 47.859375 27.53125 50.59375 
Q 31.390625 53.328125 36.28125 53.328125 
Q 42.328125 53.328125 46.375 50.3125 
Q 50.4375 47.3125 51.8125 41.796875 
" id="DejaVuSerif-6d"/>
      <path d="M 10.796875 46.6875 
L 2.875 46.6875 
L 2.875 51.90625 
L 10.796875 51.90625 
L 10.796875 68.015625 
L 19.828125 68.015625 
L 19.828125 51.90625 
L 36.71875 51.90625 
L 36.71875 46.6875 
L 19.828125 46.6875 
L 19.828125 13.71875 
Q 19.828125 7.125 21.09375 5.265625 
Q 22.359375 3.421875 25.78125 3.421875 
Q 29.296875 3.421875 30.90625 5.484375 
Q 32.515625 7.5625 32.625 12.203125 
L 39.40625 12.203125 
Q 39.015625 5.125 35.546875 1.84375 
Q 32.078125 -1.421875 25 -1.421875 
Q 17.234375 -1.421875 14.015625 2.015625 
Q 10.796875 5.46875 10.796875 13.71875 
z
" id="DejaVuSerif-74"/>
     </defs>
     <g transform="translate(13.824687 329.625469)rotate(-90)scale(0.22 -0.22)">
      <use xlink:href="#DejaVuSerif-23"/>
      <use x="83.789062" xlink:href="#DejaVuSerif-20"/>
      <use x="115.576172" xlink:href="#DejaVuSerif-70"/>
      <use x="179.589844" xlink:href="#DejaVuSerif-61"/>
      <use x="239.208984" xlink:href="#DejaVuSerif-72"/>
      <use x="287.011719" xlink:href="#DejaVuSerif-61"/>
      <use x="346.630859" xlink:href="#DejaVuSerif-6d"/>
      <use x="441.455078" xlink:href="#DejaVuSerif-65"/>
      <use x="500.634766" xlink:href="#DejaVuSerif-74"/>
      <use x="540.820312" xlink:href="#DejaVuSerif-65"/>
      <use x="600" xlink:href="#DejaVuSerif-72"/>
      <use x="647.802734" xlink:href="#DejaVuSerif-73"/>
     </g>
    </g>
   </g>
   <g id="patch_3">
    <path d="M 90 419.04 
L 90 86.4 
" style="fill:none;stroke:#000000;stroke-linecap:square;stroke-linejoin:miter;stroke-width:0.8;"/>
   </g>
   <g id="patch_4">
    <path d="M 648 419.04 
L 648 86.4 
" style="fill:none;stroke:#000000;stroke-linecap:square;stroke-linejoin:miter;stroke-width:0.8;"/>
   </g>
   <g id="patch_5">
    <path d="M 90 419.04 
L 648 419.04 
" style="fill:none;stroke:#000000;stroke-linecap:square;stroke-linejoin:miter;stroke-width:0.8;"/>
   </g>
   <g id="patch_6">
    <path d="M 90 86.4 
L 648 86.4 
" style="fill:none;stroke:#000000;stroke-linecap:square;stroke-linejoin:miter;stroke-width:0.8;"/>
   </g>
   <g id="legend_1">
    <g id="PathCollection_12">
     <path d="M 209.432031 529.353297 
L 202.707046 534.239285 
L 205.275762 542.144979 
L 213.588301 542.144979 
L 216.157016 534.239285 
z
" style="fill:#4fc601;fill-opacity:0.9;"/>
     <path d="M 209.432031 529.353297 
L 202.707046 534.239285 
L 205.275762 542.144979 
L 213.588301 542.144979 
L 216.157016 534.239285 
z
" style="fill:#4fc601;fill-opacity:0.9;"/>
     <path d="M 209.432031 529.353297 
L 202.707046 534.239285 
L 205.275762 542.144979 
L 213.588301 542.144979 
L 216.157016 534.239285 
z
" style="fill:#4fc601;fill-opacity:0.9;"/>
    </g>
    <g id="text_17">
     <!-- Henin1945Annalesagronomiques -->
     <defs>
      <path d="M 5.515625 0 
L 5.515625 5.171875 
L 14.796875 5.171875 
L 14.796875 67.671875 
L 5.515625 67.671875 
L 5.515625 72.90625 
L 33.984375 72.90625 
L 33.984375 67.671875 
L 24.703125 67.671875 
L 24.703125 42.484375 
L 62.5 42.484375 
L 62.5 67.671875 
L 53.21875 67.671875 
L 53.21875 72.90625 
L 81.6875 72.90625 
L 81.6875 67.671875 
L 72.40625 67.671875 
L 72.40625 5.171875 
L 81.6875 5.171875 
L 81.6875 0 
L 53.21875 0 
L 53.21875 5.171875 
L 62.5 5.171875 
L 62.5 36.53125 
L 24.703125 36.53125 
L 24.703125 5.171875 
L 33.984375 5.171875 
L 33.984375 0 
z
" id="DejaVuSerif-48"/>
      <path d="M 4.109375 0 
L 4.109375 5.171875 
L 12.203125 5.171875 
L 12.203125 46.6875 
L 3.609375 46.6875 
L 3.609375 51.90625 
L 21.1875 51.90625 
L 21.1875 42.671875 
Q 23.6875 47.953125 27.65625 50.640625 
Q 31.640625 53.328125 36.921875 53.328125 
Q 45.515625 53.328125 49.5625 48.390625 
Q 53.609375 43.453125 53.609375 33.015625 
L 53.609375 5.171875 
L 61.625 5.171875 
L 61.625 0 
L 36.8125 0 
L 36.8125 5.171875 
L 44.578125 5.171875 
L 44.578125 30.171875 
Q 44.578125 39.703125 42.234375 43.234375 
Q 39.890625 46.78125 33.984375 46.78125 
Q 27.734375 46.78125 24.453125 42.203125 
Q 21.1875 37.640625 21.1875 28.90625 
L 21.1875 5.171875 
L 29 5.171875 
L 29 0 
z
" id="DejaVuSerif-6e"/>
      <path d="M 14.203125 0 
L 14.203125 5.171875 
L 26.90625 5.171875 
L 26.90625 65.828125 
L 12.203125 56.296875 
L 12.203125 62.703125 
L 29.984375 74.21875 
L 36.71875 74.21875 
L 36.71875 5.171875 
L 49.421875 5.171875 
L 49.421875 0 
z
" id="DejaVuSerif-31"/>
      <path d="M 46.78125 32.671875 
Q 43.5 29 39.25 27.1875 
Q 35.015625 25.390625 29.6875 25.390625 
Q 18.84375 25.390625 12.5625 31.9375 
Q 6.296875 38.484375 6.296875 49.8125 
Q 6.296875 60.890625 13.109375 67.546875 
Q 19.921875 74.21875 31.296875 74.21875 
Q 43.65625 74.21875 50.265625 65.015625 
Q 56.890625 55.8125 56.890625 38.71875 
Q 56.890625 19.578125 49.015625 9.078125 
Q 41.15625 -1.421875 26.90625 -1.421875 
Q 23.046875 -1.421875 18.796875 -0.6875 
Q 14.546875 0.046875 10.109375 1.515625 
L 10.109375 13.625 
L 15.578125 13.625 
Q 16.21875 8.6875 19.390625 6.046875 
Q 22.5625 3.421875 27.875 3.421875 
Q 37.359375 3.421875 41.984375 10.5625 
Q 46.625 17.71875 46.78125 32.671875 
M 30.90625 69.390625 
Q 23.96875 69.390625 20.28125 64.328125 
Q 16.609375 59.28125 16.609375 49.8125 
Q 16.609375 40.328125 20.28125 35.25 
Q 23.96875 30.171875 30.90625 30.171875 
Q 37.84375 30.171875 41.53125 35.078125 
Q 45.21875 39.984375 45.21875 49.21875 
Q 45.21875 58.9375 41.5 64.15625 
Q 37.796875 69.390625 30.90625 69.390625 
" id="DejaVuSerif-39"/>
      <path d="M 34.90625 24.703125 
L 34.90625 63.484375 
L 10.015625 24.703125 
z
M 56.390625 0 
L 23.1875 0 
L 23.1875 5.171875 
L 34.90625 5.171875 
L 34.90625 19.484375 
L 3.078125 19.484375 
L 3.078125 24.8125 
L 35.015625 74.21875 
L 44.671875 74.21875 
L 44.671875 24.703125 
L 58.59375 24.703125 
L 58.59375 19.484375 
L 44.671875 19.484375 
L 44.671875 5.171875 
L 56.390625 5.171875 
z
" id="DejaVuSerif-34"/>
      <path d="M 50.296875 72.90625 
L 50.296875 64.890625 
L 16.890625 64.890625 
L 16.890625 44 
Q 19.4375 45.75 22.828125 46.625 
Q 26.21875 47.515625 30.421875 47.515625 
Q 42.234375 47.515625 49.0625 40.96875 
Q 55.90625 34.421875 55.90625 23.09375 
Q 55.90625 11.53125 49 5.046875 
Q 42.09375 -1.421875 29.59375 -1.421875 
Q 24.5625 -1.421875 19.28125 -0.1875 
Q 14.015625 1.03125 8.5 3.515625 
L 8.5 17.671875 
L 14.015625 17.671875 
Q 14.453125 10.75 18.421875 7.078125 
Q 22.40625 3.421875 29.59375 3.421875 
Q 37.3125 3.421875 41.453125 8.5 
Q 45.609375 13.578125 45.609375 23.09375 
Q 45.609375 32.5625 41.484375 37.609375 
Q 37.359375 42.671875 29.59375 42.671875 
Q 25.203125 42.671875 21.84375 41.109375 
Q 18.5 39.546875 15.921875 36.28125 
L 11.71875 36.28125 
L 11.71875 72.90625 
z
" id="DejaVuSerif-35"/>
      <path d="M 20.015625 26.421875 
L 46.78125 26.421875 
L 33.40625 61.078125 
z
M -0.59375 0 
L -0.59375 5.171875 
L 5.8125 5.171875 
L 31.78125 72.90625 
L 39.984375 72.90625 
L 66.015625 5.171875 
L 73.1875 5.171875 
L 73.1875 0 
L 46.6875 0 
L 46.6875 5.171875 
L 54.78125 5.171875 
L 48.6875 21.1875 
L 18.015625 21.1875 
L 11.921875 5.171875 
L 19.921875 5.171875 
L 19.921875 0 
z
" id="DejaVuSerif-41"/>
      <path d="M 52.484375 46.6875 
L 52.484375 1.125 
Q 52.484375 -10.0625 46.328125 -16.140625 
Q 40.1875 -22.21875 28.8125 -22.21875 
Q 23.6875 -22.21875 19 -21.28125 
Q 14.3125 -20.359375 10.015625 -18.5 
L 10.015625 -7.625 
L 14.703125 -7.625 
Q 15.578125 -12.703125 18.84375 -15.046875 
Q 22.125 -17.390625 28.21875 -17.390625 
Q 36.140625 -17.390625 39.8125 -12.921875 
Q 43.5 -8.453125 43.5 1.125 
L 43.5 8.109375 
Q 40.875 3.21875 36.796875 0.890625 
Q 32.71875 -1.421875 26.703125 -1.421875 
Q 17.140625 -1.421875 11.0625 6.171875 
Q 4.984375 13.765625 4.984375 25.984375 
Q 4.984375 38.1875 11.03125 45.75 
Q 17.09375 53.328125 26.703125 53.328125 
Q 32.71875 53.328125 36.796875 51 
Q 40.875 48.6875 43.5 43.796875 
L 43.5 51.90625 
L 61.078125 51.90625 
L 61.078125 46.6875 
z
M 43.5 28.515625 
Q 43.5 37.84375 39.90625 42.765625 
Q 36.328125 47.703125 29.5 47.703125 
Q 22.5625 47.703125 19.015625 42.234375 
Q 15.484375 36.765625 15.484375 25.984375 
Q 15.484375 15.234375 19.015625 9.71875 
Q 22.5625 4.203125 29.5 4.203125 
Q 36.328125 4.203125 39.90625 9.109375 
Q 43.5 14.015625 43.5 23.390625 
z
" id="DejaVuSerif-67"/>
      <path d="M 30.078125 3.421875 
Q 37.3125 3.421875 40.984375 9.125 
Q 44.671875 14.84375 44.671875 25.984375 
Q 44.671875 37.109375 40.984375 42.796875 
Q 37.3125 48.484375 30.078125 48.484375 
Q 22.859375 48.484375 19.171875 42.796875 
Q 15.484375 37.109375 15.484375 25.984375 
Q 15.484375 14.84375 19.1875 9.125 
Q 22.90625 3.421875 30.078125 3.421875 
M 30.078125 -1.421875 
Q 18.75 -1.421875 11.859375 6.078125 
Q 4.984375 13.578125 4.984375 25.984375 
Q 4.984375 38.375 11.84375 45.84375 
Q 18.703125 53.328125 30.078125 53.328125 
Q 41.453125 53.328125 48.3125 45.84375 
Q 55.171875 38.375 55.171875 25.984375 
Q 55.171875 13.578125 48.3125 6.078125 
Q 41.453125 -1.421875 30.078125 -1.421875 
" id="DejaVuSerif-6f"/>
      <path d="M 52.484375 46.6875 
L 52.484375 -15.578125 
L 61.078125 -15.578125 
L 61.078125 -20.796875 
L 35.015625 -20.796875 
L 35.015625 -15.578125 
L 43.5 -15.578125 
L 43.5 8.109375 
Q 40.875 3.21875 36.796875 0.890625 
Q 32.71875 -1.421875 26.703125 -1.421875 
Q 17.140625 -1.421875 11.0625 6.171875 
Q 4.984375 13.765625 4.984375 25.984375 
Q 4.984375 38.1875 11.03125 45.75 
Q 17.09375 53.328125 26.703125 53.328125 
Q 32.71875 53.328125 36.796875 51 
Q 40.875 48.6875 43.5 43.796875 
L 43.5 51.90625 
L 61.078125 51.90625 
L 61.078125 46.6875 
z
M 43.5 28.515625 
Q 43.5 37.84375 39.90625 42.765625 
Q 36.328125 47.703125 29.5 47.703125 
Q 22.5625 47.703125 19.015625 42.234375 
Q 15.484375 36.765625 15.484375 25.984375 
Q 15.484375 15.234375 19.015625 9.71875 
Q 22.5625 4.203125 29.5 4.203125 
Q 36.328125 4.203125 39.90625 9.109375 
Q 43.5 14.015625 43.5 23.390625 
z
" id="DejaVuSerif-71"/>
      <path d="M 35.40625 51.90625 
L 52.203125 51.90625 
L 52.203125 5.171875 
L 60.6875 5.171875 
L 60.6875 0 
L 43.21875 0 
L 43.21875 9.1875 
Q 40.71875 4 36.765625 1.28125 
Q 32.8125 -1.421875 27.59375 -1.421875 
Q 18.953125 -1.421875 14.875 3.484375 
Q 10.796875 8.40625 10.796875 18.890625 
L 10.796875 46.6875 
L 2.6875 46.6875 
L 2.6875 51.90625 
L 19.828125 51.90625 
L 19.828125 21.6875 
Q 19.828125 12.203125 22.140625 8.6875 
Q 24.46875 5.171875 30.421875 5.171875 
Q 36.671875 5.171875 39.9375 9.765625 
Q 43.21875 14.359375 43.21875 23.09375 
L 43.21875 46.6875 
L 35.40625 46.6875 
z
" id="DejaVuSerif-75"/>
     </defs>
     <g transform="translate(227.432031 539.049365)scale(0.1 -0.1)">
      <use xlink:href="#DejaVuSerif-48"/>
      <use x="87.207031" xlink:href="#DejaVuSerif-65"/>
      <use x="146.386719" xlink:href="#DejaVuSerif-6e"/>
      <use x="210.791016" xlink:href="#DejaVuSerif-69"/>
      <use x="242.773438" xlink:href="#DejaVuSerif-6e"/>
      <use x="307.177734" xlink:href="#DejaVuSerif-31"/>
      <use x="370.800781" xlink:href="#DejaVuSerif-39"/>
      <use x="434.423828" xlink:href="#DejaVuSerif-34"/>
      <use x="498.046875" xlink:href="#DejaVuSerif-35"/>
      <use x="561.669922" xlink:href="#DejaVuSerif-41"/>
      <use x="633.886719" xlink:href="#DejaVuSerif-6e"/>
      <use x="698.291016" xlink:href="#DejaVuSerif-6e"/>
      <use x="762.695312" xlink:href="#DejaVuSerif-61"/>
      <use x="822.314453" xlink:href="#DejaVuSerif-6c"/>
      <use x="854.296875" xlink:href="#DejaVuSerif-65"/>
      <use x="913.476562" xlink:href="#DejaVuSerif-73"/>
      <use x="964.794922" xlink:href="#DejaVuSerif-61"/>
      <use x="1024.414062" xlink:href="#DejaVuSerif-67"/>
      <use x="1088.427734" xlink:href="#DejaVuSerif-72"/>
      <use x="1136.230469" xlink:href="#DejaVuSerif-6f"/>
      <use x="1196.435547" xlink:href="#DejaVuSerif-6e"/>
      <use x="1260.839844" xlink:href="#DejaVuSerif-6f"/>
      <use x="1321.044922" xlink:href="#DejaVuSerif-6d"/>
      <use x="1415.869141" xlink:href="#DejaVuSerif-69"/>
      <use x="1447.851562" xlink:href="#DejaVuSerif-71"/>
      <use x="1511.865234" xlink:href="#DejaVuSerif-75"/>
      <use x="1576.269531" xlink:href="#DejaVuSerif-65"/>
      <use x="1635.449219" xlink:href="#DejaVuSerif-73"/>
     </g>
    </g>
    <g id="PathCollection_13">
     <path d="M 209.432031 561.244677 
L 219.432031 551.244677 
L 209.432031 541.244677 
L 199.432031 551.244677 
z
" style="fill:#3b5dff;fill-opacity:0.9;"/>
     <path d="M 209.432031 561.244677 
L 219.432031 551.244677 
L 209.432031 541.244677 
L 199.432031 551.244677 
z
" style="fill:#3b5dff;fill-opacity:0.9;"/>
     <path d="M 209.432031 561.244677 
L 219.432031 551.244677 
L 209.432031 541.244677 
L 199.432031 551.244677 
z
" style="fill:#3b5dff;fill-opacity:0.9;"/>
    </g>
    <g id="text_18">
     <!-- RothC-26.3 -->
     <defs>
      <path d="M 47.90625 36.1875 
Q 51.3125 35.25 53.78125 33.03125 
Q 56.25 30.8125 58.203125 26.8125 
L 68.796875 5.171875 
L 77.6875 5.171875 
L 77.6875 0 
L 60.5 0 
L 49.125 23.1875 
Q 45.84375 29.9375 43.109375 31.90625 
Q 40.375 33.890625 35.59375 33.890625 
L 24.703125 33.890625 
L 24.703125 5.171875 
L 35.015625 5.171875 
L 35.015625 0 
L 5.515625 0 
L 5.515625 5.171875 
L 14.796875 5.171875 
L 14.796875 67.671875 
L 5.515625 67.671875 
L 5.515625 72.90625 
L 42.484375 72.90625 
Q 53.125 72.90625 58.90625 67.828125 
Q 64.703125 62.75 64.703125 53.421875 
Q 64.703125 45.90625 60.46875 41.578125 
Q 56.25 37.25 47.90625 36.1875 
M 24.703125 39.109375 
L 39.109375 39.109375 
Q 46.484375 39.109375 50 42.59375 
Q 53.515625 46.09375 53.515625 53.421875 
Q 53.515625 60.75 50 64.203125 
Q 46.484375 67.671875 39.109375 67.671875 
L 24.703125 67.671875 
z
" id="DejaVuSerif-52"/>
      <path d="M 4.109375 0 
L 4.109375 5.171875 
L 12.203125 5.171875 
L 12.203125 70.796875 
L 3.609375 70.796875 
L 3.609375 75.984375 
L 21.1875 75.984375 
L 21.1875 42.671875 
Q 23.6875 47.953125 27.65625 50.640625 
Q 31.640625 53.328125 36.921875 53.328125 
Q 45.515625 53.328125 49.5625 48.390625 
Q 53.609375 43.453125 53.609375 33.015625 
L 53.609375 5.171875 
L 61.625 5.171875 
L 61.625 0 
L 36.8125 0 
L 36.8125 5.171875 
L 44.578125 5.171875 
L 44.578125 30.171875 
Q 44.578125 39.703125 42.25 43.1875 
Q 39.9375 46.6875 33.984375 46.6875 
Q 27.734375 46.6875 24.453125 42.140625 
Q 21.1875 37.59375 21.1875 28.90625 
L 21.1875 5.171875 
L 29 5.171875 
L 29 0 
z
" id="DejaVuSerif-68"/>
      <path d="M 70.515625 19.28125 
Q 67.28125 9.078125 59.6875 3.828125 
Q 52.09375 -1.421875 40.484375 -1.421875 
Q 33.34375 -1.421875 27.234375 1.015625 
Q 21.140625 3.46875 16.40625 8.203125 
Q 10.9375 13.671875 8.265625 20.625 
Q 5.609375 27.59375 5.609375 36.375 
Q 5.609375 53.375 15.421875 63.796875 
Q 25.25 74.21875 41.3125 74.21875 
Q 47.265625 74.21875 54 72.65625 
Q 60.75 71.09375 68.5 67.921875 
L 68.5 51.125 
L 62.984375 51.125 
Q 61.1875 60.296875 55.734375 64.640625 
Q 50.296875 69 40.484375 69 
Q 28.8125 69 22.796875 60.71875 
Q 16.796875 52.4375 16.796875 36.375 
Q 16.796875 20.359375 22.796875 12.078125 
Q 28.8125 3.8125 40.484375 3.8125 
Q 48.640625 3.8125 53.90625 7.6875 
Q 59.1875 11.578125 61.53125 19.28125 
z
" id="DejaVuSerif-43"/>
      <path d="M 4.390625 30.609375 
L 29.390625 30.609375 
L 29.390625 23 
L 4.390625 23 
z
" id="DejaVuSerif-2d"/>
      <path d="M 12.796875 55.515625 
L 7.328125 55.515625 
L 7.328125 68.5 
Q 12.546875 71.296875 17.84375 72.75 
Q 23.140625 74.21875 28.21875 74.21875 
Q 39.59375 74.21875 46.1875 68.703125 
Q 52.78125 63.1875 52.78125 53.71875 
Q 52.78125 43.015625 37.84375 28.125 
Q 36.671875 27 36.078125 26.421875 
L 17.671875 8.015625 
L 48.09375 8.015625 
L 48.09375 17 
L 53.8125 17 
L 53.8125 0 
L 6.78125 0 
L 6.78125 5.328125 
L 28.90625 27.390625 
Q 36.234375 34.71875 39.359375 40.84375 
Q 42.484375 46.96875 42.484375 53.71875 
Q 42.484375 61.078125 38.640625 65.234375 
Q 34.8125 69.390625 28.078125 69.390625 
Q 21.09375 69.390625 17.28125 65.921875 
Q 13.484375 62.453125 12.796875 55.515625 
" id="DejaVuSerif-32"/>
      <path d="M 32.71875 3.421875 
Q 39.59375 3.421875 43.296875 8.46875 
Q 47.015625 13.53125 47.015625 23 
Q 47.015625 32.46875 43.296875 37.515625 
Q 39.59375 42.578125 32.71875 42.578125 
Q 25.734375 42.578125 22.0625 37.6875 
Q 18.40625 32.8125 18.40625 23.578125 
Q 18.40625 13.875 22.109375 8.640625 
Q 25.828125 3.421875 32.71875 3.421875 
M 16.796875 40.140625 
Q 20.125 43.796875 24.3125 45.59375 
Q 28.515625 47.40625 33.796875 47.40625 
Q 44.671875 47.40625 51 40.859375 
Q 57.328125 34.328125 57.328125 23 
Q 57.328125 11.921875 50.515625 5.25 
Q 43.703125 -1.421875 32.328125 -1.421875 
Q 19.96875 -1.421875 13.328125 7.78125 
Q 6.6875 17 6.6875 34.078125 
Q 6.6875 53.21875 14.546875 63.71875 
Q 22.40625 74.21875 36.71875 74.21875 
Q 40.578125 74.21875 44.828125 73.484375 
Q 49.078125 72.75 53.515625 71.296875 
L 53.515625 59.28125 
L 48 59.28125 
Q 47.40625 64.203125 44.234375 66.796875 
Q 41.0625 69.390625 35.6875 69.390625 
Q 26.21875 69.390625 21.578125 62.203125 
Q 16.9375 55.03125 16.796875 40.140625 
" id="DejaVuSerif-36"/>
      <path d="M 9.421875 5.078125 
Q 9.421875 7.8125 11.28125 9.71875 
Q 13.140625 11.625 15.921875 11.625 
Q 18.609375 11.625 20.5 9.71875 
Q 22.40625 7.8125 22.40625 5.078125 
Q 22.40625 2.390625 20.5 0.484375 
Q 18.609375 -1.421875 15.921875 -1.421875 
Q 13.140625 -1.421875 11.28125 0.453125 
Q 9.421875 2.34375 9.421875 5.078125 
" id="DejaVuSerif-2e"/>
      <path d="M 9.71875 69.828125 
Q 15.4375 71.96875 20.671875 73.09375 
Q 25.921875 74.21875 30.515625 74.21875 
Q 41.21875 74.21875 47.21875 69.59375 
Q 53.21875 64.984375 53.21875 56.78125 
Q 53.21875 50.203125 49.0625 45.78125 
Q 44.921875 41.359375 37.3125 39.796875 
Q 46.296875 38.53125 51.25 33.28125 
Q 56.203125 28.03125 56.203125 19.671875 
Q 56.203125 9.46875 49.34375 4.015625 
Q 42.484375 -1.421875 29.59375 -1.421875 
Q 23.875 -1.421875 18.421875 -0.1875 
Q 12.984375 1.03125 7.625 3.515625 
L 7.625 17.671875 
L 13.09375 17.671875 
Q 13.578125 10.640625 17.828125 7.03125 
Q 22.078125 3.421875 29.78125 3.421875 
Q 37.25 3.421875 41.578125 7.734375 
Q 45.90625 12.0625 45.90625 19.578125 
Q 45.90625 28.171875 41.453125 32.59375 
Q 37.015625 37.015625 28.421875 37.015625 
L 23.78125 37.015625 
L 23.78125 42 
L 26.21875 42 
Q 34.765625 42 39.03125 45.53125 
Q 43.3125 49.078125 43.3125 56.203125 
Q 43.3125 62.59375 39.796875 65.984375 
Q 36.28125 69.390625 29.6875 69.390625 
Q 23.09375 69.390625 19.453125 66.265625 
Q 15.828125 63.140625 15.1875 56.984375 
L 9.71875 56.984375 
z
" id="DejaVuSerif-33"/>
     </defs>
     <g transform="translate(227.432031 553.869677)scale(0.1 -0.1)">
      <use xlink:href="#DejaVuSerif-52"/>
      <use x="75.292969" xlink:href="#DejaVuSerif-6f"/>
      <use x="135.498047" xlink:href="#DejaVuSerif-74"/>
      <use x="175.683594" xlink:href="#DejaVuSerif-68"/>
      <use x="240.087891" xlink:href="#DejaVuSerif-43"/>
      <use x="316.601562" xlink:href="#DejaVuSerif-2d"/>
      <use x="350.390625" xlink:href="#DejaVuSerif-32"/>
      <use x="414.013672" xlink:href="#DejaVuSerif-36"/>
      <use x="477.636719" xlink:href="#DejaVuSerif-2e"/>
      <use x="509.423828" xlink:href="#DejaVuSerif-33"/>
     </g>
    </g>
    <g id="PathCollection_14">
     <path d="M 202.360963 565.922802 
L 216.503099 565.922802 
M 209.432031 572.99387 
L 209.432031 558.851735 
" style="fill:#4a3b53;fill-opacity:0.9;stroke:#4a3b53;stroke-opacity:0.9;stroke-width:1.5;"/>
     <path d="M 202.360963 565.922802 
L 216.503099 565.922802 
M 209.432031 572.99387 
L 209.432031 558.851735 
" style="fill:#4a3b53;fill-opacity:0.9;stroke:#4a3b53;stroke-opacity:0.9;stroke-width:1.5;"/>
     <path d="M 202.360963 565.922802 
L 216.503099 565.922802 
M 209.432031 572.99387 
L 209.432031 558.851735 
" style="fill:#4a3b53;fill-opacity:0.9;stroke:#4a3b53;stroke-opacity:0.9;stroke-width:1.5;"/>
    </g>
    <g id="text_19">
     <!-- Century -->
     <defs>
      <path d="M 21.578125 -9.515625 
L 25 -0.875 
L 5.609375 46.6875 
L -0.296875 46.6875 
L -0.296875 51.90625 
L 23.578125 51.90625 
L 23.578125 46.6875 
L 15.28125 46.6875 
L 29.890625 10.984375 
L 44.484375 46.6875 
L 36.71875 46.6875 
L 36.71875 51.90625 
L 56.203125 51.90625 
L 56.203125 46.6875 
L 50.390625 46.6875 
L 26.609375 -11.71875 
Q 24.171875 -17.78125 21.1875 -20 
Q 18.21875 -22.21875 12.796875 -22.21875 
Q 10.5 -22.21875 8.078125 -21.828125 
Q 5.671875 -21.4375 3.21875 -20.703125 
L 3.21875 -10.796875 
L 7.8125 -10.796875 
Q 8.109375 -14.109375 9.5 -15.546875 
Q 10.890625 -17 13.8125 -17 
Q 16.5 -17 18.140625 -15.5 
Q 19.78125 -14.015625 21.578125 -9.515625 
" id="DejaVuSerif-79"/>
     </defs>
     <g transform="translate(227.432031 568.547802)scale(0.1 -0.1)">
      <use xlink:href="#DejaVuSerif-43"/>
      <use x="76.513672" xlink:href="#DejaVuSerif-65"/>
      <use x="135.693359" xlink:href="#DejaVuSerif-6e"/>
      <use x="200.097656" xlink:href="#DejaVuSerif-74"/>
      <use x="240.283203" xlink:href="#DejaVuSerif-75"/>
      <use x="304.6875" xlink:href="#DejaVuSerif-72"/>
      <use x="352.490234" xlink:href="#DejaVuSerif-79"/>
     </g>
    </g>
    <g id="PathCollection_15">
     <path d="M 209.432031 573.672047 
L 207.844478 578.558035 
L 202.707046 578.558035 
L 206.863316 581.577741 
L 205.275762 586.463729 
L 209.432031 583.444022 
L 213.588301 586.463729 
L 212.000747 581.577741 
L 216.157016 578.558035 
L 211.019585 578.558035 
z
" style="fill:#ff2f80;fill-opacity:0.9;"/>
     <path d="M 209.432031 573.672047 
L 207.844478 578.558035 
L 202.707046 578.558035 
L 206.863316 581.577741 
L 205.275762 586.463729 
L 209.432031 583.444022 
L 213.588301 586.463729 
L 212.000747 581.577741 
L 216.157016 578.558035 
L 211.019585 578.558035 
z
" style="fill:#ff2f80;fill-opacity:0.9;"/>
     <path d="M 209.432031 573.672047 
L 207.844478 578.558035 
L 202.707046 578.558035 
L 206.863316 581.577741 
L 205.275762 586.463729 
L 209.432031 583.444022 
L 213.588301 586.463729 
L 212.000747 581.577741 
L 216.157016 578.558035 
L 211.019585 578.558035 
z
" style="fill:#ff2f80;fill-opacity:0.9;"/>
    </g>
    <g id="text_20">
     <!-- ICBM -->
     <defs>
      <path d="M 24.703125 5.171875 
L 33.984375 5.171875 
L 33.984375 0 
L 5.515625 0 
L 5.515625 5.171875 
L 14.796875 5.171875 
L 14.796875 67.671875 
L 5.515625 67.671875 
L 5.515625 72.90625 
L 33.984375 72.90625 
L 33.984375 67.671875 
L 24.703125 67.671875 
z
" id="DejaVuSerif-49"/>
      <path d="M 24.703125 5.171875 
L 39.3125 5.171875 
Q 48.09375 5.171875 52.140625 8.984375 
Q 56.203125 12.796875 56.203125 21.09375 
Q 56.203125 29.34375 52.171875 33.125 
Q 48.140625 36.921875 39.3125 36.921875 
L 24.703125 36.921875 
z
M 24.703125 42.09375 
L 37.109375 42.09375 
Q 45.125 42.09375 48.796875 45.171875 
Q 52.484375 48.25 52.484375 54.890625 
Q 52.484375 61.578125 48.796875 64.625 
Q 45.125 67.671875 37.109375 67.671875 
L 24.703125 67.671875 
z
M 5.515625 0 
L 5.515625 5.171875 
L 14.796875 5.171875 
L 14.796875 67.671875 
L 5.515625 67.671875 
L 5.515625 72.90625 
L 41.5 72.90625 
Q 52.546875 72.90625 58.125 68.390625 
Q 63.71875 63.875 63.71875 54.890625 
Q 63.71875 48.390625 59.828125 44.53125 
Q 55.953125 40.671875 48.484375 39.796875 
Q 57.765625 38.625 62.578125 33.859375 
Q 67.390625 29.109375 67.390625 21.09375 
Q 67.390625 10.25 60.546875 5.125 
Q 53.71875 0 39.203125 0 
z
" id="DejaVuSerif-42"/>
      <path d="M 5.515625 0 
L 5.515625 5.171875 
L 14.796875 5.171875 
L 14.796875 67.671875 
L 4.984375 67.671875 
L 4.984375 72.90625 
L 26.21875 72.90625 
L 51.8125 21 
L 77.390625 72.90625 
L 97.3125 72.90625 
L 97.3125 67.671875 
L 87.59375 67.671875 
L 87.59375 5.171875 
L 96.921875 5.171875 
L 96.921875 0 
L 68.40625 0 
L 68.40625 5.171875 
L 77.6875 5.171875 
L 77.6875 61.53125 
L 52.6875 10.6875 
L 45.796875 10.6875 
L 20.796875 61.53125 
L 20.796875 5.171875 
L 30.078125 5.171875 
L 30.078125 0 
z
" id="DejaVuSerif-4d"/>
     </defs>
     <g transform="translate(227.432031 583.368115)scale(0.1 -0.1)">
      <use xlink:href="#DejaVuSerif-49"/>
      <use x="39.501953" xlink:href="#DejaVuSerif-43"/>
      <use x="116.015625" xlink:href="#DejaVuSerif-42"/>
      <use x="189.501953" xlink:href="#DejaVuSerif-4d"/>
     </g>
    </g>
    <g id="PathCollection_16">
     <path d="M 202.360963 595.42124 
L 216.503099 602.492308 
L 216.503099 588.350172 
z
" style="fill:#61615a;fill-opacity:0.9;"/>
     <path d="M 202.360963 595.42124 
L 216.503099 602.492308 
L 216.503099 588.350172 
z
" style="fill:#61615a;fill-opacity:0.9;"/>
     <path d="M 202.360963 595.42124 
L 216.503099 602.492308 
L 216.503099 588.350172 
z
" style="fill:#61615a;fill-opacity:0.9;"/>
    </g>
    <g id="text_21">
     <!-- BACWAVE -->
     <defs>
      <path d="M 76.21875 0 
L 68.21875 0 
L 51.515625 59.28125 
L 34.8125 0 
L 26.8125 0 
L 7.71875 67.671875 
L 0.484375 67.671875 
L 0.484375 72.90625 
L 27.09375 72.90625 
L 27.09375 67.671875 
L 18.015625 67.671875 
L 33.203125 13.8125 
L 49.8125 72.90625 
L 57.71875 72.90625 
L 74.609375 13.1875 
L 89.890625 67.671875 
L 81.5 67.671875 
L 81.5 72.90625 
L 102.484375 72.90625 
L 102.484375 67.671875 
L 95.3125 67.671875 
z
" id="DejaVuSerif-57"/>
      <path d="M 17.484375 67.671875 
L 39.015625 11.71875 
L 60.5 67.671875 
L 52.296875 67.671875 
L 52.296875 72.90625 
L 73.6875 72.90625 
L 73.6875 67.671875 
L 66.609375 67.671875 
L 40.578125 0 
L 32.171875 0 
L 6.296875 67.671875 
L -0.984375 67.671875 
L -0.984375 72.90625 
L 25.59375 72.90625 
L 25.59375 67.671875 
z
" id="DejaVuSerif-56"/>
      <path d="M 5.515625 0 
L 5.515625 5.171875 
L 14.796875 5.171875 
L 14.796875 67.671875 
L 5.515625 67.671875 
L 5.515625 72.90625 
L 64.203125 72.90625 
L 64.203125 56.6875 
L 58.203125 56.6875 
L 58.203125 66.890625 
L 24.703125 66.890625 
L 24.703125 42.484375 
L 48.578125 42.484375 
L 48.578125 51.609375 
L 54.59375 51.609375 
L 54.59375 27.390625 
L 48.578125 27.390625 
L 48.578125 36.53125 
L 24.703125 36.53125 
L 24.703125 6 
L 58.984375 6 
L 58.984375 16.21875 
L 64.984375 16.21875 
L 64.984375 0 
z
" id="DejaVuSerif-45"/>
     </defs>
     <g transform="translate(227.432031 598.04624)scale(0.1 -0.1)">
      <use xlink:href="#DejaVuSerif-42"/>
      <use x="73.486328" xlink:href="#DejaVuSerif-41"/>
      <use x="145.703125" xlink:href="#DejaVuSerif-43"/>
      <use x="222.216797" xlink:href="#DejaVuSerif-57"/>
      <use x="324.921875" xlink:href="#DejaVuSerif-41"/>
      <use x="397.060547" xlink:href="#DejaVuSerif-56"/>
      <use x="469.277344" xlink:href="#DejaVuSerif-45"/>
     </g>
    </g>
    <g id="PathCollection_17">
     <path d="M 209.432031 617.170433 
C 211.3073 617.170433 213.106016 616.425381 214.432031 615.099365 
C 215.758047 613.773349 216.503099 611.974634 216.503099 610.099365 
C 216.503099 608.224096 215.758047 606.425381 214.432031 605.099365 
C 213.106016 603.773349 211.3073 603.028297 209.432031 603.028297 
C 207.556762 603.028297 205.758047 603.773349 204.432031 605.099365 
C 203.106016 606.425381 202.360963 608.224096 202.360963 610.099365 
C 202.360963 611.974634 203.106016 613.773349 204.432031 615.099365 
C 205.758047 616.425381 207.556762 617.170433 209.432031 617.170433 
z
" style="fill:#ba0900;fill-opacity:0.9;"/>
     <path d="M 209.432031 617.170433 
C 211.3073 617.170433 213.106016 616.425381 214.432031 615.099365 
C 215.758047 613.773349 216.503099 611.974634 216.503099 610.099365 
C 216.503099 608.224096 215.758047 606.425381 214.432031 605.099365 
C 213.106016 603.773349 211.3073 603.028297 209.432031 603.028297 
C 207.556762 603.028297 205.758047 603.773349 204.432031 605.099365 
C 203.106016 606.425381 202.360963 608.224096 202.360963 610.099365 
C 202.360963 611.974634 203.106016 613.773349 204.432031 615.099365 
C 205.758047 616.425381 207.556762 617.170433 209.432031 617.170433 
z
" style="fill:#ba0900;fill-opacity:0.9;"/>
     <path d="M 209.432031 617.170433 
C 211.3073 617.170433 213.106016 616.425381 214.432031 615.099365 
C 215.758047 613.773349 216.503099 611.974634 216.503099 610.099365 
C 216.503099 608.224096 215.758047 606.425381 214.432031 605.099365 
C 213.106016 603.773349 211.3073 603.028297 209.432031 603.028297 
C 207.556762 603.028297 205.758047 603.773349 204.432031 605.099365 
C 203.106016 606.425381 202.360963 608.224096 202.360963 610.099365 
C 202.360963 611.974634 203.106016 613.773349 204.432031 615.099365 
C 205.758047 616.425381 207.556762 617.170433 209.432031 617.170433 
z
" style="fill:#ba0900;fill-opacity:0.9;"/>
    </g>
    <g id="text_22">
     <!-- Exoenzyme rMM -->
     <defs>
      <path d="M 29.109375 31.6875 
L 39.984375 46.6875 
L 33.015625 46.6875 
L 33.015625 51.90625 
L 52.984375 51.90625 
L 52.984375 46.6875 
L 46.09375 46.6875 
L 32.171875 27.484375 
L 48.390625 5.171875 
L 55.171875 5.171875 
L 55.171875 0 
L 31.203125 0 
L 31.203125 5.171875 
L 37.796875 5.171875 
L 26.515625 20.703125 
L 15.1875 5.171875 
L 21.921875 5.171875 
L 21.921875 0 
L 2.203125 0 
L 2.203125 5.171875 
L 9.078125 5.171875 
L 23.390625 24.90625 
L 7.625 46.6875 
L 1.21875 46.6875 
L 1.21875 51.90625 
L 24.421875 51.90625 
L 24.421875 46.6875 
L 18.21875 46.6875 
z
" id="DejaVuSerif-78"/>
      <path d="M 4 0 
L 4 4.203125 
L 36.53125 46.6875 
L 10.796875 46.6875 
L 10.796875 37.703125 
L 5.609375 37.703125 
L 5.609375 51.90625 
L 48.09375 51.90625 
L 48.09375 47.703125 
L 15.578125 5.171875 
L 43.796875 5.171875 
L 43.796875 14.59375 
L 49.03125 14.59375 
L 49.03125 0 
z
" id="DejaVuSerif-7a"/>
     </defs>
     <g transform="translate(227.432031 612.724365)scale(0.1 -0.1)">
      <use xlink:href="#DejaVuSerif-45"/>
      <use x="72.998047" xlink:href="#DejaVuSerif-78"/>
      <use x="129.394531" xlink:href="#DejaVuSerif-6f"/>
      <use x="189.599609" xlink:href="#DejaVuSerif-65"/>
      <use x="248.779297" xlink:href="#DejaVuSerif-6e"/>
      <use x="313.183594" xlink:href="#DejaVuSerif-7a"/>
      <use x="365.869141" xlink:href="#DejaVuSerif-79"/>
      <use x="422.363281" xlink:href="#DejaVuSerif-6d"/>
      <use x="517.1875" xlink:href="#DejaVuSerif-65"/>
      <use x="576.367188" xlink:href="#DejaVuSerif-20"/>
      <use x="608.154297" xlink:href="#DejaVuSerif-72"/>
      <use x="655.957031" xlink:href="#DejaVuSerif-4d"/>
      <use x="758.349609" xlink:href="#DejaVuSerif-4d"/>
     </g>
    </g>
    <g id="PathCollection_18">
     <path d="M 419.042355 543.495291 
L 433.18449 543.495291 
L 433.18449 529.353156 
L 419.042355 529.353156 
z
" style="fill:#6b7900;fill-opacity:0.9;"/>
     <path d="M 419.042355 543.495291 
L 433.18449 543.495291 
L 433.18449 529.353156 
L 419.042355 529.353156 
z
" style="fill:#6b7900;fill-opacity:0.9;"/>
     <path d="M 419.042355 543.495291 
L 433.18449 543.495291 
L 433.18449 529.353156 
L 419.042355 529.353156 
z
" style="fill:#6b7900;fill-opacity:0.9;"/>
    </g>
    <g id="text_23">
     <!-- Exoenzyme rMM+ -->
     <defs>
      <path d="M 45.796875 62.703125 
L 45.796875 35.296875 
L 73.1875 35.296875 
L 73.1875 27.390625 
L 45.796875 27.390625 
L 45.796875 0 
L 37.984375 0 
L 37.984375 27.390625 
L 10.59375 27.390625 
L 10.59375 35.296875 
L 37.984375 35.296875 
L 37.984375 62.703125 
z
" id="DejaVuSerif-2b"/>
     </defs>
     <g transform="translate(444.113281 539.049365)scale(0.1 -0.1)">
      <use xlink:href="#DejaVuSerif-45"/>
      <use x="72.998047" xlink:href="#DejaVuSerif-78"/>
      <use x="129.394531" xlink:href="#DejaVuSerif-6f"/>
      <use x="189.599609" xlink:href="#DejaVuSerif-65"/>
      <use x="248.779297" xlink:href="#DejaVuSerif-6e"/>
      <use x="313.183594" xlink:href="#DejaVuSerif-7a"/>
      <use x="365.869141" xlink:href="#DejaVuSerif-79"/>
      <use x="422.363281" xlink:href="#DejaVuSerif-6d"/>
      <use x="517.1875" xlink:href="#DejaVuSerif-65"/>
      <use x="576.367188" xlink:href="#DejaVuSerif-20"/>
      <use x="608.154297" xlink:href="#DejaVuSerif-72"/>
      <use x="655.957031" xlink:href="#DejaVuSerif-4d"/>
      <use x="758.349609" xlink:href="#DejaVuSerif-4d"/>
      <use x="860.742188" xlink:href="#DejaVuSerif-2b"/>
     </g>
    </g>
    <g id="PathCollection_19">
     <path d="M 419.042213 558.315745 
L 433.184349 544.17361 
M 419.042213 544.17361 
L 433.184349 558.315745 
" style="fill:#00c2a0;fill-opacity:0.9;stroke:#00c2a0;stroke-opacity:0.9;stroke-width:1.5;"/>
     <path d="M 419.042213 558.315745 
L 433.184349 544.17361 
M 419.042213 544.17361 
L 433.184349 558.315745 
" style="fill:#00c2a0;fill-opacity:0.9;stroke:#00c2a0;stroke-opacity:0.9;stroke-width:1.5;"/>
     <path d="M 419.042213 558.315745 
L 433.184349 544.17361 
M 419.042213 544.17361 
L 433.184349 558.315745 
" style="fill:#00c2a0;fill-opacity:0.9;stroke:#00c2a0;stroke-opacity:0.9;stroke-width:1.5;"/>
    </g>
    <g id="text_24">
     <!-- Exoenzyme -->
     <g transform="translate(444.113281 553.869677)scale(0.1 -0.1)">
      <use xlink:href="#DejaVuSerif-45"/>
      <use x="72.998047" xlink:href="#DejaVuSerif-78"/>
      <use x="129.394531" xlink:href="#DejaVuSerif-6f"/>
      <use x="189.599609" xlink:href="#DejaVuSerif-65"/>
      <use x="248.779297" xlink:href="#DejaVuSerif-6e"/>
      <use x="313.183594" xlink:href="#DejaVuSerif-7a"/>
      <use x="365.869141" xlink:href="#DejaVuSerif-79"/>
      <use x="422.363281" xlink:href="#DejaVuSerif-6d"/>
      <use x="517.1875" xlink:href="#DejaVuSerif-65"/>
     </g>
    </g>
    <g id="PathCollection_20">
     <path d="M 426.113281 573.136058 
L 433.184349 558.993922 
L 419.042213 558.993922 
z
" style="fill:#ffaa92;fill-opacity:0.9;"/>
     <path d="M 426.113281 573.136058 
L 433.184349 558.993922 
L 419.042213 558.993922 
z
" style="fill:#ffaa92;fill-opacity:0.9;"/>
     <path d="M 426.113281 573.136058 
L 433.184349 558.993922 
L 419.042213 558.993922 
z
" style="fill:#ffaa92;fill-opacity:0.9;"/>
    </g>
    <g id="text_25">
     <!-- FB2005 (4) -->
     <defs>
      <path d="M 5.515625 0 
L 5.515625 5.171875 
L 14.796875 5.171875 
L 14.796875 67.671875 
L 5.515625 67.671875 
L 5.515625 72.90625 
L 65.1875 72.90625 
L 65.1875 56.6875 
L 59.1875 56.6875 
L 59.1875 66.890625 
L 24.703125 66.890625 
L 24.703125 42.484375 
L 49.609375 42.484375 
L 49.609375 51.609375 
L 55.609375 51.609375 
L 55.609375 27.390625 
L 49.609375 27.390625 
L 49.609375 36.53125 
L 24.703125 36.53125 
L 24.703125 5.171875 
L 36.375 5.171875 
L 36.375 0 
z
" id="DejaVuSerif-46"/>
      <path d="M 31.78125 3.421875 
Q 39.265625 3.421875 42.96875 11.625 
Q 46.6875 19.828125 46.6875 36.375 
Q 46.6875 52.984375 42.96875 61.1875 
Q 39.265625 69.390625 31.78125 69.390625 
Q 24.3125 69.390625 20.59375 61.1875 
Q 16.890625 52.984375 16.890625 36.375 
Q 16.890625 19.828125 20.59375 11.625 
Q 24.3125 3.421875 31.78125 3.421875 
M 31.78125 -1.421875 
Q 19.921875 -1.421875 13.25 8.53125 
Q 6.59375 18.5 6.59375 36.375 
Q 6.59375 54.296875 13.25 64.25 
Q 19.921875 74.21875 31.78125 74.21875 
Q 43.703125 74.21875 50.34375 64.25 
Q 56.984375 54.296875 56.984375 36.375 
Q 56.984375 18.5 50.34375 8.53125 
Q 43.703125 -1.421875 31.78125 -1.421875 
" id="DejaVuSerif-30"/>
      <path d="M 31.890625 -15.578125 
Q 20.015625 -10.25 13.953125 1.296875 
Q 7.90625 12.84375 7.90625 30.171875 
Q 7.90625 47.5625 13.953125 59.109375 
Q 20.015625 70.65625 31.890625 75.984375 
L 31.890625 71.1875 
Q 24.359375 66.015625 21.09375 56.609375 
Q 17.828125 47.21875 17.828125 30.171875 
Q 17.828125 13.1875 21.09375 3.78125 
Q 24.359375 -5.609375 31.890625 -10.796875 
z
" id="DejaVuSerif-28"/>
      <path d="M 7.078125 -15.578125 
L 7.078125 -10.796875 
Q 14.59375 -5.609375 17.890625 3.78125 
Q 21.1875 13.1875 21.1875 30.171875 
Q 21.1875 47.21875 17.890625 56.609375 
Q 14.59375 66.015625 7.078125 71.1875 
L 7.078125 75.984375 
Q 19 70.65625 25.046875 59.109375 
Q 31.109375 47.5625 31.109375 30.171875 
Q 31.109375 12.84375 25.046875 1.296875 
Q 19 -10.25 7.078125 -15.578125 
" id="DejaVuSerif-29"/>
     </defs>
     <g transform="translate(444.113281 568.68999)scale(0.1 -0.1)">
      <use xlink:href="#DejaVuSerif-46"/>
      <use x="69.384766" xlink:href="#DejaVuSerif-42"/>
      <use x="142.871094" xlink:href="#DejaVuSerif-32"/>
      <use x="206.494141" xlink:href="#DejaVuSerif-30"/>
      <use x="270.117188" xlink:href="#DejaVuSerif-30"/>
      <use x="333.740234" xlink:href="#DejaVuSerif-35"/>
      <use x="397.363281" xlink:href="#DejaVuSerif-20"/>
      <use x="429.150391" xlink:href="#DejaVuSerif-28"/>
      <use x="468.164062" xlink:href="#DejaVuSerif-34"/>
      <use x="531.787109" xlink:href="#DejaVuSerif-29"/>
     </g>
    </g>
    <g id="PathCollection_21">
     <path d="M 426.113281 580.743115 
L 426.113281 573.672047 
M 426.113281 580.743115 
L 420.456427 584.278649 
M 426.113281 580.743115 
L 431.770135 584.278649 
" style="fill:#ff90c9;fill-opacity:0.9;stroke:#ff90c9;stroke-opacity:0.9;stroke-width:1.5;"/>
     <path d="M 426.113281 580.743115 
L 426.113281 573.672047 
M 426.113281 580.743115 
L 420.456427 584.278649 
M 426.113281 580.743115 
L 431.770135 584.278649 
" style="fill:#ff90c9;fill-opacity:0.9;stroke:#ff90c9;stroke-opacity:0.9;stroke-width:1.5;"/>
     <path d="M 426.113281 580.743115 
L 426.113281 573.672047 
M 426.113281 580.743115 
L 420.456427 584.278649 
M 426.113281 580.743115 
L 431.770135 584.278649 
" style="fill:#ff90c9;fill-opacity:0.9;stroke:#ff90c9;stroke-opacity:0.9;stroke-width:1.5;"/>
    </g>
    <g id="text_26">
     <!-- AWB -->
     <g transform="translate(444.113281 583.368115)scale(0.1 -0.1)">
      <use xlink:href="#DejaVuSerif-41"/>
      <use x="72.154297" xlink:href="#DejaVuSerif-57"/>
      <use x="174.9375" xlink:href="#DejaVuSerif-42"/>
     </g>
    </g>
    <g id="PathCollection_22">
     <path d="M 426.113281 588.350172 
L 419.042213 602.492308 
L 433.184349 602.492308 
z
" style="fill:#b903aa;fill-opacity:0.9;"/>
     <path d="M 426.113281 588.350172 
L 419.042213 602.492308 
L 433.184349 602.492308 
z
" style="fill:#b903aa;fill-opacity:0.9;"/>
     <path d="M 426.113281 588.350172 
L 419.042213 602.492308 
L 433.184349 602.492308 
z
" style="fill:#b903aa;fill-opacity:0.9;"/>
    </g>
    <g id="text_27">
     <!-- MEND -->
     <defs>
      <path d="M 4.890625 0 
L 4.890625 5.171875 
L 14.703125 5.171875 
L 14.703125 67.671875 
L 4.890625 67.671875 
L 4.890625 72.90625 
L 23.578125 72.90625 
L 67.28125 15.375 
L 67.28125 67.671875 
L 57.515625 67.671875 
L 57.515625 72.90625 
L 83.109375 72.90625 
L 83.109375 67.671875 
L 73.296875 67.671875 
L 73.296875 -1.421875 
L 67.390625 -1.421875 
L 20.703125 60.015625 
L 20.703125 5.171875 
L 30.515625 5.171875 
L 30.515625 0 
z
" id="DejaVuSerif-4e"/>
      <path d="M 24.703125 5.171875 
L 33.796875 5.171875 
Q 48 5.171875 55.59375 13.28125 
Q 63.1875 21.390625 63.1875 36.53125 
Q 63.1875 51.65625 55.609375 59.65625 
Q 48.046875 67.671875 33.796875 67.671875 
L 24.703125 67.671875 
z
M 5.515625 0 
L 5.515625 5.171875 
L 14.796875 5.171875 
L 14.796875 67.671875 
L 5.515625 67.671875 
L 5.515625 72.90625 
L 34.515625 72.90625 
Q 53.375 72.90625 63.890625 63.28125 
Q 74.421875 53.65625 74.421875 36.53125 
Q 74.421875 19.34375 63.875 9.671875 
Q 53.328125 0 34.515625 0 
z
" id="DejaVuSerif-44"/>
     </defs>
     <g transform="translate(444.113281 598.04624)scale(0.1 -0.1)">
      <use xlink:href="#DejaVuSerif-4d"/>
      <use x="102.392578" xlink:href="#DejaVuSerif-45"/>
      <use x="175.390625" xlink:href="#DejaVuSerif-4e"/>
      <use x="262.890625" xlink:href="#DejaVuSerif-44"/>
     </g>
    </g>
   </g>
  </g>
  <g id="axes_2">
   <g id="matplotlib.axis_3">
    <g id="xtick_6">
     <g id="line2d_15">
      <path clip-path="url(#pc4bea03d60)" d="M 119.099007 419.04 
L 119.099007 86.4 
" style="fill:none;stroke:#b0b0b0;stroke-linecap:square;stroke-width:0.8;"/>
     </g>
     <g id="line2d_16">
      <defs>
       <path d="M 0 0 
L 0 -3.5 
" id="m2e42709561" style="stroke:#000000;stroke-width:0.8;"/>
      </defs>
      <g>
       <use style="stroke:#000000;stroke-width:0.8;" x="119.099007" xlink:href="#m2e42709561" y="86.4"/>
      </g>
     </g>
     <g id="text_28">
      <!-- 2 -->
      <g transform="translate(114.009007 76.0725)scale(0.16 -0.16)">
       <use xlink:href="#DejaVuSerif-32"/>
      </g>
     </g>
    </g>
    <g id="xtick_7">
     <g id="line2d_17">
      <path clip-path="url(#pc4bea03d60)" d="M 230.292153 419.04 
L 230.292153 86.4 
" style="fill:none;stroke:#b0b0b0;stroke-linecap:square;stroke-width:0.8;"/>
     </g>
     <g id="line2d_18">
      <g>
       <use style="stroke:#000000;stroke-width:0.8;" x="230.292153" xlink:href="#m2e42709561" y="86.4"/>
      </g>
     </g>
     <g id="text_29">
      <!-- 3 -->
      <g transform="translate(225.202153 76.0725)scale(0.16 -0.16)">
       <use xlink:href="#DejaVuSerif-33"/>
      </g>
     </g>
    </g>
    <g id="xtick_8">
     <g id="line2d_19">
      <path clip-path="url(#pc4bea03d60)" d="M 285.888726 419.04 
L 285.888726 86.4 
" style="fill:none;stroke:#b0b0b0;stroke-linecap:square;stroke-width:0.8;"/>
     </g>
     <g id="line2d_20">
      <g>
       <use style="stroke:#000000;stroke-width:0.8;" x="285.888726" xlink:href="#m2e42709561" y="86.4"/>
      </g>
     </g>
     <g id="text_30">
      <!-- 3 -->
      <g transform="translate(280.798726 76.0725)scale(0.16 -0.16)">
       <use xlink:href="#DejaVuSerif-33"/>
      </g>
     </g>
    </g>
    <g id="xtick_9">
     <g id="line2d_21">
      <path clip-path="url(#pc4bea03d60)" d="M 397.081872 419.04 
L 397.081872 86.4 
" style="fill:none;stroke:#b0b0b0;stroke-linecap:square;stroke-width:0.8;"/>
     </g>
     <g id="line2d_22">
      <g>
       <use style="stroke:#000000;stroke-width:0.8;" x="397.081872" xlink:href="#m2e42709561" y="86.4"/>
      </g>
     </g>
     <g id="text_31">
      <!-- 1 -->
      <g transform="translate(391.991872 76.0725)scale(0.16 -0.16)">
       <use xlink:href="#DejaVuSerif-31"/>
      </g>
     </g>
    </g>
    <g id="xtick_10">
     <g id="line2d_23">
      <path clip-path="url(#pc4bea03d60)" d="M 508.275019 419.04 
L 508.275019 86.4 
" style="fill:none;stroke:#b0b0b0;stroke-linecap:square;stroke-width:0.8;"/>
     </g>
     <g id="line2d_24">
      <g>
       <use style="stroke:#000000;stroke-width:0.8;" x="508.275019" xlink:href="#m2e42709561" y="86.4"/>
      </g>
     </g>
     <g id="text_32">
      <!-- 1 -->
      <g transform="translate(503.185019 76.0725)scale(0.16 -0.16)">
       <use xlink:href="#DejaVuSerif-31"/>
      </g>
     </g>
    </g>
    <g id="xtick_11">
     <g id="line2d_25">
      <path clip-path="url(#pc4bea03d60)" d="M 619.468165 419.04 
L 619.468165 86.4 
" style="fill:none;stroke:#b0b0b0;stroke-linecap:square;stroke-width:0.8;"/>
     </g>
     <g id="line2d_26">
      <g>
       <use style="stroke:#000000;stroke-width:0.8;" x="619.468165" xlink:href="#m2e42709561" y="86.4"/>
      </g>
     </g>
     <g id="text_33">
      <!-- 1 -->
      <g transform="translate(614.378165 76.0725)scale(0.16 -0.16)">
       <use xlink:href="#DejaVuSerif-31"/>
      </g>
     </g>
    </g>
    <g id="text_34">
     <!-- # models -->
     <defs>
      <path d="M 52.484375 5.171875 
L 61.078125 5.171875 
L 61.078125 0 
L 43.5 0 
L 43.5 8.109375 
Q 40.875 3.21875 36.796875 0.890625 
Q 32.71875 -1.421875 26.703125 -1.421875 
Q 17.140625 -1.421875 11.0625 6.171875 
Q 4.984375 13.765625 4.984375 25.984375 
Q 4.984375 38.1875 11.03125 45.75 
Q 17.09375 53.328125 26.703125 53.328125 
Q 32.71875 53.328125 36.796875 51 
Q 40.875 48.6875 43.5 43.796875 
L 43.5 70.796875 
L 35.015625 70.796875 
L 35.015625 75.984375 
L 52.484375 75.984375 
z
M 43.5 23.390625 
L 43.5 28.515625 
Q 43.5 37.84375 39.90625 42.765625 
Q 36.328125 47.703125 29.5 47.703125 
Q 22.5625 47.703125 19.015625 42.234375 
Q 15.484375 36.765625 15.484375 25.984375 
Q 15.484375 15.234375 19.015625 9.71875 
Q 22.5625 4.203125 29.5 4.203125 
Q 36.328125 4.203125 39.90625 9.109375 
Q 43.5 14.015625 43.5 23.390625 
" id="DejaVuSerif-64"/>
     </defs>
     <g transform="translate(330.83125 59.915)scale(0.16 -0.16)">
      <use xlink:href="#DejaVuSerif-23"/>
      <use x="83.789062" xlink:href="#DejaVuSerif-20"/>
      <use x="115.576172" xlink:href="#DejaVuSerif-6d"/>
      <use x="210.400391" xlink:href="#DejaVuSerif-6f"/>
      <use x="270.605469" xlink:href="#DejaVuSerif-64"/>
      <use x="334.619141" xlink:href="#DejaVuSerif-65"/>
      <use x="393.798828" xlink:href="#DejaVuSerif-6c"/>
      <use x="425.78125" xlink:href="#DejaVuSerif-73"/>
     </g>
    </g>
   </g>
   <g id="patch_7">
    <path d="M 90 419.04 
L 90 86.4 
" style="fill:none;stroke:#000000;stroke-linecap:square;stroke-linejoin:miter;stroke-width:0.8;"/>
   </g>
   <g id="patch_8">
    <path d="M 648 419.04 
L 648 86.4 
" style="fill:none;stroke:#000000;stroke-linecap:square;stroke-linejoin:miter;stroke-width:0.8;"/>
   </g>
   <g id="patch_9">
    <path d="M 90 419.04 
L 648 419.04 
" style="fill:none;stroke:#000000;stroke-linecap:square;stroke-linejoin:miter;stroke-width:0.8;"/>
   </g>
   <g id="patch_10">
    <path d="M 90 86.4 
L 648 86.4 
" style="fill:none;stroke:#000000;stroke-linecap:square;stroke-linejoin:miter;stroke-width:0.8;"/>
   </g>
  </g>
  <g id="axes_3">
   <g id="matplotlib.axis_4">
    <g id="ytick_10">
     <g id="line2d_27">
      <path clip-path="url(#pc4bea03d60)" d="M 90 352.512 
L 648 352.512 
" style="fill:none;stroke:#b0b0b0;stroke-linecap:square;stroke-width:0.8;"/>
     </g>
     <g id="line2d_28">
      <defs>
       <path d="M 0 0 
L 3.5 0 
" id="m1e7ffb726c" style="stroke:#000000;stroke-width:0.8;"/>
      </defs>
      <g>
       <use style="stroke:#000000;stroke-width:0.8;" x="648" xlink:href="#m1e7ffb726c" y="352.512"/>
      </g>
     </g>
     <g id="text_35">
      <!-- 1 -->
      <g transform="translate(655 358.59075)scale(0.16 -0.16)">
       <use xlink:href="#DejaVuSerif-31"/>
      </g>
     </g>
    </g>
    <g id="ytick_11">
     <g id="line2d_29">
      <path clip-path="url(#pc4bea03d60)" d="M 90 335.88 
L 648 335.88 
" style="fill:none;stroke:#b0b0b0;stroke-linecap:square;stroke-width:0.8;"/>
     </g>
     <g id="line2d_30">
      <g>
       <use style="stroke:#000000;stroke-width:0.8;" x="648" xlink:href="#m1e7ffb726c" y="335.88"/>
      </g>
     </g>
     <g id="text_36">
      <!-- 1 -->
      <g transform="translate(655 341.95875)scale(0.16 -0.16)">
       <use xlink:href="#DejaVuSerif-31"/>
      </g>
     </g>
    </g>
    <g id="ytick_12">
     <g id="line2d_31">
      <path clip-path="url(#pc4bea03d60)" d="M 90 302.616 
L 648 302.616 
" style="fill:none;stroke:#b0b0b0;stroke-linecap:square;stroke-width:0.8;"/>
     </g>
     <g id="line2d_32">
      <g>
       <use style="stroke:#000000;stroke-width:0.8;" x="648" xlink:href="#m1e7ffb726c" y="302.616"/>
      </g>
     </g>
     <g id="text_37">
      <!-- 2 -->
      <g transform="translate(655 308.69475)scale(0.16 -0.16)">
       <use xlink:href="#DejaVuSerif-32"/>
      </g>
     </g>
    </g>
    <g id="ytick_13">
     <g id="line2d_33">
      <path clip-path="url(#pc4bea03d60)" d="M 90 285.984 
L 648 285.984 
" style="fill:none;stroke:#b0b0b0;stroke-linecap:square;stroke-width:0.8;"/>
     </g>
     <g id="line2d_34">
      <g>
       <use style="stroke:#000000;stroke-width:0.8;" x="648" xlink:href="#m1e7ffb726c" y="285.984"/>
      </g>
     </g>
     <g id="text_38">
      <!-- 2 -->
      <g transform="translate(655 292.06275)scale(0.16 -0.16)">
       <use xlink:href="#DejaVuSerif-32"/>
      </g>
     </g>
    </g>
    <g id="ytick_14">
     <g id="line2d_35">
      <path clip-path="url(#pc4bea03d60)" d="M 90 252.72 
L 648 252.72 
" style="fill:none;stroke:#b0b0b0;stroke-linecap:square;stroke-width:0.8;"/>
     </g>
     <g id="line2d_36">
      <g>
       <use style="stroke:#000000;stroke-width:0.8;" x="648" xlink:href="#m1e7ffb726c" y="252.72"/>
      </g>
     </g>
     <g id="text_39">
      <!-- 1 -->
      <g transform="translate(655 258.79875)scale(0.16 -0.16)">
       <use xlink:href="#DejaVuSerif-31"/>
      </g>
     </g>
    </g>
    <g id="ytick_15">
     <g id="line2d_37">
      <path clip-path="url(#pc4bea03d60)" d="M 90 219.456 
L 648 219.456 
" style="fill:none;stroke:#b0b0b0;stroke-linecap:square;stroke-width:0.8;"/>
     </g>
     <g id="line2d_38">
      <g>
       <use style="stroke:#000000;stroke-width:0.8;" x="648" xlink:href="#m1e7ffb726c" y="219.456"/>
      </g>
     </g>
     <g id="text_40">
      <!-- 1 -->
      <g transform="translate(655 225.53475)scale(0.16 -0.16)">
       <use xlink:href="#DejaVuSerif-31"/>
      </g>
     </g>
    </g>
    <g id="ytick_16">
     <g id="line2d_39">
      <path clip-path="url(#pc4bea03d60)" d="M 90 202.824 
L 648 202.824 
" style="fill:none;stroke:#b0b0b0;stroke-linecap:square;stroke-width:0.8;"/>
     </g>
     <g id="line2d_40">
      <g>
       <use style="stroke:#000000;stroke-width:0.8;" x="648" xlink:href="#m1e7ffb726c" y="202.824"/>
      </g>
     </g>
     <g id="text_41">
      <!-- 1 -->
      <g transform="translate(655 208.90275)scale(0.16 -0.16)">
       <use xlink:href="#DejaVuSerif-31"/>
      </g>
     </g>
    </g>
    <g id="ytick_17">
     <g id="line2d_41">
      <path clip-path="url(#pc4bea03d60)" d="M 90 152.928 
L 648 152.928 
" style="fill:none;stroke:#b0b0b0;stroke-linecap:square;stroke-width:0.8;"/>
     </g>
     <g id="line2d_42">
      <g>
       <use style="stroke:#000000;stroke-width:0.8;" x="648" xlink:href="#m1e7ffb726c" y="152.928"/>
      </g>
     </g>
     <g id="text_42">
      <!-- 1 -->
      <g transform="translate(655 159.00675)scale(0.16 -0.16)">
       <use xlink:href="#DejaVuSerif-31"/>
      </g>
     </g>
    </g>
    <g id="ytick_18">
     <g id="line2d_43">
      <path clip-path="url(#pc4bea03d60)" d="M 90 103.032 
L 648 103.032 
" style="fill:none;stroke:#b0b0b0;stroke-linecap:square;stroke-width:0.8;"/>
     </g>
     <g id="line2d_44">
      <g>
       <use style="stroke:#000000;stroke-width:0.8;" x="648" xlink:href="#m1e7ffb726c" y="103.032"/>
      </g>
     </g>
     <g id="text_43">
      <!-- 1 -->
      <g transform="translate(655 109.11075)scale(0.16 -0.16)">
       <use xlink:href="#DejaVuSerif-31"/>
      </g>
     </g>
    </g>
    <g id="text_44">
     <!-- # models -->
     <g transform="translate(681.3375 290.88875)rotate(-90)scale(0.16 -0.16)">
      <use xlink:href="#DejaVuSerif-23"/>
      <use x="83.789062" xlink:href="#DejaVuSerif-20"/>
      <use x="115.576172" xlink:href="#DejaVuSerif-6d"/>
      <use x="210.400391" xlink:href="#DejaVuSerif-6f"/>
      <use x="270.605469" xlink:href="#DejaVuSerif-64"/>
      <use x="334.619141" xlink:href="#DejaVuSerif-65"/>
      <use x="393.798828" xlink:href="#DejaVuSerif-6c"/>
      <use x="425.78125" xlink:href="#DejaVuSerif-73"/>
     </g>
    </g>
   </g>
   <g id="patch_11">
    <path d="M 90 419.04 
L 90 86.4 
" style="fill:none;stroke:#000000;stroke-linecap:square;stroke-linejoin:miter;stroke-width:0.8;"/>
   </g>
   <g id="patch_12">
    <path d="M 648 419.04 
L 648 86.4 
" style="fill:none;stroke:#000000;stroke-linecap:square;stroke-linejoin:miter;stroke-width:0.8;"/>
   </g>
   <g id="patch_13">
    <path d="M 90 419.04 
L 648 419.04 
" style="fill:none;stroke:#000000;stroke-linecap:square;stroke-linejoin:miter;stroke-width:0.8;"/>
   </g>
   <g id="patch_14">
    <path d="M 90 86.4 
L 648 86.4 
" style="fill:none;stroke:#000000;stroke-linecap:square;stroke-linejoin:miter;stroke-width:0.8;"/>
   </g>
  </g>
 </g>
 <defs>
  <clipPath id="pc4bea03d60">
   <rect height="332.64" width="558" x="90" y="86.4"/>
  </clipPath>
 </defs>
</svg>
