<?xml version="1.0" encoding="utf-8" standalone="no"?>
<!DOCTYPE svg PUBLIC "-//W3C//DTD SVG 1.1//EN"
  "http://www.w3.org/Graphics/SVG/1.1/DTD/svg11.dtd">
<!-- Created with matplotlib (http://matplotlib.org/) -->
<svg height="216pt" version="1.1" viewBox="0 0 216 216" width="216pt" xmlns="http://www.w3.org/2000/svg" xmlns:xlink="http://www.w3.org/1999/xlink">
 <defs>
  <style type="text/css">
*{stroke-linecap:butt;stroke-linejoin:round;}
  </style>
 </defs>
 <g id="figure_1">
  <g id="patch_1">
   <path d="M 0 216 
L 216 216 
L 216 0 
L 0 0 
z
" style="fill:none;"/>
  </g>
  <g id="axes_1">
   <g id="patch_2">
    <path clip-path="url(#pfbb7c39b15)" d="M 80.568 127.04256 
C 85.36266 127.04256 89.961588 125.149911 93.351925 121.781448 
C 96.742261 118.412985 98.6472 113.843727 98.6472 109.08 
C 98.6472 104.316273 96.742261 99.747015 93.351925 96.378552 
C 89.961588 93.010089 85.36266 91.11744 80.568 91.11744 
C 75.77334 91.11744 71.174412 93.010089 67.784075 96.378552 
C 64.393739 99.747015 62.4888 104.316273 62.4888 109.08 
C 62.4888 113.843727 64.393739 118.412985 67.784075 121.781448 
C 71.174412 125.149911 75.77334 127.04256 80.568 127.04256 
z
" style="fill:#0000ff;opacity:0.3;stroke:#0000ff;stroke-linejoin:miter;"/>
   </g>
   <g id="patch_3">
    <path clip-path="url(#pfbb7c39b15)" d="M 51.726331 91.231791 
Q 54.259666 93.263249 57.026518 94.884987 
L 58.164277 92.943853 
Q 60.169202 96.307219 63.030462 99.424101 
Q 58.820759 99.833789 54.371746 99.414301 
L 55.509505 97.473167 
Q 52.553727 95.740693 49.849549 93.572238 
L 51.726331 91.231791 
z
" style="fill:#0000ff;opacity:0.5;stroke:#0000ff;stroke-linecap:round;"/>
   </g>
   <g id="patch_4">
    <path clip-path="url(#pfbb7c39b15)" d="M 63.564069 120.137781 
Q 60.531561 121.299032 57.73484 122.868701 
L 58.836069 124.83079 
Q 54.920602 124.863511 50.785592 125.759868 
Q 52.557165 121.919168 55.165306 118.290492 
L 56.266535 120.252582 
Q 59.254221 118.575733 62.491236 117.336169 
L 63.564069 120.137781 
z
" style="fill:#0000ff;opacity:0.5;stroke:#0000ff;stroke-linecap:round;"/>
   </g>
   <g id="patch_5">
    <path clip-path="url(#pfbb7c39b15)" d="M 140.832 127.04256 
C 145.62666 127.04256 150.225588 125.149911 153.615925 121.781448 
C 157.006261 118.412985 158.9112 113.843727 158.9112 109.08 
C 158.9112 104.316273 157.006261 99.747015 153.615925 96.378552 
C 150.225588 93.010089 145.62666 91.11744 140.832 91.11744 
C 136.03734 91.11744 131.438412 93.010089 128.048075 96.378552 
C 124.657739 99.747015 122.7528 104.316273 122.7528 109.08 
C 122.7528 113.843727 124.657739 118.412985 128.048075 121.781448 
C 131.438412 125.149911 136.03734 127.04256 140.832 127.04256 
z
" style="fill:#0000ff;opacity:0.3;stroke:#0000ff;stroke-linejoin:miter;"/>
   </g>
   <g id="patch_6">
    <path clip-path="url(#pfbb7c39b15)" d="M 157.835931 98.022219 
Q 160.868439 96.860968 163.66516 95.291299 
L 162.563931 93.32921 
Q 166.479398 93.296489 170.614408 92.400132 
Q 168.842835 96.240832 166.234694 99.869508 
L 165.133465 97.907418 
Q 162.145779 99.584267 158.908764 100.823831 
L 157.835931 98.022219 
z
" style="fill:#0000ff;opacity:0.5;stroke:#0000ff;stroke-linecap:round;"/>
   </g>
   <g id="patch_7">
    <path clip-path="url(#pfbb7c39b15)" d="M 100.68924 110.878755 
Q 107.178597 112.289793 113.732967 112.285625 
L 113.731536 110.035625 
Q 117.242478 111.915085 121.222534 113.332836 
Q 117.692743 115.651414 113.736306 117.535623 
L 113.734875 115.285624 
Q 106.857148 115.289998 100.051818 113.810255 
L 100.68924 110.878755 
z
" style="fill:#0000ff;opacity:0.5;stroke:#0000ff;stroke-linecap:round;"/>
   </g>
   <g id="text_1">
    <!-- $Y$ -->
    <defs>
     <path d="M 6.296875 72.90625 
L 16.890625 72.90625 
L 30.515625 42.921875 
L 56.5 72.90625 
L 67.578125 72.90625 
L 34.515625 34.71875 
L 27.78125 0 
L 17.921875 0 
L 24.609375 34.71875 
z
" id="DejaVuSans-Oblique-59"/>
    </defs>
    <g transform="translate(75.608 113.495)scale(0.16 -0.16)">
     <use transform="translate(0 0.09375)" xlink:href="#DejaVuSans-Oblique-59"/>
    </g>
   </g>
   <g id="text_2">
    <!-- $O$ -->
    <defs>
     <path d="M 45.609375 66.21875 
Q 37.5 66.21875 31.296875 62.28125 
Q 25.09375 58.34375 20.515625 50.296875 
Q 17.578125 45.171875 16.03125 39.40625 
Q 14.5 33.640625 14.5 27.78125 
Q 14.5 17.625 19.359375 12.109375 
Q 24.21875 6.59375 33.109375 6.59375 
Q 41.109375 6.59375 47.375 10.5625 
Q 53.65625 14.546875 58.109375 22.40625 
Q 61.078125 27.6875 62.640625 33.46875 
Q 64.203125 39.265625 64.203125 45.015625 
Q 64.203125 55.125 59.3125 60.671875 
Q 54.4375 66.21875 45.609375 66.21875 
z
M 32.8125 -1.421875 
Q 19.390625 -1.421875 11.6875 6.53125 
Q 4 14.5 4 28.328125 
Q 4 36.234375 7 44.484375 
Q 10.015625 52.734375 15.28125 59.1875 
Q 21.484375 66.75 29.09375 70.484375 
Q 36.71875 74.21875 45.90625 74.21875 
Q 59.28125 74.21875 66.984375 66.328125 
Q 74.703125 58.453125 74.703125 44.828125 
Q 74.703125 36.421875 71.765625 28.3125 
Q 68.84375 20.21875 63.375 13.625 
Q 57.125 6 49.578125 2.28125 
Q 42.046875 -1.421875 32.8125 -1.421875 
z
" id="DejaVuSans-Oblique-4f"/>
    </defs>
    <g transform="translate(134.512 113.495)scale(0.16 -0.16)">
     <use transform="translate(0 0.78125)" xlink:href="#DejaVuSans-Oblique-4f"/>
    </g>
   </g>
  </g>
 </g>
 <defs>
  <clipPath id="pfbb7c39b15">
   <rect height="166.32" width="167.4" x="27" y="25.92"/>
  </clipPath>
 </defs>
</svg>
