<?xml version="1.0" encoding="utf-8" standalone="no"?>
<!DOCTYPE svg PUBLIC "-//W3C//DTD SVG 1.1//EN"
  "http://www.w3.org/Graphics/SVG/1.1/DTD/svg11.dtd">
<!-- Created with matplotlib (https://matplotlib.org/) -->
<svg height="720pt" version="1.1" viewBox="0 0 720 720" width="720pt" xmlns="http://www.w3.org/2000/svg" xmlns:xlink="http://www.w3.org/1999/xlink">
 <defs>
  <style type="text/css">
*{stroke-linecap:butt;stroke-linejoin:round;}
  </style>
 </defs>
 <g id="figure_1">
  <g id="patch_1">
   <path d="M 0 720 
L 720 720 
L 720 0 
L 0 0 
z
" style="fill:#ffffff;"/>
  </g>
  <g id="axes_1">
   <g id="patch_2">
    <path clip-path="url(#p469e7f045c)" d="M 115.2 489.6 
C 130.475699 489.6 145.127801 483.530901 155.929351 472.729351 
C 166.730901 461.927801 172.8 447.275699 172.8 432 
C 172.8 416.724301 166.730901 402.072199 155.929351 391.270649 
C 145.127801 380.469099 130.475699 374.4 115.2 374.4 
C 99.924301 374.4 85.272199 380.469099 74.470649 391.270649 
C 63.669099 402.072199 57.6 416.724301 57.6 432 
C 57.6 447.275699 63.669099 461.927801 74.470649 472.729351 
C 85.272199 483.530901 99.924301 489.6 115.2 489.6 
z
" style="fill:#0000ff;opacity:0.3;stroke:#0000ff;stroke-linejoin:miter;"/>
   </g>
   <g id="patch_3">
    <path clip-path="url(#p469e7f045c)" d="M 234.601863 325.257434 
C 249.877562 325.257434 264.529664 319.188335 275.331214 308.386785 
C 286.132764 297.585235 292.201863 282.933133 292.201863 267.657434 
C 292.201863 252.381735 286.132764 237.729633 275.331214 226.928083 
C 264.529664 216.126533 249.877562 210.057434 234.601863 210.057434 
C 219.326165 210.057434 204.674063 216.126533 193.872513 226.928083 
C 183.070963 237.729633 177.001863 252.381735 177.001863 267.657434 
C 177.001863 282.933133 183.070963 297.585235 193.872513 308.386785 
C 204.674063 319.188335 219.326165 325.257434 234.601863 325.257434 
z
" style="fill:#0000ff;opacity:0.3;stroke:#0000ff;stroke-linejoin:miter;"/>
   </g>
   <g id="patch_4">
    <path clip-path="url(#p469e7f045c)" d="M 262.390875 158.73613 
Q 256.964399 171.800587 254.259254 185.434943 
L 261.615855 186.894541 
Q 253.227978 196.818059 246.614853 209.314035 
Q 240.639552 196.511023 237.093852 182.029215 
L 244.450453 183.488812 
Q 247.348716 168.881113 253.155833 154.900247 
L 262.390875 158.73613 
z
" style="fill:#0000ff;opacity:0.5;stroke:#0000ff;stroke-linecap:round;"/>
   </g>
   <g id="patch_5">
    <path clip-path="url(#p469e7f045c)" d="M 186.620547 230.558307 
Q 178.019634 219.326613 167.564508 210.16671 
L 162.622159 215.807914 
Q 158.222079 203.582041 150.706808 191.606919 
Q 164.782193 192.833662 179.096656 197.0039 
L 174.154307 202.645105 
Q 185.355815 212.458924 194.560041 224.478468 
L 186.620547 230.558307 
z
" style="fill:#0000ff;opacity:0.5;stroke:#0000ff;stroke-linecap:round;"/>
   </g>
   <g id="patch_6">
    <path clip-path="url(#p469e7f045c)" d="M 427.798137 388.030708 
C 443.073835 388.030708 457.725937 381.961609 468.527487 371.160059 
C 479.329037 360.358509 485.398137 345.706407 485.398137 330.430708 
C 485.398137 315.15501 479.329037 300.502908 468.527487 289.701358 
C 457.725937 278.899808 443.073835 272.830708 427.798137 272.830708 
C 412.522438 272.830708 397.870336 278.899808 387.068786 289.701358 
C 376.267236 300.502908 370.198137 315.15501 370.198137 330.430708 
C 370.198137 345.706407 376.267236 360.358509 387.068786 371.160059 
C 397.870336 381.961609 412.522438 388.030708 427.798137 388.030708 
z
" style="fill:#0000ff;opacity:0.3;stroke:#0000ff;stroke-linejoin:miter;"/>
   </g>
   <g id="patch_7">
    <path clip-path="url(#p469e7f045c)" d="M 448.254461 273.333505 
Q 456.278609 261.682765 461.759382 248.908784 
L 454.867008 245.951559 
Q 465.134805 237.988831 474.201476 227.140868 
Q 477.384307 240.906439 477.841588 255.808977 
L 470.949214 252.851752 
Q 465.077173 266.537655 456.49017 279.005638 
L 448.254461 273.333505 
z
" style="fill:#0000ff;opacity:0.5;stroke:#0000ff;stroke-linecap:round;"/>
   </g>
   <g id="patch_8">
    <path clip-path="url(#p469e7f045c)" d="M 427.798137 591.169292 
C 443.073835 591.169292 457.725937 585.100192 468.527487 574.298642 
C 479.329037 563.497092 485.398137 548.84499 485.398137 533.569292 
C 485.398137 518.293593 479.329037 503.641491 468.527487 492.839941 
C 457.725937 482.038391 443.073835 475.969292 427.798137 475.969292 
C 412.522438 475.969292 397.870336 482.038391 387.068786 492.839941 
C 376.267236 503.641491 370.198137 518.293593 370.198137 533.569292 
C 370.198137 548.84499 376.267236 563.497092 387.068786 574.298642 
C 397.870336 585.100192 412.522438 591.169292 427.798137 591.169292 
z
" style="fill:#0000ff;opacity:0.3;stroke:#0000ff;stroke-linejoin:miter;"/>
   </g>
   <g id="patch_9">
    <path clip-path="url(#p469e7f045c)" d="M 488.422156 535.380406 
Q 501.982266 539.411547 515.824696 540.676696 
L 516.507323 533.207826 
Q 527.253251 540.512462 540.372033 545.783174 
Q 528.263746 553.064022 514.231897 558.104059 
L 514.914525 550.635189 
Q 500.083897 549.279723 485.572611 544.965816 
L 488.422156 535.380406 
z
" style="fill:#0000ff;opacity:0.5;stroke:#0000ff;stroke-linecap:round;"/>
   </g>
   <g id="patch_10">
    <path clip-path="url(#p469e7f045c)" d="M 234.601863 653.942566 
C 249.877562 653.942566 264.529664 647.873467 275.331214 637.071917 
C 286.132764 626.270367 292.201863 611.618265 292.201863 596.342566 
C 292.201863 581.066867 286.132764 566.414765 275.331214 555.613215 
C 264.529664 544.811665 249.877562 538.742566 234.601863 538.742566 
C 219.326165 538.742566 204.674063 544.811665 193.872513 555.613215 
C 183.070963 566.414765 177.001863 581.066867 177.001863 596.342566 
C 177.001863 611.618265 183.070963 626.270367 193.872513 637.071917 
C 204.674063 647.873467 219.326165 653.942566 234.601863 653.942566 
z
" style="fill:#0000ff;opacity:0.3;stroke:#0000ff;stroke-linejoin:miter;"/>
   </g>
   <g id="patch_11">
    <path clip-path="url(#p469e7f045c)" d="M 148.097745 668.12778 
Q 160.166951 660.748015 170.369533 651.307634 
L 165.275848 645.802694 
Q 177.89468 642.704669 190.589761 636.482309 
Q 187.89846 650.352358 182.254798 664.152496 
L 177.161113 658.647556 
Q 166.230178 668.761876 153.314375 676.659297 
L 148.097745 668.12778 
z
" style="fill:#0000ff;opacity:0.5;stroke:#0000ff;stroke-linecap:round;"/>
   </g>
   <g id="patch_12">
    <path clip-path="url(#p469e7f045c)" d="M 251.613244 654.5591 
Q 251.969705 668.701222 255.044023 682.257107 
L 262.358284 680.598317 
Q 258.731836 693.075558 257.773018 707.181001 
Q 247.106854 697.915241 237.977414 686.127617 
L 245.291675 684.468827 
Q 241.997884 669.9452 241.616419 654.811076 
L 251.613244 654.5591 
z
" style="fill:#0000ff;opacity:0.5;stroke:#0000ff;stroke-linecap:round;"/>
   </g>
   <g id="patch_13">
    <path clip-path="url(#p469e7f045c)" d="M 173.52117 417.801444 
Q 267.194352 407.310072 351.212494 366.217831 
L 347.917337 359.480477 
Q 361.602473 359.748184 375.616152 359.227709 
Q 367.592465 370.726591 358.901194 381.938324 
L 355.606037 375.20097 
Q 270.030407 417.054959 174.634209 427.739309 
L 173.52117 417.801444 
z
" style="fill:#ff0000;opacity:0.5;stroke:#ff0000;stroke-linecap:round;"/>
   </g>
   <g id="patch_14">
    <path clip-path="url(#p469e7f045c)" d="M 290.20928 290.560657 
Q 316.403435 306.327365 345.416528 314.409974 
L 347.42927 307.185096 
Q 357.064501 316.376479 368.488509 324.618163 
Q 355.027914 328.746803 340.72013 331.268024 
L 342.732872 324.043145 
Q 312.410695 315.595845 285.052251 299.128331 
L 290.20928 290.560657 
z
" style="fill:#0000ff;opacity:0.5;stroke:#0000ff;stroke-linecap:round;"/>
   </g>
   <g id="patch_15">
    <path clip-path="url(#p469e7f045c)" d="M 230.08326 327.511758 
Q 211.114542 419.84226 224.232552 512.446463 
L 231.658416 511.394539 
Q 227.174872 524.32715 223.339408 537.815787 
Q 214.882777 526.631457 206.905536 514.900951 
L 214.3314 513.849028 
Q 200.970215 419.528173 220.287841 325.499351 
L 230.08326 327.511758 
z
" style="fill:#0000ff;opacity:0.5;stroke:#0000ff;stroke-linecap:round;"/>
   </g>
   <g id="patch_16">
    <path clip-path="url(#p469e7f045c)" d="M 369.476966 344.629264 
Q 275.803785 355.120636 191.785643 396.212877 
L 195.0808 402.950231 
Q 181.395664 402.682524 167.381985 403.202999 
Q 175.405672 391.704117 184.096943 380.492384 
L 187.3921 387.229738 
Q 272.96773 345.375749 368.363928 334.6914 
L 369.476966 344.629264 
z
" style="fill:#0000ff;opacity:0.5;stroke:#0000ff;stroke-linecap:round;"/>
   </g>
   <g id="patch_17">
    <path clip-path="url(#p469e7f045c)" d="M 388.96102 376.197905 
Q 319.344498 439.745318 275.525807 522.374264 
L 282.151762 525.888053 
Q 270.9229 533.715395 259.891523 542.373502 
Q 259.623949 528.354506 260.065244 514.175423 
L 266.691199 517.689212 
Q 311.322181 433.52853 382.219223 368.812232 
L 388.96102 376.197905 
z
" style="fill:#0000ff;opacity:0.5;stroke:#0000ff;stroke-linecap:round;"/>
   </g>
   <g id="patch_18">
    <path clip-path="url(#p469e7f045c)" d="M 372.269617 510.775841 
Q 290.319748 464.203824 198.194229 448.063521 
L 196.89995 455.450999 
Q 185.985797 447.190498 174.342565 439.374538 
Q 187.592737 434.787952 201.214214 430.82607 
L 199.919935 438.213549 
Q 293.753232 454.653054 377.21048 502.081712 
L 372.269617 510.775841 
z
" style="fill:#0000ff;opacity:0.5;stroke:#0000ff;stroke-linecap:round;"/>
   </g>
   <g id="patch_19">
    <path clip-path="url(#p469e7f045c)" d="M 396.272275 482.490157 
Q 357.347782 396.64368 292.303705 329.435879 
L 286.91436 334.651717 
Q 282.940025 321.553653 278.114559 308.386688 
Q 291.530101 312.464318 304.878843 317.265592 
L 299.489498 322.481429 
Q 365.739331 390.935096 405.379798 478.360626 
L 396.272275 482.490157 
z
" style="fill:#0000ff;opacity:0.5;stroke:#0000ff;stroke-linecap:round;"/>
   </g>
   <g id="patch_20">
    <path clip-path="url(#p469e7f045c)" d="M 239.120467 536.488242 
Q 258.089185 444.15774 244.971175 351.553537 
L 237.545311 352.605461 
Q 242.028855 339.67285 245.864319 326.184213 
Q 254.320949 337.368543 262.298191 349.099049 
L 254.872327 350.150972 
Q 268.233512 444.471827 248.915885 538.500649 
L 239.120467 536.488242 
z
" style="fill:#0000ff;opacity:0.5;stroke:#0000ff;stroke-linecap:round;"/>
   </g>
   <g id="patch_21">
    <path clip-path="url(#p469e7f045c)" d="M 293.051385 582.186443 
Q 323.51034 579.54544 351.733264 569.03094 
L 349.114929 562.00283 
Q 362.312555 563.775369 376.399111 563.728169 
Q 367.936015 574.980247 357.842711 585.429862 
L 355.224376 578.401753 
Q 325.728022 589.390671 293.915214 592.149063 
L 293.051385 582.186443 
z
" style="fill:#0000ff;opacity:0.5;stroke:#0000ff;stroke-linecap:round;"/>
   </g>
   <g id="text_1">
    <!-- $C_{s}$ -->
    <defs>
     <path d="M 69.484375 67.28125 
L 67.484375 56.890625 
Q 62.796875 61.625 57.546875 63.921875 
Q 52.296875 66.21875 46.1875 66.21875 
Q 37.84375 66.21875 31.515625 62.203125 
Q 25.203125 58.203125 20.609375 50 
Q 17.671875 44.734375 16.125 38.84375 
Q 14.59375 32.953125 14.59375 27 
Q 14.59375 17.046875 19.75 11.8125 
Q 24.90625 6.59375 34.71875 6.59375 
Q 41.5 6.59375 47.75 8.765625 
Q 54 10.9375 59.90625 15.28125 
L 57.625 3.609375 
Q 51.8125 1.125 45.875 -0.140625 
Q 39.9375 -1.421875 33.984375 -1.421875 
Q 19.96875 -1.421875 12.078125 6.1875 
Q 4.203125 13.8125 4.203125 27.390625 
Q 4.203125 36.078125 7.203125 44.46875 
Q 10.203125 52.875 15.828125 59.8125 
Q 21.78125 67.1875 29.421875 70.703125 
Q 37.0625 74.21875 47.21875 74.21875 
Q 53.46875 74.21875 59.0625 72.484375 
Q 64.65625 70.75 69.484375 67.28125 
z
" id="DejaVuSans-Oblique-67"/>
     <path d="M 50 53.078125 
L 48.296875 44.578125 
Q 44.734375 46.53125 40.765625 47.5 
Q 36.8125 48.484375 32.625 48.484375 
Q 25.53125 48.484375 21.453125 46.0625 
Q 17.390625 43.65625 17.390625 39.5 
Q 17.390625 34.671875 26.859375 32.078125 
Q 27.59375 31.890625 27.9375 31.78125 
L 30.8125 30.90625 
Q 39.796875 28.421875 42.796875 25.6875 
Q 45.796875 22.953125 45.796875 18.21875 
Q 45.796875 9.515625 38.890625 4.046875 
Q 31.984375 -1.421875 20.796875 -1.421875 
Q 16.453125 -1.421875 11.671875 -0.578125 
Q 6.890625 0.25 1.125 2 
L 2.875 11.28125 
Q 7.8125 8.734375 12.59375 7.421875 
Q 17.390625 6.109375 21.78125 6.109375 
Q 28.375 6.109375 32.5 8.9375 
Q 36.625 11.765625 36.625 16.109375 
Q 36.625 20.796875 25.78125 23.6875 
L 24.859375 23.921875 
L 21.78125 24.703125 
Q 14.9375 26.515625 11.765625 29.46875 
Q 8.59375 32.421875 8.59375 37.015625 
Q 8.59375 45.75 15.15625 50.875 
Q 21.734375 56 33.015625 56 
Q 37.453125 56 41.671875 55.265625 
Q 45.90625 54.546875 50 53.078125 
z
" id="DejaVuSans-Oblique-115"/>
    </defs>
    <g transform="translate(102 438.6225)scale(0.24 -0.24)">
     <use transform="translate(0 0.78125)" xlink:href="#DejaVuSans-Oblique-67"/>
     <use transform="translate(69.824219 -15.625)scale(0.7)" xlink:href="#DejaVuSans-Oblique-115"/>
    </g>
   </g>
   <g id="text_2">
    <!-- $C_{f}$ -->
    <defs>
     <path d="M 47.796875 75.984375 
L 46.390625 68.5 
L 37.796875 68.5 
Q 32.90625 68.5 30.6875 66.578125 
Q 28.46875 64.65625 27.390625 59.515625 
L 26.421875 54.6875 
L 41.21875 54.6875 
L 39.890625 47.703125 
L 25.09375 47.703125 
L 15.828125 0 
L 6.78125 0 
L 16.109375 47.703125 
L 7.515625 47.703125 
L 8.796875 54.6875 
L 17.390625 54.6875 
L 18.109375 58.5 
Q 19.96875 68.171875 24.625 72.078125 
Q 29.296875 75.984375 39.3125 75.984375 
z
" id="DejaVuSans-Oblique-102"/>
    </defs>
    <g transform="translate(222.841863 274.279934)scale(0.24 -0.24)">
     <use transform="translate(0 0.78125)" xlink:href="#DejaVuSans-Oblique-67"/>
     <use transform="translate(69.824219 -15.625)scale(0.7)" xlink:href="#DejaVuSans-Oblique-102"/>
    </g>
   </g>
   <g id="text_3">
    <!-- $C_{ds}$ -->
    <defs>
     <path d="M 41.796875 8.203125 
Q 38.1875 3.46875 33.25 1.015625 
Q 28.328125 -1.421875 22.3125 -1.421875 
Q 14.109375 -1.421875 9.34375 4.171875 
Q 4.59375 9.765625 4.59375 19.484375 
Q 4.59375 27.59375 7.46875 34.9375 
Q 10.359375 42.28125 15.828125 48.09375 
Q 19.4375 51.953125 23.96875 53.96875 
Q 28.515625 56 33.5 56 
Q 38.765625 56 42.796875 53.453125 
Q 46.828125 50.921875 49.03125 46.1875 
L 54.890625 75.984375 
L 63.921875 75.984375 
L 49.125 0 
L 40.09375 0 
z
M 13.921875 21.09375 
Q 13.921875 14.015625 17.109375 10.0625 
Q 20.3125 6.109375 25.984375 6.109375 
Q 30.171875 6.109375 33.765625 8.125 
Q 37.359375 10.15625 40.09375 14.109375 
Q 42.96875 18.21875 44.625 23.578125 
Q 46.296875 28.953125 46.296875 34.1875 
Q 46.296875 40.96875 43.09375 44.765625 
Q 39.890625 48.578125 34.28125 48.578125 
Q 30.03125 48.578125 26.359375 46.578125 
Q 22.703125 44.578125 20.125 40.828125 
Q 17.28125 36.765625 15.59375 31.390625 
Q 13.921875 26.03125 13.921875 21.09375 
z
" id="DejaVuSans-Oblique-100"/>
    </defs>
    <g transform="translate(409.318137 337.053208)scale(0.24 -0.24)">
     <use transform="translate(0 0.78125)" xlink:href="#DejaVuSans-Oblique-67"/>
     <use transform="translate(69.824219 -15.625)scale(0.7)" xlink:href="#DejaVuSans-Oblique-100"/>
     <use transform="translate(114.257812 -15.625)scale(0.7)" xlink:href="#DejaVuSans-Oblique-115"/>
    </g>
   </g>
   <g id="text_4">
    <!-- $C_{df}$ -->
    <g transform="translate(410.758137 540.191792)scale(0.24 -0.24)">
     <use transform="translate(0 0.78125)" xlink:href="#DejaVuSans-Oblique-67"/>
     <use transform="translate(69.824219 -15.625)scale(0.7)" xlink:href="#DejaVuSans-Oblique-100"/>
     <use transform="translate(114.257812 -15.625)scale(0.7)" xlink:href="#DejaVuSans-Oblique-102"/>
    </g>
   </g>
   <g id="text_5">
    <!-- $N$ -->
    <defs>
     <path d="M 16.890625 72.90625 
L 30.171875 72.90625 
L 50.296875 10.40625 
L 62.5 72.90625 
L 72.125 72.90625 
L 57.90625 0 
L 44.578125 0 
L 24.515625 62.890625 
L 12.3125 0 
L 2.6875 0 
z
" id="DejaVuSans-Oblique-78"/>
    </defs>
    <g transform="translate(225.601863 602.965066)scale(0.24 -0.24)">
     <use transform="translate(0 0.09375)" xlink:href="#DejaVuSans-Oblique-78"/>
    </g>
   </g>
   <g id="legend_1">
    <g id="patch_22">
     <path d="M 122.326562 109.078125 
L 453.673437 109.078125 
Q 455.673437 109.078125 455.673437 107.078125 
L 455.673437 93.4 
Q 455.673437 91.4 453.673437 91.4 
L 122.326562 91.4 
Q 120.326562 91.4 120.326562 93.4 
L 120.326562 107.078125 
Q 120.326562 109.078125 122.326562 109.078125 
z
" style="fill:#ffffff;opacity:0.8;stroke:#cccccc;stroke-linejoin:miter;"/>
    </g>
    <g id="patch_23">
     <path d="M 124.326562 102.998438 
L 144.326562 102.998438 
L 144.326562 95.998438 
L 124.326562 95.998438 
z
" style="fill:#0000ff;opacity:0.5;stroke:#0000ff;stroke-linejoin:miter;"/>
    </g>
    <g id="text_6">
     <!-- linear -->
     <defs>
      <path d="M 9.421875 75.984375 
L 18.40625 75.984375 
L 18.40625 0 
L 9.421875 0 
z
" id="DejaVuSans-108"/>
      <path d="M 9.421875 54.6875 
L 18.40625 54.6875 
L 18.40625 0 
L 9.421875 0 
z
M 9.421875 75.984375 
L 18.40625 75.984375 
L 18.40625 64.59375 
L 9.421875 64.59375 
z
" id="DejaVuSans-105"/>
      <path d="M 54.890625 33.015625 
L 54.890625 0 
L 45.90625 0 
L 45.90625 32.71875 
Q 45.90625 40.484375 42.875 44.328125 
Q 39.84375 48.1875 33.796875 48.1875 
Q 26.515625 48.1875 22.3125 43.546875 
Q 18.109375 38.921875 18.109375 30.90625 
L 18.109375 0 
L 9.078125 0 
L 9.078125 54.6875 
L 18.109375 54.6875 
L 18.109375 46.1875 
Q 21.34375 51.125 25.703125 53.5625 
Q 30.078125 56 35.796875 56 
Q 45.21875 56 50.046875 50.171875 
Q 54.890625 44.34375 54.890625 33.015625 
z
" id="DejaVuSans-110"/>
      <path d="M 56.203125 29.59375 
L 56.203125 25.203125 
L 14.890625 25.203125 
Q 15.484375 15.921875 20.484375 11.0625 
Q 25.484375 6.203125 34.421875 6.203125 
Q 39.59375 6.203125 44.453125 7.46875 
Q 49.3125 8.734375 54.109375 11.28125 
L 54.109375 2.78125 
Q 49.265625 0.734375 44.1875 -0.34375 
Q 39.109375 -1.421875 33.890625 -1.421875 
Q 20.796875 -1.421875 13.15625 6.1875 
Q 5.515625 13.8125 5.515625 26.8125 
Q 5.515625 40.234375 12.765625 48.109375 
Q 20.015625 56 32.328125 56 
Q 43.359375 56 49.78125 48.890625 
Q 56.203125 41.796875 56.203125 29.59375 
z
M 47.21875 32.234375 
Q 47.125 39.59375 43.09375 43.984375 
Q 39.0625 48.390625 32.421875 48.390625 
Q 24.90625 48.390625 20.390625 44.140625 
Q 15.875 39.890625 15.1875 32.171875 
z
" id="DejaVuSans-101"/>
      <path d="M 34.28125 27.484375 
Q 23.390625 27.484375 19.1875 25 
Q 14.984375 22.515625 14.984375 16.5 
Q 14.984375 11.71875 18.140625 8.90625 
Q 21.296875 6.109375 26.703125 6.109375 
Q 34.1875 6.109375 38.703125 11.40625 
Q 43.21875 16.703125 43.21875 25.484375 
L 43.21875 27.484375 
z
M 52.203125 31.203125 
L 52.203125 0 
L 43.21875 0 
L 43.21875 8.296875 
Q 40.140625 3.328125 35.546875 0.953125 
Q 30.953125 -1.421875 24.3125 -1.421875 
Q 15.921875 -1.421875 10.953125 3.296875 
Q 6 8.015625 6 15.921875 
Q 6 25.140625 12.171875 29.828125 
Q 18.359375 34.515625 30.609375 34.515625 
L 43.21875 34.515625 
L 43.21875 35.40625 
Q 43.21875 41.609375 39.140625 45 
Q 35.0625 48.390625 27.6875 48.390625 
Q 23 48.390625 18.546875 47.265625 
Q 14.109375 46.140625 10.015625 43.890625 
L 10.015625 52.203125 
Q 14.9375 54.109375 19.578125 55.046875 
Q 24.21875 56 28.609375 56 
Q 40.484375 56 46.34375 49.84375 
Q 52.203125 43.703125 52.203125 31.203125 
z
" id="DejaVuSans-97"/>
      <path d="M 41.109375 46.296875 
Q 39.59375 47.171875 37.8125 47.578125 
Q 36.03125 48 33.890625 48 
Q 26.265625 48 22.1875 43.046875 
Q 18.109375 38.09375 18.109375 28.8125 
L 18.109375 0 
L 9.078125 0 
L 9.078125 54.6875 
L 18.109375 54.6875 
L 18.109375 46.1875 
Q 20.953125 51.171875 25.484375 53.578125 
Q 30.03125 56 36.53125 56 
Q 37.453125 56 38.578125 55.875 
Q 39.703125 55.765625 41.0625 55.515625 
z
" id="DejaVuSans-114"/>
     </defs>
     <g transform="translate(152.326562 102.998438)scale(0.1 -0.1)">
      <use xlink:href="#DejaVuSans-108"/>
      <use x="27.783203" xlink:href="#DejaVuSans-105"/>
      <use x="55.566406" xlink:href="#DejaVuSans-110"/>
      <use x="118.945312" xlink:href="#DejaVuSans-101"/>
      <use x="180.46875" xlink:href="#DejaVuSans-97"/>
      <use x="241.748047" xlink:href="#DejaVuSans-114"/>
     </g>
    </g>
    <g id="patch_24">
     <path d="M 200.6125 102.998438 
L 220.6125 102.998438 
L 220.6125 95.998438 
L 200.6125 95.998438 
z
" style="fill:#008000;opacity:0.5;stroke:#008000;stroke-linejoin:miter;"/>
    </g>
    <g id="text_7">
     <!-- nonlinear -->
     <defs>
      <path d="M 30.609375 48.390625 
Q 23.390625 48.390625 19.1875 42.75 
Q 14.984375 37.109375 14.984375 27.296875 
Q 14.984375 17.484375 19.15625 11.84375 
Q 23.34375 6.203125 30.609375 6.203125 
Q 37.796875 6.203125 41.984375 11.859375 
Q 46.1875 17.53125 46.1875 27.296875 
Q 46.1875 37.015625 41.984375 42.703125 
Q 37.796875 48.390625 30.609375 48.390625 
z
M 30.609375 56 
Q 42.328125 56 49.015625 48.375 
Q 55.71875 40.765625 55.71875 27.296875 
Q 55.71875 13.875 49.015625 6.21875 
Q 42.328125 -1.421875 30.609375 -1.421875 
Q 18.84375 -1.421875 12.171875 6.21875 
Q 5.515625 13.875 5.515625 27.296875 
Q 5.515625 40.765625 12.171875 48.375 
Q 18.84375 56 30.609375 56 
z
" id="DejaVuSans-111"/>
     </defs>
     <g transform="translate(228.6125 102.998438)scale(0.1 -0.1)">
      <use xlink:href="#DejaVuSans-110"/>
      <use x="63.378906" xlink:href="#DejaVuSans-111"/>
      <use x="124.560547" xlink:href="#DejaVuSans-110"/>
      <use x="187.939453" xlink:href="#DejaVuSans-108"/>
      <use x="215.722656" xlink:href="#DejaVuSans-105"/>
      <use x="243.505859" xlink:href="#DejaVuSans-110"/>
      <use x="306.884766" xlink:href="#DejaVuSans-101"/>
      <use x="368.408203" xlink:href="#DejaVuSans-97"/>
      <use x="429.6875" xlink:href="#DejaVuSans-114"/>
     </g>
    </g>
    <g id="patch_25">
     <path d="M 295.692188 102.998438 
L 315.692188 102.998438 
L 315.692188 95.998438 
L 295.692188 95.998438 
z
" style="fill:#ff0000;opacity:0.5;stroke:#ff0000;stroke-linejoin:miter;"/>
    </g>
    <g id="text_8">
     <!-- no substrate dependence -->
     <defs>
      <path id="DejaVuSans-32"/>
      <path d="M 44.28125 53.078125 
L 44.28125 44.578125 
Q 40.484375 46.53125 36.375 47.5 
Q 32.28125 48.484375 27.875 48.484375 
Q 21.1875 48.484375 17.84375 46.4375 
Q 14.5 44.390625 14.5 40.28125 
Q 14.5 37.15625 16.890625 35.375 
Q 19.28125 33.59375 26.515625 31.984375 
L 29.59375 31.296875 
Q 39.15625 29.25 43.1875 25.515625 
Q 47.21875 21.78125 47.21875 15.09375 
Q 47.21875 7.46875 41.1875 3.015625 
Q 35.15625 -1.421875 24.609375 -1.421875 
Q 20.21875 -1.421875 15.453125 -0.5625 
Q 10.6875 0.296875 5.421875 2 
L 5.421875 11.28125 
Q 10.40625 8.6875 15.234375 7.390625 
Q 20.0625 6.109375 24.8125 6.109375 
Q 31.15625 6.109375 34.5625 8.28125 
Q 37.984375 10.453125 37.984375 14.40625 
Q 37.984375 18.0625 35.515625 20.015625 
Q 33.0625 21.96875 24.703125 23.78125 
L 21.578125 24.515625 
Q 13.234375 26.265625 9.515625 29.90625 
Q 5.8125 33.546875 5.8125 39.890625 
Q 5.8125 47.609375 11.28125 51.796875 
Q 16.75 56 26.8125 56 
Q 31.78125 56 36.171875 55.265625 
Q 40.578125 54.546875 44.28125 53.078125 
z
" id="DejaVuSans-115"/>
      <path d="M 8.5 21.578125 
L 8.5 54.6875 
L 17.484375 54.6875 
L 17.484375 21.921875 
Q 17.484375 14.15625 20.5 10.265625 
Q 23.53125 6.390625 29.59375 6.390625 
Q 36.859375 6.390625 41.078125 11.03125 
Q 45.3125 15.671875 45.3125 23.6875 
L 45.3125 54.6875 
L 54.296875 54.6875 
L 54.296875 0 
L 45.3125 0 
L 45.3125 8.40625 
Q 42.046875 3.421875 37.71875 1 
Q 33.40625 -1.421875 27.6875 -1.421875 
Q 18.265625 -1.421875 13.375 4.4375 
Q 8.5 10.296875 8.5 21.578125 
z
M 31.109375 56 
z
" id="DejaVuSans-117"/>
      <path d="M 48.6875 27.296875 
Q 48.6875 37.203125 44.609375 42.84375 
Q 40.53125 48.484375 33.40625 48.484375 
Q 26.265625 48.484375 22.1875 42.84375 
Q 18.109375 37.203125 18.109375 27.296875 
Q 18.109375 17.390625 22.1875 11.75 
Q 26.265625 6.109375 33.40625 6.109375 
Q 40.53125 6.109375 44.609375 11.75 
Q 48.6875 17.390625 48.6875 27.296875 
z
M 18.109375 46.390625 
Q 20.953125 51.265625 25.265625 53.625 
Q 29.59375 56 35.59375 56 
Q 45.5625 56 51.78125 48.09375 
Q 58.015625 40.1875 58.015625 27.296875 
Q 58.015625 14.40625 51.78125 6.484375 
Q 45.5625 -1.421875 35.59375 -1.421875 
Q 29.59375 -1.421875 25.265625 0.953125 
Q 20.953125 3.328125 18.109375 8.203125 
L 18.109375 0 
L 9.078125 0 
L 9.078125 75.984375 
L 18.109375 75.984375 
z
" id="DejaVuSans-98"/>
      <path d="M 18.3125 70.21875 
L 18.3125 54.6875 
L 36.8125 54.6875 
L 36.8125 47.703125 
L 18.3125 47.703125 
L 18.3125 18.015625 
Q 18.3125 11.328125 20.140625 9.421875 
Q 21.96875 7.515625 27.59375 7.515625 
L 36.8125 7.515625 
L 36.8125 0 
L 27.59375 0 
Q 17.1875 0 13.234375 3.875 
Q 9.28125 7.765625 9.28125 18.015625 
L 9.28125 47.703125 
L 2.6875 47.703125 
L 2.6875 54.6875 
L 9.28125 54.6875 
L 9.28125 70.21875 
z
" id="DejaVuSans-116"/>
      <path d="M 45.40625 46.390625 
L 45.40625 75.984375 
L 54.390625 75.984375 
L 54.390625 0 
L 45.40625 0 
L 45.40625 8.203125 
Q 42.578125 3.328125 38.25 0.953125 
Q 33.9375 -1.421875 27.875 -1.421875 
Q 17.96875 -1.421875 11.734375 6.484375 
Q 5.515625 14.40625 5.515625 27.296875 
Q 5.515625 40.1875 11.734375 48.09375 
Q 17.96875 56 27.875 56 
Q 33.9375 56 38.25 53.625 
Q 42.578125 51.265625 45.40625 46.390625 
z
M 14.796875 27.296875 
Q 14.796875 17.390625 18.875 11.75 
Q 22.953125 6.109375 30.078125 6.109375 
Q 37.203125 6.109375 41.296875 11.75 
Q 45.40625 17.390625 45.40625 27.296875 
Q 45.40625 37.203125 41.296875 42.84375 
Q 37.203125 48.484375 30.078125 48.484375 
Q 22.953125 48.484375 18.875 42.84375 
Q 14.796875 37.203125 14.796875 27.296875 
z
" id="DejaVuSans-100"/>
      <path d="M 18.109375 8.203125 
L 18.109375 -20.796875 
L 9.078125 -20.796875 
L 9.078125 54.6875 
L 18.109375 54.6875 
L 18.109375 46.390625 
Q 20.953125 51.265625 25.265625 53.625 
Q 29.59375 56 35.59375 56 
Q 45.5625 56 51.78125 48.09375 
Q 58.015625 40.1875 58.015625 27.296875 
Q 58.015625 14.40625 51.78125 6.484375 
Q 45.5625 -1.421875 35.59375 -1.421875 
Q 29.59375 -1.421875 25.265625 0.953125 
Q 20.953125 3.328125 18.109375 8.203125 
z
M 48.6875 27.296875 
Q 48.6875 37.203125 44.609375 42.84375 
Q 40.53125 48.484375 33.40625 48.484375 
Q 26.265625 48.484375 22.1875 42.84375 
Q 18.109375 37.203125 18.109375 27.296875 
Q 18.109375 17.390625 22.1875 11.75 
Q 26.265625 6.109375 33.40625 6.109375 
Q 40.53125 6.109375 44.609375 11.75 
Q 48.6875 17.390625 48.6875 27.296875 
z
" id="DejaVuSans-112"/>
      <path d="M 48.78125 52.59375 
L 48.78125 44.1875 
Q 44.96875 46.296875 41.140625 47.34375 
Q 37.3125 48.390625 33.40625 48.390625 
Q 24.65625 48.390625 19.8125 42.84375 
Q 14.984375 37.3125 14.984375 27.296875 
Q 14.984375 17.28125 19.8125 11.734375 
Q 24.65625 6.203125 33.40625 6.203125 
Q 37.3125 6.203125 41.140625 7.25 
Q 44.96875 8.296875 48.78125 10.40625 
L 48.78125 2.09375 
Q 45.015625 0.34375 40.984375 -0.53125 
Q 36.96875 -1.421875 32.421875 -1.421875 
Q 20.0625 -1.421875 12.78125 6.34375 
Q 5.515625 14.109375 5.515625 27.296875 
Q 5.515625 40.671875 12.859375 48.328125 
Q 20.21875 56 33.015625 56 
Q 37.15625 56 41.109375 55.140625 
Q 45.0625 54.296875 48.78125 52.59375 
z
" id="DejaVuSans-99"/>
     </defs>
     <g transform="translate(323.692188 102.998438)scale(0.1 -0.1)">
      <use xlink:href="#DejaVuSans-110"/>
      <use x="63.378906" xlink:href="#DejaVuSans-111"/>
      <use x="124.560547" xlink:href="#DejaVuSans-32"/>
      <use x="156.347656" xlink:href="#DejaVuSans-115"/>
      <use x="208.447266" xlink:href="#DejaVuSans-117"/>
      <use x="271.826172" xlink:href="#DejaVuSans-98"/>
      <use x="335.302734" xlink:href="#DejaVuSans-115"/>
      <use x="387.402344" xlink:href="#DejaVuSans-116"/>
      <use x="426.611328" xlink:href="#DejaVuSans-114"/>
      <use x="467.724609" xlink:href="#DejaVuSans-97"/>
      <use x="529.003906" xlink:href="#DejaVuSans-116"/>
      <use x="568.212891" xlink:href="#DejaVuSans-101"/>
      <use x="629.736328" xlink:href="#DejaVuSans-32"/>
      <use x="661.523438" xlink:href="#DejaVuSans-100"/>
      <use x="725" xlink:href="#DejaVuSans-101"/>
      <use x="786.523438" xlink:href="#DejaVuSans-112"/>
      <use x="850" xlink:href="#DejaVuSans-101"/>
      <use x="911.523438" xlink:href="#DejaVuSans-110"/>
      <use x="974.902344" xlink:href="#DejaVuSans-100"/>
      <use x="1038.378906" xlink:href="#DejaVuSans-101"/>
      <use x="1099.902344" xlink:href="#DejaVuSans-110"/>
      <use x="1163.28125" xlink:href="#DejaVuSans-99"/>
      <use x="1218.261719" xlink:href="#DejaVuSans-101"/>
     </g>
    </g>
   </g>
  </g>
 </g>
 <defs>
  <clipPath id="p469e7f045c">
   <rect height="576" width="576" x="0" y="144"/>
  </clipPath>
 </defs>
</svg>
