<?xml version="1.0" encoding="utf-8" standalone="no"?>
<!DOCTYPE svg PUBLIC "-//W3C//DTD SVG 1.1//EN"
  "http://www.w3.org/Graphics/SVG/1.1/DTD/svg11.dtd">
<!-- Created with matplotlib (http://matplotlib.org/) -->
<svg height="216pt" version="1.1" viewBox="0 0 216 216" width="216pt" xmlns="http://www.w3.org/2000/svg" xmlns:xlink="http://www.w3.org/1999/xlink">
 <defs>
  <style type="text/css">
*{stroke-linecap:butt;stroke-linejoin:round;}
  </style>
 </defs>
 <g id="figure_1">
  <g id="patch_1">
   <path d="M 0 216 
L 216 216 
L 216 0 
L 0 0 
z
" style="fill:none;"/>
  </g>
  <g id="axes_1">
   <g id="patch_2">
    <path clip-path="url(#pa001d134a4)" d="M 60.48 125.712 
C 64.9195 125.712 69.177767 123.959548 72.316968 120.8406 
C 75.456168 117.721652 77.22 113.490858 77.22 109.08 
C 77.22 104.669142 75.456168 100.438348 72.316968 97.3194 
C 69.177767 94.200452 64.9195 92.448 60.48 92.448 
C 56.0405 92.448 51.782233 94.200452 48.643032 97.3194 
C 45.503832 100.438348 43.74 104.669142 43.74 109.08 
C 43.74 113.490858 45.503832 117.721652 48.643032 120.8406 
C 51.782233 123.959548 56.0405 125.712 60.48 125.712 
z
" style="fill:#0000ff;opacity:0.3;stroke:#0000ff;stroke-linejoin:miter;"/>
   </g>
   <g id="patch_3">
    <path clip-path="url(#pa001d134a4)" d="M 95.181167 78.258084 
C 99.620666 78.258084 103.878934 76.505632 107.018134 73.386684 
C 110.157335 70.267736 111.921167 66.036942 111.921167 61.626084 
C 111.921167 57.215226 110.157335 52.984432 107.018134 49.865484 
C 103.878934 46.746537 99.620666 44.994084 95.181167 44.994084 
C 90.741667 44.994084 86.4834 46.746537 83.344199 49.865484 
C 80.204999 52.984432 78.441167 57.215226 78.441167 61.626084 
C 78.441167 66.036942 80.204999 70.267736 83.344199 73.386684 
C 86.4834 76.505632 90.741667 78.258084 95.181167 78.258084 
z
" style="fill:#0000ff;opacity:0.3;stroke:#0000ff;stroke-linejoin:miter;"/>
   </g>
   <g id="patch_4">
    <path clip-path="url(#pa001d134a4)" d="M 102.792955 31.474186 
Q 101.892268 33.850995 101.299579 36.292642 
L 103.486082 36.823397 
Q 100.845624 39.688295 98.734258 43.355435 
Q 97.072066 39.465072 96.197736 35.054213 
L 98.38424 35.584968 
Q 99.020894 32.962204 99.987625 30.411112 
L 102.792955 31.474186 
z
" style="fill:#0000ff;opacity:0.5;stroke:#0000ff;stroke-linecap:round;"/>
   </g>
   <g id="patch_5">
    <path clip-path="url(#pa001d134a4)" d="M 80.347964 49.879997 
Q 78.71147 47.894414 76.861447 46.149088 
L 75.317441 47.785714 
Q 74.135528 44.072303 71.997412 40.420527 
Q 76.200156 40.906014 80.464127 42.330293 
L 78.920121 43.966919 
Q 80.906919 45.84128 82.663006 47.971966 
L 80.347964 49.879997 
z
" style="fill:#0000ff;opacity:0.5;stroke:#0000ff;stroke-linecap:round;"/>
   </g>
   <g id="patch_6">
    <path clip-path="url(#pa001d134a4)" d="M 151.328833 96.383867 
C 155.768333 96.383867 160.0266 94.631415 163.165801 91.512467 
C 166.305001 88.393519 168.068833 84.162725 168.068833 79.751867 
C 168.068833 75.341009 166.305001 71.110215 163.165801 67.991267 
C 160.0266 64.872319 155.768333 63.119867 151.328833 63.119867 
C 146.889334 63.119867 142.631066 64.872319 139.491866 67.991267 
C 136.352665 71.110215 134.588833 75.341009 134.588833 79.751867 
C 134.588833 84.162725 136.352665 88.393519 139.491866 91.512467 
C 142.631066 94.631415 146.889334 96.383867 151.328833 96.383867 
z
" style="fill:#0000ff;opacity:0.3;stroke:#0000ff;stroke-linejoin:miter;"/>
   </g>
   <g id="patch_7">
    <path clip-path="url(#pa001d134a4)" d="M 158.000419 62.087898 
Q 159.381474 59.94628 160.473633 57.676337 
L 158.446108 56.700815 
Q 161.627355 54.448415 164.45848 51.300959 
Q 165.271103 55.454671 165.204524 59.952554 
L 163.176999 58.977033 
Q 162.00389 61.415223 160.52165 63.713751 
L 158.000419 62.087898 
z
" style="fill:#0000ff;opacity:0.5;stroke:#0000ff;stroke-linecap:round;"/>
   </g>
   <g id="patch_8">
    <path clip-path="url(#pa001d134a4)" d="M 151.328833 155.040133 
C 155.768333 155.040133 160.0266 153.287681 163.165801 150.168733 
C 166.305001 147.049785 168.068833 142.818991 168.068833 138.408133 
C 168.068833 133.997275 166.305001 129.766481 163.165801 126.647533 
C 160.0266 123.528585 155.768333 121.776133 151.328833 121.776133 
C 146.889334 121.776133 142.631066 123.528585 139.491866 126.647533 
C 136.352665 129.766481 134.588833 133.997275 134.588833 138.408133 
C 134.588833 142.818991 136.352665 147.049785 139.491866 150.168733 
C 142.631066 153.287681 146.889334 155.040133 151.328833 155.040133 
z
" style="fill:#0000ff;opacity:0.3;stroke:#0000ff;stroke-linejoin:miter;"/>
   </g>
   <g id="patch_9">
    <path clip-path="url(#pa001d134a4)" d="M 170.275802 139.244744 
Q 172.785616 139.901397 175.328216 140.23392 
L 175.619988 138.002919 
Q 178.755087 140.318978 182.627065 142.02645 
Q 178.936162 144.094429 174.647414 145.439591 
L 174.939186 143.208589 
Q 172.209149 142.851553 169.516458 142.147052 
L 170.275802 139.244744 
z
" style="fill:#0000ff;opacity:0.5;stroke:#0000ff;stroke-linecap:round;"/>
   </g>
   <g id="patch_10">
    <path clip-path="url(#pa001d134a4)" d="M 95.181167 173.165916 
C 99.620666 173.165916 103.878934 171.413463 107.018134 168.294516 
C 110.157335 165.175568 111.921167 160.944774 111.921167 156.533916 
C 111.921167 152.123058 110.157335 147.892264 107.018134 144.773316 
C 103.878934 141.654368 99.620666 139.901916 95.181167 139.901916 
C 90.741667 139.901916 86.4834 141.654368 83.344199 144.773316 
C 80.204999 147.892264 78.441167 152.123058 78.441167 156.533916 
C 78.441167 160.944774 80.204999 165.175568 83.344199 168.294516 
C 86.4834 171.413463 90.741667 173.165916 95.181167 173.165916 
z
" style="fill:#0000ff;opacity:0.3;stroke:#0000ff;stroke-linejoin:miter;"/>
   </g>
   <g id="patch_11">
    <path clip-path="url(#pa001d134a4)" d="M 71.179417 176.482139 
Q 73.334276 175.075997 75.274047 173.430992 
L 73.818791 171.714971 
Q 77.640389 170.952266 81.506802 169.232421 
Q 80.558118 173.355375 78.669644 177.435043 
L 77.214388 175.719021 
Q 75.131207 177.485643 72.818875 178.994544 
L 71.179417 176.482139 
z
" style="fill:#0000ff;opacity:0.5;stroke:#0000ff;stroke-linecap:round;"/>
   </g>
   <g id="patch_12">
    <path clip-path="url(#pa001d134a4)" d="M 100.231438 174.712574 
Q 100.382055 177.249851 100.840238 179.720273 
L 103.052511 179.309968 
Q 101.815342 183.004433 101.389188 187.214442 
Q 98.280758 184.344691 95.678269 180.677651 
L 97.890541 180.267346 
Q 97.398371 177.613672 97.23671 174.890346 
L 100.231438 174.712574 
z
" style="fill:#0000ff;opacity:0.5;stroke:#0000ff;stroke-linecap:round;"/>
   </g>
   <g id="patch_13">
    <path clip-path="url(#pa001d134a4)" d="M 78.825951 104.76449 
Q 104.44165 101.720043 127.573238 90.751724 
L 126.609236 88.718697 
Q 130.709976 88.850464 134.914268 88.738964 
Q 132.472549 92.162697 129.822575 95.495455 
L 128.858573 93.462428 
Q 105.283308 104.641125 79.180012 107.743523 
L 78.825951 104.76449 
z
" style="fill:#ff0000;opacity:0.5;stroke:#ff0000;stroke-linecap:round;"/>
   </g>
   <g id="patch_14">
    <path clip-path="url(#pa001d134a4)" d="M 112.560359 68.89042 
Q 118.921206 72.524658 125.840681 74.625765 
L 126.494422 72.472831 
Q 129.317409 75.295841 132.695674 77.831541 
Q 128.637129 78.995803 124.315286 79.649276 
L 124.969027 77.496343 
Q 117.726289 75.297077 111.072107 71.495243 
L 112.560359 68.89042 
z
" style="fill:#0000ff;opacity:0.5;stroke:#0000ff;stroke-linecap:round;"/>
   </g>
   <g id="patch_15">
    <path clip-path="url(#pa001d134a4)" d="M 93.637222 80.300297 
Q 88.699821 105.427854 91.99464 130.625951 
L 94.225648 130.334232 
Q 92.838681 134.196508 91.652693 138.233215 
Q 89.144988 134.855587 86.788953 131.306629 
L 89.019961 131.01491 
Q 85.661567 105.330592 90.693511 79.721877 
L 93.637222 80.300297 
z
" style="fill:#0000ff;opacity:0.5;stroke:#0000ff;stroke-linecap:round;"/>
   </g>
   <g id="patch_16">
    <path clip-path="url(#pa001d134a4)" d="M 132.982883 84.067377 
Q 107.367183 87.111824 84.235596 98.080143 
L 85.199598 100.11317 
Q 81.098857 99.981403 76.894565 100.092903 
Q 79.336284 96.66917 81.986258 93.336412 
L 82.95026 95.369439 
Q 106.525525 84.190742 132.628822 81.088344 
L 132.982883 84.067377 
z
" style="fill:#0000ff;opacity:0.5;stroke:#0000ff;stroke-linecap:round;"/>
   </g>
   <g id="patch_17">
    <path clip-path="url(#pa001d134a4)" d="M 139.029785 93.96376 
Q 120.158807 111.382972 107.914019 133.734948 
L 109.887321 134.815956 
Q 106.489115 137.114425 103.149986 139.671568 
Q 103.118391 135.466432 103.309647 131.212596 
L 105.282949 132.293604 
Q 117.763459 109.511335 136.994954 91.759341 
L 139.029785 93.96376 
z
" style="fill:#0000ff;opacity:0.5;stroke:#0000ff;stroke-linecap:round;"/>
   </g>
   <g id="patch_18">
    <path clip-path="url(#pa001d134a4)" d="M 133.941476 131.18812 
Q 111.382347 118.680937 86.205428 114.053888 
L 85.798731 116.266826 
Q 82.549331 113.762225 79.073687 111.394414 
Q 83.05616 110.044608 87.154387 108.890364 
L 86.747691 111.103303 
Q 112.407551 115.819108 135.396123 128.564382 
L 133.941476 131.18812 
z
" style="fill:#0000ff;opacity:0.5;stroke:#0000ff;stroke-linecap:round;"/>
   </g>
   <g id="patch_19">
    <path clip-path="url(#pa001d134a4)" d="M 141.533263 122.405658 
Q 130.655713 99.14457 113.069513 80.701959 
L 111.441165 82.254692 
Q 110.281307 78.319904 108.857052 74.362985 
Q 112.87359 75.607391 116.868993 77.078914 
L 115.240644 78.631647 
Q 133.165429 97.429332 144.25081 121.134855 
L 141.533263 122.405658 
z
" style="fill:#0000ff;opacity:0.5;stroke:#0000ff;stroke-linecap:round;"/>
   </g>
   <g id="patch_20">
    <path clip-path="url(#pa001d134a4)" d="M 96.725111 137.859703 
Q 101.662512 112.732146 98.367693 87.534049 
L 96.136685 87.825768 
Q 97.523652 83.963492 98.70964 79.926785 
Q 101.217345 83.304413 103.57338 86.853371 
L 101.342372 87.14509 
Q 104.700767 112.829408 99.668822 138.438123 
L 96.725111 137.859703 
z
" style="fill:#0000ff;opacity:0.5;stroke:#0000ff;stroke-linecap:round;"/>
   </g>
   <g id="patch_21">
    <path clip-path="url(#pa001d134a4)" d="M 113.546842 152.259078 
Q 120.836851 151.487469 127.683129 149.143864 
L 126.954426 147.015134 
Q 130.893877 147.654737 135.115626 147.737143 
Q 132.505445 151.054033 129.383435 154.110901 
L 128.654733 151.982171 
Q 121.488707 154.435231 113.862612 155.242413 
L 113.546842 152.259078 
z
" style="fill:#0000ff;opacity:0.5;stroke:#0000ff;stroke-linecap:round;"/>
   </g>
   <g id="text_1">
    <!-- $C_{s}$ -->
    <defs>
     <path d="M 69.484375 67.28125 
L 67.484375 56.890625 
Q 62.796875 61.625 57.546875 63.921875 
Q 52.296875 66.21875 46.1875 66.21875 
Q 37.84375 66.21875 31.515625 62.203125 
Q 25.203125 58.203125 20.609375 50 
Q 17.671875 44.734375 16.125 38.84375 
Q 14.59375 32.953125 14.59375 27 
Q 14.59375 17.046875 19.75 11.8125 
Q 24.90625 6.59375 34.71875 6.59375 
Q 41.5 6.59375 47.75 8.765625 
Q 54 10.9375 59.90625 15.28125 
L 57.625 3.609375 
Q 51.8125 1.125 45.875 -0.140625 
Q 39.9375 -1.421875 33.984375 -1.421875 
Q 19.96875 -1.421875 12.078125 6.1875 
Q 4.203125 13.8125 4.203125 27.390625 
Q 4.203125 36.078125 7.203125 44.46875 
Q 10.203125 52.875 15.828125 59.8125 
Q 21.78125 67.1875 29.421875 70.703125 
Q 37.0625 74.21875 47.21875 74.21875 
Q 53.46875 74.21875 59.0625 72.484375 
Q 64.65625 70.75 69.484375 67.28125 
z
" id="DejaVuSans-Oblique-43"/>
     <path d="M 50 53.078125 
L 48.296875 44.578125 
Q 44.734375 46.53125 40.765625 47.5 
Q 36.8125 48.484375 32.625 48.484375 
Q 25.53125 48.484375 21.453125 46.0625 
Q 17.390625 43.65625 17.390625 39.5 
Q 17.390625 34.671875 26.859375 32.078125 
Q 27.59375 31.890625 27.9375 31.78125 
L 30.8125 30.90625 
Q 39.796875 28.421875 42.796875 25.6875 
Q 45.796875 22.953125 45.796875 18.21875 
Q 45.796875 9.515625 38.890625 4.046875 
Q 31.984375 -1.421875 20.796875 -1.421875 
Q 16.453125 -1.421875 11.671875 -0.578125 
Q 6.890625 0.25 1.125 2 
L 2.875 11.28125 
Q 7.8125 8.734375 12.59375 7.421875 
Q 17.390625 6.109375 21.78125 6.109375 
Q 28.375 6.109375 32.5 8.9375 
Q 36.625 11.765625 36.625 16.109375 
Q 36.625 20.796875 25.78125 23.6875 
L 24.859375 23.921875 
L 21.78125 24.703125 
Q 14.9375 26.515625 11.765625 29.46875 
Q 8.59375 32.421875 8.59375 37.015625 
Q 8.59375 45.75 15.15625 50.875 
Q 21.734375 56 33.015625 56 
Q 37.453125 56 41.671875 55.265625 
Q 45.90625 54.546875 50 53.078125 
z
" id="DejaVuSans-Oblique-73"/>
    </defs>
    <g transform="translate(51.68 113.495)scale(0.16 -0.16)">
     <use transform="translate(0 0.78125)" xlink:href="#DejaVuSans-Oblique-43"/>
     <use transform="translate(69.824219 -15.625)scale(0.7)" xlink:href="#DejaVuSans-Oblique-73"/>
    </g>
   </g>
   <g id="text_2">
    <!-- $C_{f}$ -->
    <defs>
     <path d="M 47.796875 75.984375 
L 46.390625 68.5 
L 37.796875 68.5 
Q 32.90625 68.5 30.6875 66.578125 
Q 28.46875 64.65625 27.390625 59.515625 
L 26.421875 54.6875 
L 41.21875 54.6875 
L 39.890625 47.703125 
L 25.09375 47.703125 
L 15.828125 0 
L 6.78125 0 
L 16.109375 47.703125 
L 7.515625 47.703125 
L 8.796875 54.6875 
L 17.390625 54.6875 
L 18.109375 58.5 
Q 19.96875 68.171875 24.625 72.078125 
Q 29.296875 75.984375 39.3125 75.984375 
z
" id="DejaVuSans-Oblique-66"/>
    </defs>
    <g transform="translate(87.341167 66.041084)scale(0.16 -0.16)">
     <use transform="translate(0 0.78125)" xlink:href="#DejaVuSans-Oblique-43"/>
     <use transform="translate(69.824219 -15.625)scale(0.7)" xlink:href="#DejaVuSans-Oblique-66"/>
    </g>
   </g>
   <g id="text_3">
    <!-- $C_{ds}$ -->
    <defs>
     <path d="M 41.796875 8.203125 
Q 38.1875 3.46875 33.25 1.015625 
Q 28.328125 -1.421875 22.3125 -1.421875 
Q 14.109375 -1.421875 9.34375 4.171875 
Q 4.59375 9.765625 4.59375 19.484375 
Q 4.59375 27.59375 7.46875 34.9375 
Q 10.359375 42.28125 15.828125 48.09375 
Q 19.4375 51.953125 23.96875 53.96875 
Q 28.515625 56 33.5 56 
Q 38.765625 56 42.796875 53.453125 
Q 46.828125 50.921875 49.03125 46.1875 
L 54.890625 75.984375 
L 63.921875 75.984375 
L 49.125 0 
L 40.09375 0 
z
M 13.921875 21.09375 
Q 13.921875 14.015625 17.109375 10.0625 
Q 20.3125 6.109375 25.984375 6.109375 
Q 30.171875 6.109375 33.765625 8.125 
Q 37.359375 10.15625 40.09375 14.109375 
Q 42.96875 18.21875 44.625 23.578125 
Q 46.296875 28.953125 46.296875 34.1875 
Q 46.296875 40.96875 43.09375 44.765625 
Q 39.890625 48.578125 34.28125 48.578125 
Q 30.03125 48.578125 26.359375 46.578125 
Q 22.703125 44.578125 20.125 40.828125 
Q 17.28125 36.765625 15.59375 31.390625 
Q 13.921875 26.03125 13.921875 21.09375 
z
" id="DejaVuSans-Oblique-64"/>
    </defs>
    <g transform="translate(139.008833 84.166867)scale(0.16 -0.16)">
     <use transform="translate(0 0.78125)" xlink:href="#DejaVuSans-Oblique-43"/>
     <use transform="translate(69.824219 -15.625)scale(0.7)" xlink:href="#DejaVuSans-Oblique-64"/>
     <use transform="translate(114.257812 -15.625)scale(0.7)" xlink:href="#DejaVuSans-Oblique-73"/>
    </g>
   </g>
   <g id="text_4">
    <!-- $C_{df}$ -->
    <g transform="translate(139.968833 142.823133)scale(0.16 -0.16)">
     <use transform="translate(0 0.78125)" xlink:href="#DejaVuSans-Oblique-43"/>
     <use transform="translate(69.824219 -15.625)scale(0.7)" xlink:href="#DejaVuSans-Oblique-64"/>
     <use transform="translate(114.257812 -15.625)scale(0.7)" xlink:href="#DejaVuSans-Oblique-66"/>
    </g>
   </g>
   <g id="text_5">
    <!-- $N$ -->
    <defs>
     <path d="M 16.890625 72.90625 
L 30.171875 72.90625 
L 50.296875 10.40625 
L 62.5 72.90625 
L 72.125 72.90625 
L 57.90625 0 
L 44.578125 0 
L 24.515625 62.890625 
L 12.3125 0 
L 2.6875 0 
z
" id="DejaVuSans-Oblique-4e"/>
    </defs>
    <g transform="translate(89.181167 160.948916)scale(0.16 -0.16)">
     <use transform="translate(0 0.09375)" xlink:href="#DejaVuSans-Oblique-4e"/>
    </g>
   </g>
  </g>
 </g>
 <defs>
  <clipPath id="pa001d134a4">
   <rect height="166.32" width="167.4" x="27" y="25.92"/>
  </clipPath>
 </defs>
</svg>
