<?xml version="1.0" encoding="utf-8" standalone="no"?>
<!DOCTYPE svg PUBLIC "-//W3C//DTD SVG 1.1//EN"
  "http://www.w3.org/Graphics/SVG/1.1/DTD/svg11.dtd">
<!-- Created with matplotlib (https://matplotlib.org/) -->
<svg height="216pt" version="1.1" viewBox="0 0 216 216" width="216pt" xmlns="http://www.w3.org/2000/svg" xmlns:xlink="http://www.w3.org/1999/xlink">
 <defs>
  <style type="text/css">
*{stroke-linecap:butt;stroke-linejoin:round;}
  </style>
 </defs>
 <g id="figure_1">
  <g id="patch_1">
   <path d="M 0 216 
L 216 216 
L 216 0 
L 0 0 
z
" style="fill:none;"/>
  </g>
  <g id="axes_1">
   <g id="patch_2">
    <path clip-path="url(#p387cc20611)" d="M 60.48 125.712 
C 64.9195 125.712 69.177767 123.959548 72.316968 120.8406 
C 75.456168 117.721652 77.22 113.490858 77.22 109.08 
C 77.22 104.669142 75.456168 100.438348 72.316968 97.3194 
C 69.177767 94.200452 64.9195 92.448 60.48 92.448 
C 56.0405 92.448 51.782233 94.200452 48.643032 97.3194 
C 45.503832 100.438348 43.74 104.669142 43.74 109.08 
C 43.74 113.490858 45.503832 117.721652 48.643032 120.8406 
C 51.782233 123.959548 56.0405 125.712 60.48 125.712 
z
" style="fill:#0000ff;opacity:0.3;stroke:#0000ff;stroke-linejoin:miter;"/>
   </g>
   <g id="patch_3">
    <path clip-path="url(#p387cc20611)" d="M 33.956356 92.55677 
Q 35.97429 94.163579 38.15184 95.490024 
L 39.322352 93.568461 
Q 41.251244 96.956495 44.102154 100.085712 
Q 39.888586 100.482237 35.420648 99.973671 
L 36.591159 98.052108 
Q 34.252829 96.627725 32.087621 94.903646 
L 33.956356 92.55677 
z
" style="fill:#0000ff;opacity:0.5;stroke:#0000ff;stroke-linecap:round;"/>
   </g>
   <g id="patch_4">
    <path clip-path="url(#p387cc20611)" d="M 44.641444 119.473992 
Q 42.235693 120.404721 39.991376 121.614771 
L 41.059176 123.595252 
Q 37.1608 123.549888 33.020367 124.431083 
Q 34.805253 120.593692 37.499842 116.99365 
L 38.567642 118.974131 
Q 40.977668 117.674736 43.558998 116.67608 
L 44.641444 119.473992 
z
" style="fill:#008000;opacity:0.5;stroke:#008000;stroke-linecap:round;"/>
   </g>
   <g id="patch_5">
    <path clip-path="url(#p387cc20611)" d="M 95.181167 78.258084 
C 99.620666 78.258084 103.878934 76.505632 107.018134 73.386684 
C 110.157335 70.267736 111.921167 66.036942 111.921167 61.626084 
C 111.921167 57.215226 110.157335 52.984432 107.018134 49.865484 
C 103.878934 46.746537 99.620666 44.994084 95.181167 44.994084 
C 90.741667 44.994084 86.4834 46.746537 83.344199 49.865484 
C 80.204999 52.984432 78.441167 57.215226 78.441167 61.626084 
C 78.441167 66.036942 80.204999 70.267736 83.344199 73.386684 
C 86.4834 76.505632 90.741667 78.258084 95.181167 78.258084 
z
" style="fill:#0000ff;opacity:0.3;stroke:#0000ff;stroke-linejoin:miter;"/>
   </g>
   <g id="patch_6">
    <path clip-path="url(#p387cc20611)" d="M 102.792955 31.474186 
Q 101.892268 33.850995 101.299579 36.292642 
L 103.486082 36.823397 
Q 100.845624 39.688295 98.734258 43.355435 
Q 97.072066 39.465072 96.197736 35.054213 
L 98.38424 35.584968 
Q 99.020894 32.962204 99.987625 30.411112 
L 102.792955 31.474186 
z
" style="fill:#0000ff;opacity:0.5;stroke:#0000ff;stroke-linecap:round;"/>
   </g>
   <g id="patch_7">
    <path clip-path="url(#p387cc20611)" d="M 80.347964 49.879997 
Q 78.71147 47.894414 76.861447 46.149088 
L 75.317441 47.785714 
Q 74.135528 44.072303 71.997412 40.420527 
Q 76.200156 40.906014 80.464127 42.330293 
L 78.920121 43.966919 
Q 80.906919 45.84128 82.663006 47.971966 
L 80.347964 49.879997 
z
" style="fill:#008000;opacity:0.5;stroke:#008000;stroke-linecap:round;"/>
   </g>
   <g id="patch_8">
    <path clip-path="url(#p387cc20611)" d="M 151.328833 96.383867 
C 155.768333 96.383867 160.0266 94.631415 163.165801 91.512467 
C 166.305001 88.393519 168.068833 84.162725 168.068833 79.751867 
C 168.068833 75.341009 166.305001 71.110215 163.165801 67.991267 
C 160.0266 64.872319 155.768333 63.119867 151.328833 63.119867 
C 146.889334 63.119867 142.631066 64.872319 139.491866 67.991267 
C 136.352665 71.110215 134.588833 75.341009 134.588833 79.751867 
C 134.588833 84.162725 136.352665 88.393519 139.491866 91.512467 
C 142.631066 94.631415 146.889334 96.383867 151.328833 96.383867 
z
" style="fill:#0000ff;opacity:0.3;stroke:#0000ff;stroke-linejoin:miter;"/>
   </g>
   <g id="patch_9">
    <path clip-path="url(#p387cc20611)" d="M 151.328833 155.040133 
C 155.768333 155.040133 160.0266 153.287681 163.165801 150.168733 
C 166.305001 147.049785 168.068833 142.818991 168.068833 138.408133 
C 168.068833 133.997275 166.305001 129.766481 163.165801 126.647533 
C 160.0266 123.528585 155.768333 121.776133 151.328833 121.776133 
C 146.889334 121.776133 142.631066 123.528585 139.491866 126.647533 
C 136.352665 129.766481 134.588833 133.997275 134.588833 138.408133 
C 134.588833 142.818991 136.352665 147.049785 139.491866 150.168733 
C 142.631066 153.287681 146.889334 155.040133 151.328833 155.040133 
z
" style="fill:#0000ff;opacity:0.3;stroke:#0000ff;stroke-linejoin:miter;"/>
   </g>
   <g id="patch_10">
    <path clip-path="url(#p387cc20611)" d="M 95.181167 173.165916 
C 99.620666 173.165916 103.878934 171.413463 107.018134 168.294516 
C 110.157335 165.175568 111.921167 160.944774 111.921167 156.533916 
C 111.921167 152.123058 110.157335 147.892264 107.018134 144.773316 
C 103.878934 141.654368 99.620666 139.901916 95.181167 139.901916 
C 90.741667 139.901916 86.4834 141.654368 83.344199 144.773316 
C 80.204999 147.892264 78.441167 152.123058 78.441167 156.533916 
C 78.441167 160.944774 80.204999 165.175568 83.344199 168.294516 
C 86.4834 171.413463 90.741667 173.165916 95.181167 173.165916 
z
" style="fill:#0000ff;opacity:0.3;stroke:#0000ff;stroke-linejoin:miter;"/>
   </g>
   <g id="patch_11">
    <path clip-path="url(#p387cc20611)" d="M 112.560359 68.89042 
Q 118.921206 72.524658 125.840681 74.625765 
L 126.494422 72.472831 
Q 129.317409 75.295841 132.695674 77.831541 
Q 128.637129 78.995803 124.315286 79.649276 
L 124.969027 77.496343 
Q 117.726289 75.297077 111.072107 71.495243 
L 112.560359 68.89042 
z
" style="fill:#008000;opacity:0.5;stroke:#008000;stroke-linecap:round;"/>
   </g>
   <g id="patch_12">
    <path clip-path="url(#p387cc20611)" d="M 104.976737 77.628559 
Q 115.854287 100.889647 133.440487 119.332258 
L 135.068835 117.779525 
Q 136.228693 121.714313 137.652948 125.671232 
Q 133.63641 124.426826 129.641007 122.955303 
L 131.269356 121.40257 
Q 113.344571 102.604885 102.25919 78.899362 
L 104.976737 77.628559 
z
" style="fill:#008000;opacity:0.5;stroke:#008000;stroke-linecap:round;"/>
   </g>
   <g id="patch_13">
    <path clip-path="url(#p387cc20611)" d="M 93.637222 80.300297 
Q 88.699821 105.427854 91.99464 130.625951 
L 94.225648 130.334232 
Q 92.838681 134.196508 91.652693 138.233215 
Q 89.144988 134.855587 86.788953 131.306629 
L 89.019961 131.01491 
Q 85.661567 105.330592 90.693511 79.721877 
L 93.637222 80.300297 
z
" style="fill:#008000;opacity:0.5;stroke:#008000;stroke-linecap:round;"/>
   </g>
   <g id="text_1">
    <!-- $W_{N}$ -->
    <defs>
     <path d="M 9.625 72.90625 
L 19.1875 72.90625 
L 22.703125 10.890625 
L 50.203125 72.90625 
L 61.1875 72.90625 
L 64.796875 10.890625 
L 92 72.90625 
L 102 72.90625 
L 69.578125 0 
L 57.171875 0 
L 53.8125 60.796875 
L 26.515625 0 
L 14.109375 0 
z
" id="DejaVuSans-Oblique-87"/>
     <path d="M 16.890625 72.90625 
L 30.171875 72.90625 
L 50.296875 10.40625 
L 62.5 72.90625 
L 72.125 72.90625 
L 57.90625 0 
L 44.578125 0 
L 24.515625 62.890625 
L 12.3125 0 
L 2.6875 0 
z
" id="DejaVuSans-Oblique-78"/>
    </defs>
    <g transform="translate(48.16 113.495)scale(0.16 -0.16)">
     <use transform="translate(0 0.09375)" xlink:href="#DejaVuSans-Oblique-87"/>
     <use transform="translate(98.876953 -16.3125)scale(0.7)" xlink:href="#DejaVuSans-Oblique-78"/>
    </g>
   </g>
   <g id="text_2">
    <!-- $W_{C}$ -->
    <defs>
     <path d="M 69.484375 67.28125 
L 67.484375 56.890625 
Q 62.796875 61.625 57.546875 63.921875 
Q 52.296875 66.21875 46.1875 66.21875 
Q 37.84375 66.21875 31.515625 62.203125 
Q 25.203125 58.203125 20.609375 50 
Q 17.671875 44.734375 16.125 38.84375 
Q 14.59375 32.953125 14.59375 27 
Q 14.59375 17.046875 19.75 11.8125 
Q 24.90625 6.59375 34.71875 6.59375 
Q 41.5 6.59375 47.75 8.765625 
Q 54 10.9375 59.90625 15.28125 
L 57.625 3.609375 
Q 51.8125 1.125 45.875 -0.140625 
Q 39.9375 -1.421875 33.984375 -1.421875 
Q 19.96875 -1.421875 12.078125 6.1875 
Q 4.203125 13.8125 4.203125 27.390625 
Q 4.203125 36.078125 7.203125 44.46875 
Q 10.203125 52.875 15.828125 59.8125 
Q 21.78125 67.1875 29.421875 70.703125 
Q 37.0625 74.21875 47.21875 74.21875 
Q 53.46875 74.21875 59.0625 72.484375 
Q 64.65625 70.75 69.484375 67.28125 
z
" id="DejaVuSans-Oblique-67"/>
    </defs>
    <g transform="translate(83.101167 66.041084)scale(0.16 -0.16)">
     <use transform="translate(0 0.09375)" xlink:href="#DejaVuSans-Oblique-87"/>
     <use transform="translate(98.876953 -16.3125)scale(0.7)" xlink:href="#DejaVuSans-Oblique-67"/>
    </g>
   </g>
   <g id="text_3">
    <!-- $W_{p}$ -->
    <defs>
     <path d="M 49.609375 33.6875 
Q 49.609375 40.875 46.484375 44.671875 
Q 43.359375 48.484375 37.5 48.484375 
Q 33.5 48.484375 29.859375 46.4375 
Q 26.21875 44.390625 23.390625 40.484375 
Q 20.609375 36.625 18.9375 31.15625 
Q 17.28125 25.6875 17.28125 20.3125 
Q 17.28125 13.484375 20.40625 9.796875 
Q 23.53125 6.109375 29.296875 6.109375 
Q 33.546875 6.109375 37.1875 8.109375 
Q 40.828125 10.109375 43.40625 13.921875 
Q 46.1875 17.921875 47.890625 23.34375 
Q 49.609375 28.765625 49.609375 33.6875 
z
M 21.78125 46.390625 
Q 25.390625 51.125 30.296875 53.5625 
Q 35.203125 56 41.21875 56 
Q 49.609375 56 54.25 50.5 
Q 58.890625 45.015625 58.890625 35.109375 
Q 58.890625 27 56 19.65625 
Q 53.125 12.3125 47.703125 6.5 
Q 44.09375 2.640625 39.546875 0.609375 
Q 35.015625 -1.421875 29.984375 -1.421875 
Q 24.171875 -1.421875 20.21875 1 
Q 16.265625 3.421875 14.3125 8.203125 
L 8.6875 -20.796875 
L -0.296875 -20.796875 
L 14.40625 54.6875 
L 23.390625 54.6875 
z
" id="DejaVuSans-Oblique-112"/>
    </defs>
    <g transform="translate(139.568833 83.111867)scale(0.16 -0.16)">
     <use transform="translate(0 0.09375)" xlink:href="#DejaVuSans-Oblique-87"/>
     <use transform="translate(98.876953 -16.3125)scale(0.7)" xlink:href="#DejaVuSans-Oblique-112"/>
    </g>
   </g>
   <g id="text_4">
    <!-- $W_{s}$ -->
    <defs>
     <path d="M 50 53.078125 
L 48.296875 44.578125 
Q 44.734375 46.53125 40.765625 47.5 
Q 36.8125 48.484375 32.625 48.484375 
Q 25.53125 48.484375 21.453125 46.0625 
Q 17.390625 43.65625 17.390625 39.5 
Q 17.390625 34.671875 26.859375 32.078125 
Q 27.59375 31.890625 27.9375 31.78125 
L 30.8125 30.90625 
Q 39.796875 28.421875 42.796875 25.6875 
Q 45.796875 22.953125 45.796875 18.21875 
Q 45.796875 9.515625 38.890625 4.046875 
Q 31.984375 -1.421875 20.796875 -1.421875 
Q 16.453125 -1.421875 11.671875 -0.578125 
Q 6.890625 0.25 1.125 2 
L 2.875 11.28125 
Q 7.8125 8.734375 12.59375 7.421875 
Q 17.390625 6.109375 21.78125 6.109375 
Q 28.375 6.109375 32.5 8.9375 
Q 36.625 11.765625 36.625 16.109375 
Q 36.625 20.796875 25.78125 23.6875 
L 24.859375 23.921875 
L 21.78125 24.703125 
Q 14.9375 26.515625 11.765625 29.46875 
Q 8.59375 32.421875 8.59375 37.015625 
Q 8.59375 45.75 15.15625 50.875 
Q 21.734375 56 33.015625 56 
Q 37.453125 56 41.671875 55.265625 
Q 45.90625 54.546875 50 53.078125 
z
" id="DejaVuSans-Oblique-115"/>
    </defs>
    <g transform="translate(140.208833 142.823133)scale(0.16 -0.16)">
     <use transform="translate(0 0.09375)" xlink:href="#DejaVuSans-Oblique-87"/>
     <use transform="translate(98.876953 -16.3125)scale(0.7)" xlink:href="#DejaVuSans-Oblique-115"/>
    </g>
   </g>
   <g id="text_5">
    <!-- $W_{r}$ -->
    <defs>
     <path d="M 44.578125 46.390625 
Q 43.21875 47.125 41.453125 47.515625 
Q 39.703125 47.90625 37.703125 47.90625 
Q 30.515625 47.90625 25.140625 42.453125 
Q 19.78125 37.015625 18.015625 27.875 
L 12.5 0 
L 3.515625 0 
L 14.203125 54.6875 
L 23.1875 54.6875 
L 21.484375 46.1875 
Q 25.046875 50.921875 30 53.453125 
Q 34.96875 56 40.578125 56 
Q 42.046875 56 43.453125 55.828125 
Q 44.875 55.671875 46.296875 55.28125 
z
" id="DejaVuSans-Oblique-114"/>
    </defs>
    <g transform="translate(84.701167 160.948916)scale(0.16 -0.16)">
     <use transform="translate(0 0.09375)" xlink:href="#DejaVuSans-Oblique-87"/>
     <use transform="translate(98.876953 -16.3125)scale(0.7)" xlink:href="#DejaVuSans-Oblique-114"/>
    </g>
   </g>
  </g>
 </g>
 <defs>
  <clipPath id="p387cc20611">
   <rect height="166.32" width="167.4" x="27" y="25.92"/>
  </clipPath>
 </defs>
</svg>
