<?xml version="1.0" encoding="utf-8" standalone="no"?>
<!DOCTYPE svg PUBLIC "-//W3C//DTD SVG 1.1//EN"
  "http://www.w3.org/Graphics/SVG/1.1/DTD/svg11.dtd">
<!-- Created with matplotlib (http://matplotlib.org/) -->
<svg height="216pt" version="1.1" viewBox="0 0 216 216" width="216pt" xmlns="http://www.w3.org/2000/svg" xmlns:xlink="http://www.w3.org/1999/xlink">
 <defs>
  <style type="text/css">
*{stroke-linecap:butt;stroke-linejoin:round;}
  </style>
 </defs>
 <g id="figure_1">
  <g id="patch_1">
   <path d="M 0 216 
L 216 216 
L 216 0 
L 0 0 
z
" style="fill:none;"/>
  </g>
  <g id="axes_1">
   <g id="patch_2">
    <path clip-path="url(#pebe840bd65)" d="M 80.568 127.04256 
C 85.36266 127.04256 89.961588 125.149911 93.351925 121.781448 
C 96.742261 118.412985 98.6472 113.843727 98.6472 109.08 
C 98.6472 104.316273 96.742261 99.747015 93.351925 96.378552 
C 89.961588 93.010089 85.36266 91.11744 80.568 91.11744 
C 75.77334 91.11744 71.174412 93.010089 67.784075 96.378552 
C 64.393739 99.747015 62.4888 104.316273 62.4888 109.08 
C 62.4888 113.843727 64.393739 118.412985 67.784075 121.781448 
C 71.174412 125.149911 75.77334 127.04256 80.568 127.04256 
z
" style="fill:#0000ff;opacity:0.3;stroke:#0000ff;stroke-linejoin:miter;"/>
   </g>
   <g id="patch_3">
    <path clip-path="url(#pebe840bd65)" d="M 51.726331 91.231791 
Q 54.259666 93.263249 57.026518 94.884987 
L 58.164277 92.943853 
Q 60.169202 96.307219 63.030462 99.424101 
Q 58.820759 99.833789 54.371746 99.414301 
L 55.509505 97.473167 
Q 52.553727 95.740693 49.849549 93.572238 
L 51.726331 91.231791 
z
" style="fill:#0000ff;opacity:0.5;stroke:#0000ff;stroke-linecap:round;"/>
   </g>
   <g id="patch_4">
    <path clip-path="url(#pebe840bd65)" d="M 63.564069 120.137781 
Q 60.531561 121.299032 57.73484 122.868701 
L 58.836069 124.83079 
Q 54.920602 124.863511 50.785592 125.759868 
Q 52.557165 121.919168 55.165306 118.290492 
L 56.266535 120.252582 
Q 59.254221 118.575733 62.491236 117.336169 
L 63.564069 120.137781 
z
" style="fill:#008000;opacity:0.5;stroke:#008000;stroke-linecap:round;"/>
   </g>
   <g id="patch_5">
    <path clip-path="url(#pebe840bd65)" d="M 140.832 127.04256 
C 145.62666 127.04256 150.225588 125.149911 153.615925 121.781448 
C 157.006261 118.412985 158.9112 113.843727 158.9112 109.08 
C 158.9112 104.316273 157.006261 99.747015 153.615925 96.378552 
C 150.225588 93.010089 145.62666 91.11744 140.832 91.11744 
C 136.03734 91.11744 131.438412 93.010089 128.048075 96.378552 
C 124.657739 99.747015 122.7528 104.316273 122.7528 109.08 
C 122.7528 113.843727 124.657739 118.412985 128.048075 121.781448 
C 131.438412 125.149911 136.03734 127.04256 140.832 127.04256 
z
" style="fill:#0000ff;opacity:0.3;stroke:#0000ff;stroke-linejoin:miter;"/>
   </g>
   <g id="patch_6">
    <path clip-path="url(#pebe840bd65)" d="M 100.68924 110.878755 
Q 107.178597 112.289793 113.732967 112.285625 
L 113.731536 110.035625 
Q 117.242478 111.915085 121.222534 113.332836 
Q 117.692743 115.651414 113.736306 117.535623 
L 113.734875 115.285624 
Q 106.857148 115.289998 100.051818 113.810255 
L 100.68924 110.878755 
z
" style="fill:#008000;opacity:0.5;stroke:#008000;stroke-linecap:round;"/>
   </g>
   <g id="patch_7">
    <path clip-path="url(#pebe840bd65)" d="M 120.71076 107.281245 
Q 114.221403 105.870207 107.667033 105.874375 
L 107.668464 108.124375 
Q 104.157522 106.244915 100.177466 104.827164 
Q 103.707257 102.508586 107.663694 100.624377 
L 107.665125 102.874376 
Q 114.542852 102.870002 121.348182 104.349745 
L 120.71076 107.281245 
z
" style="fill:#0000ff;opacity:0.5;stroke:#0000ff;stroke-linecap:round;"/>
   </g>
   <g id="text_1">
    <!-- $C_{s}$ -->
    <defs>
     <path d="M 74.703125 69.109375 
C 74.703125 70 74 70 73.796875 70 
C 73.59375 70 73.203125 70 72.40625 69 
L 65.5 60.65625 
C 62 66.625 56.5 70 49 70 
C 27.40625 70 5 48.25 5 24.921875 
C 5 8.328125 16.703125 -2 31.296875 -2 
C 39.296875 -2 46.296875 1.375 52.09375 6.25 
C 60.796875 13.484375 63.40625 23.140625 63.40625 23.921875 
C 63.40625 24.8125 62.59375 24.8125 62.296875 24.8125 
C 61.40625 24.8125 61.296875 24.21875 61.09375 23.8125 
C 56.5 8.34375 43 0.890625 33 0.890625 
C 22.40625 0.890625 13.203125 7.640625 13.203125 21.734375 
C 13.203125 24.921875 14.203125 42.1875 25.5 55.1875 
C 31 61.546875 40.40625 67.109375 49.90625 67.109375 
C 60.90625 67.109375 65.796875 58.078125 65.796875 47.9375 
C 65.796875 45.359375 65.5 43.1875 65.5 42.78125 
C 65.5 41.890625 66.5 41.890625 66.796875 41.890625 
C 67.90625 41.890625 68 41.984375 68.40625 43.765625 
z
" id="CMMI12-67"/>
     <path d="M 22.796875 20 
C 24.5 19.703125 27.203125 19.109375 27.796875 19 
C 29.09375 18.625 33.59375 17.03125 33.59375 12.234375 
C 33.59375 9.15625 30.796875 1.09375 19.203125 1.09375 
C 17.09375 1.09375 9.59375 1.09375 7.59375 6.8125 
C 11.59375 6.3125 13.59375 9.421875 13.59375 11.640625 
C 13.59375 13.75 12.203125 14.84375 10.203125 14.84375 
C 8 14.84375 5.09375 13.140625 5.09375 8.625 
C 5.09375 2.703125 11.09375 -1 19.09375 -1 
C 34.296875 -1 38.796875 10.171875 38.796875 15.375 
C 38.796875 16.859375 38.796875 19.65625 35.59375 22.84375 
C 33.09375 25.25 30.703125 25.75 25.296875 26.84375 
C 22.59375 27.4375 18.296875 28.34375 18.296875 32.828125 
C 18.296875 34.828125 20.09375 42.015625 29.59375 42.015625 
C 33.796875 42.015625 37.90625 40.453125 38.90625 37 
C 34.5 37 34.296875 33.203125 34.296875 33.109375 
C 34.296875 31 36.203125 30.40625 37.09375 30.40625 
C 38.5 30.40625 41.296875 31.484375 41.296875 35.640625 
C 41.296875 39.765625 37.5 44 29.703125 44 
C 16.59375 44 13.09375 33.75 13.09375 29.671875 
C 13.09375 22.09375 20.5 20.5 22.796875 20 
z
" id="CMMI12-115"/>
    </defs>
    <g transform="translate(72.369458 113.065056)scale(0.16 -0.16)">
     <use transform="translate(0 14.943915)scale(0.996264)" xlink:href="#CMMI12-67"/>
     <use transform="translate(69.792037 0)scale(0.697382)" xlink:href="#CMMI12-115"/>
    </g>
   </g>
   <g id="text_2">
    <!-- $C_{b}$ -->
    <defs>
     <path d="M 23.09375 66.515625 
C 23.203125 66.921875 23.40625 67.515625 23.40625 68 
C 23.40625 69 22.40625 69 22.203125 69 
C 22.09375 69 18.5 68.640625 16.703125 68.390625 
C 15 68.390625 13.5 68.09375 11.703125 68.09375 
C 9.296875 67.890625 8.59375 67.796875 8.59375 66 
C 8.59375 65 9.59375 65 10.59375 65 
C 15.703125 65 15.703125 64.109375 15.703125 63.125 
C 15.703125 62.4375 14.90625 59.546875 14.5 57.75 
L 12.09375 48.203125 
C 11.09375 44.234375 5.40625 21.671875 5 19.875 
C 4.5 17.40625 4.5 15.703125 4.5 14.40625 
C 4.5 4.28125 10.203125 -1 16.703125 -1 
C 28.296875 -1 40.296875 13.875 40.296875 28.34375 
C 40.296875 37.515625 35.09375 44 27.59375 44 
C 22.40625 44 17.703125 39.71875 15.796875 37.71875 
z
M 16.796875 1 
C 13.59375 1 10.09375 3.390625 10.09375 11.171875 
C 10.09375 14.46875 10.40625 16.359375 12.203125 23.34375 
C 12.5 24.640625 14.09375 31.03125 14.5 32.328125 
C 14.703125 33.125 20.59375 42.015625 27.40625 42.015625 
C 31.796875 42.015625 33.796875 37.625 33.796875 32.4375 
C 33.796875 27.640625 31 16.359375 28.5 11.171875 
C 26 5.78125 21.40625 1 16.796875 1 
z
" id="CMMI12-98"/>
    </defs>
    <g transform="translate(132.854295 113.065056)scale(0.16 -0.16)">
     <use transform="translate(0 14.943915)scale(0.996264)" xlink:href="#CMMI12-67"/>
     <use transform="translate(69.792037 0)scale(0.697382)" xlink:href="#CMMI12-98"/>
    </g>
   </g>
  </g>
 </g>
 <defs>
  <clipPath id="pebe840bd65">
   <rect height="166.32" width="167.4" x="27" y="25.92"/>
  </clipPath>
 </defs>
</svg>
