<?xml version="1.0" encoding="utf-8" standalone="no"?>
<!DOCTYPE svg PUBLIC "-//W3C//DTD SVG 1.1//EN"
  "http://www.w3.org/Graphics/SVG/1.1/DTD/svg11.dtd">
<!-- Created with matplotlib (http://matplotlib.org/) -->
<svg height="50pt" version="1.1" viewBox="0 0 50 50" width="50pt" xmlns="http://www.w3.org/2000/svg" xmlns:xlink="http://www.w3.org/1999/xlink">
 <defs>
  <style type="text/css">
*{stroke-linecap:butt;stroke-linejoin:round;}
  </style>
 </defs>
 <g id="figure_1">
  <g id="patch_1">
   <path d="M 0 50.4 
L 50.4 50.4 
L 50.4 0 
L 0 0 
z
" style="fill:none;"/>
  </g>
  <g id="axes_1">
   <g id="patch_2">
    <path clip-path="url(#p1582bb6ed0)" d="M 18.7992 28.385885 
C 19.582328 28.385885 20.333486 28.076752 20.887241 27.52657 
C 21.440996 26.976387 21.752136 26.230075 21.752136 25.452 
C 21.752136 24.673925 21.440996 23.927613 20.887241 23.37743 
C 20.333486 22.827248 19.582328 22.518115 18.7992 22.518115 
C 18.016072 22.518115 17.264914 22.827248 16.711159 23.37743 
C 16.157404 23.927613 15.846264 24.673925 15.846264 25.452 
C 15.846264 26.230075 16.157404 26.976387 16.711159 27.52657 
C 17.264914 28.076752 18.016072 28.385885 18.7992 28.385885 
z
" style="fill:#0000ff;opacity:0.3;stroke:#0000ff;stroke-linejoin:miter;"/>
   </g>
   <g id="patch_3">
    <path clip-path="url(#p1582bb6ed0)" d="M 15.351069 23.622766 
Q 15.781148 23.830632 16.241882 23.985058 
" style="fill:none;opacity:0.5;stroke:#0000ff;stroke-linecap:round;"/>
   </g>
   <g id="patch_4">
    <path clip-path="url(#p1582bb6ed0)" d="M 14.447017 27.799821 
Q 14.050464 28.066133 13.684565 28.385885 
" style="fill:none;opacity:0.5;stroke:#008000;stroke-linecap:round;"/>
   </g>
   <g id="patch_5">
    <path clip-path="url(#p1582bb6ed0)" d="M 32.8608 28.385885 
C 33.643928 28.385885 34.395086 28.076752 34.948841 27.52657 
C 35.502596 26.976387 35.813736 26.230075 35.813736 25.452 
C 35.813736 24.673925 35.502596 23.927613 34.948841 23.37743 
C 34.395086 22.827248 33.643928 22.518115 32.8608 22.518115 
C 32.077672 22.518115 31.326514 22.827248 30.772759 23.37743 
C 30.219004 23.927613 29.907864 24.673925 29.907864 25.452 
C 29.907864 26.230075 30.219004 26.976387 30.772759 27.52657 
C 31.326514 28.076752 32.077672 28.385885 32.8608 28.385885 
z
" style="fill:#0000ff;opacity:0.3;stroke:#0000ff;stroke-linejoin:miter;"/>
   </g>
   <g id="patch_6">
    <path clip-path="url(#p1582bb6ed0)" d="M 23.689343 26.240381 
Q 25.834495 26.49518 27.986136 26.30241 
" style="fill:none;opacity:0.5;stroke:#008000;stroke-linecap:round;"/>
   </g>
   <g id="patch_7">
    <path clip-path="url(#p1582bb6ed0)" d="M 27.970657 24.663619 
Q 25.825505 24.40882 23.673864 24.60159 
" style="fill:none;opacity:0.5;stroke:#0000ff;stroke-linecap:round;"/>
   </g>
  </g>
 </g>
 <defs>
  <clipPath id="p1582bb6ed0">
   <rect height="38.808" width="39.06" x="6.3" y="6.048"/>
  </clipPath>
 </defs>
</svg>
