<?xml version="1.0" encoding="utf-8" standalone="no"?>
<!DOCTYPE svg PUBLIC "-//W3C//DTD SVG 1.1//EN"
  "http://www.w3.org/Graphics/SVG/1.1/DTD/svg11.dtd">
<!-- Created with matplotlib (http://matplotlib.org/) -->
<svg height="216pt" version="1.1" viewBox="0 0 216 216" width="216pt" xmlns="http://www.w3.org/2000/svg" xmlns:xlink="http://www.w3.org/1999/xlink">
 <defs>
  <style type="text/css">
*{stroke-linecap:butt;stroke-linejoin:round;}
  </style>
 </defs>
 <g id="figure_1">
  <g id="patch_1">
   <path d="M 0 216 
L 216 216 
L 216 0 
L 0 0 
z
" style="fill:none;"/>
  </g>
  <g id="axes_1">
   <g id="patch_2">
    <path clip-path="url(#pe6babeb6d2)" d="M 53.784 122.3856 
C 57.3356 122.3856 60.742214 120.983638 63.253574 118.48848 
C 65.764934 115.993322 67.176 112.608686 67.176 109.08 
C 67.176 105.551314 65.764934 102.166678 63.253574 99.67152 
C 60.742214 97.176362 57.3356 95.7744 53.784 95.7744 
C 50.2324 95.7744 46.825786 97.176362 44.314426 99.67152 
C 41.803066 102.166678 40.392 105.551314 40.392 109.08 
C 40.392 112.608686 41.803066 115.993322 44.314426 118.48848 
C 46.825786 120.983638 50.2324 122.3856 53.784 122.3856 
z
" style="fill:#0000ff;opacity:0.3;stroke:#0000ff;stroke-linejoin:miter;"/>
   </g>
   <g id="patch_3">
    <path clip-path="url(#pe6babeb6d2)" d="M 33.04957 95.860932 
Q 33.784721 96.432651 34.546127 96.958055 
L 35.824014 95.106163 
Q 37.497856 98.5678 40.306783 101.737015 
Q 36.084524 102.091618 31.564389 101.279136 
L 32.842276 99.427244 
Q 32.010511 98.853289 31.207879 98.22909 
L 33.04957 95.860932 
z
" style="fill:#0000ff;opacity:0.5;stroke:#0000ff;stroke-linecap:round;"/>
   </g>
   <g id="patch_4">
    <path clip-path="url(#pe6babeb6d2)" d="M 82.242 73.412903 
C 85.7936 73.412903 89.200214 72.010941 91.711574 69.515783 
C 94.222934 67.020625 95.634 63.635989 95.634 60.107303 
C 95.634 56.578616 94.222934 53.193981 91.711574 50.698823 
C 89.200214 48.203665 85.7936 46.801703 82.242 46.801703 
C 78.6904 46.801703 75.283786 48.203665 72.772426 50.698823 
C 70.261066 53.193981 68.85 56.578616 68.85 60.107303 
C 68.85 63.635989 70.261066 67.020625 72.772426 69.515783 
C 75.283786 72.010941 78.6904 73.412903 82.242 73.412903 
z
" style="fill:#0000ff;opacity:0.3;stroke:#0000ff;stroke-linejoin:miter;"/>
   </g>
   <g id="patch_5">
    <path clip-path="url(#pe6babeb6d2)" d="M 68.182993 53.36797 
Q 67.447842 52.796251 66.686437 52.270848 
L 65.408549 54.12274 
Q 63.734708 50.661103 60.92578 47.491888 
Q 65.14804 47.137285 69.668175 47.949767 
L 68.390287 49.801659 
Q 69.222053 50.375614 70.024685 50.999813 
L 68.182993 53.36797 
z
" style="fill:#0000ff;opacity:0.5;stroke:#0000ff;stroke-linecap:round;"/>
   </g>
   <g id="patch_6">
    <path clip-path="url(#pe6babeb6d2)" d="M 139.158 73.412903 
C 142.7096 73.412903 146.116214 72.010941 148.627574 69.515783 
C 151.138934 67.020625 152.55 63.635989 152.55 60.107303 
C 152.55 56.578616 151.138934 53.193981 148.627574 50.698823 
C 146.116214 48.203665 142.7096 46.801703 139.158 46.801703 
C 135.6064 46.801703 132.199786 48.203665 129.688426 50.698823 
C 127.177066 53.193981 125.766 56.578616 125.766 60.107303 
C 125.766 63.635989 127.177066 67.020625 129.688426 69.515783 
C 132.199786 72.010941 135.6064 73.412903 139.158 73.412903 
z
" style="fill:#0000ff;opacity:0.3;stroke:#0000ff;stroke-linejoin:miter;"/>
   </g>
   <g id="patch_7">
    <path clip-path="url(#pe6babeb6d2)" d="M 138.008554 44.620877 
Q 138.133675 43.731742 138.20905 42.842864 
L 135.967096 42.652752 
Q 138.14146 39.482488 139.494073 35.469003 
Q 141.901943 38.95612 143.440276 43.286459 
L 141.198322 43.096347 
Q 141.115948 44.067764 140.979284 45.038926 
L 138.008554 44.620877 
z
" style="fill:#0000ff;opacity:0.5;stroke:#0000ff;stroke-linecap:round;"/>
   </g>
   <g id="patch_8">
    <path clip-path="url(#pe6babeb6d2)" d="M 167.616 122.3856 
C 171.1676 122.3856 174.574214 120.983638 177.085574 118.48848 
C 179.596934 115.993322 181.008 112.608686 181.008 109.08 
C 181.008 105.551314 179.596934 102.166678 177.085574 99.67152 
C 174.574214 97.176362 171.1676 95.7744 167.616 95.7744 
C 164.0644 95.7744 160.657786 97.176362 158.146426 99.67152 
C 155.635066 102.166678 154.224 105.551314 154.224 109.08 
C 154.224 112.608686 155.635066 115.993322 158.146426 118.48848 
C 160.657786 120.983638 164.0644 122.3856 167.616 122.3856 
z
" style="fill:#0000ff;opacity:0.3;stroke:#0000ff;stroke-linejoin:miter;"/>
   </g>
   <g id="patch_9">
    <path clip-path="url(#pe6babeb6d2)" d="M 180.531014 100.346348 
Q 181.395663 100.000381 182.233585 99.60837 
L 181.280134 97.570373 
Q 185.113286 97.873058 189.267051 97.048296 
Q 187.441589 100.872025 184.458305 104.363695 
L 183.504854 102.325699 
Q 182.5895 102.753936 181.645483 103.131659 
L 180.531014 100.346348 
z
" style="fill:#0000ff;opacity:0.5;stroke:#0000ff;stroke-linecap:round;"/>
   </g>
   <g id="patch_10">
    <path clip-path="url(#pe6babeb6d2)" d="M 139.158 171.358297 
C 142.7096 171.358297 146.116214 169.956335 148.627574 167.461177 
C 151.138934 164.966019 152.55 161.581384 152.55 158.052697 
C 152.55 154.524011 151.138934 151.139375 148.627574 148.644217 
C 146.116214 146.149059 142.7096 144.747097 139.158 144.747097 
C 135.6064 144.747097 132.199786 146.149059 129.688426 148.644217 
C 127.177066 151.139375 125.766 154.524011 125.766 158.052697 
C 125.766 161.581384 127.177066 164.966019 129.688426 167.461177 
C 132.199786 169.956335 135.6064 171.358297 139.158 171.358297 
z
" style="fill:#0000ff;opacity:0.3;stroke:#0000ff;stroke-linejoin:miter;"/>
   </g>
   <g id="patch_11">
    <path clip-path="url(#pe6babeb6d2)" d="M 153.217007 164.79203 
Q 153.952158 165.363749 154.713563 165.889152 
L 155.991451 164.03726 
Q 157.665292 167.498897 160.47422 170.668112 
Q 156.25196 171.022715 151.731825 170.210233 
L 153.009713 168.358341 
Q 152.177947 167.784386 151.375315 167.160187 
L 153.217007 164.79203 
z
" style="fill:#0000ff;opacity:0.5;stroke:#0000ff;stroke-linecap:round;"/>
   </g>
   <g id="patch_12">
    <path clip-path="url(#pe6babeb6d2)" d="M 82.242 171.358297 
C 85.7936 171.358297 89.200214 169.956335 91.711574 167.461177 
C 94.222934 164.966019 95.634 161.581384 95.634 158.052697 
C 95.634 154.524011 94.222934 151.139375 91.711574 148.644217 
C 89.200214 146.149059 85.7936 144.747097 82.242 144.747097 
C 78.6904 144.747097 75.283786 146.149059 72.772426 148.644217 
C 70.261066 151.139375 68.85 154.524011 68.85 158.052697 
C 68.85 161.581384 70.261066 164.966019 72.772426 167.461177 
C 75.283786 169.956335 78.6904 171.358297 82.242 171.358297 
z
" style="fill:#0000ff;opacity:0.3;stroke:#0000ff;stroke-linejoin:miter;"/>
   </g>
   <g id="patch_13">
    <path clip-path="url(#pe6babeb6d2)" d="M 83.391446 173.539123 
Q 83.266325 174.428258 83.19095 175.317136 
L 85.432904 175.507248 
Q 83.25854 178.677512 81.905927 182.690997 
Q 79.498057 179.20388 77.959724 174.873541 
L 80.201678 175.063653 
Q 80.284052 174.092236 80.420716 173.121074 
L 83.391446 173.539123 
z
" style="fill:#0000ff;opacity:0.5;stroke:#0000ff;stroke-linecap:round;"/>
   </g>
   <g id="patch_14">
    <path clip-path="url(#pe6babeb6d2)" d="M 62.420328 96.263628 
Q 68.675433 89.125285 72.92835 80.769963 
L 70.923165 79.74931 
Q 74.208143 77.438666 77.339247 74.611602 
Q 77.706833 78.812524 77.607115 83.151487 
L 75.60193 82.130833 
Q 71.178897 90.820368 64.676639 98.240762 
L 62.420328 96.263628 
z
" style="fill:#0000ff;opacity:0.5;stroke:#0000ff;stroke-linecap:round;"/>
   </g>
   <g id="patch_15">
    <path clip-path="url(#pe6babeb6d2)" d="M 60.631068 122.908471 
Q 63.734075 131.872281 68.88389 139.700165 
L 70.76359 138.463546 
Q 71.145474 142.463538 72.052862 146.58555 
Q 68.219511 144.823025 64.497922 142.585609 
L 66.377623 141.34899 
Q 61.021766 133.207917 57.796125 123.889845 
L 60.631068 122.908471 
z
" style="fill:#008000;opacity:0.5;stroke:#008000;stroke-linecap:round;"/>
   </g>
   <g id="patch_16">
    <path clip-path="url(#pe6babeb6d2)" d="M 66.68101 117.634904 
Q 89.884692 137.666211 118.178623 148.911612 
L 119.009652 146.820705 
Q 121.722079 149.917232 124.650823 152.936418 
Q 120.477176 153.456158 116.239554 153.790394 
L 117.070584 151.699487 
Q 88.306918 140.267391 64.720612 119.905772 
L 66.68101 117.634904 
z
" style="fill:#008000;opacity:0.5;stroke:#008000;stroke-linecap:round;"/>
   </g>
   <g id="patch_17">
    <path clip-path="url(#pe6babeb6d2)" d="M 73.605672 72.923675 
Q 67.350567 80.062017 63.09765 88.41734 
L 65.102835 89.437993 
Q 61.817857 91.748637 58.686753 94.5757 
Q 58.319167 90.374778 58.418885 86.035816 
L 60.42407 87.056469 
Q 64.847103 78.366934 71.349361 70.946541 
L 73.605672 72.923675 
z
" style="fill:#0000ff;opacity:0.5;stroke:#0000ff;stroke-linecap:round;"/>
   </g>
   <g id="patch_18">
    <path clip-path="url(#pe6babeb6d2)" d="M 69.256941 110.078505 
Q 107.033973 117.417381 144.850662 111.593053 
L 144.508167 109.369273 
Q 148.428126 110.663162 152.470237 111.81243 
Q 149.120713 114.349683 145.649817 116.781873 
L 145.307322 114.558093 
Q 106.974499 120.461913 68.684832 113.023448 
L 69.256941 110.078505 
z
" style="fill:#0000ff;opacity:0.5;stroke:#0000ff;stroke-linecap:round;"/>
   </g>
   <g id="patch_19">
    <path clip-path="url(#pe6babeb6d2)" d="M 67.699988 102.254309 
Q 96.706867 92.336642 120.69913 73.589093 
L 119.313766 71.816167 
Q 123.356217 71.037892 127.441106 70.03384 
Q 125.782592 73.899096 123.931646 77.72592 
L 122.546282 75.952994 
Q 98.15572 95.011774 68.670548 105.092973 
L 67.699988 102.254309 
z
" style="fill:#0000ff;opacity:0.5;stroke:#0000ff;stroke-linecap:round;"/>
   </g>
   <g id="text_1">
    <!-- $C_{A}$ -->
    <defs>
     <path d="M 74.703125 69.109375 
C 74.703125 70 74 70 73.796875 70 
C 73.59375 70 73.203125 70 72.40625 69 
L 65.5 60.65625 
C 62 66.625 56.5 70 49 70 
C 27.40625 70 5 48.25 5 24.921875 
C 5 8.328125 16.703125 -2 31.296875 -2 
C 39.296875 -2 46.296875 1.375 52.09375 6.25 
C 60.796875 13.484375 63.40625 23.140625 63.40625 23.921875 
C 63.40625 24.8125 62.59375 24.8125 62.296875 24.8125 
C 61.40625 24.8125 61.296875 24.21875 61.09375 23.8125 
C 56.5 8.34375 43 0.890625 33 0.890625 
C 22.40625 0.890625 13.203125 7.640625 13.203125 21.734375 
C 13.203125 24.921875 14.203125 42.1875 25.5 55.1875 
C 31 61.546875 40.40625 67.109375 49.90625 67.109375 
C 60.90625 67.109375 65.796875 58.078125 65.796875 47.9375 
C 65.796875 45.359375 65.5 43.1875 65.5 42.78125 
C 65.5 41.890625 66.5 41.890625 66.796875 41.890625 
C 67.90625 41.890625 68 41.984375 68.40625 43.765625 
z
" id="CMMI12-67"/>
     <path d="M 17 10.796875 
C 13.5 4.90625 10.09375 2.90625 5.296875 2.90625 
C 4.203125 2.8125 3.40625 2.8125 3.40625 0.90625 
C 3.40625 0.375 3.90625 0 4.59375 0 
C 6.40625 0 10.90625 0 12.703125 0 
C 15.59375 0 18.796875 0 21.59375 0 
C 22.203125 0 23.40625 0 23.40625 1.90625 
C 23.40625 2.8125 22.59375 2.90625 22 2.90625 
C 19.703125 2.90625 17.796875 3.6875 17.796875 6.0625 
C 17.796875 7.4375 18.40625 8.53125 19.703125 10.703125 
L 27.296875 23.109375 
L 52.796875 23.109375 
C 52.90625 22.234375 52.90625 21.453125 53 20.5625 
C 53.296875 18 54.5 7.734375 54.5 5.875 
C 54.5 2.90625 49.40625 2.90625 47.796875 2.90625 
C 46.703125 2.90625 45.59375 2.90625 45.59375 1.09375 
C 45.59375 0 46.5 0 47.09375 0 
C 48.796875 0 50.796875 0 52.5 0 
L 58.203125 0 
C 64.296875 0 68.703125 0 68.796875 0 
C 69.5 0 70.59375 0 70.59375 1.90625 
C 70.59375 2.90625 69.703125 2.90625 68.203125 2.90625 
C 62.703125 2.90625 62.59375 3.8125 62.296875 6.78125 
L 56.203125 68.8125 
C 56 70.796875 55.59375 71 54.5 71 
C 53.5 71 52.90625 70.796875 52 69.296875 
z
M 29 26 
L 49.09375 59.671875 
L 52.5 26 
z
" id="CMMI12-65"/>
    </defs>
    <g transform="translate(44.016338 113.065056)scale(0.16 -0.16)">
     <use transform="translate(0 14.943915)scale(0.996264)" xlink:href="#CMMI12-67"/>
     <use transform="translate(69.792037 0)scale(0.697382)" xlink:href="#CMMI12-65"/>
    </g>
   </g>
   <g id="text_2">
    <!-- $C_{S}$ -->
    <defs>
     <path d="M 63.5 69.109375 
C 63.5 70 62.796875 70 62.59375 70 
C 62.203125 70 62.09375 69.90625 60.90625 68.40625 
C 60.296875 67.703125 56.203125 62.515625 56.09375 62.421875 
C 52.796875 68.90625 46.203125 70 42 70 
C 29.296875 70 17.796875 58.484375 17.796875 47.265625 
C 17.796875 39.828125 22.296875 35.453125 27.203125 33.765625 
C 28.296875 33.359375 34.203125 31.765625 37.203125 31.078125 
C 42.296875 29.6875 43.59375 29.296875 45.703125 27.109375 
C 46.09375 26.609375 48.09375 24.328125 48.09375 19.65625 
C 48.09375 10.421875 39.5 0.890625 29.5 0.890625 
C 21.296875 0.890625 12.203125 4.375 12.203125 15.484375 
C 12.203125 17.375 12.59375 19.765625 12.90625 20.75 
C 12.90625 21.0625 13 21.53125 13 21.734375 
C 13 22.140625 12.796875 22.640625 12 22.640625 
C 11.09375 22.640625 11 22.4375 10.59375 20.75 
L 5.5 0.375 
C 5.5 0.28125 5.09375 -1 5.09375 -1.109375 
C 5.09375 -2 5.90625 -2 6.09375 -2 
C 6.5 -2 6.59375 -1.90625 7.796875 -0.40625 
L 12.40625 5.5625 
C 14.796875 1.96875 20 -2 29.296875 -2 
C 42.203125 -2 54 10.40625 54 22.8125 
C 54 27 53 30.671875 49.203125 34.328125 
C 47.09375 36.421875 45.296875 36.921875 36.09375 39.3125 
C 29.40625 41.09375 28.5 41.390625 26.703125 42.984375 
C 25 44.65625 23.703125 47.046875 23.703125 50.421875 
C 23.703125 58.765625 32.203125 67.3125 41.703125 67.3125 
C 51.5 67.3125 56.09375 61.34375 56.09375 51.921875 
C 56.09375 49.34375 55.59375 46.65625 55.59375 46.265625 
C 55.59375 45.359375 56.40625 45.359375 56.703125 45.359375 
C 57.59375 45.359375 57.703125 45.65625 58.09375 47.25 
z
" id="CMMI12-83"/>
    </defs>
    <g transform="translate(73.237589 64.092359)scale(0.16 -0.16)">
     <use transform="translate(0 14.943915)scale(0.996264)" xlink:href="#CMMI12-67"/>
     <use transform="translate(69.792037 0)scale(0.697382)" xlink:href="#CMMI12-83"/>
    </g>
   </g>
   <g id="text_3">
    <!-- $C_{L}$ -->
    <defs>
     <path d="M 36.703125 60.328125 
C 37.59375 64.109375 37.90625 65.109375 46.703125 65.109375 
C 49.40625 65.109375 50.09375 65.109375 50.09375 67 
C 50.09375 68 49 68 48.59375 68 
C 46.59375 68 44.296875 68 42.296875 68 
L 28.90625 68 
C 27 68 24.796875 68 22.90625 68 
C 22.09375 68 21 68 21 66.109375 
C 21 65.109375 21.90625 65.109375 23.40625 65.109375 
C 29.5 65.109375 29.5 64.3125 29.5 63.21875 
C 29.5 63.03125 29.5 62.421875 29.09375 60.921875 
L 15.59375 7.375 
C 14.703125 3.890625 14.5 2.890625 7.5 2.890625 
C 5.59375 2.890625 4.59375 2.890625 4.59375 1.09375 
C 4.59375 0 5.203125 0 7.203125 0 
L 52 0 
C 54.203125 0 54.296875 0.09375 55 1.890625 
L 62.703125 23.09375 
C 62.90625 23.59375 63.09375 24.1875 63.09375 24.484375 
C 63.09375 25.078125 62.59375 25.484375 62.09375 25.484375 
C 62 25.484375 61.5 25.484375 61.296875 25.078125 
C 61.09375 24.984375 61.09375 24.78125 60.296875 22.890625 
C 57.09375 14.140625 52.59375 2.890625 35.703125 2.890625 
L 26.09375 2.890625 
C 24.703125 2.890625 24.5 2.890625 23.90625 3 
C 22.796875 3.09375 22.703125 3.296875 22.703125 4.09375 
C 22.703125 4.796875 22.90625 5.390625 23.09375 6.265625 
z
" id="CMMI12-76"/>
    </defs>
    <g transform="translate(129.777771 64.092359)scale(0.16 -0.16)">
     <use transform="translate(0 14.943915)scale(0.996264)" xlink:href="#CMMI12-67"/>
     <use transform="translate(69.792037 0)scale(0.697382)" xlink:href="#CMMI12-76"/>
    </g>
   </g>
   <g id="text_4">
    <!-- $C_{R}$ -->
    <defs>
     <path d="M 36.796875 61.3125 
C 37.703125 65 38.09375 65 42 65 
L 49.203125 65 
C 57.796875 65 64.203125 62.421875 64.203125 54.671875 
C 64.203125 49.609375 61.59375 35 41.5 35 
L 30.203125 35 
z
M 50.703125 33.890625 
C 63.09375 36.578125 72.796875 44.546875 72.796875 53.09375 
C 72.796875 60.84375 64.90625 68 51 68 
L 23.90625 68 
C 21.90625 68 21 68 21 66.03125 
C 21 65 21.703125 65 23.59375 65 
C 29.59375 65 29.59375 64.25 29.59375 63.203125 
C 29.59375 63.015625 29.59375 62.40625 29.203125 60.921875 
L 15.703125 7.484375 
C 14.796875 4 14.59375 3 7.703125 3 
C 5.40625 3 4.703125 3 4.703125 1.109375 
C 4.703125 0.109375 5.796875 0.109375 6.09375 0.109375 
C 7.90625 0.109375 10 0.109375 11.90625 0.109375 
L 23.703125 0.109375 
C 25.5 0.109375 27.59375 0.109375 29.40625 0.109375 
C 30.203125 0.109375 31.296875 0.109375 31.296875 2 
C 31.296875 3 30.40625 3 28.90625 3 
C 22.796875 3 22.796875 3.796875 22.796875 4.78125 
C 22.796875 4.890625 22.796875 5.578125 23 6.359375 
L 29.703125 33 
L 41.703125 33 
C 51.203125 33 53 27.046875 53 23.78125 
C 53 22.296875 52 18.421875 51.296875 15.84375 
C 50.203125 11.296875 49.90625 10.1875 49.90625 8.3125 
C 49.90625 1.28125 55.703125 -2 62.40625 -2 
C 70.5 -2 74 7.828125 74 9.234375 
C 74 9.921875 73.5 10.21875 72.90625 10.21875 
C 72.09375 10.21875 71.90625 9.625 71.703125 8.828125 
C 69.296875 1.78125 65.203125 0 62.703125 0 
C 60.203125 0 58.59375 1.09375 58.59375 5.5625 
C 58.59375 7.953125 59.796875 17 59.90625 17.5 
C 60.40625 21.171875 60.40625 21.5625 60.40625 22.375 
C 60.40625 29.625 54.5 32.703125 50.703125 33.890625 
" id="CMMI12-82"/>
    </defs>
    <g transform="translate(157.796523 113.065056)scale(0.16 -0.16)">
     <use transform="translate(0 14.943915)scale(0.996264)" xlink:href="#CMMI12-67"/>
     <use transform="translate(69.792037 0)scale(0.697382)" xlink:href="#CMMI12-82"/>
    </g>
   </g>
   <g id="text_5">
    <!-- $C_{WL}$ -->
    <defs>
     <path d="M 90.296875 56.96875 
C 92.59375 60.84375 94.796875 64.515625 100.796875 65.125 
C 101.703125 65.21875 102.59375 65.3125 102.59375 66.90625 
C 102.59375 68 101.703125 68 101.40625 68 
C 101.203125 68 100.5 68 93.90625 68 
C 90.90625 68 87.796875 68 84.90625 68 
C 84.296875 68 83.09375 68 83.09375 66.03125 
C 83.09375 65.09375 83.90625 65 84.5 65 
C 86.5 65 89.703125 64.40625 89.703125 61.328125 
C 89.703125 60.03125 89.296875 59.328125 88.296875 57.65625 
L 61 10.125 
L 57.40625 61.921875 
C 57.40625 63.109375 58.5 65 64.09375 65 
C 65.40625 65 66.40625 65 66.40625 66.96875 
C 66.40625 68 65.40625 68 64.90625 68 
C 61.40625 68 57.703125 68 54.09375 68 
L 48.90625 68 
C 47.40625 68 45.59375 68 44.09375 68 
C 43.5 68 42.296875 68 42.296875 66.03125 
C 42.296875 65 43 65 44.703125 65 
C 49.296875 65 49.296875 64.890625 49.703125 58.9375 
L 50 55.359375 
L 24.09375 10.125 
L 20.40625 61.421875 
C 20.40625 62.53125 20.40625 65 27.203125 65 
C 28.296875 65 29.40625 65 29.40625 66.859375 
C 29.40625 68 28.5 68 27.90625 68 
C 24.40625 68 20.703125 68 17.09375 68 
L 11.90625 68 
C 10.40625 68 8.59375 68 7.09375 68 
C 6.5 68 5.296875 68 5.296875 66.03125 
C 5.296875 65 6.09375 65 7.5 65 
C 12.203125 65 12.296875 64.390625 12.5 61.21875 
L 16.90625 0.28125 
C 17 -1.40625 17.09375 -2 18.296875 -2 
C 19.296875 -2 19.5 -1.609375 20.40625 -0.109375 
L 50.203125 51.671875 
L 53.90625 0.28125 
C 54 -1.40625 54.09375 -2 55.296875 -2 
C 56.296875 -2 56.59375 -1.5 57.40625 -0.109375 
z
" id="CMMI12-87"/>
    </defs>
    <g transform="translate(123.733785 162.037753)scale(0.16 -0.16)">
     <use transform="translate(0 14.943915)scale(0.996264)" xlink:href="#CMMI12-67"/>
     <use transform="translate(69.792037 0)scale(0.697382)" xlink:href="#CMMI12-87"/>
     <use transform="translate(143.742855 0)scale(0.697382)" xlink:href="#CMMI12-76"/>
    </g>
   </g>
   <g id="text_6">
    <!-- $C_{WR}$ -->
    <g transform="translate(66.378537 162.037753)scale(0.16 -0.16)">
     <use transform="translate(0 14.943915)scale(0.996264)" xlink:href="#CMMI12-67"/>
     <use transform="translate(69.792037 0)scale(0.697382)" xlink:href="#CMMI12-87"/>
     <use transform="translate(143.742855 0)scale(0.697382)" xlink:href="#CMMI12-82"/>
    </g>
   </g>
  </g>
 </g>
 <defs>
  <clipPath id="pe6babeb6d2">
   <rect height="166.32" width="167.4" x="27" y="25.92"/>
  </clipPath>
 </defs>
</svg>
