<?xml version="1.0" encoding="UTF-8" standalone="no"?>
<!-- Created with Inkscape (http://www.inkscape.org/) -->

<svg
   xmlns:ns0="http://www.iki.fi/pav/software/textext/"
   xmlns:dc="http://purl.org/dc/elements/1.1/"
   xmlns:cc="http://creativecommons.org/ns#"
   xmlns:rdf="http://www.w3.org/1999/02/22-rdf-syntax-ns#"
   xmlns:svg="http://www.w3.org/2000/svg"
   xmlns="http://www.w3.org/2000/svg"
   xmlns:xlink="http://www.w3.org/1999/xlink"
   xmlns:sodipodi="http://sodipodi.sourceforge.net/DTD/sodipodi-0.dtd"
   xmlns:inkscape="http://www.inkscape.org/namespaces/inkscape"
   width="744.09448819"
   height="1052.3622047"
   id="svg3245"
   version="1.1"
   inkscape:version="0.48.4 r9939"
   sodipodi:docname="New document 3">
  <sodipodi:namedview
     id="base"
     pagecolor="#ffffff"
     bordercolor="#666666"
     borderopacity="1.0"
     inkscape:pageopacity="0.0"
     inkscape:pageshadow="2"
     inkscape:zoom="1.4"
     inkscape:cx="375"
     inkscape:cy="621.74531"
     inkscape:document-units="px"
     inkscape:current-layer="layer1"
     showgrid="false"
     inkscape:window-width="1295"
     inkscape:window-height="744"
     inkscape:window-x="65"
     inkscape:window-y="24"
     inkscape:window-maximized="1" />
  <defs
     id="defs3247">
    <clipPath
       id="p59fa77ffd8">
      <rect
         id="rect112"
         y="0"
         x="0"
         width="216"
         height="216" />
    </clipPath>
    <clipPath
       id="clipPath3124">
      <rect
         id="rect3126"
         y="0"
         x="0"
         width="216"
         height="216" />
    </clipPath>
    <clipPath
       id="clipPath3128">
      <rect
         id="rect3130"
         y="0"
         x="0"
         width="216"
         height="216" />
    </clipPath>
    <clipPath
       id="clipPath3132">
      <rect
         id="rect3134"
         y="0"
         x="0"
         width="216"
         height="216" />
    </clipPath>
    <clipPath
       id="clipPath3136">
      <rect
         id="rect3138"
         y="0"
         x="0"
         width="216"
         height="216" />
    </clipPath>
    <clipPath
       id="clipPath3140">
      <rect
         id="rect3142"
         y="0"
         x="0"
         width="216"
         height="216" />
    </clipPath>
    <clipPath
       id="clipPath3144">
      <rect
         id="rect3146"
         y="0"
         x="0"
         width="216"
         height="216" />
    </clipPath>
    <clipPath
       id="clipPath3148">
      <rect
         id="rect3150"
         y="0"
         x="0"
         width="216"
         height="216" />
    </clipPath>
    <clipPath
       id="clipPath3152">
      <rect
         id="rect3154"
         y="0"
         x="0"
         width="216"
         height="216" />
    </clipPath>
    <clipPath
       id="clipPath3156">
      <rect
         id="rect3158"
         y="0"
         x="0"
         width="216"
         height="216" />
    </clipPath>
    <clipPath
       id="clipPath3160">
      <rect
         id="rect3162"
         y="0"
         x="0"
         width="216"
         height="216" />
    </clipPath>
    <clipPath
       id="clipPath3164">
      <rect
         id="rect3166"
         y="0"
         x="0"
         width="216"
         height="216" />
    </clipPath>
    <clipPath
       id="clipPath3168">
      <rect
         id="rect3170"
         y="0"
         x="0"
         width="216"
         height="216" />
    </clipPath>
    <clipPath
       id="clipPath3172">
      <rect
         id="rect3174"
         y="0"
         x="0"
         width="216"
         height="216" />
    </clipPath>
    <clipPath
       id="clipPath3176">
      <rect
         id="rect3178"
         y="0"
         x="0"
         width="216"
         height="216" />
    </clipPath>
  </defs>
  <metadata
     id="metadata3250">
    <rdf:RDF>
      <cc:Work
         rdf:about="">
        <dc:format>image/svg+xml</dc:format>
        <dc:type
           rdf:resource="http://purl.org/dc/dcmitype/StillImage" />
        <dc:title></dc:title>
      </cc:Work>
    </rdf:RDF>
  </metadata>
  <g
     id="layer1"
     inkscape:groupmode="layer"
     inkscape:label="Layer 1">
    <g
       id="figure_1"
       transform="matrix(1.25,0,0,1.25,216.42854,318.21932)">
      <g
         id="patch_1">
        <path
           id="path10"
           style="fill:none"
           d="M 0,216 216,216 216,0 0,0 z"
           inkscape:connector-curvature="0" />
      </g>
      <g
         id="axes_1">
        <g
           id="patch_2">
          <path
             id="path14"
             style="opacity:0.3;fill:#0000ff"
             d="m 43.2,129.6 c 5.728387,0 11.222925,-2.27591 15.273506,-6.32649 C 62.524088,119.22293 64.8,113.72839 64.8,108 64.8,102.27161 62.524088,96.777075 58.473506,92.726494 54.422925,88.675912 48.928387,86.4 43.2,86.4 37.471613,86.4 31.977075,88.675912 27.926494,92.726494 23.875912,96.777075 21.6,102.27161 21.6,108 c 0,5.72839 2.275912,11.22293 6.326494,15.27351 C 31.977075,127.32409 37.471613,129.6 43.2,129.6 z"
             clip-path="url(#p59fa77ffd8)"
             inkscape:connector-curvature="0" />
        </g>
        <g
           id="patch_3">
          <path
             id="path17"
             style="opacity:0.5;fill:#0000ff;stroke:#0000ff;stroke-linecap:round"
             d="m 8.264259,86.533882 q 3.889508,3.182065 8.245691,5.552219 l 1.075338,-1.976398 q 2.152105,3.315613 5.0237,6.415482 -4.202223,0.425061 -8.608159,0.172511 l 1.075338,-1.976398 Q 10.472346,92.216408 6.364638,88.85583 l 1.899621,-2.321948 z"
             clip-path="url(#p59fa77ffd8)"
             inkscape:connector-curvature="0" />
        </g>
        <g
           id="patch_4">
          <path
             id="path20"
             style="opacity:0.3;fill:#0000ff"
             d="m 87.975699,67.971538 c 5.728387,0 11.222925,-2.275913 15.273511,-6.326494 4.05058,-4.050581 6.32649,-9.545119 6.32649,-15.273506 0,-5.728387 -2.27591,-11.222925 -6.32649,-15.273507 -4.050586,-4.050581 -9.545124,-6.326493 -15.273511,-6.326493 -5.728387,0 -11.222925,2.275912 -15.273507,6.326493 -4.050581,4.050582 -6.326493,9.54512 -6.326493,15.273507 0,5.728387 2.275912,11.222925 6.326493,15.273506 4.050582,4.050581 9.54512,6.326494 15.273507,6.326494 z"
             clip-path="url(#p59fa77ffd8)"
             inkscape:connector-curvature="0" />
        </g>
        <g
           id="patch_5">
          <path
             id="path23"
             style="opacity:0.5;fill:#0000ff;stroke:#0000ff;stroke-linecap:round"
             d="m 97.595452,6.512278 q -1.824399,4.682454 -2.732415,9.557849 l 2.211964,0.411966 q -2.488298,3.071355 -4.549077,6.760316 -1.702815,-3.865201 -2.824136,-8.133537 l 2.211964,0.411967 q 0.959634,-5.152548 2.886382,-10.097686 l 2.795318,1.089125 z"
             clip-path="url(#p59fa77ffd8)"
             inkscape:connector-curvature="0" />
        </g>
        <g
           id="patch_6">
          <path
             id="path26"
             style="opacity:0.3;fill:#0000ff"
             d="m 160.4243,91.511516 c 5.72839,0 11.22293,-2.275913 15.27351,-6.326494 4.05058,-4.050581 6.32649,-9.545119 6.32649,-15.273506 0,-5.728387 -2.27591,-11.222926 -6.32649,-15.273507 -4.05058,-4.050581 -9.54512,-6.326493 -15.27351,-6.326493 -5.72839,0 -11.22292,2.275912 -15.27351,6.326493 -4.05058,4.050581 -6.32649,9.54512 -6.32649,15.273507 0,5.728387 2.27591,11.222925 6.32649,15.273506 4.05059,4.050581 9.54512,6.326494 15.27351,6.326494 z"
             clip-path="url(#p59fa77ffd8)"
             inkscape:connector-curvature="0" />
        </g>
        <g
           id="patch_7">
          <path
             id="path29"
             style="opacity:0.5;fill:#0000ff;stroke:#0000ff;stroke-linecap:round"
             d="m 169.08409,47.70195 q 2.75807,-4.200817 4.65989,-8.780886 l -2.07797,-0.862857 q 3.07249,-2.486891 5.85522,-5.66678 0.86198,4.134772 1.07136,8.54297 l -2.07797,-0.862857 q -2.00994,4.840433 -4.92274,9.276914 l -2.50779,-1.646504 z"
             clip-path="url(#p59fa77ffd8)"
             inkscape:connector-curvature="0" />
        </g>
        <g
           id="patch_8">
          <path
             id="path32"
             style="opacity:0.3;fill:#0000ff"
             d="m 160.4243,167.68848 c 5.72839,0 11.22293,-2.27591 15.27351,-6.32649 4.05058,-4.05058 6.32649,-9.54512 6.32649,-15.27351 0,-5.72838 -2.27591,-11.22292 -6.32649,-15.2735 -4.05058,-4.05058 -9.54512,-6.3265 -15.27351,-6.3265 -5.72839,0 -11.22292,2.27592 -15.27351,6.3265 -4.05058,4.05058 -6.32649,9.54512 -6.32649,15.2735 0,5.72839 2.27591,11.22293 6.32649,15.27351 4.05059,4.05058 9.54512,6.32649 15.27351,6.32649 z"
             clip-path="url(#p59fa77ffd8)"
             inkscape:connector-curvature="0" />
        </g>
        <g
           id="patch_9">
          <path
             id="path35"
             style="opacity:0.5;fill:#0000ff;stroke:#0000ff;stroke-linecap:round"
             d="m 184.22288,147.4613 q 4.8475,1.32496 9.7911,1.71838 l 0.1785,-2.24291 q 3.31462,2.15362 7.19879,3.81751 -3.66604,2.09751 -7.79378,3.65885 l 0.1785,-2.24291 q -5.22464,-0.41578 -10.34408,-1.81507 l 0.79097,-2.89385 z"
             clip-path="url(#p59fa77ffd8)"
             inkscape:connector-curvature="0" />
        </g>
        <g
           id="patch_10">
          <path
             id="path38"
             style="opacity:0.3;fill:#0000ff"
             d="m 87.975699,191.22846 c 5.728387,0 11.222925,-2.27591 15.273511,-6.32649 4.05058,-4.05058 6.32649,-9.54512 6.32649,-15.27351 0,-5.72839 -2.27591,-11.22292 -6.32649,-15.2735 -4.050586,-4.05059 -9.545124,-6.3265 -15.273511,-6.3265 -5.728387,0 -11.222925,2.27591 -15.273507,6.3265 -4.050581,4.05058 -6.326493,9.54511 -6.326493,15.2735 0,5.72839 2.275912,11.22293 6.326493,15.27351 4.050582,4.05058 9.54512,6.32649 15.273507,6.32649 z"
             clip-path="url(#p59fa77ffd8)"
             inkscape:connector-curvature="0" />
        </g>
        <g
           id="patch_11">
          <path
             id="path41"
             style="opacity:0.5;fill:#0000ff;stroke:#0000ff;stroke-linecap:round"
             d="m 94.024237,192.68647 q 0.237854,5.01969 1.391342,9.84291 l 2.188291,-0.52334 q -1.023941,3.8179 -1.40612,8.02613 -3.127718,-2.83844 -5.888184,-6.28167 l 2.188291,-0.52334 q -1.21906,-5.0974 -1.470258,-10.39869 l 2.996638,-0.142 z"
             clip-path="url(#p59fa77ffd8)"
             inkscape:connector-curvature="0" />
        </g>
        <g
           id="patch_12">
          <path
             id="path44"
             style="opacity:0.5;fill:#0000ff;stroke:#0000ff;stroke-linecap:round"
             d="M 58.982359,90.291338 Q 67.321486,82.844732 73.36409,73.592847 l -1.883807,-1.230354 q 3.52474,-1.961388 6.964619,-4.402128 -0.127857,4.214487 -0.685263,8.50331 L 75.875832,75.23332 q -6.259838,9.584493 -14.895283,17.295704 l -1.99819,-2.237686 z"
             clip-path="url(#p59fa77ffd8)"
             inkscape:connector-curvature="0" />
        </g>
        <g
           id="patch_13">
          <path
             id="path47"
             style="opacity:0.5;fill:#0000ff;stroke:#0000ff;stroke-linecap:round"
             d="m 109.69465,55.909176 q 9.65908,5.629853 20.32541,8.517721 l 0.58801,-2.171807 q 2.95459,2.746124 6.33886,5.263414 -4.04773,1.180749 -8.29889,1.975943 l 0.58801,-2.171807 q -11.04979,-2.991689 -21.05209,-8.821589 l 1.51069,-2.591875 z"
             clip-path="url(#p59fa77ffd8)"
             inkscape:connector-curvature="0" />
        </g>
        <g
           id="patch_14">
          <path
             id="path50"
             style="opacity:0.5;fill:#0000ff;stroke:#0000ff;stroke-linecap:round"
             d="m 158.06499,93.514762 q -2.36949,10.926048 -1.81993,21.962728 l 2.24721,-0.11189 q -1.6987,3.65858 -3.04699,7.65509 -2.37377,-3.48474 -4.44373,-7.2821 l 2.24722,-0.1119 q -0.56931,-11.43346 1.88438,-22.747747 l 2.93184,0.635819 z"
             clip-path="url(#p59fa77ffd8)"
             inkscape:connector-curvature="0" />
        </g>
        <g
           id="patch_15">
          <path
             id="path53"
             style="opacity:0.5;fill:#0000ff;stroke:#0000ff;stroke-linecap:round"
             d="m 138.70535,60.373878 q -9.65908,-5.629853 -20.32541,-8.517721 l -0.58801,2.171807 q -2.9546,-2.746125 -6.33886,-5.263414 4.04773,-1.180749 8.29889,-1.975943 l -0.58801,2.171807 q 11.04979,2.991688 21.05209,8.821589 l -1.51069,2.591875 z"
             clip-path="url(#p59fa77ffd8)"
             inkscape:connector-curvature="0" />
        </g>
        <g
           id="patch_16">
          <path
             id="path56"
             style="opacity:0.5;fill:#0000ff;stroke:#0000ff;stroke-linecap:round"
             d="m 55.164921,128.48219 q 4.505212,10.23211 11.437009,18.83796 l 1.752265,-1.41141 q 0.776187,3.95833 2.034487,7.98408 -3.968705,-1.42395 -7.87537,-3.27939 l 1.752265,-1.41141 Q 57.084579,140.28679 52.419281,129.6911 l 2.74564,-1.20891 z"
             clip-path="url(#p59fa77ffd8)"
             inkscape:connector-curvature="0" />
        </g>
        <g
           id="text_1">
          <!-- $x_{1}$ -->
          <defs
             id="defs59">
            <path
               id="CMMI12-120"
               d="M 47.40625,40.71875 C 44.203125,40.109375 43,37.71875 43,35.828125 43,33.421875 44.90625,32.625 46.296875,32.625 c 3,0 5.109375,2.59375 5.109375,5.296875 0,4.1875 -4.8125,6.078125 -9,6.078125 C 36.296875,44 32.90625,38.015625 32,36.125 29.703125,44 23.5,44 21.703125,44 11.5,44 6.09375,30.9375 6.09375,28.734375 6.09375,28.34375 6.5,27.84375 7.203125,27.84375 c 0.796875,0 1,0.59375 1.203125,1 3.390625,11.078125 10.09375,13.171875 13,13.171875 4.5,0 5.390625,-4.203125 5.390625,-6.59375 0,-2.1875 -0.59375,-4.484375 -1.796875,-9.28125 L 21.59375,12.46875 C 20.09375,6.484375 17.203125,1 11.90625,1 c -0.5,0 -3,0 -5.109375,1.296875 3.609375,0.703125 4.40625,3.6875 4.40625,4.890625 0,2 -1.5,3.1875 -3.40625,3.1875 -2.390625,0 -5,-2.09375 -5,-5.28125 C 2.796875,0.890625 7.5,-1 11.796875,-1 16.59375,-1 20,2.796875 22.09375,6.890625 23.703125,1 28.703125,-1 32.40625,-1 42.59375,-1 48,12.078125 48,14.265625 c 0,0.5 -0.40625,0.90625 -1,0.90625 -0.90625,0 -1,-0.5 -1.296875,-1.296875 C 43,5.09375 37.203125,1 32.703125,1 c -3.5,0 -5.40625,2.59375 -5.40625,6.6875 0,2.1875 0.40625,3.78125 2,10.375 l 3.5,13.5625 c 1.5,6 4.90625,10.390625 9.5,10.390625 0.203125,0 3,0 5.109375,-1.296875"
               inkscape:connector-curvature="0" />
            <path
               id="CMR17-49"
               d="m 26.59375,63.3125 c 0,2.09375 -0.09375,2.1875 -1.5,2.1875 -3.890625,-4.3125 -9.796875,-5.703125 -15.390625,-5.703125 -0.296875,0 -0.796875,0 -0.90625,-0.1875 C 8.703125,59.390625 8.703125,59.171875 8.703125,57 11.796875,57 17,57.59375 21,59.984375 L 21,7.203125 C 21,3.6875 20.796875,2.5 12.203125,2.5 l -3,0 0,-2.5 C 14,0 19,0 23.796875,0 28.59375,0 33.59375,0 38.40625,0 l 0,2.5 -3,0 c -8.609375,0 -8.8125,1.09375 -8.8125,4.65625 z"
               inkscape:connector-curvature="0" />
          </defs>
          <g
             id="g63"
             transform="matrix(0.16,0,0,-0.16,35.975741,112.39947)">
            <use
               id="use65"
               xlink:href="#CMMI12-120"
               transform="matrix(0.996264,0,0,0.996264,0,14.943915)"
               x="0"
               y="0"
               width="744.09448"
               height="1052.3622" />
            <use
               id="use67"
               xlink:href="#CMR17-49"
               transform="matrix(0.697382,0,0,0.697382,55.43406,0)"
               x="0"
               y="0"
               width="744.09448"
               height="1052.3622" />
          </g>
        </g>
        <g
           id="text_2">
          <!-- $x_{2}$ -->
          <defs
             id="defs70">
            <path
               id="CMR17-50"
               d="m 41.703125,15.453125 -1.796875,0 C 38.90625,8.375 38.09375,7.171875 37.703125,6.5625 37.203125,5.765625 30,5.765625 28.59375,5.765625 l -19.1875,0 C 13,9.671875 20,16.75 28.5,24.953125 34.59375,30.734375 41.703125,37.53125 41.703125,47.421875 41.703125,59.21875 32.296875,66 21.796875,66 10.796875,66 4.09375,56.3125 4.09375,47.34375 4.09375,43.4375 7,42.9375 8.203125,42.9375 c 1,0 4,0.609375 4,4.09375 0,3.078125 -2.609375,3.96875 -4,3.96875 C 7.59375,51 7,50.90625 6.59375,50.703125 8.5,59.21875 14.296875,63.40625 20.40625,63.40625 c 8.6875,0 14.390625,-6.890625 14.390625,-15.984375 C 34.796875,38.734375 29.703125,31.25 24,24.75 L 4.09375,2.28125 4.09375,0 39.296875,0 z"
               inkscape:connector-curvature="0" />
          </defs>
          <g
             id="g73"
             transform="matrix(0.16,0,0,-0.16,80.751439,50.77101)">
            <use
               id="use75"
               xlink:href="#CMMI12-120"
               transform="matrix(0.996264,0,0,0.996264,0,14.943915)"
               x="0"
               y="0"
               width="744.09448"
               height="1052.3622" />
            <use
               id="use77"
               xlink:href="#CMR17-50"
               transform="matrix(0.697382,0,0,0.697382,55.43406,0)"
               x="0"
               y="0"
               width="744.09448"
               height="1052.3622" />
          </g>
        </g>
        <g
           id="text_3">
          <!-- $x_{3}$ -->
          <defs
             id="defs80">
            <path
               id="CMR17-51"
               d="M 22.09375,33.703125 C 31,33.703125 34.90625,25.96875 34.90625,17.03125 34.90625,5 28.5,0.390625 22.703125,0.390625 c -5.296875,0 -13.90625,2.640625 -16.609375,10.4375 0.5,-0.203125 1,-0.203125 1.5,-0.203125 2.40625,0 4.203125,1.59375 4.203125,4.1875 C 11.796875,17.703125 9.59375,19 7.59375,19 5.90625,19 3.296875,18.203125 3.296875,14.46875 3.296875,5.234375 12.296875,-2 22.90625,-2 34,-2 42.5,6.71875 42.5,16.953125 42.5,26.671875 34.5,33.6875 25,34.796875 32.59375,36.375 39.90625,43.0625 39.90625,52.015625 39.90625,59.6875 32,65.296875 23,65.296875 c -9.09375,0 -17.09375,-5.46875 -17.09375,-13.28125 C 5.90625,48.59375 8.5,48 9.796875,48 c 2.109375,0 3.90625,1.296875 3.90625,3.890625 0,2.578125 -1.796875,3.875 -3.90625,3.875 -0.390625,0 -0.890625,0 -1.296875,-0.203125 C 11.40625,61.859375 19.296875,63 22.796875,63 c 3.5,0 10.109375,-1.671875 10.109375,-11.125 0,-2.765625 -0.40625,-7.6875 -3.8125,-12.03125 -3,-3.84375 -6.390625,-3.84375 -9.6875,-4.25 -0.5,0 -2.8125,0 -3.203125,0 -0.703125,-0.109375 -1.109375,-0.203125 -1.109375,-1 0,-0.78125 0.109375,-0.890625 2.109375,-0.890625 z"
               inkscape:connector-curvature="0" />
          </defs>
          <g
             id="g83"
             transform="matrix(0.16,0,0,-0.16,153.20004,74.310987)">
            <use
               id="use85"
               xlink:href="#CMMI12-120"
               transform="matrix(0.996264,0,0,0.996264,0,14.943915)"
               x="0"
               y="0"
               width="744.09448"
               height="1052.3622" />
            <use
               id="use87"
               xlink:href="#CMR17-51"
               transform="matrix(0.697382,0,0,0.697382,55.43406,0)"
               x="0"
               y="0"
               width="744.09448"
               height="1052.3622" />
          </g>
        </g>
        <g
           id="text_4">
          <!-- $x_{4}$ -->
          <defs
             id="defs90">
            <path
               id="CMR17-52"
               d="M 33.59375,64.328125 C 33.59375,66.40625 33.5,66.5 31.703125,66.5 L 2,19.59375 2,17 l 25.796875,0 0,-9.859375 C 27.796875,3.5 27.59375,2.5 20.59375,2.5 l -1.890625,0 0,-2.5 c 3.203125,0 8.59375,0 12,0 3.390625,0 8.796875,0 12,0 l 0,2.5 -1.90625,0 c -7,0 -7.203125,1 -7.203125,4.640625 l 0,9.859375 10.203125,0 0,2.59375 -10.203125,0 z m -5.5,-6.5625 0,-38.171875 -24.09375,0 z"
               inkscape:connector-curvature="0" />
          </defs>
          <g
             id="g93"
             transform="matrix(0.16,0,0,-0.16,153.20004,150.48796)">
            <use
               id="use95"
               xlink:href="#CMMI12-120"
               transform="matrix(0.996264,0,0,0.996264,0,14.943915)"
               x="0"
               y="0"
               width="744.09448"
               height="1052.3622" />
            <use
               id="use97"
               xlink:href="#CMR17-52"
               transform="matrix(0.697382,0,0,0.697382,55.43406,0)"
               x="0"
               y="0"
               width="744.09448"
               height="1052.3622" />
          </g>
        </g>
        <g
           id="text_5">
          <!-- $x_{5}$ -->
          <defs
             id="defs100">
            <path
               id="CMR17-53"
               d="M 11.40625,57.6875 C 12.40625,57.28125 16.5,56 20.703125,56 30,56 35.09375,61.015625 38,63.921875 38,64.734375 38,65.25 37.40625,65.25 c -0.109375,0 -0.3125,0 -1.109375,-0.421875 -3.5,-1.515625 -7.59375,-2.75 -12.59375,-2.75 -3,0 -7.5,0.421875 -12.40625,2.65625 C 10.203125,65.25 10,65.25 9.90625,65.25 c -0.5,0 -0.609375,-0.109375 -0.609375,-2.09375 l 0,-28.875 c 0,-1.78125 0,-2.28125 1,-2.28125 0.5,0 0.703125,0.203125 1.203125,0.90625 3.203125,4.578125 7.59375,6.5 12.59375,6.5 3.5,0 11,-2.1875 11,-19.265625 0,-3.1875 0,-8.96875 -3,-13.5625 -2.5,-4.09375 -6.390625,-6.1875 -10.6875,-6.1875 C 14.796875,0.390625 8.09375,5 6.296875,12.71875 6.703125,12.609375 7.5,12.421875 7.90625,12.421875 c 1.296875,0 3.796875,0.703125 3.796875,3.796875 C 11.703125,18.90625 9.796875,20 7.90625,20 5.59375,20 4.09375,18.59375 4.09375,15.796875 4.09375,7.09375 11,-2 21.59375,-2 c 10.3125,0 20.109375,8.875 20.109375,21.75 0,11.96875 -7.796875,21.25 -17.5,21.25 -5.109375,0 -9.40625,-1.90625 -12.796875,-5.546875 z"
               inkscape:connector-curvature="0" />
          </defs>
          <g
             id="g103"
             transform="matrix(0.16,0,0,-0.16,80.751439,174.02793)">
            <use
               id="use105"
               xlink:href="#CMMI12-120"
               transform="matrix(0.996264,0,0,0.996264,0,14.943915)"
               x="0"
               y="0"
               width="744.09448"
               height="1052.3622" />
            <use
               id="use107"
               xlink:href="#CMR17-53"
               transform="matrix(0.697382,0,0,0.697382,55.43406,0)"
               x="0"
               y="0"
               width="744.09448"
               height="1052.3622" />
          </g>
        </g>
      </g>
    </g>
    <text
       sodipodi:linespacing="125%"
       id="text3448"
       y="304.8493"
       x="342.44171"
       style="font-size:56px;font-style:normal;font-variant:normal;font-weight:normal;font-stretch:normal;line-height:125%;letter-spacing:0px;word-spacing:0px;fill:#000000;fill-opacity:1;stroke:none;font-family:Arial;-inkscape-font-specification:Arial"
       xml:space="preserve"><tspan
         y="304.8493"
         x="342.44171"
         id="tspan3450"
         sodipodi:role="line" /></text>
    <g
       id="g4566"
       ns0:preamble="/home/hmetzler/SOIL-R/Meetings/2016/IMPRSretreat/HM_Poster_stuff/preamble.tex"
       ns0:text="$u_2$"
       transform="matrix(3,0,0,3,-32.857143,64)">
      <defs
         id="defs4568">
        <g
           id="g4570">
          <symbol
             id="textext-7b4d513d-0"
             overflow="visible"
             style="overflow:visible">
            <path
               id="path4573"
               d=""
               style="stroke:none"
               inkscape:connector-curvature="0" />
          </symbol>
          <symbol
             id="textext-7b4d513d-1"
             overflow="visible"
             style="overflow:visible">
            <path
               id="path4576"
               d="M 3.484375,-0.5625 C 3.59375,-0.15625 3.953125,0.109375 4.375,0.109375 4.71875,0.109375 4.953125,-0.125 5.109375,-0.4375 5.28125,-0.796875 5.40625,-1.40625 5.40625,-1.421875 c 0,-0.109375 -0.078125,-0.109375 -0.109375,-0.109375 -0.109375,0 -0.109375,0.046875 -0.140625,0.1875 -0.140625,0.5625 -0.328125,1.234375 -0.75,1.234375 -0.203125,0 -0.3125,-0.125 -0.3125,-0.453125 0,-0.21875 0.125,-0.6875 0.203125,-1.046875 L 4.578125,-2.6875 C 4.609375,-2.828125 4.703125,-3.203125 4.75,-3.359375 4.796875,-3.59375 4.890625,-3.96875 4.890625,-4.03125 c 0,-0.171875 -0.140625,-0.265625 -0.28125,-0.265625 -0.046875,0 -0.3125,0.015625 -0.390625,0.34375 -0.1875,0.734375 -0.625,2.484375 -0.75,3 -0.015625,0.046875 -0.40625,0.84375 -1.140625,0.84375 -0.515625,0 -0.609375,-0.453125 -0.609375,-0.8125 0,-0.5625 0.28125,-1.34375 0.53125,-2.03125 0.125,-0.3125 0.171875,-0.453125 0.171875,-0.640625 0,-0.4375 -0.3125,-0.8125 -0.8125,-0.8125 -0.953125,0 -1.3125,1.453125 -1.3125,1.53125 0,0.109375 0.09375,0.109375 0.109375,0.109375 0.109375,0 0.109375,-0.03125 0.15625,-0.1875 0.25,-0.859375 0.640625,-1.234375 1.015625,-1.234375 0.09375,0 0.25,0.015625 0.25,0.328125 0,0.234375 -0.109375,0.53125 -0.171875,0.671875 -0.375,1 -0.578125,1.609375 -0.578125,2.09375 0,0.953125 0.6875,1.203125 1.21875,1.203125 0.65625,0 1.015625,-0.453125 1.1875,-0.671875 z m 0,0"
               style="stroke:none"
               inkscape:connector-curvature="0" />
          </symbol>
          <symbol
             id="textext-7b4d513d-2"
             overflow="visible"
             style="overflow:visible">
            <path
               id="path4579"
               d=""
               style="stroke:none"
               inkscape:connector-curvature="0" />
          </symbol>
          <symbol
             id="textext-7b4d513d-3"
             overflow="visible"
             style="overflow:visible">
            <path
               id="path4582"
               d="m 3.515625,-1.265625 -0.234375,0 c -0.015625,0.15625 -0.09375,0.5625 -0.1875,0.625 -0.046875,0.046875 -0.578125,0.046875 -0.6875,0.046875 l -1.28125,0 c 0.734375,-0.640625 0.984375,-0.84375 1.390625,-1.171875 0.515625,-0.40625 1,-0.84375 1,-1.5 0,-0.84375 -0.734375,-1.359375 -1.625,-1.359375 -0.859375,0 -1.453125,0.609375 -1.453125,1.25 0,0.34375 0.296875,0.390625 0.375,0.390625 0.15625,0 0.359375,-0.125 0.359375,-0.375 0,-0.125 -0.046875,-0.375 -0.40625,-0.375 C 0.984375,-4.21875 1.453125,-4.375 1.78125,-4.375 c 0.703125,0 1.0625,0.546875 1.0625,1.109375 0,0.609375 -0.4375,1.078125 -0.65625,1.328125 L 0.515625,-0.265625 C 0.4375,-0.203125 0.4375,-0.1875 0.4375,0 l 2.875,0 z m 0,0"
               style="stroke:none"
               inkscape:connector-curvature="0" />
          </symbol>
        </g>
      </defs>
      <g
         id="textext-7b4d513d-4">
        <g
           id="g4585"
           style="fill:#000000;fill-opacity:1">
          <use
             id="use4587"
             y="83.403"
             x="118.801"
             xlink:href="#textext-7b4d513d-1"
             width="744.09448"
             height="1052.3622" />
        </g>
        <g
           id="g4589"
           style="fill:#000000;fill-opacity:1">
          <use
             id="use4591"
             y="84.898003"
             x="124.504"
             xlink:href="#textext-7b4d513d-3"
             width="744.09448"
             height="1052.3622" />
        </g>
      </g>
    </g>
    <g
       ns0:text="$u_1$"
       ns0:preamble="/home/hmetzler/SOIL-R/Meetings/2016/IMPRSretreat/HM_Poster_stuff/preamble.tex"
       transform="matrix(3,0,0,3,-168.24768,170.23434)"
       id="g4890">
      <defs
         id="defs4892">
        <g
           id="g4894">
          <symbol
             overflow="visible"
             id="textext-a0058b4b-0">
            <path
               style="stroke:none;"
               d=""
               id="path4897" />
          </symbol>
          <symbol
             overflow="visible"
             id="textext-a0058b4b-1">
            <path
               style="stroke:none;"
               d="M 3.484375 -0.5625 C 3.59375 -0.15625 3.953125 0.109375 4.375 0.109375 C 4.71875 0.109375 4.953125 -0.125 5.109375 -0.4375 C 5.28125 -0.796875 5.40625 -1.40625 5.40625 -1.421875 C 5.40625 -1.53125 5.328125 -1.53125 5.296875 -1.53125 C 5.1875 -1.53125 5.1875 -1.484375 5.15625 -1.34375 C 5.015625 -0.78125 4.828125 -0.109375 4.40625 -0.109375 C 4.203125 -0.109375 4.09375 -0.234375 4.09375 -0.5625 C 4.09375 -0.78125 4.21875 -1.25 4.296875 -1.609375 L 4.578125 -2.6875 C 4.609375 -2.828125 4.703125 -3.203125 4.75 -3.359375 C 4.796875 -3.59375 4.890625 -3.96875 4.890625 -4.03125 C 4.890625 -4.203125 4.75 -4.296875 4.609375 -4.296875 C 4.5625 -4.296875 4.296875 -4.28125 4.21875 -3.953125 C 4.03125 -3.21875 3.59375 -1.46875 3.46875 -0.953125 C 3.453125 -0.90625 3.0625 -0.109375 2.328125 -0.109375 C 1.8125 -0.109375 1.71875 -0.5625 1.71875 -0.921875 C 1.71875 -1.484375 2 -2.265625 2.25 -2.953125 C 2.375 -3.265625 2.421875 -3.40625 2.421875 -3.59375 C 2.421875 -4.03125 2.109375 -4.40625 1.609375 -4.40625 C 0.65625 -4.40625 0.296875 -2.953125 0.296875 -2.875 C 0.296875 -2.765625 0.390625 -2.765625 0.40625 -2.765625 C 0.515625 -2.765625 0.515625 -2.796875 0.5625 -2.953125 C 0.8125 -3.8125 1.203125 -4.1875 1.578125 -4.1875 C 1.671875 -4.1875 1.828125 -4.171875 1.828125 -3.859375 C 1.828125 -3.625 1.71875 -3.328125 1.65625 -3.1875 C 1.28125 -2.1875 1.078125 -1.578125 1.078125 -1.09375 C 1.078125 -0.140625 1.765625 0.109375 2.296875 0.109375 C 2.953125 0.109375 3.3125 -0.34375 3.484375 -0.5625 Z M 3.484375 -0.5625 "
               id="path4900" />
          </symbol>
          <symbol
             overflow="visible"
             id="textext-a0058b4b-2">
            <path
               style="stroke:none;"
               d=""
               id="path4903" />
          </symbol>
          <symbol
             overflow="visible"
             id="textext-a0058b4b-3">
            <path
               style="stroke:none;"
               d="M 2.328125 -4.4375 C 2.328125 -4.625 2.328125 -4.625 2.125 -4.625 C 1.671875 -4.1875 1.046875 -4.1875 0.765625 -4.1875 L 0.765625 -3.9375 C 0.921875 -3.9375 1.390625 -3.9375 1.765625 -4.125 L 1.765625 -0.578125 C 1.765625 -0.34375 1.765625 -0.25 1.078125 -0.25 L 0.8125 -0.25 L 0.8125 0 C 0.9375 0 1.796875 -0.03125 2.046875 -0.03125 C 2.265625 -0.03125 3.140625 0 3.296875 0 L 3.296875 -0.25 L 3.03125 -0.25 C 2.328125 -0.25 2.328125 -0.34375 2.328125 -0.578125 Z M 2.328125 -4.4375 "
               id="path4906" />
          </symbol>
        </g>
      </defs>
      <g
         id="textext-a0058b4b-4">
        <g
           style="fill:rgb(0%,0%,0%);fill-opacity:1;"
           id="g4909">
          <use
             xlink:href="#textext-a0058b4b-1"
             x="118.801"
             y="83.403"
             id="use4911" />
        </g>
        <g
           style="fill:rgb(0%,0%,0%);fill-opacity:1;"
           id="g4913">
          <use
             xlink:href="#textext-a0058b4b-3"
             x="124.504"
             y="84.898"
             id="use4915" />
        </g>
      </g>
    </g>
    <g
       id="g5854"
       transform="matrix(3,0,0,3,63.609465,205.09149)"
       ns0:preamble="/home/hmetzler/SOIL-R/Meetings/2016/IMPRSretreat/HM_Poster_stuff/preamble.tex"
       ns0:text="$a_{43}$">
      <defs
         id="defs5856">
        <g
           id="g5858">
          <symbol
             id="textext-914ad322-0"
             overflow="visible">
            <path
               id="path5861"
               d=""
               style="stroke:none;" />
          </symbol>
          <symbol
             id="textext-914ad322-1"
             overflow="visible">
            <path
               id="path5864"
               d="M 3.71875 -3.765625 C 3.53125 -4.140625 3.25 -4.40625 2.796875 -4.40625 C 1.640625 -4.40625 0.40625 -2.9375 0.40625 -1.484375 C 0.40625 -0.546875 0.953125 0.109375 1.71875 0.109375 C 1.921875 0.109375 2.421875 0.0625 3.015625 -0.640625 C 3.09375 -0.21875 3.453125 0.109375 3.921875 0.109375 C 4.28125 0.109375 4.5 -0.125 4.671875 -0.4375 C 4.828125 -0.796875 4.96875 -1.40625 4.96875 -1.421875 C 4.96875 -1.53125 4.875 -1.53125 4.84375 -1.53125 C 4.75 -1.53125 4.734375 -1.484375 4.703125 -1.34375 C 4.53125 -0.703125 4.359375 -0.109375 3.953125 -0.109375 C 3.671875 -0.109375 3.65625 -0.375 3.65625 -0.5625 C 3.65625 -0.78125 3.671875 -0.875 3.78125 -1.3125 C 3.890625 -1.71875 3.90625 -1.828125 4 -2.203125 L 4.359375 -3.59375 C 4.421875 -3.875 4.421875 -3.890625 4.421875 -3.9375 C 4.421875 -4.109375 4.3125 -4.203125 4.140625 -4.203125 C 3.890625 -4.203125 3.75 -3.984375 3.71875 -3.765625 Z M 3.078125 -1.1875 C 3.015625 -1 3.015625 -0.984375 2.875 -0.8125 C 2.4375 -0.265625 2.03125 -0.109375 1.75 -0.109375 C 1.25 -0.109375 1.109375 -0.65625 1.109375 -1.046875 C 1.109375 -1.546875 1.421875 -2.765625 1.65625 -3.234375 C 1.96875 -3.8125 2.40625 -4.1875 2.8125 -4.1875 C 3.453125 -4.1875 3.59375 -3.375 3.59375 -3.3125 C 3.59375 -3.25 3.578125 -3.1875 3.5625 -3.140625 Z M 3.078125 -1.1875 "
               style="stroke:none;" />
          </symbol>
          <symbol
             id="textext-914ad322-2"
             overflow="visible">
            <path
               id="path5867"
               d=""
               style="stroke:none;" />
          </symbol>
          <symbol
             id="textext-914ad322-3"
             overflow="visible">
            <path
               id="path5870"
               d="M 3.6875 -1.140625 L 3.6875 -1.390625 L 2.90625 -1.390625 L 2.90625 -4.5 C 2.90625 -4.640625 2.90625 -4.703125 2.765625 -4.703125 C 2.671875 -4.703125 2.640625 -4.703125 2.578125 -4.59375 L 0.265625 -1.390625 L 0.265625 -1.140625 L 2.328125 -1.140625 L 2.328125 -0.578125 C 2.328125 -0.328125 2.328125 -0.25 1.75 -0.25 L 1.5625 -0.25 L 1.5625 0 C 1.921875 -0.015625 2.359375 -0.03125 2.609375 -0.03125 C 2.875 -0.03125 3.3125 -0.015625 3.671875 0 L 3.671875 -0.25 L 3.484375 -0.25 C 2.90625 -0.25 2.90625 -0.328125 2.90625 -0.578125 L 2.90625 -1.140625 Z M 2.375 -3.9375 L 2.375 -1.390625 L 0.53125 -1.390625 Z M 2.375 -3.9375 "
               style="stroke:none;" />
          </symbol>
          <symbol
             id="textext-914ad322-4"
             overflow="visible">
            <path
               id="path5873"
               d="M 1.90625 -2.328125 C 2.453125 -2.328125 2.84375 -1.953125 2.84375 -1.203125 C 2.84375 -0.34375 2.328125 -0.078125 1.9375 -0.078125 C 1.65625 -0.078125 1.03125 -0.15625 0.75 -0.578125 C 1.078125 -0.578125 1.15625 -0.8125 1.15625 -0.96875 C 1.15625 -1.1875 0.984375 -1.34375 0.765625 -1.34375 C 0.578125 -1.34375 0.375 -1.21875 0.375 -0.9375 C 0.375 -0.28125 1.09375 0.140625 1.9375 0.140625 C 2.90625 0.140625 3.578125 -0.515625 3.578125 -1.203125 C 3.578125 -1.75 3.140625 -2.296875 2.375 -2.453125 C 3.09375 -2.71875 3.359375 -3.234375 3.359375 -3.671875 C 3.359375 -4.21875 2.734375 -4.625 1.953125 -4.625 C 1.1875 -4.625 0.59375 -4.25 0.59375 -3.6875 C 0.59375 -3.453125 0.75 -3.328125 0.953125 -3.328125 C 1.171875 -3.328125 1.3125 -3.484375 1.3125 -3.671875 C 1.3125 -3.875 1.171875 -4.03125 0.953125 -4.046875 C 1.203125 -4.34375 1.671875 -4.421875 1.9375 -4.421875 C 2.25 -4.421875 2.6875 -4.265625 2.6875 -3.671875 C 2.6875 -3.375 2.59375 -3.046875 2.40625 -2.84375 C 2.1875 -2.578125 1.984375 -2.5625 1.640625 -2.53125 C 1.46875 -2.515625 1.453125 -2.515625 1.421875 -2.515625 C 1.40625 -2.515625 1.34375 -2.5 1.34375 -2.421875 C 1.34375 -2.328125 1.40625 -2.328125 1.53125 -2.328125 Z M 1.90625 -2.328125 "
               style="stroke:none;" />
          </symbol>
        </g>
      </defs>
      <g
         id="textext-914ad322-5">
        <g
           id="g5876"
           style="fill:rgb(0%,0%,0%);fill-opacity:1;">
          <use
             id="use5878"
             y="83.403"
             x="118.801"
             xlink:href="#textext-914ad322-1" />
        </g>
        <g
           id="g5880"
           style="fill:rgb(0%,0%,0%);fill-opacity:1;">
          <use
             id="use5882"
             y="84.898"
             x="124.067"
             xlink:href="#textext-914ad322-3" />
          <use
             id="use5884"
             y="84.898"
             x="128.038579"
             xlink:href="#textext-914ad322-4" />
        </g>
      </g>
    </g>
  </g>
</svg>
