<?xml version="1.0" encoding="UTF-8" standalone="no"?>
<!-- Created with Inkscape (http://www.inkscape.org/) -->

<svg
   xmlns:dc="http://purl.org/dc/elements/1.1/"
   xmlns:cc="http://creativecommons.org/ns#"
   xmlns:rdf="http://www.w3.org/1999/02/22-rdf-syntax-ns#"
   xmlns:svg="http://www.w3.org/2000/svg"
   xmlns="http://www.w3.org/2000/svg"
   xmlns:sodipodi="http://sodipodi.sourceforge.net/DTD/sodipodi-0.dtd"
   xmlns:inkscape="http://www.inkscape.org/namespaces/inkscape"
   id="svg2"
   version="1.1"
   inkscape:version="0.48.4 r9939"
   width="406.36303"
   height="460.38139"
   xml:space="preserve"
   sodipodi:docname="model2.pdf"><metadata
     id="metadata8"><rdf:RDF><cc:Work
         rdf:about=""><dc:format>image/svg+xml</dc:format><dc:type
           rdf:resource="http://purl.org/dc/dcmitype/StillImage" /><dc:title></dc:title></cc:Work></rdf:RDF></metadata><defs
     id="defs6" /><sodipodi:namedview
     pagecolor="#ffffff"
     bordercolor="#666666"
     borderopacity="1"
     objecttolerance="10"
     gridtolerance="10"
     guidetolerance="10"
     inkscape:pageopacity="0"
     inkscape:pageshadow="2"
     inkscape:window-width="2495"
     inkscape:window-height="1416"
     id="namedview4"
     showgrid="false"
     inkscape:zoom="2.0504739"
     inkscape:cx="174.04057"
     inkscape:cy="217.53448"
     inkscape:window-x="65"
     inkscape:window-y="24"
     inkscape:window-maximized="1"
     inkscape:current-layer="g12" /><g
     id="g10"
     inkscape:groupmode="layer"
     inkscape:label="model2"
     transform="matrix(1.25,0,0,-1.25,0,460.38139)"><g
       id="g12"><g
         id="g14"
         transform="matrix(1,0,0,-1,0,368.30511)"><path
           d="m 8.801,8.801 307.488,0 0,307.895 -307.488,0 0,-307.895 z"
           style="fill:none;stroke:#000000;stroke-opacity:1;stroke-width:1.6;stroke-linecap:butt;stroke-linejoin:bevel;stroke-miterlimit:4;stroke-dasharray:1.6,3.2;stroke-dashoffset:1.76"
           id="path16" /></g><g
         id="g18"
         transform="matrix(1,0,0,-1,0,368.30511)"><path
           d="m 22.547,17.484 280,0 0,156 -280,0 0,-156 z"
           style="fill:none;stroke:#000000;stroke-opacity:1;stroke-width:2.4;stroke-linecap:square;stroke-linejoin:bevel;stroke-miterlimit:100;stroke-dasharray:none"
           id="path20" /></g><g
         id="g22"
         transform="matrix(1,0,0,-1,0,368.30511)"><path
           d="m 22.547,217.836 120,0 0,83.281 -120,0 0,-83.281 z"
           style="fill:none;stroke:#000000;stroke-opacity:1;stroke-width:2.4;stroke-linecap:square;stroke-linejoin:bevel;stroke-miterlimit:100;stroke-dasharray:none"
           id="path24" /></g><g
         id="g26"
         transform="matrix(1,0,0,-1,0,368.30511)"><path
           d="m 182.547,181.746 120,0 0,120 -120,0 0,-120 z"
           style="fill:none;stroke:#000000;stroke-opacity:1;stroke-width:2.4;stroke-linecap:square;stroke-linejoin:bevel;stroke-miterlimit:100;stroke-dasharray:none"
           id="path28" /></g><text
         transform="matrix(1,0,0,-1,41.793654,11.807015)"
         id="text30"><tspan
           style="fill:#000000;fill-opacity:1;fill-rule:nonzero;stroke:none;font-family:Georgia;font-variant:normal;font-weight:normal;font-size:17.6;writing-mode:lr;-inkscape-font-specification:Georgia"
           x="0 5.72 15.2064 22.8096 30.4128 35.552 40.5856 44.8272 50.6 60.72 69.2208 74.3072 142.1728 152.2752 160.776 169.2768 179.3264 183.6208 193.1072 201.0976 209.5984 218.4512 228.888 233.1296"
           y="0"
           sodipodi:role="line"
           id="tspan32">fossil fuelsdeep ocean (</tspan></text>
<text
         transform="matrix(1,0,0,-1,281.52325,11.807015)"
         id="text34"><tspan
           style="fill:#000000;fill-opacity:1;fill-rule:nonzero;stroke:none;font-family:Georgia;font-style:italic;font-variant:normal;font-size:17.6;writing-mode:lr;-inkscape-font-specification:Georgia-Italic"
           x="0"
           y="0"
           id="tspan36">D</tspan></text>
<text
         transform="matrix(1,0,0,-1,294.70565,11.807015)"
         id="text38"><tspan
           style="fill:#000000;fill-opacity:1;fill-rule:nonzero;stroke:none;font-family:Georgia;font-variant:normal;font-weight:normal;font-size:17.6;writing-mode:lr;-inkscape-font-specification:Georgia"
           x="0"
           y="0"
           id="tspan40">)</tspan></text>
<g
         id="g66"
         transform="matrix(1,0,0,-1,0,368.30511)"
         style="stroke:#ff0000;stroke-opacity:1;stroke-width:1;stroke-miterlimit:4;stroke-dasharray:none;stroke-dashoffset:0"><path
           d="m 181.441,251.492 -36.136,0"
           style="fill:none;stroke:#ff0000;stroke-opacity:1;stroke-width:1;stroke-linecap:butt;stroke-linejoin:miter;stroke-miterlimit:4;stroke-dasharray:none;stroke-dashoffset:0"
           id="path68" /></g><path
         d="m 153.676,112.942 -10.488,3.855 10.488,3.86 c -1.676,-2.278 -1.668,-5.395 0,-7.715 z"
         style="fill:#000000;fill-opacity:1;fill-rule:evenodd;stroke:none"
         id="path70" /><g
         id="g72"
         transform="matrix(1,0,0,-1,0,368.30511)"><path
           d="m 143.988,267.461 35.828,0"
           style="fill:none;stroke:#000000;stroke-opacity:1;stroke-width:1.6;stroke-linecap:butt;stroke-linejoin:miter;stroke-miterlimit:4;stroke-dasharray:none"
           id="path74" /></g><path
         d="m 171.445,104.715 10.489,-3.855 -10.489,-3.856 c 1.676,2.278 1.668,5.391 0,7.711 z"
         style="fill:#000000;fill-opacity:1;fill-rule:evenodd;stroke:none"
         id="path76" /><g
         id="g86"
         transform="matrix(1,0,0,-1,0,368.30511)"><path
           d="m 90.562,340.332 0,-35.828"
           style="fill:none;stroke:#000000;stroke-opacity:1;stroke-width:1.6;stroke-linecap:butt;stroke-linejoin:miter;stroke-miterlimit:4;stroke-dasharray:none"
           id="path88" /></g><path
         d="m 86.688,55.43 3.859,10.488 3.855,-10.488 c -2.277,1.676 -5.394,1.664 -7.714,0 z"
         style="fill:#000000;fill-opacity:1;fill-rule:evenodd;stroke:none"
         id="path90" /><g
         id="g92"
         transform="matrix(1,0,0,-1,0,368.30511)"><path
           d="m 250.562,340.363 0,-35.828"
           style="fill:none;stroke:#000000;stroke-opacity:1;stroke-width:1.6;stroke-linecap:butt;stroke-linejoin:miter;stroke-miterlimit:4;stroke-dasharray:none"
           id="path94" /></g><path
         d="m 246.688,55.399 3.859,10.492 3.855,-10.492 c -2.277,1.676 -5.394,1.668 -7.714,0 z"
         style="fill:#000000;fill-opacity:1;fill-rule:evenodd;stroke:none"
         id="path96" /><g
         id="g98"
         transform="matrix(1,0,0,-1,0,368.30511)"><path
           d="m 234.531,303.188 0,35.828"
           style="fill:none;stroke:#000000;stroke-opacity:1;stroke-width:1.6;stroke-linecap:butt;stroke-linejoin:miter;stroke-miterlimit:4;stroke-dasharray:none"
           id="path100" /></g><path
         d="m 238.402,37.661 -3.855,-10.489 -3.859,10.489 c 2.277,-1.676 5.394,-1.668 7.714,0 z"
         style="fill:#000000;fill-opacity:1;fill-rule:evenodd;stroke:none"
         id="path102" /><g
         id="g3997"
         transform="translate(0.002,0)"><path
           id="path132"
           style="fill:#000000;fill-opacity:1;fill-rule:nonzero;stroke:none"
           d="m 43.605,98.489 c 0,0.05 -0.027,0.172 -0.175,0.172 -0.051,0 -0.075,-0.024 -0.25,-0.2 l -1.094,-1.218 c -0.148,0.226 -0.871,1.418 -2.641,1.418 -3.558,0 -7.117,-3.508 -7.117,-7.192 0,-2.613 1.867,-4.355 4.305,-4.355 1.371,0 2.59,0.621 3.437,1.367 1.469,1.293 1.742,2.738 1.742,2.789 0,0.172 -0.175,0.172 -0.199,0.172 -0.101,0 -0.175,-0.047 -0.199,-0.172 -0.148,-0.449 -0.523,-1.594 -1.617,-2.516 -1.098,-0.871 -2.094,-1.144 -2.914,-1.144 -1.418,0 -3.11,0.82 -3.11,3.285 0,0.922 0.321,3.484 1.915,5.352 0.972,1.121 2.464,1.917 3.882,1.917 1.621,0 2.567,-1.218 2.567,-3.062 0,-0.648 -0.051,-0.648 -0.051,-0.82 0,-0.149 0.176,-0.149 0.223,-0.149 0.199,0 0.199,0.024 0.3,0.321 l 0.996,4.035 z"
           inkscape:connector-curvature="0" /><path
           id="path134"
           style="fill:#000000;fill-opacity:1;fill-rule:nonzero;stroke:none"
           d="m 47.594,95.981 c 0.922,0.398 1.32,0.551 1.594,0.699 0.222,0.074 0.324,0.125 0.324,0.348 0,0.176 -0.149,0.347 -0.348,0.347 -0.074,0 -0.102,0 -0.226,-0.097 l -1.516,-1.02 0.172,1.641 c 0.027,0.199 0,0.473 -0.348,0.473 -0.125,0 -0.348,-0.075 -0.348,-0.325 0,-0.097 0.047,-0.422 0.075,-0.547 0.023,-0.171 0.097,-0.996 0.125,-1.242 l -1.52,1.02 c -0.098,0.051 -0.125,0.097 -0.223,0.097 -0.226,0 -0.351,-0.171 -0.351,-0.347 0,-0.223 0.125,-0.297 0.226,-0.324 l 1.668,-0.723 C 46,95.586 45.578,95.434 45.305,95.309 c -0.2,-0.098 -0.301,-0.148 -0.301,-0.348 0,-0.199 0.125,-0.347 0.351,-0.347 0.075,0 0.098,0 0.223,0.097 l 1.52,0.996 -0.2,-1.765 c 0,-0.25 0.223,-0.348 0.348,-0.348 0.149,0 0.348,0.098 0.348,0.348 0,0.097 -0.051,0.422 -0.051,0.523 -0.023,0.199 -0.098,0.996 -0.121,1.242 l 1.316,-0.871 c 0.301,-0.222 0.324,-0.222 0.426,-0.222 0.199,0 0.348,0.148 0.348,0.347 0,0.227 -0.149,0.274 -0.25,0.325 l -1.668,0.695 z"
           inkscape:connector-curvature="0" /><path
           id="path136"
           style="fill:#000000;fill-opacity:1;fill-rule:nonzero;stroke:none"
           d="m 45.164,84.434 c -0.398,-0.621 -0.746,-0.895 -1.391,-0.945 -0.125,0 -0.273,0 -0.273,-0.227 0,-0.121 0.098,-0.172 0.172,-0.172 0.273,0 0.648,0.051 0.945,0.051 0.348,0 0.824,-0.051 1.145,-0.051 0.05,0 0.226,0 0.226,0.25 0,0.149 -0.152,0.149 -0.199,0.149 -0.074,0.023 -0.473,0.023 -0.473,0.324 0,0.148 0.098,0.32 0.149,0.422 l 0.894,1.394 3.188,0 0.25,-1.843 c -0.027,-0.125 -0.102,-0.297 -0.746,-0.297 -0.153,0 -0.301,0 -0.301,-0.25 0,-0.051 0.023,-0.149 0.176,-0.149 0.32,0 1.117,0.051 1.441,0.051 0.199,0 0.449,-0.027 0.649,-0.027 0.199,0 0.422,-0.024 0.621,-0.024 0.148,0 0.226,0.098 0.226,0.223 0,0.176 -0.125,0.176 -0.301,0.176 -0.648,0 -0.671,0.097 -0.695,0.347 l -0.996,6.871 c -0.027,0.223 -0.051,0.297 -0.25,0.297 -0.223,0 -0.273,-0.097 -0.375,-0.25 l -4.082,-6.32 z m 1.469,1.594 2.316,3.633 0.524,-3.633 -2.84,0 z"
           inkscape:connector-curvature="0" /><path
           id="path138"
           style="fill:#000000;fill-opacity:1;fill-rule:nonzero;stroke:none"
           d="m 68.523,92.664 c 0.25,0 0.551,0 0.551,0.297 0,0.325 -0.301,0.325 -0.523,0.325 l -9.508,0 c -0.227,0 -0.523,0 -0.523,-0.325 0,-0.297 0.296,-0.297 0.523,-0.297 l 9.48,0 z m 0.028,-3.085 c 0.222,0 0.523,0 0.523,0.32 0,0.301 -0.301,0.301 -0.551,0.301 l -9.48,0 c -0.227,0 -0.523,0 -0.523,-0.301 0,-0.32 0.296,-0.32 0.523,-0.32 l 9.508,0 z"
           inkscape:connector-curvature="0" /><path
           id="path140"
           style="fill:#000000;fill-opacity:1;fill-rule:nonzero;stroke:none"
           d="m 81.945,97.145 c 0.125,0.172 0.125,0.199 0.125,0.547 l -3.859,0 c -1.914,0 -1.965,0.199 -2.016,0.496 l -0.398,0 -0.52,-3.258 0.395,0 c 0.051,0.246 0.176,1.242 0.398,1.442 0.102,0.101 1.348,0.101 1.547,0.101 l 3.285,0 c -0.175,-0.25 -1.422,-1.992 -1.769,-2.516 -1.442,-2.14 -1.965,-4.355 -1.965,-5.972 0,-0.153 0,-0.871 0.746,-0.871 0.723,0 0.723,0.718 0.723,0.871 l 0,0.82 c 0,0.871 0.051,1.742 0.172,2.59 0.074,0.371 0.273,1.742 0.996,2.711 l 2.14,3.039 z"
           inkscape:connector-curvature="0" /><path
           id="path142"
           style="fill:#000000;fill-opacity:1;fill-rule:nonzero;stroke:none"
           d="m 89.609,92.539 c 0,1.27 -0.074,2.54 -0.625,3.708 -0.718,1.542 -2.039,1.792 -2.687,1.792 -0.969,0 -2.113,-0.421 -2.789,-1.89 -0.496,-1.098 -0.57,-2.34 -0.57,-3.61 0,-1.195 0.05,-2.613 0.722,-3.835 0.672,-1.266 1.84,-1.59 2.613,-1.59 0.844,0 2.067,0.324 2.762,1.84 0.5,1.097 0.574,2.339 0.574,3.585 z m -3.336,-5.078 c -0.625,0 -1.57,0.399 -1.843,1.918 -0.172,0.946 -0.172,2.414 -0.172,3.36 0,1.019 0,2.066 0.125,2.91 0.297,1.894 1.492,2.043 1.89,2.043 0.524,0 1.567,-0.301 1.868,-1.867 0.171,-0.895 0.171,-2.09 0.171,-3.086 0,-1.196 0,-2.266 -0.171,-3.285 -0.25,-1.52 -1.145,-1.993 -1.868,-1.993 z"
           inkscape:connector-curvature="0" /><path
           id="path144"
           style="fill:#000000;fill-opacity:1;fill-rule:nonzero;stroke:none"
           d="m 97.543,92.539 c 0,1.27 -0.074,2.54 -0.621,3.708 -0.723,1.542 -2.043,1.792 -2.688,1.792 -0.972,0 -2.117,-0.421 -2.789,-1.89 -0.496,-1.098 -0.574,-2.34 -0.574,-3.61 0,-1.195 0.051,-2.613 0.723,-3.835 0.672,-1.266 1.844,-1.59 2.613,-1.59 0.848,0 2.066,0.324 2.766,1.84 0.496,1.097 0.57,2.339 0.57,3.585 z m -3.336,-5.078 c -0.621,0 -1.566,0.399 -1.84,1.918 -0.176,0.946 -0.176,2.414 -0.176,3.36 0,1.019 0,2.066 0.125,2.91 0.297,1.894 1.493,2.043 1.891,2.043 0.523,0 1.57,-0.301 1.867,-1.867 0.176,-0.895 0.176,-2.09 0.176,-3.086 0,-1.196 0,-2.266 -0.176,-3.285 -0.25,-1.52 -1.144,-1.993 -1.867,-1.993 z"
           inkscape:connector-curvature="0" /><path
           id="path146"
           style="fill:#000000;fill-opacity:1;fill-rule:nonzero;stroke:none"
           d="m 107.082,92.489 2.688,0 c 1.89,0 3.609,1.269 3.609,2.863 0,1.566 -1.57,2.961 -3.734,2.961 l -5.625,0 0,-0.496 0.398,0 c 1.219,0 1.242,-0.176 1.242,-0.746 l 0,-8.367 c 0,-0.571 -0.023,-0.747 -1.242,-0.747 l -0.398,0 0,-0.496 c 0.57,0.051 1.742,0.051 2.339,0.051 0.598,0 1.793,0 2.364,-0.051 l 0,0.496 -0.399,0 c -1.219,0 -1.242,0.176 -1.242,0.747 l 0,3.785 z m -0.051,0.398 0,4.281 c 0,0.547 0.024,0.649 0.77,0.649 l 1.422,0 c 2.511,0 2.511,-1.695 2.511,-2.465 0,-0.746 0,-2.465 -2.511,-2.465 l -2.192,0 z"
           inkscape:connector-curvature="0" /><path
           id="path148"
           style="fill:#000000;fill-opacity:1;fill-rule:nonzero;stroke:none"
           d="m 117.809,90.2 c -1.395,0 -1.395,1.593 -1.395,1.941 0,0.422 0.024,0.945 0.25,1.344 0.121,0.176 0.496,0.621 1.145,0.621 1.367,0 1.367,-1.567 1.367,-1.942 0,-0.421 0,-0.945 -0.25,-1.343 -0.121,-0.172 -0.496,-0.621 -1.117,-0.621 z m -1.844,-0.621 c 0,0.046 0,0.421 0.25,0.746 0.621,-0.45 1.293,-0.5 1.594,-0.5 1.468,0 2.562,1.097 2.562,2.316 0,0.598 -0.25,1.168 -0.648,1.543 0.574,0.547 1.144,0.621 1.422,0.621 0.046,0 0.121,0 0.171,-0.023 -0.171,-0.051 -0.273,-0.223 -0.273,-0.422 0,-0.278 0.223,-0.449 0.473,-0.449 0.148,0 0.449,0.097 0.449,0.472 0,0.274 -0.176,0.77 -0.797,0.77 -0.324,0 -1.02,-0.098 -1.691,-0.746 -0.672,0.523 -1.321,0.574 -1.668,0.574 -1.497,0 -2.59,-1.098 -2.59,-2.317 0,-0.695 0.347,-1.292 0.746,-1.64 -0.199,-0.227 -0.496,-0.75 -0.496,-1.32 0,-0.5 0.222,-1.094 0.719,-1.418 -0.969,-0.25 -1.465,-0.946 -1.465,-1.571 0,-1.144 1.566,-2.015 3.507,-2.015 1.868,0 3.508,0.797 3.508,2.043 0,0.546 -0.195,1.367 -1.019,1.816 -0.844,0.422 -1.766,0.422 -2.739,0.422 -0.398,0 -1.07,0 -1.195,0.027 -0.496,0.074 -0.82,0.547 -0.82,1.071 z m 2.289,-5.032 c -1.617,0 -2.711,0.825 -2.711,1.668 0,0.723 0.598,1.321 1.293,1.344 l 0.945,0 c 1.371,0 3.137,0 3.137,-1.344 0,-0.871 -1.121,-1.668 -2.664,-1.668 z"
           inkscape:connector-curvature="0" /><path
           id="path150"
           style="fill:#000000;fill-opacity:1;fill-rule:nonzero;stroke:none"
           d="m 123.105,92.887 c 0,-3.285 2.563,-5.773 5.524,-5.773 2.59,0 4.133,2.215 4.133,4.054 0,0.153 0,0.274 -0.2,0.274 -0.171,0 -0.171,-0.098 -0.199,-0.274 -0.125,-2.265 -1.816,-3.558 -3.558,-3.558 -0.973,0 -4.082,0.523 -4.082,5.277 0,4.731 3.109,5.277 4.082,5.277 1.718,0 3.136,-1.445 3.461,-3.757 0.023,-0.227 0.023,-0.274 0.246,-0.274 0.25,0 0.25,0.047 0.25,0.371 l 0,3.758 c 0,0.277 0,0.399 -0.172,0.399 -0.051,0 -0.125,0 -0.25,-0.2 l -0.797,-1.168 c -0.574,0.571 -1.395,1.368 -2.914,1.368 -2.984,0 -5.524,-2.539 -5.524,-5.774 z"
           inkscape:connector-curvature="0" /></g><g
         id="g4022"><path
           id="path156"
           style="fill:#000000;fill-opacity:1;fill-rule:nonzero;stroke:none"
           d="m 119.809,260.957 c 0,0.051 -0.028,0.172 -0.176,0.172 -0.051,0 -0.074,-0.023 -0.25,-0.199 l -1.094,-1.219 c -0.148,0.227 -0.871,1.418 -2.641,1.418 -3.558,0 -7.117,-3.507 -7.117,-7.191 0,-2.613 1.867,-4.356 4.305,-4.356 1.371,0 2.59,0.622 3.437,1.368 1.469,1.297 1.743,2.738 1.743,2.789 0,0.175 -0.176,0.175 -0.2,0.175 -0.101,0 -0.175,-0.05 -0.199,-0.175 -0.148,-0.45 -0.523,-1.594 -1.617,-2.516 -1.098,-0.871 -2.094,-1.144 -2.914,-1.144 -1.418,0 -3.113,0.82 -3.113,3.285 0,0.922 0.324,3.484 1.918,5.351 0.972,1.121 2.464,1.918 3.882,1.918 1.618,0 2.567,-1.219 2.567,-3.062 0,-0.645 -0.051,-0.645 -0.051,-0.821 0,-0.148 0.172,-0.148 0.223,-0.148 0.199,0 0.199,0.023 0.3,0.324 l 0.997,4.031 z" /><path
           id="path158"
           style="fill:#000000;fill-opacity:1;fill-rule:nonzero;stroke:none"
           d="m 123.797,258.454 c 0.922,0.398 1.32,0.546 1.594,0.695 0.222,0.074 0.324,0.125 0.324,0.348 0,0.175 -0.153,0.347 -0.348,0.347 -0.078,0 -0.101,0 -0.226,-0.097 l -1.52,-1.02 0.176,1.641 c 0.023,0.199 0,0.472 -0.348,0.472 -0.125,0 -0.347,-0.074 -0.347,-0.324 0,-0.098 0.046,-0.422 0.074,-0.547 0.023,-0.172 0.097,-0.996 0.125,-1.242 l -1.52,1.02 c -0.101,0.05 -0.125,0.097 -0.222,0.097 -0.227,0 -0.352,-0.172 -0.352,-0.347 0,-0.223 0.125,-0.297 0.227,-0.325 l 1.668,-0.718 c -0.899,-0.399 -1.321,-0.551 -1.594,-0.676 -0.199,-0.098 -0.301,-0.149 -0.301,-0.348 0,-0.199 0.125,-0.348 0.352,-0.348 0.074,0 0.097,0 0.222,0.102 l 1.52,0.992 -0.199,-1.765 c 0,-0.25 0.222,-0.348 0.347,-0.348 0.149,0 0.348,0.098 0.348,0.348 0,0.101 -0.051,0.421 -0.051,0.523 -0.023,0.199 -0.098,0.996 -0.125,1.242 l 1.32,-0.871 c 0.301,-0.223 0.325,-0.223 0.426,-0.223 0.195,0 0.348,0.149 0.348,0.348 0,0.227 -0.153,0.274 -0.25,0.324 l -1.668,0.7 z" /><path
           id="path160"
           style="fill:#000000;fill-opacity:1;fill-rule:nonzero;stroke:none"
           d="m 124.48,252.278 c 0.075,0.324 0.098,0.351 0.348,0.375 l 0.649,0 c 0.695,0 0.968,0 1.242,-0.074 0.5,-0.149 0.523,-0.473 0.523,-0.872 0,-0.175 0,-0.324 -0.074,-0.898 l -0.023,-0.121 c 0,-0.125 0.074,-0.176 0.199,-0.176 0.172,0 0.172,0.098 0.199,0.274 l 0.297,2.117 c 0,0.148 -0.125,0.148 -0.324,0.148 l -6.821,0 c -0.273,0 -0.297,0 -0.371,-0.222 l -0.722,-1.969 c 0,-0.051 -0.051,-0.149 -0.051,-0.199 0,-0.051 0.027,-0.149 0.199,-0.149 0.148,0 0.148,0.051 0.223,0.274 0.648,1.765 1.023,1.867 2.715,1.867 l 0.449,0 c 0.347,0 0.347,0 0.347,-0.102 0,0 0,-0.074 -0.05,-0.222 l -1.469,-5.848 c -0.098,-0.399 -0.125,-0.524 -1.293,-0.524 -0.399,0 -0.5,0 -0.5,-0.25 0,-0.023 0.027,-0.148 0.199,-0.148 0.301,0 0.649,0.023 0.949,0.023 0.321,0 0.645,0.028 0.946,0.028 0.324,0 0.695,0 1.019,-0.028 0.297,0 0.621,-0.023 0.922,-0.023 0.098,0 0.246,0 0.246,0.25 0,0.148 -0.098,0.148 -0.445,0.148 -0.199,0 -0.426,0.024 -0.649,0.024 -0.371,0.027 -0.398,0.074 -0.398,0.199 0,0.102 0,0.102 0.051,0.274 l 1.468,5.824 z" /><path
           id="path162"
           style="fill:#000000;fill-opacity:1;fill-rule:nonzero;stroke:none"
           d="m 144.387,255.133 c 0.25,0 0.547,0 0.547,0.297 0,0.324 -0.297,0.324 -0.524,0.324 l -9.508,0 c -0.222,0 -0.523,0 -0.523,-0.324 0,-0.297 0.301,-0.297 0.523,-0.297 l 9.485,0 z m 0.023,-3.086 c 0.227,0 0.524,0 0.524,0.321 0,0.3 -0.297,0.3 -0.547,0.3 l -9.485,0 c -0.222,0 -0.523,0 -0.523,-0.3 0,-0.321 0.301,-0.321 0.523,-0.321 l 9.508,0 z" /><path
           id="path164"
           style="fill:#000000;fill-opacity:1;fill-rule:nonzero;stroke:none"
           d="m 154.848,255.532 c 1.293,0.422 2.214,1.515 2.214,2.785 0,1.297 -1.394,2.191 -2.914,2.191 -1.593,0 -2.812,-0.945 -2.812,-2.164 0,-0.523 0.348,-0.824 0.82,-0.824 0.473,0 0.797,0.352 0.797,0.824 0,0.77 -0.746,0.77 -0.969,0.77 0.473,0.797 1.52,0.996 2.09,0.996 0.672,0 1.543,-0.348 1.543,-1.766 0,-0.199 -0.051,-1.121 -0.449,-1.816 -0.473,-0.774 -1.02,-0.824 -1.418,-0.824 -0.125,-0.024 -0.496,-0.047 -0.621,-0.047 -0.125,-0.028 -0.223,-0.051 -0.223,-0.2 0,-0.175 0.098,-0.175 0.371,-0.175 l 0.7,0 c 1.293,0 1.89,-1.071 1.89,-2.637 0,-2.168 -1.097,-2.617 -1.793,-2.617 -0.695,0 -1.89,0.277 -2.437,1.195 0.547,-0.074 1.043,0.274 1.043,0.871 0,0.574 -0.422,0.899 -0.871,0.899 -0.399,0 -0.895,-0.227 -0.895,-0.922 0,-1.446 1.469,-2.489 3.211,-2.489 1.941,0 3.383,1.442 3.383,3.063 0,1.293 -1.02,2.535 -2.66,2.887 z" /><path
           id="path166"
           style="fill:#000000;fill-opacity:1;fill-rule:nonzero;stroke:none"
           d="m 165.469,255.008 c 0,1.27 -0.074,2.539 -0.621,3.707 -0.723,1.543 -2.043,1.793 -2.688,1.793 -0.972,0 -2.117,-0.422 -2.789,-1.89 -0.496,-1.098 -0.57,-2.34 -0.57,-3.61 0,-1.195 0.047,-2.613 0.719,-3.832 0.671,-1.269 1.843,-1.594 2.613,-1.594 0.847,0 2.066,0.325 2.765,1.84 0.497,1.098 0.571,2.34 0.571,3.586 z m -3.336,-5.078 c -0.621,0 -1.567,0.399 -1.84,1.918 -0.176,0.945 -0.176,2.414 -0.176,3.359 0,1.02 0,2.067 0.125,2.911 0.301,1.894 1.492,2.043 1.891,2.043 0.523,0 1.57,-0.301 1.867,-1.868 0.176,-0.894 0.176,-2.089 0.176,-3.086 0,-1.195 0,-2.265 -0.176,-3.285 -0.246,-1.519 -1.145,-1.992 -1.867,-1.992 z" /><path
           id="path168"
           style="fill:#000000;fill-opacity:1;fill-rule:nonzero;stroke:none"
           d="m 173.406,255.008 c 0,1.27 -0.074,2.539 -0.625,3.707 -0.719,1.543 -2.039,1.793 -2.687,1.793 -0.969,0 -2.114,-0.422 -2.785,-1.89 -0.5,-1.098 -0.575,-2.34 -0.575,-3.61 0,-1.195 0.051,-2.613 0.723,-3.832 0.672,-1.269 1.84,-1.594 2.613,-1.594 0.848,0 2.067,0.325 2.762,1.84 0.5,1.098 0.574,2.34 0.574,3.586 z m -3.336,-5.078 c -0.621,0 -1.57,0.399 -1.843,1.918 -0.172,0.945 -0.172,2.414 -0.172,3.359 0,1.02 0,2.067 0.125,2.911 0.297,1.894 1.492,2.043 1.89,2.043 0.524,0 1.567,-0.301 1.868,-1.868 0.171,-0.894 0.171,-2.089 0.171,-3.086 0,-1.195 0,-2.265 -0.171,-3.285 -0.25,-1.519 -1.145,-1.992 -1.868,-1.992 z" /><path
           id="path170"
           style="fill:#000000;fill-opacity:1;fill-rule:nonzero;stroke:none"
           d="m 181.34,255.008 c 0,1.27 -0.074,2.539 -0.621,3.707 -0.723,1.543 -2.043,1.793 -2.688,1.793 -0.972,0 -2.117,-0.422 -2.789,-1.89 -0.496,-1.098 -0.57,-2.34 -0.57,-3.61 0,-1.195 0.047,-2.613 0.719,-3.832 0.671,-1.269 1.843,-1.594 2.613,-1.594 0.848,0 2.066,0.325 2.766,1.84 0.496,1.098 0.57,2.34 0.57,3.586 z m -3.336,-5.078 c -0.621,0 -1.566,0.399 -1.84,1.918 -0.176,0.945 -0.176,2.414 -0.176,3.359 0,1.02 0,2.067 0.125,2.911 0.301,1.894 1.492,2.043 1.891,2.043 0.523,0 1.57,-0.301 1.867,-1.868 0.176,-0.894 0.176,-2.089 0.176,-3.086 0,-1.195 0,-2.265 -0.176,-3.285 -0.246,-1.519 -1.144,-1.992 -1.867,-1.992 z" /><path
           id="path172"
           style="fill:#000000;fill-opacity:1;fill-rule:nonzero;stroke:none"
           d="m 190.879,254.957 2.687,0 c 1.891,0 3.61,1.27 3.61,2.864 0,1.566 -1.571,2.961 -3.735,2.961 l -5.625,0 0,-0.496 0.399,0 c 1.219,0 1.242,-0.176 1.242,-0.747 l 0,-8.363 c 0,-0.574 -0.023,-0.75 -1.242,-0.75 l -0.399,0 0,-0.496 c 0.571,0.051 1.743,0.051 2.34,0.051 0.598,0 1.793,0 2.364,-0.051 l 0,0.496 -0.399,0 c -1.219,0 -1.242,0.176 -1.242,0.75 l 0,3.781 z m -0.051,0.399 0,4.281 c 0,0.547 0.024,0.649 0.77,0.649 l 1.422,0 c 2.511,0 2.511,-1.696 2.511,-2.465 0,-0.746 0,-2.465 -2.511,-2.465 l -2.192,0 z" /><path
           id="path174"
           style="fill:#000000;fill-opacity:1;fill-rule:nonzero;stroke:none"
           d="m 201.605,252.668 c -1.394,0 -1.394,1.594 -1.394,1.942 0,0.422 0.023,0.945 0.25,1.344 0.125,0.175 0.496,0.621 1.144,0.621 1.368,0 1.368,-1.567 1.368,-1.942 0,-0.422 0,-0.945 -0.246,-1.344 -0.125,-0.171 -0.5,-0.621 -1.122,-0.621 z m -1.843,-0.621 c 0,0.047 0,0.422 0.25,0.746 0.621,-0.449 1.293,-0.5 1.593,-0.5 1.469,0 2.563,1.098 2.563,2.317 0,0.597 -0.25,1.168 -0.648,1.543 0.574,0.547 1.148,0.621 1.421,0.621 0.047,0 0.125,0 0.172,-0.024 -0.172,-0.05 -0.273,-0.222 -0.273,-0.421 0,-0.274 0.226,-0.45 0.472,-0.45 0.149,0 0.45,0.098 0.45,0.473 0,0.273 -0.176,0.773 -0.797,0.773 -0.324,0 -1.02,-0.101 -1.692,-0.75 -0.671,0.524 -1.32,0.575 -1.668,0.575 -1.496,0 -2.589,-1.094 -2.589,-2.317 0,-0.695 0.347,-1.293 0.746,-1.64 -0.2,-0.227 -0.496,-0.746 -0.496,-1.321 0,-0.496 0.222,-1.093 0.722,-1.418 -0.972,-0.25 -1.468,-0.945 -1.468,-1.57 0,-1.145 1.566,-2.016 3.507,-2.016 1.868,0 3.512,0.797 3.512,2.043 0,0.547 -0.199,1.368 -1.023,1.817 -0.844,0.422 -1.766,0.422 -2.739,0.422 -0.398,0 -1.07,0 -1.191,0.027 -0.5,0.074 -0.824,0.547 -0.824,1.07 z m 2.289,-5.031 c -1.617,0 -2.711,0.824 -2.711,1.668 0,0.723 0.598,1.32 1.293,1.344 l 0.945,0 c 1.371,0 3.137,0 3.137,-1.344 0,-0.871 -1.117,-1.668 -2.664,-1.668 z" /><path
           id="path176"
           style="fill:#000000;fill-opacity:1;fill-rule:nonzero;stroke:none"
           d="m 206.902,255.356 c 0,-3.285 2.563,-5.774 5.524,-5.774 2.59,0 4.133,2.215 4.133,4.055 0,0.152 0,0.277 -0.2,0.277 -0.171,0 -0.171,-0.101 -0.199,-0.277 -0.125,-2.262 -1.816,-3.558 -3.558,-3.558 -0.969,0 -4.082,0.523 -4.082,5.277 0,4.73 3.113,5.277 4.082,5.277 1.718,0 3.136,-1.445 3.46,-3.758 0.024,-0.226 0.024,-0.273 0.25,-0.273 0.247,0 0.247,0.047 0.247,0.371 l 0,3.762 c 0,0.273 0,0.394 -0.172,0.394 -0.051,0 -0.125,0 -0.25,-0.199 l -0.797,-1.168 c -0.574,0.574 -1.395,1.367 -2.914,1.367 -2.985,0 -5.524,-2.539 -5.524,-5.773 z" /></g><g
         id="g4009"
         transform="translate(0.002,-9.6)"><path
           id="path182"
           style="fill:#000000;fill-opacity:1;fill-rule:nonzero;stroke:none"
           d="m 200.207,116.168 c 0,0.051 -0.023,0.176 -0.172,0.176 -0.051,0 -0.074,-0.023 -0.25,-0.199 l -1.094,-1.219 c -0.148,0.223 -0.871,1.418 -2.64,1.418 -3.559,0 -7.117,-3.508 -7.117,-7.195 0,-2.613 1.867,-4.356 4.304,-4.356 1.371,0 2.59,0.625 3.438,1.371 1.469,1.293 1.742,2.739 1.742,2.786 0,0.175 -0.176,0.175 -0.199,0.175 -0.102,0 -0.176,-0.05 -0.199,-0.175 -0.149,-0.446 -0.524,-1.59 -1.618,-2.512 -1.097,-0.871 -2.093,-1.145 -2.914,-1.145 -1.418,0 -3.113,0.821 -3.113,3.286 0,0.921 0.324,3.484 1.918,5.351 0.973,1.121 2.465,1.918 3.883,1.918 1.617,0 2.566,-1.223 2.566,-3.062 0,-0.649 -0.051,-0.649 -0.051,-0.825 0,-0.148 0.172,-0.148 0.223,-0.148 0.199,0 0.199,0.027 0.301,0.324 l 0.992,4.031 z"
           inkscape:connector-curvature="0" /><path
           id="path184"
           style="fill:#000000;fill-opacity:1;fill-rule:nonzero;stroke:none"
           d="m 204.199,113.664 c 0.922,0.399 1.321,0.547 1.594,0.7 0.223,0.074 0.324,0.121 0.324,0.347 0,0.172 -0.152,0.348 -0.351,0.348 -0.075,0 -0.098,0 -0.223,-0.102 l -1.52,-1.019 0.176,1.644 c 0.024,0.2 0,0.473 -0.347,0.473 -0.125,0 -0.348,-0.074 -0.348,-0.324 0,-0.102 0.047,-0.422 0.074,-0.547 0.024,-0.176 0.098,-0.996 0.125,-1.246 l -1.519,1.019 c -0.102,0.051 -0.125,0.102 -0.223,0.102 -0.227,0 -0.352,-0.176 -0.352,-0.348 0,-0.226 0.125,-0.3 0.227,-0.324 l 1.668,-0.723 c -0.899,-0.398 -1.32,-0.546 -1.594,-0.671 -0.199,-0.098 -0.301,-0.149 -0.301,-0.348 0,-0.199 0.125,-0.348 0.352,-0.348 0.074,0 0.098,0 0.223,0.098 l 1.519,0.996 -0.199,-1.766 c 0,-0.25 0.223,-0.351 0.348,-0.351 0.148,0 0.347,0.101 0.347,0.351 0,0.098 -0.051,0.422 -0.051,0.52 -0.023,0.199 -0.097,0.996 -0.125,1.246 l 1.321,-0.871 c 0.301,-0.223 0.324,-0.223 0.422,-0.223 0.199,0 0.351,0.149 0.351,0.348 0,0.223 -0.152,0.273 -0.25,0.324 l -1.668,0.695 z"
           inkscape:connector-curvature="0" /><path
           id="path186"
           style="fill:#000000;fill-opacity:1;fill-rule:nonzero;stroke:none"
           d="m 207.371,108.438 c 0,0.051 -0.051,0.148 -0.148,0.148 -0.075,0 -0.075,-0.023 -0.227,-0.172 l -0.547,-0.625 c -0.422,0.598 -1.117,0.797 -1.793,0.797 -1.566,0 -2.961,-1.269 -2.961,-2.562 0,-0.149 0.051,-0.598 0.375,-1.02 0.371,-0.425 0.797,-0.523 1.543,-0.722 0.223,-0.051 0.77,-0.176 0.946,-0.223 0.347,-0.078 1.019,-0.324 1.019,-1.148 0,-0.895 -0.945,-1.965 -2.187,-1.965 -0.996,0 -2.168,0.347 -2.168,1.566 0,0.125 0.023,0.375 0.074,0.574 l 0,0.051 c 0,0.149 -0.125,0.149 -0.172,0.149 -0.152,0 -0.176,-0.024 -0.199,-0.223 l -0.574,-2.215 c -0.024,-0.051 -0.051,-0.101 -0.051,-0.176 0,-0.05 0.051,-0.125 0.176,-0.125 0.05,0 0.074,0.024 0.222,0.149 0.125,0.152 0.399,0.5 0.524,0.625 0.597,-0.649 1.445,-0.774 2.117,-0.774 1.691,0 3.035,1.446 3.035,2.762 0,0.473 -0.199,0.922 -0.449,1.172 -0.371,0.398 -0.547,0.449 -1.988,0.797 -0.227,0.051 -0.598,0.125 -0.7,0.172 -0.273,0.101 -0.746,0.375 -0.746,0.996 0,0.898 0.996,1.769 2.141,1.769 1.219,0 1.793,-0.672 1.793,-1.718 0,-0.149 -0.051,-0.399 -0.051,-0.497 0,-0.175 0.125,-0.175 0.199,-0.175 0.149,0 0.176,0.074 0.199,0.25 l 0.598,2.363 z"
           inkscape:connector-curvature="0" /><path
           id="path188"
           style="fill:#000000;fill-opacity:1;fill-rule:nonzero;stroke:none"
           d="m 223.984,110.344 c 0.25,0 0.547,0 0.547,0.301 0,0.324 -0.297,0.324 -0.523,0.324 l -9.508,0 c -0.223,0 -0.523,0 -0.523,-0.324 0,-0.301 0.3,-0.301 0.523,-0.301 l 9.484,0 z m 0.024,-3.086 c 0.226,0 0.523,0 0.523,0.324 0,0.297 -0.297,0.297 -0.547,0.297 l -9.484,0 c -0.223,0 -0.523,0 -0.523,-0.297 0,-0.324 0.3,-0.324 0.523,-0.324 l 9.508,0 z"
           inkscape:connector-curvature="0" /><path
           id="path190"
           style="fill:#000000;fill-opacity:1;fill-rule:nonzero;stroke:none"
           d="m 234.52,115.297 c 0,0.399 0,0.426 -0.375,0.426 -0.997,-1.023 -2.391,-1.023 -2.887,-1.023 l 0,-0.496 c 0.324,0 1.246,0 2.066,0.421 l 0,-8.238 c 0,-0.57 -0.051,-0.746 -1.469,-0.746 l -0.5,0 0,-0.5 c 0.551,0.051 1.918,0.051 2.567,0.051 0.621,0 2.016,0 2.562,-0.051 l 0,0.5 -0.496,0 c -1.445,0 -1.468,0.176 -1.468,0.746 l 0,8.91 z"
           inkscape:connector-curvature="0" /><path
           id="path192"
           style="fill:#000000;fill-opacity:1;fill-rule:nonzero;stroke:none"
           d="m 245.066,110.219 c 0,1.27 -0.074,2.539 -0.621,3.711 -0.722,1.543 -2.043,1.793 -2.687,1.793 -0.973,0 -2.117,-0.426 -2.789,-1.894 -0.496,-1.094 -0.571,-2.34 -0.571,-3.61 0,-1.191 0.047,-2.613 0.719,-3.832 0.672,-1.269 1.844,-1.594 2.613,-1.594 0.848,0 2.067,0.325 2.766,1.844 0.496,1.094 0.57,2.34 0.57,3.582 z m -3.336,-5.078 c -0.621,0 -1.566,0.398 -1.839,1.918 -0.176,0.945 -0.176,2.414 -0.176,3.359 0,1.024 0,2.067 0.125,2.914 0.301,1.891 1.492,2.04 1.89,2.04 0.524,0 1.571,-0.297 1.868,-1.864 0.175,-0.898 0.175,-2.094 0.175,-3.09 0,-1.191 0,-2.261 -0.175,-3.285 -0.246,-1.515 -1.145,-1.992 -1.868,-1.992 z"
           inkscape:connector-curvature="0" /><path
           id="path194"
           style="fill:#000000;fill-opacity:1;fill-rule:nonzero;stroke:none"
           d="m 253.004,110.219 c 0,1.27 -0.074,2.539 -0.621,3.711 -0.723,1.543 -2.043,1.793 -2.692,1.793 -0.968,0 -2.113,-0.426 -2.785,-1.894 -0.5,-1.094 -0.574,-2.34 -0.574,-3.61 0,-1.191 0.051,-2.613 0.723,-3.832 0.672,-1.269 1.84,-1.594 2.613,-1.594 0.848,0 2.066,0.325 2.762,1.844 0.5,1.094 0.574,2.34 0.574,3.582 z m -3.336,-5.078 c -0.621,0 -1.57,0.398 -1.844,1.918 -0.172,0.945 -0.172,2.414 -0.172,3.359 0,1.024 0,2.067 0.125,2.914 0.297,1.891 1.493,2.04 1.891,2.04 0.523,0 1.566,-0.297 1.867,-1.864 0.172,-0.898 0.172,-2.094 0.172,-3.09 0,-1.191 0,-2.261 -0.172,-3.285 -0.25,-1.515 -1.144,-1.992 -1.867,-1.992 z"
           inkscape:connector-curvature="0" /><path
           id="path196"
           style="fill:#000000;fill-opacity:1;fill-rule:nonzero;stroke:none"
           d="m 260.938,110.219 c 0,1.27 -0.075,2.539 -0.622,3.711 -0.722,1.543 -2.043,1.793 -2.687,1.793 -0.973,0 -2.117,-0.426 -2.789,-1.894 -0.496,-1.094 -0.57,-2.34 -0.57,-3.61 0,-1.191 0.046,-2.613 0.718,-3.832 0.672,-1.269 1.844,-1.594 2.614,-1.594 0.847,0 2.066,0.325 2.765,1.844 0.496,1.094 0.571,2.34 0.571,3.582 z m -3.336,-5.078 c -0.622,0 -1.567,0.398 -1.84,1.918 -0.176,0.945 -0.176,2.414 -0.176,3.359 0,1.024 0,2.067 0.125,2.914 0.301,1.891 1.492,2.04 1.891,2.04 0.523,0 1.57,-0.297 1.867,-1.864 0.176,-0.898 0.176,-2.094 0.176,-3.09 0,-1.191 0,-2.261 -0.176,-3.285 -0.246,-1.515 -1.145,-1.992 -1.867,-1.992 z"
           inkscape:connector-curvature="0" /><path
           id="path198"
           style="fill:#000000;fill-opacity:1;fill-rule:nonzero;stroke:none"
           d="m 270.477,110.172 2.687,0 c 1.891,0 3.609,1.27 3.609,2.86 0,1.57 -1.57,2.965 -3.734,2.965 l -5.625,0 0,-0.5 0.398,0 c 1.219,0 1.243,-0.172 1.243,-0.747 l 0,-8.363 c 0,-0.57 -0.024,-0.746 -1.243,-0.746 l -0.398,0 0,-0.5 c 0.57,0.051 1.742,0.051 2.34,0.051 0.598,0 1.793,0 2.363,-0.051 l 0,0.5 -0.398,0 c -1.219,0 -1.242,0.176 -1.242,0.746 l 0,3.785 z m -0.051,0.399 0,4.281 c 0,0.547 0.023,0.645 0.769,0.645 l 1.422,0 c 2.512,0 2.512,-1.692 2.512,-2.465 0,-0.746 0,-2.461 -2.512,-2.461 l -2.191,0 z"
           inkscape:connector-curvature="0" /><path
           id="path200"
           style="fill:#000000;fill-opacity:1;fill-rule:nonzero;stroke:none"
           d="m 281.203,107.879 c -1.394,0 -1.394,1.594 -1.394,1.942 0,0.426 0.023,0.949 0.25,1.347 0.125,0.172 0.496,0.621 1.144,0.621 1.367,0 1.367,-1.57 1.367,-1.941 0,-0.422 0,-0.945 -0.246,-1.344 -0.125,-0.175 -0.5,-0.625 -1.121,-0.625 z m -1.844,-0.621 c 0,0.051 0,0.422 0.25,0.746 0.621,-0.445 1.293,-0.496 1.594,-0.496 1.469,0 2.563,1.094 2.563,2.313 0,0.597 -0.25,1.172 -0.649,1.547 0.574,0.546 1.149,0.621 1.422,0.621 0.047,0 0.125,0 0.172,-0.028 -0.172,-0.047 -0.273,-0.222 -0.273,-0.422 0,-0.273 0.226,-0.449 0.472,-0.449 0.152,0 0.449,0.102 0.449,0.477 0,0.273 -0.175,0.769 -0.797,0.769 -0.324,0 -1.019,-0.097 -1.691,-0.746 -0.672,0.524 -1.32,0.571 -1.668,0.571 -1.496,0 -2.59,-1.094 -2.59,-2.313 0,-0.699 0.348,-1.297 0.746,-1.644 -0.199,-0.223 -0.496,-0.747 -0.496,-1.317 0,-0.5 0.223,-1.098 0.723,-1.422 -0.973,-0.246 -1.469,-0.945 -1.469,-1.566 0,-1.145 1.567,-2.016 3.508,-2.016 1.867,0 3.512,0.797 3.512,2.039 0,0.547 -0.199,1.371 -1.024,1.817 -0.843,0.425 -1.765,0.425 -2.738,0.425 -0.398,0 -1.07,0 -1.191,0.024 -0.5,0.074 -0.825,0.547 -0.825,1.07 z m 2.293,-5.027 c -1.621,0 -2.714,0.82 -2.714,1.668 0,0.723 0.597,1.32 1.292,1.344 l 0.946,0 c 1.371,0 3.136,0 3.136,-1.344 0,-0.871 -1.117,-1.668 -2.66,-1.668 z"
           inkscape:connector-curvature="0" /><path
           id="path202"
           style="fill:#000000;fill-opacity:1;fill-rule:nonzero;stroke:none"
           d="m 286.5,110.571 c 0,-3.289 2.562,-5.778 5.523,-5.778 2.59,0 4.133,2.215 4.133,4.059 0,0.148 0,0.273 -0.199,0.273 -0.172,0 -0.172,-0.097 -0.199,-0.273 -0.125,-2.266 -1.817,-3.559 -3.559,-3.559 -0.969,0 -4.082,0.524 -4.082,5.278 0,4.726 3.113,5.277 4.082,5.277 1.719,0 3.137,-1.445 3.461,-3.762 0.024,-0.222 0.024,-0.273 0.25,-0.273 0.246,0 0.246,0.051 0.246,0.375 l 0,3.758 c 0,0.273 0,0.398 -0.172,0.398 -0.05,0 -0.125,0 -0.25,-0.199 l -0.796,-1.168 c -0.575,0.57 -1.395,1.367 -2.915,1.367 -2.984,0 -5.523,-2.539 -5.523,-5.773 z"
           inkscape:connector-curvature="0" /></g><g
         id="g204"
         transform="matrix(1,0,0,-1,0,368.30511)"
         style="stroke:#ff0000;stroke-opacity:1;stroke-width:1;stroke-miterlimit:4;stroke-dasharray:none;stroke-dashoffset:0"><path
           d="m 90.562,217.133 0,-40.895"
           style="fill:none;stroke:#ff0000;stroke-opacity:1;stroke-width:1;stroke-linecap:butt;stroke-linejoin:miter;stroke-miterlimit:4;stroke-dasharray:none;stroke-dashoffset:0"
           id="path206" /></g><path
         d="m 86.688,183.696 3.859,10.488 3.855,-10.488 c -2.277,1.676 -5.394,1.668 -7.714,0 z"
         style="fill:#000000;fill-opacity:1;fill-rule:evenodd;stroke:none"
         id="path208" /><g
         id="g210"
         transform="matrix(1,0,0,-1,0,368.30511)"
         style="fill:#ff0000;stroke:#ff0000;stroke-opacity:1;stroke-width:1;stroke-miterlimit:4;stroke-dasharray:none"><path
           d="m 74.562,174.922 0,40.894"
           style="fill:#ff0000;stroke:#ff0000;stroke-opacity:1;stroke-width:1;stroke-linecap:butt;stroke-linejoin:miter;stroke-miterlimit:4;stroke-dasharray:none;stroke-dashoffset:0"
           id="path212" /></g><path
         d="m 78.434,160.86 -3.86,-10.488 -3.855,10.488 c 2.277,-1.676 5.394,-1.664 7.715,0 z"
         style="fill:#000000;fill-opacity:1;fill-rule:evenodd;stroke:none"
         id="path214" /><g
         id="g4712"
         transform="matrix(0.8,0,0,-0.8,46.993328,401.55105)"><flowRoot
           xml:space="preserve"
           id="flowRoot4460"
           style="font-size:40px;font-style:normal;font-variant:normal;font-weight:normal;font-stretch:normal;line-height:125%;letter-spacing:0px;word-spacing:0px;fill:#000000;fill-opacity:1;stroke:none;font-family:Georgia;-inkscape-font-specification:Georgia"
           transform="translate(36.954521,2.5368628)"><flowRegion
             id="flowRegion4462"><rect
               id="rect4464"
               width="73.284271"
               height="66.640335"
               x="78.286819"
               y="91.202034" /></flowRegion><flowPara
             id="flowPara4466"
             style="font-style:italic;-inkscape-font-specification:Georgia Italic">TerTTerrestrial Biopshere</flowPara></flowRoot><flowRoot
           xml:space="preserve"
           id="flowRoot3280"
           style="font-size:24px;font-style:normal;font-variant:normal;font-weight:normal;font-stretch:normal;line-height:125%;letter-spacing:0px;word-spacing:0px;fill:#000000;fill-opacity:1;stroke:none;font-family:Georgia;-inkscape-font-specification:Georgia"
           transform="translate(-33.895801,59.653809)"><flowRegion
             id="flowRegion3282"><rect
               id="rect3284"
               width="272.85712"
               height="75.714294"
               x="67.14286"
               y="64.667122"
               style="font-size:24px;font-weight:normal;-inkscape-font-specification:Georgia" /></flowRegion><flowPara
             id="flowPara3286">Terrestrial biosphere</flowPara></flowRoot></g><g
         id="g4765"
         transform="matrix(0.8,0,0,-0.8,-64.44943,367.74335)"><flowRoot
           xml:space="preserve"
           id="flowRoot4460-5"
           style="font-size:24px;font-style:normal;font-variant:normal;font-weight:normal;font-stretch:normal;line-height:125%;letter-spacing:0px;word-spacing:0px;fill:#000000;fill-opacity:1;stroke:none;font-family:Georgia;-inkscape-font-specification:Georgia"
           transform="translate(41.134209,200.73212)"><flowRegion
             id="flowRegion4462-6"><rect
               id="rect4464-2"
               width="223.99857"
               height="65.926056"
               x="78.286819"
               y="91.202034"
               style="font-size:24px;font-style:normal;font-weight:normal;-inkscape-font-specification:Georgia" /></flowRegion><flowPara
             id="flowPara4466-9"
             style="font-size:24px;font-style:normal;font-weight:normal;-inkscape-font-specification:Georgia">Atmosphere</flowPara></flowRoot></g><g
         id="g6568"
         transform="matrix(0.8,0,0,-0.8,-82.923099,389.82886)"><flowRoot
           xml:space="preserve"
           id="flowRoot4460-5-1"
           style="font-size:24px;font-style:normal;font-variant:normal;font-weight:normal;font-stretch:normal;text-align:center;line-height:125%;letter-spacing:0px;word-spacing:0px;text-anchor:middle;fill:#000000;fill-opacity:1;stroke:none;font-family:Georgia;-inkscape-font-specification:Georgia"
           transform="translate(242.68528,182.50449)"><flowRegion
             id="flowRegion4462-6-2"><rect
               id="rect4464-2-7"
               width="171.14142"
               height="72.354622"
               x="78.286819"
               y="91.202034"
               style="font-size:24px;font-style:normal;font-weight:normal;text-align:center;text-anchor:middle;-inkscape-font-specification:Georgia" /></flowRegion><flowPara
             id="flowPara4466-9-0"
             style="font-size:24px;font-style:normal;font-weight:normal;text-align:center;text-anchor:middle;-inkscape-font-specification:Georgia">Surface</flowPara><flowPara
             style="font-size:24px;font-style:normal;font-weight:normal;text-align:center;text-anchor:middle;-inkscape-font-specification:Georgia"
             id="flowPara3372">ocean</flowPara></flowRoot></g></g></g></svg>