<?xml version="1.0" encoding="utf-8" standalone="no"?>
<!DOCTYPE svg PUBLIC "-//W3C//DTD SVG 1.1//EN"
  "http://www.w3.org/Graphics/SVG/1.1/DTD/svg11.dtd">
<!-- Created with matplotlib (http://matplotlib.org/) -->
<svg height="216pt" version="1.1" viewBox="0 0 216 216" width="216pt" xmlns="http://www.w3.org/2000/svg" xmlns:xlink="http://www.w3.org/1999/xlink">
 <defs>
  <style type="text/css">
*{stroke-linecap:butt;stroke-linejoin:round;stroke-miterlimit:100000;}
  </style>
 </defs>
 <g id="figure_1">
  <g id="patch_1">
   <path d="M 0 216 
L 216 216 
L 216 0 
L 0 0 
L 0 216 
z
" style="fill:none;"/>
  </g>
  <g id="axes_1">
   <g id="patch_2">
    <path clip-path="url(#p691e7663bc)" d="M 43.2 129.6 
C 48.928387 129.6 54.422925 127.324088 58.473506 123.273506 
C 62.524088 119.222925 64.8 113.728387 64.8 108 
C 64.8 102.271613 62.524088 96.777075 58.473506 92.726494 
C 54.422925 88.675912 48.928387 86.4 43.2 86.4 
C 37.471613 86.4 31.977075 88.675912 27.926494 92.726494 
C 23.875912 96.777075 21.6 102.271613 21.6 108 
C 21.6 113.728387 23.875912 119.222925 27.926494 123.273506 
C 31.977075 127.324088 37.471613 129.6 43.2 129.6 
z
" style="fill:#0000ff;opacity:0.3;stroke:#0000ff;stroke-linejoin:miter;"/>
   </g>
   <g id="patch_3">
    <path clip-path="url(#p691e7663bc)" d="M -1.084172 81.153023 
Q 6.948698 87.885511 16.319498 92.296129 
L 17.277689 90.260356 
Q 19.701389 93.477716 22.60724 96.537101 
Q 18.415689 97.008643 14.083719 97.046265 
L 15.04191 95.010493 
Q 5.319499 90.434379 -3.011209 83.452268 
L -1.084172 81.153023 
z
" style="fill:#0000ff;opacity:0.5;stroke:#000000;stroke-linecap:round;"/>
   </g>
   <g id="patch_4">
    <path clip-path="url(#p691e7663bc)" d="M 87.975699 67.971538 
C 93.704086 67.971538 99.198624 65.695625 103.249205 61.645044 
C 107.299787 57.594463 109.575699 52.099925 109.575699 46.371538 
C 109.575699 40.643151 107.299787 35.148613 103.249205 31.098031 
C 99.198624 27.04745 93.704086 24.771538 87.975699 24.771538 
C 82.247312 24.771538 76.752774 27.04745 72.702192 31.098031 
C 68.651611 35.148613 66.375699 40.643151 66.375699 46.371538 
C 66.375699 52.099925 68.651611 57.594463 72.702192 61.645044 
C 76.752774 65.695625 82.247312 67.971538 87.975699 67.971538 
z
" style="fill:#0000ff;opacity:0.3;stroke:#0000ff;stroke-linejoin:miter;"/>
   </g>
   <g id="patch_5">
    <path clip-path="url(#p691e7663bc)" d="M 99.824129 -4.041384 
Q 95.903446 5.678782 94.604436 15.953898 
L 96.836668 16.236103 
Q 94.525741 19.535399 92.514051 23.244429 
Q 90.770327 19.403741 89.395894 15.295419 
L 91.628126 15.577624 
Q 92.975878 4.916965 97.04193 -5.1636 
L 99.824129 -4.041384 
z
" style="fill:#0000ff;opacity:0.5;stroke:#000000;stroke-linecap:round;"/>
   </g>
   <g id="patch_6">
    <path clip-path="url(#p691e7663bc)" d="M 160.424301 91.511516 
C 166.152688 91.511516 171.647226 89.235603 175.697808 85.185022 
C 179.748389 81.134441 182.024301 75.639903 182.024301 69.911516 
C 182.024301 64.183129 179.748389 58.68859 175.697808 54.638009 
C 171.647226 50.587428 166.152688 48.311516 160.424301 48.311516 
C 154.695914 48.311516 149.201376 50.587428 145.150795 54.638009 
C 141.100213 58.68859 138.824301 64.183129 138.824301 69.911516 
C 138.824301 75.639903 141.100213 81.134441 145.150795 85.185022 
C 149.201376 89.235603 154.695914 91.511516 160.424301 91.511516 
z
" style="fill:#0000ff;opacity:0.3;stroke:#0000ff;stroke-linejoin:miter;"/>
   </g>
   <g id="patch_7">
    <path clip-path="url(#p691e7663bc)" d="M 212.031206 65.601593 
Q 201.575221 64.876498 191.401588 66.816251 
L 191.822992 69.026437 
Q 187.971061 67.848153 183.821917 67.081075 
Q 186.935787 64.235858 190.418311 61.659153 
L 190.839716 63.869338 
Q 201.395084 61.856801 212.238749 62.608781 
L 212.031206 65.601593 
z
" style="fill:#0000ff;opacity:0.5;stroke:#000000;stroke-linecap:round;"/>
   </g>
   <g id="patch_8">
    <path clip-path="url(#p691e7663bc)" d="M 160.424301 167.688484 
C 166.152688 167.688484 171.647226 165.412572 175.697808 161.361991 
C 179.748389 157.31141 182.024301 151.816871 182.024301 146.088484 
C 182.024301 140.360097 179.748389 134.865559 175.697808 130.814978 
C 171.647226 126.764397 166.152688 124.488484 160.424301 124.488484 
C 154.695914 124.488484 149.201376 126.764397 145.150795 130.814978 
C 141.100213 134.865559 138.824301 140.360097 138.824301 146.088484 
C 138.824301 151.816871 141.100213 157.31141 145.150795 161.361991 
C 149.201376 165.412572 154.695914 167.688484 160.424301 167.688484 
z
" style="fill:#0000ff;opacity:0.3;stroke:#0000ff;stroke-linejoin:miter;"/>
   </g>
   <g id="patch_9">
    <path clip-path="url(#p691e7663bc)" d="M 180.470692 193.837728 
Q 177.929221 183.669429 172.940581 174.593146 
L 170.968791 175.67691 
Q 170.899092 171.649395 170.346471 167.466285 
Q 174.014672 169.548531 177.541424 172.064363 
L 175.569634 173.148127 
Q 180.745458 182.56497 183.38116 193.110283 
L 180.470692 193.837728 
z
" style="fill:#0000ff;opacity:0.5;stroke:#000000;stroke-linecap:round;"/>
   </g>
   <g id="patch_10">
    <path clip-path="url(#p691e7663bc)" d="M 87.975699 191.228462 
C 93.704086 191.228462 99.198624 188.95255 103.249205 184.901969 
C 107.299787 180.851387 109.575699 175.356849 109.575699 169.628462 
C 109.575699 163.900075 107.299787 158.405537 103.249205 154.354956 
C 99.198624 150.304375 93.704086 148.028462 87.975699 148.028462 
C 82.247312 148.028462 76.752774 150.304375 72.702192 154.354956 
C 68.651611 158.405537 66.375699 163.900075 66.375699 169.628462 
C 66.375699 175.356849 68.651611 180.851387 72.702192 184.901969 
C 76.752774 188.95255 82.247312 191.228462 87.975699 191.228462 
z
" style="fill:#0000ff;opacity:0.3;stroke:#0000ff;stroke-linejoin:miter;"/>
   </g>
   <g id="patch_11">
    <path clip-path="url(#p691e7663bc)" d="M 48.758145 203.44904 
Q 57.643414 197.889781 64.733898 190.340576 
L 63.09386 188.800194 
Q 66.902716 187.489337 70.710321 185.67111 
Q 69.863524 189.803226 68.560652 193.934801 
L 66.920615 192.394419 
Q 59.564082 200.226885 50.34937 205.992267 
L 48.758145 203.44904 
z
" style="fill:#0000ff;opacity:0.5;stroke:#000000;stroke-linecap:round;"/>
   </g>
   <g id="patch_12">
    <path clip-path="url(#p691e7663bc)" d="M 162.783608 122.485238 
Q 165.153097 111.559191 164.603545 100.522506 
L 162.35633 100.634402 
Q 164.055029 96.975816 165.403319 92.979306 
Q 167.777094 96.464049 169.847049 100.261415 
L 167.599833 100.373311 
Q 168.169142 111.80677 165.715456 123.121057 
L 162.783608 122.485238 
z
" style="fill:#008000;opacity:0.5;stroke:#008000;stroke-linecap:round;"/>
   </g>
   <g id="patch_13">
    <path clip-path="url(#p691e7663bc)" d="M 138.704905 136.604491 
Q 108.120088 119.459742 73.778092 113.548607 
L 73.396422 115.765999 
Q 70.095897 113.294716 66.620365 110.930271 
Q 70.599955 109.577543 74.668655 108.374692 
L 74.286985 110.592084 
Q 109.137192 116.590695 140.171838 133.987603 
L 138.704905 136.604491 
z
" style="fill:#008000;opacity:0.5;stroke:#008000;stroke-linecap:round;"/>
   </g>
   <g id="patch_14">
    <path clip-path="url(#p691e7663bc)" d="M 103.707175 151.902804 
Q 129.464029 128.112933 145.698113 97.278395 
L 143.70719 96.230194 
Q 147.077438 93.854876 150.400157 91.280103 
Q 150.456917 95.482934 150.343599 99.724199 
L 148.352676 98.675997 
Q 131.878352 129.966841 105.742676 154.106604 
L 103.707175 151.902804 
z
" style="fill:#008000;opacity:0.5;stroke:#008000;stroke-linecap:round;"/>
   </g>
   <g id="patch_15">
    <path clip-path="url(#p691e7663bc)" d="M 148.427492 125.649432 
Q 133.761286 93.801734 109.452505 68.833806 
L 107.840377 70.403374 
Q 106.62278 66.464064 105.200802 62.508322 
Q 109.215472 63.753086 113.214137 65.171481 
L 111.602009 66.741049 
Q 136.270524 92.078465 151.152434 124.394567 
L 148.427492 125.649432 
z
" style="fill:#008000;opacity:0.5;stroke:#008000;stroke-linecap:round;"/>
   </g>
   <g id="patch_16">
    <path clip-path="url(#p691e7663bc)" d="M 90.283849 146.041374 
Q 97.138247 111.655465 92.14781 77.167645 
L 89.921002 77.489867 
Q 91.251414 73.587213 92.426136 69.551132 
Q 94.942418 72.917931 97.343695 76.415793 
L 95.116887 76.738015 
Q 100.181175 111.736204 93.225966 146.627848 
L 90.283849 146.041374 
z
" style="fill:#008000;opacity:0.5;stroke:#008000;stroke-linecap:round;"/>
   </g>
   <g id="patch_17">
    <path clip-path="url(#p691e7663bc)" d="M 76.010778 149.146269 
Q 71.505566 138.914161 64.573768 130.308313 
L 62.821503 131.71972 
Q 62.045317 127.761391 60.787017 123.735641 
Q 64.755722 125.159588 68.662387 127.015032 
L 66.910122 128.426439 
Q 74.09112 137.341669 78.756418 147.93736 
L 76.010778 149.146269 
z
" style="fill:#008000;opacity:0.5;stroke:#008000;stroke-linecap:round;"/>
   </g>
   <g id="text_1">
    <!-- $W_{p}$ -->
    <defs>
     <path d="M 17.828125 -1.125 
L 13.1875 62.59375 
Q 12.84375 64.0625 10.984375 64.421875 
Q 9.125 64.796875 6.390625 64.796875 
Q 5.421875 64.796875 5.421875 66.109375 
Q 5.765625 67.390625 5.953125 67.84375 
Q 6.15625 68.3125 7.078125 68.3125 
L 30.90625 68.3125 
Q 31.890625 68.3125 31.890625 67 
Q 31.5 64.796875 30.609375 64.796875 
Q 22.609375 64.796875 22.125 62.015625 
L 25.6875 11.53125 
L 50.6875 55.078125 
L 50.203125 62.59375 
Q 49.859375 64.0625 48 64.421875 
Q 46.140625 64.796875 43.40625 64.796875 
Q 42.390625 64.796875 42.390625 66.109375 
Q 42.71875 67.390625 42.90625 67.84375 
Q 43.109375 68.3125 44.09375 68.3125 
L 67.921875 68.3125 
Q 68.890625 68.3125 68.890625 67 
Q 68.84375 66.75 68.703125 66.15625 
Q 68.5625 65.578125 68.3125 65.1875 
Q 68.0625 64.796875 67.578125 64.796875 
Q 59.515625 64.796875 59.078125 62.015625 
L 59.078125 61.28125 
L 62.703125 11.53125 
L 89.890625 58.984375 
Q 90.484375 60.0625 90.484375 61.078125 
Q 90.484375 63.140625 88.46875 63.96875 
Q 86.46875 64.796875 83.984375 64.796875 
Q 83.015625 64.796875 83.015625 66.109375 
Q 83.203125 66.890625 83.328125 67.328125 
Q 83.453125 67.78125 83.765625 68.046875 
Q 84.078125 68.3125 84.71875 68.3125 
L 103.8125 68.3125 
Q 104.78125 68.3125 104.78125 67 
Q 104.734375 66.75 104.578125 66.140625 
Q 104.4375 65.53125 104.171875 65.15625 
Q 103.90625 64.796875 103.515625 64.796875 
Q 96.390625 64.796875 92.671875 58.296875 
Q 92.390625 58.015625 92.390625 58.015625 
L 58.5 -1.125 
Q 57.953125 -2.203125 56.78125 -2.203125 
L 56 -2.203125 
Q 54.78125 -2.203125 54.78125 -1.125 
L 50.984375 50.390625 
L 21.578125 -1.125 
Q 20.84375 -2.203125 19.828125 -2.203125 
L 19 -2.203125 
Q 17.828125 -2.203125 17.828125 -1.125 
" id="Cmmi10-57"/>
     <path d="M -2.484375 -19.390625 
Q -3.421875 -19.390625 -3.421875 -18.109375 
Q -3.078125 -15.921875 -2.09375 -15.921875 
Q 1.03125 -15.921875 2.265625 -15.359375 
Q 3.515625 -14.796875 4.203125 -12.5 
L 15.484375 32.515625 
Q 16.21875 34.375 16.21875 37.3125 
Q 16.21875 41.609375 13.28125 41.609375 
Q 10.15625 41.609375 8.640625 37.859375 
Q 7.125 34.125 5.71875 28.421875 
Q 5.71875 27.78125 4.890625 27.78125 
L 3.71875 27.78125 
Q 3.46875 27.78125 3.171875 28.140625 
Q 2.875 28.515625 2.875 28.8125 
Q 3.953125 33.15625 4.953125 36.171875 
Q 5.953125 39.203125 8.078125 41.6875 
Q 10.203125 44.1875 13.375 44.1875 
Q 16.796875 44.1875 19.375 42.25 
Q 21.96875 40.328125 22.703125 37.015625 
Q 25.4375 40.1875 28.75 42.1875 
Q 32.078125 44.1875 35.59375 44.1875 
Q 39.796875 44.1875 42.890625 41.9375 
Q 46 39.703125 47.5625 36.0625 
Q 49.125 32.421875 49.125 28.21875 
Q 49.125 21.78125 45.828125 14.890625 
Q 42.53125 8.015625 36.890625 3.4375 
Q 31.25 -1.125 24.8125 -1.125 
Q 21.875 -1.125 19.5 0.53125 
Q 17.140625 2.203125 15.828125 4.890625 
L 11.28125 -12.890625 
Q 11.03125 -14.359375 10.984375 -14.59375 
Q 10.984375 -15.921875 17.578125 -15.921875 
Q 18.609375 -15.921875 18.609375 -17.1875 
Q 18.265625 -18.5 18.046875 -18.9375 
Q 17.828125 -19.390625 16.890625 -19.390625 
z
M 24.90625 1.515625 
Q 28.375 1.515625 31.34375 4.375 
Q 34.328125 7.234375 36.1875 10.796875 
Q 37.546875 13.484375 38.734375 17.359375 
Q 39.9375 21.234375 40.8125 25.625 
Q 41.703125 30.03125 41.703125 32.625 
Q 41.703125 34.90625 41.09375 36.90625 
Q 40.484375 38.921875 39.09375 40.265625 
Q 37.703125 41.609375 35.40625 41.609375 
Q 31.734375 41.609375 28.484375 38.984375 
Q 25.25 36.375 22.609375 32.515625 
L 22.609375 32.171875 
L 17.09375 10.109375 
Q 17.78125 6.546875 19.734375 4.03125 
Q 21.6875 1.515625 24.90625 1.515625 
" id="Cmmi10-70"/>
    </defs>
    <g transform="translate(32.32 111.04)scale(0.16 -0.16)">
     <use transform="translate(0.0 0.6875)" xlink:href="#Cmmi10-57"/>
     <use transform="translate(94.384765625 -16.318749999999994)scale(0.7)" xlink:href="#Cmmi10-70"/>
    </g>
   </g>
   <g id="text_2">
    <!-- $W_{s}$ -->
    <defs>
     <path d="M 8.6875 6.109375 
Q 11.375 1.515625 19.484375 1.515625 
Q 23 1.515625 26.171875 2.703125 
Q 29.34375 3.90625 31.421875 6.296875 
Q 33.5 8.6875 33.5 12.109375 
Q 33.5 14.703125 31.640625 16.359375 
Q 29.78125 18.015625 27.09375 18.609375 
L 21.6875 19.671875 
Q 17.96875 20.609375 15.578125 23.140625 
Q 13.1875 25.6875 13.1875 29.296875 
Q 13.1875 33.734375 15.59375 37.15625 
Q 18.015625 40.578125 21.96875 42.375 
Q 25.921875 44.1875 30.171875 44.1875 
Q 34.71875 44.1875 38.296875 42.015625 
Q 41.890625 39.84375 41.890625 35.59375 
Q 41.890625 33.296875 40.59375 31.53125 
Q 39.3125 29.78125 37.015625 29.78125 
Q 35.6875 29.78125 34.734375 30.640625 
Q 33.796875 31.5 33.796875 32.8125 
Q 33.796875 33.984375 34.453125 35.078125 
Q 35.109375 36.1875 36.203125 36.84375 
Q 37.3125 37.5 38.484375 37.5 
Q 37.59375 39.65625 35.171875 40.625 
Q 32.765625 41.609375 29.984375 41.609375 
Q 27.4375 41.609375 24.890625 40.578125 
Q 22.359375 39.546875 20.8125 37.5625 
Q 19.28125 35.59375 19.28125 32.90625 
Q 19.28125 31.109375 20.546875 29.734375 
Q 21.828125 28.375 23.6875 27.78125 
L 29.5 26.609375 
Q 32.28125 26.03125 34.59375 24.53125 
Q 36.921875 23.046875 38.25 20.765625 
Q 39.59375 18.5 39.59375 15.578125 
Q 39.59375 11.859375 37.515625 8.25 
Q 35.453125 4.640625 32.421875 2.484375 
Q 27.09375 -1.125 19.390625 -1.125 
Q 14.0625 -1.125 9.609375 1.3125 
Q 5.171875 3.765625 5.171875 8.59375 
Q 5.171875 11.328125 6.75 13.34375 
Q 8.34375 15.375 11.078125 15.375 
Q 12.703125 15.375 13.796875 14.390625 
Q 14.890625 13.421875 14.890625 11.8125 
Q 14.890625 9.515625 13.171875 7.8125 
Q 11.46875 6.109375 9.1875 6.109375 
z
" id="Cmmi10-73"/>
    </defs>
    <g transform="translate(77.2556987645 50.7865377441)scale(0.16 -0.16)">
     <use transform="translate(0.0 0.6875)" xlink:href="#Cmmi10-57"/>
     <use transform="translate(94.384765625 -16.318749999999994)scale(0.7)" xlink:href="#Cmmi10-73"/>
    </g>
   </g>
   <g id="text_3">
    <!-- $W_{r}$ -->
    <defs>
     <path d="M 7.71875 1.703125 
Q 7.71875 2.296875 7.8125 2.59375 
L 15.28125 32.421875 
Q 16.015625 35.203125 16.015625 37.3125 
Q 16.015625 41.609375 13.09375 41.609375 
Q 9.96875 41.609375 8.453125 37.859375 
Q 6.9375 34.125 5.515625 28.421875 
Q 5.515625 28.125 5.21875 27.953125 
Q 4.9375 27.78125 4.6875 27.78125 
L 3.515625 27.78125 
Q 3.171875 27.78125 2.921875 28.140625 
Q 2.6875 28.515625 2.6875 28.8125 
Q 3.765625 33.15625 4.765625 36.171875 
Q 5.765625 39.203125 7.890625 41.6875 
Q 10.015625 44.1875 13.1875 44.1875 
Q 16.65625 44.1875 19.265625 42.1875 
Q 21.875 40.1875 22.515625 36.921875 
Q 25.046875 40.234375 28.296875 42.203125 
Q 31.546875 44.1875 35.40625 44.1875 
Q 38.578125 44.1875 40.984375 42.328125 
Q 43.40625 40.484375 43.40625 37.3125 
Q 43.40625 34.765625 41.8125 32.875 
Q 40.234375 31 37.59375 31 
Q 35.984375 31 34.890625 32 
Q 33.796875 33.015625 33.796875 34.625 
Q 33.796875 36.8125 35.40625 38.546875 
Q 37.015625 40.28125 39.109375 40.28125 
Q 37.5 41.609375 35.203125 41.609375 
Q 30.90625 41.609375 27.734375 38.546875 
Q 24.5625 35.5 22.015625 30.8125 
L 14.890625 2.203125 
Q 14.546875 0.828125 13.34375 -0.140625 
Q 12.15625 -1.125 10.6875 -1.125 
Q 9.46875 -1.125 8.59375 -0.34375 
Q 7.71875 0.4375 7.71875 1.703125 
" id="Cmmi10-72"/>
    </defs>
    <g transform="translate(149.784301235 74.3265156514)scale(0.16 -0.16)">
     <use transform="translate(0.0 0.6875)" xlink:href="#Cmmi10-57"/>
     <use transform="translate(94.384765625 -16.318749999999994)scale(0.7)" xlink:href="#Cmmi10-72"/>
    </g>
   </g>
   <g id="text_4">
    <!-- $W_{C}$ -->
    <defs>
     <path d="M 14.59375 21.578125 
Q 14.59375 15.578125 16.90625 11.015625 
Q 19.234375 6.453125 23.65625 3.875 
Q 28.078125 1.3125 34.078125 1.3125 
Q 40.375 1.3125 46.203125 4.53125 
Q 52.046875 7.765625 56.171875 13.15625 
Q 60.296875 18.5625 61.8125 24.609375 
Q 62.015625 25.203125 62.59375 25.203125 
L 63.8125 25.203125 
Q 64.203125 25.203125 64.453125 24.921875 
Q 64.703125 24.65625 64.703125 24.3125 
Q 64.703125 24.21875 64.59375 24.03125 
Q 62.890625 17.09375 57.984375 11.015625 
Q 53.078125 4.9375 46.234375 1.359375 
Q 39.40625 -2.203125 32.171875 -2.203125 
Q 24.359375 -2.203125 18.15625 1.3125 
Q 11.96875 4.828125 8.515625 11.078125 
Q 5.078125 17.328125 5.078125 25.203125 
Q 5.078125 33.59375 8.828125 41.8125 
Q 12.59375 50.046875 18.9375 56.46875 
Q 25.296875 62.890625 33.421875 66.703125 
Q 41.546875 70.515625 49.90625 70.515625 
Q 53.21875 70.515625 56.25 69.5 
Q 59.28125 68.5 61.859375 66.453125 
Q 64.453125 64.40625 66.109375 61.71875 
L 74.03125 70.3125 
Q 74.03125 70.515625 74.515625 70.515625 
L 75.09375 70.515625 
Q 75.484375 70.515625 75.734375 70.171875 
Q 75.984375 69.828125 75.984375 69.484375 
L 69.1875 42.484375 
Q 69.1875 41.796875 68.40625 41.796875 
L 66.609375 41.796875 
Q 65.828125 41.796875 65.828125 42.921875 
Q 66.21875 45.125 66.21875 48.1875 
Q 66.21875 53.078125 64.546875 57.390625 
Q 62.890625 61.71875 59.390625 64.359375 
Q 55.90625 67 50.875 67 
Q 42.71875 67 35.9375 62.890625 
Q 29.15625 58.796875 24.4375 52.125 
Q 19.734375 45.453125 17.15625 37.328125 
Q 14.59375 29.203125 14.59375 21.578125 
" id="Cmmi10-43"/>
    </defs>
    <g transform="translate(148.344301235 150.503484349)scale(0.16 -0.16)">
     <use transform="translate(0.0 0.6875)" xlink:href="#Cmmi10-57"/>
     <use transform="translate(94.384765625 -16.318749999999994)scale(0.7)" xlink:href="#Cmmi10-43"/>
    </g>
   </g>
   <g id="text_5">
    <!-- $W_{N}$ -->
    <defs>
     <path d="M 4.6875 0 
Q 3.71875 0 3.71875 1.3125 
Q 3.765625 1.5625 3.90625 2.171875 
Q 4.046875 2.78125 4.3125 3.140625 
Q 4.59375 3.515625 4.984375 3.515625 
Q 14.546875 3.515625 16.109375 9.625 
L 29.6875 64.3125 
Q 26.90625 64.796875 20.90625 64.796875 
Q 19.921875 64.796875 19.921875 66.109375 
Q 19.96875 66.359375 20.109375 66.96875 
Q 20.265625 67.578125 20.53125 67.9375 
Q 20.796875 68.3125 21.1875 68.3125 
L 38.484375 68.3125 
Q 39.203125 68.3125 39.40625 67.671875 
L 61.625 14.796875 
L 72.703125 59.078125 
Q 72.90625 60.15625 72.90625 60.59375 
Q 72.90625 64.796875 65.1875 64.796875 
Q 64.203125 64.796875 64.203125 66.109375 
Q 64.546875 67.390625 64.734375 67.84375 
Q 64.9375 68.3125 65.921875 68.3125 
L 87.3125 68.3125 
Q 88.28125 68.3125 88.28125 67 
Q 88.234375 66.75 88.078125 66.140625 
Q 87.9375 65.53125 87.671875 65.15625 
Q 87.40625 64.796875 87.015625 64.796875 
Q 77.4375 64.796875 75.875 58.6875 
L 61.53125 0.875 
Q 61.1875 0 60.5 0 
L 59.28125 0 
Q 58.59375 0 58.40625 0.6875 
L 32.90625 61.1875 
L 32.71875 61.8125 
Q 32.515625 62.015625 32.515625 62.109375 
L 19.28125 9.1875 
Q 19.1875 8.9375 19.140625 8.5625 
Q 19.09375 8.203125 19 7.71875 
Q 19 5.125 21.234375 4.3125 
Q 23.484375 3.515625 26.8125 3.515625 
Q 27.78125 3.515625 27.78125 2.203125 
Q 27.4375 0.828125 27.1875 0.40625 
Q 26.953125 0 26.125 0 
z
" id="Cmmi10-4e"/>
    </defs>
    <g transform="translate(75.4156987645 174.043462256)scale(0.16 -0.16)">
     <use transform="translate(0.0 0.6875)" xlink:href="#Cmmi10-57"/>
     <use transform="translate(94.384765625 -16.318749999999994)scale(0.7)" xlink:href="#Cmmi10-4e"/>
    </g>
   </g>
  </g>
 </g>
 <defs>
  <clipPath id="p691e7663bc">
   <rect height="216.0" width="216.0" x="0.0" y="0.0"/>
  </clipPath>
 </defs>
</svg>
