<?xml version="1.0" encoding="utf-8" standalone="no"?>
<!DOCTYPE svg PUBLIC "-//W3C//DTD SVG 1.1//EN"
  "http://www.w3.org/Graphics/SVG/1.1/DTD/svg11.dtd">
<!-- Created with matplotlib (http://matplotlib.org/) -->
<svg height="50pt" version="1.1" viewBox="0 0 50 50" width="50pt" xmlns="http://www.w3.org/2000/svg" xmlns:xlink="http://www.w3.org/1999/xlink">
 <defs>
  <style type="text/css">
*{stroke-linecap:butt;stroke-linejoin:round;stroke-miterlimit:100000;}
  </style>
 </defs>
 <g id="figure_1">
  <g id="patch_1">
   <path d="M 0 50.4 
L 50.4 50.4 
L 50.4 0 
L 0 0 
L 0 50.4 
z
" style="fill:none;"/>
  </g>
  <g id="axes_1">
   <g id="patch_2">
    <path clip-path="url(#p1a05e3490e)" d="M 10.08 28.728 
C 11.015637 28.728 11.913078 28.356268 12.574673 27.694673 
C 13.236268 27.033078 13.608 26.135637 13.608 25.2 
C 13.608 24.264363 13.236268 23.366922 12.574673 22.705327 
C 11.913078 22.043732 11.015637 21.672 10.08 21.672 
C 9.144363 21.672 8.246922 22.043732 7.585327 22.705327 
C 6.923732 23.366922 6.552 24.264363 6.552 25.2 
C 6.552 26.135637 6.923732 27.033078 7.585327 27.694673 
C 8.246922 28.356268 9.144363 28.728 10.08 28.728 
z
" style="fill:#0000ff;opacity:0.3;stroke:#0000ff;stroke-linejoin:miter;"/>
   </g>
   <g id="patch_3">
    <path clip-path="url(#p1a05e3490e)" d="M 4.038425 21.998482 
Q 4.593579 22.356957 5.18166 22.658402 
" style="fill:none;opacity:0.5;stroke:#000000;stroke-linecap:round;"/>
   </g>
   <g id="patch_4">
    <path clip-path="url(#p1a05e3490e)" d="M 20.527663 14.348025 
C 21.4633 14.348025 22.360741 13.976293 23.022336 13.314698 
C 23.683931 12.653103 24.055663 11.755662 24.055663 10.820025 
C 24.055663 9.884389 23.683931 8.986948 23.022336 8.325353 
C 22.360741 7.663758 21.4633 7.292025 20.527663 7.292025 
C 19.592027 7.292025 18.694585 7.663758 18.03299 8.325353 
C 17.371395 8.986948 16.999663 9.884389 16.999663 10.820025 
C 16.999663 11.755662 17.371395 12.653103 18.03299 13.314698 
C 18.694585 13.976293 19.592027 14.348025 20.527663 14.348025 
z
" style="fill:#0000ff;opacity:0.3;stroke:#0000ff;stroke-linejoin:miter;"/>
   </g>
   <g id="patch_5">
    <path clip-path="url(#p1a05e3490e)" d="M 21.705538 4.084823 
Q 21.53616 4.723581 21.431196 5.37603 
" style="fill:none;opacity:0.5;stroke:#000000;stroke-linecap:round;"/>
   </g>
   <g id="patch_6">
    <path clip-path="url(#p1a05e3490e)" d="M 37.432337 19.840687 
C 38.367973 19.840687 39.265415 19.468955 39.92701 18.80736 
C 40.588605 18.145765 40.960337 17.248324 40.960337 16.312687 
C 40.960337 15.37705 40.588605 14.479609 39.92701 13.818014 
C 39.265415 13.156419 38.367973 12.784687 37.432337 12.784687 
C 36.4967 12.784687 35.599259 13.156419 34.937664 13.818014 
C 34.276069 14.479609 33.904337 15.37705 33.904337 16.312687 
C 33.904337 17.248324 34.276069 18.145765 34.937664 18.80736 
C 35.599259 19.468955 36.4967 19.840687 37.432337 19.840687 
z
" style="fill:#0000ff;opacity:0.3;stroke:#0000ff;stroke-linejoin:miter;"/>
   </g>
   <g id="patch_7">
    <path clip-path="url(#p1a05e3490e)" d="M 44.201878 15.351621 
Q 43.542043 15.38792 42.889091 15.489711 
" style="fill:none;opacity:0.5;stroke:#000000;stroke-linecap:round;"/>
   </g>
   <g id="patch_8">
    <path clip-path="url(#p1a05e3490e)" d="M 37.432337 37.615313 
C 38.367973 37.615313 39.265415 37.243581 39.92701 36.581986 
C 40.588605 35.920391 40.960337 35.02295 40.960337 34.087313 
C 40.960337 33.151676 40.588605 32.254235 39.92701 31.59264 
C 39.265415 30.931045 38.367973 30.559313 37.432337 30.559313 
C 36.4967 30.559313 35.599259 30.931045 34.937664 31.59264 
C 34.276069 32.254235 33.904337 33.151676 33.904337 34.087313 
C 33.904337 35.02295 34.276069 35.920391 34.937664 36.581986 
C 35.599259 37.243581 36.4967 37.615313 37.432337 37.615313 
z
" style="fill:#0000ff;opacity:0.3;stroke:#0000ff;stroke-linejoin:miter;"/>
   </g>
   <g id="patch_9">
    <path clip-path="url(#p1a05e3490e)" d="M 40.438268 40.228544 
Q 40.199846 39.61222 39.901264 39.022681 
" style="fill:none;opacity:0.5;stroke:#000000;stroke-linecap:round;"/>
   </g>
   <g id="patch_10">
    <path clip-path="url(#p1a05e3490e)" d="M 20.527663 43.107975 
C 21.4633 43.107975 22.360741 42.736242 23.022336 42.074647 
C 23.683931 41.413052 24.055663 40.515611 24.055663 39.579975 
C 24.055663 38.644338 23.683931 37.746897 23.022336 37.085302 
C 22.360741 36.423707 21.4633 36.051975 20.527663 36.051975 
C 19.592027 36.051975 18.694585 36.423707 18.03299 37.085302 
C 17.371395 37.746897 16.999663 38.644338 16.999663 39.579975 
C 16.999663 40.515611 17.371395 41.413052 18.03299 42.074647 
C 18.694585 42.736242 19.592027 43.107975 20.527663 43.107975 
z
" style="fill:#0000ff;opacity:0.3;stroke:#0000ff;stroke-linejoin:miter;"/>
   </g>
   <g id="patch_11">
    <path clip-path="url(#p1a05e3490e)" d="M 15.615889 44.33653 
Q 16.128372 43.919322 16.596789 43.453176 
" style="fill:none;opacity:0.5;stroke:#000000;stroke-linecap:round;"/>
   </g>
   <g id="patch_12">
    <path clip-path="url(#p1a05e3490e)" d="M 38.331649 28.631758 
Q 38.811192 25.197871 38.41691 21.753167 
" style="fill:none;opacity:0.5;stroke:#008000;stroke-linecap:round;"/>
   </g>
   <g id="patch_13">
    <path clip-path="url(#p1a05e3490e)" d="M 32.532121 31.531317 
Q 24.503413 27.35033 15.560271 25.950685 
" style="fill:none;opacity:0.5;stroke:#008000;stroke-linecap:round;"/>
   </g>
   <g id="patch_14">
    <path clip-path="url(#p1a05e3490e)" d="M 24.47281 35.709438 
Q 30.930172 29.36568 35.024896 21.29276 
" style="fill:none;opacity:0.5;stroke:#008000;stroke-linecap:round;"/>
   </g>
   <g id="patch_15">
    <path clip-path="url(#p1a05e3490e)" d="M 34.970355 29.139194 
Q 30.932517 21.037548 24.520054 14.648565 
" style="fill:none;opacity:0.5;stroke:#008000;stroke-linecap:round;"/>
   </g>
   <g id="patch_16">
    <path clip-path="url(#p1a05e3490e)" d="M 21.444309 34.129746 
Q 22.939658 25.201995 21.507216 16.264047 
" style="fill:none;opacity:0.5;stroke:#008000;stroke-linecap:round;"/>
   </g>
   <g id="patch_17">
    <path clip-path="url(#p1a05e3490e)" d="M 18.048527 34.637735 
Q 16.418098 31.577794 14.07437 29.022724 
" style="fill:none;opacity:0.5;stroke:#008000;stroke-linecap:round;"/>
   </g>
  </g>
 </g>
 <defs>
  <clipPath id="p1a05e3490e">
   <rect height="50.4" width="50.4" x="0.0" y="0.0"/>
  </clipPath>
 </defs>
</svg>
