<?xml version="1.0" encoding="utf-8" standalone="no"?>
<!DOCTYPE svg PUBLIC "-//W3C//DTD SVG 1.1//EN"
  "http://www.w3.org/Graphics/SVG/1.1/DTD/svg11.dtd">
<!-- Created with matplotlib (http://matplotlib.org/) -->
<svg height="216pt" version="1.1" viewBox="0 0 216 216" width="216pt" xmlns="http://www.w3.org/2000/svg" xmlns:xlink="http://www.w3.org/1999/xlink">
 <defs>
  <style type="text/css">
*{stroke-linecap:butt;stroke-linejoin:round;}
  </style>
 </defs>
 <g id="figure_1">
  <g id="patch_1">
   <path d="M 0 216 
L 216 216 
L 216 0 
L 0 0 
z
" style="fill:none;"/>
  </g>
  <g id="axes_1">
   <g id="patch_2">
    <path clip-path="url(#p0f413870b0)" d="M 69.12 131.328 
C 75.306658 131.328 81.240759 128.870015 85.615387 124.495387 
C 89.990015 120.120759 92.448 114.186658 92.448 108 
C 92.448 101.813342 89.990015 95.879241 85.615387 91.504613 
C 81.240759 87.129985 75.306658 84.672 69.12 84.672 
C 62.933342 84.672 56.999241 87.129985 52.624613 91.504613 
C 48.249985 95.879241 45.792 101.813342 45.792 108 
C 45.792 114.186658 48.249985 120.120759 52.624613 124.495387 
C 56.999241 128.870015 62.933342 131.328 69.12 131.328 
z
" style="fill:#0000ff;opacity:0.3;"/>
   </g>
   <g id="patch_3">
    <path clip-path="url(#p0f413870b0)" d="M 31.191546 84.809496 
Q 35.745469 88.55541 40.892859 91.269497 
L 41.942282 89.279218 
Q 44.153751 92.573515 47.032227 95.663888 
Q 42.833382 96.099535 38.444205 95.913482 
L 39.493628 93.923202 
Q 34.075793 91.066517 29.285751 87.126379 
L 31.191546 84.809496 
z
" style="fill:#0000ff;opacity:0.5;stroke:#0000ff;stroke-linecap:round;"/>
   </g>
   <g id="patch_4">
    <path clip-path="url(#p0f413870b0)" d="M 47.559871 121.740247 
Q 42.038852 123.811103 37.114689 126.91183 
L 38.31361 128.815797 
Q 34.35493 129.083837 30.239351 130.031484 
Q 31.961492 126.177353 34.317208 122.469242 
L 35.516128 124.373208 
Q 40.699008 121.109568 46.506289 118.931339 
L 47.559871 121.740247 
z
" style="fill:#0000ff;opacity:0.5;stroke:#0000ff;stroke-linecap:round;"/>
   </g>
   <g id="patch_5">
    <path clip-path="url(#p0f413870b0)" d="M 146.88 131.328 
C 153.066658 131.328 159.000759 128.870015 163.375387 124.495387 
C 167.750015 120.120759 170.208 114.186658 170.208 108 
C 170.208 101.813342 167.750015 95.879241 163.375387 91.504613 
C 159.000759 87.129985 153.066658 84.672 146.88 84.672 
C 140.693342 84.672 134.759241 87.129985 130.384613 91.504613 
C 126.009985 95.879241 123.552 101.813342 123.552 108 
C 123.552 114.186658 126.009985 120.120759 130.384613 124.495387 
C 134.759241 128.870015 140.693342 131.328 146.88 131.328 
z
" style="fill:#0000ff;opacity:0.3;"/>
   </g>
   <g id="patch_6">
    <path clip-path="url(#p0f413870b0)" d="M 168.440129 94.259753 
Q 173.961148 92.188897 178.885311 89.08817 
L 177.68639 87.184203 
Q 181.64507 86.916163 185.760649 85.968516 
Q 184.038508 89.822647 181.682792 93.530758 
L 180.483872 91.626792 
Q 175.300992 94.890432 169.493711 97.068661 
L 168.440129 94.259753 
z
" style="fill:#0000ff;opacity:0.5;stroke:#0000ff;stroke-linecap:round;"/>
   </g>
   <g id="patch_7">
    <path clip-path="url(#p0f413870b0)" d="M 94.435661 110.648062 
Q 104.472337 112.906557 114.631324 112.553743 
L 114.55323 110.305099 
Q 118.1743 112.05943 122.155735 113.448885 
Q 118.648363 115.787311 114.813542 117.80058 
L 114.735449 115.551935 
Q 104.190503 115.918153 93.777057 113.574876 
L 94.435661 110.648062 
z
" style="fill:#0000ff;opacity:0.5;stroke:#0000ff;stroke-linecap:round;"/>
   </g>
   <g id="text_1">
    <!-- $Y$ -->
    <defs>
     <path d="M 58.796875 56.953125 
L 61.09375 59.234375 
C 65.5 63.71875 69.203125 64.8125 72.703125 65.109375 
C 73.796875 65.203125 74.703125 65.296875 74.703125 67 
C 74.703125 68 73.703125 68 73.5 68 
C 72.296875 68 71 68 69.796875 68 
L 65.703125 68 
C 62.796875 68 59.703125 68 56.90625 68 
C 56.203125 68 55.09375 68 55.09375 66.03125 
C 55.09375 65.09375 56.09375 65 56.40625 65 
C 59.40625 65 59.40625 63.5 59.40625 62.90625 
C 59.40625 61.8125 58.59375 60.3125 56.59375 58.015625 
L 32.796875 30.765625 
L 21.5 61.109375 
C 20.90625 62.5 20.90625 62.703125 20.90625 62.90625 
C 20.90625 65 25 65 26.203125 65 
C 27.40625 65 28.5 65 28.5 66.859375 
C 28.5 68 27.59375 68 27 68 
C 25.296875 68 23.296875 68 21.59375 68 
L 10.5 68 
C 8.703125 68 6.796875 68 5.09375 68 
C 4.40625 68 3.296875 68 3.296875 66.03125 
C 3.296875 65 4.203125 65 5.703125 65 
C 10.59375 65 11.5 64.09375 12.40625 61.8125 
L 24.796875 28.671875 
C 24.90625 28.375 25.203125 27.265625 25.203125 26.96875 
C 25.203125 26.671875 20.296875 7.0625 20 6.0625 
C 19.203125 3.390625 18.203125 2.890625 11.796875 2.890625 
C 10.09375 2.890625 9.296875 2.890625 9.296875 1 
C 9.296875 0 10.40625 0 10.703125 0 
C 12.5 0 14.59375 0 16.5 0 
L 28.296875 0 
C 30.09375 0 32.203125 0 34 0 
C 34.703125 0 35.90625 0 35.90625 1.796875 
C 35.90625 2.890625 35.203125 2.890625 33.5 2.890625 
C 27.296875 2.890625 27.296875 3.59375 27.296875 4.6875 
C 27.296875 5.390625 28.09375 8.5625 28.59375 10.5625 
L 32.203125 24.90625 
C 32.796875 26.984375 32.796875 27.171875 33.703125 28.171875 
z
" id="CMMI12-89"/>
    </defs>
    <g transform="translate(64.592111 112.399472)scale(0.16 -0.16)">
     <use transform="scale(0.996264)" xlink:href="#CMMI12-89"/>
    </g>
   </g>
   <g id="text_2">
    <!-- $O$ -->
    <defs>
     <path d="M 72.59375 43.703125 
C 72.59375 60.125 61.796875 70.1875 47.796875 70.1875 
C 26.40625 70.1875 4.796875 47.28125 4.796875 24.28125 
C 4.796875 8.65625 15.203125 -2 29.703125 -2 
C 50.703125 -2 72.59375 19.8125 72.59375 43.703125 
M 30.296875 0.296875 
C 22.09375 0.296875 13.40625 6.265625 13.40625 21.796875 
C 13.40625 30.84375 16.703125 45.6875 24.90625 55.65625 
C 32.203125 64.421875 40.59375 68 47.296875 68 
C 56.09375 68 64.59375 61.625 64.59375 47.28125 
C 64.59375 38.421875 60.796875 24.578125 54.09375 15.125 
C 46.796875 4.96875 37.703125 0.296875 30.296875 0.296875 
" id="CMMI12-79"/>
    </defs>
    <g transform="translate(140.915946 112.399472)scale(0.16 -0.16)">
     <use transform="scale(0.996264)" xlink:href="#CMMI12-79"/>
    </g>
   </g>
  </g>
 </g>
 <defs>
  <clipPath id="p0f413870b0">
   <rect height="216" width="216" x="0" y="0"/>
  </clipPath>
 </defs>
</svg>
