<?xml version="1.0" encoding="utf-8" standalone="no"?>
<!DOCTYPE svg PUBLIC "-//W3C//DTD SVG 1.1//EN"
  "http://www.w3.org/Graphics/SVG/1.1/DTD/svg11.dtd">
<!-- Created with matplotlib (http://matplotlib.org/) -->
<svg height="216pt" version="1.1" viewBox="0 0 216 216" width="216pt" xmlns="http://www.w3.org/2000/svg" xmlns:xlink="http://www.w3.org/1999/xlink">
 <defs>
  <style type="text/css">
*{stroke-linecap:butt;stroke-linejoin:round;}
  </style>
 </defs>
 <g id="figure_1">
  <g id="patch_1">
   <path d="M 0 216 
L 216 216 
L 216 0 
L 0 0 
z
" style="fill:none;"/>
  </g>
  <g id="axes_1">
   <g id="patch_2">
    <path clip-path="url(#p6f08751332)" d="M 67.176 127.426536 
C 72.073153 127.426536 76.77039 125.493429 80.2332 122.05296 
C 83.69601 118.612491 85.641669 113.945558 85.641669 109.08 
C 85.641669 104.214442 83.69601 99.547509 80.2332 96.10704 
C 76.77039 92.666571 72.073153 90.733464 67.176 90.733464 
C 62.278847 90.733464 57.58161 92.666571 54.1188 96.10704 
C 50.65599 99.547509 48.710331 104.214442 48.710331 109.08 
C 48.710331 113.945558 50.65599 118.612491 54.1188 122.05296 
C 57.58161 125.493429 62.278847 127.426536 67.176 127.426536 
z
" style="fill:#0000ff;opacity:0.3;stroke:#0000ff;stroke-linejoin:miter;"/>
   </g>
   <g id="patch_3">
    <path clip-path="url(#p6f08751332)" d="M 110.7 84.183336 
C 115.597153 84.183336 120.29439 82.250229 123.7572 78.80976 
C 127.22001 75.369291 129.165669 70.702358 129.165669 65.8368 
C 129.165669 60.971242 127.22001 56.304309 123.7572 52.86384 
C 120.29439 49.423371 115.597153 47.490264 110.7 47.490264 
C 105.802847 47.490264 101.10561 49.423371 97.6428 52.86384 
C 94.17999 56.304309 92.234331 60.971242 92.234331 65.8368 
C 92.234331 70.702358 94.17999 75.369291 97.6428 78.80976 
C 101.10561 82.250229 105.802847 84.183336 110.7 84.183336 
z
" style="fill:#0000ff;opacity:0.3;stroke:#0000ff;stroke-linejoin:miter;"/>
   </g>
   <g id="patch_4">
    <path clip-path="url(#p6f08751332)" d="M 99.383497 48.611828 
Q 98.148223 45.43221 96.472053 42.510377 
L 94.520394 43.629987 
Q 94.448499 39.711756 93.526175 35.583668 
Q 97.376969 37.330146 101.025925 39.897955 
L 99.074265 41.017564 
Q 100.862819 44.135301 102.17988 47.52544 
L 99.383497 48.611828 
z
" style="fill:#0000ff;opacity:0.5;stroke:#0000ff;stroke-linecap:round;"/>
   </g>
   <g id="patch_5">
    <path clip-path="url(#p6f08751332)" d="M 154.224 127.426536 
C 159.121153 127.426536 163.81839 125.493429 167.2812 122.05296 
C 170.74401 118.612491 172.689669 113.945558 172.689669 109.08 
C 172.689669 104.214442 170.74401 99.547509 167.2812 96.10704 
C 163.81839 92.666571 159.121153 90.733464 154.224 90.733464 
C 149.326847 90.733464 144.62961 92.666571 141.1668 96.10704 
C 137.70399 99.547509 135.758331 104.214442 135.758331 109.08 
C 135.758331 113.945558 137.70399 118.612491 141.1668 122.05296 
C 144.62961 125.493429 149.326847 127.426536 154.224 127.426536 
z
" style="fill:#0000ff;opacity:0.3;stroke:#0000ff;stroke-linejoin:miter;"/>
   </g>
   <g id="patch_6">
    <path clip-path="url(#p6f08751332)" d="M 171.561662 97.831549 
Q 174.775644 96.604316 177.730818 94.928676 
L 176.621018 92.971422 
Q 180.542049 92.917707 184.67679 92.016491 
Q 182.907568 95.85902 180.320352 99.495603 
L 179.210552 97.538349 
Q 176.057893 99.325966 172.631825 100.634182 
L 171.561662 97.831549 
z
" style="fill:#0000ff;opacity:0.5;stroke:#0000ff;stroke-linecap:round;"/>
   </g>
   <g id="patch_7">
    <path clip-path="url(#p6f08751332)" d="M 110.7 170.669736 
C 115.597153 170.669736 120.29439 168.736629 123.7572 165.29616 
C 127.22001 161.855691 129.165669 157.188758 129.165669 152.3232 
C 129.165669 147.457642 127.22001 142.790709 123.7572 139.35024 
C 120.29439 135.909771 115.597153 133.976664 110.7 133.976664 
C 105.802847 133.976664 101.10561 135.909771 97.6428 139.35024 
C 94.17999 142.790709 92.234331 147.457642 92.234331 152.3232 
C 92.234331 157.188758 94.17999 161.855691 97.6428 165.29616 
C 101.10561 168.736629 105.802847 170.669736 110.7 170.669736 
z
" style="fill:#0000ff;opacity:0.3;stroke:#0000ff;stroke-linejoin:miter;"/>
   </g>
   <g id="patch_8">
    <path clip-path="url(#p6f08751332)" d="M 122.016503 169.548172 
Q 123.251777 172.72779 124.927947 175.649623 
L 126.879606 174.530013 
Q 126.951501 178.448244 127.873825 182.576332 
Q 124.023031 180.829854 120.374075 178.262045 
L 122.325735 177.142436 
Q 120.537181 174.024699 119.22012 170.63456 
L 122.016503 169.548172 
z
" style="fill:#0000ff;opacity:0.5;stroke:#0000ff;stroke-linecap:round;"/>
   </g>
   <g id="patch_9">
    <path clip-path="url(#p6f08751332)" d="M 83.009905 95.983357 
Q 88.806581 92.290771 93.603757 87.494517 
L 92.012919 85.903374 
Q 95.827455 84.750078 99.648713 82.950339 
Q 98.780523 87.082147 97.315711 91.207185 
L 95.724873 89.616041 
Q 90.695416 94.644532 84.62171 98.513591 
L 83.009905 95.983357 
z
" style="fill:#ff0000;opacity:0.5;stroke:#ff0000;stroke-linecap:round;"/>
   </g>
   <g id="patch_10">
    <path clip-path="url(#p6f08751332)" d="M 123.875049 81.563492 
Q 127.598264 87.324775 132.415182 92.082677 
L 133.996336 90.481911 
Q 135.173975 94.289652 136.998688 98.099935 
Q 132.860731 97.257517 128.725822 95.817798 
L 130.306976 94.217032 
Q 125.256673 89.228604 121.355407 83.191805 
L 123.875049 81.563492 
z
" style="fill:#0000ff;opacity:0.5;stroke:#0000ff;stroke-linecap:round;"/>
   </g>
   <g id="patch_11">
    <path clip-path="url(#p6f08751332)" d="M 108.874779 86.210996 
Q 105.025173 105.450262 107.155812 124.777987 
L 109.392264 124.531446 
Q 107.924266 128.340767 106.700934 132.368005 
Q 104.223643 128.966289 101.937424 125.353249 
L 104.173876 125.106708 
Q 101.992332 105.317203 105.933089 85.62239 
L 108.874779 86.210996 
z
" style="fill:#0000ff;opacity:0.5;stroke:#0000ff;stroke-linecap:round;"/>
   </g>
   <g id="patch_12">
    <path clip-path="url(#p6f08751332)" d="M 141.048951 93.353308 
Q 137.325736 87.592025 132.508818 82.834123 
L 130.927664 84.434889 
Q 129.750025 80.627148 127.925312 76.816865 
Q 132.063269 77.659283 136.198178 79.099002 
L 134.617024 80.699768 
Q 139.667327 85.688196 143.568593 91.724995 
L 141.048951 93.353308 
z
" style="fill:#0000ff;opacity:0.5;stroke:#0000ff;stroke-linecap:round;"/>
   </g>
   <g id="text_1">
    <!-- $S$ -->
    <defs>
     <path d="M 63.5 69.109375 
C 63.5 70 62.796875 70 62.59375 70 
C 62.203125 70 62.09375 69.90625 60.90625 68.40625 
C 60.296875 67.703125 56.203125 62.515625 56.09375 62.421875 
C 52.796875 68.90625 46.203125 70 42 70 
C 29.296875 70 17.796875 58.484375 17.796875 47.265625 
C 17.796875 39.828125 22.296875 35.453125 27.203125 33.765625 
C 28.296875 33.359375 34.203125 31.765625 37.203125 31.078125 
C 42.296875 29.6875 43.59375 29.296875 45.703125 27.109375 
C 46.09375 26.609375 48.09375 24.328125 48.09375 19.65625 
C 48.09375 10.421875 39.5 0.890625 29.5 0.890625 
C 21.296875 0.890625 12.203125 4.375 12.203125 15.484375 
C 12.203125 17.375 12.59375 19.765625 12.90625 20.75 
C 12.90625 21.0625 13 21.53125 13 21.734375 
C 13 22.140625 12.796875 22.640625 12 22.640625 
C 11.09375 22.640625 11 22.4375 10.59375 20.75 
L 5.5 0.375 
C 5.5 0.28125 5.09375 -1 5.09375 -1.109375 
C 5.09375 -2 5.90625 -2 6.09375 -2 
C 6.5 -2 6.59375 -1.90625 7.796875 -0.40625 
L 12.40625 5.5625 
C 14.796875 1.96875 20 -2 29.296875 -2 
C 42.203125 -2 54 10.40625 54 22.8125 
C 54 27 53 30.671875 49.203125 34.328125 
C 47.09375 36.421875 45.296875 36.921875 36.09375 39.3125 
C 29.40625 41.09375 28.5 41.390625 26.703125 42.984375 
C 25 44.65625 23.703125 47.046875 23.703125 50.421875 
C 23.703125 58.765625 32.203125 67.3125 41.703125 67.3125 
C 51.5 67.3125 56.09375 61.34375 56.09375 51.921875 
C 56.09375 49.34375 55.59375 46.65625 55.59375 46.265625 
C 55.59375 45.359375 56.40625 45.359375 56.703125 45.359375 
C 57.59375 45.359375 57.703125 45.65625 58.09375 47.25 
z
" id="CMMI12-83"/>
    </defs>
    <g transform="translate(62.37644 113.065056)scale(0.16 -0.16)">
     <use transform="scale(0.996264)" xlink:href="#CMMI12-83"/>
    </g>
   </g>
   <g id="text_2">
    <!-- $D$ -->
    <defs>
     <path d="M 15.703125 7.375 
C 14.796875 3.890625 14.59375 2.890625 7.59375 2.890625 
C 5.703125 2.890625 4.703125 2.890625 4.703125 1.09375 
C 4.703125 0 5.296875 0 7.296875 0 
L 39 0 
C 59.203125 0 78.90625 20.8125 78.90625 43.015625 
C 78.90625 57.359375 70.296875 68 56 68 
L 23.90625 68 
C 22 68 21.09375 68 21.09375 66.109375 
C 21.09375 65.109375 22 65.109375 23.5 65.109375 
C 29.59375 65.109375 29.59375 64.3125 29.59375 63.21875 
C 29.59375 63.03125 29.59375 62.421875 29.203125 60.921875 
z
M 36.796875 61.421875 
C 37.703125 65.109375 38.09375 65.109375 42 65.109375 
L 53 65.109375 
C 62.40625 65.109375 71 60.03125 71 46.296875 
C 71 41.3125 69 24 59.296875 13.046875 
C 56.5 9.765625 48.90625 2.890625 37.40625 2.890625 
L 26 2.890625 
C 24.59375 2.890625 24.40625 2.890625 23.796875 3 
C 22.703125 3.09375 22.59375 3.296875 22.59375 4.09375 
C 22.59375 4.796875 22.796875 5.390625 23 6.28125 
z
" id="CMMI12-68"/>
    </defs>
    <g transform="translate(104.220461 69.821856)scale(0.16 -0.16)">
     <use transform="scale(0.996264)" xlink:href="#CMMI12-68"/>
    </g>
   </g>
   <g id="text_3">
    <!-- $M$ -->
    <defs>
     <path d="M 90.796875 60.71875 
C 91.703125 64.109375 91.90625 65.109375 99 65.109375 
C 100.90625 65.109375 101.796875 65.109375 101.796875 67 
C 101.796875 68 101.09375 68 99.203125 68 
L 87.203125 68 
C 84.703125 68 84.59375 67.90625 83.5 66.296875 
L 47 8.78125 
L 39.5 65.796875 
C 39.203125 68 39.09375 68 36.5 68 
L 24.09375 68 
C 22.203125 68 21.296875 68 21.296875 66.109375 
C 21.296875 65.109375 22.203125 65.109375 23.703125 65.109375 
C 29.796875 65.109375 29.796875 64.3125 29.796875 63.21875 
C 29.796875 63.03125 29.796875 62.421875 29.40625 60.921875 
L 16.59375 9.90625 
C 15.40625 5.109375 13.09375 2.90625 6.40625 2.90625 
C 6.09375 2.90625 4.90625 2.90625 4.90625 1.140625 
C 4.90625 0 5.796875 0 6.203125 0 
C 8.203125 0 13.296875 0 15.296875 0 
L 20.09375 0 
C 21.5 0 23.203125 0 24.59375 0 
C 25.296875 0 26.40625 0 26.40625 1.90625 
C 26.40625 2.8125 25.40625 2.90625 25 2.90625 
C 21.703125 2.90625 18.5 3.5 18.5 7.09375 
C 18.5 8.09375 18.5 8.1875 18.90625 9.578125 
L 32.703125 64.515625 
L 32.796875 64.515625 
L 41.09375 2.6875 
C 41.40625 0.296875 41.5 0 42.40625 0 
C 43.5 0 44 0.796875 44.5 1.703125 
L 84.703125 65.015625 
L 84.796875 65.015625 
L 70.296875 7.390625 
C 69.40625 3.90625 69.203125 2.90625 62.203125 2.90625 
C 60.296875 2.90625 59.296875 2.90625 59.296875 1.09375 
C 59.296875 0 60.203125 0 60.796875 0 
C 62.5 0 64.5 0 66.203125 0 
L 78 0 
C 79.703125 0 81.796875 0 83.5 0 
C 84.296875 0 85.40625 0 85.40625 1.90625 
C 85.40625 2.90625 84.5 2.90625 83 2.90625 
C 76.90625 2.90625 76.90625 3.65625 76.90625 4.59375 
C 76.90625 4.703125 76.90625 5.390625 77.09375 6.1875 
z
" id="CMMI12-77"/>
    </defs>
    <g transform="translate(146.674126 113.065056)scale(0.16 -0.16)">
     <use transform="scale(0.996264)" xlink:href="#CMMI12-77"/>
    </g>
   </g>
   <g id="text_4">
    <!-- $E$ -->
    <defs>
     <path d="M 69.5 23.265625 
C 69.59375 23.5625 69.90625 24.28125 69.90625 24.671875 
C 69.90625 25.171875 69.5 25.671875 68.90625 25.671875 
C 68.5 25.671875 68.296875 25.578125 68 25.265625 
C 67.796875 25.171875 67.796875 24.96875 66.90625 22.953125 
C 61 8.90625 56.703125 2.890625 40.703125 2.890625 
L 26.09375 2.890625 
C 24.703125 2.890625 24.5 2.890625 23.90625 3 
C 22.796875 3.09375 22.703125 3.296875 22.703125 4.09375 
C 22.703125 4.796875 22.90625 5.390625 23.09375 6.296875 
L 30 34 
L 39.90625 34 
C 47.703125 34 48.296875 32.28125 48.296875 29.28125 
C 48.296875 28.28125 48.296875 27.375 47.59375 24.375 
C 47.40625 23.96875 47.296875 23.5625 47.296875 23.265625 
C 47.296875 22.5625 47.796875 22.265625 48.40625 22.265625 
C 49.296875 22.265625 49.40625 22.953125 49.796875 24.359375 
L 55.5 47.53125 
C 55.5 48.015625 55.09375 48.515625 54.5 48.515625 
C 53.59375 48.515625 53.5 48.125 53.09375 46.71875 
C 51.09375 39.078125 49.09375 36.890625 40.203125 36.890625 
L 30.703125 36.890625 
L 36.90625 61.40625 
C 37.796875 64.90625 38 64.90625 42.09375 64.90625 
L 56.40625 64.90625 
C 68.703125 64.90625 71.203125 61.609375 71.203125 54.03125 
C 71.203125 53.921875 71.203125 51.140625 70.796875 47.84375 
C 70.703125 47.4375 70.59375 46.84375 70.59375 46.640625 
C 70.59375 45.84375 71.09375 45.546875 71.703125 45.546875 
C 72.40625 45.546875 72.796875 45.953125 73 47.734375 
L 75.09375 65.21875 
C 75.09375 65.546875 75.296875 66.609375 75.296875 66.828125 
C 75.296875 68 74.40625 68 72.59375 68 
L 23.796875 68 
C 21.90625 68 20.90625 68 20.90625 66.078125 
C 20.90625 64.90625 21.59375 64.90625 23.296875 64.90625 
C 29.5 64.90625 29.5 64.28125 29.5 63.3125 
C 29.5 62.8125 29.40625 62.40625 29.09375 61.3125 
L 15.59375 7.390625 
C 14.703125 3.890625 14.5 2.890625 7.5 2.890625 
C 5.59375 2.890625 4.59375 2.890625 4.59375 1.09375 
C 4.59375 0 5.203125 0 7.203125 0 
L 57.40625 0 
C 59.59375 0 59.703125 0.09375 60.40625 1.71875 
z
" id="CMMI12-69"/>
    </defs>
    <g transform="translate(104.923102 156.308256)scale(0.16 -0.16)">
     <use transform="scale(0.996264)" xlink:href="#CMMI12-69"/>
    </g>
   </g>
  </g>
 </g>
 <defs>
  <clipPath id="p6f08751332">
   <rect height="166.32" width="167.4" x="27" y="25.92"/>
  </clipPath>
 </defs>
</svg>
