<?xml version="1.0" encoding="utf-8" standalone="no"?>
<!DOCTYPE svg PUBLIC "-//W3C//DTD SVG 1.1//EN"
  "http://www.w3.org/Graphics/SVG/1.1/DTD/svg11.dtd">
<!-- Created with matplotlib (http://matplotlib.org/) -->
<svg height="216pt" version="1.1" viewBox="0 0 216 216" width="216pt" xmlns="http://www.w3.org/2000/svg" xmlns:xlink="http://www.w3.org/1999/xlink">
 <defs>
  <style type="text/css">
*{stroke-linecap:butt;stroke-linejoin:round;stroke-miterlimit:100000;}
  </style>
 </defs>
 <g id="figure_1">
  <g id="patch_1">
   <path d="M 0 216 
L 216 216 
L 216 0 
L 0 0 
L 0 216 
z
" style="fill:none;"/>
  </g>
  <g id="axes_1">
   <g id="patch_2">
    <path clip-path="url(#p0de3d0d633)" d="M 60.48 132.692116 
C 67.028426 132.692116 73.309527 130.090399 77.939963 125.459963 
C 82.570399 120.829527 85.172116 114.548426 85.172116 108 
C 85.172116 101.451574 82.570399 95.170473 77.939963 90.540037 
C 73.309527 85.909601 67.028426 83.307884 60.48 83.307884 
C 53.931574 83.307884 47.650473 85.909601 43.020037 90.540037 
C 38.389601 95.170473 35.787884 101.451574 35.787884 108 
C 35.787884 114.548426 38.389601 120.829527 43.020037 125.459963 
C 47.650473 130.090399 53.931574 132.692116 60.48 132.692116 
z
" style="fill:#0000ff;opacity:0.3;stroke:#0000ff;stroke-linejoin:miter;"/>
   </g>
   <g id="patch_3">
    <path clip-path="url(#p0de3d0d633)" d="M 9.503912 77.294002 
Q 19.315131 85.566101 30.875682 90.803789 
L 31.804224 88.754323 
Q 34.295273 91.944618 37.208126 94.993712 
Q 33.020379 95.477489 28.709083 95.585875 
L 29.637625 93.53641 
Q 17.698828 88.127351 7.570134 79.587581 
L 9.503912 77.294002 
z
" style="fill:#0000ff;opacity:0.5;stroke:#000000;stroke-linecap:round;"/>
   </g>
   <g id="patch_4">
    <path clip-path="url(#p0de3d0d633)" d="M 37.716219 122.417615 
Q 25.646761 126.77833 15.330515 134.171217 
L 16.641133 136.000091 
Q 12.632732 136.562256 8.535713 137.560314 
Q 10.210623 133.69173 12.272406 129.903845 
L 13.583024 131.732719 
Q 24.236805 124.097946 36.69681 119.596125 
L 37.716219 122.417615 
z
" style="fill:#0000ff;opacity:0.5;stroke:#0000ff;stroke-linecap:round;"/>
   </g>
   <g id="patch_5">
    <path clip-path="url(#p0de3d0d633)" d="M 131.76 91.538589 
C 138.308426 91.538589 144.589527 88.936872 149.219963 84.306436 
C 153.850399 79.675999 156.452116 73.394899 156.452116 66.846473 
C 156.452116 60.298047 153.850399 54.016946 149.219963 49.38651 
C 144.589527 44.756074 138.308426 42.154356 131.76 42.154356 
C 125.211574 42.154356 118.930473 44.756074 114.300037 49.38651 
C 109.669601 54.016946 107.067884 60.298047 107.067884 66.846473 
C 107.067884 73.394899 109.669601 79.675999 114.300037 84.306436 
C 118.930473 88.936872 125.211574 91.538589 131.76 91.538589 
z
" style="fill:#0000ff;opacity:0.3;stroke:#0000ff;stroke-linejoin:miter;"/>
   </g>
   <g id="patch_6">
    <path clip-path="url(#p0de3d0d633)" d="M 183.840219 38.052885 
Q 171.770761 42.4136 161.454515 49.806487 
L 162.765133 51.635361 
Q 158.756732 52.197525 154.659713 53.195583 
Q 156.334623 49.326999 158.396406 45.539114 
L 159.707024 47.367988 
Q 170.360805 39.733215 182.82081 35.231395 
L 183.840219 38.052885 
z
" style="fill:#0000ff;opacity:0.5;stroke:#000000;stroke-linecap:round;"/>
   </g>
   <g id="patch_7">
    <path clip-path="url(#p0de3d0d633)" d="M 130.655869 39.923652 
Q 132.914108 27.290838 131.669804 14.660263 
L 129.430643 14.880855 
Q 130.947995 11.128395 132.132161 7.081244 
Q 134.644998 10.466051 136.894511 14.145549 
L 134.655351 14.366141 
Q 135.940368 27.409972 133.609056 40.451563 
L 130.655869 39.923652 
z
" style="fill:#0000ff;opacity:0.5;stroke:#0000ff;stroke-linecap:round;"/>
   </g>
   <g id="patch_8">
    <path clip-path="url(#p0de3d0d633)" d="M 131.76 173.845644 
C 138.308426 173.845644 144.589527 171.243926 149.219963 166.61349 
C 153.850399 161.983054 156.452116 155.701953 156.452116 149.153527 
C 156.452116 142.605101 153.850399 136.324001 149.219963 131.693564 
C 144.589527 127.063128 138.308426 124.461411 131.76 124.461411 
C 125.211574 124.461411 118.930473 127.063128 114.300037 131.693564 
C 109.669601 136.324001 107.067884 142.605101 107.067884 149.153527 
C 107.067884 155.701953 109.669601 161.983054 114.300037 166.61349 
C 118.930473 171.243926 125.211574 173.845644 131.76 173.845644 
z
" style="fill:#0000ff;opacity:0.3;stroke:#0000ff;stroke-linejoin:miter;"/>
   </g>
   <g id="patch_9">
    <path clip-path="url(#p0de3d0d633)" d="M 130.655869 208.653114 
Q 132.914108 196.020299 131.669804 183.389725 
L 129.430643 183.610316 
Q 130.947995 179.857857 132.132161 175.810705 
Q 134.644998 179.195512 136.894511 182.875011 
L 134.655351 183.095602 
Q 135.940368 196.139433 133.609056 209.181025 
L 130.655869 208.653114 
z
" style="fill:#0000ff;opacity:0.5;stroke:#000000;stroke-linecap:round;"/>
   </g>
   <g id="patch_10">
    <path clip-path="url(#p0de3d0d633)" d="M 155.627912 161.658732 
Q 165.439131 169.930832 176.999682 175.16852 
L 177.928224 173.119054 
Q 180.419273 176.309349 183.332126 179.358443 
Q 179.144379 179.84222 174.833083 179.950606 
L 175.761625 177.90114 
Q 163.822828 172.492082 153.694134 163.952311 
L 155.627912 161.658732 
z
" style="fill:#0000ff;opacity:0.5;stroke:#0000ff;stroke-linecap:round;"/>
   </g>
   <g id="text_1">
    <!-- $F$ -->
    <defs>
     <path d="M 4.6875 0 
Q 3.71875 0 3.71875 1.3125 
Q 3.765625 1.5625 3.90625 2.171875 
Q 4.046875 2.78125 4.3125 3.140625 
Q 4.59375 3.515625 4.984375 3.515625 
Q 11.078125 3.515625 13.484375 4.203125 
Q 14.796875 4.640625 15.375 6.890625 
L 29.109375 61.8125 
Q 29.296875 62.796875 29.296875 63.1875 
Q 29.296875 64.265625 28.078125 64.40625 
Q 26.21875 64.796875 20.90625 64.796875 
Q 19.921875 64.796875 19.921875 66.109375 
Q 19.96875 66.359375 20.109375 66.96875 
Q 20.265625 67.578125 20.53125 67.9375 
Q 20.796875 68.3125 21.1875 68.3125 
L 74.03125 68.3125 
Q 75 68.3125 75 67 
L 72.609375 46.296875 
Q 72.609375 46 72.265625 45.703125 
Q 71.921875 45.40625 71.578125 45.40625 
L 70.703125 45.40625 
Q 69.671875 45.40625 69.671875 46.6875 
Q 70.3125 51.21875 70.3125 54.109375 
Q 70.3125 59.078125 68.15625 61.421875 
Q 66.015625 63.765625 62.734375 64.28125 
Q 59.46875 64.796875 53.71875 64.796875 
L 43.015625 64.796875 
Q 40.28125 64.796875 39.40625 64.328125 
Q 38.53125 63.875 37.796875 61.375 
L 31.390625 35.890625 
L 38.921875 35.890625 
Q 42.625 35.890625 44.921875 36.28125 
Q 47.21875 36.671875 48.734375 37.796875 
Q 50.25 38.921875 51.25 41.046875 
Q 52.25 43.171875 53.078125 46.6875 
Q 53.375 47.609375 54.109375 47.609375 
L 54.984375 47.609375 
Q 56 47.609375 56 46.296875 
L 49.90625 21.578125 
Q 49.46875 20.703125 48.875 20.703125 
L 48 20.703125 
Q 47.015625 20.703125 47.015625 22.015625 
Q 47.265625 23.046875 47.40625 23.734375 
Q 47.5625 24.421875 47.78125 25.703125 
Q 48 27 48 27.984375 
Q 48 30.859375 45.453125 31.640625 
Q 42.921875 32.421875 38.8125 32.421875 
L 30.609375 32.421875 
L 24.125 6.5 
Q 23.875 5.515625 23.875 5.515625 
Q 23.875 4.34375 24.609375 4.203125 
Q 27.203125 3.515625 34.8125 3.515625 
Q 35.796875 3.515625 35.796875 2.203125 
Q 35.453125 0.78125 35.25 0.390625 
Q 35.0625 0 34.078125 0 
z
" id="Cmmi10-46"/>
    </defs>
    <g transform="translate(55.28 112.415)scale(0.16 -0.16)">
     <use transform="translate(0.0 0.6875)" xlink:href="#Cmmi10-46"/>
    </g>
   </g>
   <g id="text_2">
    <!-- $R$ -->
    <defs>
     <path d="M 4.890625 0 
Q 3.90625 0 3.90625 1.3125 
Q 3.953125 1.5625 4.09375 2.171875 
Q 4.25 2.78125 4.515625 3.140625 
Q 4.78125 3.515625 5.171875 3.515625 
Q 11.28125 3.515625 13.71875 4.203125 
Q 14.984375 4.640625 15.578125 6.890625 
L 29.296875 61.8125 
Q 29.5 62.796875 29.5 63.1875 
Q 29.5 64.265625 28.328125 64.40625 
Q 26.421875 64.796875 21.09375 64.796875 
Q 20.125 64.796875 20.125 66.109375 
Q 20.171875 66.359375 20.3125 66.96875 
Q 20.453125 67.578125 20.71875 67.9375 
Q 21 68.3125 21.390625 68.3125 
L 51.703125 68.3125 
Q 55.328125 68.3125 59.234375 67.484375 
Q 63.140625 66.65625 66.40625 64.875 
Q 69.671875 63.09375 71.765625 60.125 
Q 73.875 57.171875 73.875 53.21875 
Q 73.875 48.1875 70.546875 44.234375 
Q 67.234375 40.28125 62.15625 37.625 
Q 57.078125 34.96875 52.296875 33.890625 
Q 56.203125 32.46875 58.6875 29.359375 
Q 61.1875 26.265625 61.1875 22.21875 
Q 61.1875 21.6875 61.15625 21.40625 
Q 61.140625 21.140625 61.078125 20.796875 
L 60.296875 11.921875 
Q 60.203125 9.96875 60.109375 8.59375 
Q 60.015625 7.234375 60.015625 6.390625 
Q 60.015625 3.65625 60.8125 2.015625 
Q 61.625 0.390625 64.015625 0.390625 
Q 67.140625 0.390625 69.5 3.296875 
Q 71.875 6.203125 72.609375 9.625 
Q 73.046875 10.5 73.578125 10.5 
L 74.515625 10.5 
Q 75.484375 10.5 75.484375 9.1875 
Q 74.75 6.296875 73.15625 3.703125 
Q 71.578125 1.125 69.15625 -0.53125 
Q 66.75 -2.203125 63.921875 -2.203125 
Q 58.0625 -2.203125 53.9375 0.40625 
Q 49.8125 3.03125 49.8125 8.59375 
Q 49.8125 10.6875 50.203125 12.3125 
L 52.390625 21.1875 
Q 52.78125 22.40625 52.78125 24.03125 
Q 52.78125 28.171875 49.96875 30.53125 
Q 47.171875 32.90625 42.921875 32.90625 
L 30.609375 32.90625 
L 24.03125 6.5 
Q 23.78125 5.671875 23.78125 5.078125 
Q 23.78125 4.046875 25 3.90625 
Q 26.90625 3.515625 32.171875 3.515625 
Q 33.203125 3.515625 33.203125 2.203125 
Q 32.859375 0.78125 32.65625 0.390625 
Q 32.46875 0 31.5 0 
z
M 31.203125 35.5 
L 42.28125 35.5 
Q 53.171875 35.5 58.6875 41.015625 
Q 61.234375 43.5625 62.71875 47.484375 
Q 64.203125 51.421875 64.203125 55.328125 
Q 64.203125 59.03125 62.03125 61.125 
Q 59.859375 63.234375 56.65625 64.015625 
Q 53.46875 64.796875 49.609375 64.796875 
L 42.921875 64.796875 
Q 40.1875 64.796875 39.296875 64.328125 
Q 38.421875 63.875 37.703125 61.375 
z
" id="Cmmi10-52"/>
    </defs>
    <g transform="translate(125.68 71.2614728122)scale(0.16 -0.16)">
     <use transform="translate(0.0 0.6875)" xlink:href="#Cmmi10-52"/>
    </g>
   </g>
   <g id="text_3">
    <!-- $W$ -->
    <defs>
     <path d="M 17.828125 -1.125 
L 13.1875 62.59375 
Q 12.84375 64.0625 10.984375 64.421875 
Q 9.125 64.796875 6.390625 64.796875 
Q 5.421875 64.796875 5.421875 66.109375 
Q 5.765625 67.390625 5.953125 67.84375 
Q 6.15625 68.3125 7.078125 68.3125 
L 30.90625 68.3125 
Q 31.890625 68.3125 31.890625 67 
Q 31.5 64.796875 30.609375 64.796875 
Q 22.609375 64.796875 22.125 62.015625 
L 25.6875 11.53125 
L 50.6875 55.078125 
L 50.203125 62.59375 
Q 49.859375 64.0625 48 64.421875 
Q 46.140625 64.796875 43.40625 64.796875 
Q 42.390625 64.796875 42.390625 66.109375 
Q 42.71875 67.390625 42.90625 67.84375 
Q 43.109375 68.3125 44.09375 68.3125 
L 67.921875 68.3125 
Q 68.890625 68.3125 68.890625 67 
Q 68.84375 66.75 68.703125 66.15625 
Q 68.5625 65.578125 68.3125 65.1875 
Q 68.0625 64.796875 67.578125 64.796875 
Q 59.515625 64.796875 59.078125 62.015625 
L 59.078125 61.28125 
L 62.703125 11.53125 
L 89.890625 58.984375 
Q 90.484375 60.0625 90.484375 61.078125 
Q 90.484375 63.140625 88.46875 63.96875 
Q 86.46875 64.796875 83.984375 64.796875 
Q 83.015625 64.796875 83.015625 66.109375 
Q 83.203125 66.890625 83.328125 67.328125 
Q 83.453125 67.78125 83.765625 68.046875 
Q 84.078125 68.3125 84.71875 68.3125 
L 103.8125 68.3125 
Q 104.78125 68.3125 104.78125 67 
Q 104.734375 66.75 104.578125 66.140625 
Q 104.4375 65.53125 104.171875 65.15625 
Q 103.90625 64.796875 103.515625 64.796875 
Q 96.390625 64.796875 92.671875 58.296875 
Q 92.390625 58.015625 92.390625 58.015625 
L 58.5 -1.125 
Q 57.953125 -2.203125 56.78125 -2.203125 
L 56 -2.203125 
Q 54.78125 -2.203125 54.78125 -1.125 
L 50.984375 50.390625 
L 21.578125 -1.125 
Q 20.84375 -2.203125 19.828125 -2.203125 
L 19 -2.203125 
Q 17.828125 -2.203125 17.828125 -1.125 
" id="Cmmi10-57"/>
    </defs>
    <g transform="translate(124.16 153.568527188)scale(0.16 -0.16)">
     <use transform="translate(0.0 0.6875)" xlink:href="#Cmmi10-57"/>
    </g>
   </g>
  </g>
 </g>
 <defs>
  <clipPath id="p0de3d0d633">
   <rect height="216.0" width="216.0" x="0.0" y="0.0"/>
  </clipPath>
 </defs>
</svg>
