<?xml version="1.0" encoding="utf-8" standalone="no"?>
<!DOCTYPE svg PUBLIC "-//W3C//DTD SVG 1.1//EN"
  "http://www.w3.org/Graphics/SVG/1.1/DTD/svg11.dtd">
<!-- Created with matplotlib (http://matplotlib.org/) -->
<svg height="216pt" version="1.1" viewBox="0 0 216 216" width="216pt" xmlns="http://www.w3.org/2000/svg" xmlns:xlink="http://www.w3.org/1999/xlink">
 <defs>
  <style type="text/css">
*{stroke-linecap:butt;stroke-linejoin:round;}
  </style>
 </defs>
 <g id="figure_1">
  <g id="patch_1">
   <path d="M 0 216 
L 216 216 
L 216 0 
L 0 0 
z
" style="fill:none;"/>
  </g>
  <g id="axes_1">
   <g id="patch_2">
    <path clip-path="url(#p683d345c6d)" d="M 47.088 119.0592 
C 49.7517 119.0592 52.30666 118.007729 54.190181 116.13636 
C 56.073701 114.264991 57.132 111.726515 57.132 109.08 
C 57.132 106.433485 56.073701 103.895009 54.190181 102.02364 
C 52.30666 100.152271 49.7517 99.1008 47.088 99.1008 
C 44.4243 99.1008 41.86934 100.152271 39.985819 102.02364 
C 38.102299 103.895009 37.044 106.433485 37.044 109.08 
C 37.044 111.726515 38.102299 114.264991 39.985819 116.13636 
C 41.86934 118.007729 44.4243 119.0592 47.088 119.0592 
z
" style="fill:#0000ff;opacity:0.3;stroke:#0000ff;stroke-linejoin:miter;"/>
   </g>
   <g id="patch_3">
    <path clip-path="url(#p683d345c6d)" d="M 31.069895 97.005326 
Q 33.792765 100.193445 36.515636 103.381563 
Q 32.331418 103.646988 28.147201 103.912414 
z
" style="fill:#0000ff;opacity:0.5;stroke:#0000ff;stroke-linecap:round;"/>
   </g>
   <g id="patch_4">
    <path clip-path="url(#p683d345c6d)" d="M 39.502506 116.317514 
Q 35.375868 117.058448 31.249229 117.799381 
Q 33.132465 114.053511 35.015702 110.30764 
z
" style="fill:#0000ff;opacity:0.5;stroke:#0000ff;stroke-linecap:round;"/>
   </g>
   <g id="patch_5">
    <path clip-path="url(#p683d345c6d)" d="M 71.038567 69.646199 
C 73.702267 69.646199 76.257227 68.594728 78.140747 66.723359 
C 80.024268 64.851991 81.082567 62.313514 81.082567 59.666999 
C 81.082567 57.020485 80.024268 54.482008 78.140747 52.610639 
C 76.257227 50.739271 73.702267 49.687799 71.038567 49.687799 
C 68.374867 49.687799 65.819907 50.739271 63.936386 52.610639 
C 62.052866 54.482008 60.994567 57.020485 60.994567 59.666999 
C 60.994567 62.313514 62.052866 64.851991 63.936386 66.723359 
C 65.819907 68.594728 68.374867 69.646199 71.038567 69.646199 
z
" style="fill:#0000ff;opacity:0.3;stroke:#0000ff;stroke-linejoin:miter;"/>
   </g>
   <g id="patch_6">
    <path clip-path="url(#p683d345c6d)" d="M 70.538978 39.664852 
Q 69.735628 43.779795 68.932278 47.894738 
Q 66.122334 44.783092 63.31239 41.671447 
z
" style="fill:#0000ff;opacity:0.5;stroke:#0000ff;stroke-linecap:round;"/>
   </g>
   <g id="patch_7">
    <path clip-path="url(#p683d345c6d)" d="M 60.625068 58.291747 
Q 57.45825 55.544132 54.291432 52.796517 
Q 58.389615 51.911632 62.487798 51.026747 
z
" style="fill:#0000ff;opacity:0.5;stroke:#0000ff;stroke-linecap:round;"/>
   </g>
   <g id="patch_8">
    <path clip-path="url(#p683d345c6d)" d="M 124.855002 57.442196 
C 127.518702 57.442196 130.073662 56.390725 131.957182 54.519356 
C 133.840702 52.647988 134.899002 50.109511 134.899002 47.462996 
C 134.899002 44.816481 133.840702 42.278005 131.957182 40.406636 
C 130.073662 38.535268 127.518702 37.483796 124.855002 37.483796 
C 122.191302 37.483796 119.636341 38.535268 117.752821 40.406636 
C 115.869301 42.278005 114.811002 44.816481 114.811002 47.462996 
C 114.811002 50.109511 115.869301 52.647988 117.752821 54.519356 
C 119.636341 56.390725 122.191302 57.442196 124.855002 57.442196 
z
" style="fill:#0000ff;opacity:0.3;stroke:#0000ff;stroke-linejoin:miter;"/>
   </g>
   <g id="patch_9">
    <path clip-path="url(#p683d345c6d)" d="M 140.252373 34.643952 
Q 136.526819 36.567067 132.801265 38.490182 
Q 133.498105 34.355869 134.194946 30.221557 
z
" style="fill:#0000ff;opacity:0.5;stroke:#0000ff;stroke-linecap:round;"/>
   </g>
   <g id="patch_10">
    <path clip-path="url(#p683d345c6d)" d="M 119.467395 38.561453 
Q 119.644823 34.372581 119.822251 30.18371 
Q 123.066892 32.838975 126.311532 35.494241 
z
" style="fill:#0000ff;opacity:0.5;stroke:#0000ff;stroke-linecap:round;"/>
   </g>
   <g id="patch_11">
    <path clip-path="url(#p683d345c6d)" d="M 168.012432 91.637053 
C 170.676132 91.637053 173.231092 90.585582 175.114612 88.714213 
C 176.998132 86.842845 178.056432 84.304368 178.056432 81.657853 
C 178.056432 79.011339 176.998132 76.472862 175.114612 74.601493 
C 173.231092 72.730125 170.676132 71.678653 168.012432 71.678653 
C 165.348732 71.678653 162.793771 72.730125 160.910251 74.601493 
C 159.026731 76.472862 157.968432 79.011339 157.968432 81.657853 
C 157.968432 84.304368 159.026731 86.842845 160.910251 88.714213 
C 162.793771 90.585582 165.348732 91.637053 168.012432 91.637053 
z
" style="fill:#0000ff;opacity:0.3;stroke:#0000ff;stroke-linejoin:miter;"/>
   </g>
   <g id="patch_12">
    <path clip-path="url(#p683d345c6d)" d="M 187.686119 85.63124 
Q 183.853028 83.932552 180.019937 82.233865 
Q 183.678741 80.186605 187.337545 78.139344 
z
" style="fill:#0000ff;opacity:0.5;stroke:#0000ff;stroke-linecap:round;"/>
   </g>
   <g id="patch_13">
    <path clip-path="url(#p683d345c6d)" d="M 171.675715 71.891222 
Q 175.07327 69.434652 178.470826 66.978081 
Q 178.397549 71.170068 178.324273 75.362055 
z
" style="fill:#0000ff;opacity:0.5;stroke:#0000ff;stroke-linecap:round;"/>
   </g>
   <g id="patch_14">
    <path clip-path="url(#p683d345c6d)" d="M 168.012432 146.481347 
C 170.676132 146.481347 173.231092 145.429875 175.114612 143.558507 
C 176.998132 141.687138 178.056432 139.148661 178.056432 136.502147 
C 178.056432 133.855632 176.998132 131.317155 175.114612 129.445787 
C 173.231092 127.574418 170.676132 126.522947 168.012432 126.522947 
C 165.348732 126.522947 162.793771 127.574418 160.910251 129.445787 
C 159.026731 131.317155 157.968432 133.855632 157.968432 136.502147 
C 157.968432 139.148661 159.026731 141.687138 160.910251 143.558507 
C 162.793771 145.429875 165.348732 146.481347 168.012432 146.481347 
z
" style="fill:#0000ff;opacity:0.3;stroke:#0000ff;stroke-linejoin:miter;"/>
   </g>
   <g id="patch_15">
    <path clip-path="url(#p683d345c6d)" d="M 178.014994 133.248835 
Q 182.057381 134.361144 186.099768 135.473454 
Q 182.784488 138.039978 179.469208 140.606502 
z
" style="fill:#0000ff;opacity:0.5;stroke:#0000ff;stroke-linecap:round;"/>
   </g>
   <g id="patch_16">
    <path clip-path="url(#p683d345c6d)" d="M 124.855002 180.676204 
C 127.518702 180.676204 130.073662 179.624732 131.957182 177.753364 
C 133.840702 175.881995 134.899002 173.343519 134.899002 170.697004 
C 134.899002 168.050489 133.840702 165.512012 131.957182 163.640644 
C 130.073662 161.769275 127.518702 160.717804 124.855002 160.717804 
C 122.191302 160.717804 119.636341 161.769275 117.752821 163.640644 
C 115.869301 165.512012 114.811002 168.050489 114.811002 170.697004 
C 114.811002 173.343519 115.869301 175.881995 117.752821 177.753364 
C 119.636341 179.624732 122.191302 180.676204 124.855002 180.676204 
z
" style="fill:#0000ff;opacity:0.3;stroke:#0000ff;stroke-linejoin:miter;"/>
   </g>
   <g id="patch_17">
    <path clip-path="url(#p683d345c6d)" d="M 133.612346 176.40597 
Q 135.276551 180.254158 136.940755 184.102346 
Q 132.863683 183.124797 128.78661 182.147248 
z
" style="fill:#0000ff;opacity:0.5;stroke:#0000ff;stroke-linecap:round;"/>
   </g>
   <g id="patch_18">
    <path clip-path="url(#p683d345c6d)" d="M 71.038567 168.472201 
C 73.702267 168.472201 76.257227 167.420729 78.140747 165.549361 
C 80.024268 163.677992 81.082567 161.139515 81.082567 158.493001 
C 81.082567 155.846486 80.024268 153.308009 78.140747 151.436641 
C 76.257227 149.565272 73.702267 148.513801 71.038567 148.513801 
C 68.374867 148.513801 65.819907 149.565272 63.936386 151.436641 
C 62.052866 153.308009 60.994567 155.846486 60.994567 158.493001 
C 60.994567 161.139515 62.052866 163.677992 63.936386 165.549361 
C 65.819907 167.420729 68.374867 168.472201 71.038567 168.472201 
z
" style="fill:#0000ff;opacity:0.3;stroke:#0000ff;stroke-linejoin:miter;"/>
   </g>
   <g id="patch_19">
    <path clip-path="url(#p683d345c6d)" d="M 72.002818 168.845863 
Q 70.01519 172.537401 68.027561 176.22894 
Q 66.266907 172.423914 64.506253 168.618889 
z
" style="fill:#0000ff;opacity:0.5;stroke:#0000ff;stroke-linecap:round;"/>
   </g>
   <g id="patch_20">
    <path clip-path="url(#p683d345c6d)" d="M 83.005294 156.266314 
Q 117.499855 155.130591 149.444356 142.642756 
L 148.625151 140.547188 
Q 152.72562 140.958057 156.921898 141.18464 
Q 154.216802 144.400159 151.355835 147.532413 
L 150.53663 145.436845 
Q 118.112872 158.112033 83.104015 159.264689 
L 83.005294 156.266314 
z
" style="fill:#0000ff;opacity:0.5;stroke:#0000ff;stroke-linecap:round;"/>
   </g>
   <g id="patch_21">
    <path clip-path="url(#p683d345c6d)" d="M 113.108963 167.543452 
Q 102.08677 162.771538 90.326128 161.12627 
L 90.014397 163.354571 
Q 86.734016 160.999155 83.073469 158.910333 
Q 86.945244 157.248677 91.053499 155.926902 
L 90.741768 158.155202 
Q 102.905324 159.856836 114.300867 164.790388 
L 113.108963 167.543452 
z
" style="fill:#0000ff;opacity:0.5;stroke:#0000ff;stroke-linecap:round;"/>
   </g>
   <g id="patch_22">
    <path clip-path="url(#p683d345c6d)" d="M 134.669514 163.533674 
Q 145.262803 157.958912 153.892612 149.859862 
L 152.352874 148.21922 
Q 156.246661 147.140747 160.171191 145.597512 
Q 159.035479 149.657387 157.485334 153.688028 
L 155.945596 152.047385 
Q 147.019497 160.424502 136.066625 166.188496 
L 134.669514 163.533674 
z
" style="fill:#0000ff;opacity:0.5;stroke:#0000ff;stroke-linecap:round;"/>
   </g>
   <g id="patch_23">
    <path clip-path="url(#p683d345c6d)" d="M 56.299454 116.990139 
Q 78.75561 143.07921 108.434161 160.091043 
L 109.553083 158.13899 
Q 111.80422 161.591243 114.259485 165.002471 
Q 110.057881 164.911189 105.823341 164.645834 
L 106.942264 162.693781 
Q 76.817455 145.426152 54.025741 118.947236 
L 56.299454 116.990139 
z
" style="fill:#0000ff;opacity:0.5;stroke:#0000ff;stroke-linecap:round;"/>
   </g>
   <g id="patch_24">
    <path clip-path="url(#p683d345c6d)" d="M 156.045704 138.728833 
Q 121.551143 139.864556 89.606642 152.352392 
L 90.425847 154.447959 
Q 86.325378 154.03709 82.1291 153.810507 
Q 84.834196 150.594988 87.695164 147.462734 
L 88.514369 149.558302 
Q 120.938126 136.883114 155.946983 135.730458 
L 156.045704 138.728833 
z
" style="fill:#0000ff;opacity:0.5;stroke:#0000ff;stroke-linecap:round;"/>
   </g>
   <g id="patch_25">
    <path clip-path="url(#p683d345c6d)" d="M 58.840936 112.233819 
Q 101.882818 131.169018 148.585753 134.051012 
L 148.724335 131.805284 
Q 152.291049 133.904305 155.984152 135.90696 
Q 152.163193 137.652837 148.262395 139.291045 
L 148.400977 137.045317 
Q 101.164279 134.130385 57.632893 114.97984 
L 58.840936 112.233819 
z
" style="fill:#0000ff;opacity:0.5;stroke:#0000ff;stroke-linecap:round;"/>
   </g>
   <g id="patch_26">
    <path clip-path="url(#p683d345c6d)" d="M 158.19792 143.665477 
Q 147.60463 149.240238 138.974821 157.339288 
L 140.514559 158.979931 
Q 136.620772 160.058404 132.696242 161.601638 
Q 133.831954 157.541763 135.382099 153.511123 
L 136.921837 155.151765 
Q 145.847936 146.774648 156.800809 141.010655 
L 158.19792 143.665477 
z
" style="fill:#0000ff;opacity:0.5;stroke:#0000ff;stroke-linecap:round;"/>
   </g>
   <g id="patch_27">
    <path clip-path="url(#p683d345c6d)" d="M 124.36877 59.566499 
Q 115.484966 105.409833 122.939614 151.273399 
L 125.160468 150.912422 
Q 123.901329 154.855042 122.764904 158.900271 
Q 120.21729 155.55914 117.757619 152.115678 
L 119.978474 151.754701 
Q 112.438096 105.363695 121.423561 58.995759 
L 124.36877 59.566499 
z
" style="fill:#0000ff;opacity:0.5;stroke:#0000ff;stroke-linecap:round;"/>
   </g>
   <g id="patch_28">
    <path clip-path="url(#p683d345c6d)" d="M 167.525566 93.750589 
Q 165.329582 105.446296 166.306977 117.170687 
L 168.549199 116.983766 
Q 166.974431 120.702424 165.745839 124.73499 
Q 163.269842 121.324809 161.075125 117.606837 
L 163.317347 117.419916 
Q 162.306256 105.291325 164.577088 93.196984 
L 167.525566 93.750589 
z
" style="fill:#0000ff;opacity:0.5;stroke:#0000ff;stroke-linecap:round;"/>
   </g>
   <g id="patch_29">
    <path clip-path="url(#p683d345c6d)" d="M 129.699039 58.563454 
Q 138.561571 91.708617 157.833033 119.834934 
L 159.689139 118.563176 
Q 160.217807 122.65311 160.948982 126.794929 
Q 157.202426 124.884541 153.502118 122.802371 
L 155.358225 121.530612 
Q 135.796182 92.980199 126.800853 59.338387 
L 129.699039 58.563454 
z
" style="fill:#0000ff;opacity:0.5;stroke:#0000ff;stroke-linecap:round;"/>
   </g>
   <g id="patch_30">
    <path clip-path="url(#p683d345c6d)" d="M 80.25104 67.579096 
Q 110.800554 103.169915 151.562138 125.90453 
L 152.658122 123.939506 
Q 154.96698 127.374593 157.431844 130.777339 
Q 153.23109 130.69943 149.004841 130.489585 
L 150.100826 128.524562 
Q 108.872347 105.529538 77.974633 69.533059 
L 80.25104 67.579096 
z
" style="fill:#0000ff;opacity:0.5;stroke:#0000ff;stroke-linecap:round;"/>
   </g>
   <g id="text_1">
    <!-- $C_{1}$ -->
    <defs>
     <path d="M 74.703125 69.109375 
C 74.703125 70 74 70 73.796875 70 
C 73.59375 70 73.203125 70 72.40625 69 
L 65.5 60.65625 
C 62 66.625 56.5 70 49 70 
C 27.40625 70 5 48.25 5 24.921875 
C 5 8.328125 16.703125 -2 31.296875 -2 
C 39.296875 -2 46.296875 1.375 52.09375 6.25 
C 60.796875 13.484375 63.40625 23.140625 63.40625 23.921875 
C 63.40625 24.8125 62.59375 24.8125 62.296875 24.8125 
C 61.40625 24.8125 61.296875 24.21875 61.09375 23.8125 
C 56.5 8.34375 43 0.890625 33 0.890625 
C 22.40625 0.890625 13.203125 7.640625 13.203125 21.734375 
C 13.203125 24.921875 14.203125 42.1875 25.5 55.1875 
C 31 61.546875 40.40625 67.109375 49.90625 67.109375 
C 60.90625 67.109375 65.796875 58.078125 65.796875 47.9375 
C 65.796875 45.359375 65.5 43.1875 65.5 42.78125 
C 65.5 41.890625 66.5 41.890625 66.796875 41.890625 
C 67.90625 41.890625 68 41.984375 68.40625 43.765625 
z
" id="CMMI12-67"/>
     <path d="M 26.59375 63.40625 
C 26.59375 65.5 26.5 65.5 25.09375 65.5 
C 21.203125 61.1875 15.296875 59.796875 9.703125 59.796875 
C 9.40625 59.796875 8.90625 59.796875 8.796875 59.5 
C 8.703125 59.296875 8.703125 59.09375 8.703125 57 
C 11.796875 57 17 57.59375 21 59.984375 
L 21 7.203125 
C 21 3.6875 20.796875 2.5 12.203125 2.5 
L 9.203125 2.5 
L 9.203125 0 
C 14 0 19 0 23.796875 0 
C 28.59375 0 33.59375 0 38.40625 0 
L 38.40625 2.5 
L 35.40625 2.5 
C 26.796875 2.5 26.59375 3.59375 26.59375 7.15625 
z
" id="CMR17-49"/>
    </defs>
    <g transform="translate(38.715101 113.065056)scale(0.16 -0.16)">
     <use transform="translate(0 14.943915)scale(0.996264)" xlink:href="#CMMI12-67"/>
     <use transform="translate(69.792037 0)scale(0.697382)" xlink:href="#CMR17-49"/>
    </g>
   </g>
   <g id="text_2">
    <!-- $C_{2}$ -->
    <defs>
     <path d="M 41.703125 15.453125 
L 39.90625 15.453125 
C 38.90625 8.375 38.09375 7.171875 37.703125 6.5625 
C 37.203125 5.765625 30 5.765625 28.59375 5.765625 
L 9.40625 5.765625 
C 13 9.671875 20 16.75 28.5 24.953125 
C 34.59375 30.734375 41.703125 37.53125 41.703125 47.421875 
C 41.703125 59.21875 32.296875 66 21.796875 66 
C 10.796875 66 4.09375 56.3125 4.09375 47.34375 
C 4.09375 43.4375 7 42.9375 8.203125 42.9375 
C 9.203125 42.9375 12.203125 43.546875 12.203125 47.03125 
C 12.203125 50.109375 9.59375 51 8.203125 51 
C 7.59375 51 7 50.90625 6.59375 50.703125 
C 8.5 59.21875 14.296875 63.40625 20.40625 63.40625 
C 29.09375 63.40625 34.796875 56.515625 34.796875 47.421875 
C 34.796875 38.734375 29.703125 31.25 24 24.75 
L 4.09375 2.28125 
L 4.09375 0 
L 39.296875 0 
z
" id="CMR17-50"/>
    </defs>
    <g transform="translate(62.665668 63.652055)scale(0.16 -0.16)">
     <use transform="translate(0 14.943915)scale(0.996264)" xlink:href="#CMMI12-67"/>
     <use transform="translate(69.792037 0)scale(0.697382)" xlink:href="#CMR17-50"/>
    </g>
   </g>
   <g id="text_3">
    <!-- $C_{3}$ -->
    <defs>
     <path d="M 22.09375 33.703125 
C 31 33.703125 34.90625 25.96875 34.90625 17.03125 
C 34.90625 5 28.5 0.390625 22.703125 0.390625 
C 17.40625 0.390625 8.796875 3.03125 6.09375 10.828125 
C 6.59375 10.625 7.09375 10.625 7.59375 10.625 
C 10 10.625 11.796875 12.21875 11.796875 14.8125 
C 11.796875 17.703125 9.59375 19 7.59375 19 
C 5.90625 19 3.296875 18.203125 3.296875 14.46875 
C 3.296875 5.234375 12.296875 -2 22.90625 -2 
C 34 -2 42.5 6.71875 42.5 16.953125 
C 42.5 26.671875 34.5 33.703125 25 34.796875 
C 32.59375 36.375 39.90625 43.0625 39.90625 52.015625 
C 39.90625 59.6875 32 65.296875 23 65.296875 
C 13.90625 65.296875 5.90625 59.828125 5.90625 52.015625 
C 5.90625 48.59375 8.5 48 9.796875 48 
C 11.90625 48 13.703125 49.296875 13.703125 51.890625 
C 13.703125 54.46875 11.90625 55.765625 9.796875 55.765625 
C 9.40625 55.765625 8.90625 55.765625 8.5 55.578125 
C 11.40625 61.859375 19.296875 63 22.796875 63 
C 26.296875 63 32.90625 61.328125 32.90625 51.875 
C 32.90625 49.109375 32.5 44.1875 29.09375 39.84375 
C 26.09375 36 22.703125 36 19.40625 35.6875 
C 18.90625 35.6875 16.59375 35.453125 16.203125 35.453125 
C 15.5 35.359375 15.09375 35.265625 15.09375 34.5 
C 15.09375 33.796875 15.203125 33.703125 17.203125 33.703125 
z
" id="CMR17-51"/>
    </defs>
    <g transform="translate(116.482103 51.448052)scale(0.16 -0.16)">
     <use transform="translate(0 14.943915)scale(0.996264)" xlink:href="#CMMI12-67"/>
     <use transform="translate(69.792037 0)scale(0.697382)" xlink:href="#CMR17-51"/>
    </g>
   </g>
   <g id="text_4">
    <!-- $C_{4}$ -->
    <defs>
     <path d="M 33.59375 64.40625 
C 33.59375 66.5 33.5 66.5 31.703125 66.5 
L 2 19.59375 
L 2 17 
L 27.796875 17 
L 27.796875 7.140625 
C 27.796875 3.5 27.59375 2.5 20.59375 2.5 
L 18.703125 2.5 
L 18.703125 0 
C 21.90625 0 27.296875 0 30.703125 0 
C 34.09375 0 39.5 0 42.703125 0 
L 42.703125 2.5 
L 40.796875 2.5 
C 33.796875 2.5 33.59375 3.5 33.59375 7.140625 
L 33.59375 17 
L 43.796875 17 
L 43.796875 19.59375 
L 33.59375 19.59375 
z
M 28.09375 57.859375 
L 28.09375 19.59375 
L 4 19.59375 
z
" id="CMR17-52"/>
    </defs>
    <g transform="translate(159.639533 85.64291)scale(0.16 -0.16)">
     <use transform="translate(0 14.943915)scale(0.996264)" xlink:href="#CMMI12-67"/>
     <use transform="translate(69.792037 0)scale(0.697382)" xlink:href="#CMR17-52"/>
    </g>
   </g>
   <g id="text_5">
    <!-- $C_{5}$ -->
    <defs>
     <path d="M 11.40625 57.6875 
C 12.40625 57.28125 16.5 56 20.703125 56 
C 30 56 35.09375 61.109375 38 64.0625 
C 38 64.953125 38 65.5 37.40625 65.5 
C 37.296875 65.5 37.09375 65.5 36.296875 65.046875 
C 32.796875 63.40625 28.703125 62.078125 23.703125 62.078125 
C 20.703125 62.078125 16.203125 62.484375 11.296875 64.671875 
C 10.203125 65.171875 10 65.171875 9.90625 65.171875 
C 9.40625 65.171875 9.296875 65.0625 9.296875 63.078125 
L 9.296875 34.421875 
C 9.296875 32.640625 9.296875 32.140625 10.296875 32.140625 
C 10.796875 32.140625 11 32.34375 11.5 33.03125 
C 14.703125 37.515625 19.09375 39.40625 24.09375 39.40625 
C 27.59375 39.40625 35.09375 37.21875 35.09375 20.140625 
C 35.09375 16.953125 35.09375 11.171875 32.09375 6.578125 
C 29.59375 2.484375 25.703125 0.390625 21.40625 0.390625 
C 14.796875 0.390625 8.09375 5 6.296875 12.71875 
C 6.703125 12.609375 7.5 12.421875 7.90625 12.421875 
C 9.203125 12.421875 11.703125 13.125 11.703125 16.21875 
C 11.703125 18.90625 9.796875 20 7.90625 20 
C 5.59375 20 4.09375 18.59375 4.09375 15.796875 
C 4.09375 7.09375 11 -2 21.59375 -2 
C 31.90625 -2 41.703125 6.875 41.703125 19.75 
C 41.703125 31.71875 33.90625 41 24.203125 41 
C 19.09375 41 14.796875 39.109375 11.40625 35.53125 
z
" id="CMR17-53"/>
    </defs>
    <g transform="translate(159.639533 140.487203)scale(0.16 -0.16)">
     <use transform="translate(0 14.943915)scale(0.996264)" xlink:href="#CMMI12-67"/>
     <use transform="translate(69.792037 0)scale(0.697382)" xlink:href="#CMR17-53"/>
    </g>
   </g>
   <g id="text_6">
    <!-- $C_{6}$ -->
    <defs>
     <path d="M 10.59375 34 
C 10.59375 57.65625 21.796875 63 28.296875 63 
C 30.40625 63 35.5 62.640625 37.5 59 
C 35.90625 59 32.90625 59 32.90625 55.515625 
C 32.90625 52.828125 35.09375 51.921875 36.5 51.921875 
C 37.40625 51.921875 40.09375 52.3125 40.09375 55.625 
C 40.09375 61.78125 35.09375 65.296875 28.203125 65.296875 
C 16.296875 65.296875 3.796875 52.96875 3.796875 31 
C 3.796875 3.953125 15.09375 -2 23.09375 -2 
C 32.796875 -2 42 6.671875 42 20.046875 
C 42 32.515625 33.90625 41.59375 23.703125 41.59375 
C 17.59375 41.59375 13.09375 37.609375 10.59375 30.625 
z
M 23.09375 0.390625 
C 10.796875 0.390625 10.796875 18.75 10.796875 22.4375 
C 10.796875 29.625 14.203125 40 23.5 40 
C 25.203125 40 30.09375 40 33.40625 33.125 
C 35.203125 29.21875 35.203125 25.140625 35.203125 20.140625 
C 35.203125 14.75 35.203125 10.78125 33.09375 6.78125 
C 30.90625 2.671875 27.703125 0.390625 23.09375 0.390625 
z
" id="CMR17-54"/>
    </defs>
    <g transform="translate(116.482103 174.68206)scale(0.16 -0.16)">
     <use transform="translate(0 14.943915)scale(0.996264)" xlink:href="#CMMI12-67"/>
     <use transform="translate(69.792037 0)scale(0.697382)" xlink:href="#CMR17-54"/>
    </g>
   </g>
   <g id="text_7">
    <!-- $C_{7}$ -->
    <defs>
     <path d="M 45.09375 61.578125 
L 45.09375 63.765625 
L 21.59375 63.765625 
C 9.90625 63.765625 9.703125 65.078125 9.296875 67 
L 7.5 67 
L 4.59375 48.34375 
L 6.40625 48.34375 
C 6.703125 50.234375 7.40625 55.3125 8.59375 57.203125 
C 9.203125 58 16.59375 58 18.296875 58 
L 40.296875 58 
L 29.203125 41.578125 
C 21.796875 30.53125 16.703125 15.609375 16.703125 2.578125 
C 16.703125 1.390625 16.703125 -2 20.296875 -2 
C 23.90625 -2 23.90625 1.390625 23.90625 2.671875 
L 23.90625 7.265625 
C 23.90625 23.5625 26.703125 34.3125 31.296875 41.1875 
z
" id="CMR17-55"/>
    </defs>
    <g transform="translate(62.665668 162.478057)scale(0.16 -0.16)">
     <use transform="translate(0 14.943915)scale(0.996264)" xlink:href="#CMMI12-67"/>
     <use transform="translate(69.792037 0)scale(0.697382)" xlink:href="#CMR17-55"/>
    </g>
   </g>
  </g>
 </g>
 <defs>
  <clipPath id="p683d345c6d">
   <rect height="166.32" width="167.4" x="27" y="25.92"/>
  </clipPath>
 </defs>
</svg>
