<?xml version="1.0" encoding="utf-8" standalone="no"?>
<!DOCTYPE svg PUBLIC "-//W3C//DTD SVG 1.1//EN"
  "http://www.w3.org/Graphics/SVG/1.1/DTD/svg11.dtd">
<!-- Created with matplotlib (https://matplotlib.org/) -->
<svg height="216pt" version="1.1" viewBox="0 0 216 216" width="216pt" xmlns="http://www.w3.org/2000/svg" xmlns:xlink="http://www.w3.org/1999/xlink">
 <defs>
  <style type="text/css">
*{stroke-linecap:butt;stroke-linejoin:round;}
  </style>
 </defs>
 <g id="figure_1">
  <g id="patch_1">
   <path d="M 0 216 
L 216 216 
L 216 0 
L 0 0 
z
" style="fill:none;"/>
  </g>
  <g id="axes_1">
   <g id="patch_2">
    <path clip-path="url(#pe8cc7caac5)" d="M 53.784 122.3856 
C 57.3356 122.3856 60.742214 120.983638 63.253574 118.48848 
C 65.764934 115.993322 67.176 112.608686 67.176 109.08 
C 67.176 105.551314 65.764934 102.166678 63.253574 99.67152 
C 60.742214 97.176362 57.3356 95.7744 53.784 95.7744 
C 50.2324 95.7744 46.825786 97.176362 44.314426 99.67152 
C 41.803066 102.166678 40.392 105.551314 40.392 109.08 
C 40.392 112.608686 41.803066 115.993322 44.314426 118.48848 
C 46.825786 120.983638 50.2324 122.3856 53.784 122.3856 
z
" style="fill:#0000ff;opacity:0.3;stroke:#0000ff;stroke-linejoin:miter;"/>
   </g>
   <g id="patch_3">
    <path clip-path="url(#pe8cc7caac5)" d="M 33.04957 95.860932 
Q 33.784721 96.432651 34.546127 96.958055 
L 35.824014 95.106163 
Q 37.497856 98.5678 40.306783 101.737015 
Q 36.084524 102.091618 31.564389 101.279136 
L 32.842276 99.427244 
Q 32.010511 98.853289 31.207879 98.22909 
L 33.04957 95.860932 
z
" style="fill:#0000ff;opacity:0.5;stroke:#0000ff;stroke-linecap:round;"/>
   </g>
   <g id="patch_4">
    <path clip-path="url(#pe8cc7caac5)" d="M 40.868986 117.813652 
Q 40.004337 118.159619 39.166415 118.55163 
L 40.119866 120.589627 
Q 36.286714 120.286942 32.132949 121.111704 
Q 33.958411 117.287975 36.941695 113.796305 
L 37.895146 115.834301 
Q 38.8105 115.406064 39.754517 115.028341 
L 40.868986 117.813652 
z
" style="fill:#ff0000;opacity:0.5;stroke:#ff0000;stroke-linecap:round;"/>
   </g>
   <g id="patch_5">
    <path clip-path="url(#pe8cc7caac5)" d="M 82.242 73.412903 
C 85.7936 73.412903 89.200214 72.010941 91.711574 69.515783 
C 94.222934 67.020625 95.634 63.635989 95.634 60.107303 
C 95.634 56.578616 94.222934 53.193981 91.711574 50.698823 
C 89.200214 48.203665 85.7936 46.801703 82.242 46.801703 
C 78.6904 46.801703 75.283786 48.203665 72.772426 50.698823 
C 70.261066 53.193981 68.85 56.578616 68.85 60.107303 
C 68.85 63.635989 70.261066 67.020625 72.772426 69.515783 
C 75.283786 72.010941 78.6904 73.412903 82.242 73.412903 
z
" style="fill:#0000ff;opacity:0.3;stroke:#0000ff;stroke-linejoin:miter;"/>
   </g>
   <g id="patch_6">
    <path clip-path="url(#pe8cc7caac5)" d="M 139.158 73.412903 
C 142.7096 73.412903 146.116214 72.010941 148.627574 69.515783 
C 151.138934 67.020625 152.55 63.635989 152.55 60.107303 
C 152.55 56.578616 151.138934 53.193981 148.627574 50.698823 
C 146.116214 48.203665 142.7096 46.801703 139.158 46.801703 
C 135.6064 46.801703 132.199786 48.203665 129.688426 50.698823 
C 127.177066 53.193981 125.766 56.578616 125.766 60.107303 
C 125.766 63.635989 127.177066 67.020625 129.688426 69.515783 
C 132.199786 72.010941 135.6064 73.412903 139.158 73.412903 
z
" style="fill:#0000ff;opacity:0.3;stroke:#0000ff;stroke-linejoin:miter;"/>
   </g>
   <g id="patch_7">
    <path clip-path="url(#pe8cc7caac5)" d="M 138.008554 44.620877 
Q 138.133675 43.731742 138.20905 42.842864 
L 135.967096 42.652752 
Q 138.14146 39.482488 139.494073 35.469003 
Q 141.901943 38.95612 143.440276 43.286459 
L 141.198322 43.096347 
Q 141.115948 44.067764 140.979284 45.038926 
L 138.008554 44.620877 
z
" style="fill:#0000ff;opacity:0.5;stroke:#0000ff;stroke-linecap:round;"/>
   </g>
   <g id="patch_8">
    <path clip-path="url(#pe8cc7caac5)" d="M 167.616 122.3856 
C 171.1676 122.3856 174.574214 120.983638 177.085574 118.48848 
C 179.596934 115.993322 181.008 112.608686 181.008 109.08 
C 181.008 105.551314 179.596934 102.166678 177.085574 99.67152 
C 174.574214 97.176362 171.1676 95.7744 167.616 95.7744 
C 164.0644 95.7744 160.657786 97.176362 158.146426 99.67152 
C 155.635066 102.166678 154.224 105.551314 154.224 109.08 
C 154.224 112.608686 155.635066 115.993322 158.146426 118.48848 
C 160.657786 120.983638 164.0644 122.3856 167.616 122.3856 
z
" style="fill:#0000ff;opacity:0.3;stroke:#0000ff;stroke-linejoin:miter;"/>
   </g>
   <g id="patch_9">
    <path clip-path="url(#pe8cc7caac5)" d="M 180.531014 100.346348 
Q 181.395663 100.000381 182.233585 99.60837 
L 181.280134 97.570373 
Q 185.113286 97.873058 189.267051 97.048296 
Q 187.441589 100.872025 184.458305 104.363695 
L 183.504854 102.325699 
Q 182.5895 102.753936 181.645483 103.131659 
L 180.531014 100.346348 
z
" style="fill:#0000ff;opacity:0.5;stroke:#0000ff;stroke-linecap:round;"/>
   </g>
   <g id="patch_10">
    <path clip-path="url(#pe8cc7caac5)" d="M 139.158 171.358297 
C 142.7096 171.358297 146.116214 169.956335 148.627574 167.461177 
C 151.138934 164.966019 152.55 161.581384 152.55 158.052697 
C 152.55 154.524011 151.138934 151.139375 148.627574 148.644217 
C 146.116214 146.149059 142.7096 144.747097 139.158 144.747097 
C 135.6064 144.747097 132.199786 146.149059 129.688426 148.644217 
C 127.177066 151.139375 125.766 154.524011 125.766 158.052697 
C 125.766 161.581384 127.177066 164.966019 129.688426 167.461177 
C 132.199786 169.956335 135.6064 171.358297 139.158 171.358297 
z
" style="fill:#0000ff;opacity:0.3;stroke:#0000ff;stroke-linejoin:miter;"/>
   </g>
   <g id="patch_11">
    <path clip-path="url(#pe8cc7caac5)" d="M 153.217007 164.79203 
Q 153.952158 165.363749 154.713563 165.889152 
L 155.991451 164.03726 
Q 157.665292 167.498897 160.47422 170.668112 
Q 156.25196 171.022715 151.731825 170.210233 
L 153.009713 168.358341 
Q 152.177947 167.784386 151.375315 167.160187 
L 153.217007 164.79203 
z
" style="fill:#0000ff;opacity:0.5;stroke:#0000ff;stroke-linecap:round;"/>
   </g>
   <g id="patch_12">
    <path clip-path="url(#pe8cc7caac5)" d="M 82.242 171.358297 
C 85.7936 171.358297 89.200214 169.956335 91.711574 167.461177 
C 94.222934 164.966019 95.634 161.581384 95.634 158.052697 
C 95.634 154.524011 94.222934 151.139375 91.711574 148.644217 
C 89.200214 146.149059 85.7936 144.747097 82.242 144.747097 
C 78.6904 144.747097 75.283786 146.149059 72.772426 148.644217 
C 70.261066 151.139375 68.85 154.524011 68.85 158.052697 
C 68.85 161.581384 70.261066 164.966019 72.772426 167.461177 
C 75.283786 169.956335 78.6904 171.358297 82.242 171.358297 
z
" style="fill:#0000ff;opacity:0.3;stroke:#0000ff;stroke-linejoin:miter;"/>
   </g>
   <g id="patch_13">
    <path clip-path="url(#pe8cc7caac5)" d="M 83.391446 173.539123 
Q 83.266325 174.428258 83.19095 175.317136 
L 85.432904 175.507248 
Q 83.25854 178.677512 81.905927 182.690997 
Q 79.498057 179.20388 77.959724 174.873541 
L 80.201678 175.063653 
Q 80.284052 174.092236 80.420716 173.121074 
L 83.391446 173.539123 
z
" style="fill:#ff0000;opacity:0.5;stroke:#ff0000;stroke-linecap:round;"/>
   </g>
   <g id="patch_14">
    <path clip-path="url(#pe8cc7caac5)" d="M 62.420328 96.263628 
Q 68.675433 89.125285 72.92835 80.769963 
L 70.923165 79.74931 
Q 74.208143 77.438666 77.339247 74.611602 
Q 77.706833 78.812524 77.607115 83.151487 
L 75.60193 82.130833 
Q 71.178897 90.820368 64.676639 98.240762 
L 62.420328 96.263628 
z
" style="fill:#ff0000;opacity:0.5;stroke:#ff0000;stroke-linecap:round;"/>
   </g>
   <g id="patch_15">
    <path clip-path="url(#pe8cc7caac5)" d="M 69.256941 110.078505 
Q 107.033973 117.417381 144.850662 111.593053 
L 144.508167 109.369273 
Q 148.428126 110.663162 152.470237 111.81243 
Q 149.120713 114.349683 145.649817 116.781873 
L 145.307322 114.558093 
Q 106.974499 120.461913 68.684832 113.023448 
L 69.256941 110.078505 
z
" style="fill:#ff0000;opacity:0.5;stroke:#ff0000;stroke-linecap:round;"/>
   </g>
   <g id="patch_16">
    <path clip-path="url(#pe8cc7caac5)" d="M 66.68101 117.634904 
Q 89.884692 137.666211 118.178623 148.911612 
L 119.009652 146.820705 
Q 121.722079 149.917232 124.650823 152.936418 
Q 120.477176 153.456158 116.239554 153.790394 
L 117.070584 151.699487 
Q 88.306918 140.267391 64.720612 119.905772 
L 66.68101 117.634904 
z
" style="fill:#ff0000;opacity:0.5;stroke:#ff0000;stroke-linecap:round;"/>
   </g>
   <g id="patch_17">
    <path clip-path="url(#pe8cc7caac5)" d="M 60.631068 122.908471 
Q 63.734075 131.872281 68.88389 139.700165 
L 70.76359 138.463546 
Q 71.145474 142.463538 72.052862 146.58555 
Q 68.219511 144.823025 64.497922 142.585609 
L 66.377623 141.34899 
Q 61.021766 133.207917 57.796125 123.889845 
L 60.631068 122.908471 
z
" style="fill:#ff0000;opacity:0.5;stroke:#ff0000;stroke-linecap:round;"/>
   </g>
   <g id="patch_18">
    <path clip-path="url(#pe8cc7caac5)" d="M 97.716406 61.125063 
Q 107.100405 62.959388 116.530687 62.427741 
L 116.404041 60.181308 
Q 120.054651 61.857829 124.072602 63.14346 
Q 120.625647 65.572887 116.826194 67.669418 
L 116.699548 65.422985 
Q 106.893878 65.975795 97.140878 64.06934 
L 97.716406 61.125063 
z
" style="fill:#ff0000;opacity:0.5;stroke:#ff0000;stroke-linecap:round;"/>
   </g>
   <g id="patch_19">
    <path clip-path="url(#pe8cc7caac5)" d="M 81.22847 75.498024 
Q 75.431615 105.421882 79.723082 135.389626 
L 81.95036 135.070674 
Q 80.612605 138.961236 79.45019 143.001605 
Q 76.923362 139.641942 74.526099 136.133849 
L 76.753377 135.814897 
Q 72.390313 105.347182 78.283225 74.92747 
L 81.22847 75.498024 
z
" style="fill:#ff0000;opacity:0.5;stroke:#ff0000;stroke-linecap:round;"/>
   </g>
   <g id="text_1">
    <!-- $C_{labile}$ -->
    <defs>
     <path d="M 69.484375 67.28125 
L 67.484375 56.890625 
Q 62.796875 61.625 57.546875 63.921875 
Q 52.296875 66.21875 46.1875 66.21875 
Q 37.84375 66.21875 31.515625 62.203125 
Q 25.203125 58.203125 20.609375 50 
Q 17.671875 44.734375 16.125 38.84375 
Q 14.59375 32.953125 14.59375 27 
Q 14.59375 17.046875 19.75 11.8125 
Q 24.90625 6.59375 34.71875 6.59375 
Q 41.5 6.59375 47.75 8.765625 
Q 54 10.9375 59.90625 15.28125 
L 57.625 3.609375 
Q 51.8125 1.125 45.875 -0.140625 
Q 39.9375 -1.421875 33.984375 -1.421875 
Q 19.96875 -1.421875 12.078125 6.1875 
Q 4.203125 13.8125 4.203125 27.390625 
Q 4.203125 36.078125 7.203125 44.46875 
Q 10.203125 52.875 15.828125 59.8125 
Q 21.78125 67.1875 29.421875 70.703125 
Q 37.0625 74.21875 47.21875 74.21875 
Q 53.46875 74.21875 59.0625 72.484375 
Q 64.65625 70.75 69.484375 67.28125 
z
" id="DejaVuSans-Oblique-67"/>
     <path d="M 18.3125 75.984375 
L 27.296875 75.984375 
L 12.5 0 
L 3.515625 0 
z
" id="DejaVuSans-Oblique-108"/>
     <path d="M 53.71875 31.203125 
L 47.609375 0 
L 38.625 0 
L 40.28125 8.296875 
Q 36.328125 3.421875 31.265625 1 
Q 26.21875 -1.421875 20.015625 -1.421875 
Q 13.03125 -1.421875 8.5625 2.84375 
Q 4.109375 7.125 4.109375 13.8125 
Q 4.109375 23.390625 11.75 28.953125 
Q 19.390625 34.515625 32.8125 34.515625 
L 45.3125 34.515625 
L 45.796875 36.921875 
Q 45.90625 37.3125 45.953125 37.765625 
Q 46 38.234375 46 39.203125 
Q 46 43.5625 42.453125 45.96875 
Q 38.921875 48.390625 32.515625 48.390625 
Q 28.125 48.390625 23.5 47.265625 
Q 18.890625 46.140625 14.015625 43.890625 
L 15.578125 52.203125 
Q 20.65625 54.109375 25.515625 55.046875 
Q 30.375 56 34.90625 56 
Q 44.578125 56 49.625 51.796875 
Q 54.6875 47.609375 54.6875 39.59375 
Q 54.6875 37.984375 54.4375 35.8125 
Q 54.203125 33.640625 53.71875 31.203125 
z
M 44 27.484375 
L 35.015625 27.484375 
Q 23.96875 27.484375 18.671875 24.53125 
Q 13.375 21.578125 13.375 15.375 
Q 13.375 11.078125 16.078125 8.640625 
Q 18.796875 6.203125 23.578125 6.203125 
Q 30.90625 6.203125 36.375 11.453125 
Q 41.84375 16.703125 43.609375 25.484375 
z
" id="DejaVuSans-Oblique-97"/>
     <path d="M 49.515625 33.40625 
Q 49.515625 40.484375 46.265625 44.484375 
Q 43.015625 48.484375 37.3125 48.484375 
Q 33.15625 48.484375 29.515625 46.453125 
Q 25.875 44.4375 23.1875 40.578125 
Q 20.359375 36.53125 18.71875 31.171875 
Q 17.09375 25.828125 17.09375 20.515625 
Q 17.09375 13.765625 20.28125 9.9375 
Q 23.484375 6.109375 29.109375 6.109375 
Q 33.34375 6.109375 36.953125 8.078125 
Q 40.578125 10.0625 43.3125 13.921875 
Q 46.09375 17.921875 47.796875 23.234375 
Q 49.515625 28.5625 49.515625 33.40625 
z
M 21.578125 46.390625 
Q 24.90625 50.875 29.90625 53.4375 
Q 34.90625 56 40.375 56 
Q 48.78125 56 53.734375 50.328125 
Q 58.6875 44.671875 58.6875 35.015625 
Q 58.6875 27.09375 55.78125 19.671875 
Q 52.875 12.25 47.515625 6.5 
Q 44 2.6875 39.40625 0.625 
Q 34.8125 -1.421875 29.78125 -1.421875 
Q 24.46875 -1.421875 20.5625 1.015625 
Q 16.65625 3.46875 14.203125 8.296875 
L 12.59375 0 
L 3.609375 0 
L 18.40625 75.984375 
L 27.390625 75.984375 
z
" id="DejaVuSans-Oblique-98"/>
     <path d="M 18.3125 75.984375 
L 27.296875 75.984375 
L 25.09375 64.59375 
L 16.109375 64.59375 
z
M 14.203125 54.6875 
L 23.1875 54.6875 
L 12.5 0 
L 3.515625 0 
z
" id="DejaVuSans-Oblique-105"/>
     <path d="M 48.09375 32.234375 
Q 48.25 33.015625 48.3125 33.84375 
Q 48.390625 34.671875 48.390625 35.5 
Q 48.390625 41.453125 44.890625 44.921875 
Q 41.40625 48.390625 35.40625 48.390625 
Q 28.71875 48.390625 23.578125 44.15625 
Q 18.453125 39.9375 15.828125 32.171875 
z
M 55.90625 25.203125 
L 14.109375 25.203125 
Q 13.8125 23.34375 13.71875 22.265625 
Q 13.625 21.1875 13.625 20.40625 
Q 13.625 13.625 17.796875 9.90625 
Q 21.96875 6.203125 29.59375 6.203125 
Q 35.453125 6.203125 40.671875 7.515625 
Q 45.90625 8.84375 50.390625 11.375 
L 48.6875 2.484375 
Q 43.84375 0.53125 38.6875 -0.4375 
Q 33.546875 -1.421875 28.21875 -1.421875 
Q 16.84375 -1.421875 10.71875 4.015625 
Q 4.59375 9.46875 4.59375 19.484375 
Q 4.59375 28.03125 7.640625 35.375 
Q 10.6875 42.71875 16.609375 48.484375 
Q 20.40625 52.09375 25.65625 54.046875 
Q 30.90625 56 36.8125 56 
Q 46.09375 56 51.578125 50.4375 
Q 57.078125 44.875 57.078125 35.5 
Q 57.078125 33.25 56.78125 30.6875 
Q 56.5 28.125 55.90625 25.203125 
z
" id="DejaVuSans-Oblique-101"/>
    </defs>
    <g transform="translate(32.824 113.495)scale(0.16 -0.16)">
     <use transform="translate(0 0.78125)" xlink:href="#DejaVuSans-Oblique-67"/>
     <use transform="translate(69.824219 -15.625)scale(0.7)" xlink:href="#DejaVuSans-Oblique-108"/>
     <use transform="translate(89.272461 -15.625)scale(0.7)" xlink:href="#DejaVuSans-Oblique-97"/>
     <use transform="translate(132.167969 -15.625)scale(0.7)" xlink:href="#DejaVuSans-Oblique-98"/>
     <use transform="translate(176.601562 -15.625)scale(0.7)" xlink:href="#DejaVuSans-Oblique-105"/>
     <use transform="translate(196.049805 -15.625)scale(0.7)" xlink:href="#DejaVuSans-Oblique-108"/>
     <use transform="translate(215.498047 -15.625)scale(0.7)" xlink:href="#DejaVuSans-Oblique-101"/>
    </g>
   </g>
   <g id="text_2">
    <!-- $C_{bud}$ -->
    <defs>
     <path d="M 6.6875 21.6875 
L 13.09375 54.6875 
L 22.125 54.6875 
L 15.71875 22.015625 
Q 15.234375 19.625 15.015625 17.921875 
Q 14.796875 16.21875 14.796875 15.09375 
Q 14.796875 10.9375 17.328125 8.65625 
Q 19.875 6.390625 24.515625 6.390625 
Q 31.734375 6.390625 37 11.265625 
Q 42.28125 16.15625 43.890625 24.421875 
L 49.90625 54.6875 
L 58.890625 54.6875 
L 48.296875 0 
L 39.3125 0 
L 41.109375 8.59375 
Q 37.3125 3.8125 32.0625 1.1875 
Q 26.8125 -1.421875 20.90625 -1.421875 
Q 13.71875 -1.421875 9.71875 2.515625 
Q 5.71875 6.453125 5.71875 13.484375 
Q 5.71875 14.9375 5.953125 17.140625 
Q 6.203125 19.34375 6.6875 21.6875 
z
" id="DejaVuSans-Oblique-117"/>
     <path d="M 41.796875 8.203125 
Q 38.1875 3.46875 33.25 1.015625 
Q 28.328125 -1.421875 22.3125 -1.421875 
Q 14.109375 -1.421875 9.34375 4.171875 
Q 4.59375 9.765625 4.59375 19.484375 
Q 4.59375 27.59375 7.46875 34.9375 
Q 10.359375 42.28125 15.828125 48.09375 
Q 19.4375 51.953125 23.96875 53.96875 
Q 28.515625 56 33.5 56 
Q 38.765625 56 42.796875 53.453125 
Q 46.828125 50.921875 49.03125 46.1875 
L 54.890625 75.984375 
L 63.921875 75.984375 
L 49.125 0 
L 40.09375 0 
z
M 13.921875 21.09375 
Q 13.921875 14.015625 17.109375 10.0625 
Q 20.3125 6.109375 25.984375 6.109375 
Q 30.171875 6.109375 33.765625 8.125 
Q 37.359375 10.15625 40.09375 14.109375 
Q 42.96875 18.21875 44.625 23.578125 
Q 46.296875 28.953125 46.296875 34.1875 
Q 46.296875 40.96875 43.09375 44.765625 
Q 39.890625 48.578125 34.28125 48.578125 
Q 30.03125 48.578125 26.359375 46.578125 
Q 22.703125 44.578125 20.125 40.828125 
Q 17.28125 36.765625 15.59375 31.390625 
Q 13.921875 26.03125 13.921875 21.09375 
z
" id="DejaVuSans-Oblique-100"/>
    </defs>
    <g transform="translate(65.762 64.522303)scale(0.16 -0.16)">
     <use transform="translate(0 0.78125)" xlink:href="#DejaVuSans-Oblique-67"/>
     <use transform="translate(69.824219 -15.625)scale(0.7)" xlink:href="#DejaVuSans-Oblique-98"/>
     <use transform="translate(114.257812 -15.625)scale(0.7)" xlink:href="#DejaVuSans-Oblique-117"/>
     <use transform="translate(158.623047 -15.625)scale(0.7)" xlink:href="#DejaVuSans-Oblique-100"/>
    </g>
   </g>
   <g id="text_3">
    <!-- $C_{leaf}$ -->
    <defs>
     <path d="M 47.796875 75.984375 
L 46.390625 68.5 
L 37.796875 68.5 
Q 32.90625 68.5 30.6875 66.578125 
Q 28.46875 64.65625 27.390625 59.515625 
L 26.421875 54.6875 
L 41.21875 54.6875 
L 39.890625 47.703125 
L 25.09375 47.703125 
L 15.828125 0 
L 6.78125 0 
L 16.109375 47.703125 
L 7.515625 47.703125 
L 8.796875 54.6875 
L 17.390625 54.6875 
L 18.109375 58.5 
Q 19.96875 68.171875 24.625 72.078125 
Q 29.296875 75.984375 39.3125 75.984375 
z
" id="DejaVuSans-Oblique-102"/>
    </defs>
    <g transform="translate(122.918 64.522303)scale(0.16 -0.16)">
     <use transform="translate(0 0.78125)" xlink:href="#DejaVuSans-Oblique-67"/>
     <use transform="translate(69.824219 -15.625)scale(0.7)" xlink:href="#DejaVuSans-Oblique-108"/>
     <use transform="translate(89.272461 -15.625)scale(0.7)" xlink:href="#DejaVuSans-Oblique-101"/>
     <use transform="translate(132.338867 -15.625)scale(0.7)" xlink:href="#DejaVuSans-Oblique-97"/>
     <use transform="translate(175.234375 -15.625)scale(0.7)" xlink:href="#DejaVuSans-Oblique-102"/>
    </g>
   </g>
   <g id="text_4">
    <!-- $C_{wood}$ -->
    <defs>
     <path d="M 8.5 54.6875 
L 17.390625 54.6875 
L 19.671875 10.6875 
L 40.09375 54.6875 
L 50.484375 54.6875 
L 53.515625 10.6875 
L 72.90625 54.6875 
L 81.890625 54.6875 
L 56.890625 0 
L 46.390625 0 
L 43.703125 45.3125 
L 22.796875 0 
L 12.203125 0 
z
" id="DejaVuSans-Oblique-119"/>
     <path d="M 25.390625 -1.421875 
Q 15.765625 -1.421875 10.171875 4.515625 
Q 4.59375 10.453125 4.59375 20.703125 
Q 4.59375 26.65625 6.515625 32.828125 
Q 8.453125 39.015625 11.53125 43.21875 
Q 16.359375 49.75 22.3125 52.875 
Q 28.265625 56 35.796875 56 
Q 45.125 56 50.859375 50.1875 
Q 56.59375 44.390625 56.59375 35.015625 
Q 56.59375 28.515625 54.6875 22.0625 
Q 52.78125 15.625 49.703125 11.375 
Q 44.921875 4.828125 38.96875 1.703125 
Q 33.015625 -1.421875 25.390625 -1.421875 
z
M 13.921875 21 
Q 13.921875 13.578125 17.015625 9.890625 
Q 20.125 6.203125 26.421875 6.203125 
Q 35.453125 6.203125 41.375 14.078125 
Q 47.3125 21.96875 47.3125 34.078125 
Q 47.3125 41.15625 44.140625 44.765625 
Q 40.96875 48.390625 34.8125 48.390625 
Q 29.734375 48.390625 25.78125 46.015625 
Q 21.828125 43.65625 18.703125 38.8125 
Q 16.40625 35.203125 15.15625 30.5625 
Q 13.921875 25.921875 13.921875 21 
z
" id="DejaVuSans-Oblique-111"/>
    </defs>
    <g transform="translate(146.816 113.495)scale(0.16 -0.16)">
     <use transform="translate(0 0.78125)" xlink:href="#DejaVuSans-Oblique-67"/>
     <use transform="translate(69.824219 -15.625)scale(0.7)" xlink:href="#DejaVuSans-Oblique-119"/>
     <use transform="translate(127.075195 -15.625)scale(0.7)" xlink:href="#DejaVuSans-Oblique-111"/>
     <use transform="translate(169.902344 -15.625)scale(0.7)" xlink:href="#DejaVuSans-Oblique-111"/>
     <use transform="translate(212.729492 -15.625)scale(0.7)" xlink:href="#DejaVuSans-Oblique-100"/>
    </g>
   </g>
   <g id="text_5">
    <!-- $C_{root}$ -->
    <defs>
     <path d="M 44.578125 46.390625 
Q 43.21875 47.125 41.453125 47.515625 
Q 39.703125 47.90625 37.703125 47.90625 
Q 30.515625 47.90625 25.140625 42.453125 
Q 19.78125 37.015625 18.015625 27.875 
L 12.5 0 
L 3.515625 0 
L 14.203125 54.6875 
L 23.1875 54.6875 
L 21.484375 46.1875 
Q 25.046875 50.921875 30 53.453125 
Q 34.96875 56 40.578125 56 
Q 42.046875 56 43.453125 55.828125 
Q 44.875 55.671875 46.296875 55.28125 
z
" id="DejaVuSans-Oblique-114"/>
     <path d="M 42.28125 54.6875 
L 40.921875 47.703125 
L 23 47.703125 
L 17.1875 18.015625 
Q 16.890625 16.359375 16.75 15.234375 
Q 16.609375 14.109375 16.609375 13.484375 
Q 16.609375 10.359375 18.484375 8.9375 
Q 20.359375 7.515625 24.515625 7.515625 
L 33.59375 7.515625 
L 32.078125 0 
L 23.484375 0 
Q 15.484375 0 11.546875 3.125 
Q 7.625 6.25 7.625 12.59375 
Q 7.625 13.71875 7.765625 15.0625 
Q 7.90625 16.40625 8.203125 18.015625 
L 14.015625 47.703125 
L 6.390625 47.703125 
L 7.8125 54.6875 
L 15.28125 54.6875 
L 18.3125 70.21875 
L 27.296875 70.21875 
L 24.3125 54.6875 
z
" id="DejaVuSans-Oblique-116"/>
    </defs>
    <g transform="translate(121.958 162.467697)scale(0.16 -0.16)">
     <use transform="translate(0 0.78125)" xlink:href="#DejaVuSans-Oblique-67"/>
     <use transform="translate(69.824219 -15.625)scale(0.7)" xlink:href="#DejaVuSans-Oblique-114"/>
     <use transform="translate(98.603516 -15.625)scale(0.7)" xlink:href="#DejaVuSans-Oblique-111"/>
     <use transform="translate(141.430664 -15.625)scale(0.7)" xlink:href="#DejaVuSans-Oblique-111"/>
     <use transform="translate(184.257812 -15.625)scale(0.7)" xlink:href="#DejaVuSans-Oblique-116"/>
    </g>
   </g>
   <g id="text_6">
    <!-- $C_{labileRa}$ -->
    <defs>
     <path d="M 25.203125 64.796875 
L 20.21875 38.921875 
L 32.90625 38.921875 
Q 40.375 38.921875 44.984375 43.046875 
Q 49.609375 47.171875 49.609375 53.8125 
Q 49.609375 59.125 46.5 61.953125 
Q 43.40625 64.796875 37.59375 64.796875 
z
M 43.3125 35.015625 
Q 46.4375 34.28125 48.515625 31.390625 
Q 50.59375 28.515625 53.328125 19.921875 
L 59.515625 0 
L 49.125 0 
L 43.40625 18.703125 
Q 41.21875 25.921875 38.328125 28.359375 
Q 35.453125 30.8125 29.5 30.8125 
L 18.609375 30.8125 
L 12.59375 0 
L 2.6875 0 
L 16.890625 72.90625 
L 39.109375 72.90625 
Q 49.21875 72.90625 54.609375 68.328125 
Q 60.015625 63.765625 60.015625 55.171875 
Q 60.015625 47.5625 55.421875 41.984375 
Q 50.828125 36.421875 43.3125 35.015625 
z
" id="DejaVuSans-Oblique-82"/>
    </defs>
    <g transform="translate(54.002 162.467697)scale(0.16 -0.16)">
     <use transform="translate(0 0.78125)" xlink:href="#DejaVuSans-Oblique-67"/>
     <use transform="translate(69.824219 -15.625)scale(0.7)" xlink:href="#DejaVuSans-Oblique-108"/>
     <use transform="translate(89.272461 -15.625)scale(0.7)" xlink:href="#DejaVuSans-Oblique-97"/>
     <use transform="translate(132.167969 -15.625)scale(0.7)" xlink:href="#DejaVuSans-Oblique-98"/>
     <use transform="translate(176.601562 -15.625)scale(0.7)" xlink:href="#DejaVuSans-Oblique-105"/>
     <use transform="translate(196.049805 -15.625)scale(0.7)" xlink:href="#DejaVuSans-Oblique-108"/>
     <use transform="translate(215.498047 -15.625)scale(0.7)" xlink:href="#DejaVuSans-Oblique-101"/>
     <use transform="translate(258.564453 -15.625)scale(0.7)" xlink:href="#DejaVuSans-Oblique-82"/>
     <use transform="translate(307.202148 -15.625)scale(0.7)" xlink:href="#DejaVuSans-Oblique-97"/>
    </g>
   </g>
  </g>
 </g>
 <defs>
  <clipPath id="pe8cc7caac5">
   <rect height="166.32" width="167.4" x="27" y="25.92"/>
  </clipPath>
 </defs>
</svg>
