<?xml version="1.0" encoding="utf-8" standalone="no"?>
<!DOCTYPE svg PUBLIC "-//W3C//DTD SVG 1.1//EN"
  "http://www.w3.org/Graphics/SVG/1.1/DTD/svg11.dtd">
<!-- Created with matplotlib (https://matplotlib.org/) -->
<svg height="216pt" version="1.1" viewBox="0 0 216 216" width="216pt" xmlns="http://www.w3.org/2000/svg" xmlns:xlink="http://www.w3.org/1999/xlink">
 <defs>
  <style type="text/css">
*{stroke-linecap:butt;stroke-linejoin:round;}
  </style>
 </defs>
 <g id="figure_1">
  <g id="patch_1">
   <path d="M 0 216 
L 216 216 
L 216 0 
L 0 0 
z
" style="fill:none;"/>
  </g>
  <g id="axes_1">
   <g id="patch_2">
    <path clip-path="url(#p5ff57b962c)" d="M 73.872 128.09293 
C 78.94703 128.09293 83.814883 126.089607 87.403471 122.524171 
C 90.992059 118.958735 93.00839 114.122288 93.00839 109.08 
C 93.00839 104.037712 90.992059 99.201265 87.403471 95.635829 
C 83.814883 92.070393 78.94703 90.06707 73.872 90.06707 
C 68.79697 90.06707 63.929117 92.070393 60.340529 95.635829 
C 56.751941 99.201265 54.73561 104.037712 54.73561 109.08 
C 54.73561 114.122288 56.751941 118.958735 60.340529 122.524171 
C 63.929117 126.089607 68.79697 128.09293 73.872 128.09293 
z
" style="fill:#0000ff;opacity:0.3;stroke:#0000ff;stroke-linejoin:miter;"/>
   </g>
   <g id="patch_3">
    <path clip-path="url(#p5ff57b962c)" d="M 43.20327 90.187689 
Q 46.140896 92.554403 49.375649 94.400155 
L 50.490742 92.445912 
Q 52.547573 95.791453 55.41468 98.89981 
Q 51.20841 99.318556 46.773766 98.960057 
L 47.888859 97.005813 
Q 44.445655 95.041119 41.32114 92.523837 
L 43.20327 90.187689 
z
" style="fill:#0000ff;opacity:0.5;stroke:#0000ff;stroke-linecap:round;"/>
   </g>
   <g id="patch_4">
    <path clip-path="url(#p5ff57b962c)" d="M 55.945063 120.663294 
Q 52.419056 122.004285 49.192748 123.864761 
L 50.316736 125.813902 
Q 46.390451 125.900428 42.259848 126.806136 
Q 44.021869 122.963827 46.57011 119.316765 
L 47.694098 121.265906 
Q 51.128311 119.28554 54.878639 117.859236 
L 55.945063 120.663294 
z
" style="fill:#008000;opacity:0.5;stroke:#008000;stroke-linecap:round;"/>
   </g>
   <g id="patch_5">
    <path clip-path="url(#p5ff57b962c)" d="M 129.114 96.404714 
C 134.18903 96.404714 139.056883 94.401391 142.645471 90.835955 
C 146.234059 87.27052 148.25039 82.434072 148.25039 77.391784 
C 148.25039 72.349496 146.234059 67.513049 142.645471 63.947613 
C 139.056883 60.382177 134.18903 58.378855 129.114 58.378855 
C 124.03897 58.378855 119.171117 60.382177 115.582529 63.947613 
C 111.993941 67.513049 109.97761 72.349496 109.97761 77.391784 
C 109.97761 82.434072 111.993941 87.27052 115.582529 90.835955 
C 119.171117 94.401391 124.03897 96.404714 129.114 96.404714 
z
" style="fill:#0000ff;opacity:0.3;stroke:#0000ff;stroke-linejoin:miter;"/>
   </g>
   <g id="patch_6">
    <path clip-path="url(#p5ff57b962c)" d="M 160.904863 60.455684 
Q 157.378856 61.796675 154.152548 63.657151 
L 155.276536 65.606292 
Q 151.350251 65.692818 147.219648 66.598525 
Q 148.981669 62.756217 151.52991 59.109155 
L 152.653898 61.058296 
Q 156.088111 59.077929 159.838439 57.651626 
L 160.904863 60.455684 
z
" style="fill:#0000ff;opacity:0.5;stroke:#0000ff;stroke-linecap:round;"/>
   </g>
   <g id="patch_7">
    <path clip-path="url(#p5ff57b962c)" d="M 127.98611 56.171264 
Q 128.569641 52.48959 128.564603 48.809384 
L 126.314605 48.812463 
Q 128.196424 45.366936 129.466823 41.333696 
Q 131.922551 44.774091 133.814598 48.802198 
L 131.564601 48.805278 
Q 131.569964 52.723819 130.949123 56.64089 
L 127.98611 56.171264 
z
" style="fill:#008000;opacity:0.5;stroke:#008000;stroke-linecap:round;"/>
   </g>
   <g id="patch_8">
    <path clip-path="url(#p5ff57b962c)" d="M 129.114 159.781145 
C 134.18903 159.781145 139.056883 157.777823 142.645471 154.212387 
C 146.234059 150.646951 148.25039 145.810504 148.25039 140.768216 
C 148.25039 135.725928 146.234059 130.88948 142.645471 127.324045 
C 139.056883 123.758609 134.18903 121.755286 129.114 121.755286 
C 124.03897 121.755286 119.171117 123.758609 115.582529 127.324045 
C 111.993941 130.88948 109.97761 135.725928 109.97761 140.768216 
C 109.97761 145.810504 111.993941 150.646951 115.582529 154.212387 
C 119.171117 157.777823 124.03897 159.781145 129.114 159.781145 
z
" style="fill:#0000ff;opacity:0.3;stroke:#0000ff;stroke-linejoin:miter;"/>
   </g>
   <g id="patch_9">
    <path clip-path="url(#p5ff57b962c)" d="M 91.213859 121.299878 
Q 96.656023 126.236087 102.978174 129.790369 
L 104.080807 127.829068 
Q 106.227763 131.193925 108.977545 134.398546 
Q 104.76476 134.659719 100.405363 134.366737 
L 101.507996 132.405436 
Q 94.891028 128.68541 89.198349 123.521976 
L 91.213859 121.299878 
z
" style="fill:#008000;opacity:0.5;stroke:#008000;stroke-linecap:round;"/>
   </g>
   <g id="patch_10">
    <path clip-path="url(#p5ff57b962c)" d="M 127.128282 98.437688 
Q 125.564083 105.558173 125.61871 112.754257 
L 127.868645 112.737177 
Q 126.014385 116.270669 124.600674 120.249601 
Q 122.279779 116.724158 120.368861 112.79411 
L 122.618796 112.77703 
Q 122.56161 105.243798 124.19815 97.794008 
L 127.128282 98.437688 
z
" style="fill:#008000;opacity:0.5;stroke:#008000;stroke-linecap:round;"/>
   </g>
   <g id="patch_11">
    <path clip-path="url(#p5ff57b962c)" d="M 131.099718 119.722312 
Q 132.663917 112.601827 132.60929 105.405743 
L 130.359355 105.422823 
Q 132.213615 101.889331 133.627326 97.910399 
Q 135.948221 101.435842 137.859139 105.36589 
L 135.609204 105.38297 
Q 135.66639 112.916202 134.02985 120.365992 
L 131.099718 119.722312 
z
" style="fill:#0000ff;opacity:0.5;stroke:#0000ff;stroke-linecap:round;"/>
   </g>
   <g id="text_1">
    <!-- $C_{l}$ -->
    <defs>
     <path d="M 69.484375 67.28125 
L 67.484375 56.890625 
Q 62.796875 61.625 57.546875 63.921875 
Q 52.296875 66.21875 46.1875 66.21875 
Q 37.84375 66.21875 31.515625 62.203125 
Q 25.203125 58.203125 20.609375 50 
Q 17.671875 44.734375 16.125 38.84375 
Q 14.59375 32.953125 14.59375 27 
Q 14.59375 17.046875 19.75 11.8125 
Q 24.90625 6.59375 34.71875 6.59375 
Q 41.5 6.59375 47.75 8.765625 
Q 54 10.9375 59.90625 15.28125 
L 57.625 3.609375 
Q 51.8125 1.125 45.875 -0.140625 
Q 39.9375 -1.421875 33.984375 -1.421875 
Q 19.96875 -1.421875 12.078125 6.1875 
Q 4.203125 13.8125 4.203125 27.390625 
Q 4.203125 36.078125 7.203125 44.46875 
Q 10.203125 52.875 15.828125 59.8125 
Q 21.78125 67.1875 29.421875 70.703125 
Q 37.0625 74.21875 47.21875 74.21875 
Q 53.46875 74.21875 59.0625 72.484375 
Q 64.65625 70.75 69.484375 67.28125 
z
" id="DejaVuSans-Oblique-67"/>
     <path d="M 18.3125 75.984375 
L 27.296875 75.984375 
L 12.5 0 
L 3.515625 0 
z
" id="DejaVuSans-Oblique-108"/>
    </defs>
    <g transform="translate(66.432 113.495)scale(0.16 -0.16)">
     <use transform="translate(0 0.78125)" xlink:href="#DejaVuSans-Oblique-67"/>
     <use transform="translate(69.824219 -15.625)scale(0.7)" xlink:href="#DejaVuSans-Oblique-108"/>
    </g>
   </g>
   <g id="text_2">
    <!-- $C_{s}$ -->
    <defs>
     <path d="M 50 53.078125 
L 48.296875 44.578125 
Q 44.734375 46.53125 40.765625 47.5 
Q 36.8125 48.484375 32.625 48.484375 
Q 25.53125 48.484375 21.453125 46.0625 
Q 17.390625 43.65625 17.390625 39.5 
Q 17.390625 34.671875 26.859375 32.078125 
Q 27.59375 31.890625 27.9375 31.78125 
L 30.8125 30.90625 
Q 39.796875 28.421875 42.796875 25.6875 
Q 45.796875 22.953125 45.796875 18.21875 
Q 45.796875 9.515625 38.890625 4.046875 
Q 31.984375 -1.421875 20.796875 -1.421875 
Q 16.453125 -1.421875 11.671875 -0.578125 
Q 6.890625 0.25 1.125 2 
L 2.875 11.28125 
Q 7.8125 8.734375 12.59375 7.421875 
Q 17.390625 6.109375 21.78125 6.109375 
Q 28.375 6.109375 32.5 8.9375 
Q 36.625 11.765625 36.625 16.109375 
Q 36.625 20.796875 25.78125 23.6875 
L 24.859375 23.921875 
L 21.78125 24.703125 
Q 14.9375 26.515625 11.765625 29.46875 
Q 8.59375 32.421875 8.59375 37.015625 
Q 8.59375 45.75 15.15625 50.875 
Q 21.734375 56 33.015625 56 
Q 37.453125 56 41.671875 55.265625 
Q 45.90625 54.546875 50 53.078125 
z
" id="DejaVuSans-Oblique-115"/>
    </defs>
    <g transform="translate(120.314 81.806784)scale(0.16 -0.16)">
     <use transform="translate(0 0.78125)" xlink:href="#DejaVuSans-Oblique-67"/>
     <use transform="translate(69.824219 -15.625)scale(0.7)" xlink:href="#DejaVuSans-Oblique-115"/>
    </g>
   </g>
   <g id="text_3">
    <!-- $C_{b}$ -->
    <defs>
     <path d="M 49.515625 33.40625 
Q 49.515625 40.484375 46.265625 44.484375 
Q 43.015625 48.484375 37.3125 48.484375 
Q 33.15625 48.484375 29.515625 46.453125 
Q 25.875 44.4375 23.1875 40.578125 
Q 20.359375 36.53125 18.71875 31.171875 
Q 17.09375 25.828125 17.09375 20.515625 
Q 17.09375 13.765625 20.28125 9.9375 
Q 23.484375 6.109375 29.109375 6.109375 
Q 33.34375 6.109375 36.953125 8.078125 
Q 40.578125 10.0625 43.3125 13.921875 
Q 46.09375 17.921875 47.796875 23.234375 
Q 49.515625 28.5625 49.515625 33.40625 
z
M 21.578125 46.390625 
Q 24.90625 50.875 29.90625 53.4375 
Q 34.90625 56 40.375 56 
Q 48.78125 56 53.734375 50.328125 
Q 58.6875 44.671875 58.6875 35.015625 
Q 58.6875 27.09375 55.78125 19.671875 
Q 52.875 12.25 47.515625 6.5 
Q 44 2.6875 39.40625 0.625 
Q 34.8125 -1.421875 29.78125 -1.421875 
Q 24.46875 -1.421875 20.5625 1.015625 
Q 16.65625 3.46875 14.203125 8.296875 
L 12.59375 0 
L 3.609375 0 
L 18.40625 75.984375 
L 27.390625 75.984375 
z
" id="DejaVuSans-Oblique-98"/>
    </defs>
    <g transform="translate(119.754 145.183216)scale(0.16 -0.16)">
     <use transform="translate(0 0.78125)" xlink:href="#DejaVuSans-Oblique-67"/>
     <use transform="translate(69.824219 -15.625)scale(0.7)" xlink:href="#DejaVuSans-Oblique-98"/>
    </g>
   </g>
  </g>
 </g>
 <defs>
  <clipPath id="p5ff57b962c">
   <rect height="166.32" width="167.4" x="27" y="25.92"/>
  </clipPath>
 </defs>
</svg>
