<?xml version="1.0" encoding="utf-8" standalone="no"?>
<!DOCTYPE svg PUBLIC "-//W3C//DTD SVG 1.1//EN"
  "http://www.w3.org/Graphics/SVG/1.1/DTD/svg11.dtd">
<!-- Created with matplotlib (http://matplotlib.org/) -->
<svg height="360pt" version="1.1" viewBox="0 0 1080 360" width="1080pt" xmlns="http://www.w3.org/2000/svg" xmlns:xlink="http://www.w3.org/1999/xlink">
 <defs>
  <style type="text/css">
*{stroke-linecap:butt;stroke-linejoin:round;stroke-miterlimit:100000;}
  </style>
 </defs>
 <g id="figure_1">
  <g id="patch_1">
   <path d="M 0 360 
L 1080 360 
L 1080 0 
L 0 0 
z
" style="fill:#ffffff;"/>
  </g>
  <g id="axes_1">
   <g id="patch_2">
    <path d="M 41.20875 314.8125 
L 354.341747 314.8125 
L 354.341747 18.766875 
L 41.20875 18.766875 
z
" style="fill:#ffffff;"/>
   </g>
   <g id="patch_3">
    <path clip-path="url(#p5ba3d974c5)" d="M 41.20875 314.8125 
L 76.001305 314.8125 
L 76.001305 18.766875 
L 41.20875 18.766875 
z
" style="fill:#008000;opacity:0.75;stroke:#000000;stroke-linejoin:miter;"/>
   </g>
   <g id="patch_4">
    <path clip-path="url(#p5ba3d974c5)" d="M 76.001305 314.8125 
L 110.793861 314.8125 
L 110.793861 281.918542 
L 76.001305 281.918542 
z
" style="fill:#008000;opacity:0.75;stroke:#000000;stroke-linejoin:miter;"/>
   </g>
   <g id="patch_5">
    <path clip-path="url(#p5ba3d974c5)" d="M 110.793861 314.8125 
L 145.586416 314.8125 
L 145.586416 216.130625 
L 110.793861 216.130625 
z
" style="fill:#008000;opacity:0.75;stroke:#000000;stroke-linejoin:miter;"/>
   </g>
   <g id="patch_6">
    <path clip-path="url(#p5ba3d974c5)" d="M 145.586416 314.8125 
L 180.378971 314.8125 
L 180.378971 314.8125 
L 145.586416 314.8125 
z
" style="fill:#008000;opacity:0.75;stroke:#000000;stroke-linejoin:miter;"/>
   </g>
   <g id="patch_7">
    <path clip-path="url(#p5ba3d974c5)" d="M 180.378971 314.8125 
L 215.171526 314.8125 
L 215.171526 314.8125 
L 180.378971 314.8125 
z
" style="fill:#008000;opacity:0.75;stroke:#000000;stroke-linejoin:miter;"/>
   </g>
   <g id="patch_8">
    <path clip-path="url(#p5ba3d974c5)" d="M 215.171526 314.8125 
L 249.964082 314.8125 
L 249.964082 314.8125 
L 215.171526 314.8125 
z
" style="fill:#008000;opacity:0.75;stroke:#000000;stroke-linejoin:miter;"/>
   </g>
   <g id="patch_9">
    <path clip-path="url(#p5ba3d974c5)" d="M 249.964082 314.8125 
L 284.756637 314.8125 
L 284.756637 314.8125 
L 249.964082 314.8125 
z
" style="fill:#008000;opacity:0.75;stroke:#000000;stroke-linejoin:miter;"/>
   </g>
   <g id="patch_10">
    <path clip-path="url(#p5ba3d974c5)" d="M 284.756637 314.8125 
L 319.549192 314.8125 
L 319.549192 314.8125 
L 284.756637 314.8125 
z
" style="fill:#008000;opacity:0.75;stroke:#000000;stroke-linejoin:miter;"/>
   </g>
   <g id="patch_11">
    <path clip-path="url(#p5ba3d974c5)" d="M 319.549192 314.8125 
L 354.341747 314.8125 
L 354.341747 281.918542 
L 319.549192 281.918542 
z
" style="fill:#008000;opacity:0.75;stroke:#000000;stroke-linejoin:miter;"/>
   </g>
   <g id="patch_12">
    <path d="M 41.20875 314.8125 
L 41.20875 18.766875 
" style="fill:none;stroke:#000000;stroke-linecap:square;stroke-linejoin:miter;"/>
   </g>
   <g id="patch_13">
    <path d="M 354.341747 314.8125 
L 354.341747 18.766875 
" style="fill:none;stroke:#000000;stroke-linecap:square;stroke-linejoin:miter;"/>
   </g>
   <g id="patch_14">
    <path d="M 41.20875 18.766875 
L 354.341747 18.766875 
" style="fill:none;stroke:#000000;stroke-linecap:square;stroke-linejoin:miter;"/>
   </g>
   <g id="patch_15">
    <path d="M 41.20875 314.8125 
L 354.341747 314.8125 
" style="fill:none;stroke:#000000;stroke-linecap:square;stroke-linejoin:miter;"/>
   </g>
   <g id="matplotlib.axis_1">
    <g id="xtick_1">
     <g id="line2d_1">
      <defs>
       <path d="M 0 0 
L 0 -4 
" id="m57feaae298" style="stroke:#000000;stroke-width:0.5;"/>
      </defs>
      <g>
       <use style="stroke:#000000;stroke-width:0.5;" x="58.6050276336" xlink:href="#m57feaae298" y="314.8125"/>
      </g>
     </g>
     <g id="line2d_2">
      <defs>
       <path d="M 0 0 
L 0 4 
" id="m42e7f89e10" style="stroke:#000000;stroke-width:0.5;"/>
      </defs>
      <g>
       <use style="stroke:#000000;stroke-width:0.5;" x="58.6050276336" xlink:href="#m42e7f89e10" y="18.766875"/>
      </g>
     </g>
     <g id="text_1">
      <!-- 3 -->
      <defs>
       <path d="M 40.578125 39.3125 
Q 47.65625 37.796875 51.625 33 
Q 55.609375 28.21875 55.609375 21.1875 
Q 55.609375 10.40625 48.1875 4.484375 
Q 40.765625 -1.421875 27.09375 -1.421875 
Q 22.515625 -1.421875 17.65625 -0.515625 
Q 12.796875 0.390625 7.625 2.203125 
L 7.625 11.71875 
Q 11.71875 9.328125 16.59375 8.109375 
Q 21.484375 6.890625 26.8125 6.890625 
Q 36.078125 6.890625 40.9375 10.546875 
Q 45.796875 14.203125 45.796875 21.1875 
Q 45.796875 27.640625 41.28125 31.265625 
Q 36.765625 34.90625 28.71875 34.90625 
L 20.21875 34.90625 
L 20.21875 43.015625 
L 29.109375 43.015625 
Q 36.375 43.015625 40.234375 45.921875 
Q 44.09375 48.828125 44.09375 54.296875 
Q 44.09375 59.90625 40.109375 62.90625 
Q 36.140625 65.921875 28.71875 65.921875 
Q 24.65625 65.921875 20.015625 65.03125 
Q 15.375 64.15625 9.8125 62.3125 
L 9.8125 71.09375 
Q 15.4375 72.65625 20.34375 73.4375 
Q 25.25 74.21875 29.59375 74.21875 
Q 40.828125 74.21875 47.359375 69.109375 
Q 53.90625 64.015625 53.90625 55.328125 
Q 53.90625 49.265625 50.4375 45.09375 
Q 46.96875 40.921875 40.578125 39.3125 
" id="BitstreamVeraSans-Roman-33"/>
      </defs>
      <g transform="translate(54.7875276336 327.930625)scale(0.12 -0.12)">
       <use xlink:href="#BitstreamVeraSans-Roman-33"/>
      </g>
     </g>
    </g>
    <g id="xtick_2">
     <g id="line2d_3">
      <g>
       <use style="stroke:#000000;stroke-width:0.5;" x="93.3975829008" xlink:href="#m57feaae298" y="314.8125"/>
      </g>
     </g>
     <g id="line2d_4">
      <g>
       <use style="stroke:#000000;stroke-width:0.5;" x="93.3975829008" xlink:href="#m42e7f89e10" y="18.766875"/>
      </g>
     </g>
     <g id="text_2">
      <!-- 4 -->
      <defs>
       <path d="M 37.796875 64.3125 
L 12.890625 25.390625 
L 37.796875 25.390625 
z
M 35.203125 72.90625 
L 47.609375 72.90625 
L 47.609375 25.390625 
L 58.015625 25.390625 
L 58.015625 17.1875 
L 47.609375 17.1875 
L 47.609375 0 
L 37.796875 0 
L 37.796875 17.1875 
L 4.890625 17.1875 
L 4.890625 26.703125 
z
" id="BitstreamVeraSans-Roman-34"/>
      </defs>
      <g transform="translate(89.5800829008 327.930625)scale(0.12 -0.12)">
       <use xlink:href="#BitstreamVeraSans-Roman-34"/>
      </g>
     </g>
    </g>
    <g id="xtick_3">
     <g id="line2d_5">
      <g>
       <use style="stroke:#000000;stroke-width:0.5;" x="128.190138168" xlink:href="#m57feaae298" y="314.8125"/>
      </g>
     </g>
     <g id="line2d_6">
      <g>
       <use style="stroke:#000000;stroke-width:0.5;" x="128.190138168" xlink:href="#m42e7f89e10" y="18.766875"/>
      </g>
     </g>
     <g id="text_3">
      <!-- 5 -->
      <defs>
       <path d="M 10.796875 72.90625 
L 49.515625 72.90625 
L 49.515625 64.59375 
L 19.828125 64.59375 
L 19.828125 46.734375 
Q 21.96875 47.46875 24.109375 47.828125 
Q 26.265625 48.1875 28.421875 48.1875 
Q 40.625 48.1875 47.75 41.5 
Q 54.890625 34.8125 54.890625 23.390625 
Q 54.890625 11.625 47.5625 5.09375 
Q 40.234375 -1.421875 26.90625 -1.421875 
Q 22.3125 -1.421875 17.546875 -0.640625 
Q 12.796875 0.140625 7.71875 1.703125 
L 7.71875 11.625 
Q 12.109375 9.234375 16.796875 8.0625 
Q 21.484375 6.890625 26.703125 6.890625 
Q 35.15625 6.890625 40.078125 11.328125 
Q 45.015625 15.765625 45.015625 23.390625 
Q 45.015625 31 40.078125 35.4375 
Q 35.15625 39.890625 26.703125 39.890625 
Q 22.75 39.890625 18.8125 39.015625 
Q 14.890625 38.140625 10.796875 36.28125 
z
" id="BitstreamVeraSans-Roman-35"/>
      </defs>
      <g transform="translate(124.372638168 327.930625)scale(0.12 -0.12)">
       <use xlink:href="#BitstreamVeraSans-Roman-35"/>
      </g>
     </g>
    </g>
    <g id="xtick_4">
     <g id="line2d_7">
      <g>
       <use style="stroke:#000000;stroke-width:0.5;" x="162.982693435" xlink:href="#m57feaae298" y="314.8125"/>
      </g>
     </g>
     <g id="line2d_8">
      <g>
       <use style="stroke:#000000;stroke-width:0.5;" x="162.982693435" xlink:href="#m42e7f89e10" y="18.766875"/>
      </g>
     </g>
     <g id="text_4">
      <!-- 6 -->
      <defs>
       <path d="M 33.015625 40.375 
Q 26.375 40.375 22.484375 35.828125 
Q 18.609375 31.296875 18.609375 23.390625 
Q 18.609375 15.53125 22.484375 10.953125 
Q 26.375 6.390625 33.015625 6.390625 
Q 39.65625 6.390625 43.53125 10.953125 
Q 47.40625 15.53125 47.40625 23.390625 
Q 47.40625 31.296875 43.53125 35.828125 
Q 39.65625 40.375 33.015625 40.375 
M 52.59375 71.296875 
L 52.59375 62.3125 
Q 48.875 64.0625 45.09375 64.984375 
Q 41.3125 65.921875 37.59375 65.921875 
Q 27.828125 65.921875 22.671875 59.328125 
Q 17.53125 52.734375 16.796875 39.40625 
Q 19.671875 43.65625 24.015625 45.921875 
Q 28.375 48.1875 33.59375 48.1875 
Q 44.578125 48.1875 50.953125 41.515625 
Q 57.328125 34.859375 57.328125 23.390625 
Q 57.328125 12.15625 50.6875 5.359375 
Q 44.046875 -1.421875 33.015625 -1.421875 
Q 20.359375 -1.421875 13.671875 8.265625 
Q 6.984375 17.96875 6.984375 36.375 
Q 6.984375 53.65625 15.1875 63.9375 
Q 23.390625 74.21875 37.203125 74.21875 
Q 40.921875 74.21875 44.703125 73.484375 
Q 48.484375 72.75 52.59375 71.296875 
" id="BitstreamVeraSans-Roman-36"/>
      </defs>
      <g transform="translate(159.165193435 327.930625)scale(0.12 -0.12)">
       <use xlink:href="#BitstreamVeraSans-Roman-36"/>
      </g>
     </g>
    </g>
    <g id="xtick_5">
     <g id="line2d_9">
      <g>
       <use style="stroke:#000000;stroke-width:0.5;" x="197.775248702" xlink:href="#m57feaae298" y="314.8125"/>
      </g>
     </g>
     <g id="line2d_10">
      <g>
       <use style="stroke:#000000;stroke-width:0.5;" x="197.775248702" xlink:href="#m42e7f89e10" y="18.766875"/>
      </g>
     </g>
     <g id="text_5">
      <!-- 7 -->
      <defs>
       <path d="M 8.203125 72.90625 
L 55.078125 72.90625 
L 55.078125 68.703125 
L 28.609375 0 
L 18.3125 0 
L 43.21875 64.59375 
L 8.203125 64.59375 
z
" id="BitstreamVeraSans-Roman-37"/>
      </defs>
      <g transform="translate(193.957748702 327.930625)scale(0.12 -0.12)">
       <use xlink:href="#BitstreamVeraSans-Roman-37"/>
      </g>
     </g>
    </g>
    <g id="xtick_6">
     <g id="line2d_11">
      <g>
       <use style="stroke:#000000;stroke-width:0.5;" x="232.56780397" xlink:href="#m57feaae298" y="314.8125"/>
      </g>
     </g>
     <g id="line2d_12">
      <g>
       <use style="stroke:#000000;stroke-width:0.5;" x="232.56780397" xlink:href="#m42e7f89e10" y="18.766875"/>
      </g>
     </g>
     <g id="text_6">
      <!-- 8 -->
      <defs>
       <path d="M 31.78125 34.625 
Q 24.75 34.625 20.71875 30.859375 
Q 16.703125 27.09375 16.703125 20.515625 
Q 16.703125 13.921875 20.71875 10.15625 
Q 24.75 6.390625 31.78125 6.390625 
Q 38.8125 6.390625 42.859375 10.171875 
Q 46.921875 13.96875 46.921875 20.515625 
Q 46.921875 27.09375 42.890625 30.859375 
Q 38.875 34.625 31.78125 34.625 
M 21.921875 38.8125 
Q 15.578125 40.375 12.03125 44.71875 
Q 8.5 49.078125 8.5 55.328125 
Q 8.5 64.0625 14.71875 69.140625 
Q 20.953125 74.21875 31.78125 74.21875 
Q 42.671875 74.21875 48.875 69.140625 
Q 55.078125 64.0625 55.078125 55.328125 
Q 55.078125 49.078125 51.53125 44.71875 
Q 48 40.375 41.703125 38.8125 
Q 48.828125 37.15625 52.796875 32.3125 
Q 56.78125 27.484375 56.78125 20.515625 
Q 56.78125 9.90625 50.3125 4.234375 
Q 43.84375 -1.421875 31.78125 -1.421875 
Q 19.734375 -1.421875 13.25 4.234375 
Q 6.78125 9.90625 6.78125 20.515625 
Q 6.78125 27.484375 10.78125 32.3125 
Q 14.796875 37.15625 21.921875 38.8125 
M 18.3125 54.390625 
Q 18.3125 48.734375 21.84375 45.5625 
Q 25.390625 42.390625 31.78125 42.390625 
Q 38.140625 42.390625 41.71875 45.5625 
Q 45.3125 48.734375 45.3125 54.390625 
Q 45.3125 60.0625 41.71875 63.234375 
Q 38.140625 66.40625 31.78125 66.40625 
Q 25.390625 66.40625 21.84375 63.234375 
Q 18.3125 60.0625 18.3125 54.390625 
" id="BitstreamVeraSans-Roman-38"/>
      </defs>
      <g transform="translate(228.75030397 327.930625)scale(0.12 -0.12)">
       <use xlink:href="#BitstreamVeraSans-Roman-38"/>
      </g>
     </g>
    </g>
    <g id="xtick_7">
     <g id="line2d_13">
      <g>
       <use style="stroke:#000000;stroke-width:0.5;" x="267.360359237" xlink:href="#m57feaae298" y="314.8125"/>
      </g>
     </g>
     <g id="line2d_14">
      <g>
       <use style="stroke:#000000;stroke-width:0.5;" x="267.360359237" xlink:href="#m42e7f89e10" y="18.766875"/>
      </g>
     </g>
     <g id="text_7">
      <!-- 9 -->
      <defs>
       <path d="M 10.984375 1.515625 
L 10.984375 10.5 
Q 14.703125 8.734375 18.5 7.8125 
Q 22.3125 6.890625 25.984375 6.890625 
Q 35.75 6.890625 40.890625 13.453125 
Q 46.046875 20.015625 46.78125 33.40625 
Q 43.953125 29.203125 39.59375 26.953125 
Q 35.25 24.703125 29.984375 24.703125 
Q 19.046875 24.703125 12.671875 31.3125 
Q 6.296875 37.9375 6.296875 49.421875 
Q 6.296875 60.640625 12.9375 67.421875 
Q 19.578125 74.21875 30.609375 74.21875 
Q 43.265625 74.21875 49.921875 64.515625 
Q 56.59375 54.828125 56.59375 36.375 
Q 56.59375 19.140625 48.40625 8.859375 
Q 40.234375 -1.421875 26.421875 -1.421875 
Q 22.703125 -1.421875 18.890625 -0.6875 
Q 15.09375 0.046875 10.984375 1.515625 
M 30.609375 32.421875 
Q 37.25 32.421875 41.125 36.953125 
Q 45.015625 41.5 45.015625 49.421875 
Q 45.015625 57.28125 41.125 61.84375 
Q 37.25 66.40625 30.609375 66.40625 
Q 23.96875 66.40625 20.09375 61.84375 
Q 16.21875 57.28125 16.21875 49.421875 
Q 16.21875 41.5 20.09375 36.953125 
Q 23.96875 32.421875 30.609375 32.421875 
" id="BitstreamVeraSans-Roman-39"/>
      </defs>
      <g transform="translate(263.542859237 327.930625)scale(0.12 -0.12)">
       <use xlink:href="#BitstreamVeraSans-Roman-39"/>
      </g>
     </g>
    </g>
    <g id="xtick_8">
     <g id="line2d_15">
      <g>
       <use style="stroke:#000000;stroke-width:0.5;" x="302.152914504" xlink:href="#m57feaae298" y="314.8125"/>
      </g>
     </g>
     <g id="line2d_16">
      <g>
       <use style="stroke:#000000;stroke-width:0.5;" x="302.152914504" xlink:href="#m42e7f89e10" y="18.766875"/>
      </g>
     </g>
     <g id="text_8">
      <!-- 10 -->
      <defs>
       <path d="M 31.78125 66.40625 
Q 24.171875 66.40625 20.328125 58.90625 
Q 16.5 51.421875 16.5 36.375 
Q 16.5 21.390625 20.328125 13.890625 
Q 24.171875 6.390625 31.78125 6.390625 
Q 39.453125 6.390625 43.28125 13.890625 
Q 47.125 21.390625 47.125 36.375 
Q 47.125 51.421875 43.28125 58.90625 
Q 39.453125 66.40625 31.78125 66.40625 
M 31.78125 74.21875 
Q 44.046875 74.21875 50.515625 64.515625 
Q 56.984375 54.828125 56.984375 36.375 
Q 56.984375 17.96875 50.515625 8.265625 
Q 44.046875 -1.421875 31.78125 -1.421875 
Q 19.53125 -1.421875 13.0625 8.265625 
Q 6.59375 17.96875 6.59375 36.375 
Q 6.59375 54.828125 13.0625 64.515625 
Q 19.53125 74.21875 31.78125 74.21875 
" id="BitstreamVeraSans-Roman-30"/>
       <path d="M 12.40625 8.296875 
L 28.515625 8.296875 
L 28.515625 63.921875 
L 10.984375 60.40625 
L 10.984375 69.390625 
L 28.421875 72.90625 
L 38.28125 72.90625 
L 38.28125 8.296875 
L 54.390625 8.296875 
L 54.390625 0 
L 12.40625 0 
z
" id="BitstreamVeraSans-Roman-31"/>
      </defs>
      <g transform="translate(294.517914504 327.930625)scale(0.12 -0.12)">
       <use xlink:href="#BitstreamVeraSans-Roman-31"/>
       <use x="63.623046875" xlink:href="#BitstreamVeraSans-Roman-30"/>
      </g>
     </g>
    </g>
    <g id="xtick_9">
     <g id="line2d_17">
      <g>
       <use style="stroke:#000000;stroke-width:0.5;" x="336.945469771" xlink:href="#m57feaae298" y="314.8125"/>
      </g>
     </g>
     <g id="line2d_18">
      <g>
       <use style="stroke:#000000;stroke-width:0.5;" x="336.945469771" xlink:href="#m42e7f89e10" y="18.766875"/>
      </g>
     </g>
     <g id="text_9">
      <!-- 11 -->
      <g transform="translate(329.310469771 327.930625)scale(0.12 -0.12)">
       <use xlink:href="#BitstreamVeraSans-Roman-31"/>
       <use x="63.623046875" xlink:href="#BitstreamVeraSans-Roman-31"/>
      </g>
     </g>
    </g>
    <g id="text_10">
     <!-- # state variables -->
     <defs>
      <path d="M 18.3125 70.21875 
L 18.3125 54.6875 
L 36.8125 54.6875 
L 36.8125 47.703125 
L 18.3125 47.703125 
L 18.3125 18.015625 
Q 18.3125 11.328125 20.140625 9.421875 
Q 21.96875 7.515625 27.59375 7.515625 
L 36.8125 7.515625 
L 36.8125 0 
L 27.59375 0 
Q 17.1875 0 13.234375 3.875 
Q 9.28125 7.765625 9.28125 18.015625 
L 9.28125 47.703125 
L 2.6875 47.703125 
L 2.6875 54.6875 
L 9.28125 54.6875 
L 9.28125 70.21875 
z
" id="BitstreamVeraSans-Roman-74"/>
      <path d="M 44.28125 53.078125 
L 44.28125 44.578125 
Q 40.484375 46.53125 36.375 47.5 
Q 32.28125 48.484375 27.875 48.484375 
Q 21.1875 48.484375 17.84375 46.4375 
Q 14.5 44.390625 14.5 40.28125 
Q 14.5 37.15625 16.890625 35.375 
Q 19.28125 33.59375 26.515625 31.984375 
L 29.59375 31.296875 
Q 39.15625 29.25 43.1875 25.515625 
Q 47.21875 21.78125 47.21875 15.09375 
Q 47.21875 7.46875 41.1875 3.015625 
Q 35.15625 -1.421875 24.609375 -1.421875 
Q 20.21875 -1.421875 15.453125 -0.5625 
Q 10.6875 0.296875 5.421875 2 
L 5.421875 11.28125 
Q 10.40625 8.6875 15.234375 7.390625 
Q 20.0625 6.109375 24.8125 6.109375 
Q 31.15625 6.109375 34.5625 8.28125 
Q 37.984375 10.453125 37.984375 14.40625 
Q 37.984375 18.0625 35.515625 20.015625 
Q 33.0625 21.96875 24.703125 23.78125 
L 21.578125 24.515625 
Q 13.234375 26.265625 9.515625 29.90625 
Q 5.8125 33.546875 5.8125 39.890625 
Q 5.8125 47.609375 11.28125 51.796875 
Q 16.75 56 26.8125 56 
Q 31.78125 56 36.171875 55.265625 
Q 40.578125 54.546875 44.28125 53.078125 
" id="BitstreamVeraSans-Roman-73"/>
      <path d="M 9.421875 75.984375 
L 18.40625 75.984375 
L 18.40625 0 
L 9.421875 0 
z
" id="BitstreamVeraSans-Roman-6c"/>
      <path d="M 2.984375 54.6875 
L 12.5 54.6875 
L 29.59375 8.796875 
L 46.6875 54.6875 
L 56.203125 54.6875 
L 35.6875 0 
L 23.484375 0 
z
" id="BitstreamVeraSans-Roman-76"/>
      <path id="BitstreamVeraSans-Roman-20"/>
      <path d="M 56.203125 29.59375 
L 56.203125 25.203125 
L 14.890625 25.203125 
Q 15.484375 15.921875 20.484375 11.0625 
Q 25.484375 6.203125 34.421875 6.203125 
Q 39.59375 6.203125 44.453125 7.46875 
Q 49.3125 8.734375 54.109375 11.28125 
L 54.109375 2.78125 
Q 49.265625 0.734375 44.1875 -0.34375 
Q 39.109375 -1.421875 33.890625 -1.421875 
Q 20.796875 -1.421875 13.15625 6.1875 
Q 5.515625 13.8125 5.515625 26.8125 
Q 5.515625 40.234375 12.765625 48.109375 
Q 20.015625 56 32.328125 56 
Q 43.359375 56 49.78125 48.890625 
Q 56.203125 41.796875 56.203125 29.59375 
M 47.21875 32.234375 
Q 47.125 39.59375 43.09375 43.984375 
Q 39.0625 48.390625 32.421875 48.390625 
Q 24.90625 48.390625 20.390625 44.140625 
Q 15.875 39.890625 15.1875 32.171875 
z
" id="BitstreamVeraSans-Roman-65"/>
      <path d="M 48.6875 27.296875 
Q 48.6875 37.203125 44.609375 42.84375 
Q 40.53125 48.484375 33.40625 48.484375 
Q 26.265625 48.484375 22.1875 42.84375 
Q 18.109375 37.203125 18.109375 27.296875 
Q 18.109375 17.390625 22.1875 11.75 
Q 26.265625 6.109375 33.40625 6.109375 
Q 40.53125 6.109375 44.609375 11.75 
Q 48.6875 17.390625 48.6875 27.296875 
M 18.109375 46.390625 
Q 20.953125 51.265625 25.265625 53.625 
Q 29.59375 56 35.59375 56 
Q 45.5625 56 51.78125 48.09375 
Q 58.015625 40.1875 58.015625 27.296875 
Q 58.015625 14.40625 51.78125 6.484375 
Q 45.5625 -1.421875 35.59375 -1.421875 
Q 29.59375 -1.421875 25.265625 0.953125 
Q 20.953125 3.328125 18.109375 8.203125 
L 18.109375 0 
L 9.078125 0 
L 9.078125 75.984375 
L 18.109375 75.984375 
z
" id="BitstreamVeraSans-Roman-62"/>
      <path d="M 51.125 44 
L 36.921875 44 
L 32.8125 27.6875 
L 47.125 27.6875 
z
M 43.796875 71.78125 
L 38.71875 51.515625 
L 52.984375 51.515625 
L 58.109375 71.78125 
L 65.921875 71.78125 
L 60.890625 51.515625 
L 76.125 51.515625 
L 76.125 44 
L 58.984375 44 
L 54.984375 27.6875 
L 70.515625 27.6875 
L 70.515625 20.21875 
L 53.078125 20.21875 
L 48 0 
L 40.1875 0 
L 45.21875 20.21875 
L 30.90625 20.21875 
L 25.875 0 
L 18.015625 0 
L 23.09375 20.21875 
L 7.71875 20.21875 
L 7.71875 27.6875 
L 24.90625 27.6875 
L 29 44 
L 13.28125 44 
L 13.28125 51.515625 
L 30.90625 51.515625 
L 35.890625 71.78125 
z
" id="BitstreamVeraSans-Roman-23"/>
      <path d="M 9.421875 54.6875 
L 18.40625 54.6875 
L 18.40625 0 
L 9.421875 0 
z
M 9.421875 75.984375 
L 18.40625 75.984375 
L 18.40625 64.59375 
L 9.421875 64.59375 
z
" id="BitstreamVeraSans-Roman-69"/>
      <path d="M 34.28125 27.484375 
Q 23.390625 27.484375 19.1875 25 
Q 14.984375 22.515625 14.984375 16.5 
Q 14.984375 11.71875 18.140625 8.90625 
Q 21.296875 6.109375 26.703125 6.109375 
Q 34.1875 6.109375 38.703125 11.40625 
Q 43.21875 16.703125 43.21875 25.484375 
L 43.21875 27.484375 
z
M 52.203125 31.203125 
L 52.203125 0 
L 43.21875 0 
L 43.21875 8.296875 
Q 40.140625 3.328125 35.546875 0.953125 
Q 30.953125 -1.421875 24.3125 -1.421875 
Q 15.921875 -1.421875 10.953125 3.296875 
Q 6 8.015625 6 15.921875 
Q 6 25.140625 12.171875 29.828125 
Q 18.359375 34.515625 30.609375 34.515625 
L 43.21875 34.515625 
L 43.21875 35.40625 
Q 43.21875 41.609375 39.140625 45 
Q 35.0625 48.390625 27.6875 48.390625 
Q 23 48.390625 18.546875 47.265625 
Q 14.109375 46.140625 10.015625 43.890625 
L 10.015625 52.203125 
Q 14.9375 54.109375 19.578125 55.046875 
Q 24.21875 56 28.609375 56 
Q 40.484375 56 46.34375 49.84375 
Q 52.203125 43.703125 52.203125 31.203125 
" id="BitstreamVeraSans-Roman-61"/>
      <path d="M 41.109375 46.296875 
Q 39.59375 47.171875 37.8125 47.578125 
Q 36.03125 48 33.890625 48 
Q 26.265625 48 22.1875 43.046875 
Q 18.109375 38.09375 18.109375 28.8125 
L 18.109375 0 
L 9.078125 0 
L 9.078125 54.6875 
L 18.109375 54.6875 
L 18.109375 46.1875 
Q 20.953125 51.171875 25.484375 53.578125 
Q 30.03125 56 36.53125 56 
Q 37.453125 56 38.578125 55.875 
Q 39.703125 55.765625 41.0625 55.515625 
z
" id="BitstreamVeraSans-Roman-72"/>
     </defs>
     <g transform="translate(146.403061202 344.544375)scale(0.12 -0.12)">
      <use xlink:href="#BitstreamVeraSans-Roman-23"/>
      <use x="83.7890625" xlink:href="#BitstreamVeraSans-Roman-20"/>
      <use x="115.576171875" xlink:href="#BitstreamVeraSans-Roman-73"/>
      <use x="167.67578125" xlink:href="#BitstreamVeraSans-Roman-74"/>
      <use x="206.884765625" xlink:href="#BitstreamVeraSans-Roman-61"/>
      <use x="268.1640625" xlink:href="#BitstreamVeraSans-Roman-74"/>
      <use x="307.373046875" xlink:href="#BitstreamVeraSans-Roman-65"/>
      <use x="368.896484375" xlink:href="#BitstreamVeraSans-Roman-20"/>
      <use x="400.68359375" xlink:href="#BitstreamVeraSans-Roman-76"/>
      <use x="459.86328125" xlink:href="#BitstreamVeraSans-Roman-61"/>
      <use x="521.142578125" xlink:href="#BitstreamVeraSans-Roman-72"/>
      <use x="562.255859375" xlink:href="#BitstreamVeraSans-Roman-69"/>
      <use x="590.0390625" xlink:href="#BitstreamVeraSans-Roman-61"/>
      <use x="651.318359375" xlink:href="#BitstreamVeraSans-Roman-62"/>
      <use x="714.794921875" xlink:href="#BitstreamVeraSans-Roman-6c"/>
      <use x="742.578125" xlink:href="#BitstreamVeraSans-Roman-65"/>
      <use x="804.1015625" xlink:href="#BitstreamVeraSans-Roman-73"/>
     </g>
    </g>
   </g>
   <g id="matplotlib.axis_2">
    <g id="ytick_1">
     <g id="line2d_19">
      <defs>
       <path d="M 0 0 
L 4 0 
" id="m9fd6bba6af" style="stroke:#000000;stroke-width:0.5;"/>
      </defs>
      <g>
       <use style="stroke:#000000;stroke-width:0.5;" x="41.20875" xlink:href="#m9fd6bba6af" y="314.8125"/>
      </g>
     </g>
     <g id="line2d_20">
      <defs>
       <path d="M 0 0 
L -4 0 
" id="m122d91b5fc" style="stroke:#000000;stroke-width:0.5;"/>
      </defs>
      <g>
       <use style="stroke:#000000;stroke-width:0.5;" x="354.341747405" xlink:href="#m122d91b5fc" y="314.8125"/>
      </g>
     </g>
     <g id="text_11">
      <!-- 0 -->
      <g transform="translate(29.57375 318.12375)scale(0.12 -0.12)">
       <use xlink:href="#BitstreamVeraSans-Roman-30"/>
      </g>
     </g>
    </g>
    <g id="ytick_2">
     <g id="line2d_21">
      <g>
       <use style="stroke:#000000;stroke-width:0.5;" x="41.20875" xlink:href="#m9fd6bba6af" y="281.918541667"/>
      </g>
     </g>
     <g id="line2d_22">
      <g>
       <use style="stroke:#000000;stroke-width:0.5;" x="354.341747405" xlink:href="#m122d91b5fc" y="281.918541667"/>
      </g>
     </g>
     <g id="text_12">
      <!-- 1 -->
      <g transform="translate(29.57375 285.229791667)scale(0.12 -0.12)">
       <use xlink:href="#BitstreamVeraSans-Roman-31"/>
      </g>
     </g>
    </g>
    <g id="ytick_3">
     <g id="line2d_23">
      <g>
       <use style="stroke:#000000;stroke-width:0.5;" x="41.20875" xlink:href="#m9fd6bba6af" y="249.024583333"/>
      </g>
     </g>
     <g id="line2d_24">
      <g>
       <use style="stroke:#000000;stroke-width:0.5;" x="354.341747405" xlink:href="#m122d91b5fc" y="249.024583333"/>
      </g>
     </g>
     <g id="text_13">
      <!-- 2 -->
      <defs>
       <path d="M 19.1875 8.296875 
L 53.609375 8.296875 
L 53.609375 0 
L 7.328125 0 
L 7.328125 8.296875 
Q 12.9375 14.109375 22.625 23.890625 
Q 32.328125 33.6875 34.8125 36.53125 
Q 39.546875 41.84375 41.421875 45.53125 
Q 43.3125 49.21875 43.3125 52.78125 
Q 43.3125 58.59375 39.234375 62.25 
Q 35.15625 65.921875 28.609375 65.921875 
Q 23.96875 65.921875 18.8125 64.3125 
Q 13.671875 62.703125 7.8125 59.421875 
L 7.8125 69.390625 
Q 13.765625 71.78125 18.9375 73 
Q 24.125 74.21875 28.421875 74.21875 
Q 39.75 74.21875 46.484375 68.546875 
Q 53.21875 62.890625 53.21875 53.421875 
Q 53.21875 48.921875 51.53125 44.890625 
Q 49.859375 40.875 45.40625 35.40625 
Q 44.1875 33.984375 37.640625 27.21875 
Q 31.109375 20.453125 19.1875 8.296875 
" id="BitstreamVeraSans-Roman-32"/>
      </defs>
      <g transform="translate(29.57375 252.335833333)scale(0.12 -0.12)">
       <use xlink:href="#BitstreamVeraSans-Roman-32"/>
      </g>
     </g>
    </g>
    <g id="ytick_4">
     <g id="line2d_25">
      <g>
       <use style="stroke:#000000;stroke-width:0.5;" x="41.20875" xlink:href="#m9fd6bba6af" y="216.130625"/>
      </g>
     </g>
     <g id="line2d_26">
      <g>
       <use style="stroke:#000000;stroke-width:0.5;" x="354.341747405" xlink:href="#m122d91b5fc" y="216.130625"/>
      </g>
     </g>
     <g id="text_14">
      <!-- 3 -->
      <g transform="translate(29.57375 219.441875)scale(0.12 -0.12)">
       <use xlink:href="#BitstreamVeraSans-Roman-33"/>
      </g>
     </g>
    </g>
    <g id="ytick_5">
     <g id="line2d_27">
      <g>
       <use style="stroke:#000000;stroke-width:0.5;" x="41.20875" xlink:href="#m9fd6bba6af" y="183.236666667"/>
      </g>
     </g>
     <g id="line2d_28">
      <g>
       <use style="stroke:#000000;stroke-width:0.5;" x="354.341747405" xlink:href="#m122d91b5fc" y="183.236666667"/>
      </g>
     </g>
     <g id="text_15">
      <!-- 4 -->
      <g transform="translate(29.57375 186.547916667)scale(0.12 -0.12)">
       <use xlink:href="#BitstreamVeraSans-Roman-34"/>
      </g>
     </g>
    </g>
    <g id="ytick_6">
     <g id="line2d_29">
      <g>
       <use style="stroke:#000000;stroke-width:0.5;" x="41.20875" xlink:href="#m9fd6bba6af" y="150.342708333"/>
      </g>
     </g>
     <g id="line2d_30">
      <g>
       <use style="stroke:#000000;stroke-width:0.5;" x="354.341747405" xlink:href="#m122d91b5fc" y="150.342708333"/>
      </g>
     </g>
     <g id="text_16">
      <!-- 5 -->
      <g transform="translate(29.57375 153.653958333)scale(0.12 -0.12)">
       <use xlink:href="#BitstreamVeraSans-Roman-35"/>
      </g>
     </g>
    </g>
    <g id="ytick_7">
     <g id="line2d_31">
      <g>
       <use style="stroke:#000000;stroke-width:0.5;" x="41.20875" xlink:href="#m9fd6bba6af" y="117.44875"/>
      </g>
     </g>
     <g id="line2d_32">
      <g>
       <use style="stroke:#000000;stroke-width:0.5;" x="354.341747405" xlink:href="#m122d91b5fc" y="117.44875"/>
      </g>
     </g>
     <g id="text_17">
      <!-- 6 -->
      <g transform="translate(29.57375 120.76)scale(0.12 -0.12)">
       <use xlink:href="#BitstreamVeraSans-Roman-36"/>
      </g>
     </g>
    </g>
    <g id="ytick_8">
     <g id="line2d_33">
      <g>
       <use style="stroke:#000000;stroke-width:0.5;" x="41.20875" xlink:href="#m9fd6bba6af" y="84.5547916667"/>
      </g>
     </g>
     <g id="line2d_34">
      <g>
       <use style="stroke:#000000;stroke-width:0.5;" x="354.341747405" xlink:href="#m122d91b5fc" y="84.5547916667"/>
      </g>
     </g>
     <g id="text_18">
      <!-- 7 -->
      <g transform="translate(29.57375 87.8660416667)scale(0.12 -0.12)">
       <use xlink:href="#BitstreamVeraSans-Roman-37"/>
      </g>
     </g>
    </g>
    <g id="ytick_9">
     <g id="line2d_35">
      <g>
       <use style="stroke:#000000;stroke-width:0.5;" x="41.20875" xlink:href="#m9fd6bba6af" y="51.6608333333"/>
      </g>
     </g>
     <g id="line2d_36">
      <g>
       <use style="stroke:#000000;stroke-width:0.5;" x="354.341747405" xlink:href="#m122d91b5fc" y="51.6608333333"/>
      </g>
     </g>
     <g id="text_19">
      <!-- 8 -->
      <g transform="translate(29.57375 54.9720833333)scale(0.12 -0.12)">
       <use xlink:href="#BitstreamVeraSans-Roman-38"/>
      </g>
     </g>
    </g>
    <g id="ytick_10">
     <g id="line2d_37">
      <g>
       <use style="stroke:#000000;stroke-width:0.5;" x="41.20875" xlink:href="#m9fd6bba6af" y="18.766875"/>
      </g>
     </g>
     <g id="line2d_38">
      <g>
       <use style="stroke:#000000;stroke-width:0.5;" x="354.341747405" xlink:href="#m122d91b5fc" y="18.766875"/>
      </g>
     </g>
     <g id="text_20">
      <!-- 9 -->
      <g transform="translate(29.57375 22.078125)scale(0.12 -0.12)">
       <use xlink:href="#BitstreamVeraSans-Roman-39"/>
      </g>
     </g>
    </g>
    <g id="text_21">
     <!-- # models -->
     <defs>
      <path d="M 52 44.1875 
Q 55.375 50.25 60.0625 53.125 
Q 64.75 56 71.09375 56 
Q 79.640625 56 84.28125 50.015625 
Q 88.921875 44.046875 88.921875 33.015625 
L 88.921875 0 
L 79.890625 0 
L 79.890625 32.71875 
Q 79.890625 40.578125 77.09375 44.375 
Q 74.3125 48.1875 68.609375 48.1875 
Q 61.625 48.1875 57.5625 43.546875 
Q 53.515625 38.921875 53.515625 30.90625 
L 53.515625 0 
L 44.484375 0 
L 44.484375 32.71875 
Q 44.484375 40.625 41.703125 44.40625 
Q 38.921875 48.1875 33.109375 48.1875 
Q 26.21875 48.1875 22.15625 43.53125 
Q 18.109375 38.875 18.109375 30.90625 
L 18.109375 0 
L 9.078125 0 
L 9.078125 54.6875 
L 18.109375 54.6875 
L 18.109375 46.1875 
Q 21.1875 51.21875 25.484375 53.609375 
Q 29.78125 56 35.6875 56 
Q 41.65625 56 45.828125 52.96875 
Q 50 49.953125 52 44.1875 
" id="BitstreamVeraSans-Roman-6d"/>
      <path d="M 45.40625 46.390625 
L 45.40625 75.984375 
L 54.390625 75.984375 
L 54.390625 0 
L 45.40625 0 
L 45.40625 8.203125 
Q 42.578125 3.328125 38.25 0.953125 
Q 33.9375 -1.421875 27.875 -1.421875 
Q 17.96875 -1.421875 11.734375 6.484375 
Q 5.515625 14.40625 5.515625 27.296875 
Q 5.515625 40.1875 11.734375 48.09375 
Q 17.96875 56 27.875 56 
Q 33.9375 56 38.25 53.625 
Q 42.578125 51.265625 45.40625 46.390625 
M 14.796875 27.296875 
Q 14.796875 17.390625 18.875 11.75 
Q 22.953125 6.109375 30.078125 6.109375 
Q 37.203125 6.109375 41.296875 11.75 
Q 45.40625 17.390625 45.40625 27.296875 
Q 45.40625 37.203125 41.296875 42.84375 
Q 37.203125 48.484375 30.078125 48.484375 
Q 22.953125 48.484375 18.875 42.84375 
Q 14.796875 37.203125 14.796875 27.296875 
" id="BitstreamVeraSans-Roman-64"/>
      <path d="M 30.609375 48.390625 
Q 23.390625 48.390625 19.1875 42.75 
Q 14.984375 37.109375 14.984375 27.296875 
Q 14.984375 17.484375 19.15625 11.84375 
Q 23.34375 6.203125 30.609375 6.203125 
Q 37.796875 6.203125 41.984375 11.859375 
Q 46.1875 17.53125 46.1875 27.296875 
Q 46.1875 37.015625 41.984375 42.703125 
Q 37.796875 48.390625 30.609375 48.390625 
M 30.609375 56 
Q 42.328125 56 49.015625 48.375 
Q 55.71875 40.765625 55.71875 27.296875 
Q 55.71875 13.875 49.015625 6.21875 
Q 42.328125 -1.421875 30.609375 -1.421875 
Q 18.84375 -1.421875 12.171875 6.21875 
Q 5.515625 13.875 5.515625 27.296875 
Q 5.515625 40.765625 12.171875 48.375 
Q 18.84375 56 30.609375 56 
" id="BitstreamVeraSans-Roman-6f"/>
     </defs>
     <g transform="translate(22.078125 195.5334375)rotate(-90.0)scale(0.12 -0.12)">
      <use xlink:href="#BitstreamVeraSans-Roman-23"/>
      <use x="83.7890625" xlink:href="#BitstreamVeraSans-Roman-20"/>
      <use x="115.576171875" xlink:href="#BitstreamVeraSans-Roman-6d"/>
      <use x="212.98828125" xlink:href="#BitstreamVeraSans-Roman-6f"/>
      <use x="274.169921875" xlink:href="#BitstreamVeraSans-Roman-64"/>
      <use x="337.646484375" xlink:href="#BitstreamVeraSans-Roman-65"/>
      <use x="399.169921875" xlink:href="#BitstreamVeraSans-Roman-6c"/>
      <use x="426.953125" xlink:href="#BitstreamVeraSans-Roman-73"/>
     </g>
    </g>
   </g>
  </g>
  <g id="axes_2">
   <g id="patch_16">
    <path d="M 395.550497 314.8125 
L 708.683495 314.8125 
L 708.683495 18.766875 
L 395.550497 18.766875 
z
" style="fill:#ffffff;"/>
   </g>
   <g id="patch_17">
    <path clip-path="url(#pdf3a0b2969)" d="M 395.550497 314.8125 
L 409.783815 314.8125 
L 409.783815 240.801094 
L 395.550497 240.801094 
z
" style="fill:#008000;opacity:0.75;stroke:#000000;stroke-linejoin:miter;"/>
   </g>
   <g id="patch_18">
    <path clip-path="url(#pdf3a0b2969)" d="M 409.783815 314.8125 
L 424.017134 314.8125 
L 424.017134 240.801094 
L 409.783815 240.801094 
z
" style="fill:#008000;opacity:0.75;stroke:#000000;stroke-linejoin:miter;"/>
   </g>
   <g id="patch_19">
    <path clip-path="url(#pdf3a0b2969)" d="M 424.017134 314.8125 
L 438.250452 314.8125 
L 438.250452 314.8125 
L 424.017134 314.8125 
z
" style="fill:#008000;opacity:0.75;stroke:#000000;stroke-linejoin:miter;"/>
   </g>
   <g id="patch_20">
    <path clip-path="url(#pdf3a0b2969)" d="M 438.250452 314.8125 
L 452.48377 314.8125 
L 452.48377 314.8125 
L 438.250452 314.8125 
z
" style="fill:#008000;opacity:0.75;stroke:#000000;stroke-linejoin:miter;"/>
   </g>
   <g id="patch_21">
    <path clip-path="url(#pdf3a0b2969)" d="M 452.48377 314.8125 
L 466.717088 314.8125 
L 466.717088 18.766875 
L 452.48377 18.766875 
z
" style="fill:#008000;opacity:0.75;stroke:#000000;stroke-linejoin:miter;"/>
   </g>
   <g id="patch_22">
    <path clip-path="url(#pdf3a0b2969)" d="M 466.717088 314.8125 
L 480.950406 314.8125 
L 480.950406 240.801094 
L 466.717088 240.801094 
z
" style="fill:#008000;opacity:0.75;stroke:#000000;stroke-linejoin:miter;"/>
   </g>
   <g id="patch_23">
    <path clip-path="url(#pdf3a0b2969)" d="M 480.950406 314.8125 
L 495.183724 314.8125 
L 495.183724 240.801094 
L 480.950406 240.801094 
z
" style="fill:#008000;opacity:0.75;stroke:#000000;stroke-linejoin:miter;"/>
   </g>
   <g id="patch_24">
    <path clip-path="url(#pdf3a0b2969)" d="M 495.183724 314.8125 
L 509.417042 314.8125 
L 509.417042 314.8125 
L 495.183724 314.8125 
z
" style="fill:#008000;opacity:0.75;stroke:#000000;stroke-linejoin:miter;"/>
   </g>
   <g id="patch_25">
    <path clip-path="url(#pdf3a0b2969)" d="M 509.417042 314.8125 
L 523.65036 314.8125 
L 523.65036 240.801094 
L 509.417042 240.801094 
z
" style="fill:#008000;opacity:0.75;stroke:#000000;stroke-linejoin:miter;"/>
   </g>
   <g id="patch_26">
    <path clip-path="url(#pdf3a0b2969)" d="M 523.65036 314.8125 
L 537.883678 314.8125 
L 537.883678 314.8125 
L 523.65036 314.8125 
z
" style="fill:#008000;opacity:0.75;stroke:#000000;stroke-linejoin:miter;"/>
   </g>
   <g id="patch_27">
    <path clip-path="url(#pdf3a0b2969)" d="M 537.883678 314.8125 
L 552.116996 314.8125 
L 552.116996 240.801094 
L 537.883678 240.801094 
z
" style="fill:#008000;opacity:0.75;stroke:#000000;stroke-linejoin:miter;"/>
   </g>
   <g id="patch_28">
    <path clip-path="url(#pdf3a0b2969)" d="M 552.116996 314.8125 
L 566.350314 314.8125 
L 566.350314 314.8125 
L 552.116996 314.8125 
z
" style="fill:#008000;opacity:0.75;stroke:#000000;stroke-linejoin:miter;"/>
   </g>
   <g id="patch_29">
    <path clip-path="url(#pdf3a0b2969)" d="M 566.350314 314.8125 
L 580.583632 314.8125 
L 580.583632 240.801094 
L 566.350314 240.801094 
z
" style="fill:#008000;opacity:0.75;stroke:#000000;stroke-linejoin:miter;"/>
   </g>
   <g id="patch_30">
    <path clip-path="url(#pdf3a0b2969)" d="M 580.583632 314.8125 
L 594.81695 314.8125 
L 594.81695 314.8125 
L 580.583632 314.8125 
z
" style="fill:#008000;opacity:0.75;stroke:#000000;stroke-linejoin:miter;"/>
   </g>
   <g id="patch_31">
    <path clip-path="url(#pdf3a0b2969)" d="M 594.81695 314.8125 
L 609.050268 314.8125 
L 609.050268 240.801094 
L 594.81695 240.801094 
z
" style="fill:#008000;opacity:0.75;stroke:#000000;stroke-linejoin:miter;"/>
   </g>
   <g id="patch_32">
    <path clip-path="url(#pdf3a0b2969)" d="M 609.050268 314.8125 
L 623.283586 314.8125 
L 623.283586 240.801094 
L 609.050268 240.801094 
z
" style="fill:#008000;opacity:0.75;stroke:#000000;stroke-linejoin:miter;"/>
   </g>
   <g id="patch_33">
    <path clip-path="url(#pdf3a0b2969)" d="M 623.283586 314.8125 
L 637.516904 314.8125 
L 637.516904 314.8125 
L 623.283586 314.8125 
z
" style="fill:#008000;opacity:0.75;stroke:#000000;stroke-linejoin:miter;"/>
   </g>
   <g id="patch_34">
    <path clip-path="url(#pdf3a0b2969)" d="M 637.516904 314.8125 
L 651.750223 314.8125 
L 651.750223 314.8125 
L 637.516904 314.8125 
z
" style="fill:#008000;opacity:0.75;stroke:#000000;stroke-linejoin:miter;"/>
   </g>
   <g id="patch_35">
    <path clip-path="url(#pdf3a0b2969)" d="M 651.750223 314.8125 
L 665.983541 314.8125 
L 665.983541 314.8125 
L 651.750223 314.8125 
z
" style="fill:#008000;opacity:0.75;stroke:#000000;stroke-linejoin:miter;"/>
   </g>
   <g id="patch_36">
    <path clip-path="url(#pdf3a0b2969)" d="M 665.983541 314.8125 
L 680.216859 314.8125 
L 680.216859 314.8125 
L 665.983541 314.8125 
z
" style="fill:#008000;opacity:0.75;stroke:#000000;stroke-linejoin:miter;"/>
   </g>
   <g id="patch_37">
    <path clip-path="url(#pdf3a0b2969)" d="M 680.216859 314.8125 
L 694.450177 314.8125 
L 694.450177 314.8125 
L 680.216859 314.8125 
z
" style="fill:#008000;opacity:0.75;stroke:#000000;stroke-linejoin:miter;"/>
   </g>
   <g id="patch_38">
    <path clip-path="url(#pdf3a0b2969)" d="M 694.450177 314.8125 
L 708.683495 314.8125 
L 708.683495 240.801094 
L 694.450177 240.801094 
z
" style="fill:#008000;opacity:0.75;stroke:#000000;stroke-linejoin:miter;"/>
   </g>
   <g id="patch_39">
    <path d="M 395.550497 314.8125 
L 395.550497 18.766875 
" style="fill:none;stroke:#000000;stroke-linecap:square;stroke-linejoin:miter;"/>
   </g>
   <g id="patch_40">
    <path d="M 708.683495 314.8125 
L 708.683495 18.766875 
" style="fill:none;stroke:#000000;stroke-linecap:square;stroke-linejoin:miter;"/>
   </g>
   <g id="patch_41">
    <path d="M 395.550497 18.766875 
L 708.683495 18.766875 
" style="fill:none;stroke:#000000;stroke-linecap:square;stroke-linejoin:miter;"/>
   </g>
   <g id="patch_42">
    <path d="M 395.550497 314.8125 
L 708.683495 314.8125 
" style="fill:none;stroke:#000000;stroke-linecap:square;stroke-linejoin:miter;"/>
   </g>
   <g id="matplotlib.axis_3">
    <g id="xtick_10">
     <g id="line2d_39">
      <g>
       <use style="stroke:#000000;stroke-width:0.5;" x="416.900474501" xlink:href="#m57feaae298" y="314.8125"/>
      </g>
     </g>
     <g id="line2d_40">
      <g>
       <use style="stroke:#000000;stroke-width:0.5;" x="416.900474501" xlink:href="#m42e7f89e10" y="18.766875"/>
      </g>
     </g>
     <g id="text_22">
      <!-- 3 -->
      <g transform="translate(413.082974501 327.930625)scale(0.12 -0.12)">
       <use xlink:href="#BitstreamVeraSans-Roman-33"/>
      </g>
     </g>
    </g>
    <g id="xtick_11">
     <g id="line2d_41">
      <g>
       <use style="stroke:#000000;stroke-width:0.5;" x="459.600428692" xlink:href="#m57feaae298" y="314.8125"/>
      </g>
     </g>
     <g id="line2d_42">
      <g>
       <use style="stroke:#000000;stroke-width:0.5;" x="459.600428692" xlink:href="#m42e7f89e10" y="18.766875"/>
      </g>
     </g>
     <g id="text_23">
      <!-- 6 -->
      <g transform="translate(455.782928692 327.930625)scale(0.12 -0.12)">
       <use xlink:href="#BitstreamVeraSans-Roman-36"/>
      </g>
     </g>
    </g>
    <g id="xtick_12">
     <g id="line2d_43">
      <g>
       <use style="stroke:#000000;stroke-width:0.5;" x="502.300382884" xlink:href="#m57feaae298" y="314.8125"/>
      </g>
     </g>
     <g id="line2d_44">
      <g>
       <use style="stroke:#000000;stroke-width:0.5;" x="502.300382884" xlink:href="#m42e7f89e10" y="18.766875"/>
      </g>
     </g>
     <g id="text_24">
      <!-- 9 -->
      <g transform="translate(498.482882884 327.930625)scale(0.12 -0.12)">
       <use xlink:href="#BitstreamVeraSans-Roman-39"/>
      </g>
     </g>
    </g>
    <g id="xtick_13">
     <g id="line2d_45">
      <g>
       <use style="stroke:#000000;stroke-width:0.5;" x="545.000337075" xlink:href="#m57feaae298" y="314.8125"/>
      </g>
     </g>
     <g id="line2d_46">
      <g>
       <use style="stroke:#000000;stroke-width:0.5;" x="545.000337075" xlink:href="#m42e7f89e10" y="18.766875"/>
      </g>
     </g>
     <g id="text_25">
      <!-- 12 -->
      <g transform="translate(537.365337075 327.930625)scale(0.12 -0.12)">
       <use xlink:href="#BitstreamVeraSans-Roman-31"/>
       <use x="63.623046875" xlink:href="#BitstreamVeraSans-Roman-32"/>
      </g>
     </g>
    </g>
    <g id="xtick_14">
     <g id="line2d_47">
      <g>
       <use style="stroke:#000000;stroke-width:0.5;" x="587.700291267" xlink:href="#m57feaae298" y="314.8125"/>
      </g>
     </g>
     <g id="line2d_48">
      <g>
       <use style="stroke:#000000;stroke-width:0.5;" x="587.700291267" xlink:href="#m42e7f89e10" y="18.766875"/>
      </g>
     </g>
     <g id="text_26">
      <!-- 15 -->
      <g transform="translate(580.065291267 327.930625)scale(0.12 -0.12)">
       <use xlink:href="#BitstreamVeraSans-Roman-31"/>
       <use x="63.623046875" xlink:href="#BitstreamVeraSans-Roman-35"/>
      </g>
     </g>
    </g>
    <g id="xtick_15">
     <g id="line2d_49">
      <g>
       <use style="stroke:#000000;stroke-width:0.5;" x="630.400245458" xlink:href="#m57feaae298" y="314.8125"/>
      </g>
     </g>
     <g id="line2d_50">
      <g>
       <use style="stroke:#000000;stroke-width:0.5;" x="630.400245458" xlink:href="#m42e7f89e10" y="18.766875"/>
      </g>
     </g>
     <g id="text_27">
      <!-- 18 -->
      <g transform="translate(622.765245458 327.930625)scale(0.12 -0.12)">
       <use xlink:href="#BitstreamVeraSans-Roman-31"/>
       <use x="63.623046875" xlink:href="#BitstreamVeraSans-Roman-38"/>
      </g>
     </g>
    </g>
    <g id="xtick_16">
     <g id="line2d_51">
      <g>
       <use style="stroke:#000000;stroke-width:0.5;" x="673.10019965" xlink:href="#m57feaae298" y="314.8125"/>
      </g>
     </g>
     <g id="line2d_52">
      <g>
       <use style="stroke:#000000;stroke-width:0.5;" x="673.10019965" xlink:href="#m42e7f89e10" y="18.766875"/>
      </g>
     </g>
     <g id="text_28">
      <!-- 21 -->
      <g transform="translate(665.46519965 327.930625)scale(0.12 -0.12)">
       <use xlink:href="#BitstreamVeraSans-Roman-32"/>
       <use x="63.623046875" xlink:href="#BitstreamVeraSans-Roman-31"/>
      </g>
     </g>
    </g>
    <g id="text_29">
     <!-- # parameters -->
     <defs>
      <path d="M 18.109375 8.203125 
L 18.109375 -20.796875 
L 9.078125 -20.796875 
L 9.078125 54.6875 
L 18.109375 54.6875 
L 18.109375 46.390625 
Q 20.953125 51.265625 25.265625 53.625 
Q 29.59375 56 35.59375 56 
Q 45.5625 56 51.78125 48.09375 
Q 58.015625 40.1875 58.015625 27.296875 
Q 58.015625 14.40625 51.78125 6.484375 
Q 45.5625 -1.421875 35.59375 -1.421875 
Q 29.59375 -1.421875 25.265625 0.953125 
Q 20.953125 3.328125 18.109375 8.203125 
M 48.6875 27.296875 
Q 48.6875 37.203125 44.609375 42.84375 
Q 40.53125 48.484375 33.40625 48.484375 
Q 26.265625 48.484375 22.1875 42.84375 
Q 18.109375 37.203125 18.109375 27.296875 
Q 18.109375 17.390625 22.1875 11.75 
Q 26.265625 6.109375 33.40625 6.109375 
Q 40.53125 6.109375 44.609375 11.75 
Q 48.6875 17.390625 48.6875 27.296875 
" id="BitstreamVeraSans-Roman-70"/>
     </defs>
     <g transform="translate(510.380433607 344.544375)scale(0.12 -0.12)">
      <use xlink:href="#BitstreamVeraSans-Roman-23"/>
      <use x="83.7890625" xlink:href="#BitstreamVeraSans-Roman-20"/>
      <use x="115.576171875" xlink:href="#BitstreamVeraSans-Roman-70"/>
      <use x="179.052734375" xlink:href="#BitstreamVeraSans-Roman-61"/>
      <use x="240.33203125" xlink:href="#BitstreamVeraSans-Roman-72"/>
      <use x="281.4453125" xlink:href="#BitstreamVeraSans-Roman-61"/>
      <use x="342.724609375" xlink:href="#BitstreamVeraSans-Roman-6d"/>
      <use x="440.13671875" xlink:href="#BitstreamVeraSans-Roman-65"/>
      <use x="501.66015625" xlink:href="#BitstreamVeraSans-Roman-74"/>
      <use x="540.869140625" xlink:href="#BitstreamVeraSans-Roman-65"/>
      <use x="602.392578125" xlink:href="#BitstreamVeraSans-Roman-72"/>
      <use x="643.505859375" xlink:href="#BitstreamVeraSans-Roman-73"/>
     </g>
    </g>
   </g>
   <g id="matplotlib.axis_4">
    <g id="ytick_11">
     <g id="line2d_53">
      <g>
       <use style="stroke:#000000;stroke-width:0.5;" x="395.550497405" xlink:href="#m9fd6bba6af" y="314.8125"/>
      </g>
     </g>
     <g id="line2d_54">
      <g>
       <use style="stroke:#000000;stroke-width:0.5;" x="708.68349481" xlink:href="#m122d91b5fc" y="314.8125"/>
      </g>
     </g>
     <g id="text_30">
      <!-- 0 -->
      <g transform="translate(383.915497405 318.12375)scale(0.12 -0.12)">
       <use xlink:href="#BitstreamVeraSans-Roman-30"/>
      </g>
     </g>
    </g>
    <g id="ytick_12">
     <g id="line2d_55">
      <g>
       <use style="stroke:#000000;stroke-width:0.5;" x="395.550497405" xlink:href="#m9fd6bba6af" y="240.80109375"/>
      </g>
     </g>
     <g id="line2d_56">
      <g>
       <use style="stroke:#000000;stroke-width:0.5;" x="708.68349481" xlink:href="#m122d91b5fc" y="240.80109375"/>
      </g>
     </g>
     <g id="text_31">
      <!-- 1 -->
      <g transform="translate(383.915497405 244.11234375)scale(0.12 -0.12)">
       <use xlink:href="#BitstreamVeraSans-Roman-31"/>
      </g>
     </g>
    </g>
    <g id="ytick_13">
     <g id="line2d_57">
      <g>
       <use style="stroke:#000000;stroke-width:0.5;" x="395.550497405" xlink:href="#m9fd6bba6af" y="166.7896875"/>
      </g>
     </g>
     <g id="line2d_58">
      <g>
       <use style="stroke:#000000;stroke-width:0.5;" x="708.68349481" xlink:href="#m122d91b5fc" y="166.7896875"/>
      </g>
     </g>
     <g id="text_32">
      <!-- 2 -->
      <g transform="translate(383.915497405 170.1009375)scale(0.12 -0.12)">
       <use xlink:href="#BitstreamVeraSans-Roman-32"/>
      </g>
     </g>
    </g>
    <g id="ytick_14">
     <g id="line2d_59">
      <g>
       <use style="stroke:#000000;stroke-width:0.5;" x="395.550497405" xlink:href="#m9fd6bba6af" y="92.77828125"/>
      </g>
     </g>
     <g id="line2d_60">
      <g>
       <use style="stroke:#000000;stroke-width:0.5;" x="708.68349481" xlink:href="#m122d91b5fc" y="92.77828125"/>
      </g>
     </g>
     <g id="text_33">
      <!-- 3 -->
      <g transform="translate(383.915497405 96.08953125)scale(0.12 -0.12)">
       <use xlink:href="#BitstreamVeraSans-Roman-33"/>
      </g>
     </g>
    </g>
    <g id="ytick_15">
     <g id="line2d_61">
      <g>
       <use style="stroke:#000000;stroke-width:0.5;" x="395.550497405" xlink:href="#m9fd6bba6af" y="18.766875"/>
      </g>
     </g>
     <g id="line2d_62">
      <g>
       <use style="stroke:#000000;stroke-width:0.5;" x="708.68349481" xlink:href="#m122d91b5fc" y="18.766875"/>
      </g>
     </g>
     <g id="text_34">
      <!-- 4 -->
      <g transform="translate(383.915497405 22.078125)scale(0.12 -0.12)">
       <use xlink:href="#BitstreamVeraSans-Roman-34"/>
      </g>
     </g>
    </g>
    <g id="text_35">
     <!-- # models -->
     <g transform="translate(376.419872405 195.5334375)rotate(-90.0)scale(0.12 -0.12)">
      <use xlink:href="#BitstreamVeraSans-Roman-23"/>
      <use x="83.7890625" xlink:href="#BitstreamVeraSans-Roman-20"/>
      <use x="115.576171875" xlink:href="#BitstreamVeraSans-Roman-6d"/>
      <use x="212.98828125" xlink:href="#BitstreamVeraSans-Roman-6f"/>
      <use x="274.169921875" xlink:href="#BitstreamVeraSans-Roman-64"/>
      <use x="337.646484375" xlink:href="#BitstreamVeraSans-Roman-65"/>
      <use x="399.169921875" xlink:href="#BitstreamVeraSans-Roman-6c"/>
      <use x="426.953125" xlink:href="#BitstreamVeraSans-Roman-73"/>
     </g>
    </g>
   </g>
  </g>
  <g id="axes_3">
   <g id="patch_43">
    <path d="M 749.892245 314.8125 
L 1063.025242 314.8125 
L 1063.025242 18.766875 
L 749.892245 18.766875 
z
" style="fill:#ffffff;"/>
   </g>
   <g id="patch_44">
    <path clip-path="url(#p627cf09e93)" d="M 749.892245 314.8125 
L 759.102039 314.8125 
L 759.102039 216.130625 
L 749.892245 216.130625 
z
" style="fill:#008000;opacity:0.75;stroke:#000000;stroke-linejoin:miter;"/>
   </g>
   <g id="patch_45">
    <path clip-path="url(#p627cf09e93)" d="M 759.102039 314.8125 
L 768.311833 314.8125 
L 768.311833 18.766875 
L 759.102039 18.766875 
z
" style="fill:#008000;opacity:0.75;stroke:#000000;stroke-linejoin:miter;"/>
   </g>
   <g id="patch_46">
    <path clip-path="url(#p627cf09e93)" d="M 768.311833 314.8125 
L 777.521627 314.8125 
L 777.521627 216.130625 
L 768.311833 216.130625 
z
" style="fill:#008000;opacity:0.75;stroke:#000000;stroke-linejoin:miter;"/>
   </g>
   <g id="patch_47">
    <path clip-path="url(#p627cf09e93)" d="M 777.521627 314.8125 
L 786.731421 314.8125 
L 786.731421 314.8125 
L 777.521627 314.8125 
z
" style="fill:#008000;opacity:0.75;stroke:#000000;stroke-linejoin:miter;"/>
   </g>
   <g id="patch_48">
    <path clip-path="url(#p627cf09e93)" d="M 786.731421 314.8125 
L 795.941215 314.8125 
L 795.941215 314.8125 
L 786.731421 314.8125 
z
" style="fill:#008000;opacity:0.75;stroke:#000000;stroke-linejoin:miter;"/>
   </g>
   <g id="patch_49">
    <path clip-path="url(#p627cf09e93)" d="M 795.941215 314.8125 
L 805.151009 314.8125 
L 805.151009 216.130625 
L 795.941215 216.130625 
z
" style="fill:#008000;opacity:0.75;stroke:#000000;stroke-linejoin:miter;"/>
   </g>
   <g id="patch_50">
    <path clip-path="url(#p627cf09e93)" d="M 805.151009 314.8125 
L 814.360803 314.8125 
L 814.360803 216.130625 
L 805.151009 216.130625 
z
" style="fill:#008000;opacity:0.75;stroke:#000000;stroke-linejoin:miter;"/>
   </g>
   <g id="patch_51">
    <path clip-path="url(#p627cf09e93)" d="M 814.360803 314.8125 
L 823.570597 314.8125 
L 823.570597 216.130625 
L 814.360803 216.130625 
z
" style="fill:#008000;opacity:0.75;stroke:#000000;stroke-linejoin:miter;"/>
   </g>
   <g id="patch_52">
    <path clip-path="url(#p627cf09e93)" d="M 823.570597 314.8125 
L 832.780391 314.8125 
L 832.780391 117.44875 
L 823.570597 117.44875 
z
" style="fill:#008000;opacity:0.75;stroke:#000000;stroke-linejoin:miter;"/>
   </g>
   <g id="patch_53">
    <path clip-path="url(#p627cf09e93)" d="M 832.780391 314.8125 
L 841.990185 314.8125 
L 841.990185 314.8125 
L 832.780391 314.8125 
z
" style="fill:#008000;opacity:0.75;stroke:#000000;stroke-linejoin:miter;"/>
   </g>
   <g id="patch_54">
    <path clip-path="url(#p627cf09e93)" d="M 841.990185 314.8125 
L 851.199979 314.8125 
L 851.199979 314.8125 
L 841.990185 314.8125 
z
" style="fill:#008000;opacity:0.75;stroke:#000000;stroke-linejoin:miter;"/>
   </g>
   <g id="patch_55">
    <path clip-path="url(#p627cf09e93)" d="M 851.199979 314.8125 
L 860.409773 314.8125 
L 860.409773 314.8125 
L 851.199979 314.8125 
z
" style="fill:#008000;opacity:0.75;stroke:#000000;stroke-linejoin:miter;"/>
   </g>
   <g id="patch_56">
    <path clip-path="url(#p627cf09e93)" d="M 860.409773 314.8125 
L 869.619567 314.8125 
L 869.619567 216.130625 
L 860.409773 216.130625 
z
" style="fill:#008000;opacity:0.75;stroke:#000000;stroke-linejoin:miter;"/>
   </g>
   <g id="patch_57">
    <path clip-path="url(#p627cf09e93)" d="M 869.619567 314.8125 
L 878.829361 314.8125 
L 878.829361 314.8125 
L 869.619567 314.8125 
z
" style="fill:#008000;opacity:0.75;stroke:#000000;stroke-linejoin:miter;"/>
   </g>
   <g id="patch_58">
    <path clip-path="url(#p627cf09e93)" d="M 878.829361 314.8125 
L 888.039155 314.8125 
L 888.039155 216.130625 
L 878.829361 216.130625 
z
" style="fill:#008000;opacity:0.75;stroke:#000000;stroke-linejoin:miter;"/>
   </g>
   <g id="patch_59">
    <path clip-path="url(#p627cf09e93)" d="M 888.039155 314.8125 
L 897.248949 314.8125 
L 897.248949 314.8125 
L 888.039155 314.8125 
z
" style="fill:#008000;opacity:0.75;stroke:#000000;stroke-linejoin:miter;"/>
   </g>
   <g id="patch_60">
    <path clip-path="url(#p627cf09e93)" d="M 897.248949 314.8125 
L 906.458744 314.8125 
L 906.458744 314.8125 
L 897.248949 314.8125 
z
" style="fill:#008000;opacity:0.75;stroke:#000000;stroke-linejoin:miter;"/>
   </g>
   <g id="patch_61">
    <path clip-path="url(#p627cf09e93)" d="M 906.458744 314.8125 
L 915.668538 314.8125 
L 915.668538 314.8125 
L 906.458744 314.8125 
z
" style="fill:#008000;opacity:0.75;stroke:#000000;stroke-linejoin:miter;"/>
   </g>
   <g id="patch_62">
    <path clip-path="url(#p627cf09e93)" d="M 915.668538 314.8125 
L 924.878332 314.8125 
L 924.878332 314.8125 
L 915.668538 314.8125 
z
" style="fill:#008000;opacity:0.75;stroke:#000000;stroke-linejoin:miter;"/>
   </g>
   <g id="patch_63">
    <path clip-path="url(#p627cf09e93)" d="M 924.878332 314.8125 
L 934.088126 314.8125 
L 934.088126 314.8125 
L 924.878332 314.8125 
z
" style="fill:#008000;opacity:0.75;stroke:#000000;stroke-linejoin:miter;"/>
   </g>
   <g id="patch_64">
    <path clip-path="url(#p627cf09e93)" d="M 934.088126 314.8125 
L 943.29792 314.8125 
L 943.29792 216.130625 
L 934.088126 216.130625 
z
" style="fill:#008000;opacity:0.75;stroke:#000000;stroke-linejoin:miter;"/>
   </g>
   <g id="patch_65">
    <path clip-path="url(#p627cf09e93)" d="M 943.29792 314.8125 
L 952.507714 314.8125 
L 952.507714 314.8125 
L 943.29792 314.8125 
z
" style="fill:#008000;opacity:0.75;stroke:#000000;stroke-linejoin:miter;"/>
   </g>
   <g id="patch_66">
    <path clip-path="url(#p627cf09e93)" d="M 952.507714 314.8125 
L 961.717508 314.8125 
L 961.717508 314.8125 
L 952.507714 314.8125 
z
" style="fill:#008000;opacity:0.75;stroke:#000000;stroke-linejoin:miter;"/>
   </g>
   <g id="patch_67">
    <path clip-path="url(#p627cf09e93)" d="M 961.717508 314.8125 
L 970.927302 314.8125 
L 970.927302 314.8125 
L 961.717508 314.8125 
z
" style="fill:#008000;opacity:0.75;stroke:#000000;stroke-linejoin:miter;"/>
   </g>
   <g id="patch_68">
    <path clip-path="url(#p627cf09e93)" d="M 970.927302 314.8125 
L 980.137096 314.8125 
L 980.137096 314.8125 
L 970.927302 314.8125 
z
" style="fill:#008000;opacity:0.75;stroke:#000000;stroke-linejoin:miter;"/>
   </g>
   <g id="patch_69">
    <path clip-path="url(#p627cf09e93)" d="M 980.137096 314.8125 
L 989.34689 314.8125 
L 989.34689 314.8125 
L 980.137096 314.8125 
z
" style="fill:#008000;opacity:0.75;stroke:#000000;stroke-linejoin:miter;"/>
   </g>
   <g id="patch_70">
    <path clip-path="url(#p627cf09e93)" d="M 989.34689 314.8125 
L 998.556684 314.8125 
L 998.556684 314.8125 
L 989.34689 314.8125 
z
" style="fill:#008000;opacity:0.75;stroke:#000000;stroke-linejoin:miter;"/>
   </g>
   <g id="patch_71">
    <path clip-path="url(#p627cf09e93)" d="M 998.556684 314.8125 
L 1007.766478 314.8125 
L 1007.766478 314.8125 
L 998.556684 314.8125 
z
" style="fill:#008000;opacity:0.75;stroke:#000000;stroke-linejoin:miter;"/>
   </g>
   <g id="patch_72">
    <path clip-path="url(#p627cf09e93)" d="M 1007.766478 314.8125 
L 1016.976272 314.8125 
L 1016.976272 314.8125 
L 1007.766478 314.8125 
z
" style="fill:#008000;opacity:0.75;stroke:#000000;stroke-linejoin:miter;"/>
   </g>
   <g id="patch_73">
    <path clip-path="url(#p627cf09e93)" d="M 1016.976272 314.8125 
L 1026.186066 314.8125 
L 1026.186066 314.8125 
L 1016.976272 314.8125 
z
" style="fill:#008000;opacity:0.75;stroke:#000000;stroke-linejoin:miter;"/>
   </g>
   <g id="patch_74">
    <path clip-path="url(#p627cf09e93)" d="M 1026.186066 314.8125 
L 1035.39586 314.8125 
L 1035.39586 314.8125 
L 1026.186066 314.8125 
z
" style="fill:#008000;opacity:0.75;stroke:#000000;stroke-linejoin:miter;"/>
   </g>
   <g id="patch_75">
    <path clip-path="url(#p627cf09e93)" d="M 1035.39586 314.8125 
L 1044.605654 314.8125 
L 1044.605654 314.8125 
L 1035.39586 314.8125 
z
" style="fill:#008000;opacity:0.75;stroke:#000000;stroke-linejoin:miter;"/>
   </g>
   <g id="patch_76">
    <path clip-path="url(#p627cf09e93)" d="M 1044.605654 314.8125 
L 1053.815448 314.8125 
L 1053.815448 314.8125 
L 1044.605654 314.8125 
z
" style="fill:#008000;opacity:0.75;stroke:#000000;stroke-linejoin:miter;"/>
   </g>
   <g id="patch_77">
    <path clip-path="url(#p627cf09e93)" d="M 1053.815448 314.8125 
L 1063.025242 314.8125 
L 1063.025242 216.130625 
L 1053.815448 216.130625 
z
" style="fill:#008000;opacity:0.75;stroke:#000000;stroke-linejoin:miter;"/>
   </g>
   <g id="patch_78">
    <path d="M 749.892245 314.8125 
L 749.892245 18.766875 
" style="fill:none;stroke:#000000;stroke-linecap:square;stroke-linejoin:miter;"/>
   </g>
   <g id="patch_79">
    <path d="M 1063.025242 314.8125 
L 1063.025242 18.766875 
" style="fill:none;stroke:#000000;stroke-linecap:square;stroke-linejoin:miter;"/>
   </g>
   <g id="patch_80">
    <path d="M 749.892245 18.766875 
L 1063.025242 18.766875 
" style="fill:none;stroke:#000000;stroke-linecap:square;stroke-linejoin:miter;"/>
   </g>
   <g id="patch_81">
    <path d="M 749.892245 314.8125 
L 1063.025242 314.8125 
" style="fill:none;stroke:#000000;stroke-linecap:square;stroke-linejoin:miter;"/>
   </g>
   <g id="matplotlib.axis_5">
    <g id="xtick_17">
     <g id="line2d_63">
      <g>
       <use style="stroke:#000000;stroke-width:0.5;" x="763.706935872" xlink:href="#m57feaae298" y="314.8125"/>
      </g>
     </g>
     <g id="line2d_64">
      <g>
       <use style="stroke:#000000;stroke-width:0.5;" x="763.706935872" xlink:href="#m42e7f89e10" y="18.766875"/>
      </g>
     </g>
     <g id="text_36">
      <!-- 4 -->
      <g transform="translate(759.889435872 327.930625)scale(0.12 -0.12)">
       <use xlink:href="#BitstreamVeraSans-Roman-34"/>
      </g>
     </g>
    </g>
    <g id="xtick_18">
     <g id="line2d_65">
      <g>
       <use style="stroke:#000000;stroke-width:0.5;" x="800.546112037" xlink:href="#m57feaae298" y="314.8125"/>
      </g>
     </g>
     <g id="line2d_66">
      <g>
       <use style="stroke:#000000;stroke-width:0.5;" x="800.546112037" xlink:href="#m42e7f89e10" y="18.766875"/>
      </g>
     </g>
     <g id="text_37">
      <!-- 8 -->
      <g transform="translate(796.728612037 327.930625)scale(0.12 -0.12)">
       <use xlink:href="#BitstreamVeraSans-Roman-38"/>
      </g>
     </g>
    </g>
    <g id="xtick_19">
     <g id="line2d_67">
      <g>
       <use style="stroke:#000000;stroke-width:0.5;" x="837.385288202" xlink:href="#m57feaae298" y="314.8125"/>
      </g>
     </g>
     <g id="line2d_68">
      <g>
       <use style="stroke:#000000;stroke-width:0.5;" x="837.385288202" xlink:href="#m42e7f89e10" y="18.766875"/>
      </g>
     </g>
     <g id="text_38">
      <!-- 12 -->
      <g transform="translate(829.750288202 327.930625)scale(0.12 -0.12)">
       <use xlink:href="#BitstreamVeraSans-Roman-31"/>
       <use x="63.623046875" xlink:href="#BitstreamVeraSans-Roman-32"/>
      </g>
     </g>
    </g>
    <g id="xtick_20">
     <g id="line2d_69">
      <g>
       <use style="stroke:#000000;stroke-width:0.5;" x="874.224464367" xlink:href="#m57feaae298" y="314.8125"/>
      </g>
     </g>
     <g id="line2d_70">
      <g>
       <use style="stroke:#000000;stroke-width:0.5;" x="874.224464367" xlink:href="#m42e7f89e10" y="18.766875"/>
      </g>
     </g>
     <g id="text_39">
      <!-- 16 -->
      <g transform="translate(866.589464367 327.930625)scale(0.12 -0.12)">
       <use xlink:href="#BitstreamVeraSans-Roman-31"/>
       <use x="63.623046875" xlink:href="#BitstreamVeraSans-Roman-36"/>
      </g>
     </g>
    </g>
    <g id="xtick_21">
     <g id="line2d_71">
      <g>
       <use style="stroke:#000000;stroke-width:0.5;" x="911.063640533" xlink:href="#m57feaae298" y="314.8125"/>
      </g>
     </g>
     <g id="line2d_72">
      <g>
       <use style="stroke:#000000;stroke-width:0.5;" x="911.063640533" xlink:href="#m42e7f89e10" y="18.766875"/>
      </g>
     </g>
     <g id="text_40">
      <!-- 20 -->
      <g transform="translate(903.428640533 327.930625)scale(0.12 -0.12)">
       <use xlink:href="#BitstreamVeraSans-Roman-32"/>
       <use x="63.623046875" xlink:href="#BitstreamVeraSans-Roman-30"/>
      </g>
     </g>
    </g>
    <g id="xtick_22">
     <g id="line2d_73">
      <g>
       <use style="stroke:#000000;stroke-width:0.5;" x="947.902816698" xlink:href="#m57feaae298" y="314.8125"/>
      </g>
     </g>
     <g id="line2d_74">
      <g>
       <use style="stroke:#000000;stroke-width:0.5;" x="947.902816698" xlink:href="#m42e7f89e10" y="18.766875"/>
      </g>
     </g>
     <g id="text_41">
      <!-- 24 -->
      <g transform="translate(940.267816698 327.930625)scale(0.12 -0.12)">
       <use xlink:href="#BitstreamVeraSans-Roman-32"/>
       <use x="63.623046875" xlink:href="#BitstreamVeraSans-Roman-34"/>
      </g>
     </g>
    </g>
    <g id="xtick_23">
     <g id="line2d_75">
      <g>
       <use style="stroke:#000000;stroke-width:0.5;" x="984.741992863" xlink:href="#m57feaae298" y="314.8125"/>
      </g>
     </g>
     <g id="line2d_76">
      <g>
       <use style="stroke:#000000;stroke-width:0.5;" x="984.741992863" xlink:href="#m42e7f89e10" y="18.766875"/>
      </g>
     </g>
     <g id="text_42">
      <!-- 28 -->
      <g transform="translate(977.106992863 327.930625)scale(0.12 -0.12)">
       <use xlink:href="#BitstreamVeraSans-Roman-32"/>
       <use x="63.623046875" xlink:href="#BitstreamVeraSans-Roman-38"/>
      </g>
     </g>
    </g>
    <g id="xtick_24">
     <g id="line2d_77">
      <g>
       <use style="stroke:#000000;stroke-width:0.5;" x="1021.58116903" xlink:href="#m57feaae298" y="314.8125"/>
      </g>
     </g>
     <g id="line2d_78">
      <g>
       <use style="stroke:#000000;stroke-width:0.5;" x="1021.58116903" xlink:href="#m42e7f89e10" y="18.766875"/>
      </g>
     </g>
     <g id="text_43">
      <!-- 32 -->
      <g transform="translate(1013.94616903 327.930625)scale(0.12 -0.12)">
       <use xlink:href="#BitstreamVeraSans-Roman-33"/>
       <use x="63.623046875" xlink:href="#BitstreamVeraSans-Roman-32"/>
      </g>
     </g>
    </g>
    <g id="xtick_25">
     <g id="line2d_79">
      <g>
       <use style="stroke:#000000;stroke-width:0.5;" x="1058.42034519" xlink:href="#m57feaae298" y="314.8125"/>
      </g>
     </g>
     <g id="line2d_80">
      <g>
       <use style="stroke:#000000;stroke-width:0.5;" x="1058.42034519" xlink:href="#m42e7f89e10" y="18.766875"/>
      </g>
     </g>
     <g id="text_44">
      <!-- 36 -->
      <g transform="translate(1050.78534519 327.930625)scale(0.12 -0.12)">
       <use xlink:href="#BitstreamVeraSans-Roman-33"/>
       <use x="63.623046875" xlink:href="#BitstreamVeraSans-Roman-36"/>
      </g>
     </g>
    </g>
    <g id="text_45">
     <!-- # variables -->
     <g transform="translate(872.192181012 344.544375)scale(0.12 -0.12)">
      <use xlink:href="#BitstreamVeraSans-Roman-23"/>
      <use x="83.7890625" xlink:href="#BitstreamVeraSans-Roman-20"/>
      <use x="115.576171875" xlink:href="#BitstreamVeraSans-Roman-76"/>
      <use x="174.755859375" xlink:href="#BitstreamVeraSans-Roman-61"/>
      <use x="236.03515625" xlink:href="#BitstreamVeraSans-Roman-72"/>
      <use x="277.1484375" xlink:href="#BitstreamVeraSans-Roman-69"/>
      <use x="304.931640625" xlink:href="#BitstreamVeraSans-Roman-61"/>
      <use x="366.2109375" xlink:href="#BitstreamVeraSans-Roman-62"/>
      <use x="429.6875" xlink:href="#BitstreamVeraSans-Roman-6c"/>
      <use x="457.470703125" xlink:href="#BitstreamVeraSans-Roman-65"/>
      <use x="518.994140625" xlink:href="#BitstreamVeraSans-Roman-73"/>
     </g>
    </g>
   </g>
   <g id="matplotlib.axis_6">
    <g id="ytick_16">
     <g id="line2d_81">
      <g>
       <use style="stroke:#000000;stroke-width:0.5;" x="749.89224481" xlink:href="#m9fd6bba6af" y="314.8125"/>
      </g>
     </g>
     <g id="line2d_82">
      <g>
       <use style="stroke:#000000;stroke-width:0.5;" x="1063.02524221" xlink:href="#m122d91b5fc" y="314.8125"/>
      </g>
     </g>
     <g id="text_46">
      <!-- 0 -->
      <g transform="translate(738.25724481 318.12375)scale(0.12 -0.12)">
       <use xlink:href="#BitstreamVeraSans-Roman-30"/>
      </g>
     </g>
    </g>
    <g id="ytick_17">
     <g id="line2d_83">
      <g>
       <use style="stroke:#000000;stroke-width:0.5;" x="749.89224481" xlink:href="#m9fd6bba6af" y="216.130625"/>
      </g>
     </g>
     <g id="line2d_84">
      <g>
       <use style="stroke:#000000;stroke-width:0.5;" x="1063.02524221" xlink:href="#m122d91b5fc" y="216.130625"/>
      </g>
     </g>
     <g id="text_47">
      <!-- 1 -->
      <g transform="translate(738.25724481 219.441875)scale(0.12 -0.12)">
       <use xlink:href="#BitstreamVeraSans-Roman-31"/>
      </g>
     </g>
    </g>
    <g id="ytick_18">
     <g id="line2d_85">
      <g>
       <use style="stroke:#000000;stroke-width:0.5;" x="749.89224481" xlink:href="#m9fd6bba6af" y="117.44875"/>
      </g>
     </g>
     <g id="line2d_86">
      <g>
       <use style="stroke:#000000;stroke-width:0.5;" x="1063.02524221" xlink:href="#m122d91b5fc" y="117.44875"/>
      </g>
     </g>
     <g id="text_48">
      <!-- 2 -->
      <g transform="translate(738.25724481 120.76)scale(0.12 -0.12)">
       <use xlink:href="#BitstreamVeraSans-Roman-32"/>
      </g>
     </g>
    </g>
    <g id="ytick_19">
     <g id="line2d_87">
      <g>
       <use style="stroke:#000000;stroke-width:0.5;" x="749.89224481" xlink:href="#m9fd6bba6af" y="18.766875"/>
      </g>
     </g>
     <g id="line2d_88">
      <g>
       <use style="stroke:#000000;stroke-width:0.5;" x="1063.02524221" xlink:href="#m122d91b5fc" y="18.766875"/>
      </g>
     </g>
     <g id="text_49">
      <!-- 3 -->
      <g transform="translate(738.25724481 22.078125)scale(0.12 -0.12)">
       <use xlink:href="#BitstreamVeraSans-Roman-33"/>
      </g>
     </g>
    </g>
    <g id="text_50">
     <!-- # models -->
     <g transform="translate(730.76161981 195.5334375)rotate(-90.0)scale(0.12 -0.12)">
      <use xlink:href="#BitstreamVeraSans-Roman-23"/>
      <use x="83.7890625" xlink:href="#BitstreamVeraSans-Roman-20"/>
      <use x="115.576171875" xlink:href="#BitstreamVeraSans-Roman-6d"/>
      <use x="212.98828125" xlink:href="#BitstreamVeraSans-Roman-6f"/>
      <use x="274.169921875" xlink:href="#BitstreamVeraSans-Roman-64"/>
      <use x="337.646484375" xlink:href="#BitstreamVeraSans-Roman-65"/>
      <use x="399.169921875" xlink:href="#BitstreamVeraSans-Roman-6c"/>
      <use x="426.953125" xlink:href="#BitstreamVeraSans-Roman-73"/>
     </g>
    </g>
   </g>
  </g>
 </g>
 <defs>
  <clipPath id="pdf3a0b2969">
   <rect height="296.045625" width="313.132997405" x="395.550497405" y="18.766875"/>
  </clipPath>
  <clipPath id="p5ba3d974c5">
   <rect height="296.045625" width="313.132997405" x="41.20875" y="18.766875"/>
  </clipPath>
  <clipPath id="p627cf09e93">
   <rect height="296.045625" width="313.132997405" x="749.89224481" y="18.766875"/>
  </clipPath>
 </defs>
</svg>
