<?xml version="1.0" encoding="utf-8" standalone="no"?>
<!DOCTYPE svg PUBLIC "-//W3C//DTD SVG 1.1//EN"
  "http://www.w3.org/Graphics/SVG/1.1/DTD/svg11.dtd">
<!-- Created with matplotlib (http://matplotlib.org/) -->
<svg height="720pt" version="1.1" viewBox="0 0 720 720" width="720pt" xmlns="http://www.w3.org/2000/svg" xmlns:xlink="http://www.w3.org/1999/xlink">
 <defs>
  <style type="text/css">
*{stroke-linecap:butt;stroke-linejoin:round;stroke-miterlimit:100000;}
  </style>
 </defs>
 <g id="figure_1">
  <g id="patch_1">
   <path d="M 0 720 
L 720 720 
L 720 0 
L 0 0 
z
" style="fill:#ffffff;"/>
  </g>
  <g id="axes_1">
   <g id="patch_2">
    <path d="M 90 417.6 
L 648 417.6 
L 648 72 
L 90 72 
z
" style="fill:#ffffff;"/>
   </g>
   <g id="PathCollection_1">
    <defs>
     <path d="M 0 -7.071068 
L -6.724985 -2.18508 
L -4.156269 5.720614 
L 4.156269 5.720614 
L 6.724985 -2.18508 
z
" id="mcbfaa2150d" style="stroke:#000000;stroke-opacity:0.9;"/>
    </defs>
    <g clip-path="url(#pdab0aac862)">
     <use style="fill:#4fc601;fill-opacity:0.9;stroke:#000000;stroke-opacity:0.9;" x="201.6" xlink:href="#mcbfaa2150d" y="356.611764706"/>
    </g>
   </g>
   <g id="PathCollection_2">
    <defs>
     <path d="M -0 10 
L 10 0 
L 0 -10 
L -10 -0 
z
" id="m442147d503" style="stroke:#000000;stroke-opacity:0.9;"/>
    </defs>
    <g clip-path="url(#pdab0aac862)">
     <use style="fill:#3b5dff;fill-opacity:0.9;stroke:#000000;stroke-opacity:0.9;" x="592.2" xlink:href="#m442147d503" y="356.611764706"/>
    </g>
   </g>
   <g id="PathCollection_3">
    <defs>
     <path d="M -7.071068 0 
L 7.071068 0 
M 0 7.071068 
L 0 -7.071068 
" id="mc0f14f19a9" style="stroke:#4a3b53;stroke-opacity:0.9;"/>
    </defs>
    <g clip-path="url(#pdab0aac862)">
     <use style="fill:#4a3b53;fill-opacity:0.9;stroke:#4a3b53;stroke-opacity:0.9;" x="131.85" xlink:href="#mc0f14f19a9" y="356.611764706"/>
    </g>
   </g>
   <g id="PathCollection_4">
    <defs>
     <path d="M 0 -7.071068 
L -1.587554 -2.18508 
L -6.724985 -2.18508 
L -2.568716 0.834626 
L -4.156269 5.720614 
L -0 2.700907 
L 4.156269 5.720614 
L 2.568716 0.834626 
L 6.724985 -2.18508 
L 1.587554 -2.18508 
z
" id="m7390018914" style="stroke:#000000;stroke-opacity:0.9;"/>
    </defs>
    <g clip-path="url(#pdab0aac862)">
     <use style="fill:#ff2f80;fill-opacity:0.9;stroke:#000000;stroke-opacity:0.9;" x="243.45" xlink:href="#m7390018914" y="214.305882353"/>
    </g>
   </g>
   <g id="PathCollection_5">
    <defs>
     <path d="M -7.071068 -0 
L 7.071068 7.071068 
L 7.071068 -7.071068 
z
" id="md17e7fa86c" style="stroke:#000000;stroke-opacity:0.9;"/>
    </defs>
    <g clip-path="url(#pdab0aac862)">
     <use style="fill:#61615a;fill-opacity:0.9;stroke:#000000;stroke-opacity:0.9;" x="299.25" xlink:href="#md17e7fa86c" y="92.3294117647"/>
    </g>
   </g>
   <g id="PathCollection_6">
    <defs>
     <path d="M 0 7.071068 
C 1.875269 7.071068 3.673985 6.326016 5 5 
C 6.326016 3.673985 7.071068 1.875269 7.071068 0 
C 7.071068 -1.875269 6.326016 -3.673985 5 -5 
C 3.673985 -6.326016 1.875269 -7.071068 0 -7.071068 
C -1.875269 -7.071068 -3.673985 -6.326016 -5 -5 
C -6.326016 -3.673985 -7.071068 -1.875269 -7.071068 0 
C -7.071068 1.875269 -6.326016 3.673985 -5 5 
C -3.673985 6.326016 -1.875269 7.071068 0 7.071068 
z
" id="m4a2fc29741" style="stroke:#000000;stroke-opacity:0.9;"/>
    </defs>
    <g clip-path="url(#pdab0aac862)">
     <use style="fill:#ba0900;fill-opacity:0.9;stroke:#000000;stroke-opacity:0.9;" x="229.5" xlink:href="#m4a2fc29741" y="275.294117647"/>
    </g>
   </g>
   <g id="PathCollection_7">
    <defs>
     <path d="M -7.070926 7.070926 
L 7.071209 7.070926 
L 7.071209 -7.071209 
L -7.070926 -7.071209 
z
" id="mac49ad3c73" style="stroke:#000000;stroke-opacity:0.9;"/>
    </defs>
    <g clip-path="url(#pdab0aac862)">
     <use style="fill:#6b7900;fill-opacity:0.9;stroke:#000000;stroke-opacity:0.9;" x="145.8" xlink:href="#mac49ad3c73" y="315.952941176"/>
    </g>
   </g>
   <g id="PathCollection_8">
    <defs>
     <path d="M -7.071068 7.071068 
L 7.071068 -7.071068 
M -7.071068 -7.071068 
L 7.071068 7.071068 
" id="m8b5f400909" style="stroke:#00c2a0;stroke-opacity:0.9;"/>
    </defs>
    <g clip-path="url(#pdab0aac862)">
     <use style="fill:#00c2a0;fill-opacity:0.9;stroke:#00c2a0;stroke-opacity:0.9;" x="243.45" xlink:href="#m8b5f400909" y="275.294117647"/>
    </g>
   </g>
   <g id="PathCollection_9">
    <defs>
     <path d="M -0 7.071068 
L 7.071068 -7.071068 
L -7.071068 -7.071068 
z
" id="mdb79a79b46" style="stroke:#000000;stroke-opacity:0.9;"/>
    </defs>
    <g clip-path="url(#pdab0aac862)">
     <use style="fill:#ffaa92;fill-opacity:0.9;stroke:#000000;stroke-opacity:0.9;" x="410.85" xlink:href="#mdb79a79b46" y="132.988235294"/>
    </g>
   </g>
   <g id="PathCollection_10">
    <defs>
     <path d="M 0 0 
L 0 -7.071068 
M 0 0 
L -5.656854 3.535534 
M 0 0 
L 5.656854 3.535534 
" id="m27fbe7cbae" style="stroke:#ff90c9;stroke-opacity:0.9;"/>
    </defs>
    <g clip-path="url(#pdab0aac862)">
     <use style="fill:#ff90c9;fill-opacity:0.9;stroke:#ff90c9;stroke-opacity:0.9;" x="215.55" xlink:href="#m27fbe7cbae" y="295.623529412"/>
    </g>
   </g>
   <g id="PathCollection_11">
    <defs>
     <path d="M 0 -7.071068 
L -7.071068 7.071068 
L 7.071068 7.071068 
z
" id="m48dd3dd436" style="stroke:#000000;stroke-opacity:0.9;"/>
    </defs>
    <g clip-path="url(#pdab0aac862)">
     <use style="fill:#b903aa;fill-opacity:0.9;stroke:#000000;stroke-opacity:0.9;" x="159.75" xlink:href="#m48dd3dd436" y="315.952941176"/>
    </g>
   </g>
   <g id="PathCollection_12">
    <defs>
     <path d="M 0 0 
L -7.071068 -0 
M 0 0 
L 3.535534 5.656854 
M 0 0 
L 3.535534 -5.656854 
" id="m79edb5c9b0" style="stroke:#d16100;stroke-opacity:0.9;"/>
    </defs>
    <g clip-path="url(#pdab0aac862)">
     <use style="fill:#d16100;fill-opacity:0.9;stroke:#d16100;stroke-opacity:0.9;" x="145.8" xlink:href="#m79edb5c9b0" y="356.611764706"/>
    </g>
   </g>
   <g id="PathCollection_13">
    <defs>
     <path d="M 0 0 
L 7.071068 0 
M 0 0 
L -3.535534 -5.656854 
M 0 0 
L -3.535534 5.656854 
" id="m87bc5e74ca" style="stroke:#ddefff;stroke-opacity:0.9;"/>
    </defs>
    <g clip-path="url(#pdab0aac862)">
     <use style="fill:#ddefff;fill-opacity:0.9;stroke:#ddefff;stroke-opacity:0.9;" x="327.15" xlink:href="#m87bc5e74ca" y="214.305882353"/>
    </g>
   </g>
   <g id="PathCollection_14">
    <defs>
     <path d="M 7.071068 0 
L -7.071068 -7.071068 
L -7.071068 7.071068 
z
" id="ma11b953244" style="stroke:#000000;stroke-opacity:0.9;"/>
    </defs>
    <g clip-path="url(#pdab0aac862)">
     <use style="fill:#000035;fill-opacity:0.9;stroke:#000000;stroke-opacity:0.9;" x="145.8" xlink:href="#ma11b953244" y="336.282352941"/>
    </g>
   </g>
   <g id="patch_3">
    <path d="M 90 417.6 
L 90 72 
" style="fill:none;stroke:#000000;stroke-linecap:square;stroke-linejoin:miter;"/>
   </g>
   <g id="patch_4">
    <path d="M 648 417.6 
L 648 72 
" style="fill:none;stroke:#000000;stroke-linecap:square;stroke-linejoin:miter;"/>
   </g>
   <g id="patch_5">
    <path d="M 90 72 
L 648 72 
" style="fill:none;stroke:#000000;stroke-linecap:square;stroke-linejoin:miter;"/>
   </g>
   <g id="patch_6">
    <path d="M 90 417.6 
L 648 417.6 
" style="fill:none;stroke:#000000;stroke-linecap:square;stroke-linejoin:miter;"/>
   </g>
   <g id="matplotlib.axis_1">
    <g id="xtick_1">
     <g id="line2d_1">
      <defs>
       <path d="M 0 0 
L 0 -4 
" id="m4a9e524f68" style="stroke:#000000;stroke-width:0.5;"/>
      </defs>
      <g>
       <use style="stroke:#000000;stroke-width:0.5;" x="90.0" xlink:href="#m4a9e524f68" y="417.6"/>
      </g>
     </g>
     <g id="text_1">
      <!-- 0 -->
      <defs>
       <path d="M 31.78125 66.40625 
Q 24.171875 66.40625 20.328125 58.90625 
Q 16.5 51.421875 16.5 36.375 
Q 16.5 21.390625 20.328125 13.890625 
Q 24.171875 6.390625 31.78125 6.390625 
Q 39.453125 6.390625 43.28125 13.890625 
Q 47.125 21.390625 47.125 36.375 
Q 47.125 51.421875 43.28125 58.90625 
Q 39.453125 66.40625 31.78125 66.40625 
M 31.78125 74.21875 
Q 44.046875 74.21875 50.515625 64.515625 
Q 56.984375 54.828125 56.984375 36.375 
Q 56.984375 17.96875 50.515625 8.265625 
Q 44.046875 -1.421875 31.78125 -1.421875 
Q 19.53125 -1.421875 13.0625 8.265625 
Q 6.59375 17.96875 6.59375 36.375 
Q 6.59375 54.828125 13.0625 64.515625 
Q 19.53125 74.21875 31.78125 74.21875 
" id="BitstreamVeraSans-Roman-30"/>
      </defs>
      <g transform="translate(83.00125 438.3165625)scale(0.22 -0.22)">
       <use xlink:href="#BitstreamVeraSans-Roman-30"/>
      </g>
     </g>
    </g>
    <g id="xtick_2">
     <g id="line2d_2">
      <g>
       <use style="stroke:#000000;stroke-width:0.5;" x="159.75" xlink:href="#m4a9e524f68" y="417.6"/>
      </g>
     </g>
     <g id="text_2">
      <!-- 5 -->
      <defs>
       <path d="M 10.796875 72.90625 
L 49.515625 72.90625 
L 49.515625 64.59375 
L 19.828125 64.59375 
L 19.828125 46.734375 
Q 21.96875 47.46875 24.109375 47.828125 
Q 26.265625 48.1875 28.421875 48.1875 
Q 40.625 48.1875 47.75 41.5 
Q 54.890625 34.8125 54.890625 23.390625 
Q 54.890625 11.625 47.5625 5.09375 
Q 40.234375 -1.421875 26.90625 -1.421875 
Q 22.3125 -1.421875 17.546875 -0.640625 
Q 12.796875 0.140625 7.71875 1.703125 
L 7.71875 11.625 
Q 12.109375 9.234375 16.796875 8.0625 
Q 21.484375 6.890625 26.703125 6.890625 
Q 35.15625 6.890625 40.078125 11.328125 
Q 45.015625 15.765625 45.015625 23.390625 
Q 45.015625 31 40.078125 35.4375 
Q 35.15625 39.890625 26.703125 39.890625 
Q 22.75 39.890625 18.8125 39.015625 
Q 14.890625 38.140625 10.796875 36.28125 
z
" id="BitstreamVeraSans-Roman-35"/>
      </defs>
      <g transform="translate(152.75125 438.3165625)scale(0.22 -0.22)">
       <use xlink:href="#BitstreamVeraSans-Roman-35"/>
      </g>
     </g>
    </g>
    <g id="xtick_3">
     <g id="line2d_3">
      <g>
       <use style="stroke:#000000;stroke-width:0.5;" x="229.5" xlink:href="#m4a9e524f68" y="417.6"/>
      </g>
     </g>
     <g id="text_3">
      <!-- 10 -->
      <defs>
       <path d="M 12.40625 8.296875 
L 28.515625 8.296875 
L 28.515625 63.921875 
L 10.984375 60.40625 
L 10.984375 69.390625 
L 28.421875 72.90625 
L 38.28125 72.90625 
L 38.28125 8.296875 
L 54.390625 8.296875 
L 54.390625 0 
L 12.40625 0 
z
" id="BitstreamVeraSans-Roman-31"/>
      </defs>
      <g transform="translate(215.5025 438.3165625)scale(0.22 -0.22)">
       <use xlink:href="#BitstreamVeraSans-Roman-31"/>
       <use x="63.623046875" xlink:href="#BitstreamVeraSans-Roman-30"/>
      </g>
     </g>
    </g>
    <g id="xtick_4">
     <g id="line2d_4">
      <g>
       <use style="stroke:#000000;stroke-width:0.5;" x="299.25" xlink:href="#m4a9e524f68" y="417.6"/>
      </g>
     </g>
     <g id="text_4">
      <!-- 15 -->
      <g transform="translate(285.2525 438.3165625)scale(0.22 -0.22)">
       <use xlink:href="#BitstreamVeraSans-Roman-31"/>
       <use x="63.623046875" xlink:href="#BitstreamVeraSans-Roman-35"/>
      </g>
     </g>
    </g>
    <g id="xtick_5">
     <g id="line2d_5">
      <g>
       <use style="stroke:#000000;stroke-width:0.5;" x="369.0" xlink:href="#m4a9e524f68" y="417.6"/>
      </g>
     </g>
     <g id="text_5">
      <!-- 20 -->
      <defs>
       <path d="M 19.1875 8.296875 
L 53.609375 8.296875 
L 53.609375 0 
L 7.328125 0 
L 7.328125 8.296875 
Q 12.9375 14.109375 22.625 23.890625 
Q 32.328125 33.6875 34.8125 36.53125 
Q 39.546875 41.84375 41.421875 45.53125 
Q 43.3125 49.21875 43.3125 52.78125 
Q 43.3125 58.59375 39.234375 62.25 
Q 35.15625 65.921875 28.609375 65.921875 
Q 23.96875 65.921875 18.8125 64.3125 
Q 13.671875 62.703125 7.8125 59.421875 
L 7.8125 69.390625 
Q 13.765625 71.78125 18.9375 73 
Q 24.125 74.21875 28.421875 74.21875 
Q 39.75 74.21875 46.484375 68.546875 
Q 53.21875 62.890625 53.21875 53.421875 
Q 53.21875 48.921875 51.53125 44.890625 
Q 49.859375 40.875 45.40625 35.40625 
Q 44.1875 33.984375 37.640625 27.21875 
Q 31.109375 20.453125 19.1875 8.296875 
" id="BitstreamVeraSans-Roman-32"/>
      </defs>
      <g transform="translate(355.0025 438.3165625)scale(0.22 -0.22)">
       <use xlink:href="#BitstreamVeraSans-Roman-32"/>
       <use x="63.623046875" xlink:href="#BitstreamVeraSans-Roman-30"/>
      </g>
     </g>
    </g>
    <g id="xtick_6">
     <g id="line2d_6">
      <g>
       <use style="stroke:#000000;stroke-width:0.5;" x="438.75" xlink:href="#m4a9e524f68" y="417.6"/>
      </g>
     </g>
     <g id="text_6">
      <!-- 25 -->
      <g transform="translate(424.7525 438.3165625)scale(0.22 -0.22)">
       <use xlink:href="#BitstreamVeraSans-Roman-32"/>
       <use x="63.623046875" xlink:href="#BitstreamVeraSans-Roman-35"/>
      </g>
     </g>
    </g>
    <g id="xtick_7">
     <g id="line2d_7">
      <g>
       <use style="stroke:#000000;stroke-width:0.5;" x="508.5" xlink:href="#m4a9e524f68" y="417.6"/>
      </g>
     </g>
     <g id="text_7">
      <!-- 30 -->
      <defs>
       <path d="M 40.578125 39.3125 
Q 47.65625 37.796875 51.625 33 
Q 55.609375 28.21875 55.609375 21.1875 
Q 55.609375 10.40625 48.1875 4.484375 
Q 40.765625 -1.421875 27.09375 -1.421875 
Q 22.515625 -1.421875 17.65625 -0.515625 
Q 12.796875 0.390625 7.625 2.203125 
L 7.625 11.71875 
Q 11.71875 9.328125 16.59375 8.109375 
Q 21.484375 6.890625 26.8125 6.890625 
Q 36.078125 6.890625 40.9375 10.546875 
Q 45.796875 14.203125 45.796875 21.1875 
Q 45.796875 27.640625 41.28125 31.265625 
Q 36.765625 34.90625 28.71875 34.90625 
L 20.21875 34.90625 
L 20.21875 43.015625 
L 29.109375 43.015625 
Q 36.375 43.015625 40.234375 45.921875 
Q 44.09375 48.828125 44.09375 54.296875 
Q 44.09375 59.90625 40.109375 62.90625 
Q 36.140625 65.921875 28.71875 65.921875 
Q 24.65625 65.921875 20.015625 65.03125 
Q 15.375 64.15625 9.8125 62.3125 
L 9.8125 71.09375 
Q 15.4375 72.65625 20.34375 73.4375 
Q 25.25 74.21875 29.59375 74.21875 
Q 40.828125 74.21875 47.359375 69.109375 
Q 53.90625 64.015625 53.90625 55.328125 
Q 53.90625 49.265625 50.4375 45.09375 
Q 46.96875 40.921875 40.578125 39.3125 
" id="BitstreamVeraSans-Roman-33"/>
      </defs>
      <g transform="translate(494.5025 438.3165625)scale(0.22 -0.22)">
       <use xlink:href="#BitstreamVeraSans-Roman-33"/>
       <use x="63.623046875" xlink:href="#BitstreamVeraSans-Roman-30"/>
      </g>
     </g>
    </g>
    <g id="xtick_8">
     <g id="line2d_8">
      <g>
       <use style="stroke:#000000;stroke-width:0.5;" x="578.25" xlink:href="#m4a9e524f68" y="417.6"/>
      </g>
     </g>
     <g id="text_8">
      <!-- 35 -->
      <g transform="translate(564.2525 438.3165625)scale(0.22 -0.22)">
       <use xlink:href="#BitstreamVeraSans-Roman-33"/>
       <use x="63.623046875" xlink:href="#BitstreamVeraSans-Roman-35"/>
      </g>
     </g>
    </g>
    <g id="xtick_9">
     <g id="line2d_9">
      <g>
       <use style="stroke:#000000;stroke-width:0.5;" x="648.0" xlink:href="#m4a9e524f68" y="417.6"/>
      </g>
     </g>
     <g id="text_9">
      <!-- 40 -->
      <defs>
       <path d="M 37.796875 64.3125 
L 12.890625 25.390625 
L 37.796875 25.390625 
z
M 35.203125 72.90625 
L 47.609375 72.90625 
L 47.609375 25.390625 
L 58.015625 25.390625 
L 58.015625 17.1875 
L 47.609375 17.1875 
L 47.609375 0 
L 37.796875 0 
L 37.796875 17.1875 
L 4.890625 17.1875 
L 4.890625 26.703125 
z
" id="BitstreamVeraSans-Roman-34"/>
      </defs>
      <g transform="translate(634.0025 438.3165625)scale(0.22 -0.22)">
       <use xlink:href="#BitstreamVeraSans-Roman-34"/>
       <use x="63.623046875" xlink:href="#BitstreamVeraSans-Roman-30"/>
      </g>
     </g>
    </g>
    <g id="text_10">
     <!-- # variables -->
     <defs>
      <path d="M 44.28125 53.078125 
L 44.28125 44.578125 
Q 40.484375 46.53125 36.375 47.5 
Q 32.28125 48.484375 27.875 48.484375 
Q 21.1875 48.484375 17.84375 46.4375 
Q 14.5 44.390625 14.5 40.28125 
Q 14.5 37.15625 16.890625 35.375 
Q 19.28125 33.59375 26.515625 31.984375 
L 29.59375 31.296875 
Q 39.15625 29.25 43.1875 25.515625 
Q 47.21875 21.78125 47.21875 15.09375 
Q 47.21875 7.46875 41.1875 3.015625 
Q 35.15625 -1.421875 24.609375 -1.421875 
Q 20.21875 -1.421875 15.453125 -0.5625 
Q 10.6875 0.296875 5.421875 2 
L 5.421875 11.28125 
Q 10.40625 8.6875 15.234375 7.390625 
Q 20.0625 6.109375 24.8125 6.109375 
Q 31.15625 6.109375 34.5625 8.28125 
Q 37.984375 10.453125 37.984375 14.40625 
Q 37.984375 18.0625 35.515625 20.015625 
Q 33.0625 21.96875 24.703125 23.78125 
L 21.578125 24.515625 
Q 13.234375 26.265625 9.515625 29.90625 
Q 5.8125 33.546875 5.8125 39.890625 
Q 5.8125 47.609375 11.28125 51.796875 
Q 16.75 56 26.8125 56 
Q 31.78125 56 36.171875 55.265625 
Q 40.578125 54.546875 44.28125 53.078125 
" id="BitstreamVeraSans-Roman-73"/>
      <path d="M 9.421875 75.984375 
L 18.40625 75.984375 
L 18.40625 0 
L 9.421875 0 
z
" id="BitstreamVeraSans-Roman-6c"/>
      <path d="M 2.984375 54.6875 
L 12.5 54.6875 
L 29.59375 8.796875 
L 46.6875 54.6875 
L 56.203125 54.6875 
L 35.6875 0 
L 23.484375 0 
z
" id="BitstreamVeraSans-Roman-76"/>
      <path id="BitstreamVeraSans-Roman-20"/>
      <path d="M 56.203125 29.59375 
L 56.203125 25.203125 
L 14.890625 25.203125 
Q 15.484375 15.921875 20.484375 11.0625 
Q 25.484375 6.203125 34.421875 6.203125 
Q 39.59375 6.203125 44.453125 7.46875 
Q 49.3125 8.734375 54.109375 11.28125 
L 54.109375 2.78125 
Q 49.265625 0.734375 44.1875 -0.34375 
Q 39.109375 -1.421875 33.890625 -1.421875 
Q 20.796875 -1.421875 13.15625 6.1875 
Q 5.515625 13.8125 5.515625 26.8125 
Q 5.515625 40.234375 12.765625 48.109375 
Q 20.015625 56 32.328125 56 
Q 43.359375 56 49.78125 48.890625 
Q 56.203125 41.796875 56.203125 29.59375 
M 47.21875 32.234375 
Q 47.125 39.59375 43.09375 43.984375 
Q 39.0625 48.390625 32.421875 48.390625 
Q 24.90625 48.390625 20.390625 44.140625 
Q 15.875 39.890625 15.1875 32.171875 
z
" id="BitstreamVeraSans-Roman-65"/>
      <path d="M 48.6875 27.296875 
Q 48.6875 37.203125 44.609375 42.84375 
Q 40.53125 48.484375 33.40625 48.484375 
Q 26.265625 48.484375 22.1875 42.84375 
Q 18.109375 37.203125 18.109375 27.296875 
Q 18.109375 17.390625 22.1875 11.75 
Q 26.265625 6.109375 33.40625 6.109375 
Q 40.53125 6.109375 44.609375 11.75 
Q 48.6875 17.390625 48.6875 27.296875 
M 18.109375 46.390625 
Q 20.953125 51.265625 25.265625 53.625 
Q 29.59375 56 35.59375 56 
Q 45.5625 56 51.78125 48.09375 
Q 58.015625 40.1875 58.015625 27.296875 
Q 58.015625 14.40625 51.78125 6.484375 
Q 45.5625 -1.421875 35.59375 -1.421875 
Q 29.59375 -1.421875 25.265625 0.953125 
Q 20.953125 3.328125 18.109375 8.203125 
L 18.109375 0 
L 9.078125 0 
L 9.078125 75.984375 
L 18.109375 75.984375 
z
" id="BitstreamVeraSans-Roman-62"/>
      <path d="M 51.125 44 
L 36.921875 44 
L 32.8125 27.6875 
L 47.125 27.6875 
z
M 43.796875 71.78125 
L 38.71875 51.515625 
L 52.984375 51.515625 
L 58.109375 71.78125 
L 65.921875 71.78125 
L 60.890625 51.515625 
L 76.125 51.515625 
L 76.125 44 
L 58.984375 44 
L 54.984375 27.6875 
L 70.515625 27.6875 
L 70.515625 20.21875 
L 53.078125 20.21875 
L 48 0 
L 40.1875 0 
L 45.21875 20.21875 
L 30.90625 20.21875 
L 25.875 0 
L 18.015625 0 
L 23.09375 20.21875 
L 7.71875 20.21875 
L 7.71875 27.6875 
L 24.90625 27.6875 
L 29 44 
L 13.28125 44 
L 13.28125 51.515625 
L 30.90625 51.515625 
L 35.890625 71.78125 
z
" id="BitstreamVeraSans-Roman-23"/>
      <path d="M 9.421875 54.6875 
L 18.40625 54.6875 
L 18.40625 0 
L 9.421875 0 
z
M 9.421875 75.984375 
L 18.40625 75.984375 
L 18.40625 64.59375 
L 9.421875 64.59375 
z
" id="BitstreamVeraSans-Roman-69"/>
      <path d="M 34.28125 27.484375 
Q 23.390625 27.484375 19.1875 25 
Q 14.984375 22.515625 14.984375 16.5 
Q 14.984375 11.71875 18.140625 8.90625 
Q 21.296875 6.109375 26.703125 6.109375 
Q 34.1875 6.109375 38.703125 11.40625 
Q 43.21875 16.703125 43.21875 25.484375 
L 43.21875 27.484375 
z
M 52.203125 31.203125 
L 52.203125 0 
L 43.21875 0 
L 43.21875 8.296875 
Q 40.140625 3.328125 35.546875 0.953125 
Q 30.953125 -1.421875 24.3125 -1.421875 
Q 15.921875 -1.421875 10.953125 3.296875 
Q 6 8.015625 6 15.921875 
Q 6 25.140625 12.171875 29.828125 
Q 18.359375 34.515625 30.609375 34.515625 
L 43.21875 34.515625 
L 43.21875 35.40625 
Q 43.21875 41.609375 39.140625 45 
Q 35.0625 48.390625 27.6875 48.390625 
Q 23 48.390625 18.546875 47.265625 
Q 14.109375 46.140625 10.015625 43.890625 
L 10.015625 52.203125 
Q 14.9375 54.109375 19.578125 55.046875 
Q 24.21875 56 28.609375 56 
Q 40.484375 56 46.34375 49.84375 
Q 52.203125 43.703125 52.203125 31.203125 
" id="BitstreamVeraSans-Roman-61"/>
      <path d="M 41.109375 46.296875 
Q 39.59375 47.171875 37.8125 47.578125 
Q 36.03125 48 33.890625 48 
Q 26.265625 48 22.1875 43.046875 
Q 18.109375 38.09375 18.109375 28.8125 
L 18.109375 0 
L 9.078125 0 
L 9.078125 54.6875 
L 18.109375 54.6875 
L 18.109375 46.1875 
Q 20.953125 51.171875 25.484375 53.578125 
Q 30.03125 56 36.53125 56 
Q 37.453125 56 38.578125 55.875 
Q 39.703125 55.765625 41.0625 55.515625 
z
" id="BitstreamVeraSans-Roman-72"/>
     </defs>
     <g transform="translate(306.17796875 479.6084375)scale(0.22 -0.22)">
      <use xlink:href="#BitstreamVeraSans-Roman-23"/>
      <use x="83.7890625" xlink:href="#BitstreamVeraSans-Roman-20"/>
      <use x="115.576171875" xlink:href="#BitstreamVeraSans-Roman-76"/>
      <use x="174.755859375" xlink:href="#BitstreamVeraSans-Roman-61"/>
      <use x="236.03515625" xlink:href="#BitstreamVeraSans-Roman-72"/>
      <use x="277.1484375" xlink:href="#BitstreamVeraSans-Roman-69"/>
      <use x="304.931640625" xlink:href="#BitstreamVeraSans-Roman-61"/>
      <use x="366.2109375" xlink:href="#BitstreamVeraSans-Roman-62"/>
      <use x="429.6875" xlink:href="#BitstreamVeraSans-Roman-6c"/>
      <use x="457.470703125" xlink:href="#BitstreamVeraSans-Roman-65"/>
      <use x="518.994140625" xlink:href="#BitstreamVeraSans-Roman-73"/>
     </g>
    </g>
   </g>
   <g id="matplotlib.axis_2">
    <g id="ytick_1">
     <g id="line2d_10">
      <defs>
       <path d="M 0 0 
L 4 0 
" id="m6512f23db3" style="stroke:#000000;stroke-width:0.5;"/>
      </defs>
      <g>
       <use style="stroke:#000000;stroke-width:0.5;" x="90.0" xlink:href="#m6512f23db3" y="417.6"/>
      </g>
     </g>
     <g id="text_11">
      <!-- 0 -->
      <g transform="translate(72.0025 423.670625)scale(0.22 -0.22)">
       <use xlink:href="#BitstreamVeraSans-Roman-30"/>
      </g>
     </g>
    </g>
    <g id="ytick_2">
     <g id="line2d_11">
      <g>
       <use style="stroke:#000000;stroke-width:0.5;" x="90.0" xlink:href="#m6512f23db3" y="376.941176471"/>
      </g>
     </g>
     <g id="text_12">
      <!-- 2 -->
      <g transform="translate(72.0025 383.011801471)scale(0.22 -0.22)">
       <use xlink:href="#BitstreamVeraSans-Roman-32"/>
      </g>
     </g>
    </g>
    <g id="ytick_3">
     <g id="line2d_12">
      <g>
       <use style="stroke:#000000;stroke-width:0.5;" x="90.0" xlink:href="#m6512f23db3" y="336.282352941"/>
      </g>
     </g>
     <g id="text_13">
      <!-- 4 -->
      <g transform="translate(72.0025 342.352977941)scale(0.22 -0.22)">
       <use xlink:href="#BitstreamVeraSans-Roman-34"/>
      </g>
     </g>
    </g>
    <g id="ytick_4">
     <g id="line2d_13">
      <g>
       <use style="stroke:#000000;stroke-width:0.5;" x="90.0" xlink:href="#m6512f23db3" y="295.623529412"/>
      </g>
     </g>
     <g id="text_14">
      <!-- 6 -->
      <defs>
       <path d="M 33.015625 40.375 
Q 26.375 40.375 22.484375 35.828125 
Q 18.609375 31.296875 18.609375 23.390625 
Q 18.609375 15.53125 22.484375 10.953125 
Q 26.375 6.390625 33.015625 6.390625 
Q 39.65625 6.390625 43.53125 10.953125 
Q 47.40625 15.53125 47.40625 23.390625 
Q 47.40625 31.296875 43.53125 35.828125 
Q 39.65625 40.375 33.015625 40.375 
M 52.59375 71.296875 
L 52.59375 62.3125 
Q 48.875 64.0625 45.09375 64.984375 
Q 41.3125 65.921875 37.59375 65.921875 
Q 27.828125 65.921875 22.671875 59.328125 
Q 17.53125 52.734375 16.796875 39.40625 
Q 19.671875 43.65625 24.015625 45.921875 
Q 28.375 48.1875 33.59375 48.1875 
Q 44.578125 48.1875 50.953125 41.515625 
Q 57.328125 34.859375 57.328125 23.390625 
Q 57.328125 12.15625 50.6875 5.359375 
Q 44.046875 -1.421875 33.015625 -1.421875 
Q 20.359375 -1.421875 13.671875 8.265625 
Q 6.984375 17.96875 6.984375 36.375 
Q 6.984375 53.65625 15.1875 63.9375 
Q 23.390625 74.21875 37.203125 74.21875 
Q 40.921875 74.21875 44.703125 73.484375 
Q 48.484375 72.75 52.59375 71.296875 
" id="BitstreamVeraSans-Roman-36"/>
      </defs>
      <g transform="translate(72.0025 301.694154412)scale(0.22 -0.22)">
       <use xlink:href="#BitstreamVeraSans-Roman-36"/>
      </g>
     </g>
    </g>
    <g id="ytick_5">
     <g id="line2d_14">
      <g>
       <use style="stroke:#000000;stroke-width:0.5;" x="90.0" xlink:href="#m6512f23db3" y="254.964705882"/>
      </g>
     </g>
     <g id="text_15">
      <!-- 8 -->
      <defs>
       <path d="M 31.78125 34.625 
Q 24.75 34.625 20.71875 30.859375 
Q 16.703125 27.09375 16.703125 20.515625 
Q 16.703125 13.921875 20.71875 10.15625 
Q 24.75 6.390625 31.78125 6.390625 
Q 38.8125 6.390625 42.859375 10.171875 
Q 46.921875 13.96875 46.921875 20.515625 
Q 46.921875 27.09375 42.890625 30.859375 
Q 38.875 34.625 31.78125 34.625 
M 21.921875 38.8125 
Q 15.578125 40.375 12.03125 44.71875 
Q 8.5 49.078125 8.5 55.328125 
Q 8.5 64.0625 14.71875 69.140625 
Q 20.953125 74.21875 31.78125 74.21875 
Q 42.671875 74.21875 48.875 69.140625 
Q 55.078125 64.0625 55.078125 55.328125 
Q 55.078125 49.078125 51.53125 44.71875 
Q 48 40.375 41.703125 38.8125 
Q 48.828125 37.15625 52.796875 32.3125 
Q 56.78125 27.484375 56.78125 20.515625 
Q 56.78125 9.90625 50.3125 4.234375 
Q 43.84375 -1.421875 31.78125 -1.421875 
Q 19.734375 -1.421875 13.25 4.234375 
Q 6.78125 9.90625 6.78125 20.515625 
Q 6.78125 27.484375 10.78125 32.3125 
Q 14.796875 37.15625 21.921875 38.8125 
M 18.3125 54.390625 
Q 18.3125 48.734375 21.84375 45.5625 
Q 25.390625 42.390625 31.78125 42.390625 
Q 38.140625 42.390625 41.71875 45.5625 
Q 45.3125 48.734375 45.3125 54.390625 
Q 45.3125 60.0625 41.71875 63.234375 
Q 38.140625 66.40625 31.78125 66.40625 
Q 25.390625 66.40625 21.84375 63.234375 
Q 18.3125 60.0625 18.3125 54.390625 
" id="BitstreamVeraSans-Roman-38"/>
      </defs>
      <g transform="translate(72.0025 261.035330882)scale(0.22 -0.22)">
       <use xlink:href="#BitstreamVeraSans-Roman-38"/>
      </g>
     </g>
    </g>
    <g id="ytick_6">
     <g id="line2d_15">
      <g>
       <use style="stroke:#000000;stroke-width:0.5;" x="90.0" xlink:href="#m6512f23db3" y="214.305882353"/>
      </g>
     </g>
     <g id="text_16">
      <!-- 10 -->
      <g transform="translate(58.005 220.376507353)scale(0.22 -0.22)">
       <use xlink:href="#BitstreamVeraSans-Roman-31"/>
       <use x="63.623046875" xlink:href="#BitstreamVeraSans-Roman-30"/>
      </g>
     </g>
    </g>
    <g id="ytick_7">
     <g id="line2d_16">
      <g>
       <use style="stroke:#000000;stroke-width:0.5;" x="90.0" xlink:href="#m6512f23db3" y="173.647058824"/>
      </g>
     </g>
     <g id="text_17">
      <!-- 12 -->
      <g transform="translate(58.005 179.717683824)scale(0.22 -0.22)">
       <use xlink:href="#BitstreamVeraSans-Roman-31"/>
       <use x="63.623046875" xlink:href="#BitstreamVeraSans-Roman-32"/>
      </g>
     </g>
    </g>
    <g id="ytick_8">
     <g id="line2d_17">
      <g>
       <use style="stroke:#000000;stroke-width:0.5;" x="90.0" xlink:href="#m6512f23db3" y="132.988235294"/>
      </g>
     </g>
     <g id="text_18">
      <!-- 14 -->
      <g transform="translate(58.005 139.058860294)scale(0.22 -0.22)">
       <use xlink:href="#BitstreamVeraSans-Roman-31"/>
       <use x="63.623046875" xlink:href="#BitstreamVeraSans-Roman-34"/>
      </g>
     </g>
    </g>
    <g id="ytick_9">
     <g id="line2d_18">
      <g>
       <use style="stroke:#000000;stroke-width:0.5;" x="90.0" xlink:href="#m6512f23db3" y="92.3294117647"/>
      </g>
     </g>
     <g id="text_19">
      <!-- 16 -->
      <g transform="translate(58.005 98.4000367647)scale(0.22 -0.22)">
       <use xlink:href="#BitstreamVeraSans-Roman-31"/>
       <use x="63.623046875" xlink:href="#BitstreamVeraSans-Roman-36"/>
      </g>
     </g>
    </g>
    <g id="text_20">
     <!-- cascading depth of operations -->
     <defs>
      <path d="M 18.3125 70.21875 
L 18.3125 54.6875 
L 36.8125 54.6875 
L 36.8125 47.703125 
L 18.3125 47.703125 
L 18.3125 18.015625 
Q 18.3125 11.328125 20.140625 9.421875 
Q 21.96875 7.515625 27.59375 7.515625 
L 36.8125 7.515625 
L 36.8125 0 
L 27.59375 0 
Q 17.1875 0 13.234375 3.875 
Q 9.28125 7.765625 9.28125 18.015625 
L 9.28125 47.703125 
L 2.6875 47.703125 
L 2.6875 54.6875 
L 9.28125 54.6875 
L 9.28125 70.21875 
z
" id="BitstreamVeraSans-Roman-74"/>
      <path d="M 18.109375 8.203125 
L 18.109375 -20.796875 
L 9.078125 -20.796875 
L 9.078125 54.6875 
L 18.109375 54.6875 
L 18.109375 46.390625 
Q 20.953125 51.265625 25.265625 53.625 
Q 29.59375 56 35.59375 56 
Q 45.5625 56 51.78125 48.09375 
Q 58.015625 40.1875 58.015625 27.296875 
Q 58.015625 14.40625 51.78125 6.484375 
Q 45.5625 -1.421875 35.59375 -1.421875 
Q 29.59375 -1.421875 25.265625 0.953125 
Q 20.953125 3.328125 18.109375 8.203125 
M 48.6875 27.296875 
Q 48.6875 37.203125 44.609375 42.84375 
Q 40.53125 48.484375 33.40625 48.484375 
Q 26.265625 48.484375 22.1875 42.84375 
Q 18.109375 37.203125 18.109375 27.296875 
Q 18.109375 17.390625 22.1875 11.75 
Q 26.265625 6.109375 33.40625 6.109375 
Q 40.53125 6.109375 44.609375 11.75 
Q 48.6875 17.390625 48.6875 27.296875 
" id="BitstreamVeraSans-Roman-70"/>
      <path d="M 30.609375 48.390625 
Q 23.390625 48.390625 19.1875 42.75 
Q 14.984375 37.109375 14.984375 27.296875 
Q 14.984375 17.484375 19.15625 11.84375 
Q 23.34375 6.203125 30.609375 6.203125 
Q 37.796875 6.203125 41.984375 11.859375 
Q 46.1875 17.53125 46.1875 27.296875 
Q 46.1875 37.015625 41.984375 42.703125 
Q 37.796875 48.390625 30.609375 48.390625 
M 30.609375 56 
Q 42.328125 56 49.015625 48.375 
Q 55.71875 40.765625 55.71875 27.296875 
Q 55.71875 13.875 49.015625 6.21875 
Q 42.328125 -1.421875 30.609375 -1.421875 
Q 18.84375 -1.421875 12.171875 6.21875 
Q 5.515625 13.875 5.515625 27.296875 
Q 5.515625 40.765625 12.171875 48.375 
Q 18.84375 56 30.609375 56 
" id="BitstreamVeraSans-Roman-6f"/>
      <path d="M 37.109375 75.984375 
L 37.109375 68.5 
L 28.515625 68.5 
Q 23.6875 68.5 21.796875 66.546875 
Q 19.921875 64.59375 19.921875 59.515625 
L 19.921875 54.6875 
L 34.71875 54.6875 
L 34.71875 47.703125 
L 19.921875 47.703125 
L 19.921875 0 
L 10.890625 0 
L 10.890625 47.703125 
L 2.296875 47.703125 
L 2.296875 54.6875 
L 10.890625 54.6875 
L 10.890625 58.5 
Q 10.890625 67.625 15.140625 71.796875 
Q 19.390625 75.984375 28.609375 75.984375 
z
" id="BitstreamVeraSans-Roman-66"/>
      <path d="M 48.78125 52.59375 
L 48.78125 44.1875 
Q 44.96875 46.296875 41.140625 47.34375 
Q 37.3125 48.390625 33.40625 48.390625 
Q 24.65625 48.390625 19.8125 42.84375 
Q 14.984375 37.3125 14.984375 27.296875 
Q 14.984375 17.28125 19.8125 11.734375 
Q 24.65625 6.203125 33.40625 6.203125 
Q 37.3125 6.203125 41.140625 7.25 
Q 44.96875 8.296875 48.78125 10.40625 
L 48.78125 2.09375 
Q 45.015625 0.34375 40.984375 -0.53125 
Q 36.96875 -1.421875 32.421875 -1.421875 
Q 20.0625 -1.421875 12.78125 6.34375 
Q 5.515625 14.109375 5.515625 27.296875 
Q 5.515625 40.671875 12.859375 48.328125 
Q 20.21875 56 33.015625 56 
Q 37.15625 56 41.109375 55.140625 
Q 45.0625 54.296875 48.78125 52.59375 
" id="BitstreamVeraSans-Roman-63"/>
      <path d="M 45.40625 27.984375 
Q 45.40625 37.75 41.375 43.109375 
Q 37.359375 48.484375 30.078125 48.484375 
Q 22.859375 48.484375 18.828125 43.109375 
Q 14.796875 37.75 14.796875 27.984375 
Q 14.796875 18.265625 18.828125 12.890625 
Q 22.859375 7.515625 30.078125 7.515625 
Q 37.359375 7.515625 41.375 12.890625 
Q 45.40625 18.265625 45.40625 27.984375 
M 54.390625 6.78125 
Q 54.390625 -7.171875 48.1875 -13.984375 
Q 42 -20.796875 29.203125 -20.796875 
Q 24.46875 -20.796875 20.265625 -20.09375 
Q 16.0625 -19.390625 12.109375 -17.921875 
L 12.109375 -9.1875 
Q 16.0625 -11.328125 19.921875 -12.34375 
Q 23.78125 -13.375 27.78125 -13.375 
Q 36.625 -13.375 41.015625 -8.765625 
Q 45.40625 -4.15625 45.40625 5.171875 
L 45.40625 9.625 
Q 42.625 4.78125 38.28125 2.390625 
Q 33.9375 0 27.875 0 
Q 17.828125 0 11.671875 7.65625 
Q 5.515625 15.328125 5.515625 27.984375 
Q 5.515625 40.671875 11.671875 48.328125 
Q 17.828125 56 27.875 56 
Q 33.9375 56 38.28125 53.609375 
Q 42.625 51.21875 45.40625 46.390625 
L 45.40625 54.6875 
L 54.390625 54.6875 
z
" id="BitstreamVeraSans-Roman-67"/>
      <path d="M 54.890625 33.015625 
L 54.890625 0 
L 45.90625 0 
L 45.90625 32.71875 
Q 45.90625 40.484375 42.875 44.328125 
Q 39.84375 48.1875 33.796875 48.1875 
Q 26.515625 48.1875 22.3125 43.546875 
Q 18.109375 38.921875 18.109375 30.90625 
L 18.109375 0 
L 9.078125 0 
L 9.078125 54.6875 
L 18.109375 54.6875 
L 18.109375 46.1875 
Q 21.34375 51.125 25.703125 53.5625 
Q 30.078125 56 35.796875 56 
Q 45.21875 56 50.046875 50.171875 
Q 54.890625 44.34375 54.890625 33.015625 
" id="BitstreamVeraSans-Roman-6e"/>
      <path d="M 45.40625 46.390625 
L 45.40625 75.984375 
L 54.390625 75.984375 
L 54.390625 0 
L 45.40625 0 
L 45.40625 8.203125 
Q 42.578125 3.328125 38.25 0.953125 
Q 33.9375 -1.421875 27.875 -1.421875 
Q 17.96875 -1.421875 11.734375 6.484375 
Q 5.515625 14.40625 5.515625 27.296875 
Q 5.515625 40.1875 11.734375 48.09375 
Q 17.96875 56 27.875 56 
Q 33.9375 56 38.25 53.625 
Q 42.578125 51.265625 45.40625 46.390625 
M 14.796875 27.296875 
Q 14.796875 17.390625 18.875 11.75 
Q 22.953125 6.109375 30.078125 6.109375 
Q 37.203125 6.109375 41.296875 11.75 
Q 45.40625 17.390625 45.40625 27.296875 
Q 45.40625 37.203125 41.296875 42.84375 
Q 37.203125 48.484375 30.078125 48.484375 
Q 22.953125 48.484375 18.875 42.84375 
Q 14.796875 37.203125 14.796875 27.296875 
" id="BitstreamVeraSans-Roman-64"/>
      <path d="M 54.890625 33.015625 
L 54.890625 0 
L 45.90625 0 
L 45.90625 32.71875 
Q 45.90625 40.484375 42.875 44.328125 
Q 39.84375 48.1875 33.796875 48.1875 
Q 26.515625 48.1875 22.3125 43.546875 
Q 18.109375 38.921875 18.109375 30.90625 
L 18.109375 0 
L 9.078125 0 
L 9.078125 75.984375 
L 18.109375 75.984375 
L 18.109375 46.1875 
Q 21.34375 51.125 25.703125 53.5625 
Q 30.078125 56 35.796875 56 
Q 45.21875 56 50.046875 50.171875 
Q 54.890625 44.34375 54.890625 33.015625 
" id="BitstreamVeraSans-Roman-68"/>
     </defs>
     <g transform="translate(22.8656875 411.75765625)rotate(-90.0)scale(0.22 -0.22)">
      <use xlink:href="#BitstreamVeraSans-Roman-63"/>
      <use x="54.98046875" xlink:href="#BitstreamVeraSans-Roman-61"/>
      <use x="116.259765625" xlink:href="#BitstreamVeraSans-Roman-73"/>
      <use x="168.359375" xlink:href="#BitstreamVeraSans-Roman-63"/>
      <use x="223.33984375" xlink:href="#BitstreamVeraSans-Roman-61"/>
      <use x="284.619140625" xlink:href="#BitstreamVeraSans-Roman-64"/>
      <use x="348.095703125" xlink:href="#BitstreamVeraSans-Roman-69"/>
      <use x="375.87890625" xlink:href="#BitstreamVeraSans-Roman-6e"/>
      <use x="439.2578125" xlink:href="#BitstreamVeraSans-Roman-67"/>
      <use x="502.734375" xlink:href="#BitstreamVeraSans-Roman-20"/>
      <use x="534.521484375" xlink:href="#BitstreamVeraSans-Roman-64"/>
      <use x="597.998046875" xlink:href="#BitstreamVeraSans-Roman-65"/>
      <use x="659.521484375" xlink:href="#BitstreamVeraSans-Roman-70"/>
      <use x="722.998046875" xlink:href="#BitstreamVeraSans-Roman-74"/>
      <use x="762.20703125" xlink:href="#BitstreamVeraSans-Roman-68"/>
      <use x="825.5859375" xlink:href="#BitstreamVeraSans-Roman-20"/>
      <use x="857.373046875" xlink:href="#BitstreamVeraSans-Roman-6f"/>
      <use x="918.5546875" xlink:href="#BitstreamVeraSans-Roman-66"/>
      <use x="953.759765625" xlink:href="#BitstreamVeraSans-Roman-20"/>
      <use x="985.546875" xlink:href="#BitstreamVeraSans-Roman-6f"/>
      <use x="1046.728515625" xlink:href="#BitstreamVeraSans-Roman-70"/>
      <use x="1110.205078125" xlink:href="#BitstreamVeraSans-Roman-65"/>
      <use x="1171.728515625" xlink:href="#BitstreamVeraSans-Roman-72"/>
      <use x="1212.841796875" xlink:href="#BitstreamVeraSans-Roman-61"/>
      <use x="1274.12109375" xlink:href="#BitstreamVeraSans-Roman-74"/>
      <use x="1313.330078125" xlink:href="#BitstreamVeraSans-Roman-69"/>
      <use x="1341.11328125" xlink:href="#BitstreamVeraSans-Roman-6f"/>
      <use x="1402.294921875" xlink:href="#BitstreamVeraSans-Roman-6e"/>
      <use x="1465.673828125" xlink:href="#BitstreamVeraSans-Roman-73"/>
     </g>
     <!-- to calculate $\mathbf{f}_v(\mathbf{x}_v,t)$ -->
     <defs>
      <path d="M 6.5 -25 
Q 5.609375 -25 5.609375 -24.125 
Q 5.609375 -23.6875 5.8125 -23.484375 
Q 22.90625 -6.78125 22.90625 25 
Q 22.90625 56.78125 6 73.296875 
Q 5.609375 73.53125 5.609375 74.125 
Q 5.609375 74.46875 5.875 74.734375 
Q 6.15625 75 6.5 75 
L 7.421875 75 
Q 7.71875 75 7.90625 74.8125 
Q 15.09375 69.140625 19.875 61.03125 
Q 24.65625 52.9375 26.875 43.75 
Q 29.109375 34.578125 29.109375 25 
Q 29.109375 17.921875 27.90625 11.0625 
Q 26.703125 4.203125 24.09375 -2.453125 
Q 21.484375 -9.125 17.484375 -14.765625 
Q 13.484375 -20.40625 7.90625 -24.8125 
Q 7.71875 -25 7.421875 -25 
z
" id="Cmr10-29"/>
      <path d="M 10.6875 11.28125 
Q 10.6875 13.53125 11.21875 16.203125 
Q 11.765625 18.890625 12.296875 20.625 
Q 12.84375 22.359375 14.75 27.390625 
Q 16.65625 32.421875 16.703125 32.625 
Q 18.015625 36.28125 18.015625 38.625 
Q 18.015625 41.609375 15.828125 41.609375 
Q 11.859375 41.609375 9.296875 37.53125 
Q 6.734375 33.453125 5.515625 28.421875 
Q 5.328125 27.78125 4.6875 27.78125 
L 3.515625 27.78125 
Q 2.6875 27.78125 2.6875 28.71875 
L 2.6875 29 
Q 4.296875 34.96875 7.609375 39.578125 
Q 10.9375 44.1875 16.015625 44.1875 
Q 19.578125 44.1875 22.046875 41.84375 
Q 24.515625 39.5 24.515625 35.890625 
Q 24.515625 34.03125 23.6875 31.984375 
Q 21.734375 26.90625 20.609375 23.84375 
Q 19.484375 20.796875 18.53125 17.015625 
Q 17.578125 13.234375 17.578125 10.015625 
Q 17.578125 6.25 19.3125 3.875 
Q 21.046875 1.515625 24.703125 1.515625 
Q 31.640625 1.515625 37.203125 12.203125 
Q 38.96875 15.671875 40.53125 20.359375 
Q 42.09375 25.046875 42.09375 27.984375 
Q 42.09375 31 41.109375 32.6875 
Q 40.140625 34.375 38.578125 36.203125 
Q 37.015625 38.03125 37.015625 39.109375 
Q 37.015625 41.0625 38.625 42.671875 
Q 40.234375 44.28125 42.1875 44.28125 
Q 44.578125 44.28125 45.625 42.078125 
Q 46.6875 39.890625 46.6875 37.109375 
Q 46.6875 33.796875 45.734375 29.203125 
Q 44.78125 24.609375 43.09375 19.671875 
Q 41.40625 14.75 39.984375 11.921875 
Q 33.40625 -1.125 24.609375 -1.125 
Q 18.3125 -1.125 14.5 2.015625 
Q 10.6875 5.171875 10.6875 11.28125 
" id="Cmmi10-76"/>
      <path d="M 8.5 21.578125 
L 8.5 54.6875 
L 17.484375 54.6875 
L 17.484375 21.921875 
Q 17.484375 14.15625 20.5 10.265625 
Q 23.53125 6.390625 29.59375 6.390625 
Q 36.859375 6.390625 41.078125 11.03125 
Q 45.3125 15.671875 45.3125 23.6875 
L 45.3125 54.6875 
L 54.296875 54.6875 
L 54.296875 0 
L 45.3125 0 
L 45.3125 8.40625 
Q 42.046875 3.421875 37.71875 1 
Q 33.40625 -1.421875 27.6875 -1.421875 
Q 18.265625 -1.421875 13.375 4.4375 
Q 8.5 10.296875 8.5 21.578125 
" id="BitstreamVeraSans-Roman-75"/>
      <path d="M 6.203125 8.109375 
Q 6.203125 9.578125 6.5 10.890625 
L 13.71875 39.59375 
L 3.21875 39.59375 
Q 2.203125 39.59375 2.203125 40.921875 
Q 2.59375 43.109375 3.515625 43.109375 
L 14.59375 43.109375 
L 18.609375 59.421875 
Q 19 60.75 20.171875 61.671875 
Q 21.34375 62.59375 22.796875 62.59375 
Q 24.078125 62.59375 24.921875 61.828125 
Q 25.78125 61.078125 25.78125 59.8125 
Q 25.78125 59.515625 25.75 59.34375 
Q 25.734375 59.1875 25.6875 58.984375 
L 21.6875 43.109375 
L 31.984375 43.109375 
Q 33.015625 43.109375 33.015625 41.796875 
Q 32.953125 41.546875 32.8125 40.953125 
Q 32.671875 40.375 32.421875 39.984375 
Q 32.171875 39.59375 31.6875 39.59375 
L 20.796875 39.59375 
L 13.625 10.6875 
Q 12.890625 7.859375 12.890625 5.8125 
Q 12.890625 1.515625 15.828125 1.515625 
Q 20.21875 1.515625 23.609375 5.640625 
Q 27 9.765625 28.8125 14.703125 
Q 29.203125 15.28125 29.59375 15.28125 
L 30.8125 15.28125 
Q 31.203125 15.28125 31.4375 15.015625 
Q 31.6875 14.75 31.6875 14.40625 
Q 31.6875 14.203125 31.59375 14.109375 
Q 29.390625 8.0625 25.1875 3.46875 
Q 21 -1.125 15.578125 -1.125 
Q 11.625 -1.125 8.90625 1.453125 
Q 6.203125 4.046875 6.203125 8.109375 
" id="Cmmi10-74"/>
      <path d="M 2.484375 0 
L 2.484375 5.078125 
L 9.421875 5.078125 
L 9.421875 39.3125 
L 3.8125 39.3125 
L 3.8125 44.390625 
L 9.421875 44.390625 
L 9.421875 55.078125 
Q 9.421875 60.203125 12.515625 63.59375 
Q 15.625 67 20.375 68.5 
Q 25.140625 70.015625 30.171875 70.015625 
Q 34.1875 70.015625 37.1875 67.46875 
Q 40.1875 64.9375 40.1875 61.078125 
Q 40.1875 58.40625 38.328125 56.546875 
Q 36.46875 54.6875 33.890625 54.6875 
Q 31.296875 54.6875 29.390625 56.59375 
Q 27.484375 58.5 27.484375 61.078125 
Q 27.484375 64.15625 29.6875 66.015625 
L 29.203125 66.015625 
Q 24.703125 66.015625 22.359375 62.71875 
Q 20.015625 59.421875 20.015625 54.78125 
L 20.015625 44.390625 
L 29.6875 44.390625 
L 29.6875 39.3125 
L 20.609375 39.3125 
L 20.609375 5.078125 
L 29.296875 5.078125 
L 29.296875 0 
z
" id="Cmb10-66"/>
      <path d="M 31 -24.8125 
Q 25.4375 -20.40625 21.40625 -14.71875 
Q 17.390625 -9.03125 14.8125 -2.578125 
Q 12.25 3.859375 10.984375 10.890625 
Q 9.71875 17.921875 9.71875 25 
Q 9.71875 32.171875 10.984375 39.203125 
Q 12.25 46.234375 14.859375 52.734375 
Q 17.484375 59.234375 21.53125 64.890625 
Q 25.59375 70.5625 31 74.8125 
Q 31 75 31.5 75 
L 32.421875 75 
Q 32.71875 75 32.953125 74.734375 
Q 33.203125 74.46875 33.203125 74.125 
Q 33.203125 73.6875 33.015625 73.484375 
Q 28.125 68.703125 24.875 63.234375 
Q 21.625 57.765625 19.640625 51.578125 
Q 17.671875 45.40625 16.796875 38.78125 
Q 15.921875 32.171875 15.921875 25 
Q 15.921875 -6.78125 32.90625 -23.296875 
Q 33.203125 -23.578125 33.203125 -24.125 
Q 33.203125 -24.359375 32.9375 -24.671875 
Q 32.671875 -25 32.421875 -25 
L 31.5 -25 
Q 31 -25 31 -24.8125 
" id="Cmr10-28"/>
      <path d="M 9.90625 -18.015625 
Q 9.90625 -17.578125 10.296875 -17.1875 
Q 13.921875 -13.71875 15.921875 -9.171875 
Q 17.921875 -4.640625 17.921875 0.390625 
L 17.921875 1.609375 
Q 16.3125 0 13.921875 0 
Q 11.625 0 10.015625 1.609375 
Q 8.40625 3.21875 8.40625 5.515625 
Q 8.40625 7.859375 10.015625 9.421875 
Q 11.625 10.984375 13.921875 10.984375 
Q 17.484375 10.984375 19 7.6875 
Q 20.515625 4.390625 20.515625 0.390625 
Q 20.515625 -5.171875 18.28125 -10.171875 
Q 16.0625 -15.1875 12.015625 -19.1875 
Q 11.625 -19.390625 11.375 -19.390625 
Q 10.890625 -19.390625 10.390625 -18.9375 
Q 9.90625 -18.5 9.90625 -18.015625 
" id="Cmmi10-3b"/>
      <path d="M 1.703125 0 
L 1.703125 5.078125 
Q 9.8125 5.078125 10.59375 6 
L 21.578125 21.09375 
L 9.1875 39.3125 
L 2.203125 39.3125 
L 2.203125 44.390625 
L 25.09375 44.390625 
L 25.09375 39.3125 
L 20.796875 39.3125 
L 27.59375 29.390625 
L 34.078125 38.484375 
Q 34.078125 38.921875 32.375 39.109375 
Q 30.671875 39.3125 29.5 39.3125 
L 29.5 44.390625 
L 49.3125 44.390625 
L 49.3125 39.3125 
Q 41.21875 39.3125 40.375 38.375 
L 30.609375 24.90625 
L 44 5.078125 
L 51.125 5.078125 
L 51.125 0 
L 28.078125 0 
L 28.078125 5.078125 
L 32.421875 5.078125 
L 24.609375 16.609375 
L 16.890625 5.90625 
Q 16.890625 5.5625 18.640625 5.3125 
Q 20.40625 5.078125 21.578125 5.078125 
L 21.578125 0 
z
" id="Cmb10-78"/>
     </defs>
     <g transform="translate(47.505 349.08)rotate(-90.0)scale(0.22 -0.22)">
      <use transform="translate(0.0 0.015625)" xlink:href="#BitstreamVeraSans-Roman-74"/>
      <use transform="translate(39.208984375 0.015625)" xlink:href="#BitstreamVeraSans-Roman-6f"/>
      <use transform="translate(100.390625 0.015625)" xlink:href="#BitstreamVeraSans-Roman-20"/>
      <use transform="translate(132.177734375 0.015625)" xlink:href="#BitstreamVeraSans-Roman-63"/>
      <use transform="translate(187.158203125 0.015625)" xlink:href="#BitstreamVeraSans-Roman-61"/>
      <use transform="translate(248.4375 0.015625)" xlink:href="#BitstreamVeraSans-Roman-6c"/>
      <use transform="translate(276.220703125 0.015625)" xlink:href="#BitstreamVeraSans-Roman-63"/>
      <use transform="translate(331.201171875 0.015625)" xlink:href="#BitstreamVeraSans-Roman-75"/>
      <use transform="translate(394.580078125 0.015625)" xlink:href="#BitstreamVeraSans-Roman-6c"/>
      <use transform="translate(422.36328125 0.015625)" xlink:href="#BitstreamVeraSans-Roman-61"/>
      <use transform="translate(483.642578125 0.015625)" xlink:href="#BitstreamVeraSans-Roman-74"/>
      <use transform="translate(522.8515625 0.015625)" xlink:href="#BitstreamVeraSans-Roman-65"/>
      <use transform="translate(584.375 0.015625)" xlink:href="#BitstreamVeraSans-Roman-20"/>
      <use transform="translate(616.162109375 0.015625)" xlink:href="#Cmb10-66"/>
      <use transform="translate(651.143828125 -16.990624999999994)scale(0.7)" xlink:href="#Cmmi10-76"/>
      <use transform="translate(691.3932421874999 0.015625)" xlink:href="#Cmr10-28"/>
      <use transform="translate(730.2116015624999 0.015625)" xlink:href="#Cmb10-78"/>
      <use transform="translate(787.3612890625 -16.990624999999994)scale(0.7)" xlink:href="#Cmmi10-76"/>
      <use transform="translate(827.6107031249999 0.015625)" xlink:href="#Cmmi10-3b"/>
      <use transform="translate(872.8548437499999 0.015625)" xlink:href="#Cmmi10-74"/>
      <use transform="translate(908.9388281249999 0.015625)" xlink:href="#Cmr10-29"/>
     </g>
    </g>
   </g>
   <g id="legend_1">
    <g id="PathCollection_15">
     <path d="M 98.75925 484.758682 
L 92.034265 489.64467 
L 94.602981 497.550364 
L 102.915519 497.550364 
L 105.484235 489.64467 
z
" style="fill:#4fc601;fill-opacity:0.9;stroke:#000000;stroke-opacity:0.9;"/>
     <path d="M 98.75925 484.758682 
L 92.034265 489.64467 
L 94.602981 497.550364 
L 102.915519 497.550364 
L 105.484235 489.64467 
z
" style="fill:#4fc601;fill-opacity:0.9;stroke:#000000;stroke-opacity:0.9;"/>
     <path d="M 98.75925 484.758682 
L 92.034265 489.64467 
L 94.602981 497.550364 
L 102.915519 497.550364 
L 105.484235 489.64467 
z
" style="fill:#4fc601;fill-opacity:0.9;stroke:#000000;stroke-opacity:0.9;"/>
    </g>
    <g id="text_21">
     <!-- CASA -->
     <defs>
      <path d="M 64.40625 67.28125 
L 64.40625 56.890625 
Q 59.421875 61.53125 53.78125 63.8125 
Q 48.140625 66.109375 41.796875 66.109375 
Q 29.296875 66.109375 22.65625 58.46875 
Q 16.015625 50.828125 16.015625 36.375 
Q 16.015625 21.96875 22.65625 14.328125 
Q 29.296875 6.6875 41.796875 6.6875 
Q 48.140625 6.6875 53.78125 8.984375 
Q 59.421875 11.28125 64.40625 15.921875 
L 64.40625 5.609375 
Q 59.234375 2.09375 53.4375 0.328125 
Q 47.65625 -1.421875 41.21875 -1.421875 
Q 24.65625 -1.421875 15.125 8.703125 
Q 5.609375 18.84375 5.609375 36.375 
Q 5.609375 53.953125 15.125 64.078125 
Q 24.65625 74.21875 41.21875 74.21875 
Q 47.75 74.21875 53.53125 72.484375 
Q 59.328125 70.75 64.40625 67.28125 
" id="BitstreamVeraSans-Roman-43"/>
      <path d="M 53.515625 70.515625 
L 53.515625 60.890625 
Q 47.90625 63.578125 42.921875 64.890625 
Q 37.9375 66.21875 33.296875 66.21875 
Q 25.25 66.21875 20.875 63.09375 
Q 16.5 59.96875 16.5 54.203125 
Q 16.5 49.359375 19.40625 46.890625 
Q 22.3125 44.4375 30.421875 42.921875 
L 36.375 41.703125 
Q 47.40625 39.59375 52.65625 34.296875 
Q 57.90625 29 57.90625 20.125 
Q 57.90625 9.515625 50.796875 4.046875 
Q 43.703125 -1.421875 29.984375 -1.421875 
Q 24.8125 -1.421875 18.96875 -0.25 
Q 13.140625 0.921875 6.890625 3.21875 
L 6.890625 13.375 
Q 12.890625 10.015625 18.65625 8.296875 
Q 24.421875 6.59375 29.984375 6.59375 
Q 38.421875 6.59375 43.015625 9.90625 
Q 47.609375 13.234375 47.609375 19.390625 
Q 47.609375 24.75 44.3125 27.78125 
Q 41.015625 30.8125 33.5 32.328125 
L 27.484375 33.5 
Q 16.453125 35.6875 11.515625 40.375 
Q 6.59375 45.0625 6.59375 53.421875 
Q 6.59375 63.09375 13.40625 68.65625 
Q 20.21875 74.21875 32.171875 74.21875 
Q 37.3125 74.21875 42.625 73.28125 
Q 47.953125 72.359375 53.515625 70.515625 
" id="BitstreamVeraSans-Roman-53"/>
      <path d="M 34.1875 63.1875 
L 20.796875 26.90625 
L 47.609375 26.90625 
z
M 28.609375 72.90625 
L 39.796875 72.90625 
L 67.578125 0 
L 57.328125 0 
L 50.6875 18.703125 
L 17.828125 18.703125 
L 11.1875 0 
L 0.78125 0 
z
" id="BitstreamVeraSans-Roman-41"/>
     </defs>
     <g transform="translate(124.67925 495.60975)scale(0.144 -0.144)">
      <use xlink:href="#BitstreamVeraSans-Roman-43"/>
      <use x="69.82421875" xlink:href="#BitstreamVeraSans-Roman-41"/>
      <use x="138.232421875" xlink:href="#BitstreamVeraSans-Roman-53"/>
      <use x="201.724609375" xlink:href="#BitstreamVeraSans-Roman-41"/>
     </g>
    </g>
    <g id="PathCollection_16">
     <path d="M 98.75925 522.96625 
L 108.75925 512.96625 
L 98.75925 502.96625 
L 88.75925 512.96625 
z
" style="fill:#3b5dff;fill-opacity:0.9;stroke:#000000;stroke-opacity:0.9;"/>
     <path d="M 98.75925 522.96625 
L 108.75925 512.96625 
L 98.75925 502.96625 
L 88.75925 512.96625 
z
" style="fill:#3b5dff;fill-opacity:0.9;stroke:#000000;stroke-opacity:0.9;"/>
     <path d="M 98.75925 522.96625 
L 108.75925 512.96625 
L 98.75925 502.96625 
L 88.75925 512.96625 
z
" style="fill:#3b5dff;fill-opacity:0.9;stroke:#000000;stroke-opacity:0.9;"/>
    </g>
    <g id="text_22">
     <!-- ACONITE -->
     <defs>
      <path d="M 9.8125 72.90625 
L 55.90625 72.90625 
L 55.90625 64.59375 
L 19.671875 64.59375 
L 19.671875 43.015625 
L 54.390625 43.015625 
L 54.390625 34.71875 
L 19.671875 34.71875 
L 19.671875 8.296875 
L 56.78125 8.296875 
L 56.78125 0 
L 9.8125 0 
z
" id="BitstreamVeraSans-Roman-45"/>
      <path d="M 9.8125 72.90625 
L 23.09375 72.90625 
L 55.421875 11.921875 
L 55.421875 72.90625 
L 64.984375 72.90625 
L 64.984375 0 
L 51.703125 0 
L 19.390625 60.984375 
L 19.390625 0 
L 9.8125 0 
z
" id="BitstreamVeraSans-Roman-4e"/>
      <path d="M 39.40625 66.21875 
Q 28.65625 66.21875 22.328125 58.203125 
Q 16.015625 50.203125 16.015625 36.375 
Q 16.015625 22.609375 22.328125 14.59375 
Q 28.65625 6.59375 39.40625 6.59375 
Q 50.140625 6.59375 56.421875 14.59375 
Q 62.703125 22.609375 62.703125 36.375 
Q 62.703125 50.203125 56.421875 58.203125 
Q 50.140625 66.21875 39.40625 66.21875 
M 39.40625 74.21875 
Q 54.734375 74.21875 63.90625 63.9375 
Q 73.09375 53.65625 73.09375 36.375 
Q 73.09375 19.140625 63.90625 8.859375 
Q 54.734375 -1.421875 39.40625 -1.421875 
Q 24.03125 -1.421875 14.8125 8.828125 
Q 5.609375 19.09375 5.609375 36.375 
Q 5.609375 53.65625 14.8125 63.9375 
Q 24.03125 74.21875 39.40625 74.21875 
" id="BitstreamVeraSans-Roman-4f"/>
      <path d="M 9.8125 72.90625 
L 19.671875 72.90625 
L 19.671875 0 
L 9.8125 0 
z
" id="BitstreamVeraSans-Roman-49"/>
      <path d="M -0.296875 72.90625 
L 61.375 72.90625 
L 61.375 64.59375 
L 35.5 64.59375 
L 35.5 0 
L 25.59375 0 
L 25.59375 64.59375 
L -0.296875 64.59375 
z
" id="BitstreamVeraSans-Roman-54"/>
     </defs>
     <g transform="translate(124.67925 516.74625)scale(0.144 -0.144)">
      <use xlink:href="#BitstreamVeraSans-Roman-41"/>
      <use x="68.392578125" xlink:href="#BitstreamVeraSans-Roman-43"/>
      <use x="138.216796875" xlink:href="#BitstreamVeraSans-Roman-4f"/>
      <use x="216.927734375" xlink:href="#BitstreamVeraSans-Roman-4e"/>
      <use x="291.732421875" xlink:href="#BitstreamVeraSans-Roman-49"/>
      <use x="321.224609375" xlink:href="#BitstreamVeraSans-Roman-54"/>
      <use x="382.30859375" xlink:href="#BitstreamVeraSans-Roman-45"/>
     </g>
    </g>
    <g id="PathCollection_17">
     <path d="M 91.688182 534.10275 
L 105.830318 534.10275 
M 98.75925 541.173818 
L 98.75925 527.031682 
" style="fill:#4a3b53;fill-opacity:0.9;stroke:#4a3b53;stroke-opacity:0.9;"/>
     <path d="M 91.688182 534.10275 
L 105.830318 534.10275 
M 98.75925 541.173818 
L 98.75925 527.031682 
" style="fill:#4a3b53;fill-opacity:0.9;stroke:#4a3b53;stroke-opacity:0.9;"/>
     <path d="M 91.688182 534.10275 
L 105.830318 534.10275 
M 98.75925 541.173818 
L 98.75925 527.031682 
" style="fill:#4a3b53;fill-opacity:0.9;stroke:#4a3b53;stroke-opacity:0.9;"/>
    </g>
    <g id="text_23">
     <!-- FOREST-BGC -->
     <defs>
      <path d="M 4.890625 31.390625 
L 31.203125 31.390625 
L 31.203125 23.390625 
L 4.890625 23.390625 
z
" id="BitstreamVeraSans-Roman-2d"/>
      <path d="M 19.671875 34.8125 
L 19.671875 8.109375 
L 35.5 8.109375 
Q 43.453125 8.109375 47.28125 11.40625 
Q 51.125 14.703125 51.125 21.484375 
Q 51.125 28.328125 47.28125 31.5625 
Q 43.453125 34.8125 35.5 34.8125 
z
M 19.671875 64.796875 
L 19.671875 42.828125 
L 34.28125 42.828125 
Q 41.5 42.828125 45.03125 45.53125 
Q 48.578125 48.25 48.578125 53.8125 
Q 48.578125 59.328125 45.03125 62.0625 
Q 41.5 64.796875 34.28125 64.796875 
z
M 9.8125 72.90625 
L 35.015625 72.90625 
Q 46.296875 72.90625 52.390625 68.21875 
Q 58.5 63.53125 58.5 54.890625 
Q 58.5 48.1875 55.375 44.234375 
Q 52.25 40.28125 46.1875 39.3125 
Q 53.46875 37.75 57.5 32.78125 
Q 61.53125 27.828125 61.53125 20.40625 
Q 61.53125 10.640625 54.890625 5.3125 
Q 48.25 0 35.984375 0 
L 9.8125 0 
z
" id="BitstreamVeraSans-Roman-42"/>
      <path d="M 44.390625 34.1875 
Q 47.5625 33.109375 50.5625 29.59375 
Q 53.5625 26.078125 56.59375 19.921875 
L 66.609375 0 
L 56 0 
L 46.6875 18.703125 
Q 43.0625 26.03125 39.671875 28.421875 
Q 36.28125 30.8125 30.421875 30.8125 
L 19.671875 30.8125 
L 19.671875 0 
L 9.8125 0 
L 9.8125 72.90625 
L 32.078125 72.90625 
Q 44.578125 72.90625 50.734375 67.671875 
Q 56.890625 62.453125 56.890625 51.90625 
Q 56.890625 45.015625 53.6875 40.46875 
Q 50.484375 35.9375 44.390625 34.1875 
M 19.671875 64.796875 
L 19.671875 38.921875 
L 32.078125 38.921875 
Q 39.203125 38.921875 42.84375 42.21875 
Q 46.484375 45.515625 46.484375 51.90625 
Q 46.484375 58.296875 42.84375 61.546875 
Q 39.203125 64.796875 32.078125 64.796875 
z
" id="BitstreamVeraSans-Roman-52"/>
      <path d="M 9.8125 72.90625 
L 51.703125 72.90625 
L 51.703125 64.59375 
L 19.671875 64.59375 
L 19.671875 43.109375 
L 48.578125 43.109375 
L 48.578125 34.8125 
L 19.671875 34.8125 
L 19.671875 0 
L 9.8125 0 
z
" id="BitstreamVeraSans-Roman-46"/>
      <path d="M 59.515625 10.40625 
L 59.515625 29.984375 
L 43.40625 29.984375 
L 43.40625 38.09375 
L 69.28125 38.09375 
L 69.28125 6.78125 
Q 63.578125 2.734375 56.6875 0.65625 
Q 49.8125 -1.421875 42 -1.421875 
Q 24.90625 -1.421875 15.25 8.5625 
Q 5.609375 18.5625 5.609375 36.375 
Q 5.609375 54.25 15.25 64.234375 
Q 24.90625 74.21875 42 74.21875 
Q 49.125 74.21875 55.546875 72.453125 
Q 61.96875 70.703125 67.390625 67.28125 
L 67.390625 56.78125 
Q 61.921875 61.421875 55.765625 63.765625 
Q 49.609375 66.109375 42.828125 66.109375 
Q 29.4375 66.109375 22.71875 58.640625 
Q 16.015625 51.171875 16.015625 36.375 
Q 16.015625 21.625 22.71875 14.15625 
Q 29.4375 6.6875 42.828125 6.6875 
Q 48.046875 6.6875 52.140625 7.59375 
Q 56.25 8.5 59.515625 10.40625 
" id="BitstreamVeraSans-Roman-47"/>
     </defs>
     <g transform="translate(124.67925 537.88275)scale(0.144 -0.144)">
      <use xlink:href="#BitstreamVeraSans-Roman-46"/>
      <use x="57.51953125" xlink:href="#BitstreamVeraSans-Roman-4f"/>
      <use x="136.23046875" xlink:href="#BitstreamVeraSans-Roman-52"/>
      <use x="205.712890625" xlink:href="#BitstreamVeraSans-Roman-45"/>
      <use x="268.896484375" xlink:href="#BitstreamVeraSans-Roman-53"/>
      <use x="332.373046875" xlink:href="#BitstreamVeraSans-Roman-54"/>
      <use x="393.31640625" xlink:href="#BitstreamVeraSans-Roman-2d"/>
      <use x="429.353515625" xlink:href="#BitstreamVeraSans-Roman-42"/>
      <use x="497.94140625" xlink:href="#BitstreamVeraSans-Roman-47"/>
      <use x="575.431640625" xlink:href="#BitstreamVeraSans-Roman-43"/>
     </g>
    </g>
    <g id="PathCollection_18">
     <path d="M 98.75925 548.168182 
L 97.171696 553.05417 
L 92.034265 553.05417 
L 96.190534 556.073876 
L 94.602981 560.959864 
L 98.75925 557.940157 
L 102.915519 560.959864 
L 101.327966 556.073876 
L 105.484235 553.05417 
L 100.346804 553.05417 
z
" style="fill:#ff2f80;fill-opacity:0.9;stroke:#000000;stroke-opacity:0.9;"/>
     <path d="M 98.75925 548.168182 
L 97.171696 553.05417 
L 92.034265 553.05417 
L 96.190534 556.073876 
L 94.602981 560.959864 
L 98.75925 557.940157 
L 102.915519 560.959864 
L 101.327966 556.073876 
L 105.484235 553.05417 
L 100.346804 553.05417 
z
" style="fill:#ff2f80;fill-opacity:0.9;stroke:#000000;stroke-opacity:0.9;"/>
     <path d="M 98.75925 548.168182 
L 97.171696 553.05417 
L 92.034265 553.05417 
L 96.190534 556.073876 
L 94.602981 560.959864 
L 98.75925 557.940157 
L 102.915519 560.959864 
L 101.327966 556.073876 
L 105.484235 553.05417 
L 100.346804 553.05417 
z
" style="fill:#ff2f80;fill-opacity:0.9;stroke:#000000;stroke-opacity:0.9;"/>
    </g>
    <g id="text_24">
     <!-- DeAngelis2012TheoreticalEcology -->
     <defs>
      <path d="M 19.671875 64.796875 
L 19.671875 8.109375 
L 31.59375 8.109375 
Q 46.6875 8.109375 53.6875 14.9375 
Q 60.6875 21.78125 60.6875 36.53125 
Q 60.6875 51.171875 53.6875 57.984375 
Q 46.6875 64.796875 31.59375 64.796875 
z
M 9.8125 72.90625 
L 30.078125 72.90625 
Q 51.265625 72.90625 61.171875 64.09375 
Q 71.09375 55.28125 71.09375 36.53125 
Q 71.09375 17.671875 61.125 8.828125 
Q 51.171875 0 30.078125 0 
L 9.8125 0 
z
" id="BitstreamVeraSans-Roman-44"/>
      <path d="M 32.171875 -5.078125 
Q 28.375 -14.84375 24.75 -17.8125 
Q 21.140625 -20.796875 15.09375 -20.796875 
L 7.90625 -20.796875 
L 7.90625 -13.28125 
L 13.1875 -13.28125 
Q 16.890625 -13.28125 18.9375 -11.515625 
Q 21 -9.765625 23.484375 -3.21875 
L 25.09375 0.875 
L 2.984375 54.6875 
L 12.5 54.6875 
L 29.59375 11.921875 
L 46.6875 54.6875 
L 56.203125 54.6875 
z
" id="BitstreamVeraSans-Roman-79"/>
     </defs>
     <g transform="translate(124.67925 559.01925)scale(0.144 -0.144)">
      <use xlink:href="#BitstreamVeraSans-Roman-44"/>
      <use x="77.001953125" xlink:href="#BitstreamVeraSans-Roman-65"/>
      <use x="138.525390625" xlink:href="#BitstreamVeraSans-Roman-41"/>
      <use x="206.93359375" xlink:href="#BitstreamVeraSans-Roman-6e"/>
      <use x="270.3125" xlink:href="#BitstreamVeraSans-Roman-67"/>
      <use x="333.7890625" xlink:href="#BitstreamVeraSans-Roman-65"/>
      <use x="395.3125" xlink:href="#BitstreamVeraSans-Roman-6c"/>
      <use x="423.095703125" xlink:href="#BitstreamVeraSans-Roman-69"/>
      <use x="450.87890625" xlink:href="#BitstreamVeraSans-Roman-73"/>
      <use x="502.978515625" xlink:href="#BitstreamVeraSans-Roman-32"/>
      <use x="566.6015625" xlink:href="#BitstreamVeraSans-Roman-30"/>
      <use x="630.224609375" xlink:href="#BitstreamVeraSans-Roman-31"/>
      <use x="693.84765625" xlink:href="#BitstreamVeraSans-Roman-32"/>
      <use x="757.470703125" xlink:href="#BitstreamVeraSans-Roman-54"/>
      <use x="818.5546875" xlink:href="#BitstreamVeraSans-Roman-68"/>
      <use x="881.93359375" xlink:href="#BitstreamVeraSans-Roman-65"/>
      <use x="943.45703125" xlink:href="#BitstreamVeraSans-Roman-6f"/>
      <use x="1004.638671875" xlink:href="#BitstreamVeraSans-Roman-72"/>
      <use x="1045.720703125" xlink:href="#BitstreamVeraSans-Roman-65"/>
      <use x="1107.244140625" xlink:href="#BitstreamVeraSans-Roman-74"/>
      <use x="1146.453125" xlink:href="#BitstreamVeraSans-Roman-69"/>
      <use x="1174.236328125" xlink:href="#BitstreamVeraSans-Roman-63"/>
      <use x="1229.216796875" xlink:href="#BitstreamVeraSans-Roman-61"/>
      <use x="1290.49609375" xlink:href="#BitstreamVeraSans-Roman-6c"/>
      <use x="1318.279296875" xlink:href="#BitstreamVeraSans-Roman-45"/>
      <use x="1381.462890625" xlink:href="#BitstreamVeraSans-Roman-63"/>
      <use x="1436.443359375" xlink:href="#BitstreamVeraSans-Roman-6f"/>
      <use x="1497.625" xlink:href="#BitstreamVeraSans-Roman-6c"/>
      <use x="1525.408203125" xlink:href="#BitstreamVeraSans-Roman-6f"/>
      <use x="1586.58984375" xlink:href="#BitstreamVeraSans-Roman-67"/>
      <use x="1650.06640625" xlink:href="#BitstreamVeraSans-Roman-79"/>
     </g>
    </g>
    <g id="PathCollection_19">
     <path d="M 91.688182 576.37575 
L 105.830318 583.446818 
L 105.830318 569.304682 
z
" style="fill:#61615a;fill-opacity:0.9;stroke:#000000;stroke-opacity:0.9;"/>
     <path d="M 91.688182 576.37575 
L 105.830318 583.446818 
L 105.830318 569.304682 
z
" style="fill:#61615a;fill-opacity:0.9;stroke:#000000;stroke-opacity:0.9;"/>
     <path d="M 91.688182 576.37575 
L 105.830318 583.446818 
L 105.830318 569.304682 
z
" style="fill:#61615a;fill-opacity:0.9;stroke:#000000;stroke-opacity:0.9;"/>
    </g>
    <g id="text_25">
     <!-- Murty2000EcologicalModelling -->
     <defs>
      <path d="M 9.8125 72.90625 
L 24.515625 72.90625 
L 43.109375 23.296875 
L 61.8125 72.90625 
L 76.515625 72.90625 
L 76.515625 0 
L 66.890625 0 
L 66.890625 64.015625 
L 48.09375 14.015625 
L 38.1875 14.015625 
L 19.390625 64.015625 
L 19.390625 0 
L 9.8125 0 
z
" id="BitstreamVeraSans-Roman-4d"/>
     </defs>
     <g transform="translate(124.67925 580.15575)scale(0.144 -0.144)">
      <use xlink:href="#BitstreamVeraSans-Roman-4d"/>
      <use x="86.279296875" xlink:href="#BitstreamVeraSans-Roman-75"/>
      <use x="149.658203125" xlink:href="#BitstreamVeraSans-Roman-72"/>
      <use x="190.771484375" xlink:href="#BitstreamVeraSans-Roman-74"/>
      <use x="229.98046875" xlink:href="#BitstreamVeraSans-Roman-79"/>
      <use x="289.16015625" xlink:href="#BitstreamVeraSans-Roman-32"/>
      <use x="352.783203125" xlink:href="#BitstreamVeraSans-Roman-30"/>
      <use x="416.40625" xlink:href="#BitstreamVeraSans-Roman-30"/>
      <use x="480.029296875" xlink:href="#BitstreamVeraSans-Roman-30"/>
      <use x="543.65234375" xlink:href="#BitstreamVeraSans-Roman-45"/>
      <use x="606.8359375" xlink:href="#BitstreamVeraSans-Roman-63"/>
      <use x="661.81640625" xlink:href="#BitstreamVeraSans-Roman-6f"/>
      <use x="722.998046875" xlink:href="#BitstreamVeraSans-Roman-6c"/>
      <use x="750.78125" xlink:href="#BitstreamVeraSans-Roman-6f"/>
      <use x="811.962890625" xlink:href="#BitstreamVeraSans-Roman-67"/>
      <use x="875.439453125" xlink:href="#BitstreamVeraSans-Roman-69"/>
      <use x="903.22265625" xlink:href="#BitstreamVeraSans-Roman-63"/>
      <use x="958.203125" xlink:href="#BitstreamVeraSans-Roman-61"/>
      <use x="1019.482421875" xlink:href="#BitstreamVeraSans-Roman-6c"/>
      <use x="1047.265625" xlink:href="#BitstreamVeraSans-Roman-4d"/>
      <use x="1133.544921875" xlink:href="#BitstreamVeraSans-Roman-6f"/>
      <use x="1194.7265625" xlink:href="#BitstreamVeraSans-Roman-64"/>
      <use x="1258.203125" xlink:href="#BitstreamVeraSans-Roman-65"/>
      <use x="1319.7265625" xlink:href="#BitstreamVeraSans-Roman-6c"/>
      <use x="1347.509765625" xlink:href="#BitstreamVeraSans-Roman-6c"/>
      <use x="1375.29296875" xlink:href="#BitstreamVeraSans-Roman-69"/>
      <use x="1403.076171875" xlink:href="#BitstreamVeraSans-Roman-6e"/>
      <use x="1466.455078125" xlink:href="#BitstreamVeraSans-Roman-67"/>
     </g>
    </g>
    <g id="PathCollection_20">
     <path d="M 98.75925 604.583318 
C 100.634519 604.583318 102.433234 603.838266 103.75925 602.51225 
C 105.085265 601.186234 105.830318 599.387519 105.830318 597.51225 
C 105.830318 595.636981 105.085265 593.838266 103.75925 592.51225 
C 102.433234 591.186234 100.634519 590.441182 98.75925 590.441182 
C 96.883981 590.441182 95.085265 591.186234 93.75925 592.51225 
C 92.433234 593.838266 91.688182 595.636981 91.688182 597.51225 
C 91.688182 599.387519 92.433234 601.186234 93.75925 602.51225 
C 95.085265 603.838266 96.883981 604.583318 98.75925 604.583318 
z
" style="fill:#ba0900;fill-opacity:0.9;stroke:#000000;stroke-opacity:0.9;"/>
     <path d="M 98.75925 604.583318 
C 100.634519 604.583318 102.433234 603.838266 103.75925 602.51225 
C 105.085265 601.186234 105.830318 599.387519 105.830318 597.51225 
C 105.830318 595.636981 105.085265 593.838266 103.75925 592.51225 
C 102.433234 591.186234 100.634519 590.441182 98.75925 590.441182 
C 96.883981 590.441182 95.085265 591.186234 93.75925 592.51225 
C 92.433234 593.838266 91.688182 595.636981 91.688182 597.51225 
C 91.688182 599.387519 92.433234 601.186234 93.75925 602.51225 
C 95.085265 603.838266 96.883981 604.583318 98.75925 604.583318 
z
" style="fill:#ba0900;fill-opacity:0.9;stroke:#000000;stroke-opacity:0.9;"/>
     <path d="M 98.75925 604.583318 
C 100.634519 604.583318 102.433234 603.838266 103.75925 602.51225 
C 105.085265 601.186234 105.830318 599.387519 105.830318 597.51225 
C 105.830318 595.636981 105.085265 593.838266 103.75925 592.51225 
C 102.433234 591.186234 100.634519 590.441182 98.75925 590.441182 
C 96.883981 590.441182 95.085265 591.186234 93.75925 592.51225 
C 92.433234 593.838266 91.688182 595.636981 91.688182 597.51225 
C 91.688182 599.387519 92.433234 601.186234 93.75925 602.51225 
C 95.085265 603.838266 96.883981 604.583318 98.75925 604.583318 
z
" style="fill:#ba0900;fill-opacity:0.9;stroke:#000000;stroke-opacity:0.9;"/>
    </g>
    <g id="text_26">
     <!-- CABLE -->
     <defs>
      <path d="M 9.8125 72.90625 
L 19.671875 72.90625 
L 19.671875 8.296875 
L 55.171875 8.296875 
L 55.171875 0 
L 9.8125 0 
z
" id="BitstreamVeraSans-Roman-4c"/>
     </defs>
     <g transform="translate(124.67925 601.29225)scale(0.144 -0.144)">
      <use xlink:href="#BitstreamVeraSans-Roman-43"/>
      <use x="69.82421875" xlink:href="#BitstreamVeraSans-Roman-41"/>
      <use x="138.232421875" xlink:href="#BitstreamVeraSans-Roman-42"/>
      <use x="206.8359375" xlink:href="#BitstreamVeraSans-Roman-4c"/>
      <use x="262.548828125" xlink:href="#BitstreamVeraSans-Roman-45"/>
     </g>
    </g>
    <g id="PathCollection_21">
     <path d="M 91.688324 625.719676 
L 105.830459 625.719676 
L 105.830459 611.577541 
L 91.688324 611.577541 
z
" style="fill:#6b7900;fill-opacity:0.9;stroke:#000000;stroke-opacity:0.9;"/>
     <path d="M 91.688324 625.719676 
L 105.830459 625.719676 
L 105.830459 611.577541 
L 91.688324 611.577541 
z
" style="fill:#6b7900;fill-opacity:0.9;stroke:#000000;stroke-opacity:0.9;"/>
     <path d="M 91.688324 625.719676 
L 105.830459 625.719676 
L 105.830459 611.577541 
L 91.688324 611.577541 
z
" style="fill:#6b7900;fill-opacity:0.9;stroke:#000000;stroke-opacity:0.9;"/>
    </g>
    <g id="text_27">
     <!-- King1993TreePhysiology -->
     <defs>
      <path d="M 19.671875 64.796875 
L 19.671875 37.40625 
L 32.078125 37.40625 
Q 38.96875 37.40625 42.71875 40.96875 
Q 46.484375 44.53125 46.484375 51.125 
Q 46.484375 57.671875 42.71875 61.234375 
Q 38.96875 64.796875 32.078125 64.796875 
z
M 9.8125 72.90625 
L 32.078125 72.90625 
Q 44.34375 72.90625 50.609375 67.359375 
Q 56.890625 61.8125 56.890625 51.125 
Q 56.890625 40.328125 50.609375 34.8125 
Q 44.34375 29.296875 32.078125 29.296875 
L 19.671875 29.296875 
L 19.671875 0 
L 9.8125 0 
z
" id="BitstreamVeraSans-Roman-50"/>
      <path d="M 9.8125 72.90625 
L 19.671875 72.90625 
L 19.671875 42.09375 
L 52.390625 72.90625 
L 65.09375 72.90625 
L 28.90625 38.921875 
L 67.671875 0 
L 54.6875 0 
L 19.671875 35.109375 
L 19.671875 0 
L 9.8125 0 
z
" id="BitstreamVeraSans-Roman-4b"/>
      <path d="M 10.984375 1.515625 
L 10.984375 10.5 
Q 14.703125 8.734375 18.5 7.8125 
Q 22.3125 6.890625 25.984375 6.890625 
Q 35.75 6.890625 40.890625 13.453125 
Q 46.046875 20.015625 46.78125 33.40625 
Q 43.953125 29.203125 39.59375 26.953125 
Q 35.25 24.703125 29.984375 24.703125 
Q 19.046875 24.703125 12.671875 31.3125 
Q 6.296875 37.9375 6.296875 49.421875 
Q 6.296875 60.640625 12.9375 67.421875 
Q 19.578125 74.21875 30.609375 74.21875 
Q 43.265625 74.21875 49.921875 64.515625 
Q 56.59375 54.828125 56.59375 36.375 
Q 56.59375 19.140625 48.40625 8.859375 
Q 40.234375 -1.421875 26.421875 -1.421875 
Q 22.703125 -1.421875 18.890625 -0.6875 
Q 15.09375 0.046875 10.984375 1.515625 
M 30.609375 32.421875 
Q 37.25 32.421875 41.125 36.953125 
Q 45.015625 41.5 45.015625 49.421875 
Q 45.015625 57.28125 41.125 61.84375 
Q 37.25 66.40625 30.609375 66.40625 
Q 23.96875 66.40625 20.09375 61.84375 
Q 16.21875 57.28125 16.21875 49.421875 
Q 16.21875 41.5 20.09375 36.953125 
Q 23.96875 32.421875 30.609375 32.421875 
" id="BitstreamVeraSans-Roman-39"/>
     </defs>
     <g transform="translate(124.67925 622.42875)scale(0.144 -0.144)">
      <use xlink:href="#BitstreamVeraSans-Roman-4b"/>
      <use x="65.576171875" xlink:href="#BitstreamVeraSans-Roman-69"/>
      <use x="93.359375" xlink:href="#BitstreamVeraSans-Roman-6e"/>
      <use x="156.73828125" xlink:href="#BitstreamVeraSans-Roman-67"/>
      <use x="220.21484375" xlink:href="#BitstreamVeraSans-Roman-31"/>
      <use x="283.837890625" xlink:href="#BitstreamVeraSans-Roman-39"/>
      <use x="347.4609375" xlink:href="#BitstreamVeraSans-Roman-39"/>
      <use x="411.083984375" xlink:href="#BitstreamVeraSans-Roman-33"/>
      <use x="474.70703125" xlink:href="#BitstreamVeraSans-Roman-54"/>
      <use x="535.572265625" xlink:href="#BitstreamVeraSans-Roman-72"/>
      <use x="576.654296875" xlink:href="#BitstreamVeraSans-Roman-65"/>
      <use x="638.177734375" xlink:href="#BitstreamVeraSans-Roman-65"/>
      <use x="699.701171875" xlink:href="#BitstreamVeraSans-Roman-50"/>
      <use x="760.00390625" xlink:href="#BitstreamVeraSans-Roman-68"/>
      <use x="823.3828125" xlink:href="#BitstreamVeraSans-Roman-79"/>
      <use x="882.5625" xlink:href="#BitstreamVeraSans-Roman-73"/>
      <use x="934.662109375" xlink:href="#BitstreamVeraSans-Roman-69"/>
      <use x="962.4453125" xlink:href="#BitstreamVeraSans-Roman-6f"/>
      <use x="1023.626953125" xlink:href="#BitstreamVeraSans-Roman-6c"/>
      <use x="1051.41015625" xlink:href="#BitstreamVeraSans-Roman-6f"/>
      <use x="1112.591796875" xlink:href="#BitstreamVeraSans-Roman-67"/>
      <use x="1176.068359375" xlink:href="#BitstreamVeraSans-Roman-79"/>
     </g>
    </g>
    <g id="PathCollection_22">
     <path d="M 406.946932 498.900818 
L 421.089068 484.758682 
M 406.946932 484.758682 
L 421.089068 498.900818 
" style="fill:#00c2a0;fill-opacity:0.9;stroke:#00c2a0;stroke-opacity:0.9;"/>
     <path d="M 406.946932 498.900818 
L 421.089068 484.758682 
M 406.946932 484.758682 
L 421.089068 498.900818 
" style="fill:#00c2a0;fill-opacity:0.9;stroke:#00c2a0;stroke-opacity:0.9;"/>
     <path d="M 406.946932 498.900818 
L 421.089068 484.758682 
M 406.946932 484.758682 
L 421.089068 498.900818 
" style="fill:#00c2a0;fill-opacity:0.9;stroke:#00c2a0;stroke-opacity:0.9;"/>
    </g>
    <g id="text_28">
     <!-- VanDerWerf1993PlantandSoil -->
     <defs>
      <path d="M 28.609375 0 
L 0.78125 72.90625 
L 11.078125 72.90625 
L 34.1875 11.53125 
L 57.328125 72.90625 
L 67.578125 72.90625 
L 39.796875 0 
z
" id="BitstreamVeraSans-Roman-56"/>
      <path d="M 3.328125 72.90625 
L 13.28125 72.90625 
L 28.609375 11.28125 
L 43.890625 72.90625 
L 54.984375 72.90625 
L 70.3125 11.28125 
L 85.59375 72.90625 
L 95.609375 72.90625 
L 77.296875 0 
L 64.890625 0 
L 49.515625 63.28125 
L 33.984375 0 
L 21.578125 0 
z
" id="BitstreamVeraSans-Roman-57"/>
     </defs>
     <g transform="translate(439.938 495.60975)scale(0.144 -0.144)">
      <use xlink:href="#BitstreamVeraSans-Roman-56"/>
      <use x="68.298828125" xlink:href="#BitstreamVeraSans-Roman-61"/>
      <use x="129.578125" xlink:href="#BitstreamVeraSans-Roman-6e"/>
      <use x="192.95703125" xlink:href="#BitstreamVeraSans-Roman-44"/>
      <use x="269.958984375" xlink:href="#BitstreamVeraSans-Roman-65"/>
      <use x="331.482421875" xlink:href="#BitstreamVeraSans-Roman-72"/>
      <use x="372.595703125" xlink:href="#BitstreamVeraSans-Roman-57"/>
      <use x="471.39453125" xlink:href="#BitstreamVeraSans-Roman-65"/>
      <use x="532.91796875" xlink:href="#BitstreamVeraSans-Roman-72"/>
      <use x="574.03125" xlink:href="#BitstreamVeraSans-Roman-66"/>
      <use x="609.236328125" xlink:href="#BitstreamVeraSans-Roman-31"/>
      <use x="672.859375" xlink:href="#BitstreamVeraSans-Roman-39"/>
      <use x="736.482421875" xlink:href="#BitstreamVeraSans-Roman-39"/>
      <use x="800.10546875" xlink:href="#BitstreamVeraSans-Roman-33"/>
      <use x="863.728515625" xlink:href="#BitstreamVeraSans-Roman-50"/>
      <use x="924.03125" xlink:href="#BitstreamVeraSans-Roman-6c"/>
      <use x="951.814453125" xlink:href="#BitstreamVeraSans-Roman-61"/>
      <use x="1013.09375" xlink:href="#BitstreamVeraSans-Roman-6e"/>
      <use x="1076.47265625" xlink:href="#BitstreamVeraSans-Roman-74"/>
      <use x="1115.681640625" xlink:href="#BitstreamVeraSans-Roman-61"/>
      <use x="1176.9609375" xlink:href="#BitstreamVeraSans-Roman-6e"/>
      <use x="1240.33984375" xlink:href="#BitstreamVeraSans-Roman-64"/>
      <use x="1303.81640625" xlink:href="#BitstreamVeraSans-Roman-53"/>
      <use x="1367.29296875" xlink:href="#BitstreamVeraSans-Roman-6f"/>
      <use x="1428.474609375" xlink:href="#BitstreamVeraSans-Roman-69"/>
      <use x="1456.2578125" xlink:href="#BitstreamVeraSans-Roman-6c"/>
     </g>
    </g>
    <g id="PathCollection_23">
     <path d="M 414.018 520.037318 
L 421.089068 505.895182 
L 406.946932 505.895182 
z
" style="fill:#ffaa92;fill-opacity:0.9;stroke:#000000;stroke-opacity:0.9;"/>
     <path d="M 414.018 520.037318 
L 421.089068 505.895182 
L 406.946932 505.895182 
z
" style="fill:#ffaa92;fill-opacity:0.9;stroke:#000000;stroke-opacity:0.9;"/>
     <path d="M 414.018 520.037318 
L 421.089068 505.895182 
L 406.946932 505.895182 
z
" style="fill:#ffaa92;fill-opacity:0.9;stroke:#000000;stroke-opacity:0.9;"/>
    </g>
    <g id="text_29">
     <!-- CTEM -->
     <g transform="translate(439.938 516.74625)scale(0.144 -0.144)">
      <use xlink:href="#BitstreamVeraSans-Roman-43"/>
      <use x="69.82421875" xlink:href="#BitstreamVeraSans-Roman-54"/>
      <use x="130.908203125" xlink:href="#BitstreamVeraSans-Roman-45"/>
      <use x="194.091796875" xlink:href="#BitstreamVeraSans-Roman-4d"/>
     </g>
    </g>
    <g id="PathCollection_24">
     <path d="M 414.018 534.10275 
L 414.018 527.031682 
M 414.018 534.10275 
L 408.361146 537.638284 
M 414.018 534.10275 
L 419.674854 537.638284 
" style="fill:#ff90c9;fill-opacity:0.9;stroke:#ff90c9;stroke-opacity:0.9;"/>
     <path d="M 414.018 534.10275 
L 414.018 527.031682 
M 414.018 534.10275 
L 408.361146 537.638284 
M 414.018 534.10275 
L 419.674854 537.638284 
" style="fill:#ff90c9;fill-opacity:0.9;stroke:#ff90c9;stroke-opacity:0.9;"/>
     <path d="M 414.018 534.10275 
L 414.018 527.031682 
M 414.018 534.10275 
L 408.361146 537.638284 
M 414.018 534.10275 
L 419.674854 537.638284 
" style="fill:#ff90c9;fill-opacity:0.9;stroke:#ff90c9;stroke-opacity:0.9;"/>
    </g>
    <g id="text_30">
     <!-- Luo2012TE -->
     <g transform="translate(439.938 537.88275)scale(0.144 -0.144)">
      <use xlink:href="#BitstreamVeraSans-Roman-4c"/>
      <use x="55.697265625" xlink:href="#BitstreamVeraSans-Roman-75"/>
      <use x="119.076171875" xlink:href="#BitstreamVeraSans-Roman-6f"/>
      <use x="180.2578125" xlink:href="#BitstreamVeraSans-Roman-32"/>
      <use x="243.880859375" xlink:href="#BitstreamVeraSans-Roman-30"/>
      <use x="307.50390625" xlink:href="#BitstreamVeraSans-Roman-31"/>
      <use x="371.126953125" xlink:href="#BitstreamVeraSans-Roman-32"/>
      <use x="434.75" xlink:href="#BitstreamVeraSans-Roman-54"/>
      <use x="495.833984375" xlink:href="#BitstreamVeraSans-Roman-45"/>
     </g>
    </g>
    <g id="PathCollection_25">
     <path d="M 414.018 548.168182 
L 406.946932 562.310318 
L 421.089068 562.310318 
z
" style="fill:#b903aa;fill-opacity:0.9;stroke:#000000;stroke-opacity:0.9;"/>
     <path d="M 414.018 548.168182 
L 406.946932 562.310318 
L 421.089068 562.310318 
z
" style="fill:#b903aa;fill-opacity:0.9;stroke:#000000;stroke-opacity:0.9;"/>
     <path d="M 414.018 548.168182 
L 406.946932 562.310318 
L 421.089068 562.310318 
z
" style="fill:#b903aa;fill-opacity:0.9;stroke:#000000;stroke-opacity:0.9;"/>
    </g>
    <g id="text_31">
     <!-- IBIS -->
     <g transform="translate(439.938 559.01925)scale(0.144 -0.144)">
      <use xlink:href="#BitstreamVeraSans-Roman-49"/>
      <use x="29.4921875" xlink:href="#BitstreamVeraSans-Roman-42"/>
      <use x="98.095703125" xlink:href="#BitstreamVeraSans-Roman-49"/>
      <use x="127.587890625" xlink:href="#BitstreamVeraSans-Roman-53"/>
     </g>
    </g>
    <g id="PathCollection_26">
     <path d="M 414.018 576.37575 
L 406.946932 576.37575 
M 414.018 576.37575 
L 417.553534 582.032604 
M 414.018 576.37575 
L 417.553534 570.718896 
" style="fill:#d16100;fill-opacity:0.9;stroke:#d16100;stroke-opacity:0.9;"/>
     <path d="M 414.018 576.37575 
L 406.946932 576.37575 
M 414.018 576.37575 
L 417.553534 582.032604 
M 414.018 576.37575 
L 417.553534 570.718896 
" style="fill:#d16100;fill-opacity:0.9;stroke:#d16100;stroke-opacity:0.9;"/>
     <path d="M 414.018 576.37575 
L 406.946932 576.37575 
M 414.018 576.37575 
L 417.553534 582.032604 
M 414.018 576.37575 
L 417.553534 570.718896 
" style="fill:#d16100;fill-opacity:0.9;stroke:#d16100;stroke-opacity:0.9;"/>
    </g>
    <g id="text_32">
     <!-- G'DAY -->
     <defs>
      <path d="M 17.921875 72.90625 
L 17.921875 45.796875 
L 9.625 45.796875 
L 9.625 72.90625 
z
" id="BitstreamVeraSans-Roman-27"/>
      <path d="M -0.203125 72.90625 
L 10.40625 72.90625 
L 30.609375 42.921875 
L 50.6875 72.90625 
L 61.28125 72.90625 
L 35.5 34.71875 
L 35.5 0 
L 25.59375 0 
L 25.59375 34.71875 
z
" id="BitstreamVeraSans-Roman-59"/>
     </defs>
     <g transform="translate(439.938 580.15575)scale(0.144 -0.144)">
      <use xlink:href="#BitstreamVeraSans-Roman-47"/>
      <use x="77.490234375" xlink:href="#BitstreamVeraSans-Roman-27"/>
      <use x="104.98046875" xlink:href="#BitstreamVeraSans-Roman-44"/>
      <use x="181.966796875" xlink:href="#BitstreamVeraSans-Roman-41"/>
      <use x="250.265625" xlink:href="#BitstreamVeraSans-Roman-59"/>
     </g>
    </g>
    <g id="PathCollection_27">
     <path d="M 414.018 597.51225 
L 421.089068 597.51225 
M 414.018 597.51225 
L 410.482466 591.855396 
M 414.018 597.51225 
L 410.482466 603.169104 
" style="fill:#ddefff;fill-opacity:0.9;stroke:#ddefff;stroke-opacity:0.9;"/>
     <path d="M 414.018 597.51225 
L 421.089068 597.51225 
M 414.018 597.51225 
L 410.482466 591.855396 
M 414.018 597.51225 
L 410.482466 603.169104 
" style="fill:#ddefff;fill-opacity:0.9;stroke:#ddefff;stroke-opacity:0.9;"/>
     <path d="M 414.018 597.51225 
L 421.089068 597.51225 
M 414.018 597.51225 
L 410.482466 591.855396 
M 414.018 597.51225 
L 410.482466 603.169104 
" style="fill:#ddefff;fill-opacity:0.9;stroke:#ddefff;stroke-opacity:0.9;"/>
    </g>
    <g id="text_33">
     <!-- Hilbert1991Annals_of_Botany -->
     <defs>
      <path d="M 9.8125 72.90625 
L 19.671875 72.90625 
L 19.671875 43.015625 
L 55.515625 43.015625 
L 55.515625 72.90625 
L 65.375 72.90625 
L 65.375 0 
L 55.515625 0 
L 55.515625 34.71875 
L 19.671875 34.71875 
L 19.671875 0 
L 9.8125 0 
z
" id="BitstreamVeraSans-Roman-48"/>
      <path d="M 50.984375 -16.609375 
L 50.984375 -23.578125 
L -0.984375 -23.578125 
L -0.984375 -16.609375 
z
" id="BitstreamVeraSans-Roman-5f"/>
     </defs>
     <g transform="translate(439.938 601.29225)scale(0.144 -0.144)">
      <use xlink:href="#BitstreamVeraSans-Roman-48"/>
      <use x="75.1953125" xlink:href="#BitstreamVeraSans-Roman-69"/>
      <use x="102.978515625" xlink:href="#BitstreamVeraSans-Roman-6c"/>
      <use x="130.76171875" xlink:href="#BitstreamVeraSans-Roman-62"/>
      <use x="194.23828125" xlink:href="#BitstreamVeraSans-Roman-65"/>
      <use x="255.76171875" xlink:href="#BitstreamVeraSans-Roman-72"/>
      <use x="296.875" xlink:href="#BitstreamVeraSans-Roman-74"/>
      <use x="336.083984375" xlink:href="#BitstreamVeraSans-Roman-31"/>
      <use x="399.70703125" xlink:href="#BitstreamVeraSans-Roman-39"/>
      <use x="463.330078125" xlink:href="#BitstreamVeraSans-Roman-39"/>
      <use x="526.953125" xlink:href="#BitstreamVeraSans-Roman-31"/>
      <use x="590.576171875" xlink:href="#BitstreamVeraSans-Roman-41"/>
      <use x="658.984375" xlink:href="#BitstreamVeraSans-Roman-6e"/>
      <use x="722.36328125" xlink:href="#BitstreamVeraSans-Roman-6e"/>
      <use x="785.7421875" xlink:href="#BitstreamVeraSans-Roman-61"/>
      <use x="847.021484375" xlink:href="#BitstreamVeraSans-Roman-6c"/>
      <use x="874.8046875" xlink:href="#BitstreamVeraSans-Roman-73"/>
      <use x="926.904296875" xlink:href="#BitstreamVeraSans-Roman-5f"/>
      <use x="976.904296875" xlink:href="#BitstreamVeraSans-Roman-6f"/>
      <use x="1038.0859375" xlink:href="#BitstreamVeraSans-Roman-66"/>
      <use x="1073.291015625" xlink:href="#BitstreamVeraSans-Roman-5f"/>
      <use x="1123.291015625" xlink:href="#BitstreamVeraSans-Roman-42"/>
      <use x="1191.89453125" xlink:href="#BitstreamVeraSans-Roman-6f"/>
      <use x="1253.076171875" xlink:href="#BitstreamVeraSans-Roman-74"/>
      <use x="1292.28515625" xlink:href="#BitstreamVeraSans-Roman-61"/>
      <use x="1353.564453125" xlink:href="#BitstreamVeraSans-Roman-6e"/>
      <use x="1416.943359375" xlink:href="#BitstreamVeraSans-Roman-79"/>
     </g>
    </g>
    <g id="PathCollection_28">
     <path d="M 421.089068 619.04925 
L 406.946932 611.978182 
L 406.946932 626.120318 
z
" style="fill:#000035;fill-opacity:0.9;stroke:#000000;stroke-opacity:0.9;"/>
     <path d="M 421.089068 619.04925 
L 406.946932 611.978182 
L 406.946932 626.120318 
z
" style="fill:#000035;fill-opacity:0.9;stroke:#000000;stroke-opacity:0.9;"/>
     <path d="M 421.089068 619.04925 
L 406.946932 611.978182 
L 406.946932 626.120318 
z
" style="fill:#000035;fill-opacity:0.9;stroke:#000000;stroke-opacity:0.9;"/>
    </g>
    <g id="text_34">
     <!-- IBIS -->
     <g transform="translate(439.938 622.82925)scale(0.144 -0.144)">
      <use xlink:href="#BitstreamVeraSans-Roman-49"/>
      <use x="29.4921875" xlink:href="#BitstreamVeraSans-Roman-42"/>
      <use x="98.095703125" xlink:href="#BitstreamVeraSans-Roman-49"/>
      <use x="127.587890625" xlink:href="#BitstreamVeraSans-Roman-53"/>
     </g>
    </g>
   </g>
  </g>
  <g id="axes_2">
   <g id="patch_7">
    <path d="M 90 417.6 
L 90 72 
" style="fill:none;stroke:#000000;stroke-linecap:square;stroke-linejoin:miter;"/>
   </g>
   <g id="patch_8">
    <path d="M 648 417.6 
L 648 72 
" style="fill:none;stroke:#000000;stroke-linecap:square;stroke-linejoin:miter;"/>
   </g>
   <g id="patch_9">
    <path d="M 90 72 
L 648 72 
" style="fill:none;stroke:#000000;stroke-linecap:square;stroke-linejoin:miter;"/>
   </g>
   <g id="patch_10">
    <path d="M 90 417.6 
L 648 417.6 
" style="fill:none;stroke:#000000;stroke-linecap:square;stroke-linejoin:miter;"/>
   </g>
   <g id="matplotlib.axis_3">
    <g id="xtick_10">
     <g id="line2d_19">
      <path clip-path="url(#pdab0aac862)" d="M 131.85 417.6 
L 131.85 72 
" style="fill:none;stroke:#000000;stroke-dasharray:1.000000,3.000000;stroke-dashoffset:0.0;stroke-width:0.5;"/>
     </g>
     <g id="line2d_20">
      <defs>
       <path d="M 0 0 
L 0 4 
" id="md14652f3cd" style="stroke:#000000;stroke-width:0.5;"/>
      </defs>
      <g>
       <use style="stroke:#000000;stroke-width:0.5;" x="131.85" xlink:href="#md14652f3cd" y="72.0"/>
      </g>
     </g>
     <g id="text_35">
      <!-- 1 -->
      <g transform="translate(125.4875 63.840625)scale(0.2 -0.2)">
       <use xlink:href="#BitstreamVeraSans-Roman-31"/>
      </g>
     </g>
    </g>
    <g id="xtick_11">
     <g id="line2d_21">
      <path clip-path="url(#pdab0aac862)" d="M 145.8 417.6 
L 145.8 72 
" style="fill:none;stroke:#000000;stroke-dasharray:1.000000,3.000000;stroke-dashoffset:0.0;stroke-width:0.5;"/>
     </g>
     <g id="line2d_22">
      <g>
       <use style="stroke:#000000;stroke-width:0.5;" x="145.8" xlink:href="#md14652f3cd" y="72.0"/>
      </g>
     </g>
     <g id="text_36">
      <!-- 3 -->
      <g transform="translate(139.4375 63.840625)scale(0.2 -0.2)">
       <use xlink:href="#BitstreamVeraSans-Roman-33"/>
      </g>
     </g>
    </g>
    <g id="xtick_12">
     <g id="line2d_23">
      <path clip-path="url(#pdab0aac862)" d="M 159.75 417.6 
L 159.75 72 
" style="fill:none;stroke:#000000;stroke-dasharray:1.000000,3.000000;stroke-dashoffset:0.0;stroke-width:0.5;"/>
     </g>
     <g id="line2d_24">
      <g>
       <use style="stroke:#000000;stroke-width:0.5;" x="159.75" xlink:href="#md14652f3cd" y="72.0"/>
      </g>
     </g>
     <g id="text_37">
      <!-- 1 -->
      <g transform="translate(153.3875 63.840625)scale(0.2 -0.2)">
       <use xlink:href="#BitstreamVeraSans-Roman-31"/>
      </g>
     </g>
    </g>
    <g id="xtick_13">
     <g id="line2d_25">
      <path clip-path="url(#pdab0aac862)" d="M 201.6 417.6 
L 201.6 72 
" style="fill:none;stroke:#000000;stroke-dasharray:1.000000,3.000000;stroke-dashoffset:0.0;stroke-width:0.5;"/>
     </g>
     <g id="line2d_26">
      <g>
       <use style="stroke:#000000;stroke-width:0.5;" x="201.6" xlink:href="#md14652f3cd" y="72.0"/>
      </g>
     </g>
     <g id="text_38">
      <!-- 1 -->
      <g transform="translate(195.2375 63.840625)scale(0.2 -0.2)">
       <use xlink:href="#BitstreamVeraSans-Roman-31"/>
      </g>
     </g>
    </g>
    <g id="xtick_14">
     <g id="line2d_27">
      <path clip-path="url(#pdab0aac862)" d="M 215.55 417.6 
L 215.55 72 
" style="fill:none;stroke:#000000;stroke-dasharray:1.000000,3.000000;stroke-dashoffset:0.0;stroke-width:0.5;"/>
     </g>
     <g id="line2d_28">
      <g>
       <use style="stroke:#000000;stroke-width:0.5;" x="215.55" xlink:href="#md14652f3cd" y="72.0"/>
      </g>
     </g>
     <g id="text_39">
      <!-- 1 -->
      <g transform="translate(209.1875 63.840625)scale(0.2 -0.2)">
       <use xlink:href="#BitstreamVeraSans-Roman-31"/>
      </g>
     </g>
    </g>
    <g id="xtick_15">
     <g id="line2d_29">
      <path clip-path="url(#pdab0aac862)" d="M 229.5 417.6 
L 229.5 72 
" style="fill:none;stroke:#000000;stroke-dasharray:1.000000,3.000000;stroke-dashoffset:0.0;stroke-width:0.5;"/>
     </g>
     <g id="line2d_30">
      <g>
       <use style="stroke:#000000;stroke-width:0.5;" x="229.5" xlink:href="#md14652f3cd" y="72.0"/>
      </g>
     </g>
     <g id="text_40">
      <!-- 1 -->
      <g transform="translate(223.1375 63.840625)scale(0.2 -0.2)">
       <use xlink:href="#BitstreamVeraSans-Roman-31"/>
      </g>
     </g>
    </g>
    <g id="xtick_16">
     <g id="line2d_31">
      <path clip-path="url(#pdab0aac862)" d="M 243.45 417.6 
L 243.45 72 
" style="fill:none;stroke:#000000;stroke-dasharray:1.000000,3.000000;stroke-dashoffset:0.0;stroke-width:0.5;"/>
     </g>
     <g id="line2d_32">
      <g>
       <use style="stroke:#000000;stroke-width:0.5;" x="243.45" xlink:href="#md14652f3cd" y="72.0"/>
      </g>
     </g>
     <g id="text_41">
      <!-- 2 -->
      <g transform="translate(237.0875 63.840625)scale(0.2 -0.2)">
       <use xlink:href="#BitstreamVeraSans-Roman-32"/>
      </g>
     </g>
    </g>
    <g id="xtick_17">
     <g id="line2d_33">
      <path clip-path="url(#pdab0aac862)" d="M 299.25 417.6 
L 299.25 72 
" style="fill:none;stroke:#000000;stroke-dasharray:1.000000,3.000000;stroke-dashoffset:0.0;stroke-width:0.5;"/>
     </g>
     <g id="line2d_34">
      <g>
       <use style="stroke:#000000;stroke-width:0.5;" x="299.25" xlink:href="#md14652f3cd" y="72.0"/>
      </g>
     </g>
     <g id="text_42">
      <!-- 1 -->
      <g transform="translate(292.8875 63.840625)scale(0.2 -0.2)">
       <use xlink:href="#BitstreamVeraSans-Roman-31"/>
      </g>
     </g>
    </g>
    <g id="xtick_18">
     <g id="line2d_35">
      <path clip-path="url(#pdab0aac862)" d="M 327.15 417.6 
L 327.15 72 
" style="fill:none;stroke:#000000;stroke-dasharray:1.000000,3.000000;stroke-dashoffset:0.0;stroke-width:0.5;"/>
     </g>
     <g id="line2d_36">
      <g>
       <use style="stroke:#000000;stroke-width:0.5;" x="327.15" xlink:href="#md14652f3cd" y="72.0"/>
      </g>
     </g>
     <g id="text_43">
      <!-- 1 -->
      <g transform="translate(320.7875 63.840625)scale(0.2 -0.2)">
       <use xlink:href="#BitstreamVeraSans-Roman-31"/>
      </g>
     </g>
    </g>
    <g id="xtick_19">
     <g id="line2d_37">
      <path clip-path="url(#pdab0aac862)" d="M 410.85 417.6 
L 410.85 72 
" style="fill:none;stroke:#000000;stroke-dasharray:1.000000,3.000000;stroke-dashoffset:0.0;stroke-width:0.5;"/>
     </g>
     <g id="line2d_38">
      <g>
       <use style="stroke:#000000;stroke-width:0.5;" x="410.85" xlink:href="#md14652f3cd" y="72.0"/>
      </g>
     </g>
     <g id="text_44">
      <!-- 1 -->
      <g transform="translate(404.4875 63.840625)scale(0.2 -0.2)">
       <use xlink:href="#BitstreamVeraSans-Roman-31"/>
      </g>
     </g>
    </g>
    <g id="xtick_20">
     <g id="line2d_39">
      <path clip-path="url(#pdab0aac862)" d="M 592.2 417.6 
L 592.2 72 
" style="fill:none;stroke:#000000;stroke-dasharray:1.000000,3.000000;stroke-dashoffset:0.0;stroke-width:0.5;"/>
     </g>
     <g id="line2d_40">
      <g>
       <use style="stroke:#000000;stroke-width:0.5;" x="592.2" xlink:href="#md14652f3cd" y="72.0"/>
      </g>
     </g>
     <g id="text_45">
      <!-- 1 -->
      <g transform="translate(585.8375 63.840625)scale(0.2 -0.2)">
       <use xlink:href="#BitstreamVeraSans-Roman-31"/>
      </g>
     </g>
    </g>
    <g id="text_46">
     <!-- # models -->
     <defs>
      <path d="M 52 44.1875 
Q 55.375 50.25 60.0625 53.125 
Q 64.75 56 71.09375 56 
Q 79.640625 56 84.28125 50.015625 
Q 88.921875 44.046875 88.921875 33.015625 
L 88.921875 0 
L 79.890625 0 
L 79.890625 32.71875 
Q 79.890625 40.578125 77.09375 44.375 
Q 74.3125 48.1875 68.609375 48.1875 
Q 61.625 48.1875 57.5625 43.546875 
Q 53.515625 38.921875 53.515625 30.90625 
L 53.515625 0 
L 44.484375 0 
L 44.484375 32.71875 
Q 44.484375 40.625 41.703125 44.40625 
Q 38.921875 48.1875 33.109375 48.1875 
Q 26.21875 48.1875 22.15625 43.53125 
Q 18.109375 38.875 18.109375 30.90625 
L 18.109375 0 
L 9.078125 0 
L 9.078125 54.6875 
L 18.109375 54.6875 
L 18.109375 46.1875 
Q 21.1875 51.21875 25.484375 53.609375 
Q 29.78125 56 35.6875 56 
Q 41.65625 56 45.828125 52.96875 
Q 50 49.953125 52 44.1875 
" id="BitstreamVeraSans-Roman-6d"/>
     </defs>
     <g transform="translate(321.09375 43.64375)scale(0.2 -0.2)">
      <use xlink:href="#BitstreamVeraSans-Roman-23"/>
      <use x="83.7890625" xlink:href="#BitstreamVeraSans-Roman-20"/>
      <use x="115.576171875" xlink:href="#BitstreamVeraSans-Roman-6d"/>
      <use x="212.98828125" xlink:href="#BitstreamVeraSans-Roman-6f"/>
      <use x="274.169921875" xlink:href="#BitstreamVeraSans-Roman-64"/>
      <use x="337.646484375" xlink:href="#BitstreamVeraSans-Roman-65"/>
      <use x="399.169921875" xlink:href="#BitstreamVeraSans-Roman-6c"/>
      <use x="426.953125" xlink:href="#BitstreamVeraSans-Roman-73"/>
     </g>
    </g>
   </g>
  </g>
  <g id="axes_3">
   <g id="patch_11">
    <path d="M 90 417.6 
L 90 72 
" style="fill:none;stroke:#000000;stroke-linecap:square;stroke-linejoin:miter;"/>
   </g>
   <g id="patch_12">
    <path d="M 648 417.6 
L 648 72 
" style="fill:none;stroke:#000000;stroke-linecap:square;stroke-linejoin:miter;"/>
   </g>
   <g id="patch_13">
    <path d="M 90 72 
L 648 72 
" style="fill:none;stroke:#000000;stroke-linecap:square;stroke-linejoin:miter;"/>
   </g>
   <g id="patch_14">
    <path d="M 90 417.6 
L 648 417.6 
" style="fill:none;stroke:#000000;stroke-linecap:square;stroke-linejoin:miter;"/>
   </g>
   <g id="matplotlib.axis_4">
    <g id="ytick_10">
     <g id="line2d_41">
      <path clip-path="url(#pdab0aac862)" d="M 90 356.611765 
L 648 356.611765 
" style="fill:none;stroke:#000000;stroke-dasharray:1.000000,3.000000;stroke-dashoffset:0.0;stroke-width:0.5;"/>
     </g>
     <g id="line2d_42">
      <defs>
       <path d="M 0 0 
L -4 0 
" id="m4a14abc6b3" style="stroke:#000000;stroke-width:0.5;"/>
      </defs>
      <g>
       <use style="stroke:#000000;stroke-width:0.5;" x="648.0" xlink:href="#m4a14abc6b3" y="356.611764706"/>
      </g>
     </g>
     <g id="text_47">
      <!-- 4 -->
      <g transform="translate(652.0 362.130514706)scale(0.2 -0.2)">
       <use xlink:href="#BitstreamVeraSans-Roman-34"/>
      </g>
     </g>
    </g>
    <g id="ytick_11">
     <g id="line2d_43">
      <path clip-path="url(#pdab0aac862)" d="M 90 336.282353 
L 648 336.282353 
" style="fill:none;stroke:#000000;stroke-dasharray:1.000000,3.000000;stroke-dashoffset:0.0;stroke-width:0.5;"/>
     </g>
     <g id="line2d_44">
      <g>
       <use style="stroke:#000000;stroke-width:0.5;" x="648.0" xlink:href="#m4a14abc6b3" y="336.282352941"/>
      </g>
     </g>
     <g id="text_48">
      <!-- 1 -->
      <g transform="translate(652.0 341.801102941)scale(0.2 -0.2)">
       <use xlink:href="#BitstreamVeraSans-Roman-31"/>
      </g>
     </g>
    </g>
    <g id="ytick_12">
     <g id="line2d_45">
      <path clip-path="url(#pdab0aac862)" d="M 90 315.952941 
L 648 315.952941 
" style="fill:none;stroke:#000000;stroke-dasharray:1.000000,3.000000;stroke-dashoffset:0.0;stroke-width:0.5;"/>
     </g>
     <g id="line2d_46">
      <g>
       <use style="stroke:#000000;stroke-width:0.5;" x="648.0" xlink:href="#m4a14abc6b3" y="315.952941176"/>
      </g>
     </g>
     <g id="text_49">
      <!-- 2 -->
      <g transform="translate(652.0 321.471691176)scale(0.2 -0.2)">
       <use xlink:href="#BitstreamVeraSans-Roman-32"/>
      </g>
     </g>
    </g>
    <g id="ytick_13">
     <g id="line2d_47">
      <path clip-path="url(#pdab0aac862)" d="M 90 295.623529 
L 648 295.623529 
" style="fill:none;stroke:#000000;stroke-dasharray:1.000000,3.000000;stroke-dashoffset:0.0;stroke-width:0.5;"/>
     </g>
     <g id="line2d_48">
      <g>
       <use style="stroke:#000000;stroke-width:0.5;" x="648.0" xlink:href="#m4a14abc6b3" y="295.623529412"/>
      </g>
     </g>
     <g id="text_50">
      <!-- 1 -->
      <g transform="translate(652.0 301.142279412)scale(0.2 -0.2)">
       <use xlink:href="#BitstreamVeraSans-Roman-31"/>
      </g>
     </g>
    </g>
    <g id="ytick_14">
     <g id="line2d_49">
      <path clip-path="url(#pdab0aac862)" d="M 90 275.294118 
L 648 275.294118 
" style="fill:none;stroke:#000000;stroke-dasharray:1.000000,3.000000;stroke-dashoffset:0.0;stroke-width:0.5;"/>
     </g>
     <g id="line2d_50">
      <g>
       <use style="stroke:#000000;stroke-width:0.5;" x="648.0" xlink:href="#m4a14abc6b3" y="275.294117647"/>
      </g>
     </g>
     <g id="text_51">
      <!-- 2 -->
      <g transform="translate(652.0 280.812867647)scale(0.2 -0.2)">
       <use xlink:href="#BitstreamVeraSans-Roman-32"/>
      </g>
     </g>
    </g>
    <g id="ytick_15">
     <g id="line2d_51">
      <path clip-path="url(#pdab0aac862)" d="M 90 214.305882 
L 648 214.305882 
" style="fill:none;stroke:#000000;stroke-dasharray:1.000000,3.000000;stroke-dashoffset:0.0;stroke-width:0.5;"/>
     </g>
     <g id="line2d_52">
      <g>
       <use style="stroke:#000000;stroke-width:0.5;" x="648.0" xlink:href="#m4a14abc6b3" y="214.305882353"/>
      </g>
     </g>
     <g id="text_52">
      <!-- 2 -->
      <g transform="translate(652.0 219.824632353)scale(0.2 -0.2)">
       <use xlink:href="#BitstreamVeraSans-Roman-32"/>
      </g>
     </g>
    </g>
    <g id="ytick_16">
     <g id="line2d_53">
      <path clip-path="url(#pdab0aac862)" d="M 90 132.988235 
L 648 132.988235 
" style="fill:none;stroke:#000000;stroke-dasharray:1.000000,3.000000;stroke-dashoffset:0.0;stroke-width:0.5;"/>
     </g>
     <g id="line2d_54">
      <g>
       <use style="stroke:#000000;stroke-width:0.5;" x="648.0" xlink:href="#m4a14abc6b3" y="132.988235294"/>
      </g>
     </g>
     <g id="text_53">
      <!-- 1 -->
      <g transform="translate(652.0 138.506985294)scale(0.2 -0.2)">
       <use xlink:href="#BitstreamVeraSans-Roman-31"/>
      </g>
     </g>
    </g>
    <g id="ytick_17">
     <g id="line2d_55">
      <path clip-path="url(#pdab0aac862)" d="M 90 92.329412 
L 648 92.329412 
" style="fill:none;stroke:#000000;stroke-dasharray:1.000000,3.000000;stroke-dashoffset:0.0;stroke-width:0.5;"/>
     </g>
     <g id="line2d_56">
      <g>
       <use style="stroke:#000000;stroke-width:0.5;" x="648.0" xlink:href="#m4a14abc6b3" y="92.3294117647"/>
      </g>
     </g>
     <g id="text_54">
      <!-- 1 -->
      <g transform="translate(652.0 97.8481617647)scale(0.2 -0.2)">
       <use xlink:href="#BitstreamVeraSans-Roman-31"/>
      </g>
     </g>
    </g>
    <g id="text_55">
     <!-- # models -->
     <g transform="translate(684.921875 292.70625)rotate(-90.0)scale(0.2 -0.2)">
      <use xlink:href="#BitstreamVeraSans-Roman-23"/>
      <use x="83.7890625" xlink:href="#BitstreamVeraSans-Roman-20"/>
      <use x="115.576171875" xlink:href="#BitstreamVeraSans-Roman-6d"/>
      <use x="212.98828125" xlink:href="#BitstreamVeraSans-Roman-6f"/>
      <use x="274.169921875" xlink:href="#BitstreamVeraSans-Roman-64"/>
      <use x="337.646484375" xlink:href="#BitstreamVeraSans-Roman-65"/>
      <use x="399.169921875" xlink:href="#BitstreamVeraSans-Roman-6c"/>
      <use x="426.953125" xlink:href="#BitstreamVeraSans-Roman-73"/>
     </g>
    </g>
   </g>
  </g>
 </g>
 <defs>
  <clipPath id="pdab0aac862">
   <rect height="345.6" width="558.0" x="90.0" y="72.0"/>
  </clipPath>
 </defs>
</svg>
