<?xml version="1.0" encoding="utf-8" standalone="no"?>
<!DOCTYPE svg PUBLIC "-//W3C//DTD SVG 1.1//EN"
  "http://www.w3.org/Graphics/SVG/1.1/DTD/svg11.dtd">
<!-- Created with matplotlib (https://matplotlib.org/) -->
<svg height="216pt" version="1.1" viewBox="0 0 216 216" width="216pt" xmlns="http://www.w3.org/2000/svg" xmlns:xlink="http://www.w3.org/1999/xlink">
 <defs>
  <style type="text/css">
*{stroke-linecap:butt;stroke-linejoin:round;}
  </style>
 </defs>
 <g id="figure_1">
  <g id="patch_1">
   <path d="M 0 216 
L 216 216 
L 216 0 
L 0 0 
z
" style="fill:none;"/>
  </g>
  <g id="axes_1">
   <g id="patch_2">
    <path clip-path="url(#p375105efca)" d="M 47.088 119.0592 
C 49.7517 119.0592 52.30666 118.007729 54.190181 116.13636 
C 56.073701 114.264991 57.132 111.726515 57.132 109.08 
C 57.132 106.433485 56.073701 103.895009 54.190181 102.02364 
C 52.30666 100.152271 49.7517 99.1008 47.088 99.1008 
C 44.4243 99.1008 41.86934 100.152271 39.985819 102.02364 
C 38.102299 103.895009 37.044 106.433485 37.044 109.08 
C 37.044 111.726515 38.102299 114.264991 39.985819 116.13636 
C 41.86934 118.007729 44.4243 119.0592 47.088 119.0592 
z
" style="fill:#0000ff;opacity:0.3;stroke:#0000ff;stroke-linejoin:miter;"/>
   </g>
   <g id="patch_3">
    <path clip-path="url(#p375105efca)" d="M 31.069895 97.005326 
Q 33.792765 100.193445 36.515636 103.381563 
Q 32.331418 103.646988 28.147201 103.912414 
z
" style="fill:#0000ff;opacity:0.5;stroke:#0000ff;stroke-linecap:round;"/>
   </g>
   <g id="patch_4">
    <path clip-path="url(#p375105efca)" d="M 71.038567 69.646199 
C 73.702267 69.646199 76.257227 68.594728 78.140747 66.723359 
C 80.024268 64.851991 81.082567 62.313514 81.082567 59.666999 
C 81.082567 57.020485 80.024268 54.482008 78.140747 52.610639 
C 76.257227 50.739271 73.702267 49.687799 71.038567 49.687799 
C 68.374867 49.687799 65.819907 50.739271 63.936386 52.610639 
C 62.052866 54.482008 60.994567 57.020485 60.994567 59.666999 
C 60.994567 62.313514 62.052866 64.851991 63.936386 66.723359 
C 65.819907 68.594728 68.374867 69.646199 71.038567 69.646199 
z
" style="fill:#0000ff;opacity:0.3;stroke:#0000ff;stroke-linejoin:miter;"/>
   </g>
   <g id="patch_5">
    <path clip-path="url(#p375105efca)" d="M 124.855002 57.442196 
C 127.518702 57.442196 130.073662 56.390725 131.957182 54.519356 
C 133.840702 52.647988 134.899002 50.109511 134.899002 47.462996 
C 134.899002 44.816481 133.840702 42.278005 131.957182 40.406636 
C 130.073662 38.535268 127.518702 37.483796 124.855002 37.483796 
C 122.191302 37.483796 119.636341 38.535268 117.752821 40.406636 
C 115.869301 42.278005 114.811002 44.816481 114.811002 47.462996 
C 114.811002 50.109511 115.869301 52.647988 117.752821 54.519356 
C 119.636341 56.390725 122.191302 57.442196 124.855002 57.442196 
z
" style="fill:#0000ff;opacity:0.3;stroke:#0000ff;stroke-linejoin:miter;"/>
   </g>
   <g id="patch_6">
    <path clip-path="url(#p375105efca)" d="M 168.012432 91.637053 
C 170.676132 91.637053 173.231092 90.585582 175.114612 88.714213 
C 176.998132 86.842845 178.056432 84.304368 178.056432 81.657853 
C 178.056432 79.011339 176.998132 76.472862 175.114612 74.601493 
C 173.231092 72.730125 170.676132 71.678653 168.012432 71.678653 
C 165.348732 71.678653 162.793771 72.730125 160.910251 74.601493 
C 159.026731 76.472862 157.968432 79.011339 157.968432 81.657853 
C 157.968432 84.304368 159.026731 86.842845 160.910251 88.714213 
C 162.793771 90.585582 165.348732 91.637053 168.012432 91.637053 
z
" style="fill:#0000ff;opacity:0.3;stroke:#0000ff;stroke-linejoin:miter;"/>
   </g>
   <g id="patch_7">
    <path clip-path="url(#p375105efca)" d="M 171.675715 71.891222 
Q 175.07327 69.434652 178.470826 66.978081 
Q 178.397549 71.170068 178.324273 75.362055 
z
" style="fill:#008000;opacity:0.5;stroke:#008000;stroke-linecap:round;"/>
   </g>
   <g id="patch_8">
    <path clip-path="url(#p375105efca)" d="M 168.012432 146.481347 
C 170.676132 146.481347 173.231092 145.429875 175.114612 143.558507 
C 176.998132 141.687138 178.056432 139.148661 178.056432 136.502147 
C 178.056432 133.855632 176.998132 131.317155 175.114612 129.445787 
C 173.231092 127.574418 170.676132 126.522947 168.012432 126.522947 
C 165.348732 126.522947 162.793771 127.574418 160.910251 129.445787 
C 159.026731 131.317155 157.968432 133.855632 157.968432 136.502147 
C 157.968432 139.148661 159.026731 141.687138 160.910251 143.558507 
C 162.793771 145.429875 165.348732 146.481347 168.012432 146.481347 
z
" style="fill:#0000ff;opacity:0.3;stroke:#0000ff;stroke-linejoin:miter;"/>
   </g>
   <g id="patch_9">
    <path clip-path="url(#p375105efca)" d="M 177.191286 154.306442 
Q 176.121323 150.252641 175.051359 146.19884 
Q 178.936378 147.77515 182.821397 149.35146 
z
" style="fill:#0000ff;opacity:0.5;stroke:#0000ff;stroke-linecap:round;"/>
   </g>
   <g id="patch_10">
    <path clip-path="url(#p375105efca)" d="M 124.855002 180.676204 
C 127.518702 180.676204 130.073662 179.624732 131.957182 177.753364 
C 133.840702 175.881995 134.899002 173.343519 134.899002 170.697004 
C 134.899002 168.050489 133.840702 165.512012 131.957182 163.640644 
C 130.073662 161.769275 127.518702 160.717804 124.855002 160.717804 
C 122.191302 160.717804 119.636341 161.769275 117.752821 163.640644 
C 115.869301 165.512012 114.811002 168.050489 114.811002 170.697004 
C 114.811002 173.343519 115.869301 175.881995 117.752821 177.753364 
C 119.636341 179.624732 122.191302 180.676204 124.855002 180.676204 
z
" style="fill:#0000ff;opacity:0.3;stroke:#0000ff;stroke-linejoin:miter;"/>
   </g>
   <g id="patch_11">
    <path clip-path="url(#p375105efca)" d="M 71.038567 168.472201 
C 73.702267 168.472201 76.257227 167.420729 78.140747 165.549361 
C 80.024268 163.677992 81.082567 161.139515 81.082567 158.493001 
C 81.082567 155.846486 80.024268 153.308009 78.140747 151.436641 
C 76.257227 149.565272 73.702267 148.513801 71.038567 148.513801 
C 68.374867 148.513801 65.819907 149.565272 63.936386 151.436641 
C 62.052866 153.308009 60.994567 155.846486 60.994567 158.493001 
C 60.994567 161.139515 62.052866 163.677992 63.936386 165.549361 
C 65.819907 167.420729 68.374867 168.472201 71.038567 168.472201 
z
" style="fill:#0000ff;opacity:0.3;stroke:#0000ff;stroke-linejoin:miter;"/>
   </g>
   <g id="patch_12">
    <path clip-path="url(#p375105efca)" d="M 52.809039 98.389627 
Q 59.899457 88.804745 64.139751 77.806527 
L 62.040377 76.997126 
Q 65.079671 74.335217 67.944307 71.240103 
Q 68.684878 75.390559 69.038291 79.695128 
L 66.938917 78.885727 
Q 62.552629 90.262616 55.220853 100.173766 
L 52.809039 98.389627 
z
" style="fill:#008000;opacity:0.5;stroke:#008000;stroke-linecap:round;"/>
   </g>
   <g id="patch_13">
    <path clip-path="url(#p375105efca)" d="M 58.840936 112.233819 
Q 101.882818 131.169018 148.585753 134.051012 
L 148.724335 131.805284 
Q 152.291049 133.904305 155.984152 135.90696 
Q 152.163193 137.652837 148.262395 139.291045 
L 148.400977 137.045317 
Q 101.164279 134.130385 57.632893 114.97984 
L 58.840936 112.233819 
z
" style="fill:#008000;opacity:0.5;stroke:#008000;stroke-linecap:round;"/>
   </g>
   <g id="patch_14">
    <path clip-path="url(#p375105efca)" d="M 80.25104 67.579096 
Q 110.800554 103.169915 151.562138 125.90453 
L 152.658122 123.939506 
Q 154.96698 127.374593 157.431844 130.777339 
Q 153.23109 130.69943 149.004841 130.489585 
L 150.100826 128.524562 
Q 108.872347 105.529538 77.974633 69.533059 
L 80.25104 67.579096 
z
" style="fill:#008000;opacity:0.5;stroke:#008000;stroke-linecap:round;"/>
   </g>
   <g id="patch_15">
    <path clip-path="url(#p375105efca)" d="M 129.699039 58.563454 
Q 138.561571 91.708617 157.833033 119.834934 
L 159.689139 118.563176 
Q 160.217807 122.65311 160.948982 126.794929 
Q 157.202426 124.884541 153.502118 122.802371 
L 155.358225 121.530612 
Q 135.796182 92.980199 126.800853 59.338387 
L 129.699039 58.563454 
z
" style="fill:#0000ff;opacity:0.5;stroke:#0000ff;stroke-linecap:round;"/>
   </g>
   <g id="patch_16">
    <path clip-path="url(#p375105efca)" d="M 156.040167 83.884218 
Q 109.040412 85.367777 65.662453 102.913569 
L 66.506143 104.999399 
Q 62.382866 104.644249 58.187133 104.430559 
Q 60.881251 101.207247 63.693843 98.046632 
L 64.537533 100.132462 
Q 108.411251 82.386143 155.945519 80.885711 
L 156.040167 83.884218 
z
" style="fill:#0000ff;opacity:0.5;stroke:#0000ff;stroke-linecap:round;"/>
   </g>
   <g id="patch_17">
    <path clip-path="url(#p375105efca)" d="M 167.525566 93.750589 
Q 165.329582 105.446296 166.306977 117.170687 
L 168.549199 116.983766 
Q 166.974431 120.702424 165.745839 124.73499 
Q 163.269842 121.324809 161.075125 117.606837 
L 163.317347 117.419916 
Q 162.306256 105.291325 164.577088 93.196984 
L 167.525566 93.750589 
z
" style="fill:#0000ff;opacity:0.5;stroke:#0000ff;stroke-linecap:round;"/>
   </g>
   <g id="patch_18">
    <path clip-path="url(#p375105efca)" d="M 162.292773 92.351595 
Q 141.764423 119.843152 131.624527 152.396392 
L 133.772726 153.065527 
Q 130.889691 156.014387 128.091389 159.154356 
Q 127.269975 155.029775 126.612063 150.835077 
L 128.760262 151.504212 
Q 139.053046 118.460136 159.888988 90.556653 
L 162.292773 92.351595 
z
" style="fill:#0000ff;opacity:0.5;stroke:#0000ff;stroke-linecap:round;"/>
   </g>
   <g id="patch_19">
    <path clip-path="url(#p375105efca)" d="M 158.187891 88.829315 
Q 116.553772 110.431452 85.100272 144.915058 
L 86.762621 146.431335 
Q 82.890552 147.893586 79.014294 149.515105 
Q 80.050741 145.443416 81.221458 141.377078 
L 82.883807 142.893355 
Q 114.697578 108.014771 156.80623 86.166419 
L 158.187891 88.829315 
z
" style="fill:#0000ff;opacity:0.5;stroke:#0000ff;stroke-linecap:round;"/>
   </g>
   <g id="patch_20">
    <path clip-path="url(#p375105efca)" d="M 163.168395 125.401688 
Q 154.305863 92.256525 135.0344 64.130209 
L 133.178294 65.401967 
Q 132.649626 61.312032 131.918452 57.170214 
Q 135.665007 59.080601 139.365315 61.162772 
L 137.509209 62.434531 
Q 157.071252 90.984944 166.06658 124.626756 
L 163.168395 125.401688 
z
" style="fill:#008000;opacity:0.5;stroke:#008000;stroke-linecap:round;"/>
   </g>
   <g id="patch_21">
    <path clip-path="url(#p375105efca)" d="M 168.499298 124.409411 
Q 170.695282 112.713704 169.717887 100.989313 
L 167.475664 101.176234 
Q 169.050432 97.457576 170.279024 93.42501 
Q 172.755021 96.835191 174.949738 100.553163 
L 172.707516 100.740084 
Q 173.718607 112.868675 171.447775 124.963016 
L 168.499298 124.409411 
z
" style="fill:#008000;opacity:0.5;stroke:#008000;stroke-linecap:round;"/>
   </g>
   <g id="patch_22">
    <path clip-path="url(#p375105efca)" d="M 134.669514 163.533674 
Q 145.262803 157.958912 153.892612 149.859862 
L 152.352874 148.21922 
Q 156.246661 147.140747 160.171191 145.597512 
Q 159.035479 149.657387 157.485334 153.688028 
L 155.945596 152.047385 
Q 147.019497 160.424502 136.066625 166.188496 
L 134.669514 163.533674 
z
" style="fill:#0000ff;opacity:0.5;stroke:#0000ff;stroke-linecap:round;"/>
   </g>
   <g id="patch_23">
    <path clip-path="url(#p375105efca)" d="M 83.005294 156.266314 
Q 117.499855 155.130591 149.444356 142.642756 
L 148.625151 140.547188 
Q 152.72562 140.958057 156.921898 141.18464 
Q 154.216802 144.400159 151.355835 147.532413 
L 150.53663 145.436845 
Q 118.112872 158.112033 83.104015 159.264689 
L 83.005294 156.266314 
z
" style="fill:#0000ff;opacity:0.5;stroke:#0000ff;stroke-linecap:round;"/>
   </g>
   <g id="text_1">
    <!-- $P$ -->
    <defs>
     <path d="M 16.890625 72.90625 
L 39.703125 72.90625 
Q 49.65625 72.90625 54.875 68.265625 
Q 60.109375 63.625 60.109375 54.6875 
Q 60.109375 42.671875 52.390625 35.984375 
Q 44.671875 29.296875 30.71875 29.296875 
L 18.3125 29.296875 
L 12.59375 0 
L 2.6875 0 
z
M 25.203125 64.796875 
L 19.921875 37.40625 
L 32.328125 37.40625 
Q 40.71875 37.40625 45.203125 41.703125 
Q 49.703125 46 49.703125 54 
Q 49.703125 59.125 46.65625 61.953125 
Q 43.609375 64.796875 38.09375 64.796875 
z
" id="DejaVuSans-Oblique-80"/>
    </defs>
    <g transform="translate(42.208 113.495)scale(0.16 -0.16)">
     <use transform="translate(0 0.09375)" xlink:href="#DejaVuSans-Oblique-80"/>
    </g>
   </g>
   <g id="text_2">
    <!-- $M$ -->
    <defs>
     <path d="M 16.890625 72.90625 
L 31.6875 72.90625 
L 40.1875 23.78125 
L 68.40625 72.90625 
L 83.59375 72.90625 
L 69.390625 0 
L 59.8125 0 
L 72.21875 63.921875 
L 43.609375 14.015625 
L 33.984375 14.015625 
L 24.703125 64.109375 
L 12.3125 0 
L 2.6875 0 
z
" id="DejaVuSans-Oblique-77"/>
    </defs>
    <g transform="translate(64.078567 64.081999)scale(0.16 -0.16)">
     <use transform="translate(0 0.09375)" xlink:href="#DejaVuSans-Oblique-77"/>
    </g>
   </g>
   <g id="text_3">
    <!-- $Q$ -->
    <defs>
     <path d="M 36.078125 -1.3125 
Q 35.546875 -1.375 34.953125 -1.390625 
Q 34.375 -1.421875 33.203125 -1.421875 
Q 19.53125 -1.421875 11.8125 6.421875 
Q 4.109375 14.265625 4.109375 28.078125 
Q 4.109375 36.234375 7.0625 44.4375 
Q 10.015625 52.640625 15.28125 59.1875 
Q 21.390625 66.703125 29.03125 70.453125 
Q 36.671875 74.21875 45.90625 74.21875 
Q 59.28125 74.21875 66.984375 66.328125 
Q 74.703125 58.453125 74.703125 44.828125 
Q 74.703125 30.125 66.640625 17.921875 
Q 58.59375 5.71875 45.609375 0.6875 
L 55.515625 -12.890625 
L 44.484375 -12.890625 
z
M 45.609375 66.21875 
Q 37.5 66.21875 31.296875 62.28125 
Q 25.09375 58.34375 20.515625 50.296875 
Q 17.578125 45.171875 16.03125 39.40625 
Q 14.5 33.640625 14.5 27.78125 
Q 14.5 17.625 19.359375 12.109375 
Q 24.21875 6.59375 33.109375 6.59375 
Q 41.109375 6.59375 47.375 10.5625 
Q 53.65625 14.546875 58.109375 22.40625 
Q 61.078125 27.6875 62.640625 33.46875 
Q 64.203125 39.265625 64.203125 45.015625 
Q 64.203125 55.125 59.3125 60.671875 
Q 54.4375 66.21875 45.609375 66.21875 
z
" id="DejaVuSans-Oblique-81"/>
    </defs>
    <g transform="translate(118.535002 51.877996)scale(0.16 -0.16)">
     <use transform="translate(0 0.78125)" xlink:href="#DejaVuSans-Oblique-81"/>
    </g>
   </g>
   <g id="text_4">
    <!-- $B$ -->
    <defs>
     <path d="M 16.890625 72.90625 
L 42.09375 72.90625 
Q 52.34375 72.90625 57.421875 69.09375 
Q 62.5 65.28125 62.5 57.625 
Q 62.5 50.59375 58.125 45.484375 
Q 53.765625 40.375 46.6875 39.3125 
Q 52.734375 37.9375 55.765625 34.078125 
Q 58.796875 30.21875 58.796875 23.78125 
Q 58.796875 12.796875 50.65625 6.390625 
Q 42.53125 0 28.421875 0 
L 2.6875 0 
z
M 19.28125 34.8125 
L 14.109375 8.109375 
L 29.984375 8.109375 
Q 38.921875 8.109375 43.75 12.203125 
Q 48.578125 16.3125 48.578125 23.78125 
Q 48.578125 29.546875 45.375 32.171875 
Q 42.1875 34.8125 35.109375 34.8125 
z
M 25.09375 64.796875 
L 20.796875 42.828125 
L 35.5 42.828125 
Q 43.359375 42.828125 47.78125 46.234375 
Q 52.203125 49.65625 52.203125 55.71875 
Q 52.203125 60.453125 49.21875 62.625 
Q 46.234375 64.796875 39.703125 64.796875 
z
" id="DejaVuSans-Oblique-66"/>
    </defs>
    <g transform="translate(162.492432 86.072853)scale(0.16 -0.16)">
     <use transform="translate(0 0.09375)" xlink:href="#DejaVuSans-Oblique-66"/>
    </g>
   </g>
   <g id="text_5">
    <!-- $D$ -->
    <defs>
     <path d="M 16.890625 72.90625 
L 38.09375 72.90625 
Q 54.984375 72.90625 63.59375 65.75 
Q 72.21875 58.59375 72.21875 44.484375 
Q 72.21875 35.15625 68.9375 26.53125 
Q 65.671875 17.921875 59.90625 12.015625 
Q 54.109375 5.953125 45.171875 2.96875 
Q 36.234375 0 24.03125 0 
L 2.6875 0 
z
M 25.203125 64.796875 
L 14.203125 8.109375 
L 27.09375 8.109375 
Q 43.65625 8.109375 52.734375 17.625 
Q 61.8125 27.15625 61.8125 44.484375 
Q 61.8125 54.984375 55.953125 59.890625 
Q 50.09375 64.796875 37.59375 64.796875 
z
" id="DejaVuSans-Oblique-68"/>
    </defs>
    <g transform="translate(161.772432 140.917147)scale(0.16 -0.16)">
     <use transform="translate(0 0.09375)" xlink:href="#DejaVuSans-Oblique-68"/>
    </g>
   </g>
   <g id="text_6">
    <!-- $EP$ -->
    <defs>
     <path d="M 16.890625 72.90625 
L 62.984375 72.90625 
L 61.375 64.59375 
L 25.09375 64.59375 
L 20.90625 43.015625 
L 55.71875 43.015625 
L 54.109375 34.71875 
L 19.28125 34.71875 
L 14.203125 8.296875 
L 51.3125 8.296875 
L 49.703125 0 
L 2.6875 0 
z
" id="DejaVuSans-Oblique-69"/>
    </defs>
    <g transform="translate(114.935002 175.112004)scale(0.16 -0.16)">
     <use transform="translate(0 0.09375)" xlink:href="#DejaVuSans-Oblique-69"/>
     <use transform="translate(63.183594 0.09375)" xlink:href="#DejaVuSans-Oblique-80"/>
    </g>
   </g>
   <g id="text_7">
    <!-- $EM$ -->
    <g transform="translate(59.038567 162.908001)scale(0.16 -0.16)">
     <use transform="translate(0 0.09375)" xlink:href="#DejaVuSans-Oblique-69"/>
     <use transform="translate(63.183594 0.09375)" xlink:href="#DejaVuSans-Oblique-77"/>
    </g>
   </g>
  </g>
 </g>
 <defs>
  <clipPath id="p375105efca">
   <rect height="166.32" width="167.4" x="27" y="25.92"/>
  </clipPath>
 </defs>
</svg>
