<?xml version="1.0" encoding="utf-8" standalone="no"?>
<!DOCTYPE svg PUBLIC "-//W3C//DTD SVG 1.1//EN"
  "http://www.w3.org/Graphics/SVG/1.1/DTD/svg11.dtd">
<!-- Created with matplotlib (http://matplotlib.org/) -->
<svg height="1152pt" version="1.1" viewBox="0 0 1152 1152" width="1152pt" xmlns="http://www.w3.org/2000/svg" xmlns:xlink="http://www.w3.org/1999/xlink">
 <defs>
  <style type="text/css">
*{stroke-linecap:butt;stroke-linejoin:round;}
  </style>
 </defs>
 <g id="figure_1">
  <g id="patch_1">
   <path d="M 0 1152 
L 1152 1152 
L 1152 0 
L 0 0 
z
" style="fill:#ffffff;"/>
  </g>
  <g id="axes_1">
   <g id="patch_2">
    <path clip-path="url(#p1f7eb6120e)" d="M 73.728 728.064 
C 83.504447 728.064 92.881792 724.179776 99.794784 717.266784 
C 106.707776 710.353792 110.592 700.976447 110.592 691.2 
C 110.592 681.423553 106.707776 672.046208 99.794784 665.133216 
C 92.881792 658.220224 83.504447 654.336 73.728 654.336 
C 63.951553 654.336 54.574208 658.220224 47.661216 665.133216 
C 40.748224 672.046208 36.864 681.423553 36.864 691.2 
C 36.864 700.976447 40.748224 710.353792 47.661216 717.266784 
C 54.574208 724.179776 63.951553 728.064 73.728 728.064 
z
" style="fill:#0000ff;opacity:0.3;stroke:#0000ff;stroke-linejoin:miter;"/>
   </g>
   <g id="patch_3">
    <path clip-path="url(#p1f7eb6120e)" d="M 14.617159 651.818751 
Q 17.544813 654.28666 20.633196 656.471366 
L 24.964497 650.348472 
Q 30.152506 661.81391 39.916186 672.108108 
Q 25.816952 673.778798 10.526827 670.758118 
L 14.858128 664.635224 
Q 11.4237 662.205729 8.171958 659.464625 
L 14.617159 651.818751 
z
" style="fill:#0000ff;opacity:0.5;stroke:#0000ff;stroke-linecap:round;"/>
   </g>
   <g id="patch_4">
    <path clip-path="url(#p1f7eb6120e)" d="M 41.613101 714.995134 
Q 38.012002 716.296602 34.5758 717.878868 
L 37.712731 724.691332 
Q 25.189366 723.45156 11.392489 726.760056 
Q 16.995246 713.714416 27.256294 701.983119 
L 30.393225 708.795583 
Q 34.214444 707.036029 38.214181 705.590489 
L 41.613101 714.995134 
z
" style="fill:#0000ff;opacity:0.5;stroke:#0000ff;stroke-linecap:round;"/>
   </g>
   <g id="patch_5">
    <path clip-path="url(#p1f7eb6120e)" d="M 187.098764 454.362764 
C 196.875211 454.362764 206.252556 450.47854 213.165548 443.565548 
C 220.07854 436.652556 223.962764 427.275211 223.962764 417.498764 
C 223.962764 407.722317 220.07854 398.344972 213.165548 391.43198 
C 206.252556 384.518988 196.875211 380.634764 187.098764 380.634764 
C 177.322317 380.634764 167.944972 384.518988 161.03198 391.43198 
C 154.118988 398.344972 150.234764 407.722317 150.234764 417.498764 
C 150.234764 427.275211 154.118988 436.652556 161.03198 443.565548 
C 167.944972 450.47854 177.322317 454.362764 187.098764 454.362764 
z
" style="fill:#0000ff;opacity:0.3;stroke:#0000ff;stroke-linejoin:miter;"/>
   </g>
   <g id="patch_6">
    <path clip-path="url(#p1f7eb6120e)" d="M 173.147835 347.85434 
Q 173.472924 351.669579 174.111921 355.398215 
L 181.504153 354.131368 
Q 177.06534 365.907133 176.690207 380.090194 
Q 165.539187 371.301887 156.863379 358.354192 
L 164.255611 357.087345 
Q 163.545017 352.940925 163.183941 348.703343 
L 173.147835 347.85434 
z
" style="fill:#0000ff;opacity:0.5;stroke:#0000ff;stroke-linecap:round;"/>
   </g>
   <g id="patch_7">
    <path clip-path="url(#p1f7eb6120e)" d="M 147.5644 411.615802 
Q 144.097762 409.989717 140.549169 408.678787 
L 137.950175 415.714071 
Q 129.97147 405.982063 117.876145 398.565658 
Q 131.062553 393.302745 146.613489 392.263123 
L 144.014495 399.298407 
Q 147.960697 400.756224 151.811089 402.562314 
L 147.5644 411.615802 
z
" style="fill:#0000ff;opacity:0.5;stroke:#0000ff;stroke-linecap:round;"/>
   </g>
   <g id="patch_8">
    <path clip-path="url(#p1f7eb6120e)" d="M 460.8 340.992 
C 470.576447 340.992 479.953792 337.107776 486.866784 330.194784 
C 493.779776 323.281792 497.664 313.904447 497.664 304.128 
C 497.664 294.351553 493.779776 284.974208 486.866784 278.061216 
C 479.953792 271.148224 470.576447 267.264 460.8 267.264 
C 451.023553 267.264 441.646208 271.148224 434.733216 278.061216 
C 427.820224 284.974208 423.936 294.351553 423.936 304.128 
C 423.936 313.904447 427.820224 323.281792 434.733216 330.194784 
C 441.646208 337.107776 451.023553 340.992 460.8 340.992 
z
" style="fill:#0000ff;opacity:0.3;stroke:#0000ff;stroke-linejoin:miter;"/>
   </g>
   <g id="patch_9">
    <path clip-path="url(#p1f7eb6120e)" d="M 500.181249 245.017159 
Q 497.71334 247.944813 495.528634 251.033196 
L 501.651528 255.364497 
Q 490.18609 260.552506 479.891892 270.316186 
Q 478.221202 256.216952 481.241882 240.926827 
L 487.364776 245.258128 
Q 489.794271 241.8237 492.535375 238.571958 
L 500.181249 245.017159 
z
" style="fill:#0000ff;opacity:0.5;stroke:#0000ff;stroke-linecap:round;"/>
   </g>
   <g id="patch_10">
    <path clip-path="url(#p1f7eb6120e)" d="M 437.004866 272.013101 
Q 435.703398 268.412002 434.121132 264.9758 
L 427.308668 268.112731 
Q 428.54844 255.589366 425.239944 241.792489 
Q 438.285584 247.395246 450.016881 257.656294 
L 443.204417 260.793225 
Q 444.963971 264.614444 446.409511 268.614181 
L 437.004866 272.013101 
z
" style="fill:#0000ff;opacity:0.5;stroke:#0000ff;stroke-linecap:round;"/>
   </g>
   <g id="patch_11">
    <path clip-path="url(#p1f7eb6120e)" d="M 734.501236 454.362764 
C 744.277683 454.362764 753.655028 450.47854 760.56802 443.565548 
C 767.481012 436.652556 771.365236 427.275211 771.365236 417.498764 
C 771.365236 407.722317 767.481012 398.344972 760.56802 391.43198 
C 753.655028 384.518988 744.277683 380.634764 734.501236 380.634764 
C 724.724789 380.634764 715.347444 384.518988 708.434452 391.43198 
C 701.52146 398.344972 697.637236 407.722317 697.637236 417.498764 
C 697.637236 427.275211 701.52146 436.652556 708.434452 443.565548 
C 715.347444 450.47854 724.724789 454.362764 734.501236 454.362764 
z
" style="fill:#0000ff;opacity:0.3;stroke:#0000ff;stroke-linejoin:miter;"/>
   </g>
   <g id="patch_12">
    <path clip-path="url(#p1f7eb6120e)" d="M 740.384198 377.9644 
Q 742.010283 374.497762 743.321213 370.949169 
L 736.285929 368.350175 
Q 746.017937 360.37147 753.434342 348.276145 
Q 758.697255 361.462553 759.736877 377.013489 
L 752.701593 374.414495 
Q 751.243776 378.360697 749.437686 382.211089 
L 740.384198 377.9644 
z
" style="fill:#0000ff;opacity:0.5;stroke:#0000ff;stroke-linecap:round;"/>
   </g>
   <g id="patch_13">
    <path clip-path="url(#p1f7eb6120e)" d="M 847.872 728.064 
C 857.648447 728.064 867.025792 724.179776 873.938784 717.266784 
C 880.851776 710.353792 884.736 700.976447 884.736 691.2 
C 884.736 681.423553 880.851776 672.046208 873.938784 665.133216 
C 867.025792 658.220224 857.648447 654.336 847.872 654.336 
C 838.095553 654.336 828.718208 658.220224 821.805216 665.133216 
C 814.892224 672.046208 811.008 681.423553 811.008 691.2 
C 811.008 700.976447 814.892224 710.353792 821.805216 717.266784 
C 828.718208 724.179776 838.095553 728.064 847.872 728.064 
z
" style="fill:#0000ff;opacity:0.3;stroke:#0000ff;stroke-linejoin:miter;"/>
   </g>
   <g id="patch_14">
    <path clip-path="url(#p1f7eb6120e)" d="M 879.986899 667.404866 
Q 883.587998 666.103398 887.0242 664.521132 
L 883.887269 657.708668 
Q 896.410634 658.94844 910.207511 655.639944 
Q 904.604754 668.685584 894.343706 680.416881 
L 891.206775 673.604417 
Q 887.385556 675.363971 883.385819 676.809511 
L 879.986899 667.404866 
z
" style="fill:#0000ff;opacity:0.5;stroke:#0000ff;stroke-linecap:round;"/>
   </g>
   <g id="patch_15">
    <path clip-path="url(#p1f7eb6120e)" d="M 734.501236 1001.765236 
C 744.277683 1001.765236 753.655028 997.881012 760.56802 990.96802 
C 767.481012 984.055028 771.365236 974.677683 771.365236 964.901236 
C 771.365236 955.124789 767.481012 945.747444 760.56802 938.834452 
C 753.655028 931.92146 744.277683 928.037236 734.501236 928.037236 
C 724.724789 928.037236 715.347444 931.92146 708.434452 938.834452 
C 701.52146 945.747444 697.637236 955.124789 697.637236 964.901236 
C 697.637236 974.677683 701.52146 984.055028 708.434452 990.96802 
C 715.347444 997.881012 724.724789 1001.765236 734.501236 1001.765236 
z
" style="fill:#0000ff;opacity:0.3;stroke:#0000ff;stroke-linejoin:miter;"/>
   </g>
   <g id="patch_16">
    <path clip-path="url(#p1f7eb6120e)" d="M 774.0356 970.784198 
Q 777.502238 972.410283 781.050831 973.721213 
L 783.649825 966.685929 
Q 791.62853 976.417937 803.723855 983.834342 
Q 790.537447 989.097255 774.986511 990.136877 
L 777.585505 983.101593 
Q 773.639303 981.643776 769.788911 979.837686 
L 774.0356 970.784198 
z
" style="fill:#0000ff;opacity:0.5;stroke:#0000ff;stroke-linecap:round;"/>
   </g>
   <g id="patch_17">
    <path clip-path="url(#p1f7eb6120e)" d="M 460.8 1115.136 
C 470.576447 1115.136 479.953792 1111.251776 486.866784 1104.338784 
C 493.779776 1097.425792 497.664 1088.048447 497.664 1078.272 
C 497.664 1068.495553 493.779776 1059.118208 486.866784 1052.205216 
C 479.953792 1045.292224 470.576447 1041.408 460.8 1041.408 
C 451.023553 1041.408 441.646208 1045.292224 434.733216 1052.205216 
C 427.820224 1059.118208 423.936 1068.495553 423.936 1078.272 
C 423.936 1088.048447 427.820224 1097.425792 434.733216 1104.338784 
C 441.646208 1111.251776 451.023553 1115.136 460.8 1115.136 
z
" style="fill:#0000ff;opacity:0.3;stroke:#0000ff;stroke-linejoin:miter;"/>
   </g>
   <g id="patch_18">
    <path clip-path="url(#p1f7eb6120e)" d="M 484.595134 1110.386899 
Q 485.896602 1113.987998 487.478868 1117.4242 
L 494.291332 1114.287269 
Q 493.05156 1126.810634 496.360056 1140.607511 
Q 483.314416 1135.004754 471.583119 1124.743706 
L 478.395583 1121.606775 
Q 476.636029 1117.785556 475.190489 1113.785819 
L 484.595134 1110.386899 
z
" style="fill:#0000ff;opacity:0.5;stroke:#0000ff;stroke-linecap:round;"/>
   </g>
   <g id="patch_19">
    <path clip-path="url(#p1f7eb6120e)" d="M 187.098764 1001.765236 
C 196.875211 1001.765236 206.252556 997.881012 213.165548 990.96802 
C 220.07854 984.055028 223.962764 974.677683 223.962764 964.901236 
C 223.962764 955.124789 220.07854 945.747444 213.165548 938.834452 
C 206.252556 931.92146 196.875211 928.037236 187.098764 928.037236 
C 177.322317 928.037236 167.944972 931.92146 161.03198 938.834452 
C 154.118988 945.747444 150.234764 955.124789 150.234764 964.901236 
C 150.234764 974.677683 154.118988 984.055028 161.03198 990.96802 
C 167.944972 997.881012 177.322317 1001.765236 187.098764 1001.765236 
z
" style="fill:#0000ff;opacity:0.3;stroke:#0000ff;stroke-linejoin:miter;"/>
   </g>
   <g id="patch_20">
    <path clip-path="url(#p1f7eb6120e)" d="M 181.215802 1004.4356 
Q 179.589717 1007.902238 178.278787 1011.450831 
L 185.314071 1014.049825 
Q 175.582063 1022.02853 168.165658 1034.123855 
Q 162.902745 1020.937447 161.863123 1005.386511 
L 168.898407 1007.985505 
Q 170.356224 1004.039303 172.162314 1000.188911 
L 181.215802 1004.4356 
z
" style="fill:#0000ff;opacity:0.5;stroke:#0000ff;stroke-linecap:round;"/>
   </g>
   <g id="patch_21">
    <path clip-path="url(#p1f7eb6120e)" d="M 110.565747 677.300852 
Q 416.623576 616.533576 677.960829 447.661102 
L 673.890321 441.361819 
Q 687.690151 439.886291 701.572932 438.136495 
Q 694.629044 450.284311 687.458682 462.359428 
L 683.388174 456.060145 
Q 420.445676 625.969906 112.513215 687.109387 
L 110.565747 677.300852 
z
" style="fill:#0000ff;opacity:0.5;stroke:#0000ff;stroke-linecap:round;"/>
   </g>
   <g id="patch_22">
    <path clip-path="url(#p1f7eb6120e)" d="M 113.076431 692.45517 
Q 448.555202 759.317142 784.083747 697.425995 
L 782.723258 690.050423 
Q 796.051968 693.947556 809.546884 697.641539 
Q 798.485585 706.208951 787.258219 714.635665 
L 785.897731 707.260092 
Q 448.482312 769.49929 111.121841 702.262288 
L 113.076431 692.45517 
z
" style="fill:#0000ff;opacity:0.5;stroke:#0000ff;stroke-linecap:round;"/>
   </g>
   <g id="patch_23">
    <path clip-path="url(#p1f7eb6120e)" d="M 222.975166 433.718802 
Q 482.359686 607.165416 786.563902 672.547889 
L 788.139883 665.215339 
Q 798.941192 673.929937 809.995093 682.509252 
Q 796.49522 686.188985 782.886611 689.657171 
L 784.462593 682.324621 
Q 478.389825 616.540542 217.416553 442.031552 
L 222.975166 433.718802 
z
" style="fill:#0000ff;opacity:0.5;stroke:#0000ff;stroke-linecap:round;"/>
   </g>
   <g id="patch_24">
    <path clip-path="url(#p1f7eb6120e)" d="M 496.674299 320.351507 
Q 578.503732 375.179389 673.344214 398.896939 
L 675.163768 391.621005 
Q 685.471714 400.644237 696.510963 409.291403 
Q 682.960942 412.895356 669.098589 415.87412 
L 670.918143 408.598185 
Q 574.386034 384.457596 491.107989 328.659105 
L 496.674299 320.351507 
z
" style="fill:#0000ff;opacity:0.5;stroke:#0000ff;stroke-linecap:round;"/>
   </g>
   <g id="patch_25">
    <path clip-path="url(#p1f7eb6120e)" d="M 487.734311 332.837276 
Q 613.503413 521.19567 798.385862 650.537974 
L 802.685147 644.392557 
Q 809.222737 656.594605 816.146253 668.759488 
Q 802.263183 666.979496 788.354197 664.87728 
L 792.653482 658.731863 
Q 606.230766 528.312001 479.417822 338.390293 
L 487.734311 332.837276 
z
" style="fill:#0000ff;opacity:0.5;stroke:#0000ff;stroke-linecap:round;"/>
   </g>
   <g id="patch_26">
    <path clip-path="url(#p1f7eb6120e)" d="M 733.246146 456.844722 
Q 688.988833 678.966404 728.261647 901.156858 
L 735.647166 899.851446 
Q 731.64179 913.102371 727.935584 926.599907 
Q 719.377415 915.52445 711.028768 904.20282 
L 718.414287 902.897408 
Q 678.81429 678.855872 723.438924 454.890652 
L 733.246146 456.844722 
z
" style="fill:#0000ff;opacity:0.5;stroke:#0000ff;stroke-linecap:round;"/>
   </g>
   <g id="patch_27">
    <path clip-path="url(#p1f7eb6120e)" d="M 831.648493 727.074299 
Q 776.820611 808.903732 753.103061 903.744214 
L 760.378995 905.563768 
Q 751.355763 915.871714 742.708597 926.910963 
Q 739.104644 913.360942 736.12588 899.498589 
L 743.401815 901.318143 
Q 767.542404 804.786034 823.340895 721.507989 
L 831.648493 727.074299 
z
" style="fill:#0000ff;opacity:0.5;stroke:#0000ff;stroke-linecap:round;"/>
   </g>
   <g id="patch_28">
    <path clip-path="url(#p1f7eb6120e)" d="M 819.162724 718.134311 
Q 630.80433 843.903413 501.462026 1028.785862 
L 507.607443 1033.085147 
Q 495.405395 1039.622737 483.240512 1046.546253 
Q 485.020504 1032.663183 487.12272 1018.754197 
L 493.268137 1023.053482 
Q 623.687999 836.630766 813.609707 709.817822 
L 819.162724 718.134311 
z
" style="fill:#0000ff;opacity:0.5;stroke:#0000ff;stroke-linecap:round;"/>
   </g>
   <g id="patch_29">
    <path clip-path="url(#p1f7eb6120e)" d="M 697.662524 978.796445 
Q 601.03121 997.889424 517.198021 1048.180932 
L 521.056265 1054.612413 
Q 507.387058 1055.520843 493.46666 1057.212301 
Q 500.499592 1045.082609 508.195452 1033.174142 
L 512.053696 1039.605623 
Q 597.382179 988.417089 695.724141 968.98611 
L 697.662524 978.796445 
z
" style="fill:#0000ff;opacity:0.5;stroke:#0000ff;stroke-linecap:round;"/>
   </g>
   <g id="patch_30">
    <path clip-path="url(#p1f7eb6120e)" d="M 695.155278 963.646146 
Q 473.033596 919.388833 250.843142 958.661647 
L 252.148554 966.047166 
Q 238.897629 962.04179 225.400093 958.335584 
Q 236.47555 949.777415 247.79718 941.428768 
L 249.102592 948.814287 
Q 473.144128 909.21429 697.109348 953.838924 
L 695.155278 963.646146 
z
" style="fill:#0000ff;opacity:0.5;stroke:#0000ff;stroke-linecap:round;"/>
   </g>
   <g id="patch_31">
    <path clip-path="url(#p1f7eb6120e)" d="M 497.638712 1064.376791 
Q 594.270026 1045.283812 678.103215 994.992304 
L 674.244971 988.560823 
Q 687.914178 987.652393 701.834576 985.960935 
Q 694.801644 998.090627 687.105784 1009.999094 
L 683.24754 1003.567613 
Q 597.919057 1054.756147 499.577095 1074.187126 
L 497.638712 1064.376791 
z
" style="fill:#0000ff;opacity:0.5;stroke:#0000ff;stroke-linecap:round;"/>
   </g>
   <g id="patch_32">
    <path clip-path="url(#p1f7eb6120e)" d="M 424.925701 1062.048493 
Q 343.096268 1007.220611 248.255786 983.503061 
L 246.436232 990.778995 
Q 236.128286 981.755763 225.089037 973.108597 
Q 238.639058 969.504644 252.501411 966.52588 
L 250.681857 973.801815 
Q 347.213966 997.942404 430.492011 1053.740895 
L 424.925701 1062.048493 
z
" style="fill:#0000ff;opacity:0.5;stroke:#0000ff;stroke-linecap:round;"/>
   </g>
   <g id="patch_33">
    <path clip-path="url(#p1f7eb6120e)" d="M 226.444722 966.156326 
Q 448.566404 1010.413639 670.756858 971.140825 
L 669.451446 963.755306 
Q 682.702371 967.760682 696.199907 971.466888 
Q 685.12445 980.025057 673.80282 988.373704 
L 672.497408 980.988185 
Q 448.455872 1020.588182 224.490652 975.963548 
L 226.444722 966.156326 
z
" style="fill:#0000ff;opacity:0.5;stroke:#0000ff;stroke-linecap:round;"/>
   </g>
   <g id="text_1">
    <!-- $x_{1}$ -->
    <defs>
     <path d="M 60.015625 54.6875 
L 34.90625 27.875 
L 50.296875 0 
L 39.984375 0 
L 28.421875 21.6875 
L 8.296875 0 
L -2.59375 0 
L 24.3125 28.8125 
L 10.015625 54.6875 
L 20.3125 54.6875 
L 30.8125 34.90625 
L 49.125 54.6875 
z
" id="DejaVuSans-Oblique-78"/>
     <path d="M 12.40625 8.296875 
L 28.515625 8.296875 
L 28.515625 63.921875 
L 10.984375 60.40625 
L 10.984375 69.390625 
L 28.421875 72.90625 
L 38.28125 72.90625 
L 38.28125 8.296875 
L 54.390625 8.296875 
L 54.390625 0 
L 12.40625 0 
z
" id="DejaVuSans-31"/>
    </defs>
    <g transform="translate(60.888 697.8225)scale(0.24 -0.24)">
     <use transform="translate(0 0.3125)" xlink:href="#DejaVuSans-Oblique-78"/>
     <use transform="translate(59.179688 -16.09375)scale(0.7)" xlink:href="#DejaVuSans-31"/>
    </g>
   </g>
   <g id="text_2">
    <!-- $x_{2}$ -->
    <defs>
     <path d="M 19.1875 8.296875 
L 53.609375 8.296875 
L 53.609375 0 
L 7.328125 0 
L 7.328125 8.296875 
Q 12.9375 14.109375 22.625 23.890625 
Q 32.328125 33.6875 34.8125 36.53125 
Q 39.546875 41.84375 41.421875 45.53125 
Q 43.3125 49.21875 43.3125 52.78125 
Q 43.3125 58.59375 39.234375 62.25 
Q 35.15625 65.921875 28.609375 65.921875 
Q 23.96875 65.921875 18.8125 64.3125 
Q 13.671875 62.703125 7.8125 59.421875 
L 7.8125 69.390625 
Q 13.765625 71.78125 18.9375 73 
Q 24.125 74.21875 28.421875 74.21875 
Q 39.75 74.21875 46.484375 68.546875 
Q 53.21875 62.890625 53.21875 53.421875 
Q 53.21875 48.921875 51.53125 44.890625 
Q 49.859375 40.875 45.40625 35.40625 
Q 44.1875 33.984375 37.640625 27.21875 
Q 31.109375 20.453125 19.1875 8.296875 
z
" id="DejaVuSans-32"/>
    </defs>
    <g transform="translate(174.258764 424.121264)scale(0.24 -0.24)">
     <use transform="translate(0 0.3125)" xlink:href="#DejaVuSans-Oblique-78"/>
     <use transform="translate(59.179688 -16.09375)scale(0.7)" xlink:href="#DejaVuSans-32"/>
    </g>
   </g>
   <g id="text_3">
    <!-- $x_{3}$ -->
    <defs>
     <path d="M 40.578125 39.3125 
Q 47.65625 37.796875 51.625 33 
Q 55.609375 28.21875 55.609375 21.1875 
Q 55.609375 10.40625 48.1875 4.484375 
Q 40.765625 -1.421875 27.09375 -1.421875 
Q 22.515625 -1.421875 17.65625 -0.515625 
Q 12.796875 0.390625 7.625 2.203125 
L 7.625 11.71875 
Q 11.71875 9.328125 16.59375 8.109375 
Q 21.484375 6.890625 26.8125 6.890625 
Q 36.078125 6.890625 40.9375 10.546875 
Q 45.796875 14.203125 45.796875 21.1875 
Q 45.796875 27.640625 41.28125 31.265625 
Q 36.765625 34.90625 28.71875 34.90625 
L 20.21875 34.90625 
L 20.21875 43.015625 
L 29.109375 43.015625 
Q 36.375 43.015625 40.234375 45.921875 
Q 44.09375 48.828125 44.09375 54.296875 
Q 44.09375 59.90625 40.109375 62.90625 
Q 36.140625 65.921875 28.71875 65.921875 
Q 24.65625 65.921875 20.015625 65.03125 
Q 15.375 64.15625 9.8125 62.3125 
L 9.8125 71.09375 
Q 15.4375 72.65625 20.34375 73.4375 
Q 25.25 74.21875 29.59375 74.21875 
Q 40.828125 74.21875 47.359375 69.109375 
Q 53.90625 64.015625 53.90625 55.328125 
Q 53.90625 49.265625 50.4375 45.09375 
Q 46.96875 40.921875 40.578125 39.3125 
z
" id="DejaVuSans-33"/>
    </defs>
    <g transform="translate(447.96 310.7505)scale(0.24 -0.24)">
     <use transform="translate(0 0.3125)" xlink:href="#DejaVuSans-Oblique-78"/>
     <use transform="translate(59.179688 -16.09375)scale(0.7)" xlink:href="#DejaVuSans-33"/>
    </g>
   </g>
   <g id="text_4">
    <!-- $x_{4}$ -->
    <defs>
     <path d="M 37.796875 64.3125 
L 12.890625 25.390625 
L 37.796875 25.390625 
z
M 35.203125 72.90625 
L 47.609375 72.90625 
L 47.609375 25.390625 
L 58.015625 25.390625 
L 58.015625 17.1875 
L 47.609375 17.1875 
L 47.609375 0 
L 37.796875 0 
L 37.796875 17.1875 
L 4.890625 17.1875 
L 4.890625 26.703125 
z
" id="DejaVuSans-34"/>
    </defs>
    <g transform="translate(721.661236 424.121264)scale(0.24 -0.24)">
     <use transform="translate(0 0.3125)" xlink:href="#DejaVuSans-Oblique-78"/>
     <use transform="translate(59.179688 -16.09375)scale(0.7)" xlink:href="#DejaVuSans-34"/>
    </g>
   </g>
   <g id="text_5">
    <!-- $x_{5}$ -->
    <defs>
     <path d="M 10.796875 72.90625 
L 49.515625 72.90625 
L 49.515625 64.59375 
L 19.828125 64.59375 
L 19.828125 46.734375 
Q 21.96875 47.46875 24.109375 47.828125 
Q 26.265625 48.1875 28.421875 48.1875 
Q 40.625 48.1875 47.75 41.5 
Q 54.890625 34.8125 54.890625 23.390625 
Q 54.890625 11.625 47.5625 5.09375 
Q 40.234375 -1.421875 26.90625 -1.421875 
Q 22.3125 -1.421875 17.546875 -0.640625 
Q 12.796875 0.140625 7.71875 1.703125 
L 7.71875 11.625 
Q 12.109375 9.234375 16.796875 8.0625 
Q 21.484375 6.890625 26.703125 6.890625 
Q 35.15625 6.890625 40.078125 11.328125 
Q 45.015625 15.765625 45.015625 23.390625 
Q 45.015625 31 40.078125 35.4375 
Q 35.15625 39.890625 26.703125 39.890625 
Q 22.75 39.890625 18.8125 39.015625 
Q 14.890625 38.140625 10.796875 36.28125 
z
" id="DejaVuSans-35"/>
    </defs>
    <g transform="translate(835.032 697.8225)scale(0.24 -0.24)">
     <use transform="translate(0 0.3125)" xlink:href="#DejaVuSans-Oblique-78"/>
     <use transform="translate(59.179688 -16.09375)scale(0.7)" xlink:href="#DejaVuSans-35"/>
    </g>
   </g>
   <g id="text_6">
    <!-- $x_{6}$ -->
    <defs>
     <path d="M 33.015625 40.375 
Q 26.375 40.375 22.484375 35.828125 
Q 18.609375 31.296875 18.609375 23.390625 
Q 18.609375 15.53125 22.484375 10.953125 
Q 26.375 6.390625 33.015625 6.390625 
Q 39.65625 6.390625 43.53125 10.953125 
Q 47.40625 15.53125 47.40625 23.390625 
Q 47.40625 31.296875 43.53125 35.828125 
Q 39.65625 40.375 33.015625 40.375 
z
M 52.59375 71.296875 
L 52.59375 62.3125 
Q 48.875 64.0625 45.09375 64.984375 
Q 41.3125 65.921875 37.59375 65.921875 
Q 27.828125 65.921875 22.671875 59.328125 
Q 17.53125 52.734375 16.796875 39.40625 
Q 19.671875 43.65625 24.015625 45.921875 
Q 28.375 48.1875 33.59375 48.1875 
Q 44.578125 48.1875 50.953125 41.515625 
Q 57.328125 34.859375 57.328125 23.390625 
Q 57.328125 12.15625 50.6875 5.359375 
Q 44.046875 -1.421875 33.015625 -1.421875 
Q 20.359375 -1.421875 13.671875 8.265625 
Q 6.984375 17.96875 6.984375 36.375 
Q 6.984375 53.65625 15.1875 63.9375 
Q 23.390625 74.21875 37.203125 74.21875 
Q 40.921875 74.21875 44.703125 73.484375 
Q 48.484375 72.75 52.59375 71.296875 
z
" id="DejaVuSans-36"/>
    </defs>
    <g transform="translate(721.661236 971.523736)scale(0.24 -0.24)">
     <use transform="translate(0 0.3125)" xlink:href="#DejaVuSans-Oblique-78"/>
     <use transform="translate(59.179688 -16.09375)scale(0.7)" xlink:href="#DejaVuSans-36"/>
    </g>
   </g>
   <g id="text_7">
    <!-- $x_{7}$ -->
    <defs>
     <path d="M 8.203125 72.90625 
L 55.078125 72.90625 
L 55.078125 68.703125 
L 28.609375 0 
L 18.3125 0 
L 43.21875 64.59375 
L 8.203125 64.59375 
z
" id="DejaVuSans-37"/>
    </defs>
    <g transform="translate(447.96 1084.8945)scale(0.24 -0.24)">
     <use transform="translate(0 0.3125)" xlink:href="#DejaVuSans-Oblique-78"/>
     <use transform="translate(59.179688 -16.09375)scale(0.7)" xlink:href="#DejaVuSans-37"/>
    </g>
   </g>
   <g id="text_8">
    <!-- $x_{8}$ -->
    <defs>
     <path d="M 31.78125 34.625 
Q 24.75 34.625 20.71875 30.859375 
Q 16.703125 27.09375 16.703125 20.515625 
Q 16.703125 13.921875 20.71875 10.15625 
Q 24.75 6.390625 31.78125 6.390625 
Q 38.8125 6.390625 42.859375 10.171875 
Q 46.921875 13.96875 46.921875 20.515625 
Q 46.921875 27.09375 42.890625 30.859375 
Q 38.875 34.625 31.78125 34.625 
z
M 21.921875 38.8125 
Q 15.578125 40.375 12.03125 44.71875 
Q 8.5 49.078125 8.5 55.328125 
Q 8.5 64.0625 14.71875 69.140625 
Q 20.953125 74.21875 31.78125 74.21875 
Q 42.671875 74.21875 48.875 69.140625 
Q 55.078125 64.0625 55.078125 55.328125 
Q 55.078125 49.078125 51.53125 44.71875 
Q 48 40.375 41.703125 38.8125 
Q 48.828125 37.15625 52.796875 32.3125 
Q 56.78125 27.484375 56.78125 20.515625 
Q 56.78125 9.90625 50.3125 4.234375 
Q 43.84375 -1.421875 31.78125 -1.421875 
Q 19.734375 -1.421875 13.25 4.234375 
Q 6.78125 9.90625 6.78125 20.515625 
Q 6.78125 27.484375 10.78125 32.3125 
Q 14.796875 37.15625 21.921875 38.8125 
z
M 18.3125 54.390625 
Q 18.3125 48.734375 21.84375 45.5625 
Q 25.390625 42.390625 31.78125 42.390625 
Q 38.140625 42.390625 41.71875 45.5625 
Q 45.3125 48.734375 45.3125 54.390625 
Q 45.3125 60.0625 41.71875 63.234375 
Q 38.140625 66.40625 31.78125 66.40625 
Q 25.390625 66.40625 21.84375 63.234375 
Q 18.3125 60.0625 18.3125 54.390625 
z
" id="DejaVuSans-38"/>
    </defs>
    <g transform="translate(174.258764 971.523736)scale(0.24 -0.24)">
     <use transform="translate(0 0.3125)" xlink:href="#DejaVuSans-Oblique-78"/>
     <use transform="translate(59.179688 -16.09375)scale(0.7)" xlink:href="#DejaVuSans-38"/>
    </g>
   </g>
   <g id="legend_1">
    <g id="patch_34">
     <path d="M 295.126562 160.918125 
L 626.473438 160.918125 
Q 628.473438 160.918125 628.473438 158.918125 
L 628.473438 145.24 
Q 628.473438 143.24 626.473438 143.24 
L 295.126562 143.24 
Q 293.126562 143.24 293.126562 145.24 
L 293.126562 158.918125 
Q 293.126562 160.918125 295.126562 160.918125 
z
" style="fill:#ffffff;opacity:0.8;stroke:#cccccc;stroke-linejoin:miter;"/>
    </g>
    <g id="patch_35">
     <path d="M 297.126562 154.838437 
L 317.126562 154.838437 
L 317.126562 147.838437 
L 297.126562 147.838437 
z
" style="fill:#0000ff;opacity:0.5;stroke:#0000ff;stroke-linejoin:miter;"/>
    </g>
    <g id="text_9">
     <!-- linear -->
     <defs>
      <path d="M 9.421875 75.984375 
L 18.40625 75.984375 
L 18.40625 0 
L 9.421875 0 
z
" id="DejaVuSans-6c"/>
      <path d="M 9.421875 54.6875 
L 18.40625 54.6875 
L 18.40625 0 
L 9.421875 0 
z
M 9.421875 75.984375 
L 18.40625 75.984375 
L 18.40625 64.59375 
L 9.421875 64.59375 
z
" id="DejaVuSans-69"/>
      <path d="M 54.890625 33.015625 
L 54.890625 0 
L 45.90625 0 
L 45.90625 32.71875 
Q 45.90625 40.484375 42.875 44.328125 
Q 39.84375 48.1875 33.796875 48.1875 
Q 26.515625 48.1875 22.3125 43.546875 
Q 18.109375 38.921875 18.109375 30.90625 
L 18.109375 0 
L 9.078125 0 
L 9.078125 54.6875 
L 18.109375 54.6875 
L 18.109375 46.1875 
Q 21.34375 51.125 25.703125 53.5625 
Q 30.078125 56 35.796875 56 
Q 45.21875 56 50.046875 50.171875 
Q 54.890625 44.34375 54.890625 33.015625 
z
" id="DejaVuSans-6e"/>
      <path d="M 56.203125 29.59375 
L 56.203125 25.203125 
L 14.890625 25.203125 
Q 15.484375 15.921875 20.484375 11.0625 
Q 25.484375 6.203125 34.421875 6.203125 
Q 39.59375 6.203125 44.453125 7.46875 
Q 49.3125 8.734375 54.109375 11.28125 
L 54.109375 2.78125 
Q 49.265625 0.734375 44.1875 -0.34375 
Q 39.109375 -1.421875 33.890625 -1.421875 
Q 20.796875 -1.421875 13.15625 6.1875 
Q 5.515625 13.8125 5.515625 26.8125 
Q 5.515625 40.234375 12.765625 48.109375 
Q 20.015625 56 32.328125 56 
Q 43.359375 56 49.78125 48.890625 
Q 56.203125 41.796875 56.203125 29.59375 
z
M 47.21875 32.234375 
Q 47.125 39.59375 43.09375 43.984375 
Q 39.0625 48.390625 32.421875 48.390625 
Q 24.90625 48.390625 20.390625 44.140625 
Q 15.875 39.890625 15.1875 32.171875 
z
" id="DejaVuSans-65"/>
      <path d="M 34.28125 27.484375 
Q 23.390625 27.484375 19.1875 25 
Q 14.984375 22.515625 14.984375 16.5 
Q 14.984375 11.71875 18.140625 8.90625 
Q 21.296875 6.109375 26.703125 6.109375 
Q 34.1875 6.109375 38.703125 11.40625 
Q 43.21875 16.703125 43.21875 25.484375 
L 43.21875 27.484375 
z
M 52.203125 31.203125 
L 52.203125 0 
L 43.21875 0 
L 43.21875 8.296875 
Q 40.140625 3.328125 35.546875 0.953125 
Q 30.953125 -1.421875 24.3125 -1.421875 
Q 15.921875 -1.421875 10.953125 3.296875 
Q 6 8.015625 6 15.921875 
Q 6 25.140625 12.171875 29.828125 
Q 18.359375 34.515625 30.609375 34.515625 
L 43.21875 34.515625 
L 43.21875 35.40625 
Q 43.21875 41.609375 39.140625 45 
Q 35.0625 48.390625 27.6875 48.390625 
Q 23 48.390625 18.546875 47.265625 
Q 14.109375 46.140625 10.015625 43.890625 
L 10.015625 52.203125 
Q 14.9375 54.109375 19.578125 55.046875 
Q 24.21875 56 28.609375 56 
Q 40.484375 56 46.34375 49.84375 
Q 52.203125 43.703125 52.203125 31.203125 
z
" id="DejaVuSans-61"/>
      <path d="M 41.109375 46.296875 
Q 39.59375 47.171875 37.8125 47.578125 
Q 36.03125 48 33.890625 48 
Q 26.265625 48 22.1875 43.046875 
Q 18.109375 38.09375 18.109375 28.8125 
L 18.109375 0 
L 9.078125 0 
L 9.078125 54.6875 
L 18.109375 54.6875 
L 18.109375 46.1875 
Q 20.953125 51.171875 25.484375 53.578125 
Q 30.03125 56 36.53125 56 
Q 37.453125 56 38.578125 55.875 
Q 39.703125 55.765625 41.0625 55.515625 
z
" id="DejaVuSans-72"/>
     </defs>
     <g transform="translate(325.126562 154.838437)scale(0.1 -0.1)">
      <use xlink:href="#DejaVuSans-6c"/>
      <use x="27.783203" xlink:href="#DejaVuSans-69"/>
      <use x="55.566406" xlink:href="#DejaVuSans-6e"/>
      <use x="118.945312" xlink:href="#DejaVuSans-65"/>
      <use x="180.46875" xlink:href="#DejaVuSans-61"/>
      <use x="241.748047" xlink:href="#DejaVuSans-72"/>
     </g>
    </g>
    <g id="patch_36">
     <path d="M 373.4125 154.838437 
L 393.4125 154.838437 
L 393.4125 147.838437 
L 373.4125 147.838437 
z
" style="fill:#008000;opacity:0.5;stroke:#008000;stroke-linejoin:miter;"/>
    </g>
    <g id="text_10">
     <!-- nonlinear -->
     <defs>
      <path d="M 30.609375 48.390625 
Q 23.390625 48.390625 19.1875 42.75 
Q 14.984375 37.109375 14.984375 27.296875 
Q 14.984375 17.484375 19.15625 11.84375 
Q 23.34375 6.203125 30.609375 6.203125 
Q 37.796875 6.203125 41.984375 11.859375 
Q 46.1875 17.53125 46.1875 27.296875 
Q 46.1875 37.015625 41.984375 42.703125 
Q 37.796875 48.390625 30.609375 48.390625 
z
M 30.609375 56 
Q 42.328125 56 49.015625 48.375 
Q 55.71875 40.765625 55.71875 27.296875 
Q 55.71875 13.875 49.015625 6.21875 
Q 42.328125 -1.421875 30.609375 -1.421875 
Q 18.84375 -1.421875 12.171875 6.21875 
Q 5.515625 13.875 5.515625 27.296875 
Q 5.515625 40.765625 12.171875 48.375 
Q 18.84375 56 30.609375 56 
z
" id="DejaVuSans-6f"/>
     </defs>
     <g transform="translate(401.4125 154.838437)scale(0.1 -0.1)">
      <use xlink:href="#DejaVuSans-6e"/>
      <use x="63.378906" xlink:href="#DejaVuSans-6f"/>
      <use x="124.560547" xlink:href="#DejaVuSans-6e"/>
      <use x="187.939453" xlink:href="#DejaVuSans-6c"/>
      <use x="215.722656" xlink:href="#DejaVuSans-69"/>
      <use x="243.505859" xlink:href="#DejaVuSans-6e"/>
      <use x="306.884766" xlink:href="#DejaVuSans-65"/>
      <use x="368.408203" xlink:href="#DejaVuSans-61"/>
      <use x="429.6875" xlink:href="#DejaVuSans-72"/>
     </g>
    </g>
    <g id="patch_37">
     <path d="M 468.492188 154.838437 
L 488.492188 154.838437 
L 488.492188 147.838437 
L 468.492188 147.838437 
z
" style="fill:#ff0000;opacity:0.5;stroke:#ff0000;stroke-linejoin:miter;"/>
    </g>
    <g id="text_11">
     <!-- no substrate dependence -->
     <defs>
      <path id="DejaVuSans-20"/>
      <path d="M 44.28125 53.078125 
L 44.28125 44.578125 
Q 40.484375 46.53125 36.375 47.5 
Q 32.28125 48.484375 27.875 48.484375 
Q 21.1875 48.484375 17.84375 46.4375 
Q 14.5 44.390625 14.5 40.28125 
Q 14.5 37.15625 16.890625 35.375 
Q 19.28125 33.59375 26.515625 31.984375 
L 29.59375 31.296875 
Q 39.15625 29.25 43.1875 25.515625 
Q 47.21875 21.78125 47.21875 15.09375 
Q 47.21875 7.46875 41.1875 3.015625 
Q 35.15625 -1.421875 24.609375 -1.421875 
Q 20.21875 -1.421875 15.453125 -0.5625 
Q 10.6875 0.296875 5.421875 2 
L 5.421875 11.28125 
Q 10.40625 8.6875 15.234375 7.390625 
Q 20.0625 6.109375 24.8125 6.109375 
Q 31.15625 6.109375 34.5625 8.28125 
Q 37.984375 10.453125 37.984375 14.40625 
Q 37.984375 18.0625 35.515625 20.015625 
Q 33.0625 21.96875 24.703125 23.78125 
L 21.578125 24.515625 
Q 13.234375 26.265625 9.515625 29.90625 
Q 5.8125 33.546875 5.8125 39.890625 
Q 5.8125 47.609375 11.28125 51.796875 
Q 16.75 56 26.8125 56 
Q 31.78125 56 36.171875 55.265625 
Q 40.578125 54.546875 44.28125 53.078125 
z
" id="DejaVuSans-73"/>
      <path d="M 8.5 21.578125 
L 8.5 54.6875 
L 17.484375 54.6875 
L 17.484375 21.921875 
Q 17.484375 14.15625 20.5 10.265625 
Q 23.53125 6.390625 29.59375 6.390625 
Q 36.859375 6.390625 41.078125 11.03125 
Q 45.3125 15.671875 45.3125 23.6875 
L 45.3125 54.6875 
L 54.296875 54.6875 
L 54.296875 0 
L 45.3125 0 
L 45.3125 8.40625 
Q 42.046875 3.421875 37.71875 1 
Q 33.40625 -1.421875 27.6875 -1.421875 
Q 18.265625 -1.421875 13.375 4.4375 
Q 8.5 10.296875 8.5 21.578125 
z
M 31.109375 56 
z
" id="DejaVuSans-75"/>
      <path d="M 48.6875 27.296875 
Q 48.6875 37.203125 44.609375 42.84375 
Q 40.53125 48.484375 33.40625 48.484375 
Q 26.265625 48.484375 22.1875 42.84375 
Q 18.109375 37.203125 18.109375 27.296875 
Q 18.109375 17.390625 22.1875 11.75 
Q 26.265625 6.109375 33.40625 6.109375 
Q 40.53125 6.109375 44.609375 11.75 
Q 48.6875 17.390625 48.6875 27.296875 
z
M 18.109375 46.390625 
Q 20.953125 51.265625 25.265625 53.625 
Q 29.59375 56 35.59375 56 
Q 45.5625 56 51.78125 48.09375 
Q 58.015625 40.1875 58.015625 27.296875 
Q 58.015625 14.40625 51.78125 6.484375 
Q 45.5625 -1.421875 35.59375 -1.421875 
Q 29.59375 -1.421875 25.265625 0.953125 
Q 20.953125 3.328125 18.109375 8.203125 
L 18.109375 0 
L 9.078125 0 
L 9.078125 75.984375 
L 18.109375 75.984375 
z
" id="DejaVuSans-62"/>
      <path d="M 18.3125 70.21875 
L 18.3125 54.6875 
L 36.8125 54.6875 
L 36.8125 47.703125 
L 18.3125 47.703125 
L 18.3125 18.015625 
Q 18.3125 11.328125 20.140625 9.421875 
Q 21.96875 7.515625 27.59375 7.515625 
L 36.8125 7.515625 
L 36.8125 0 
L 27.59375 0 
Q 17.1875 0 13.234375 3.875 
Q 9.28125 7.765625 9.28125 18.015625 
L 9.28125 47.703125 
L 2.6875 47.703125 
L 2.6875 54.6875 
L 9.28125 54.6875 
L 9.28125 70.21875 
z
" id="DejaVuSans-74"/>
      <path d="M 45.40625 46.390625 
L 45.40625 75.984375 
L 54.390625 75.984375 
L 54.390625 0 
L 45.40625 0 
L 45.40625 8.203125 
Q 42.578125 3.328125 38.25 0.953125 
Q 33.9375 -1.421875 27.875 -1.421875 
Q 17.96875 -1.421875 11.734375 6.484375 
Q 5.515625 14.40625 5.515625 27.296875 
Q 5.515625 40.1875 11.734375 48.09375 
Q 17.96875 56 27.875 56 
Q 33.9375 56 38.25 53.625 
Q 42.578125 51.265625 45.40625 46.390625 
z
M 14.796875 27.296875 
Q 14.796875 17.390625 18.875 11.75 
Q 22.953125 6.109375 30.078125 6.109375 
Q 37.203125 6.109375 41.296875 11.75 
Q 45.40625 17.390625 45.40625 27.296875 
Q 45.40625 37.203125 41.296875 42.84375 
Q 37.203125 48.484375 30.078125 48.484375 
Q 22.953125 48.484375 18.875 42.84375 
Q 14.796875 37.203125 14.796875 27.296875 
z
" id="DejaVuSans-64"/>
      <path d="M 18.109375 8.203125 
L 18.109375 -20.796875 
L 9.078125 -20.796875 
L 9.078125 54.6875 
L 18.109375 54.6875 
L 18.109375 46.390625 
Q 20.953125 51.265625 25.265625 53.625 
Q 29.59375 56 35.59375 56 
Q 45.5625 56 51.78125 48.09375 
Q 58.015625 40.1875 58.015625 27.296875 
Q 58.015625 14.40625 51.78125 6.484375 
Q 45.5625 -1.421875 35.59375 -1.421875 
Q 29.59375 -1.421875 25.265625 0.953125 
Q 20.953125 3.328125 18.109375 8.203125 
z
M 48.6875 27.296875 
Q 48.6875 37.203125 44.609375 42.84375 
Q 40.53125 48.484375 33.40625 48.484375 
Q 26.265625 48.484375 22.1875 42.84375 
Q 18.109375 37.203125 18.109375 27.296875 
Q 18.109375 17.390625 22.1875 11.75 
Q 26.265625 6.109375 33.40625 6.109375 
Q 40.53125 6.109375 44.609375 11.75 
Q 48.6875 17.390625 48.6875 27.296875 
z
" id="DejaVuSans-70"/>
      <path d="M 48.78125 52.59375 
L 48.78125 44.1875 
Q 44.96875 46.296875 41.140625 47.34375 
Q 37.3125 48.390625 33.40625 48.390625 
Q 24.65625 48.390625 19.8125 42.84375 
Q 14.984375 37.3125 14.984375 27.296875 
Q 14.984375 17.28125 19.8125 11.734375 
Q 24.65625 6.203125 33.40625 6.203125 
Q 37.3125 6.203125 41.140625 7.25 
Q 44.96875 8.296875 48.78125 10.40625 
L 48.78125 2.09375 
Q 45.015625 0.34375 40.984375 -0.53125 
Q 36.96875 -1.421875 32.421875 -1.421875 
Q 20.0625 -1.421875 12.78125 6.34375 
Q 5.515625 14.109375 5.515625 27.296875 
Q 5.515625 40.671875 12.859375 48.328125 
Q 20.21875 56 33.015625 56 
Q 37.15625 56 41.109375 55.140625 
Q 45.0625 54.296875 48.78125 52.59375 
z
" id="DejaVuSans-63"/>
     </defs>
     <g transform="translate(496.492188 154.838437)scale(0.1 -0.1)">
      <use xlink:href="#DejaVuSans-6e"/>
      <use x="63.378906" xlink:href="#DejaVuSans-6f"/>
      <use x="124.560547" xlink:href="#DejaVuSans-20"/>
      <use x="156.347656" xlink:href="#DejaVuSans-73"/>
      <use x="208.447266" xlink:href="#DejaVuSans-75"/>
      <use x="271.826172" xlink:href="#DejaVuSans-62"/>
      <use x="335.302734" xlink:href="#DejaVuSans-73"/>
      <use x="387.402344" xlink:href="#DejaVuSans-74"/>
      <use x="426.611328" xlink:href="#DejaVuSans-72"/>
      <use x="467.724609" xlink:href="#DejaVuSans-61"/>
      <use x="529.003906" xlink:href="#DejaVuSans-74"/>
      <use x="568.212891" xlink:href="#DejaVuSans-65"/>
      <use x="629.736328" xlink:href="#DejaVuSans-20"/>
      <use x="661.523438" xlink:href="#DejaVuSans-64"/>
      <use x="725" xlink:href="#DejaVuSans-65"/>
      <use x="786.523438" xlink:href="#DejaVuSans-70"/>
      <use x="850" xlink:href="#DejaVuSans-65"/>
      <use x="911.523438" xlink:href="#DejaVuSans-6e"/>
      <use x="974.902344" xlink:href="#DejaVuSans-64"/>
      <use x="1038.378906" xlink:href="#DejaVuSans-65"/>
      <use x="1099.902344" xlink:href="#DejaVuSans-6e"/>
      <use x="1163.28125" xlink:href="#DejaVuSans-63"/>
      <use x="1218.261719" xlink:href="#DejaVuSans-65"/>
     </g>
    </g>
   </g>
  </g>
 </g>
 <defs>
  <clipPath id="p1f7eb6120e">
   <rect height="921.6" width="921.6" x="0" y="230.4"/>
  </clipPath>
 </defs>
</svg>
