<?xml version="1.0" encoding="utf-8" standalone="no"?>
<!DOCTYPE svg PUBLIC "-//W3C//DTD SVG 1.1//EN"
  "http://www.w3.org/Graphics/SVG/1.1/DTD/svg11.dtd">
<!-- Created with matplotlib (http://matplotlib.org/) -->
<svg height="216pt" version="1.1" viewBox="0 0 216 216" width="216pt" xmlns="http://www.w3.org/2000/svg" xmlns:xlink="http://www.w3.org/1999/xlink">
 <defs>
  <style type="text/css">
*{stroke-linecap:butt;stroke-linejoin:round;}
  </style>
 </defs>
 <g id="figure_1">
  <g id="patch_1">
   <path d="M 0 216 
L 216 216 
L 216 0 
L 0 0 
z
" style="fill:none;"/>
  </g>
  <g id="axes_1">
   <g id="patch_2">
    <path clip-path="url(#p718aad5491)" d="M 40.392 115.7328 
C 42.1678 115.7328 43.871107 115.031819 45.126787 113.78424 
C 46.382467 112.536661 47.088 110.844343 47.088 109.08 
C 47.088 107.315657 46.382467 105.623339 45.126787 104.37576 
C 43.871107 103.128181 42.1678 102.4272 40.392 102.4272 
C 38.6162 102.4272 36.912893 103.128181 35.657213 104.37576 
C 34.401533 105.623339 33.696 107.315657 33.696 109.08 
C 33.696 110.844343 34.401533 112.536661 35.657213 113.78424 
C 36.912893 115.031819 38.6162 115.7328 40.392 115.7328 
z
" style="fill:#0000ff;opacity:0.3;stroke:#0000ff;stroke-linejoin:miter;"/>
   </g>
   <g id="patch_3">
    <path clip-path="url(#p718aad5491)" d="M 27.545026 98.425777 
Q 30.141051 101.718008 32.737075 105.010238 
Q 28.545676 105.11172 24.354277 105.213201 
z
" style="fill:#0000ff;opacity:0.5;stroke:#0000ff;stroke-linecap:round;"/>
   </g>
   <g id="patch_4">
    <path clip-path="url(#p718aad5491)" d="M 38.677802 113.348179 
Q 34.52533 113.927058 30.372858 114.505937 
Q 32.401238 110.836632 34.429618 107.167327 
z
" style="fill:#0000ff;opacity:0.5;stroke:#0000ff;stroke-linecap:round;"/>
   </g>
   <g id="patch_5">
    <path clip-path="url(#p718aad5491)" d="M 60.984736 66.33828 
C 62.760536 66.33828 64.463843 65.637299 65.719523 64.38972 
C 66.975204 63.142141 67.680736 61.449823 67.680736 59.68548 
C 67.680736 57.921137 66.975204 56.228819 65.719523 54.98124 
C 64.463843 53.733661 62.760536 53.03268 60.984736 53.03268 
C 59.208936 53.03268 57.50563 53.733661 56.249949 54.98124 
C 54.994269 56.228819 54.288736 57.921137 54.288736 59.68548 
C 54.288736 61.449823 54.994269 63.142141 56.249949 64.38972 
C 57.50563 65.637299 59.208936 66.33828 60.984736 66.33828 
z
" style="fill:#0000ff;opacity:0.3;stroke:#0000ff;stroke-linejoin:miter;"/>
   </g>
   <g id="patch_6">
    <path clip-path="url(#p718aad5491)" d="M 59.465926 43.096778 
Q 58.96715 47.259632 58.468374 51.422485 
Q 55.437357 48.525752 52.40634 45.629019 
z
" style="fill:#0000ff;opacity:0.5;stroke:#0000ff;stroke-linecap:round;"/>
   </g>
   <g id="patch_7">
    <path clip-path="url(#p718aad5491)" d="M 56.751557 61.507874 
Q 53.395281 58.995198 50.039006 56.482522 
Q 54.062912 55.305108 58.086818 54.127693 
z
" style="fill:#0000ff;opacity:0.5;stroke:#0000ff;stroke-linecap:round;"/>
   </g>
   <g id="patch_8">
    <path clip-path="url(#p718aad5491)" d="M 110.7 45.8784 
C 112.4758 45.8784 114.179107 45.177419 115.434787 43.92984 
C 116.690467 42.682261 117.396 40.989943 117.396 39.2256 
C 117.396 37.461257 116.690467 35.768939 115.434787 34.52136 
C 114.179107 33.273781 112.4758 32.5728 110.7 32.5728 
C 108.9242 32.5728 107.220893 33.273781 105.965213 34.52136 
C 104.709533 35.768939 104.004 37.461257 104.004 39.2256 
C 104.004 40.989943 104.709533 42.682261 105.965213 43.92984 
C 107.220893 45.177419 108.9242 45.8784 110.7 45.8784 
z
" style="fill:#0000ff;opacity:0.3;stroke:#0000ff;stroke-linejoin:miter;"/>
   </g>
   <g id="patch_9">
    <path clip-path="url(#p718aad5491)" d="M 121.417515 26.459933 
Q 118.109801 29.0362 114.802086 31.612466 
Q 114.725702 27.420535 114.649317 23.228603 
z
" style="fill:#0000ff;opacity:0.5;stroke:#0000ff;stroke-linecap:round;"/>
   </g>
   <g id="patch_10">
    <path clip-path="url(#p718aad5491)" d="M 106.440491 37.573363 
Q 105.83993 33.423971 105.239369 29.274579 
Q 108.919219 31.283766 112.599069 33.292952 
z
" style="fill:#0000ff;opacity:0.5;stroke:#0000ff;stroke-linecap:round;"/>
   </g>
   <g id="patch_11">
    <path clip-path="url(#p718aad5491)" d="M 160.415264 66.33828 
C 162.191064 66.33828 163.89437 65.637299 165.150051 64.38972 
C 166.405731 63.142141 167.111264 61.449823 167.111264 59.68548 
C 167.111264 57.921137 166.405731 56.228819 165.150051 54.98124 
C 163.89437 53.733661 162.191064 53.03268 160.415264 53.03268 
C 158.639464 53.03268 156.936157 53.733661 155.680477 54.98124 
C 154.424796 56.228819 153.719264 57.921137 153.719264 59.68548 
C 153.719264 61.449823 154.424796 63.142141 155.680477 64.38972 
C 156.936157 65.637299 158.639464 66.33828 160.415264 66.33828 
z
" style="fill:#0000ff;opacity:0.3;stroke:#0000ff;stroke-linejoin:miter;"/>
   </g>
   <g id="patch_12">
    <path clip-path="url(#p718aad5491)" d="M 158.586347 55.510059 
Q 161.110603 52.162485 163.63486 48.814911 
Q 164.798365 52.842861 165.961871 56.87081 
z
" style="fill:#0000ff;opacity:0.5;stroke:#0000ff;stroke-linecap:round;"/>
   </g>
   <g id="patch_13">
    <path clip-path="url(#p718aad5491)" d="M 181.008 115.7328 
C 182.7838 115.7328 184.487107 115.031819 185.742787 113.78424 
C 186.998467 112.536661 187.704 110.844343 187.704 109.08 
C 187.704 107.315657 186.998467 105.623339 185.742787 104.37576 
C 184.487107 103.128181 182.7838 102.4272 181.008 102.4272 
C 179.2322 102.4272 177.528893 103.128181 176.273213 104.37576 
C 175.017533 105.623339 174.312 107.315657 174.312 109.08 
C 174.312 110.844343 175.017533 112.536661 176.273213 113.78424 
C 177.528893 115.031819 179.2322 115.7328 181.008 115.7328 
z
" style="fill:#0000ff;opacity:0.3;stroke:#0000ff;stroke-linejoin:miter;"/>
   </g>
   <g id="patch_14">
    <path clip-path="url(#p718aad5491)" d="M 182.722198 104.811821 
Q 186.87467 104.232942 191.027142 103.654063 
Q 188.998762 107.323368 186.970382 110.992673 
z
" style="fill:#0000ff;opacity:0.5;stroke:#0000ff;stroke-linecap:round;"/>
   </g>
   <g id="patch_15">
    <path clip-path="url(#p718aad5491)" d="M 160.415264 165.12732 
C 162.191064 165.12732 163.89437 164.426339 165.150051 163.17876 
C 166.405731 161.931181 167.111264 160.238863 167.111264 158.47452 
C 167.111264 156.710177 166.405731 155.017859 165.150051 153.77028 
C 163.89437 152.522701 162.191064 151.82172 160.415264 151.82172 
C 158.639464 151.82172 156.936157 152.522701 155.680477 153.77028 
C 154.424796 155.017859 153.719264 156.710177 153.719264 158.47452 
C 153.719264 160.238863 154.424796 161.931181 155.680477 163.17876 
C 156.936157 164.426339 158.639464 165.12732 160.415264 165.12732 
z
" style="fill:#0000ff;opacity:0.3;stroke:#0000ff;stroke-linejoin:miter;"/>
   </g>
   <g id="patch_16">
    <path clip-path="url(#p718aad5491)" d="M 164.648443 156.652126 
Q 168.004719 159.164802 171.360994 161.677478 
Q 167.337088 162.854892 163.313182 164.032307 
z
" style="fill:#0000ff;opacity:0.5;stroke:#0000ff;stroke-linecap:round;"/>
   </g>
   <g id="patch_17">
    <path clip-path="url(#p718aad5491)" d="M 110.7 185.5872 
C 112.4758 185.5872 114.179107 184.886219 115.434787 183.63864 
C 116.690467 182.391061 117.396 180.698743 117.396 178.9344 
C 117.396 177.170057 116.690467 175.477739 115.434787 174.23016 
C 114.179107 172.982581 112.4758 172.2816 110.7 172.2816 
C 108.9242 172.2816 107.220893 172.982581 105.965213 174.23016 
C 104.709533 175.477739 104.004 177.170057 104.004 178.9344 
C 104.004 180.698743 104.709533 182.391061 105.965213 183.63864 
C 107.220893 184.886219 108.9242 185.5872 110.7 185.5872 
z
" style="fill:#0000ff;opacity:0.3;stroke:#0000ff;stroke-linejoin:miter;"/>
   </g>
   <g id="patch_18">
    <path clip-path="url(#p718aad5491)" d="M 114.959509 180.586637 
Q 115.56007 184.736029 116.160631 188.885421 
Q 112.480781 186.876234 108.800931 184.867048 
z
" style="fill:#0000ff;opacity:0.5;stroke:#0000ff;stroke-linecap:round;"/>
   </g>
   <g id="patch_19">
    <path clip-path="url(#p718aad5491)" d="M 60.984736 165.12732 
C 62.760536 165.12732 64.463843 164.426339 65.719523 163.17876 
C 66.975204 161.931181 67.680736 160.238863 67.680736 158.47452 
C 67.680736 156.710177 66.975204 155.017859 65.719523 153.77028 
C 64.463843 152.522701 62.760536 151.82172 60.984736 151.82172 
C 59.208936 151.82172 57.50563 152.522701 56.249949 153.77028 
C 54.994269 155.017859 54.288736 156.710177 54.288736 158.47452 
C 54.288736 160.238863 54.994269 161.931181 56.249949 163.17876 
C 57.50563 164.426339 59.208936 165.12732 60.984736 165.12732 
z
" style="fill:#0000ff;opacity:0.3;stroke:#0000ff;stroke-linejoin:miter;"/>
   </g>
   <g id="patch_20">
    <path clip-path="url(#p718aad5491)" d="M 62.813653 162.649941 
Q 60.289397 165.997515 57.76514 169.345089 
Q 56.601635 165.317139 55.438129 161.28919 
z
" style="fill:#0000ff;opacity:0.5;stroke:#0000ff;stroke-linecap:round;"/>
   </g>
   <g id="patch_21">
    <path clip-path="url(#p718aad5491)" d="M 48.566195 105.667887 
Q 100.856587 95.121597 145.95456 67.077812 
L 144.766406 65.167108 
Q 148.895733 64.807612 153.0675 64.3125 
Q 150.953964 67.942964 148.726921 71.536121 
L 147.538767 69.625417 
Q 101.980749 97.955276 49.159313 108.608671 
L 48.566195 105.667887 
z
" style="fill:#0000ff;opacity:0.5;stroke:#0000ff;stroke-linecap:round;"/>
   </g>
   <g id="patch_22">
    <path clip-path="url(#p718aad5491)" d="M 49.254806 109.035664 
Q 107.026272 120.257976 164.805123 110.421516 
L 164.427509 108.20343 
Q 168.391702 109.43077 172.43894 110.557959 
Q 169.104069 113.112969 165.686223 115.597051 
L 165.308609 113.378965 
Q 106.990842 123.307171 48.682739 111.980616 
L 49.254806 109.035664 
z
" style="fill:#0000ff;opacity:0.5;stroke:#0000ff;stroke-linecap:round;"/>
   </g>
   <g id="patch_23">
    <path clip-path="url(#p718aad5491)" d="M 69.183959 63.011702 
Q 113.750329 92.325913 165.523659 104.148704 
L 166.024568 101.95517 
Q 169.210769 104.606318 172.522571 107.191007 
Q 168.465906 108.282175 164.354873 109.26695 
L 164.855782 107.073416 
Q 112.554309 95.13002 67.535336 65.518102 
L 69.183959 63.011702 
z
" style="fill:#0000ff;opacity:0.5;stroke:#0000ff;stroke-linecap:round;"/>
   </g>
   <g id="patch_24">
    <path clip-path="url(#p718aad5491)" d="M 118.891879 42.539945 
Q 131.188429 50.468902 145.075299 54.566905 
L 145.712123 52.408906 
Q 148.630281 55.227524 151.912979 57.867249 
Q 147.829242 58.895943 143.589378 59.602234 
L 144.226202 57.444235 
Q 129.925391 53.224079 117.266121 45.061237 
L 118.891879 42.539945 
z
" style="fill:#0000ff;opacity:0.5;stroke:#0000ff;stroke-linecap:round;"/>
   </g>
   <g id="patch_25">
    <path clip-path="url(#p718aad5491)" d="M 116.995985 45.419665 
Q 138.271042 76.572071 168.62402 98.601291 
L 169.945613 96.780332 
Q 171.820321 100.458359 173.886954 104.119188 
Q 169.719911 103.566198 165.540302 102.850195 
L 166.861895 101.029236 
Q 136.087388 78.694083 114.518591 47.111563 
L 116.995985 45.419665 
z
" style="fill:#0000ff;opacity:0.5;stroke:#0000ff;stroke-linecap:round;"/>
   </g>
   <g id="patch_26">
    <path clip-path="url(#p718aad5491)" d="M 160.455594 68.501699 
Q 153.37886 105.410657 159.116944 142.32928 
L 161.34025 141.983722 
Q 160.051711 145.90528 158.911093 149.951271 
Q 156.366595 146.605532 153.929229 143.135581 
L 156.152535 142.790023 
Q 150.334501 105.357003 157.509262 67.936784 
L 160.455594 68.501699 
z
" style="fill:#0000ff;opacity:0.5;stroke:#0000ff;stroke-linecap:round;"/>
   </g>
   <g id="patch_27">
    <path clip-path="url(#p718aad5491)" d="M 177.659263 117.236495 
Q 169.727975 129.415569 165.587147 143.188654 
L 167.741872 143.836465 
Q 164.907647 146.74271 162.25174 150.016425 
Q 161.242974 145.924455 160.559454 141.677096 
L 162.71418 142.324907 
Q 166.979013 128.13936 175.145337 115.59937 
L 177.659263 117.236495 
z
" style="fill:#0000ff;opacity:0.5;stroke:#0000ff;stroke-linecap:round;"/>
   </g>
   <g id="patch_28">
    <path clip-path="url(#p718aad5491)" d="M 174.763708 115.345301 
Q 143.473901 136.418518 121.248435 166.628619 
L 123.060801 167.961971 
Q 119.370693 169.812868 115.696541 171.855797 
Q 116.276514 167.692386 117.019579 163.517465 
L 118.831946 164.850817 
Q 141.366066 134.221176 173.08788 112.857008 
L 174.763708 115.345301 
z
" style="fill:#0000ff;opacity:0.5;stroke:#0000ff;stroke-linecap:round;"/>
   </g>
   <g id="patch_29">
    <path clip-path="url(#p718aad5491)" d="M 152.254588 161.889911 
Q 137.938565 164.913032 125.189441 171.776894 
L 126.256039 173.758023 
Q 122.199139 173.809944 118.009216 174.245533 
Q 120.186047 170.640335 122.700712 167.154262 
L 123.76731 169.13539 
Q 136.896448 162.066936 151.634747 158.954644 
L 152.254588 161.889911 
z
" style="fill:#0000ff;opacity:0.5;stroke:#0000ff;stroke-linecap:round;"/>
   </g>
   <g id="patch_30">
    <path clip-path="url(#p718aad5491)" d="M 151.554096 158.521135 
Q 114.367185 151.389723 77.170652 157.182311 
L 77.51687 159.405515 
Q 73.594316 158.118243 69.548144 156.977969 
Q 72.893778 154.433195 76.362811 151.994837 
L 76.709029 154.21804 
Q 114.420443 148.34527 152.119116 155.574824 
L 151.554096 158.521135 
z
" style="fill:#0000ff;opacity:0.5;stroke:#0000ff;stroke-linecap:round;"/>
   </g>
   <g id="patch_31">
    <path clip-path="url(#p718aad5491)" d="M 118.860675 175.519009 
Q 133.176698 172.495888 145.925823 165.632025 
L 144.859225 163.650897 
Q 148.916125 163.598976 153.106047 163.163387 
Q 150.929217 166.768585 148.414551 170.254658 
L 147.347953 168.27353 
Q 134.218815 175.341984 119.480517 178.454276 
L 118.860675 175.519009 
z
" style="fill:#0000ff;opacity:0.5;stroke:#0000ff;stroke-linecap:round;"/>
   </g>
   <g id="patch_32">
    <path clip-path="url(#p718aad5491)" d="M 102.508121 175.620055 
Q 90.211571 167.691098 76.324701 163.593095 
L 75.687877 165.751094 
Q 72.769719 162.932476 69.487021 160.292751 
Q 73.570758 159.264057 77.810622 158.557766 
L 77.173798 160.715765 
Q 91.474609 164.935921 104.133879 173.098763 
L 102.508121 175.620055 
z
" style="fill:#0000ff;opacity:0.5;stroke:#0000ff;stroke-linecap:round;"/>
   </g>
   <g id="patch_33">
    <path clip-path="url(#p718aad5491)" d="M 69.845904 158.427904 
Q 107.032815 165.559316 144.229348 159.766729 
L 143.88313 157.543525 
Q 147.805684 158.830797 151.851856 159.97107 
Q 148.506222 162.515845 145.037189 164.954203 
L 144.690971 162.731 
Q 106.979557 168.60377 69.280884 161.374216 
L 69.845904 158.427904 
z
" style="fill:#0000ff;opacity:0.5;stroke:#0000ff;stroke-linecap:round;"/>
   </g>
   <g id="text_1">
    <!-- $x_{1}$ -->
    <defs>
     <path d="M 60.015625 54.6875 
L 34.90625 27.875 
L 50.296875 0 
L 39.984375 0 
L 28.421875 21.6875 
L 8.296875 0 
L -2.59375 0 
L 24.3125 28.8125 
L 10.015625 54.6875 
L 20.3125 54.6875 
L 30.8125 34.90625 
L 49.125 54.6875 
z
" id="DejaVuSans-Oblique-78"/>
     <path d="M 12.40625 8.296875 
L 28.515625 8.296875 
L 28.515625 63.921875 
L 10.984375 60.40625 
L 10.984375 69.390625 
L 28.421875 72.90625 
L 38.28125 72.90625 
L 38.28125 8.296875 
L 54.390625 8.296875 
L 54.390625 0 
L 12.40625 0 
z
" id="DejaVuSans-31"/>
    </defs>
    <g transform="translate(31.832 113.495)scale(0.16 -0.16)">
     <use transform="translate(0 0.3125)" xlink:href="#DejaVuSans-Oblique-78"/>
     <use transform="translate(59.179688 -16.09375)scale(0.7)" xlink:href="#DejaVuSans-31"/>
    </g>
   </g>
   <g id="text_2">
    <!-- $x_{2}$ -->
    <defs>
     <path d="M 19.1875 8.296875 
L 53.609375 8.296875 
L 53.609375 0 
L 7.328125 0 
L 7.328125 8.296875 
Q 12.9375 14.109375 22.625 23.890625 
Q 32.328125 33.6875 34.8125 36.53125 
Q 39.546875 41.84375 41.421875 45.53125 
Q 43.3125 49.21875 43.3125 52.78125 
Q 43.3125 58.59375 39.234375 62.25 
Q 35.15625 65.921875 28.609375 65.921875 
Q 23.96875 65.921875 18.8125 64.3125 
Q 13.671875 62.703125 7.8125 59.421875 
L 7.8125 69.390625 
Q 13.765625 71.78125 18.9375 73 
Q 24.125 74.21875 28.421875 74.21875 
Q 39.75 74.21875 46.484375 68.546875 
Q 53.21875 62.890625 53.21875 53.421875 
Q 53.21875 48.921875 51.53125 44.890625 
Q 49.859375 40.875 45.40625 35.40625 
Q 44.1875 33.984375 37.640625 27.21875 
Q 31.109375 20.453125 19.1875 8.296875 
z
" id="DejaVuSans-32"/>
    </defs>
    <g transform="translate(52.424736 64.10048)scale(0.16 -0.16)">
     <use transform="translate(0 0.3125)" xlink:href="#DejaVuSans-Oblique-78"/>
     <use transform="translate(59.179688 -16.09375)scale(0.7)" xlink:href="#DejaVuSans-32"/>
    </g>
   </g>
   <g id="text_3">
    <!-- $x_{3}$ -->
    <defs>
     <path d="M 40.578125 39.3125 
Q 47.65625 37.796875 51.625 33 
Q 55.609375 28.21875 55.609375 21.1875 
Q 55.609375 10.40625 48.1875 4.484375 
Q 40.765625 -1.421875 27.09375 -1.421875 
Q 22.515625 -1.421875 17.65625 -0.515625 
Q 12.796875 0.390625 7.625 2.203125 
L 7.625 11.71875 
Q 11.71875 9.328125 16.59375 8.109375 
Q 21.484375 6.890625 26.8125 6.890625 
Q 36.078125 6.890625 40.9375 10.546875 
Q 45.796875 14.203125 45.796875 21.1875 
Q 45.796875 27.640625 41.28125 31.265625 
Q 36.765625 34.90625 28.71875 34.90625 
L 20.21875 34.90625 
L 20.21875 43.015625 
L 29.109375 43.015625 
Q 36.375 43.015625 40.234375 45.921875 
Q 44.09375 48.828125 44.09375 54.296875 
Q 44.09375 59.90625 40.109375 62.90625 
Q 36.140625 65.921875 28.71875 65.921875 
Q 24.65625 65.921875 20.015625 65.03125 
Q 15.375 64.15625 9.8125 62.3125 
L 9.8125 71.09375 
Q 15.4375 72.65625 20.34375 73.4375 
Q 25.25 74.21875 29.59375 74.21875 
Q 40.828125 74.21875 47.359375 69.109375 
Q 53.90625 64.015625 53.90625 55.328125 
Q 53.90625 49.265625 50.4375 45.09375 
Q 46.96875 40.921875 40.578125 39.3125 
z
" id="DejaVuSans-33"/>
    </defs>
    <g transform="translate(102.14 43.6406)scale(0.16 -0.16)">
     <use transform="translate(0 0.3125)" xlink:href="#DejaVuSans-Oblique-78"/>
     <use transform="translate(59.179688 -16.09375)scale(0.7)" xlink:href="#DejaVuSans-33"/>
    </g>
   </g>
   <g id="text_4">
    <!-- $x_{4}$ -->
    <defs>
     <path d="M 37.796875 64.3125 
L 12.890625 25.390625 
L 37.796875 25.390625 
z
M 35.203125 72.90625 
L 47.609375 72.90625 
L 47.609375 25.390625 
L 58.015625 25.390625 
L 58.015625 17.1875 
L 47.609375 17.1875 
L 47.609375 0 
L 37.796875 0 
L 37.796875 17.1875 
L 4.890625 17.1875 
L 4.890625 26.703125 
z
" id="DejaVuSans-34"/>
    </defs>
    <g transform="translate(151.855264 64.10048)scale(0.16 -0.16)">
     <use transform="translate(0 0.3125)" xlink:href="#DejaVuSans-Oblique-78"/>
     <use transform="translate(59.179688 -16.09375)scale(0.7)" xlink:href="#DejaVuSans-34"/>
    </g>
   </g>
   <g id="text_5">
    <!-- $x_{5}$ -->
    <defs>
     <path d="M 10.796875 72.90625 
L 49.515625 72.90625 
L 49.515625 64.59375 
L 19.828125 64.59375 
L 19.828125 46.734375 
Q 21.96875 47.46875 24.109375 47.828125 
Q 26.265625 48.1875 28.421875 48.1875 
Q 40.625 48.1875 47.75 41.5 
Q 54.890625 34.8125 54.890625 23.390625 
Q 54.890625 11.625 47.5625 5.09375 
Q 40.234375 -1.421875 26.90625 -1.421875 
Q 22.3125 -1.421875 17.546875 -0.640625 
Q 12.796875 0.140625 7.71875 1.703125 
L 7.71875 11.625 
Q 12.109375 9.234375 16.796875 8.0625 
Q 21.484375 6.890625 26.703125 6.890625 
Q 35.15625 6.890625 40.078125 11.328125 
Q 45.015625 15.765625 45.015625 23.390625 
Q 45.015625 31 40.078125 35.4375 
Q 35.15625 39.890625 26.703125 39.890625 
Q 22.75 39.890625 18.8125 39.015625 
Q 14.890625 38.140625 10.796875 36.28125 
z
" id="DejaVuSans-35"/>
    </defs>
    <g transform="translate(172.448 113.495)scale(0.16 -0.16)">
     <use transform="translate(0 0.3125)" xlink:href="#DejaVuSans-Oblique-78"/>
     <use transform="translate(59.179688 -16.09375)scale(0.7)" xlink:href="#DejaVuSans-35"/>
    </g>
   </g>
   <g id="text_6">
    <!-- $x_{6}$ -->
    <defs>
     <path d="M 33.015625 40.375 
Q 26.375 40.375 22.484375 35.828125 
Q 18.609375 31.296875 18.609375 23.390625 
Q 18.609375 15.53125 22.484375 10.953125 
Q 26.375 6.390625 33.015625 6.390625 
Q 39.65625 6.390625 43.53125 10.953125 
Q 47.40625 15.53125 47.40625 23.390625 
Q 47.40625 31.296875 43.53125 35.828125 
Q 39.65625 40.375 33.015625 40.375 
z
M 52.59375 71.296875 
L 52.59375 62.3125 
Q 48.875 64.0625 45.09375 64.984375 
Q 41.3125 65.921875 37.59375 65.921875 
Q 27.828125 65.921875 22.671875 59.328125 
Q 17.53125 52.734375 16.796875 39.40625 
Q 19.671875 43.65625 24.015625 45.921875 
Q 28.375 48.1875 33.59375 48.1875 
Q 44.578125 48.1875 50.953125 41.515625 
Q 57.328125 34.859375 57.328125 23.390625 
Q 57.328125 12.15625 50.6875 5.359375 
Q 44.046875 -1.421875 33.015625 -1.421875 
Q 20.359375 -1.421875 13.671875 8.265625 
Q 6.984375 17.96875 6.984375 36.375 
Q 6.984375 53.65625 15.1875 63.9375 
Q 23.390625 74.21875 37.203125 74.21875 
Q 40.921875 74.21875 44.703125 73.484375 
Q 48.484375 72.75 52.59375 71.296875 
z
" id="DejaVuSans-36"/>
    </defs>
    <g transform="translate(151.855264 162.88952)scale(0.16 -0.16)">
     <use transform="translate(0 0.3125)" xlink:href="#DejaVuSans-Oblique-78"/>
     <use transform="translate(59.179688 -16.09375)scale(0.7)" xlink:href="#DejaVuSans-36"/>
    </g>
   </g>
   <g id="text_7">
    <!-- $x_{7}$ -->
    <defs>
     <path d="M 8.203125 72.90625 
L 55.078125 72.90625 
L 55.078125 68.703125 
L 28.609375 0 
L 18.3125 0 
L 43.21875 64.59375 
L 8.203125 64.59375 
z
" id="DejaVuSans-37"/>
    </defs>
    <g transform="translate(102.14 183.3494)scale(0.16 -0.16)">
     <use transform="translate(0 0.3125)" xlink:href="#DejaVuSans-Oblique-78"/>
     <use transform="translate(59.179688 -16.09375)scale(0.7)" xlink:href="#DejaVuSans-37"/>
    </g>
   </g>
   <g id="text_8">
    <!-- $x_{8}$ -->
    <defs>
     <path d="M 31.78125 34.625 
Q 24.75 34.625 20.71875 30.859375 
Q 16.703125 27.09375 16.703125 20.515625 
Q 16.703125 13.921875 20.71875 10.15625 
Q 24.75 6.390625 31.78125 6.390625 
Q 38.8125 6.390625 42.859375 10.171875 
Q 46.921875 13.96875 46.921875 20.515625 
Q 46.921875 27.09375 42.890625 30.859375 
Q 38.875 34.625 31.78125 34.625 
z
M 21.921875 38.8125 
Q 15.578125 40.375 12.03125 44.71875 
Q 8.5 49.078125 8.5 55.328125 
Q 8.5 64.0625 14.71875 69.140625 
Q 20.953125 74.21875 31.78125 74.21875 
Q 42.671875 74.21875 48.875 69.140625 
Q 55.078125 64.0625 55.078125 55.328125 
Q 55.078125 49.078125 51.53125 44.71875 
Q 48 40.375 41.703125 38.8125 
Q 48.828125 37.15625 52.796875 32.3125 
Q 56.78125 27.484375 56.78125 20.515625 
Q 56.78125 9.90625 50.3125 4.234375 
Q 43.84375 -1.421875 31.78125 -1.421875 
Q 19.734375 -1.421875 13.25 4.234375 
Q 6.78125 9.90625 6.78125 20.515625 
Q 6.78125 27.484375 10.78125 32.3125 
Q 14.796875 37.15625 21.921875 38.8125 
z
M 18.3125 54.390625 
Q 18.3125 48.734375 21.84375 45.5625 
Q 25.390625 42.390625 31.78125 42.390625 
Q 38.140625 42.390625 41.71875 45.5625 
Q 45.3125 48.734375 45.3125 54.390625 
Q 45.3125 60.0625 41.71875 63.234375 
Q 38.140625 66.40625 31.78125 66.40625 
Q 25.390625 66.40625 21.84375 63.234375 
Q 18.3125 60.0625 18.3125 54.390625 
z
" id="DejaVuSans-38"/>
    </defs>
    <g transform="translate(52.424736 162.88952)scale(0.16 -0.16)">
     <use transform="translate(0 0.3125)" xlink:href="#DejaVuSans-Oblique-78"/>
     <use transform="translate(59.179688 -16.09375)scale(0.7)" xlink:href="#DejaVuSans-38"/>
    </g>
   </g>
  </g>
 </g>
 <defs>
  <clipPath id="p718aad5491">
   <rect height="166.32" width="167.4" x="27" y="25.92"/>
  </clipPath>
 </defs>
</svg>
