<?xml version="1.0" encoding="utf-8" standalone="no"?>
<!DOCTYPE svg PUBLIC "-//W3C//DTD SVG 1.1//EN"
  "http://www.w3.org/Graphics/SVG/1.1/DTD/svg11.dtd">
<!-- Created with matplotlib (http://matplotlib.org/) -->
<svg height="1728pt" version="1.1" viewBox="0 0 1728 1728" width="1728pt" xmlns="http://www.w3.org/2000/svg" xmlns:xlink="http://www.w3.org/1999/xlink">
 <defs>
  <style type="text/css">
*{stroke-linecap:butt;stroke-linejoin:round;}
  </style>
 </defs>
 <g id="figure_1">
  <g id="patch_1">
   <path d="M 0 1728 
L 1728 1728 
L 1728 0 
L 0 0 
z
" style="fill:#ffffff;"/>
  </g>
  <g id="axes_1">
   <g id="patch_2">
    <path d="M 34.15625 403.31875 
L 211.5875 403.31875 
L 211.5875 225.8875 
L 34.15625 225.8875 
z
" style="fill:#ffffff;"/>
   </g>
   <g id="PathCollection_1">
    <defs>
     <path d="M 0 3.872983 
C 1.027127 3.872983 2.012324 3.464901 2.738613 2.738613 
C 3.464901 2.012324 3.872983 1.027127 3.872983 0 
C 3.872983 -1.027127 3.464901 -2.012324 2.738613 -2.738613 
C 2.012324 -3.464901 1.027127 -3.872983 0 -3.872983 
C -1.027127 -3.872983 -2.012324 -3.464901 -2.738613 -2.738613 
C -3.464901 -2.012324 -3.872983 -1.027127 -3.872983 0 
C -3.872983 1.027127 -3.464901 2.012324 -2.738613 2.738613 
C -2.012324 3.464901 -1.027127 3.872983 0 3.872983 
z
" id="md1b1659184" style="stroke:#1f77b4;"/>
    </defs>
    <g clip-path="url(#p8e06c808c0)">
     <use style="fill:#1f77b4;stroke:#1f77b4;" x="45.620997" xlink:href="#md1b1659184" y="237.373855"/>
    </g>
   </g>
   <g id="patch_3">
    <path clip-path="url(#p8e06c808c0)" d="M 121.997653 316.633975 
Q 123.795089 321.927294 125.592525 327.220613 
Q 120.279408 325.48257 114.966292 323.744528 
z
" style="fill:#1f77b4;stroke:#000000;stroke-linecap:round;"/>
   </g>
   <g id="matplotlib.axis_1">
    <g id="text_1">
     <!-- $x_{2}$ -->
     <defs>
      <path d="M 60.015625 54.6875 
L 34.90625 27.875 
L 50.296875 0 
L 39.984375 0 
L 28.421875 21.6875 
L 8.296875 0 
L -2.59375 0 
L 24.3125 28.8125 
L 10.015625 54.6875 
L 20.3125 54.6875 
L 30.8125 34.90625 
L 49.125 54.6875 
z
" id="DejaVuSans-Oblique-78"/>
      <path d="M 19.1875 8.296875 
L 53.609375 8.296875 
L 53.609375 0 
L 7.328125 0 
L 7.328125 8.296875 
Q 12.9375 14.109375 22.625 23.890625 
Q 32.328125 33.6875 34.8125 36.53125 
Q 39.546875 41.84375 41.421875 45.53125 
Q 43.3125 49.21875 43.3125 52.78125 
Q 43.3125 58.59375 39.234375 62.25 
Q 35.15625 65.921875 28.609375 65.921875 
Q 23.96875 65.921875 18.8125 64.3125 
Q 13.671875 62.703125 7.8125 59.421875 
L 7.8125 69.390625 
Q 13.765625 71.78125 18.9375 73 
Q 24.125 74.21875 28.421875 74.21875 
Q 39.75 74.21875 46.484375 68.546875 
Q 53.21875 62.890625 53.21875 53.421875 
Q 53.21875 48.921875 51.53125 44.890625 
Q 49.859375 40.875 45.40625 35.40625 
Q 44.1875 33.984375 37.640625 27.21875 
Q 31.109375 20.453125 19.1875 8.296875 
z
" id="DejaVuSans-32"/>
     </defs>
     <g transform="translate(112.171875 422.515625)scale(0.2 -0.2)">
      <use transform="translate(0 0.3125)" xlink:href="#DejaVuSans-Oblique-78"/>
      <use transform="translate(59.179688 -16.09375)scale(0.7)" xlink:href="#DejaVuSans-32"/>
     </g>
    </g>
   </g>
   <g id="matplotlib.axis_2">
    <g id="text_2">
     <!-- $x_{1}$ -->
     <defs>
      <path d="M 12.40625 8.296875 
L 28.515625 8.296875 
L 28.515625 63.921875 
L 10.984375 60.40625 
L 10.984375 69.390625 
L 28.421875 72.90625 
L 38.28125 72.90625 
L 38.28125 8.296875 
L 54.390625 8.296875 
L 54.390625 0 
L 12.40625 0 
z
" id="DejaVuSans-31"/>
     </defs>
     <g transform="translate(25.996875 325.303125)rotate(-90)scale(0.2 -0.2)">
      <use transform="translate(0 0.3125)" xlink:href="#DejaVuSans-Oblique-78"/>
      <use transform="translate(59.179688 -16.09375)scale(0.7)" xlink:href="#DejaVuSans-31"/>
     </g>
    </g>
   </g>
   <g id="line2d_1">
    <path clip-path="url(#p8e06c808c0)" d="M 45.620997 237.373855 
L 55.14736 249.314091 
L 64.667027 260.890323 
L 74.180002 272.113645 
L 83.68629 282.994817 
L 93.185896 293.54427 
L 102.678823 303.772115 
L 112.165078 313.688158 
L 122.434329 324.089696 
L 132.695759 334.148151 
L 142.949376 343.87484 
L 153.195184 353.280707 
L 163.43319 362.376333 
L 173.6634 371.17195 
L 183.885819 379.677455 
L 194.100454 387.902417 
L 203.522443 395.253693 
L 203.522443 395.253693 
" style="fill:none;stroke:#1f77b4;stroke-linecap:square;stroke-width:1.5;"/>
   </g>
   <g id="patch_4">
    <path d="M 34.15625 403.31875 
L 34.15625 225.8875 
" style="fill:none;stroke:#000000;stroke-linecap:square;stroke-linejoin:miter;stroke-width:0.8;"/>
   </g>
   <g id="patch_5">
    <path d="M 211.5875 403.31875 
L 211.5875 225.8875 
" style="fill:none;stroke:#000000;stroke-linecap:square;stroke-linejoin:miter;stroke-width:0.8;"/>
   </g>
   <g id="patch_6">
    <path d="M 34.15625 403.31875 
L 211.5875 403.31875 
" style="fill:none;stroke:#000000;stroke-linecap:square;stroke-linejoin:miter;stroke-width:0.8;"/>
   </g>
   <g id="patch_7">
    <path d="M 34.15625 225.8875 
L 211.5875 225.8875 
" style="fill:none;stroke:#000000;stroke-linecap:square;stroke-linejoin:miter;stroke-width:0.8;"/>
   </g>
  </g>
  <g id="axes_2">
   <g id="patch_8">
    <path d="M 34.15625 618.40625 
L 211.5875 618.40625 
L 211.5875 440.975 
L 34.15625 440.975 
z
" style="fill:#ffffff;"/>
   </g>
   <g id="PathCollection_2">
    <g clip-path="url(#p26a53e38c8)">
     <use style="fill:#1f77b4;stroke:#1f77b4;" x="45.620997" xlink:href="#md1b1659184" y="452.461355"/>
    </g>
   </g>
   <g id="patch_9">
    <path clip-path="url(#p26a53e38c8)" d="M 131.198214 531.704528 
Q 132.970499 537.006321 134.742784 542.308113 
Q 129.437979 540.544866 124.133174 538.781618 
z
" style="fill:#1f77b4;stroke:#000000;stroke-linecap:round;"/>
   </g>
   <g id="matplotlib.axis_3">
    <g id="text_3">
     <!-- $x_{3}$ -->
     <defs>
      <path d="M 40.578125 39.3125 
Q 47.65625 37.796875 51.625 33 
Q 55.609375 28.21875 55.609375 21.1875 
Q 55.609375 10.40625 48.1875 4.484375 
Q 40.765625 -1.421875 27.09375 -1.421875 
Q 22.515625 -1.421875 17.65625 -0.515625 
Q 12.796875 0.390625 7.625 2.203125 
L 7.625 11.71875 
Q 11.71875 9.328125 16.59375 8.109375 
Q 21.484375 6.890625 26.8125 6.890625 
Q 36.078125 6.890625 40.9375 10.546875 
Q 45.796875 14.203125 45.796875 21.1875 
Q 45.796875 27.640625 41.28125 31.265625 
Q 36.765625 34.90625 28.71875 34.90625 
L 20.21875 34.90625 
L 20.21875 43.015625 
L 29.109375 43.015625 
Q 36.375 43.015625 40.234375 45.921875 
Q 44.09375 48.828125 44.09375 54.296875 
Q 44.09375 59.90625 40.109375 62.90625 
Q 36.140625 65.921875 28.71875 65.921875 
Q 24.65625 65.921875 20.015625 65.03125 
Q 15.375 64.15625 9.8125 62.3125 
L 9.8125 71.09375 
Q 15.4375 72.65625 20.34375 73.4375 
Q 25.25 74.21875 29.59375 74.21875 
Q 40.828125 74.21875 47.359375 69.109375 
Q 53.90625 64.015625 53.90625 55.328125 
Q 53.90625 49.265625 50.4375 45.09375 
Q 46.96875 40.921875 40.578125 39.3125 
z
" id="DejaVuSans-33"/>
     </defs>
     <g transform="translate(112.171875 637.603125)scale(0.2 -0.2)">
      <use transform="translate(0 0.3125)" xlink:href="#DejaVuSans-Oblique-78"/>
      <use transform="translate(59.179688 -16.09375)scale(0.7)" xlink:href="#DejaVuSans-33"/>
     </g>
    </g>
   </g>
   <g id="matplotlib.axis_4">
    <g id="text_4">
     <!-- $x_{1}$ -->
     <g transform="translate(25.996875 540.390625)rotate(-90)scale(0.2 -0.2)">
      <use transform="translate(0 0.3125)" xlink:href="#DejaVuSans-Oblique-78"/>
      <use transform="translate(59.179688 -16.09375)scale(0.7)" xlink:href="#DejaVuSans-31"/>
     </g>
    </g>
   </g>
   <g id="line2d_2">
    <path clip-path="url(#p26a53e38c8)" d="M 45.620997 452.461355 
L 85.309082 492.68384 
L 122.827876 530.39869 
L 158.777546 566.225538 
L 192.838428 599.859074 
L 203.522443 610.341193 
L 203.522443 610.341193 
" style="fill:none;stroke:#1f77b4;stroke-linecap:square;stroke-width:1.5;"/>
   </g>
   <g id="patch_10">
    <path d="M 34.15625 618.40625 
L 34.15625 440.975 
" style="fill:none;stroke:#000000;stroke-linecap:square;stroke-linejoin:miter;stroke-width:0.8;"/>
   </g>
   <g id="patch_11">
    <path d="M 211.5875 618.40625 
L 211.5875 440.975 
" style="fill:none;stroke:#000000;stroke-linecap:square;stroke-linejoin:miter;stroke-width:0.8;"/>
   </g>
   <g id="patch_12">
    <path d="M 34.15625 618.40625 
L 211.5875 618.40625 
" style="fill:none;stroke:#000000;stroke-linecap:square;stroke-linejoin:miter;stroke-width:0.8;"/>
   </g>
   <g id="patch_13">
    <path d="M 34.15625 440.975 
L 211.5875 440.975 
" style="fill:none;stroke:#000000;stroke-linecap:square;stroke-linejoin:miter;stroke-width:0.8;"/>
   </g>
  </g>
  <g id="axes_3">
   <g id="patch_14">
    <path d="M 249.24375 618.40625 
L 426.675 618.40625 
L 426.675 440.975 
L 249.24375 440.975 
z
" style="fill:#ffffff;"/>
   </g>
   <g id="PathCollection_3">
    <g clip-path="url(#pad8155af08)">
     <use style="fill:#1f77b4;stroke:#1f77b4;" x="260.708497" xlink:href="#md1b1659184" y="606.919895"/>
    </g>
   </g>
   <g id="patch_15">
    <path clip-path="url(#pad8155af08)" d="M 339.240342 530.544437 
Q 344.535313 528.751874 349.830284 526.959311 
Q 348.087352 532.270826 346.344419 537.58234 
z
" style="fill:#1f77b4;stroke:#000000;stroke-linecap:round;"/>
   </g>
   <g id="matplotlib.axis_5">
    <g id="text_5">
     <!-- $x_{3}$ -->
     <g transform="translate(327.259375 637.603125)scale(0.2 -0.2)">
      <use transform="translate(0 0.3125)" xlink:href="#DejaVuSans-Oblique-78"/>
      <use transform="translate(59.179688 -16.09375)scale(0.7)" xlink:href="#DejaVuSans-33"/>
     </g>
    </g>
   </g>
   <g id="matplotlib.axis_6">
    <g id="text_6">
     <!-- $x_{2}$ -->
     <g transform="translate(241.084375 540.390625)rotate(-90)scale(0.2 -0.2)">
      <use transform="translate(0 0.3125)" xlink:href="#DejaVuSans-Oblique-78"/>
      <use transform="translate(59.179688 -16.09375)scale(0.7)" xlink:href="#DejaVuSans-32"/>
     </g>
    </g>
   </g>
   <g id="line2d_3">
    <path clip-path="url(#pad8155af08)" d="M 260.708497 606.919895 
L 272.457314 597.394836 
L 284.81065 587.083576 
L 296.78607 576.780169 
L 308.395134 566.484608 
L 319.64905 556.196888 
L 330.558684 545.917001 
L 341.134566 535.644943 
L 351.386908 525.380707 
L 361.325608 515.124287 
L 370.96026 504.875678 
L 380.300166 494.634873 
L 390.039236 483.615035 
L 399.457828 472.604234 
L 408.566487 461.602463 
L 417.375414 450.609713 
L 418.609943 449.040057 
L 418.609943 449.040057 
" style="fill:none;stroke:#1f77b4;stroke-linecap:square;stroke-width:1.5;"/>
   </g>
   <g id="patch_16">
    <path d="M 249.24375 618.40625 
L 249.24375 440.975 
" style="fill:none;stroke:#000000;stroke-linecap:square;stroke-linejoin:miter;stroke-width:0.8;"/>
   </g>
   <g id="patch_17">
    <path d="M 426.675 618.40625 
L 426.675 440.975 
" style="fill:none;stroke:#000000;stroke-linecap:square;stroke-linejoin:miter;stroke-width:0.8;"/>
   </g>
   <g id="patch_18">
    <path d="M 249.24375 618.40625 
L 426.675 618.40625 
" style="fill:none;stroke:#000000;stroke-linecap:square;stroke-linejoin:miter;stroke-width:0.8;"/>
   </g>
   <g id="patch_19">
    <path d="M 249.24375 440.975 
L 426.675 440.975 
" style="fill:none;stroke:#000000;stroke-linecap:square;stroke-linejoin:miter;stroke-width:0.8;"/>
   </g>
  </g>
  <g id="axes_4">
   <g id="patch_20">
    <path d="M 34.15625 833.49375 
L 211.5875 833.49375 
L 211.5875 656.0625 
L 34.15625 656.0625 
z
" style="fill:#ffffff;"/>
   </g>
   <g id="PathCollection_4">
    <g clip-path="url(#p37a56c09d7)">
     <use style="fill:#1f77b4;stroke:#1f77b4;" x="200.122753" xlink:href="#md1b1659184" y="667.548855"/>
    </g>
   </g>
   <g id="patch_21">
    <path clip-path="url(#p37a56c09d7)" d="M 98.518921 753.160631 
Q 93.345312 755.278122 88.171703 757.395613 
Q 89.581876 751.986231 90.992048 746.576849 
z
" style="fill:#1f77b4;stroke:#000000;stroke-linecap:round;"/>
   </g>
   <g id="matplotlib.axis_7">
    <g id="text_7">
     <!-- $x_{4}$ -->
     <defs>
      <path d="M 37.796875 64.3125 
L 12.890625 25.390625 
L 37.796875 25.390625 
z
M 35.203125 72.90625 
L 47.609375 72.90625 
L 47.609375 25.390625 
L 58.015625 25.390625 
L 58.015625 17.1875 
L 47.609375 17.1875 
L 47.609375 0 
L 37.796875 0 
L 37.796875 17.1875 
L 4.890625 17.1875 
L 4.890625 26.703125 
z
" id="DejaVuSans-34"/>
     </defs>
     <g transform="translate(112.171875 852.690625)scale(0.2 -0.2)">
      <use transform="translate(0 0.3125)" xlink:href="#DejaVuSans-Oblique-78"/>
      <use transform="translate(59.179688 -16.09375)scale(0.7)" xlink:href="#DejaVuSans-34"/>
     </g>
    </g>
   </g>
   <g id="matplotlib.axis_8">
    <g id="text_8">
     <!-- $x_{1}$ -->
     <g transform="translate(25.996875 755.478125)rotate(-90)scale(0.2 -0.2)">
      <use transform="translate(0 0.3125)" xlink:href="#DejaVuSans-Oblique-78"/>
      <use transform="translate(59.179688 -16.09375)scale(0.7)" xlink:href="#DejaVuSans-31"/>
     </g>
    </g>
   </g>
   <g id="line2d_4">
    <path clip-path="url(#p37a56c09d7)" d="M 200.122753 667.548855 
L 190.098421 673.565181 
L 180.640255 679.489091 
L 171.713467 685.322006 
L 163.285457 691.065323 
L 154.042515 697.654451 
L 145.39172 704.125648 
L 137.291136 710.481025 
L 129.701843 716.722653 
L 122.587804 722.85257 
L 115.915572 728.872773 
L 108.791482 735.621182 
L 102.16132 742.23173 
L 95.985905 748.707236 
L 90.229287 755.050457 
L 84.21271 762.031821 
L 78.641605 768.852946 
L 73.47703 775.51751 
L 68.172504 782.743326 
L 63.282443 789.7851 
L 58.335177 797.324075 
L 53.794914 804.652102 
L 49.257175 812.412657 
L 45.106257 819.936628 
L 42.221307 825.428693 
L 42.221307 825.428693 
" style="fill:none;stroke:#1f77b4;stroke-linecap:square;stroke-width:1.5;"/>
   </g>
   <g id="patch_22">
    <path d="M 34.15625 833.49375 
L 34.15625 656.0625 
" style="fill:none;stroke:#000000;stroke-linecap:square;stroke-linejoin:miter;stroke-width:0.8;"/>
   </g>
   <g id="patch_23">
    <path d="M 211.5875 833.49375 
L 211.5875 656.0625 
" style="fill:none;stroke:#000000;stroke-linecap:square;stroke-linejoin:miter;stroke-width:0.8;"/>
   </g>
   <g id="patch_24">
    <path d="M 34.15625 833.49375 
L 211.5875 833.49375 
" style="fill:none;stroke:#000000;stroke-linecap:square;stroke-linejoin:miter;stroke-width:0.8;"/>
   </g>
   <g id="patch_25">
    <path d="M 34.15625 656.0625 
L 211.5875 656.0625 
" style="fill:none;stroke:#000000;stroke-linecap:square;stroke-linejoin:miter;stroke-width:0.8;"/>
   </g>
  </g>
  <g id="axes_5">
   <g id="patch_26">
    <path d="M 249.24375 833.49375 
L 426.675 833.49375 
L 426.675 656.0625 
L 249.24375 656.0625 
z
" style="fill:#ffffff;"/>
   </g>
   <g id="PathCollection_5">
    <g clip-path="url(#p9f4c98966d)">
     <use style="fill:#1f77b4;stroke:#1f77b4;" x="415.210253" xlink:href="#md1b1659184" y="822.007395"/>
    </g>
   </g>
   <g id="patch_27">
    <path clip-path="url(#p9f4c98966d)" d="M 306.020241 752.880863 
Q 304.639722 747.463837 303.259203 742.046811 
Q 308.421135 744.192611 313.583067 746.338411 
z
" style="fill:#1f77b4;stroke:#000000;stroke-linecap:round;"/>
   </g>
   <g id="matplotlib.axis_9">
    <g id="text_9">
     <!-- $x_{4}$ -->
     <g transform="translate(327.259375 852.690625)scale(0.2 -0.2)">
      <use transform="translate(0 0.3125)" xlink:href="#DejaVuSans-Oblique-78"/>
      <use transform="translate(59.179688 -16.09375)scale(0.7)" xlink:href="#DejaVuSans-34"/>
     </g>
    </g>
   </g>
   <g id="matplotlib.axis_10">
    <g id="text_10">
     <!-- $x_{2}$ -->
     <g transform="translate(241.084375 755.478125)rotate(-90)scale(0.2 -0.2)">
      <use transform="translate(0 0.3125)" xlink:href="#DejaVuSans-Oblique-78"/>
      <use transform="translate(59.179688 -16.09375)scale(0.7)" xlink:href="#DejaVuSans-32"/>
     </g>
    </g>
   </g>
   <g id="line2d_5">
    <path clip-path="url(#p9f4c98966d)" d="M 415.210253 822.007395 
L 405.185921 817.244028 
L 395.727755 812.482336 
L 386.800967 807.722317 
L 378.372957 802.963971 
L 370.413164 798.207299 
L 362.892956 793.452298 
L 355.785507 788.698969 
L 349.065638 783.947311 
L 342.709775 779.197323 
L 336.695827 774.449006 
L 331.003072 769.702357 
L 324.741641 764.166709 
L 318.862255 758.633332 
L 313.338244 753.102223 
L 308.144874 747.573384 
L 303.259203 742.046811 
L 298.659944 736.522505 
L 294.327361 731.000465 
L 289.678945 724.692335 
L 285.329729 718.387162 
L 281.256545 712.084943 
L 277.438126 705.785679 
L 273.422677 698.702535 
L 269.679589 691.623126 
L 266.185776 684.54745 
L 262.570663 676.689963 
L 259.211401 668.837079 
L 257.308807 664.127557 
L 257.308807 664.127557 
" style="fill:none;stroke:#1f77b4;stroke-linecap:square;stroke-width:1.5;"/>
   </g>
   <g id="patch_28">
    <path d="M 249.24375 833.49375 
L 249.24375 656.0625 
" style="fill:none;stroke:#000000;stroke-linecap:square;stroke-linejoin:miter;stroke-width:0.8;"/>
   </g>
   <g id="patch_29">
    <path d="M 426.675 833.49375 
L 426.675 656.0625 
" style="fill:none;stroke:#000000;stroke-linecap:square;stroke-linejoin:miter;stroke-width:0.8;"/>
   </g>
   <g id="patch_30">
    <path d="M 249.24375 833.49375 
L 426.675 833.49375 
" style="fill:none;stroke:#000000;stroke-linecap:square;stroke-linejoin:miter;stroke-width:0.8;"/>
   </g>
   <g id="patch_31">
    <path d="M 249.24375 656.0625 
L 426.675 656.0625 
" style="fill:none;stroke:#000000;stroke-linecap:square;stroke-linejoin:miter;stroke-width:0.8;"/>
   </g>
  </g>
  <g id="axes_6">
   <g id="patch_32">
    <path d="M 464.33125 833.49375 
L 641.7625 833.49375 
L 641.7625 656.0625 
L 464.33125 656.0625 
z
" style="fill:#ffffff;"/>
   </g>
   <g id="PathCollection_6">
    <g clip-path="url(#pc84d86a368)">
     <use style="fill:#1f77b4;stroke:#1f77b4;" x="630.297753" xlink:href="#md1b1659184" y="822.007395"/>
    </g>
   </g>
   <g id="patch_33">
    <path clip-path="url(#pc84d86a368)" d="M 521.158646 743.718755 
Q 519.752675 738.30828 518.346703 732.897804 
Q 523.518666 735.019312 528.69063 737.14082 
z
" style="fill:#1f77b4;stroke:#000000;stroke-linecap:round;"/>
   </g>
   <g id="matplotlib.axis_11">
    <g id="text_11">
     <!-- $x_{4}$ -->
     <g transform="translate(542.346875 852.690625)scale(0.2 -0.2)">
      <use transform="translate(0 0.3125)" xlink:href="#DejaVuSans-Oblique-78"/>
      <use transform="translate(59.179688 -16.09375)scale(0.7)" xlink:href="#DejaVuSans-34"/>
     </g>
    </g>
   </g>
   <g id="matplotlib.axis_12">
    <g id="text_12">
     <!-- $x_{3}$ -->
     <g transform="translate(456.171875 755.478125)rotate(-90)scale(0.2 -0.2)">
      <use transform="translate(0 0.3125)" xlink:href="#DejaVuSans-Oblique-78"/>
      <use transform="translate(59.179688 -16.09375)scale(0.7)" xlink:href="#DejaVuSans-33"/>
     </g>
    </g>
   </g>
   <g id="line2d_6">
    <path clip-path="url(#pc84d86a368)" d="M 630.297753 822.007395 
L 620.273421 816.091678 
L 610.815255 810.260187 
L 601.888467 804.511722 
L 593.460457 798.845102 
L 585.500664 793.259162 
L 576.767917 786.84267 
L 568.591184 780.532632 
L 560.931119 774.327284 
L 553.751293 768.224887 
L 547.017899 762.223735 
L 540.699594 756.322146 
L 533.949755 749.697271 
L 527.664145 743.19786 
L 521.806031 736.821538 
L 516.341706 730.565972 
L 510.626623 723.669958 
L 505.330638 716.920693 
L 500.417229 710.315054 
L 495.366348 703.140191 
L 490.705788 696.134775 
L 485.985993 688.619754 
L 481.649837 681.299728 
L 477.311129 673.530695 
L 473.021506 665.361917 
L 472.396307 664.127557 
L 472.396307 664.127557 
" style="fill:none;stroke:#1f77b4;stroke-linecap:square;stroke-width:1.5;"/>
   </g>
   <g id="patch_34">
    <path d="M 464.33125 833.49375 
L 464.33125 656.0625 
" style="fill:none;stroke:#000000;stroke-linecap:square;stroke-linejoin:miter;stroke-width:0.8;"/>
   </g>
   <g id="patch_35">
    <path d="M 641.7625 833.49375 
L 641.7625 656.0625 
" style="fill:none;stroke:#000000;stroke-linecap:square;stroke-linejoin:miter;stroke-width:0.8;"/>
   </g>
   <g id="patch_36">
    <path d="M 464.33125 833.49375 
L 641.7625 833.49375 
" style="fill:none;stroke:#000000;stroke-linecap:square;stroke-linejoin:miter;stroke-width:0.8;"/>
   </g>
   <g id="patch_37">
    <path d="M 464.33125 656.0625 
L 641.7625 656.0625 
" style="fill:none;stroke:#000000;stroke-linecap:square;stroke-linejoin:miter;stroke-width:0.8;"/>
   </g>
  </g>
  <g id="axes_7">
   <g id="patch_38">
    <path d="M 34.15625 1048.58125 
L 211.5875 1048.58125 
L 211.5875 871.15 
L 34.15625 871.15 
z
" style="fill:#ffffff;"/>
   </g>
   <g id="PathCollection_7">
    <g clip-path="url(#pfc0c264926)">
     <use style="fill:#1f77b4;stroke:#1f77b4;" x="45.620997" xlink:href="#md1b1659184" y="882.636355"/>
    </g>
   </g>
   <g id="patch_39">
    <path clip-path="url(#pfc0c264926)" d="M 124.927967 961.893375 
Q 126.72083 967.188244 128.513694 972.483113 
Q 123.20208 970.740483 117.890467 968.997852 
z
" style="fill:#1f77b4;stroke:#000000;stroke-linecap:round;"/>
   </g>
   <g id="matplotlib.axis_13">
    <g id="text_13">
     <!-- $x_{5}$ -->
     <defs>
      <path d="M 10.796875 72.90625 
L 49.515625 72.90625 
L 49.515625 64.59375 
L 19.828125 64.59375 
L 19.828125 46.734375 
Q 21.96875 47.46875 24.109375 47.828125 
Q 26.265625 48.1875 28.421875 48.1875 
Q 40.625 48.1875 47.75 41.5 
Q 54.890625 34.8125 54.890625 23.390625 
Q 54.890625 11.625 47.5625 5.09375 
Q 40.234375 -1.421875 26.90625 -1.421875 
Q 22.3125 -1.421875 17.546875 -0.640625 
Q 12.796875 0.140625 7.71875 1.703125 
L 7.71875 11.625 
Q 12.109375 9.234375 16.796875 8.0625 
Q 21.484375 6.890625 26.703125 6.890625 
Q 35.15625 6.890625 40.078125 11.328125 
Q 45.015625 15.765625 45.015625 23.390625 
Q 45.015625 31 40.078125 35.4375 
Q 35.15625 39.890625 26.703125 39.890625 
Q 22.75 39.890625 18.8125 39.015625 
Q 14.890625 38.140625 10.796875 36.28125 
z
" id="DejaVuSans-35"/>
     </defs>
     <g transform="translate(112.171875 1067.778125)scale(0.2 -0.2)">
      <use transform="translate(0 0.3125)" xlink:href="#DejaVuSans-Oblique-78"/>
      <use transform="translate(59.179688 -16.09375)scale(0.7)" xlink:href="#DejaVuSans-35"/>
     </g>
    </g>
   </g>
   <g id="matplotlib.axis_14">
    <g id="text_14">
     <!-- $x_{1}$ -->
     <g transform="translate(25.996875 970.565625)rotate(-90)scale(0.2 -0.2)">
      <use transform="translate(0 0.3125)" xlink:href="#DejaVuSans-Oblique-78"/>
      <use transform="translate(59.179688 -16.09375)scale(0.7)" xlink:href="#DejaVuSans-31"/>
     </g>
    </g>
   </g>
   <g id="line2d_7">
    <path clip-path="url(#pfc0c264926)" d="M 45.620997 882.636355 
L 57.527247 896.530938 
L 69.295179 909.932604 
L 80.927378 922.85884 
L 93.242689 936.199947 
L 105.408096 949.034615 
L 117.426542 961.38207 
L 129.300891 973.260807 
L 141.033932 984.688619 
L 152.628384 995.682622 
L 164.846027 1006.949949 
L 176.912131 1017.761629 
L 188.82974 1028.13609 
L 200.601822 1038.091012 
L 203.522443 1040.516193 
L 203.522443 1040.516193 
" style="fill:none;stroke:#1f77b4;stroke-linecap:square;stroke-width:1.5;"/>
   </g>
   <g id="patch_40">
    <path d="M 34.15625 1048.58125 
L 34.15625 871.15 
" style="fill:none;stroke:#000000;stroke-linecap:square;stroke-linejoin:miter;stroke-width:0.8;"/>
   </g>
   <g id="patch_41">
    <path d="M 211.5875 1048.58125 
L 211.5875 871.15 
" style="fill:none;stroke:#000000;stroke-linecap:square;stroke-linejoin:miter;stroke-width:0.8;"/>
   </g>
   <g id="patch_42">
    <path d="M 34.15625 1048.58125 
L 211.5875 1048.58125 
" style="fill:none;stroke:#000000;stroke-linecap:square;stroke-linejoin:miter;stroke-width:0.8;"/>
   </g>
   <g id="patch_43">
    <path d="M 34.15625 871.15 
L 211.5875 871.15 
" style="fill:none;stroke:#000000;stroke-linecap:square;stroke-linejoin:miter;stroke-width:0.8;"/>
   </g>
  </g>
  <g id="axes_8">
   <g id="patch_44">
    <path d="M 249.24375 1048.58125 
L 426.675 1048.58125 
L 426.675 871.15 
L 249.24375 871.15 
z
" style="fill:#ffffff;"/>
   </g>
   <g id="PathCollection_8">
    <g clip-path="url(#pf523008256)">
     <use style="fill:#1f77b4;stroke:#1f77b4;" x="260.708497" xlink:href="#md1b1659184" y="1037.094895"/>
    </g>
   </g>
   <g id="patch_45">
    <path clip-path="url(#pf523008256)" d="M 332.997407 960.678279 
Q 338.299301 958.906295 343.601194 957.134311 
Q 341.837645 962.439016 340.074096 967.743721 
z
" style="fill:#1f77b4;stroke:#000000;stroke-linecap:round;"/>
   </g>
   <g id="matplotlib.axis_15">
    <g id="text_15">
     <!-- $x_{5}$ -->
     <g transform="translate(327.259375 1067.778125)scale(0.2 -0.2)">
      <use transform="translate(0 0.3125)" xlink:href="#DejaVuSans-Oblique-78"/>
      <use transform="translate(59.179688 -16.09375)scale(0.7)" xlink:href="#DejaVuSans-35"/>
     </g>
    </g>
   </g>
   <g id="matplotlib.axis_16">
    <g id="text_16">
     <!-- $x_{2}$ -->
     <g transform="translate(241.084375 970.565625)rotate(-90)scale(0.2 -0.2)">
      <use transform="translate(0 0.3125)" xlink:href="#DejaVuSans-Oblique-78"/>
      <use transform="translate(59.179688 -16.09375)scale(0.7)" xlink:href="#DejaVuSans-32"/>
     </g>
    </g>
   </g>
   <g id="line2d_8">
    <path clip-path="url(#pf523008256)" d="M 260.708497 1037.094895 
L 279.356049 1019.637401 
L 297.665688 1002.202397 
L 316.456933 983.998911 
L 334.900349 965.819943 
L 353.006283 947.66546 
L 370.784671 929.535429 
L 388.997144 910.64317 
L 406.87379 891.777463 
L 418.609943 879.215057 
L 418.609943 879.215057 
" style="fill:none;stroke:#1f77b4;stroke-linecap:square;stroke-width:1.5;"/>
   </g>
   <g id="patch_46">
    <path d="M 249.24375 1048.58125 
L 249.24375 871.15 
" style="fill:none;stroke:#000000;stroke-linecap:square;stroke-linejoin:miter;stroke-width:0.8;"/>
   </g>
   <g id="patch_47">
    <path d="M 426.675 1048.58125 
L 426.675 871.15 
" style="fill:none;stroke:#000000;stroke-linecap:square;stroke-linejoin:miter;stroke-width:0.8;"/>
   </g>
   <g id="patch_48">
    <path d="M 249.24375 1048.58125 
L 426.675 1048.58125 
" style="fill:none;stroke:#000000;stroke-linecap:square;stroke-linejoin:miter;stroke-width:0.8;"/>
   </g>
   <g id="patch_49">
    <path d="M 249.24375 871.15 
L 426.675 871.15 
" style="fill:none;stroke:#000000;stroke-linecap:square;stroke-linejoin:miter;stroke-width:0.8;"/>
   </g>
  </g>
  <g id="axes_9">
   <g id="patch_50">
    <path d="M 464.33125 1048.58125 
L 641.7625 1048.58125 
L 641.7625 871.15 
L 464.33125 871.15 
z
" style="fill:#ffffff;"/>
   </g>
   <g id="PathCollection_9">
    <g clip-path="url(#p8e20faff74)">
     <use style="fill:#1f77b4;stroke:#1f77b4;" x="475.795997" xlink:href="#md1b1659184" y="1037.094895"/>
    </g>
   </g>
   <g id="patch_51">
    <path clip-path="url(#p8e20faff74)" d="M 548.068201 951.478889 
Q 553.378448 949.732096 558.688694 947.985304 
Q 556.89998 953.281577 555.111266 958.577849 
z
" style="fill:#1f77b4;stroke:#000000;stroke-linecap:round;"/>
   </g>
   <g id="matplotlib.axis_17">
    <g id="text_17">
     <!-- $x_{5}$ -->
     <g transform="translate(542.346875 1067.778125)scale(0.2 -0.2)">
      <use transform="translate(0 0.3125)" xlink:href="#DejaVuSans-Oblique-78"/>
      <use transform="translate(59.179688 -16.09375)scale(0.7)" xlink:href="#DejaVuSans-35"/>
     </g>
    </g>
   </g>
   <g id="matplotlib.axis_18">
    <g id="text_18">
     <!-- $x_{3}$ -->
     <g transform="translate(456.171875 970.565625)rotate(-90)scale(0.2 -0.2)">
      <use transform="translate(0 0.3125)" xlink:href="#DejaVuSans-Oblique-78"/>
      <use transform="translate(59.179688 -16.09375)scale(0.7)" xlink:href="#DejaVuSans-33"/>
     </g>
    </g>
   </g>
   <g id="line2d_9">
    <path clip-path="url(#p8e20faff74)" d="M 475.795997 1037.094895 
L 488.547369 1022.46315 
L 501.140172 1008.346662 
L 513.577576 994.727285 
L 525.862667 981.587515 
L 538.802265 968.081375 
L 551.57553 955.08196 
L 564.18591 942.570257 
L 576.63676 930.52797 
L 588.931342 918.937486 
L 601.072829 907.781855 
L 613.808866 896.387228 
L 626.37916 885.446286 
L 633.697443 879.215057 
L 633.697443 879.215057 
" style="fill:none;stroke:#1f77b4;stroke-linecap:square;stroke-width:1.5;"/>
   </g>
   <g id="patch_52">
    <path d="M 464.33125 1048.58125 
L 464.33125 871.15 
" style="fill:none;stroke:#000000;stroke-linecap:square;stroke-linejoin:miter;stroke-width:0.8;"/>
   </g>
   <g id="patch_53">
    <path d="M 641.7625 1048.58125 
L 641.7625 871.15 
" style="fill:none;stroke:#000000;stroke-linecap:square;stroke-linejoin:miter;stroke-width:0.8;"/>
   </g>
   <g id="patch_54">
    <path d="M 464.33125 1048.58125 
L 641.7625 1048.58125 
" style="fill:none;stroke:#000000;stroke-linecap:square;stroke-linejoin:miter;stroke-width:0.8;"/>
   </g>
   <g id="patch_55">
    <path d="M 464.33125 871.15 
L 641.7625 871.15 
" style="fill:none;stroke:#000000;stroke-linecap:square;stroke-linejoin:miter;stroke-width:0.8;"/>
   </g>
  </g>
  <g id="axes_10">
   <g id="patch_56">
    <path d="M 679.41875 1048.58125 
L 856.85 1048.58125 
L 856.85 871.15 
L 679.41875 871.15 
z
" style="fill:#ffffff;"/>
   </g>
   <g id="PathCollection_10">
    <g clip-path="url(#p2af55b2093)">
     <use style="fill:#1f77b4;stroke:#1f77b4;" x="690.883497" xlink:href="#md1b1659184" y="882.636355"/>
    </g>
   </g>
   <g id="patch_57">
    <path clip-path="url(#p2af55b2093)" d="M 769.492021 984.245137 
Q 771.634107 989.408611 773.776194 994.572085 
Q 768.360163 993.18767 762.944132 991.803254 
z
" style="fill:#1f77b4;stroke:#000000;stroke-linecap:round;"/>
   </g>
   <g id="matplotlib.axis_19">
    <g id="text_19">
     <!-- $x_{5}$ -->
     <g transform="translate(757.434375 1067.778125)scale(0.2 -0.2)">
      <use transform="translate(0 0.3125)" xlink:href="#DejaVuSans-Oblique-78"/>
      <use transform="translate(59.179688 -16.09375)scale(0.7)" xlink:href="#DejaVuSans-35"/>
     </g>
    </g>
   </g>
   <g id="matplotlib.axis_20">
    <g id="text_20">
     <!-- $x_{4}$ -->
     <g transform="translate(671.259375 970.565625)rotate(-90)scale(0.2 -0.2)">
      <use transform="translate(0 0.3125)" xlink:href="#DejaVuSans-Oblique-78"/>
      <use transform="translate(59.179688 -16.09375)scale(0.7)" xlink:href="#DejaVuSans-34"/>
     </g>
    </g>
   </g>
   <g id="line2d_10">
    <path clip-path="url(#p2af55b2093)" d="M 690.883497 882.636355 
L 696.003281 892.659315 
L 701.097383 902.116187 
L 706.166013 911.041753 
L 711.209375 919.468609 
L 716.227672 927.427313 
L 721.221107 934.946493 
L 726.189878 942.052969 
L 731.134182 948.771918 
L 736.054214 955.126911 
L 741.763832 962.110461 
L 747.440977 968.661362 
L 753.08595 974.809956 
L 758.699044 980.584382 
L 764.280553 986.010738 
L 769.830763 991.11323 
L 775.349959 995.91431 
L 781.619997 1001.058833 
L 787.850307 1005.865516 
L 794.0413 1010.360696 
L 800.193378 1014.568547 
L 807.068444 1018.986493 
L 813.895318 1023.097691 
L 820.67455 1026.928366 
L 828.15181 1030.884576 
L 835.571649 1034.553392 
L 842.934785 1037.961404 
L 848.784943 1040.516193 
L 848.784943 1040.516193 
" style="fill:none;stroke:#1f77b4;stroke-linecap:square;stroke-width:1.5;"/>
   </g>
   <g id="patch_58">
    <path d="M 679.41875 1048.58125 
L 679.41875 871.15 
" style="fill:none;stroke:#000000;stroke-linecap:square;stroke-linejoin:miter;stroke-width:0.8;"/>
   </g>
   <g id="patch_59">
    <path d="M 856.85 1048.58125 
L 856.85 871.15 
" style="fill:none;stroke:#000000;stroke-linecap:square;stroke-linejoin:miter;stroke-width:0.8;"/>
   </g>
   <g id="patch_60">
    <path d="M 679.41875 1048.58125 
L 856.85 1048.58125 
" style="fill:none;stroke:#000000;stroke-linecap:square;stroke-linejoin:miter;stroke-width:0.8;"/>
   </g>
   <g id="patch_61">
    <path d="M 679.41875 871.15 
L 856.85 871.15 
" style="fill:none;stroke:#000000;stroke-linecap:square;stroke-linejoin:miter;stroke-width:0.8;"/>
   </g>
  </g>
  <g id="axes_11">
   <g id="patch_62">
    <path d="M 34.15625 1263.66875 
L 211.5875 1263.66875 
L 211.5875 1086.2375 
L 34.15625 1086.2375 
z
" style="fill:#ffffff;"/>
   </g>
   <g id="PathCollection_11">
    <g clip-path="url(#p03a4cea1d7)">
     <use style="fill:#1f77b4;stroke:#1f77b4;" x="200.122753" xlink:href="#md1b1659184" y="1097.723855"/>
    </g>
   </g>
   <g id="patch_63">
    <path clip-path="url(#p03a4cea1d7)" d="M 98.28799 1183.443944 
Q 93.092545 1185.507279 87.8971 1187.570613 
Q 89.3637 1182.176256 90.830299 1176.7819 
z
" style="fill:#1f77b4;stroke:#000000;stroke-linecap:round;"/>
   </g>
   <g id="matplotlib.axis_21">
    <g id="text_21">
     <!-- $x_{6}$ -->
     <defs>
      <path d="M 33.015625 40.375 
Q 26.375 40.375 22.484375 35.828125 
Q 18.609375 31.296875 18.609375 23.390625 
Q 18.609375 15.53125 22.484375 10.953125 
Q 26.375 6.390625 33.015625 6.390625 
Q 39.65625 6.390625 43.53125 10.953125 
Q 47.40625 15.53125 47.40625 23.390625 
Q 47.40625 31.296875 43.53125 35.828125 
Q 39.65625 40.375 33.015625 40.375 
z
M 52.59375 71.296875 
L 52.59375 62.3125 
Q 48.875 64.0625 45.09375 64.984375 
Q 41.3125 65.921875 37.59375 65.921875 
Q 27.828125 65.921875 22.671875 59.328125 
Q 17.53125 52.734375 16.796875 39.40625 
Q 19.671875 43.65625 24.015625 45.921875 
Q 28.375 48.1875 33.59375 48.1875 
Q 44.578125 48.1875 50.953125 41.515625 
Q 57.328125 34.859375 57.328125 23.390625 
Q 57.328125 12.15625 50.6875 5.359375 
Q 44.046875 -1.421875 33.015625 -1.421875 
Q 20.359375 -1.421875 13.671875 8.265625 
Q 6.984375 17.96875 6.984375 36.375 
Q 6.984375 53.65625 15.1875 63.9375 
Q 23.390625 74.21875 37.203125 74.21875 
Q 40.921875 74.21875 44.703125 73.484375 
Q 48.484375 72.75 52.59375 71.296875 
z
" id="DejaVuSans-36"/>
     </defs>
     <g transform="translate(112.171875 1282.865625)scale(0.2 -0.2)">
      <use transform="translate(0 0.3125)" xlink:href="#DejaVuSans-Oblique-78"/>
      <use transform="translate(59.179688 -16.09375)scale(0.7)" xlink:href="#DejaVuSans-36"/>
     </g>
    </g>
   </g>
   <g id="matplotlib.axis_22">
    <g id="text_22">
     <!-- $x_{1}$ -->
     <g transform="translate(25.996875 1185.653125)rotate(-90)scale(0.2 -0.2)">
      <use transform="translate(0 0.3125)" xlink:href="#DejaVuSans-Oblique-78"/>
      <use transform="translate(59.179688 -16.09375)scale(0.7)" xlink:href="#DejaVuSans-31"/>
     </g>
    </g>
   </g>
   <g id="line2d_11">
    <path clip-path="url(#p03a4cea1d7)" d="M 200.122753 1097.723855 
L 188.779338 1104.733878 
L 178.102629 1111.618438 
L 168.054602 1118.379778 
L 158.599264 1125.020104 
L 149.702561 1131.541583 
L 141.332294 1137.94634 
L 133.458007 1144.236466 
L 126.050926 1150.414012 
L 119.083862 1156.480993 
L 111.627424 1163.281837 
L 104.676158 1169.94375 
L 98.196314 1176.46957 
L 92.156309 1182.862078 
L 86.526593 1189.123997 
L 80.64925 1196.015881 
L 75.219623 1202.749578 
L 70.203762 1209.328721 
L 65.570216 1215.756856 
L 60.834875 1222.726333 
L 56.498791 1229.518297 
L 52.52817 1236.13727 
L 48.545686 1243.22359 
L 44.930304 1250.111628 
L 42.221307 1255.603693 
L 42.221307 1255.603693 
" style="fill:none;stroke:#1f77b4;stroke-linecap:square;stroke-width:1.5;"/>
   </g>
   <g id="patch_64">
    <path d="M 34.15625 1263.66875 
L 34.15625 1086.2375 
" style="fill:none;stroke:#000000;stroke-linecap:square;stroke-linejoin:miter;stroke-width:0.8;"/>
   </g>
   <g id="patch_65">
    <path d="M 211.5875 1263.66875 
L 211.5875 1086.2375 
" style="fill:none;stroke:#000000;stroke-linecap:square;stroke-linejoin:miter;stroke-width:0.8;"/>
   </g>
   <g id="patch_66">
    <path d="M 34.15625 1263.66875 
L 211.5875 1263.66875 
" style="fill:none;stroke:#000000;stroke-linecap:square;stroke-linejoin:miter;stroke-width:0.8;"/>
   </g>
   <g id="patch_67">
    <path d="M 34.15625 1086.2375 
L 211.5875 1086.2375 
" style="fill:none;stroke:#000000;stroke-linecap:square;stroke-linejoin:miter;stroke-width:0.8;"/>
   </g>
  </g>
  <g id="axes_12">
   <g id="patch_68">
    <path d="M 249.24375 1263.66875 
L 426.675 1263.66875 
L 426.675 1086.2375 
L 249.24375 1086.2375 
z
" style="fill:#ffffff;"/>
   </g>
   <g id="PathCollection_12">
    <g clip-path="url(#p10aad8e55a)">
     <use style="fill:#1f77b4;stroke:#1f77b4;" x="415.210253" xlink:href="#md1b1659184" y="1252.182395"/>
    </g>
   </g>
   <g id="patch_69">
    <path clip-path="url(#p10aad8e55a)" d="M 305.858495 1183.026474 
Q 304.421548 1177.624142 302.9846 1172.221811 
Q 308.168633 1174.313652 313.352667 1176.405492 
z
" style="fill:#1f77b4;stroke:#000000;stroke-linecap:round;"/>
   </g>
   <g id="matplotlib.axis_23">
    <g id="text_23">
     <!-- $x_{6}$ -->
     <g transform="translate(327.259375 1282.865625)scale(0.2 -0.2)">
      <use transform="translate(0 0.3125)" xlink:href="#DejaVuSans-Oblique-78"/>
      <use transform="translate(59.179688 -16.09375)scale(0.7)" xlink:href="#DejaVuSans-36"/>
     </g>
    </g>
   </g>
   <g id="matplotlib.axis_24">
    <g id="text_24">
     <!-- $x_{2}$ -->
     <g transform="translate(241.084375 1185.653125)rotate(-90)scale(0.2 -0.2)">
      <use transform="translate(0 0.3125)" xlink:href="#DejaVuSans-Oblique-78"/>
      <use transform="translate(59.179688 -16.09375)scale(0.7)" xlink:href="#DejaVuSans-32"/>
     </g>
    </g>
   </g>
   <g id="line2d_12">
    <path clip-path="url(#p10aad8e55a)" d="M 415.210253 1252.182395 
L 405.445594 1247.419028 
L 396.174842 1242.657336 
L 387.373772 1237.897317 
L 379.01927 1233.138971 
L 371.089287 1228.382299 
L 363.562806 1223.627298 
L 356.419794 1218.873969 
L 349.641148 1214.122311 
L 343.208675 1209.372323 
L 337.105048 1204.624006 
L 330.377799 1199.086411 
L 324.050861 1193.551088 
L 318.100771 1188.018034 
L 312.505385 1182.48725 
L 307.243809 1176.958734 
L 302.296332 1171.432486 
L 297.644366 1165.908504 
L 293.270387 1160.386787 
L 289.157875 1154.867335 
L 284.758096 1148.562162 
L 280.657716 1142.259943 
L 276.83637 1135.960679 
L 273.275042 1129.664367 
L 269.955983 1123.371005 
L 266.491047 1116.2945 
L 263.289883 1109.221725 
L 260.332229 1102.15268 
L 257.59935 1095.087362 
L 257.308807 1094.302557 
L 257.308807 1094.302557 
" style="fill:none;stroke:#1f77b4;stroke-linecap:square;stroke-width:1.5;"/>
   </g>
   <g id="patch_70">
    <path d="M 249.24375 1263.66875 
L 249.24375 1086.2375 
" style="fill:none;stroke:#000000;stroke-linecap:square;stroke-linejoin:miter;stroke-width:0.8;"/>
   </g>
   <g id="patch_71">
    <path d="M 426.675 1263.66875 
L 426.675 1086.2375 
" style="fill:none;stroke:#000000;stroke-linecap:square;stroke-linejoin:miter;stroke-width:0.8;"/>
   </g>
   <g id="patch_72">
    <path d="M 249.24375 1263.66875 
L 426.675 1263.66875 
" style="fill:none;stroke:#000000;stroke-linecap:square;stroke-linejoin:miter;stroke-width:0.8;"/>
   </g>
   <g id="patch_73">
    <path d="M 249.24375 1086.2375 
L 426.675 1086.2375 
" style="fill:none;stroke:#000000;stroke-linecap:square;stroke-linejoin:miter;stroke-width:0.8;"/>
   </g>
  </g>
  <g id="axes_13">
   <g id="patch_74">
    <path d="M 464.33125 1263.66875 
L 641.7625 1263.66875 
L 641.7625 1086.2375 
L 464.33125 1086.2375 
z
" style="fill:#ffffff;"/>
   </g>
   <g id="PathCollection_13">
    <g clip-path="url(#p7f1bf9d689)">
     <use style="fill:#1f77b4;stroke:#1f77b4;" x="630.297753" xlink:href="#md1b1659184" y="1252.182395"/>
    </g>
   </g>
   <g id="patch_75">
    <path clip-path="url(#p7f1bf9d689)" d="M 520.996898 1173.863798 
Q 519.534499 1168.468301 518.0721 1163.072804 
Q 523.265937 1165.140183 528.459774 1167.207562 
z
" style="fill:#1f77b4;stroke:#000000;stroke-linecap:round;"/>
   </g>
   <g id="matplotlib.axis_25">
    <g id="text_25">
     <!-- $x_{6}$ -->
     <g transform="translate(542.346875 1282.865625)scale(0.2 -0.2)">
      <use transform="translate(0 0.3125)" xlink:href="#DejaVuSans-Oblique-78"/>
      <use transform="translate(59.179688 -16.09375)scale(0.7)" xlink:href="#DejaVuSans-36"/>
     </g>
    </g>
   </g>
   <g id="matplotlib.axis_26">
    <g id="text_26">
     <!-- $x_{3}$ -->
     <g transform="translate(456.171875 1185.653125)rotate(-90)scale(0.2 -0.2)">
      <use transform="translate(0 0.3125)" xlink:href="#DejaVuSans-Oblique-78"/>
      <use transform="translate(59.179688 -16.09375)scale(0.7)" xlink:href="#DejaVuSans-33"/>
     </g>
    </g>
   </g>
   <g id="line2d_13">
    <path clip-path="url(#p7f1bf9d689)" d="M 630.297753 1252.182395 
L 618.954338 1245.288946 
L 608.277629 1238.509865 
L 598.229602 1231.843255 
L 588.774264 1225.287249 
L 579.877561 1218.840012 
L 571.507294 1212.499741 
L 563.633007 1206.26466 
L 556.225926 1200.133024 
L 549.258862 1194.103117 
L 541.802424 1187.334197 
L 534.851158 1180.69347 
L 528.371314 1174.178507 
L 522.331309 1167.786927 
L 516.701593 1161.516393 
L 511.454533 1155.364612 
L 505.976884 1148.583008 
L 500.916646 1141.945719 
L 496.242099 1135.449674 
L 491.92387 1129.091866 
L 487.510731 1122.18619 
L 483.469583 1115.443604 
L 479.768892 1108.860254 
L 476.056924 1101.798003 
L 472.68685 1094.918999 
L 472.396307 1094.302557 
L 472.396307 1094.302557 
" style="fill:none;stroke:#1f77b4;stroke-linecap:square;stroke-width:1.5;"/>
   </g>
   <g id="patch_76">
    <path d="M 464.33125 1263.66875 
L 464.33125 1086.2375 
" style="fill:none;stroke:#000000;stroke-linecap:square;stroke-linejoin:miter;stroke-width:0.8;"/>
   </g>
   <g id="patch_77">
    <path d="M 641.7625 1263.66875 
L 641.7625 1086.2375 
" style="fill:none;stroke:#000000;stroke-linecap:square;stroke-linejoin:miter;stroke-width:0.8;"/>
   </g>
   <g id="patch_78">
    <path d="M 464.33125 1263.66875 
L 641.7625 1263.66875 
" style="fill:none;stroke:#000000;stroke-linecap:square;stroke-linejoin:miter;stroke-width:0.8;"/>
   </g>
   <g id="patch_79">
    <path d="M 464.33125 1086.2375 
L 641.7625 1086.2375 
" style="fill:none;stroke:#000000;stroke-linecap:square;stroke-linejoin:miter;stroke-width:0.8;"/>
   </g>
  </g>
  <g id="axes_14">
   <g id="patch_80">
    <path d="M 679.41875 1263.66875 
L 856.85 1263.66875 
L 856.85 1086.2375 
L 679.41875 1086.2375 
z
" style="fill:#ffffff;"/>
   </g>
   <g id="PathCollection_14">
    <g clip-path="url(#p7bc45fe0d8)">
     <use style="fill:#1f77b4;stroke:#1f77b4;" x="845.385253" xlink:href="#md1b1659184" y="1097.723855"/>
    </g>
   </g>
   <g id="patch_81">
    <path clip-path="url(#p7bc45fe0d8)" d="M 743.803058 1206.236604 
Q 738.481329 1207.948095 733.1596 1209.659585 
Q 734.983445 1204.375307 736.80729 1199.09103 
z
" style="fill:#1f77b4;stroke:#000000;stroke-linecap:round;"/>
   </g>
   <g id="matplotlib.axis_27">
    <g id="text_27">
     <!-- $x_{6}$ -->
     <g transform="translate(757.434375 1282.865625)scale(0.2 -0.2)">
      <use transform="translate(0 0.3125)" xlink:href="#DejaVuSans-Oblique-78"/>
      <use transform="translate(59.179688 -16.09375)scale(0.7)" xlink:href="#DejaVuSans-36"/>
     </g>
    </g>
   </g>
   <g id="matplotlib.axis_28">
    <g id="text_28">
     <!-- $x_{4}$ -->
     <g transform="translate(671.259375 1185.653125)rotate(-90)scale(0.2 -0.2)">
      <use transform="translate(0 0.3125)" xlink:href="#DejaVuSans-Oblique-78"/>
      <use transform="translate(59.179688 -16.09375)scale(0.7)" xlink:href="#DejaVuSans-34"/>
     </g>
    </g>
   </g>
   <g id="line2d_14">
    <path clip-path="url(#p7bc45fe0d8)" d="M 845.385253 1097.723855 
L 823.365129 1120.236257 
L 801.264287 1142.514813 
L 777.634399 1166.01707 
L 749.103565 1194.058668 
L 710.340191 1232.149983 
L 697.79067 1244.816674 
L 688.962353 1254.024092 
L 687.483807 1255.603693 
L 687.483807 1255.603693 
" style="fill:none;stroke:#1f77b4;stroke-linecap:square;stroke-width:1.5;"/>
   </g>
   <g id="patch_82">
    <path d="M 679.41875 1263.66875 
L 679.41875 1086.2375 
" style="fill:none;stroke:#000000;stroke-linecap:square;stroke-linejoin:miter;stroke-width:0.8;"/>
   </g>
   <g id="patch_83">
    <path d="M 856.85 1263.66875 
L 856.85 1086.2375 
" style="fill:none;stroke:#000000;stroke-linecap:square;stroke-linejoin:miter;stroke-width:0.8;"/>
   </g>
   <g id="patch_84">
    <path d="M 679.41875 1263.66875 
L 856.85 1263.66875 
" style="fill:none;stroke:#000000;stroke-linecap:square;stroke-linejoin:miter;stroke-width:0.8;"/>
   </g>
   <g id="patch_85">
    <path d="M 679.41875 1086.2375 
L 856.85 1086.2375 
" style="fill:none;stroke:#000000;stroke-linecap:square;stroke-linejoin:miter;stroke-width:0.8;"/>
   </g>
  </g>
  <g id="axes_15">
   <g id="patch_86">
    <path d="M 894.50625 1263.66875 
L 1071.9375 1263.66875 
L 1071.9375 1086.2375 
L 894.50625 1086.2375 
z
" style="fill:#ffffff;"/>
   </g>
   <g id="PathCollection_15">
    <g clip-path="url(#pab3602526f)">
     <use style="fill:#1f77b4;stroke:#1f77b4;" x="1060.472753" xlink:href="#md1b1659184" y="1252.182395"/>
    </g>
   </g>
   <g id="patch_87">
    <path clip-path="url(#pab3602526f)" d="M 951.130255 1180.103237 
Q 949.688678 1174.702139 948.2471 1169.301042 
Q 953.432925 1171.388438 958.618749 1173.475834 
z
" style="fill:#1f77b4;stroke:#000000;stroke-linecap:round;"/>
   </g>
   <g id="matplotlib.axis_29">
    <g id="text_29">
     <!-- $x_{6}$ -->
     <g transform="translate(972.521875 1282.865625)scale(0.2 -0.2)">
      <use transform="translate(0 0.3125)" xlink:href="#DejaVuSans-Oblique-78"/>
      <use transform="translate(59.179688 -16.09375)scale(0.7)" xlink:href="#DejaVuSans-36"/>
     </g>
    </g>
   </g>
   <g id="matplotlib.axis_30">
    <g id="text_30">
     <!-- $x_{5}$ -->
     <g transform="translate(886.346875 1185.653125)rotate(-90)scale(0.2 -0.2)">
      <use transform="translate(0 0.3125)" xlink:href="#DejaVuSans-Oblique-78"/>
      <use transform="translate(59.179688 -16.09375)scale(0.7)" xlink:href="#DejaVuSans-35"/>
     </g>
    </g>
   </g>
   <g id="line2d_15">
    <path clip-path="url(#pab3602526f)" d="M 1060.472753 1252.182395 
L 1050.708094 1247.063312 
L 1041.437342 1241.969907 
L 1032.636272 1236.901971 
L 1024.28177 1231.859299 
L 1016.351787 1226.841688 
L 1008.825306 1221.848937 
L 1001.682294 1216.880846 
L 993.808007 1211.115645 
L 986.400926 1205.383433 
L 979.433862 1199.683904 
L 972.881135 1194.016756 
L 966.718498 1188.381693 
L 960.923062 1182.77842 
L 955.473225 1177.206646 
L 950.348609 1171.666084 
L 945.529993 1166.156451 
L 940.374492 1159.89724 
L 935.569623 1153.677648 
L 931.091646 1147.497267 
L 926.91838 1141.355697 
L 923.029109 1135.25254 
L 919.404489 1129.187407 
L 915.620693 1122.409103 
L 912.125128 1115.677895 
L 908.895686 1108.993249 
L 905.594729 1101.619838 
L 902.571307 1094.302557 
L 902.571307 1094.302557 
" style="fill:none;stroke:#1f77b4;stroke-linecap:square;stroke-width:1.5;"/>
   </g>
   <g id="patch_88">
    <path d="M 894.50625 1263.66875 
L 894.50625 1086.2375 
" style="fill:none;stroke:#000000;stroke-linecap:square;stroke-linejoin:miter;stroke-width:0.8;"/>
   </g>
   <g id="patch_89">
    <path d="M 1071.9375 1263.66875 
L 1071.9375 1086.2375 
" style="fill:none;stroke:#000000;stroke-linecap:square;stroke-linejoin:miter;stroke-width:0.8;"/>
   </g>
   <g id="patch_90">
    <path d="M 894.50625 1263.66875 
L 1071.9375 1263.66875 
" style="fill:none;stroke:#000000;stroke-linecap:square;stroke-linejoin:miter;stroke-width:0.8;"/>
   </g>
   <g id="patch_91">
    <path d="M 894.50625 1086.2375 
L 1071.9375 1086.2375 
" style="fill:none;stroke:#000000;stroke-linecap:square;stroke-linejoin:miter;stroke-width:0.8;"/>
   </g>
  </g>
  <g id="axes_16">
   <g id="patch_92">
    <path d="M 34.15625 1478.75625 
L 211.5875 1478.75625 
L 211.5875 1301.325 
L 34.15625 1301.325 
z
" style="fill:#ffffff;"/>
   </g>
   <g id="PathCollection_16">
    <g clip-path="url(#p6a22dc41d9)">
     <use style="fill:#1f77b4;stroke:#1f77b4;" x="45.620997" xlink:href="#md1b1659184" y="1312.811355"/>
    </g>
   </g>
   <g id="patch_93">
    <path clip-path="url(#p6a22dc41d9)" d="M 139.014972 1391.961242 
Q 140.641083 1397.309678 142.267193 1402.658113 
Q 137.012778 1400.749941 131.758363 1398.841768 
z
" style="fill:#1f77b4;stroke:#000000;stroke-linecap:round;"/>
   </g>
   <g id="matplotlib.axis_31">
    <g id="text_31">
     <!-- $x_{7}$ -->
     <defs>
      <path d="M 8.203125 72.90625 
L 55.078125 72.90625 
L 55.078125 68.703125 
L 28.609375 0 
L 18.3125 0 
L 43.21875 64.59375 
L 8.203125 64.59375 
z
" id="DejaVuSans-37"/>
     </defs>
     <g transform="translate(112.171875 1497.953125)scale(0.2 -0.2)">
      <use transform="translate(0 0.3125)" xlink:href="#DejaVuSans-Oblique-78"/>
      <use transform="translate(59.179688 -16.09375)scale(0.7)" xlink:href="#DejaVuSans-37"/>
     </g>
    </g>
   </g>
   <g id="matplotlib.axis_32">
    <g id="text_32">
     <!-- $x_{1}$ -->
     <g transform="translate(25.996875 1400.740625)rotate(-90)scale(0.2 -0.2)">
      <use transform="translate(0 0.3125)" xlink:href="#DejaVuSans-Oblique-78"/>
      <use transform="translate(59.179688 -16.09375)scale(0.7)" xlink:href="#DejaVuSans-31"/>
     </g>
    </g>
   </g>
   <g id="line2d_16">
    <path clip-path="url(#p6a22dc41d9)" d="M 45.620997 1312.811355 
L 56.588947 1321.801099 
L 66.979882 1330.584506 
L 77.901681 1340.107604 
L 88.22037 1349.388148 
L 98.934904 1359.323966 
L 109.933867 1369.846236 
L 120.283888 1380.047728 
L 130.840122 1390.74869 
L 142.267193 1402.658113 
L 154.364549 1415.609863 
L 166.963721 1429.428752 
L 182.306678 1446.60945 
L 203.522443 1470.691193 
L 203.522443 1470.691193 
" style="fill:none;stroke:#1f77b4;stroke-linecap:square;stroke-width:1.5;"/>
   </g>
   <g id="patch_94">
    <path d="M 34.15625 1478.75625 
L 34.15625 1301.325 
" style="fill:none;stroke:#000000;stroke-linecap:square;stroke-linejoin:miter;stroke-width:0.8;"/>
   </g>
   <g id="patch_95">
    <path d="M 211.5875 1478.75625 
L 211.5875 1301.325 
" style="fill:none;stroke:#000000;stroke-linecap:square;stroke-linejoin:miter;stroke-width:0.8;"/>
   </g>
   <g id="patch_96">
    <path d="M 34.15625 1478.75625 
L 211.5875 1478.75625 
" style="fill:none;stroke:#000000;stroke-linecap:square;stroke-linejoin:miter;stroke-width:0.8;"/>
   </g>
   <g id="patch_97">
    <path d="M 34.15625 1301.325 
L 211.5875 1301.325 
" style="fill:none;stroke:#000000;stroke-linecap:square;stroke-linejoin:miter;stroke-width:0.8;"/>
   </g>
  </g>
  <g id="axes_17">
   <g id="patch_98">
    <path d="M 249.24375 1478.75625 
L 426.675 1478.75625 
L 426.675 1301.325 
L 249.24375 1301.325 
z
" style="fill:#ffffff;"/>
   </g>
   <g id="PathCollection_17">
    <g clip-path="url(#p64af0d9739)">
     <use style="fill:#1f77b4;stroke:#1f77b4;" x="260.708497" xlink:href="#md1b1659184" y="1467.269895"/>
    </g>
   </g>
   <g id="patch_99">
    <path clip-path="url(#p64af0d9739)" d="M 346.867097 1391.183625 
Q 352.110895 1389.246468 357.354693 1387.309311 
Q 355.75814 1392.666644 354.161587 1398.023977 
z
" style="fill:#1f77b4;stroke:#000000;stroke-linecap:round;"/>
   </g>
   <g id="matplotlib.axis_33">
    <g id="text_33">
     <!-- $x_{7}$ -->
     <g transform="translate(327.259375 1497.953125)scale(0.2 -0.2)">
      <use transform="translate(0 0.3125)" xlink:href="#DejaVuSans-Oblique-78"/>
      <use transform="translate(59.179688 -16.09375)scale(0.7)" xlink:href="#DejaVuSans-37"/>
     </g>
    </g>
   </g>
   <g id="matplotlib.axis_34">
    <g id="text_34">
     <!-- $x_{2}$ -->
     <g transform="translate(241.084375 1400.740625)rotate(-90)scale(0.2 -0.2)">
      <use transform="translate(0 0.3125)" xlink:href="#DejaVuSans-Oblique-78"/>
      <use transform="translate(59.179688 -16.09375)scale(0.7)" xlink:href="#DejaVuSans-32"/>
     </g>
    </g>
   </g>
   <g id="line2d_17">
    <path clip-path="url(#p64af0d9739)" d="M 260.708497 1467.269895 
L 269.290595 1461.712796 
L 278.665084 1455.364617 
L 287.607021 1449.019413 
L 296.145717 1442.677182 
L 304.308563 1436.337925 
L 312.121148 1430.001638 
L 319.60738 1423.668321 
L 327.667028 1416.546888 
L 335.371388 1409.429209 
L 342.747799 1402.315283 
L 349.821552 1395.205109 
L 357.354693 1387.309311 
L 364.572554 1379.418139 
L 371.502196 1371.53159 
L 378.821436 1362.861723 
L 385.851973 1354.197442 
L 393.224403 1344.751867 
L 400.317725 1335.312931 
L 407.720503 1325.094905 
L 415.401606 1314.099579 
L 418.609943 1309.390057 
L 418.609943 1309.390057 
" style="fill:none;stroke:#1f77b4;stroke-linecap:square;stroke-width:1.5;"/>
   </g>
   <g id="patch_100">
    <path d="M 249.24375 1478.75625 
L 249.24375 1301.325 
" style="fill:none;stroke:#000000;stroke-linecap:square;stroke-linejoin:miter;stroke-width:0.8;"/>
   </g>
   <g id="patch_101">
    <path d="M 426.675 1478.75625 
L 426.675 1301.325 
" style="fill:none;stroke:#000000;stroke-linecap:square;stroke-linejoin:miter;stroke-width:0.8;"/>
   </g>
   <g id="patch_102">
    <path d="M 249.24375 1478.75625 
L 426.675 1478.75625 
" style="fill:none;stroke:#000000;stroke-linecap:square;stroke-linejoin:miter;stroke-width:0.8;"/>
   </g>
   <g id="patch_103">
    <path d="M 249.24375 1301.325 
L 426.675 1301.325 
" style="fill:none;stroke:#000000;stroke-linecap:square;stroke-linejoin:miter;stroke-width:0.8;"/>
   </g>
  </g>
  <g id="axes_18">
   <g id="patch_104">
    <path d="M 464.33125 1478.75625 
L 641.7625 1478.75625 
L 641.7625 1301.325 
L 464.33125 1301.325 
z
" style="fill:#ffffff;"/>
   </g>
   <g id="PathCollection_18">
    <g clip-path="url(#pcc8664be04)">
     <use style="fill:#1f77b4;stroke:#1f77b4;" x="475.795997" xlink:href="#md1b1659184" y="1467.269895"/>
    </g>
   </g>
   <g id="patch_105">
    <path clip-path="url(#pcc8664be04)" d="M 561.936353 1381.984871 
Q 567.189273 1380.072588 572.442193 1378.160304 
Q 570.820268 1383.51001 569.198343 1388.859717 
z
" style="fill:#1f77b4;stroke:#000000;stroke-linecap:round;"/>
   </g>
   <g id="matplotlib.axis_35">
    <g id="text_35">
     <!-- $x_{7}$ -->
     <g transform="translate(542.346875 1497.953125)scale(0.2 -0.2)">
      <use transform="translate(0 0.3125)" xlink:href="#DejaVuSans-Oblique-78"/>
      <use transform="translate(59.179688 -16.09375)scale(0.7)" xlink:href="#DejaVuSans-37"/>
     </g>
    </g>
   </g>
   <g id="matplotlib.axis_36">
    <g id="text_36">
     <!-- $x_{3}$ -->
     <g transform="translate(456.171875 1400.740625)rotate(-90)scale(0.2 -0.2)">
      <use transform="translate(0 0.3125)" xlink:href="#DejaVuSans-Oblique-78"/>
      <use transform="translate(59.179688 -16.09375)scale(0.7)" xlink:href="#DejaVuSans-33"/>
     </g>
    </g>
   </g>
   <g id="line2d_18">
    <path clip-path="url(#pcc8664be04)" d="M 475.795997 1467.269895 
L 486.763947 1458.427979 
L 497.154882 1449.774222 
L 508.076681 1440.374749 
L 518.39537 1431.19726 
L 529.109904 1421.35216 
L 539.218028 1411.762515 
L 549.619524 1401.584646 
L 560.225652 1390.883088 
L 570.961696 1379.724173 
L 581.768039 1368.17535 
L 593.255911 1355.577554 
L 605.88695 1341.397275 
L 621.123975 1323.947754 
L 633.697443 1309.390057 
L 633.697443 1309.390057 
" style="fill:none;stroke:#1f77b4;stroke-linecap:square;stroke-width:1.5;"/>
   </g>
   <g id="patch_106">
    <path d="M 464.33125 1478.75625 
L 464.33125 1301.325 
" style="fill:none;stroke:#000000;stroke-linecap:square;stroke-linejoin:miter;stroke-width:0.8;"/>
   </g>
   <g id="patch_107">
    <path d="M 641.7625 1478.75625 
L 641.7625 1301.325 
" style="fill:none;stroke:#000000;stroke-linecap:square;stroke-linejoin:miter;stroke-width:0.8;"/>
   </g>
   <g id="patch_108">
    <path d="M 464.33125 1478.75625 
L 641.7625 1478.75625 
" style="fill:none;stroke:#000000;stroke-linecap:square;stroke-linejoin:miter;stroke-width:0.8;"/>
   </g>
   <g id="patch_109">
    <path d="M 464.33125 1301.325 
L 641.7625 1301.325 
" style="fill:none;stroke:#000000;stroke-linecap:square;stroke-linejoin:miter;stroke-width:0.8;"/>
   </g>
  </g>
  <g id="axes_19">
   <g id="patch_110">
    <path d="M 679.41875 1478.75625 
L 856.85 1478.75625 
L 856.85 1301.325 
L 679.41875 1301.325 
z
" style="fill:#ffffff;"/>
   </g>
   <g id="PathCollection_19">
    <g clip-path="url(#pd69a24ec16)">
     <use style="fill:#1f77b4;stroke:#1f77b4;" x="690.883497" xlink:href="#md1b1659184" y="1312.811355"/>
    </g>
   </g>
   <g id="patch_111">
    <path clip-path="url(#pd69a24ec16)" d="M 783.569167 1414.291741 
Q 785.54943 1419.519413 787.529693 1424.747085 
Q 782.159398 1423.194692 776.789102 1421.6423 
z
" style="fill:#1f77b4;stroke:#000000;stroke-linecap:round;"/>
   </g>
   <g id="matplotlib.axis_37">
    <g id="text_37">
     <!-- $x_{7}$ -->
     <g transform="translate(757.434375 1497.953125)scale(0.2 -0.2)">
      <use transform="translate(0 0.3125)" xlink:href="#DejaVuSans-Oblique-78"/>
      <use transform="translate(59.179688 -16.09375)scale(0.7)" xlink:href="#DejaVuSans-37"/>
     </g>
    </g>
   </g>
   <g id="matplotlib.axis_38">
    <g id="text_38">
     <!-- $x_{4}$ -->
     <g transform="translate(671.259375 1400.740625)rotate(-90)scale(0.2 -0.2)">
      <use transform="translate(0 0.3125)" xlink:href="#DejaVuSans-Oblique-78"/>
      <use transform="translate(59.179688 -16.09375)scale(0.7)" xlink:href="#DejaVuSans-34"/>
     </g>
    </g>
   </g>
   <g id="line2d_19">
    <path clip-path="url(#pd69a24ec16)" d="M 690.883497 1312.811355 
L 700.662113 1326.04774 
L 709.980861 1338.298543 
L 718.87083 1349.643609 
L 728.395636 1361.415127 
L 737.453008 1372.227969 
L 746.078628 1382.168496 
L 754.305528 1391.315036 
L 762.164291 1399.738685 
L 770.498832 1408.328726 
L 778.449536 1416.185738 
L 786.049196 1423.381492 
L 793.327871 1429.980453 
L 800.996478 1436.618933 
L 808.343411 1442.674106 
L 815.399026 1448.207209 
L 822.796114 1453.711719 
L 829.911552 1458.722159 
L 836.774384 1463.293588 
L 843.954265 1467.806638 
L 848.784943 1470.691193 
L 848.784943 1470.691193 
" style="fill:none;stroke:#1f77b4;stroke-linecap:square;stroke-width:1.5;"/>
   </g>
   <g id="patch_112">
    <path d="M 679.41875 1478.75625 
L 679.41875 1301.325 
" style="fill:none;stroke:#000000;stroke-linecap:square;stroke-linejoin:miter;stroke-width:0.8;"/>
   </g>
   <g id="patch_113">
    <path d="M 856.85 1478.75625 
L 856.85 1301.325 
" style="fill:none;stroke:#000000;stroke-linecap:square;stroke-linejoin:miter;stroke-width:0.8;"/>
   </g>
   <g id="patch_114">
    <path d="M 679.41875 1478.75625 
L 856.85 1478.75625 
" style="fill:none;stroke:#000000;stroke-linecap:square;stroke-linejoin:miter;stroke-width:0.8;"/>
   </g>
   <g id="patch_115">
    <path d="M 679.41875 1301.325 
L 856.85 1301.325 
" style="fill:none;stroke:#000000;stroke-linecap:square;stroke-linejoin:miter;stroke-width:0.8;"/>
   </g>
  </g>
  <g id="axes_20">
   <g id="patch_116">
    <path d="M 894.50625 1478.75625 
L 1071.9375 1478.75625 
L 1071.9375 1301.325 
L 894.50625 1301.325 
z
" style="fill:#ffffff;"/>
   </g>
   <g id="PathCollection_20">
    <g clip-path="url(#p5c7099128f)">
     <use style="fill:#1f77b4;stroke:#1f77b4;" x="905.970997" xlink:href="#md1b1659184" y="1467.269895"/>
    </g>
   </g>
   <g id="patch_117">
    <path clip-path="url(#p5c7099128f)" d="M 992.126261 1388.253815 
Q 997.371727 1386.321178 1002.617193 1384.388542 
Q 1001.016023 1389.744497 999.414853 1395.100451 
z
" style="fill:#1f77b4;stroke:#000000;stroke-linecap:round;"/>
   </g>
   <g id="matplotlib.axis_39">
    <g id="text_39">
     <!-- $x_{7}$ -->
     <g transform="translate(972.521875 1497.953125)scale(0.2 -0.2)">
      <use transform="translate(0 0.3125)" xlink:href="#DejaVuSans-Oblique-78"/>
      <use transform="translate(59.179688 -16.09375)scale(0.7)" xlink:href="#DejaVuSans-37"/>
     </g>
    </g>
   </g>
   <g id="matplotlib.axis_40">
    <g id="text_40">
     <!-- $x_{5}$ -->
     <g transform="translate(886.346875 1400.740625)rotate(-90)scale(0.2 -0.2)">
      <use transform="translate(0 0.3125)" xlink:href="#DejaVuSans-Oblique-78"/>
      <use transform="translate(59.179688 -16.09375)scale(0.7)" xlink:href="#DejaVuSans-35"/>
     </g>
    </g>
   </g>
   <g id="line2d_20">
    <path clip-path="url(#p5c7099128f)" d="M 905.970997 1467.269895 
L 915.749613 1460.450168 
L 925.068361 1453.675966 
L 933.95833 1446.946799 
L 942.448586 1440.262185 
L 951.556083 1432.794657 
L 960.227997 1425.382245 
L 968.497647 1418.024293 
L 976.395876 1410.720155 
L 984.770717 1402.666786 
L 992.758282 1394.67821 
L 1001.136696 1385.964606 
L 1009.126666 1377.327279 
L 1017.442782 1367.990464 
L 1025.382853 1358.741763 
L 1033.604869 1348.820207 
L 1042.066582 1338.247413 
L 1050.734479 1327.045988 
L 1059.583924 1315.239414 
L 1063.872443 1309.390057 
L 1063.872443 1309.390057 
" style="fill:none;stroke:#1f77b4;stroke-linecap:square;stroke-width:1.5;"/>
   </g>
   <g id="patch_118">
    <path d="M 894.50625 1478.75625 
L 894.50625 1301.325 
" style="fill:none;stroke:#000000;stroke-linecap:square;stroke-linejoin:miter;stroke-width:0.8;"/>
   </g>
   <g id="patch_119">
    <path d="M 1071.9375 1478.75625 
L 1071.9375 1301.325 
" style="fill:none;stroke:#000000;stroke-linecap:square;stroke-linejoin:miter;stroke-width:0.8;"/>
   </g>
   <g id="patch_120">
    <path d="M 894.50625 1478.75625 
L 1071.9375 1478.75625 
" style="fill:none;stroke:#000000;stroke-linecap:square;stroke-linejoin:miter;stroke-width:0.8;"/>
   </g>
   <g id="patch_121">
    <path d="M 894.50625 1301.325 
L 1071.9375 1301.325 
" style="fill:none;stroke:#000000;stroke-linecap:square;stroke-linejoin:miter;stroke-width:0.8;"/>
   </g>
  </g>
  <g id="axes_21">
   <g id="patch_122">
    <path d="M 1109.59375 1478.75625 
L 1287.025 1478.75625 
L 1287.025 1301.325 
L 1109.59375 1301.325 
z
" style="fill:#ffffff;"/>
   </g>
   <g id="PathCollection_21">
    <g clip-path="url(#pd29b746efb)">
     <use style="fill:#1f77b4;stroke:#1f77b4;" x="1121.058497" xlink:href="#md1b1659184" y="1312.811355"/>
    </g>
   </g>
   <g id="patch_123">
    <path clip-path="url(#pd29b746efb)" d="M 1213.854157 1414.5253 
Q 1215.779425 1419.773475 1217.704693 1425.02165 
Q 1212.350992 1423.41296 1206.997291 1421.804269 
z
" style="fill:#1f77b4;stroke:#000000;stroke-linecap:round;"/>
   </g>
   <g id="matplotlib.axis_41">
    <g id="text_41">
     <!-- $x_{7}$ -->
     <g transform="translate(1187.609375 1497.953125)scale(0.2 -0.2)">
      <use transform="translate(0 0.3125)" xlink:href="#DejaVuSans-Oblique-78"/>
      <use transform="translate(59.179688 -16.09375)scale(0.7)" xlink:href="#DejaVuSans-37"/>
     </g>
    </g>
   </g>
   <g id="matplotlib.axis_42">
    <g id="text_42">
     <!-- $x_{6}$ -->
     <g transform="translate(1101.434375 1400.740625)rotate(-90)scale(0.2 -0.2)">
      <use transform="translate(0 0.3125)" xlink:href="#DejaVuSans-Oblique-78"/>
      <use transform="translate(59.179688 -16.09375)scale(0.7)" xlink:href="#DejaVuSans-36"/>
     </g>
    </g>
   </g>
   <g id="line2d_21">
    <path clip-path="url(#pd29b746efb)" d="M 1121.058497 1312.811355 
L 1133.208662 1328.807686 
L 1144.65258 1343.476981 
L 1155.449478 1356.926283 
L 1165.653784 1369.254494 
L 1175.315497 1380.552937 
L 1184.480528 1390.905872 
L 1193.191013 1400.390986 
L 1201.485612 1409.079868 
L 1209.399782 1417.038444 
L 1216.966034 1424.327395 
L 1224.214166 1431.002544 
L 1231.171478 1437.115212 
L 1237.862982 1442.712567 
L 1244.311578 1447.837937 
L 1251.14945 1452.978083 
L 1257.744178 1457.643592 
L 1264.118832 1461.878486 
L 1270.294336 1465.722783 
L 1276.826355 1469.51373 
L 1278.959943 1470.691193 
L 1278.959943 1470.691193 
" style="fill:none;stroke:#1f77b4;stroke-linecap:square;stroke-width:1.5;"/>
   </g>
   <g id="patch_124">
    <path d="M 1109.59375 1478.75625 
L 1109.59375 1301.325 
" style="fill:none;stroke:#000000;stroke-linecap:square;stroke-linejoin:miter;stroke-width:0.8;"/>
   </g>
   <g id="patch_125">
    <path d="M 1287.025 1478.75625 
L 1287.025 1301.325 
" style="fill:none;stroke:#000000;stroke-linecap:square;stroke-linejoin:miter;stroke-width:0.8;"/>
   </g>
   <g id="patch_126">
    <path d="M 1109.59375 1478.75625 
L 1287.025 1478.75625 
" style="fill:none;stroke:#000000;stroke-linecap:square;stroke-linejoin:miter;stroke-width:0.8;"/>
   </g>
   <g id="patch_127">
    <path d="M 1109.59375 1301.325 
L 1287.025 1301.325 
" style="fill:none;stroke:#000000;stroke-linecap:square;stroke-linejoin:miter;stroke-width:0.8;"/>
   </g>
  </g>
  <g id="axes_22">
   <g id="patch_128">
    <path d="M 34.15625 1693.84375 
L 211.5875 1693.84375 
L 211.5875 1516.4125 
L 34.15625 1516.4125 
z
" style="fill:#ffffff;"/>
   </g>
   <g id="PathCollection_22">
    <g clip-path="url(#p10b17dbf1e)">
     <use style="fill:#1f77b4;stroke:#1f77b4;" x="45.620997" xlink:href="#md1b1659184" y="1527.898855"/>
    </g>
   </g>
   <g id="patch_129">
    <path clip-path="url(#p10b17dbf1e)" d="M 152.457523 1606.968018 
Q 153.944418 1612.356816 155.431314 1617.745613 
Q 150.228139 1615.701851 145.024963 1613.658089 
z
" style="fill:#1f77b4;stroke:#000000;stroke-linecap:round;"/>
   </g>
   <g id="matplotlib.axis_43">
    <g id="text_43">
     <!-- $x_{8}$ -->
     <defs>
      <path d="M 31.78125 34.625 
Q 24.75 34.625 20.71875 30.859375 
Q 16.703125 27.09375 16.703125 20.515625 
Q 16.703125 13.921875 20.71875 10.15625 
Q 24.75 6.390625 31.78125 6.390625 
Q 38.8125 6.390625 42.859375 10.171875 
Q 46.921875 13.96875 46.921875 20.515625 
Q 46.921875 27.09375 42.890625 30.859375 
Q 38.875 34.625 31.78125 34.625 
z
M 21.921875 38.8125 
Q 15.578125 40.375 12.03125 44.71875 
Q 8.5 49.078125 8.5 55.328125 
Q 8.5 64.0625 14.71875 69.140625 
Q 20.953125 74.21875 31.78125 74.21875 
Q 42.671875 74.21875 48.875 69.140625 
Q 55.078125 64.0625 55.078125 55.328125 
Q 55.078125 49.078125 51.53125 44.71875 
Q 48 40.375 41.703125 38.8125 
Q 48.828125 37.15625 52.796875 32.3125 
Q 56.78125 27.484375 56.78125 20.515625 
Q 56.78125 9.90625 50.3125 4.234375 
Q 43.84375 -1.421875 31.78125 -1.421875 
Q 19.734375 -1.421875 13.25 4.234375 
Q 6.78125 9.90625 6.78125 20.515625 
Q 6.78125 27.484375 10.78125 32.3125 
Q 14.796875 37.15625 21.921875 38.8125 
z
M 18.3125 54.390625 
Q 18.3125 48.734375 21.84375 45.5625 
Q 25.390625 42.390625 31.78125 42.390625 
Q 38.140625 42.390625 41.71875 45.5625 
Q 45.3125 48.734375 45.3125 54.390625 
Q 45.3125 60.0625 41.71875 63.234375 
Q 38.140625 66.40625 31.78125 66.40625 
Q 25.390625 66.40625 21.84375 63.234375 
Q 18.3125 60.0625 18.3125 54.390625 
z
" id="DejaVuSans-38"/>
     </defs>
     <g transform="translate(112.171875 1713.040625)scale(0.2 -0.2)">
      <use transform="translate(0 0.3125)" xlink:href="#DejaVuSans-Oblique-78"/>
      <use transform="translate(59.179688 -16.09375)scale(0.7)" xlink:href="#DejaVuSans-38"/>
     </g>
    </g>
   </g>
   <g id="matplotlib.axis_44">
    <g id="text_44">
     <!-- $x_{1}$ -->
     <g transform="translate(25.996875 1615.828125)rotate(-90)scale(0.2 -0.2)">
      <use transform="translate(0 0.3125)" xlink:href="#DejaVuSans-Oblique-78"/>
      <use transform="translate(59.179688 -16.09375)scale(0.7)" xlink:href="#DejaVuSans-31"/>
     </g>
    </g>
   </g>
   <g id="line2d_22">
    <path clip-path="url(#p10b17dbf1e)" d="M 45.620997 1527.898855 
L 56.568583 1534.908878 
L 66.887982 1541.793438 
L 76.61628 1548.554778 
L 85.788453 1555.195104 
L 94.437472 1561.716583 
L 102.594398 1568.12134 
L 111.35153 1575.300818 
L 119.545126 1582.333631 
L 127.213475 1589.222773 
L 134.392329 1595.971182 
L 141.115056 1602.58173 
L 147.4128 1609.057236 
L 154.025875 1616.184193 
L 160.176234 1623.147569 
L 165.89941 1629.951119 
L 171.797341 1637.327625 
L 177.249842 1644.516252 
L 182.29489 1651.521785 
L 187.415251 1659.021959 
L 192.126809 1666.31227 
L 196.845341 1674.032884 
L 201.167749 1681.518131 
L 203.522443 1685.778693 
L 203.522443 1685.778693 
" style="fill:none;stroke:#1f77b4;stroke-linecap:square;stroke-width:1.5;"/>
   </g>
   <g id="patch_130">
    <path d="M 34.15625 1693.84375 
L 34.15625 1516.4125 
" style="fill:none;stroke:#000000;stroke-linecap:square;stroke-linejoin:miter;stroke-width:0.8;"/>
   </g>
   <g id="patch_131">
    <path d="M 211.5875 1693.84375 
L 211.5875 1516.4125 
" style="fill:none;stroke:#000000;stroke-linecap:square;stroke-linejoin:miter;stroke-width:0.8;"/>
   </g>
   <g id="patch_132">
    <path d="M 34.15625 1693.84375 
L 211.5875 1693.84375 
" style="fill:none;stroke:#000000;stroke-linecap:square;stroke-linejoin:miter;stroke-width:0.8;"/>
   </g>
   <g id="patch_133">
    <path d="M 34.15625 1516.4125 
L 211.5875 1516.4125 
" style="fill:none;stroke:#000000;stroke-linecap:square;stroke-linejoin:miter;stroke-width:0.8;"/>
   </g>
  </g>
  <g id="axes_23">
   <g id="patch_134">
    <path d="M 249.24375 1693.84375 
L 426.675 1693.84375 
L 426.675 1516.4125 
L 249.24375 1516.4125 
z
" style="fill:#ffffff;"/>
   </g>
   <g id="PathCollection_23">
    <g clip-path="url(#p1940721552)">
     <use style="fill:#1f77b4;stroke:#1f77b4;" x="260.708497" xlink:href="#md1b1659184" y="1682.357395"/>
    </g>
   </g>
   <g id="patch_135">
    <path clip-path="url(#p1940721552)" d="M 360.135091 1606.541482 
Q 365.326953 1604.469147 370.518814 1602.396811 
Q 369.061566 1607.793702 367.604317 1613.190592 
z
" style="fill:#1f77b4;stroke:#000000;stroke-linecap:round;"/>
   </g>
   <g id="matplotlib.axis_45">
    <g id="text_45">
     <!-- $x_{8}$ -->
     <g transform="translate(327.259375 1713.040625)scale(0.2 -0.2)">
      <use transform="translate(0 0.3125)" xlink:href="#DejaVuSans-Oblique-78"/>
      <use transform="translate(59.179688 -16.09375)scale(0.7)" xlink:href="#DejaVuSans-38"/>
     </g>
    </g>
   </g>
   <g id="matplotlib.axis_46">
    <g id="text_46">
     <!-- $x_{2}$ -->
     <g transform="translate(241.084375 1615.828125)rotate(-90)scale(0.2 -0.2)">
      <use transform="translate(0 0.3125)" xlink:href="#DejaVuSans-Oblique-78"/>
      <use transform="translate(59.179688 -16.09375)scale(0.7)" xlink:href="#DejaVuSans-32"/>
     </g>
    </g>
   </g>
   <g id="line2d_23">
    <path clip-path="url(#p1940721552)" d="M 260.708497 1682.357395 
L 270.131495 1677.594028 
L 279.088979 1672.832336 
L 287.604599 1668.072317 
L 295.700841 1663.313971 
L 303.399092 1658.557299 
L 310.719674 1653.802298 
L 317.681898 1649.048969 
L 325.376021 1643.50553 
L 332.63492 1637.964365 
L 339.484573 1632.425473 
L 345.949449 1626.888852 
L 352.052584 1621.354501 
L 357.815665 1615.822421 
L 363.259105 1610.292609 
L 368.402116 1604.765065 
L 373.262776 1599.239788 
L 377.858094 1593.716777 
L 382.805456 1587.407537 
L 387.449483 1581.101255 
L 391.811028 1574.797929 
L 395.90953 1568.497557 
L 399.763104 1562.200138 
L 403.826585 1555.119069 
L 407.623713 1548.041734 
L 411.175081 1540.968131 
L 414.855881 1533.112946 
L 418.280682 1525.262362 
L 418.609943 1524.477557 
L 418.609943 1524.477557 
" style="fill:none;stroke:#1f77b4;stroke-linecap:square;stroke-width:1.5;"/>
   </g>
   <g id="patch_136">
    <path d="M 249.24375 1693.84375 
L 249.24375 1516.4125 
" style="fill:none;stroke:#000000;stroke-linecap:square;stroke-linejoin:miter;stroke-width:0.8;"/>
   </g>
   <g id="patch_137">
    <path d="M 426.675 1693.84375 
L 426.675 1516.4125 
" style="fill:none;stroke:#000000;stroke-linecap:square;stroke-linejoin:miter;stroke-width:0.8;"/>
   </g>
   <g id="patch_138">
    <path d="M 249.24375 1693.84375 
L 426.675 1693.84375 
" style="fill:none;stroke:#000000;stroke-linecap:square;stroke-linejoin:miter;stroke-width:0.8;"/>
   </g>
   <g id="patch_139">
    <path d="M 249.24375 1516.4125 
L 426.675 1516.4125 
" style="fill:none;stroke:#000000;stroke-linecap:square;stroke-linejoin:miter;stroke-width:0.8;"/>
   </g>
  </g>
  <g id="axes_24">
   <g id="patch_140">
    <path d="M 464.33125 1693.84375 
L 641.7625 1693.84375 
L 641.7625 1516.4125 
L 464.33125 1516.4125 
z
" style="fill:#ffffff;"/>
   </g>
   <g id="PathCollection_24">
    <g clip-path="url(#p2a4c76690c)">
     <use style="fill:#1f77b4;stroke:#1f77b4;" x="475.795997" xlink:href="#md1b1659184" y="1682.357395"/>
    </g>
   </g>
   <g id="patch_141">
    <path clip-path="url(#p2a4c76690c)" d="M 575.203151 1597.343436 
Q 580.404733 1595.29562 585.606314 1593.247804 
Q 584.123618 1598.637759 582.640922 1604.027714 
z
" style="fill:#1f77b4;stroke:#000000;stroke-linecap:round;"/>
   </g>
   <g id="matplotlib.axis_47">
    <g id="text_47">
     <!-- $x_{8}$ -->
     <g transform="translate(542.346875 1713.040625)scale(0.2 -0.2)">
      <use transform="translate(0 0.3125)" xlink:href="#DejaVuSans-Oblique-78"/>
      <use transform="translate(59.179688 -16.09375)scale(0.7)" xlink:href="#DejaVuSans-38"/>
     </g>
    </g>
   </g>
   <g id="matplotlib.axis_48">
    <g id="text_48">
     <!-- $x_{3}$ -->
     <g transform="translate(456.171875 1615.828125)rotate(-90)scale(0.2 -0.2)">
      <use transform="translate(0 0.3125)" xlink:href="#DejaVuSans-Oblique-78"/>
      <use transform="translate(59.179688 -16.09375)scale(0.7)" xlink:href="#DejaVuSans-33"/>
     </g>
    </g>
   </g>
   <g id="line2d_24">
    <path clip-path="url(#p2a4c76690c)" d="M 475.795997 1682.357395 
L 486.743583 1675.463946 
L 497.062982 1668.684865 
L 506.79128 1662.018255 
L 515.963453 1655.462249 
L 524.612472 1649.015012 
L 532.769398 1642.674741 
L 540.463521 1636.43966 
L 548.725411 1629.44042 
L 556.45741 1622.573735 
L 563.695579 1615.837093 
L 570.473574 1609.228032 
L 576.822811 1602.744137 
L 583.489616 1595.596415 
L 589.689582 1588.6008 
L 595.458553 1581.754053 
L 600.829664 1575.053007 
L 606.368105 1567.774515 
L 611.491763 1560.667917 
L 616.236033 1553.729153 
L 621.055128 1546.285634 
L 625.493629 1539.035254 
L 629.943381 1531.340139 
L 633.697443 1524.477557 
L 633.697443 1524.477557 
" style="fill:none;stroke:#1f77b4;stroke-linecap:square;stroke-width:1.5;"/>
   </g>
   <g id="patch_142">
    <path d="M 464.33125 1693.84375 
L 464.33125 1516.4125 
" style="fill:none;stroke:#000000;stroke-linecap:square;stroke-linejoin:miter;stroke-width:0.8;"/>
   </g>
   <g id="patch_143">
    <path d="M 641.7625 1693.84375 
L 641.7625 1516.4125 
" style="fill:none;stroke:#000000;stroke-linecap:square;stroke-linejoin:miter;stroke-width:0.8;"/>
   </g>
   <g id="patch_144">
    <path d="M 464.33125 1693.84375 
L 641.7625 1693.84375 
" style="fill:none;stroke:#000000;stroke-linecap:square;stroke-linejoin:miter;stroke-width:0.8;"/>
   </g>
   <g id="patch_145">
    <path d="M 464.33125 1516.4125 
L 641.7625 1516.4125 
" style="fill:none;stroke:#000000;stroke-linecap:square;stroke-linejoin:miter;stroke-width:0.8;"/>
   </g>
  </g>
  <g id="axes_25">
   <g id="patch_146">
    <path d="M 679.41875 1693.84375 
L 856.85 1693.84375 
L 856.85 1516.4125 
L 679.41875 1516.4125 
z
" style="fill:#ffffff;"/>
   </g>
   <g id="PathCollection_25">
    <g clip-path="url(#pe5d0102ae4)">
     <use style="fill:#1f77b4;stroke:#1f77b4;" x="690.883497" xlink:href="#md1b1659184" y="1527.898855"/>
    </g>
   </g>
   <g id="patch_147">
    <path clip-path="url(#pe5d0102ae4)" d="M 797.006141 1629.279914 
Q 798.849978 1634.55725 800.693814 1639.834585 
Q 795.365644 1638.143253 790.037474 1636.451921 
z
" style="fill:#1f77b4;stroke:#000000;stroke-linecap:round;"/>
   </g>
   <g id="matplotlib.axis_49">
    <g id="text_49">
     <!-- $x_{8}$ -->
     <g transform="translate(757.434375 1713.040625)scale(0.2 -0.2)">
      <use transform="translate(0 0.3125)" xlink:href="#DejaVuSans-Oblique-78"/>
      <use transform="translate(59.179688 -16.09375)scale(0.7)" xlink:href="#DejaVuSans-38"/>
     </g>
    </g>
   </g>
   <g id="matplotlib.axis_50">
    <g id="text_50">
     <!-- $x_{4}$ -->
     <g transform="translate(671.259375 1615.828125)rotate(-90)scale(0.2 -0.2)">
      <use transform="translate(0 0.3125)" xlink:href="#DejaVuSans-Oblique-78"/>
      <use transform="translate(59.179688 -16.09375)scale(0.7)" xlink:href="#DejaVuSans-34"/>
     </g>
    </g>
   </g>
   <g id="line2d_25">
    <path clip-path="url(#pe5d0102ae4)" d="M 690.883497 1527.898855 
L 710.713313 1548.902271 
L 729.773421 1568.767146 
L 748.983732 1588.461549 
L 767.742835 1607.372961 
L 786.377556 1625.846882 
L 805.438734 1644.433214 
L 826.08453 1664.248993 
L 848.784943 1685.778693 
L 848.784943 1685.778693 
" style="fill:none;stroke:#1f77b4;stroke-linecap:square;stroke-width:1.5;"/>
   </g>
   <g id="patch_148">
    <path d="M 679.41875 1693.84375 
L 679.41875 1516.4125 
" style="fill:none;stroke:#000000;stroke-linecap:square;stroke-linejoin:miter;stroke-width:0.8;"/>
   </g>
   <g id="patch_149">
    <path d="M 856.85 1693.84375 
L 856.85 1516.4125 
" style="fill:none;stroke:#000000;stroke-linecap:square;stroke-linejoin:miter;stroke-width:0.8;"/>
   </g>
   <g id="patch_150">
    <path d="M 679.41875 1693.84375 
L 856.85 1693.84375 
" style="fill:none;stroke:#000000;stroke-linecap:square;stroke-linejoin:miter;stroke-width:0.8;"/>
   </g>
   <g id="patch_151">
    <path d="M 679.41875 1516.4125 
L 856.85 1516.4125 
" style="fill:none;stroke:#000000;stroke-linecap:square;stroke-linejoin:miter;stroke-width:0.8;"/>
   </g>
  </g>
  <g id="axes_26">
   <g id="patch_152">
    <path d="M 894.50625 1693.84375 
L 1071.9375 1693.84375 
L 1071.9375 1516.4125 
L 894.50625 1516.4125 
z
" style="fill:#ffffff;"/>
   </g>
   <g id="PathCollection_26">
    <g clip-path="url(#p9128675ba0)">
     <use style="fill:#1f77b4;stroke:#1f77b4;" x="905.970997" xlink:href="#md1b1659184" y="1682.357395"/>
    </g>
   </g>
   <g id="patch_153">
    <path clip-path="url(#p9128675ba0)" d="M 1005.394039 1603.611803 
Q 1010.587677 1601.543922 1015.781314 1599.476042 
Q 1014.319436 1604.87168 1012.857558 1610.267318 
z
" style="fill:#1f77b4;stroke:#000000;stroke-linecap:round;"/>
   </g>
   <g id="matplotlib.axis_51">
    <g id="text_51">
     <!-- $x_{8}$ -->
     <g transform="translate(972.521875 1713.040625)scale(0.2 -0.2)">
      <use transform="translate(0 0.3125)" xlink:href="#DejaVuSans-Oblique-78"/>
      <use transform="translate(59.179688 -16.09375)scale(0.7)" xlink:href="#DejaVuSans-38"/>
     </g>
    </g>
   </g>
   <g id="matplotlib.axis_52">
    <g id="text_52">
     <!-- $x_{5}$ -->
     <g transform="translate(886.346875 1615.828125)rotate(-90)scale(0.2 -0.2)">
      <use transform="translate(0 0.3125)" xlink:href="#DejaVuSans-Oblique-78"/>
      <use transform="translate(59.179688 -16.09375)scale(0.7)" xlink:href="#DejaVuSans-35"/>
     </g>
    </g>
   </g>
   <g id="line2d_26">
    <path clip-path="url(#p9128675ba0)" d="M 905.970997 1682.357395 
L 915.393995 1677.238312 
L 924.351479 1672.144907 
L 932.867099 1667.076971 
L 940.963341 1662.034299 
L 949.907382 1656.182842 
L 958.341807 1650.365176 
L 966.296903 1644.580986 
L 973.80122 1638.829961 
L 980.881637 1633.111793 
L 987.563475 1627.426179 
L 993.870579 1621.772818 
L 999.825396 1616.151415 
L 1005.44906 1610.561676 
L 1010.761461 1605.003314 
L 1016.475595 1598.688953 
L 1021.833771 1592.414779 
L 1026.8604 1586.180378 
L 1031.578248 1579.98534 
L 1036.008538 1573.829263 
L 1040.673471 1566.949749 
L 1045.025604 1560.118483 
L 1049.089085 1553.334913 
L 1053.292585 1545.852895 
L 1057.195341 1538.428362 
L 1060.823091 1531.060596 
L 1063.872443 1524.477557 
L 1063.872443 1524.477557 
" style="fill:none;stroke:#1f77b4;stroke-linecap:square;stroke-width:1.5;"/>
   </g>
   <g id="patch_154">
    <path d="M 894.50625 1693.84375 
L 894.50625 1516.4125 
" style="fill:none;stroke:#000000;stroke-linecap:square;stroke-linejoin:miter;stroke-width:0.8;"/>
   </g>
   <g id="patch_155">
    <path d="M 1071.9375 1693.84375 
L 1071.9375 1516.4125 
" style="fill:none;stroke:#000000;stroke-linecap:square;stroke-linejoin:miter;stroke-width:0.8;"/>
   </g>
   <g id="patch_156">
    <path d="M 894.50625 1693.84375 
L 1071.9375 1693.84375 
" style="fill:none;stroke:#000000;stroke-linecap:square;stroke-linejoin:miter;stroke-width:0.8;"/>
   </g>
   <g id="patch_157">
    <path d="M 894.50625 1516.4125 
L 1071.9375 1516.4125 
" style="fill:none;stroke:#000000;stroke-linecap:square;stroke-linejoin:miter;stroke-width:0.8;"/>
   </g>
  </g>
  <g id="axes_27">
   <g id="patch_158">
    <path d="M 1109.59375 1693.84375 
L 1287.025 1693.84375 
L 1287.025 1516.4125 
L 1109.59375 1516.4125 
z
" style="fill:#ffffff;"/>
   </g>
   <g id="PathCollection_27">
    <g clip-path="url(#p5c3aedea44)">
     <use style="fill:#1f77b4;stroke:#1f77b4;" x="1121.058497" xlink:href="#md1b1659184" y="1527.898855"/>
    </g>
   </g>
   <g id="patch_159">
    <path clip-path="url(#p5c3aedea44)" d="M 1227.292416 1629.516258 
Q 1229.080615 1634.812704 1230.868814 1640.10915 
Q 1225.558738 1638.361842 1220.248661 1636.614533 
z
" style="fill:#1f77b4;stroke:#000000;stroke-linecap:round;"/>
   </g>
   <g id="matplotlib.axis_53">
    <g id="text_53">
     <!-- $x_{8}$ -->
     <g transform="translate(1187.609375 1713.040625)scale(0.2 -0.2)">
      <use transform="translate(0 0.3125)" xlink:href="#DejaVuSans-Oblique-78"/>
      <use transform="translate(59.179688 -16.09375)scale(0.7)" xlink:href="#DejaVuSans-38"/>
     </g>
    </g>
   </g>
   <g id="matplotlib.axis_54">
    <g id="text_54">
     <!-- $x_{6}$ -->
     <g transform="translate(1101.434375 1615.828125)rotate(-90)scale(0.2 -0.2)">
      <use transform="translate(0 0.3125)" xlink:href="#DejaVuSans-Oblique-78"/>
      <use transform="translate(59.179688 -16.09375)scale(0.7)" xlink:href="#DejaVuSans-36"/>
     </g>
    </g>
   </g>
   <g id="line2d_27">
    <path clip-path="url(#p5c3aedea44)" d="M 1121.058497 1527.898855 
L 1166.230275 1574.566085 
L 1196.947516 1605.993372 
L 1219.752688 1629.026154 
L 1238.208094 1647.356008 
L 1252.687342 1661.434952 
L 1264.611251 1672.731092 
L 1274.490937 1681.795802 
L 1278.959943 1685.778693 
L 1278.959943 1685.778693 
" style="fill:none;stroke:#1f77b4;stroke-linecap:square;stroke-width:1.5;"/>
   </g>
   <g id="patch_160">
    <path d="M 1109.59375 1693.84375 
L 1109.59375 1516.4125 
" style="fill:none;stroke:#000000;stroke-linecap:square;stroke-linejoin:miter;stroke-width:0.8;"/>
   </g>
   <g id="patch_161">
    <path d="M 1287.025 1693.84375 
L 1287.025 1516.4125 
" style="fill:none;stroke:#000000;stroke-linecap:square;stroke-linejoin:miter;stroke-width:0.8;"/>
   </g>
   <g id="patch_162">
    <path d="M 1109.59375 1693.84375 
L 1287.025 1693.84375 
" style="fill:none;stroke:#000000;stroke-linecap:square;stroke-linejoin:miter;stroke-width:0.8;"/>
   </g>
   <g id="patch_163">
    <path d="M 1109.59375 1516.4125 
L 1287.025 1516.4125 
" style="fill:none;stroke:#000000;stroke-linecap:square;stroke-linejoin:miter;stroke-width:0.8;"/>
   </g>
  </g>
  <g id="axes_28">
   <g id="patch_164">
    <path d="M 1324.68125 1693.84375 
L 1502.1125 1693.84375 
L 1502.1125 1516.4125 
L 1324.68125 1516.4125 
z
" style="fill:#ffffff;"/>
   </g>
   <g id="PathCollection_28">
    <g clip-path="url(#p64010cf688)">
     <use style="fill:#1f77b4;stroke:#1f77b4;" x="1336.145997" xlink:href="#md1b1659184" y="1682.357395"/>
    </g>
   </g>
   <g id="patch_165">
    <path clip-path="url(#p64010cf688)" d="M 1435.44496 1589.533811 
Q 1440.700637 1587.629118 1445.956314 1585.724424 
Q 1444.326663 1591.071782 1442.697011 1596.41914 
z
" style="fill:#1f77b4;stroke:#000000;stroke-linecap:round;"/>
   </g>
   <g id="matplotlib.axis_55">
    <g id="text_55">
     <!-- $x_{8}$ -->
     <g transform="translate(1402.696875 1713.040625)scale(0.2 -0.2)">
      <use transform="translate(0 0.3125)" xlink:href="#DejaVuSans-Oblique-78"/>
      <use transform="translate(59.179688 -16.09375)scale(0.7)" xlink:href="#DejaVuSans-38"/>
     </g>
    </g>
   </g>
   <g id="matplotlib.axis_56">
    <g id="text_56">
     <!-- $x_{7}$ -->
     <g transform="translate(1316.521875 1615.828125)rotate(-90)scale(0.2 -0.2)">
      <use transform="translate(0 0.3125)" xlink:href="#DejaVuSans-Oblique-78"/>
      <use transform="translate(59.179688 -16.09375)scale(0.7)" xlink:href="#DejaVuSans-37"/>
     </g>
    </g>
   </g>
   <g id="line2d_28">
    <path clip-path="url(#p64010cf688)" d="M 1336.145997 1682.357395 
L 1351.590891 1670.208893 
L 1365.786365 1658.766541 
L 1378.836592 1647.97112 
L 1390.837322 1637.76821 
L 1401.87653 1628.10782 
L 1412.035016 1618.944043 
L 1421.386949 1610.23475 
L 1430.823574 1601.133419 
L 1439.449281 1592.488317 
L 1447.339316 1584.256731 
L 1454.562069 1576.399855 
L 1461.179664 1568.882445 
L 1467.248528 1561.672504 
L 1473.30335 1554.123727 
L 1478.826133 1546.872283 
L 1483.870952 1539.887544 
L 1488.486429 1533.141979 
L 1493.052621 1526.075559 
L 1494.047443 1524.477557 
L 1494.047443 1524.477557 
" style="fill:none;stroke:#1f77b4;stroke-linecap:square;stroke-width:1.5;"/>
   </g>
   <g id="patch_166">
    <path d="M 1324.68125 1693.84375 
L 1324.68125 1516.4125 
" style="fill:none;stroke:#000000;stroke-linecap:square;stroke-linejoin:miter;stroke-width:0.8;"/>
   </g>
   <g id="patch_167">
    <path d="M 1502.1125 1693.84375 
L 1502.1125 1516.4125 
" style="fill:none;stroke:#000000;stroke-linecap:square;stroke-linejoin:miter;stroke-width:0.8;"/>
   </g>
   <g id="patch_168">
    <path d="M 1324.68125 1693.84375 
L 1502.1125 1693.84375 
" style="fill:none;stroke:#000000;stroke-linecap:square;stroke-linejoin:miter;stroke-width:0.8;"/>
   </g>
   <g id="patch_169">
    <path d="M 1324.68125 1516.4125 
L 1502.1125 1516.4125 
" style="fill:none;stroke:#000000;stroke-linecap:square;stroke-linejoin:miter;stroke-width:0.8;"/>
   </g>
  </g>
 </g>
 <defs>
  <clipPath id="p8e06c808c0">
   <rect height="177.43125" width="177.43125" x="34.15625" y="225.8875"/>
  </clipPath>
  <clipPath id="p26a53e38c8">
   <rect height="177.43125" width="177.43125" x="34.15625" y="440.975"/>
  </clipPath>
  <clipPath id="pad8155af08">
   <rect height="177.43125" width="177.43125" x="249.24375" y="440.975"/>
  </clipPath>
  <clipPath id="p37a56c09d7">
   <rect height="177.43125" width="177.43125" x="34.15625" y="656.0625"/>
  </clipPath>
  <clipPath id="p9f4c98966d">
   <rect height="177.43125" width="177.43125" x="249.24375" y="656.0625"/>
  </clipPath>
  <clipPath id="pc84d86a368">
   <rect height="177.43125" width="177.43125" x="464.33125" y="656.0625"/>
  </clipPath>
  <clipPath id="pfc0c264926">
   <rect height="177.43125" width="177.43125" x="34.15625" y="871.15"/>
  </clipPath>
  <clipPath id="pf523008256">
   <rect height="177.43125" width="177.43125" x="249.24375" y="871.15"/>
  </clipPath>
  <clipPath id="p8e20faff74">
   <rect height="177.43125" width="177.43125" x="464.33125" y="871.15"/>
  </clipPath>
  <clipPath id="p2af55b2093">
   <rect height="177.43125" width="177.43125" x="679.41875" y="871.15"/>
  </clipPath>
  <clipPath id="p03a4cea1d7">
   <rect height="177.43125" width="177.43125" x="34.15625" y="1086.2375"/>
  </clipPath>
  <clipPath id="p10aad8e55a">
   <rect height="177.43125" width="177.43125" x="249.24375" y="1086.2375"/>
  </clipPath>
  <clipPath id="p7f1bf9d689">
   <rect height="177.43125" width="177.43125" x="464.33125" y="1086.2375"/>
  </clipPath>
  <clipPath id="p7bc45fe0d8">
   <rect height="177.43125" width="177.43125" x="679.41875" y="1086.2375"/>
  </clipPath>
  <clipPath id="pab3602526f">
   <rect height="177.43125" width="177.43125" x="894.50625" y="1086.2375"/>
  </clipPath>
  <clipPath id="p6a22dc41d9">
   <rect height="177.43125" width="177.43125" x="34.15625" y="1301.325"/>
  </clipPath>
  <clipPath id="p64af0d9739">
   <rect height="177.43125" width="177.43125" x="249.24375" y="1301.325"/>
  </clipPath>
  <clipPath id="pcc8664be04">
   <rect height="177.43125" width="177.43125" x="464.33125" y="1301.325"/>
  </clipPath>
  <clipPath id="pd69a24ec16">
   <rect height="177.43125" width="177.43125" x="679.41875" y="1301.325"/>
  </clipPath>
  <clipPath id="p5c7099128f">
   <rect height="177.43125" width="177.43125" x="894.50625" y="1301.325"/>
  </clipPath>
  <clipPath id="pd29b746efb">
   <rect height="177.43125" width="177.43125" x="1109.59375" y="1301.325"/>
  </clipPath>
  <clipPath id="p10b17dbf1e">
   <rect height="177.43125" width="177.43125" x="34.15625" y="1516.4125"/>
  </clipPath>
  <clipPath id="p1940721552">
   <rect height="177.43125" width="177.43125" x="249.24375" y="1516.4125"/>
  </clipPath>
  <clipPath id="p2a4c76690c">
   <rect height="177.43125" width="177.43125" x="464.33125" y="1516.4125"/>
  </clipPath>
  <clipPath id="pe5d0102ae4">
   <rect height="177.43125" width="177.43125" x="679.41875" y="1516.4125"/>
  </clipPath>
  <clipPath id="p9128675ba0">
   <rect height="177.43125" width="177.43125" x="894.50625" y="1516.4125"/>
  </clipPath>
  <clipPath id="p5c3aedea44">
   <rect height="177.43125" width="177.43125" x="1109.59375" y="1516.4125"/>
  </clipPath>
  <clipPath id="p64010cf688">
   <rect height="177.43125" width="177.43125" x="1324.68125" y="1516.4125"/>
  </clipPath>
 </defs>
</svg>
