<?xml version="1.0" encoding="utf-8" standalone="no"?>
<!DOCTYPE svg PUBLIC "-//W3C//DTD SVG 1.1//EN"
  "http://www.w3.org/Graphics/SVG/1.1/DTD/svg11.dtd">
<!-- Created with matplotlib (http://matplotlib.org/) -->
<svg height="216pt" version="1.1" viewBox="0 0 216 216" width="216pt" xmlns="http://www.w3.org/2000/svg" xmlns:xlink="http://www.w3.org/1999/xlink">
 <defs>
  <style type="text/css">
*{stroke-linecap:butt;stroke-linejoin:round;}
  </style>
 </defs>
 <g id="figure_1">
  <g id="patch_1">
   <path d="M 0 216 
L 216 216 
L 216 0 
L 0 0 
z
" style="fill:none;"/>
  </g>
  <g id="axes_1">
   <g id="patch_2">
    <path clip-path="url(#p537ad713ba)" d="M 60.48 125.712 
C 64.9195 125.712 69.177767 123.959548 72.316968 120.8406 
C 75.456168 117.721652 77.22 113.490858 77.22 109.08 
C 77.22 104.669142 75.456168 100.438348 72.316968 97.3194 
C 69.177767 94.200452 64.9195 92.448 60.48 92.448 
C 56.0405 92.448 51.782233 94.200452 48.643032 97.3194 
C 45.503832 100.438348 43.74 104.669142 43.74 109.08 
C 43.74 113.490858 45.503832 117.721652 48.643032 120.8406 
C 51.782233 123.959548 56.0405 125.712 60.48 125.712 
z
" style="fill:#0000ff;opacity:0.3;stroke:#0000ff;stroke-linejoin:miter;"/>
   </g>
   <g id="patch_3">
    <path clip-path="url(#p537ad713ba)" d="M 33.956356 92.55677 
Q 35.97429 94.163579 38.15184 95.490024 
L 39.322352 93.568461 
Q 41.251244 96.956495 44.102154 100.085712 
Q 39.888586 100.482237 35.420648 99.973671 
L 36.591159 98.052108 
Q 34.252829 96.627725 32.087621 94.903646 
L 33.956356 92.55677 
z
" style="fill:#0000ff;opacity:0.5;stroke:#0000ff;stroke-linecap:round;"/>
   </g>
   <g id="patch_4">
    <path clip-path="url(#p537ad713ba)" d="M 44.641444 119.473992 
Q 42.235693 120.404721 39.991376 121.614771 
L 41.059176 123.595252 
Q 37.1608 123.549888 33.020367 124.431083 
Q 34.805253 120.593692 37.499842 116.99365 
L 38.567642 118.974131 
Q 40.977668 117.674736 43.558998 116.67608 
L 44.641444 119.473992 
z
" style="fill:#0000ff;opacity:0.5;stroke:#0000ff;stroke-linecap:round;"/>
   </g>
   <g id="patch_5">
    <path clip-path="url(#p537ad713ba)" d="M 95.181167 78.258084 
C 99.620666 78.258084 103.878934 76.505632 107.018134 73.386684 
C 110.157335 70.267736 111.921167 66.036942 111.921167 61.626084 
C 111.921167 57.215226 110.157335 52.984432 107.018134 49.865484 
C 103.878934 46.746537 99.620666 44.994084 95.181167 44.994084 
C 90.741667 44.994084 86.4834 46.746537 83.344199 49.865484 
C 80.204999 52.984432 78.441167 57.215226 78.441167 61.626084 
C 78.441167 66.036942 80.204999 70.267736 83.344199 73.386684 
C 86.4834 76.505632 90.741667 78.258084 95.181167 78.258084 
z
" style="fill:#0000ff;opacity:0.3;stroke:#0000ff;stroke-linejoin:miter;"/>
   </g>
   <g id="patch_6">
    <path clip-path="url(#p537ad713ba)" d="M 102.792955 31.474186 
Q 101.892268 33.850995 101.299579 36.292642 
L 103.486082 36.823397 
Q 100.845624 39.688295 98.734258 43.355435 
Q 97.072066 39.465072 96.197736 35.054213 
L 98.38424 35.584968 
Q 99.020894 32.962204 99.987625 30.411112 
L 102.792955 31.474186 
z
" style="fill:#0000ff;opacity:0.5;stroke:#0000ff;stroke-linecap:round;"/>
   </g>
   <g id="patch_7">
    <path clip-path="url(#p537ad713ba)" d="M 80.347964 49.879997 
Q 78.71147 47.894414 76.861447 46.149088 
L 75.317441 47.785714 
Q 74.135528 44.072303 71.997412 40.420527 
Q 76.200156 40.906014 80.464127 42.330293 
L 78.920121 43.966919 
Q 80.906919 45.84128 82.663006 47.971966 
L 80.347964 49.879997 
z
" style="fill:#0000ff;opacity:0.5;stroke:#0000ff;stroke-linecap:round;"/>
   </g>
   <g id="patch_8">
    <path clip-path="url(#p537ad713ba)" d="M 151.328833 96.383867 
C 155.768333 96.383867 160.0266 94.631415 163.165801 91.512467 
C 166.305001 88.393519 168.068833 84.162725 168.068833 79.751867 
C 168.068833 75.341009 166.305001 71.110215 163.165801 67.991267 
C 160.0266 64.872319 155.768333 63.119867 151.328833 63.119867 
C 146.889334 63.119867 142.631066 64.872319 139.491866 67.991267 
C 136.352665 71.110215 134.588833 75.341009 134.588833 79.751867 
C 134.588833 84.162725 136.352665 88.393519 139.491866 91.512467 
C 142.631066 94.631415 146.889334 96.383867 151.328833 96.383867 
z
" style="fill:#0000ff;opacity:0.3;stroke:#0000ff;stroke-linejoin:miter;"/>
   </g>
   <g id="patch_9">
    <path clip-path="url(#p537ad713ba)" d="M 158.000419 62.087898 
Q 159.381474 59.94628 160.473633 57.676337 
L 158.446108 56.700815 
Q 161.627355 54.448415 164.45848 51.300959 
Q 165.271103 55.454671 165.204524 59.952554 
L 163.176999 58.977033 
Q 162.00389 61.415223 160.52165 63.713751 
L 158.000419 62.087898 
z
" style="fill:#0000ff;opacity:0.5;stroke:#0000ff;stroke-linecap:round;"/>
   </g>
   <g id="patch_10">
    <path clip-path="url(#p537ad713ba)" d="M 151.328833 155.040133 
C 155.768333 155.040133 160.0266 153.287681 163.165801 150.168733 
C 166.305001 147.049785 168.068833 142.818991 168.068833 138.408133 
C 168.068833 133.997275 166.305001 129.766481 163.165801 126.647533 
C 160.0266 123.528585 155.768333 121.776133 151.328833 121.776133 
C 146.889334 121.776133 142.631066 123.528585 139.491866 126.647533 
C 136.352665 129.766481 134.588833 133.997275 134.588833 138.408133 
C 134.588833 142.818991 136.352665 147.049785 139.491866 150.168733 
C 142.631066 153.287681 146.889334 155.040133 151.328833 155.040133 
z
" style="fill:#0000ff;opacity:0.3;stroke:#0000ff;stroke-linejoin:miter;"/>
   </g>
   <g id="patch_11">
    <path clip-path="url(#p537ad713ba)" d="M 170.275802 139.244744 
Q 172.785616 139.901397 175.328216 140.23392 
L 175.619988 138.002919 
Q 178.755087 140.318978 182.627065 142.02645 
Q 178.936162 144.094429 174.647414 145.439591 
L 174.939186 143.208589 
Q 172.209149 142.851553 169.516458 142.147052 
L 170.275802 139.244744 
z
" style="fill:#0000ff;opacity:0.5;stroke:#0000ff;stroke-linecap:round;"/>
   </g>
   <g id="patch_12">
    <path clip-path="url(#p537ad713ba)" d="M 95.181167 173.165916 
C 99.620666 173.165916 103.878934 171.413463 107.018134 168.294516 
C 110.157335 165.175568 111.921167 160.944774 111.921167 156.533916 
C 111.921167 152.123058 110.157335 147.892264 107.018134 144.773316 
C 103.878934 141.654368 99.620666 139.901916 95.181167 139.901916 
C 90.741667 139.901916 86.4834 141.654368 83.344199 144.773316 
C 80.204999 147.892264 78.441167 152.123058 78.441167 156.533916 
C 78.441167 160.944774 80.204999 165.175568 83.344199 168.294516 
C 86.4834 171.413463 90.741667 173.165916 95.181167 173.165916 
z
" style="fill:#0000ff;opacity:0.3;stroke:#0000ff;stroke-linejoin:miter;"/>
   </g>
   <g id="patch_13">
    <path clip-path="url(#p537ad713ba)" d="M 112.560359 68.89042 
Q 118.921206 72.524658 125.840681 74.625765 
L 126.494422 72.472831 
Q 129.317409 75.295841 132.695674 77.831541 
Q 128.637129 78.995803 124.315286 79.649276 
L 124.969027 77.496343 
Q 117.726289 75.297077 111.072107 71.495243 
L 112.560359 68.89042 
z
" style="fill:#0000ff;opacity:0.5;stroke:#0000ff;stroke-linecap:round;"/>
   </g>
   <g id="patch_14">
    <path clip-path="url(#p537ad713ba)" d="M 152.919177 119.722571 
Q 154.410054 112.626196 154.293932 105.469385 
L 152.044228 105.505887 
Q 153.867953 101.956581 155.245799 97.964448 
Q 157.598408 101.469531 159.543241 105.384212 
L 157.293537 105.420714 
Q 157.415116 112.913834 155.855084 120.339376 
L 152.919177 119.722571 
z
" style="fill:#0000ff;opacity:0.5;stroke:#0000ff;stroke-linecap:round;"/>
   </g>
   <g id="patch_15">
    <path clip-path="url(#p537ad713ba)" d="M 104.976737 77.628559 
Q 115.854287 100.889647 133.440487 119.332258 
L 135.068835 117.779525 
Q 136.228693 121.714313 137.652948 125.671232 
Q 133.63641 124.426826 129.641007 122.955303 
L 131.269356 121.40257 
Q 113.344571 102.604885 102.25919 78.899362 
L 104.976737 77.628559 
z
" style="fill:#0000ff;opacity:0.5;stroke:#0000ff;stroke-linecap:round;"/>
   </g>
   <g id="patch_16">
    <path clip-path="url(#p537ad713ba)" d="M 149.73849 98.437429 
Q 148.247612 105.533804 148.363735 112.690615 
L 150.613439 112.654113 
Q 148.789713 116.203419 147.411868 120.195552 
Q 145.059259 116.690469 143.114426 112.775788 
L 145.36413 112.739286 
Q 145.24255 105.246166 146.802582 97.820624 
L 149.73849 98.437429 
z
" style="fill:#0000ff;opacity:0.5;stroke:#0000ff;stroke-linecap:round;"/>
   </g>
   <g id="patch_17">
    <path clip-path="url(#p537ad713ba)" d="M 77.867358 116.300013 
Q 100.426486 128.807196 125.603406 133.434245 
L 126.010102 131.221307 
Q 129.259503 133.725908 132.735147 136.093719 
Q 128.752674 137.443525 124.654446 138.597769 
L 125.061143 136.38483 
Q 99.401283 131.669025 76.412711 118.923751 
L 77.867358 116.300013 
z
" style="fill:#0000ff;opacity:0.5;stroke:#0000ff;stroke-linecap:round;"/>
   </g>
   <g id="patch_18">
    <path clip-path="url(#p537ad713ba)" d="M 78.825951 104.76449 
Q 104.44165 101.720043 127.573238 90.751724 
L 126.609236 88.718697 
Q 130.709976 88.850464 134.914268 88.738964 
Q 132.472549 92.162697 129.822575 95.495455 
L 128.858573 93.462428 
Q 105.283308 104.641125 79.180012 107.743523 
L 78.825951 104.76449 
z
" style="fill:#0000ff;opacity:0.5;stroke:#0000ff;stroke-linecap:round;"/>
   </g>
   <g id="text_1">
    <!-- $C_{1}$ -->
    <defs>
     <path d="M 74.703125 69.109375 
C 74.703125 70 74 70 73.796875 70 
C 73.59375 70 73.203125 70 72.40625 69 
L 65.5 60.65625 
C 62 66.625 56.5 70 49 70 
C 27.40625 70 5 48.25 5 24.921875 
C 5 8.328125 16.703125 -2 31.296875 -2 
C 39.296875 -2 46.296875 1.375 52.09375 6.25 
C 60.796875 13.484375 63.40625 23.140625 63.40625 23.921875 
C 63.40625 24.8125 62.59375 24.8125 62.296875 24.8125 
C 61.40625 24.8125 61.296875 24.21875 61.09375 23.8125 
C 56.5 8.34375 43 0.890625 33 0.890625 
C 22.40625 0.890625 13.203125 7.640625 13.203125 21.734375 
C 13.203125 24.921875 14.203125 42.1875 25.5 55.1875 
C 31 61.546875 40.40625 67.109375 49.90625 67.109375 
C 60.90625 67.109375 65.796875 58.078125 65.796875 47.9375 
C 65.796875 45.359375 65.5 43.1875 65.5 42.78125 
C 65.5 41.890625 66.5 41.890625 66.796875 41.890625 
C 67.90625 41.890625 68 41.984375 68.40625 43.765625 
z
" id="CMMI12-67"/>
     <path d="M 26.59375 63.40625 
C 26.59375 65.5 26.5 65.5 25.09375 65.5 
C 21.203125 61.1875 15.296875 59.796875 9.703125 59.796875 
C 9.40625 59.796875 8.90625 59.796875 8.796875 59.5 
C 8.703125 59.296875 8.703125 59.09375 8.703125 57 
C 11.796875 57 17 57.59375 21 59.984375 
L 21 7.203125 
C 21 3.6875 20.796875 2.5 12.203125 2.5 
L 9.203125 2.5 
L 9.203125 0 
C 14 0 19 0 23.796875 0 
C 28.59375 0 33.59375 0 38.40625 0 
L 38.40625 2.5 
L 35.40625 2.5 
C 26.796875 2.5 26.59375 3.59375 26.59375 7.15625 
z
" id="CMR17-49"/>
    </defs>
    <g transform="translate(52.107101 113.065056)scale(0.16 -0.16)">
     <use transform="translate(0 14.943915)scale(0.996264)" xlink:href="#CMMI12-67"/>
     <use transform="translate(69.792037 0)scale(0.697382)" xlink:href="#CMR17-49"/>
    </g>
   </g>
   <g id="text_2">
    <!-- $C_{2}$ -->
    <defs>
     <path d="M 41.703125 15.453125 
L 39.90625 15.453125 
C 38.90625 8.375 38.09375 7.171875 37.703125 6.5625 
C 37.203125 5.765625 30 5.765625 28.59375 5.765625 
L 9.40625 5.765625 
C 13 9.671875 20 16.75 28.5 24.953125 
C 34.59375 30.734375 41.703125 37.53125 41.703125 47.421875 
C 41.703125 59.21875 32.296875 66 21.796875 66 
C 10.796875 66 4.09375 56.3125 4.09375 47.34375 
C 4.09375 43.4375 7 42.9375 8.203125 42.9375 
C 9.203125 42.9375 12.203125 43.546875 12.203125 47.03125 
C 12.203125 50.109375 9.59375 51 8.203125 51 
C 7.59375 51 7 50.90625 6.59375 50.703125 
C 8.5 59.21875 14.296875 63.40625 20.40625 63.40625 
C 29.09375 63.40625 34.796875 56.515625 34.796875 47.421875 
C 34.796875 38.734375 29.703125 31.25 24 24.75 
L 4.09375 2.28125 
L 4.09375 0 
L 39.296875 0 
z
" id="CMR17-50"/>
    </defs>
    <g transform="translate(86.808268 65.61114)scale(0.16 -0.16)">
     <use transform="translate(0 14.943915)scale(0.996264)" xlink:href="#CMMI12-67"/>
     <use transform="translate(69.792037 0)scale(0.697382)" xlink:href="#CMR17-50"/>
    </g>
   </g>
   <g id="text_3">
    <!-- $C_{3}$ -->
    <defs>
     <path d="M 22.09375 33.703125 
C 31 33.703125 34.90625 25.96875 34.90625 17.03125 
C 34.90625 5 28.5 0.390625 22.703125 0.390625 
C 17.40625 0.390625 8.796875 3.03125 6.09375 10.828125 
C 6.59375 10.625 7.09375 10.625 7.59375 10.625 
C 10 10.625 11.796875 12.21875 11.796875 14.8125 
C 11.796875 17.703125 9.59375 19 7.59375 19 
C 5.90625 19 3.296875 18.203125 3.296875 14.46875 
C 3.296875 5.234375 12.296875 -2 22.90625 -2 
C 34 -2 42.5 6.71875 42.5 16.953125 
C 42.5 26.671875 34.5 33.703125 25 34.796875 
C 32.59375 36.375 39.90625 43.0625 39.90625 52.015625 
C 39.90625 59.6875 32 65.296875 23 65.296875 
C 13.90625 65.296875 5.90625 59.828125 5.90625 52.015625 
C 5.90625 48.59375 8.5 48 9.796875 48 
C 11.90625 48 13.703125 49.296875 13.703125 51.890625 
C 13.703125 54.46875 11.90625 55.765625 9.796875 55.765625 
C 9.40625 55.765625 8.90625 55.765625 8.5 55.578125 
C 11.40625 61.859375 19.296875 63 22.796875 63 
C 26.296875 63 32.90625 61.328125 32.90625 51.875 
C 32.90625 49.109375 32.5 44.1875 29.09375 39.84375 
C 26.09375 36 22.703125 36 19.40625 35.6875 
C 18.90625 35.6875 16.59375 35.453125 16.203125 35.453125 
C 15.5 35.359375 15.09375 35.265625 15.09375 34.5 
C 15.09375 33.796875 15.203125 33.703125 17.203125 33.703125 
z
" id="CMR17-51"/>
    </defs>
    <g transform="translate(142.955935 83.736923)scale(0.16 -0.16)">
     <use transform="translate(0 14.943915)scale(0.996264)" xlink:href="#CMMI12-67"/>
     <use transform="translate(69.792037 0)scale(0.697382)" xlink:href="#CMR17-51"/>
    </g>
   </g>
   <g id="text_4">
    <!-- $C_{4}$ -->
    <defs>
     <path d="M 33.59375 64.40625 
C 33.59375 66.5 33.5 66.5 31.703125 66.5 
L 2 19.59375 
L 2 17 
L 27.796875 17 
L 27.796875 7.140625 
C 27.796875 3.5 27.59375 2.5 20.59375 2.5 
L 18.703125 2.5 
L 18.703125 0 
C 21.90625 0 27.296875 0 30.703125 0 
C 34.09375 0 39.5 0 42.703125 0 
L 42.703125 2.5 
L 40.796875 2.5 
C 33.796875 2.5 33.59375 3.5 33.59375 7.140625 
L 33.59375 17 
L 43.796875 17 
L 43.796875 19.59375 
L 33.59375 19.59375 
z
M 28.09375 57.859375 
L 28.09375 19.59375 
L 4 19.59375 
z
" id="CMR17-52"/>
    </defs>
    <g transform="translate(142.955935 142.393189)scale(0.16 -0.16)">
     <use transform="translate(0 14.943915)scale(0.996264)" xlink:href="#CMMI12-67"/>
     <use transform="translate(69.792037 0)scale(0.697382)" xlink:href="#CMR17-52"/>
    </g>
   </g>
   <g id="text_5">
    <!-- $C_{5}$ -->
    <defs>
     <path d="M 11.40625 57.6875 
C 12.40625 57.28125 16.5 56 20.703125 56 
C 30 56 35.09375 61.109375 38 64.0625 
C 38 64.953125 38 65.5 37.40625 65.5 
C 37.296875 65.5 37.09375 65.5 36.296875 65.046875 
C 32.796875 63.40625 28.703125 62.078125 23.703125 62.078125 
C 20.703125 62.078125 16.203125 62.484375 11.296875 64.671875 
C 10.203125 65.171875 10 65.171875 9.90625 65.171875 
C 9.40625 65.171875 9.296875 65.0625 9.296875 63.078125 
L 9.296875 34.421875 
C 9.296875 32.640625 9.296875 32.140625 10.296875 32.140625 
C 10.796875 32.140625 11 32.34375 11.5 33.03125 
C 14.703125 37.515625 19.09375 39.40625 24.09375 39.40625 
C 27.59375 39.40625 35.09375 37.21875 35.09375 20.140625 
C 35.09375 16.953125 35.09375 11.171875 32.09375 6.578125 
C 29.59375 2.484375 25.703125 0.390625 21.40625 0.390625 
C 14.796875 0.390625 8.09375 5 6.296875 12.71875 
C 6.703125 12.609375 7.5 12.421875 7.90625 12.421875 
C 9.203125 12.421875 11.703125 13.125 11.703125 16.21875 
C 11.703125 18.90625 9.796875 20 7.90625 20 
C 5.59375 20 4.09375 18.59375 4.09375 15.796875 
C 4.09375 7.09375 11 -2 21.59375 -2 
C 31.90625 -2 41.703125 6.875 41.703125 19.75 
C 41.703125 31.71875 33.90625 41 24.203125 41 
C 19.09375 41 14.796875 39.109375 11.40625 35.53125 
z
" id="CMR17-53"/>
    </defs>
    <g transform="translate(86.808268 160.518972)scale(0.16 -0.16)">
     <use transform="translate(0 14.943915)scale(0.996264)" xlink:href="#CMMI12-67"/>
     <use transform="translate(69.792037 0)scale(0.697382)" xlink:href="#CMR17-53"/>
    </g>
   </g>
  </g>
 </g>
 <defs>
  <clipPath id="p537ad713ba">
   <rect height="166.32" width="167.4" x="27" y="25.92"/>
  </clipPath>
 </defs>
</svg>
