<?xml version="1.0" encoding="utf-8" standalone="no"?>
<!DOCTYPE svg PUBLIC "-//W3C//DTD SVG 1.1//EN"
  "http://www.w3.org/Graphics/SVG/1.1/DTD/svg11.dtd">
<!-- Created with matplotlib (http://matplotlib.org/) -->
<svg height="50pt" version="1.1" viewBox="0 0 50 50" width="50pt" xmlns="http://www.w3.org/2000/svg" xmlns:xlink="http://www.w3.org/1999/xlink">
 <defs>
  <style type="text/css">
*{stroke-linecap:butt;stroke-linejoin:round;}
  </style>
 </defs>
 <g id="figure_1">
  <g id="patch_1">
   <path d="M 0 50.4 
L 50.4 50.4 
L 50.4 0 
L 0 0 
z
" style="fill:none;"/>
  </g>
  <g id="axes_1">
   <g id="patch_2">
    <path clip-path="url(#p306cc0d0a0)" d="M 14.112 28.16856 
C 14.837118 28.16856 15.532635 27.882326 16.045371 27.372898 
C 16.558107 26.86347 16.8462 26.17244 16.8462 25.452 
C 16.8462 24.73156 16.558107 24.04053 16.045371 23.531102 
C 15.532635 23.021674 14.837118 22.73544 14.112 22.73544 
C 13.386882 22.73544 12.691365 23.021674 12.178629 23.531102 
C 11.665893 24.04053 11.3778 24.73156 11.3778 25.452 
C 11.3778 26.17244 11.665893 26.86347 12.178629 27.372898 
C 12.691365 27.882326 13.386882 28.16856 14.112 28.16856 
z
" style="fill:#0000ff;opacity:0.3;stroke:#0000ff;stroke-linejoin:miter;"/>
   </g>
   <g id="patch_3">
    <path clip-path="url(#p306cc0d0a0)" d="M 11.054844 23.821974 
Q 11.389683 23.974924 11.744113 24.09372 
" style="fill:none;opacity:0.5;stroke:#0000ff;stroke-linecap:round;"/>
   </g>
   <g id="patch_4">
    <path clip-path="url(#p306cc0d0a0)" d="M 9.958772 27.710761 
Q 9.657703 27.922583 9.376227 28.16856 
" style="fill:none;opacity:0.5;stroke:#0000ff;stroke-linecap:round;"/>
   </g>
   <g id="patch_5">
    <path clip-path="url(#p306cc0d0a0)" d="M 22.208939 17.09598 
C 22.934057 17.09598 23.629574 16.809746 24.14231 16.300318 
C 24.655046 15.79089 24.943139 15.09986 24.943139 14.37942 
C 24.943139 13.658979 24.655046 12.96795 24.14231 12.458522 
C 23.629574 11.949094 22.934057 11.66286 22.208939 11.66286 
C 21.483821 11.66286 20.788304 11.949094 20.275567 12.458522 
C 19.762831 12.96795 19.474739 13.658979 19.474739 14.37942 
C 19.474739 15.09986 19.762831 15.79089 20.275567 16.300318 
C 20.788304 16.809746 21.483821 17.09598 22.208939 17.09598 
z
" style="fill:#0000ff;opacity:0.3;stroke:#0000ff;stroke-linejoin:miter;"/>
   </g>
   <g id="patch_6">
    <path clip-path="url(#p306cc0d0a0)" d="M 22.824433 10.996874 
Q 22.782311 11.355567 22.777411 11.722223 
" style="fill:none;opacity:0.5;stroke:#0000ff;stroke-linecap:round;"/>
   </g>
   <g id="patch_7">
    <path clip-path="url(#p306cc0d0a0)" d="M 18.757918 11.149106 
Q 18.464441 10.932087 18.145126 10.743953 
" style="fill:none;opacity:0.5;stroke:#0000ff;stroke-linecap:round;"/>
   </g>
   <g id="patch_8">
    <path clip-path="url(#p306cc0d0a0)" d="M 35.310061 21.325329 
C 36.035179 21.325329 36.730696 21.039095 37.243433 20.529667 
C 37.756169 20.020239 38.044261 19.329209 38.044261 18.608769 
C 38.044261 17.888329 37.756169 17.197299 37.243433 16.687871 
C 36.730696 16.178443 36.035179 15.892209 35.310061 15.892209 
C 34.584943 15.892209 33.889426 16.178443 33.37669 16.687871 
C 32.863954 17.197299 32.575861 17.888329 32.575861 18.608769 
C 32.575861 19.329209 32.863954 20.020239 33.37669 20.529667 
C 33.889426 21.039095 34.584943 21.325329 35.310061 21.325329 
z
" style="fill:#0000ff;opacity:0.3;stroke:#0000ff;stroke-linejoin:miter;"/>
   </g>
   <g id="patch_9">
    <path clip-path="url(#p306cc0d0a0)" d="M 37.336537 14.34543 
Q 37.45278 14.003188 37.53426 13.645367 
" style="fill:none;opacity:0.5;stroke:#0000ff;stroke-linecap:round;"/>
   </g>
   <g id="patch_10">
    <path clip-path="url(#p306cc0d0a0)" d="M 35.310061 35.011791 
C 36.035179 35.011791 36.730696 34.725557 37.243433 34.216129 
C 37.756169 33.706701 38.044261 33.015671 38.044261 32.295231 
C 38.044261 31.574791 37.756169 30.883761 37.243433 30.374333 
C 36.730696 29.864905 36.035179 29.578671 35.310061 29.578671 
C 34.584943 29.578671 33.889426 29.864905 33.37669 30.374333 
C 32.863954 30.883761 32.575861 31.574791 32.575861 32.295231 
C 32.575861 33.015671 32.863954 33.706701 33.37669 34.216129 
C 33.889426 34.725557 34.584943 35.011791 35.310061 35.011791 
z
" style="fill:#0000ff;opacity:0.3;stroke:#0000ff;stroke-linejoin:miter;"/>
   </g>
   <g id="patch_11">
    <path clip-path="url(#p306cc0d0a0)" d="M 40.001727 32.893653 
Q 40.373038 32.898297 40.748505 32.863147 
" style="fill:none;opacity:0.5;stroke:#0000ff;stroke-linecap:round;"/>
   </g>
   <g id="patch_12">
    <path clip-path="url(#p306cc0d0a0)" d="M 22.208939 39.24114 
C 22.934057 39.24114 23.629574 38.954906 24.14231 38.445478 
C 24.655046 37.93605 24.943139 37.245021 24.943139 36.52458 
C 24.943139 35.80414 24.655046 35.11311 24.14231 34.603682 
C 23.629574 34.094254 22.934057 33.80802 22.208939 33.80802 
C 21.483821 33.80802 20.788304 34.094254 20.275567 34.603682 
C 19.762831 35.11311 19.474739 35.80414 19.474739 36.52458 
C 19.474739 37.245021 19.762831 37.93605 20.275567 38.445478 
C 20.788304 38.954906 21.483821 39.24114 22.208939 39.24114 
z
" style="fill:#0000ff;opacity:0.3;stroke:#0000ff;stroke-linejoin:miter;"/>
   </g>
   <g id="patch_13">
    <path clip-path="url(#p306cc0d0a0)" d="M 26.423616 16.530119 
Q 28.450524 17.459335 30.626986 17.944084 
" style="fill:none;opacity:0.5;stroke:#0000ff;stroke-linecap:round;"/>
   </g>
   <g id="patch_14">
    <path clip-path="url(#p306cc0d0a0)" d="M 36.063805 27.641147 
Q 36.321908 25.451769 36.118929 23.256645 
" style="fill:none;opacity:0.5;stroke:#0000ff;stroke-linecap:round;"/>
   </g>
   <g id="patch_15">
    <path clip-path="url(#p306cc0d0a0)" d="M 24.324955 18.596444 
Q 27.311669 24.391702 31.896298 29.027004 
" style="fill:none;opacity:0.5;stroke:#0000ff;stroke-linecap:round;"/>
   </g>
   <g id="patch_16">
    <path clip-path="url(#p306cc0d0a0)" d="M 34.556317 23.262853 
Q 34.298215 25.452231 34.501193 27.647355 
" style="fill:none;opacity:0.5;stroke:#0000ff;stroke-linecap:round;"/>
   </g>
   <g id="patch_17">
    <path clip-path="url(#p306cc0d0a0)" d="M 18.309694 27.626284 
Q 24.156195 30.581101 30.619405 31.647956 
" style="fill:none;opacity:0.5;stroke:#0000ff;stroke-linecap:round;"/>
   </g>
   <g id="patch_18">
    <path clip-path="url(#p306cc0d0a0)" d="M 18.791803 24.760429 
Q 25.262612 23.738957 31.129793 20.825246 
" style="fill:none;opacity:0.5;stroke:#0000ff;stroke-linecap:round;"/>
   </g>
  </g>
 </g>
 <defs>
  <clipPath id="p306cc0d0a0">
   <rect height="38.808" width="39.06" x="6.3" y="6.048"/>
  </clipPath>
 </defs>
</svg>
