<?xml version="1.0" encoding="utf-8" standalone="no"?>
<!DOCTYPE svg PUBLIC "-//W3C//DTD SVG 1.1//EN"
  "http://www.w3.org/Graphics/SVG/1.1/DTD/svg11.dtd">
<!-- Created with matplotlib (http://matplotlib.org/) -->
<svg height="720pt" version="1.1" viewBox="0 0 720 720" width="720pt" xmlns="http://www.w3.org/2000/svg" xmlns:xlink="http://www.w3.org/1999/xlink">
 <defs>
  <style type="text/css">
*{stroke-linecap:butt;stroke-linejoin:round;stroke-miterlimit:100000;}
  </style>
 </defs>
 <g id="figure_1">
  <g id="patch_1">
   <path d="M 0 720 
L 720 720 
L 720 0 
L 0 0 
z
" style="fill:#ffffff;"/>
  </g>
  <g id="axes_1">
   <g id="patch_2">
    <path d="M 90 417.6 
L 648 417.6 
L 648 72 
L 90 72 
z
" style="fill:#ffffff;"/>
   </g>
   <g id="PathCollection_1">
    <defs>
     <path d="M 0 -7.071068 
L -6.724985 -2.18508 
L -4.156269 5.720614 
L 4.156269 5.720614 
L 6.724985 -2.18508 
z
" id="m4e8dc7660d" style="stroke:#000000;stroke-opacity:0.9;"/>
    </defs>
    <g clip-path="url(#p73c28f0888)">
     <use style="fill:#4fc601;fill-opacity:0.9;stroke:#000000;stroke-opacity:0.9;" x="183.0" xlink:href="#m4e8dc7660d" y="331.2"/>
    </g>
   </g>
   <g id="PathCollection_2">
    <defs>
     <path d="M -0 10 
L 10 0 
L 0 -10 
L -10 -0 
z
" id="m62be7bd4aa" style="stroke:#000000;stroke-opacity:0.9;"/>
    </defs>
    <g clip-path="url(#p73c28f0888)">
     <use style="fill:#3b5dff;fill-opacity:0.9;stroke:#000000;stroke-opacity:0.9;" x="508.5" xlink:href="#m62be7bd4aa" y="192.96"/>
    </g>
   </g>
   <g id="PathCollection_3">
    <defs>
     <path d="M -7.071068 0 
L 7.071068 0 
M 0 7.071068 
L 0 -7.071068 
" id="m133a3e3fb0" style="stroke:#4a3b53;stroke-opacity:0.9;"/>
    </defs>
    <g clip-path="url(#p73c28f0888)">
     <use style="fill:#4a3b53;fill-opacity:0.9;stroke:#4a3b53;stroke-opacity:0.9;" x="276.0" xlink:href="#m133a3e3fb0" y="279.36"/>
    </g>
   </g>
   <g id="PathCollection_4">
    <defs>
     <path d="M 0 -7.071068 
L -1.587554 -2.18508 
L -6.724985 -2.18508 
L -2.568716 0.834626 
L -4.156269 5.720614 
L -0 2.700907 
L 4.156269 5.720614 
L 2.568716 0.834626 
L 6.724985 -2.18508 
L 1.587554 -2.18508 
z
" id="mc0bb035654" style="stroke:#000000;stroke-opacity:0.9;"/>
    </defs>
    <g clip-path="url(#p73c28f0888)">
     <use style="fill:#ff2f80;fill-opacity:0.9;stroke:#000000;stroke-opacity:0.9;" x="322.5" xlink:href="#mc0bb035654" y="210.24"/>
    </g>
   </g>
   <g id="PathCollection_5">
    <defs>
     <path d="M -7.071068 -0 
L 7.071068 7.071068 
L 7.071068 -7.071068 
z
" id="m2b2d1c42aa" style="stroke:#000000;stroke-opacity:0.9;"/>
    </defs>
    <g clip-path="url(#p73c28f0888)">
     <use style="fill:#61615a;fill-opacity:0.9;stroke:#000000;stroke-opacity:0.9;" x="183.0" xlink:href="#m2b2d1c42aa" y="348.48"/>
    </g>
   </g>
   <g id="PathCollection_6">
    <defs>
     <path d="M 0 7.071068 
C 1.875269 7.071068 3.673985 6.326016 5 5 
C 6.326016 3.673985 7.071068 1.875269 7.071068 0 
C 7.071068 -1.875269 6.326016 -3.673985 5 -5 
C 3.673985 -6.326016 1.875269 -7.071068 0 -7.071068 
C -1.875269 -7.071068 -3.673985 -6.326016 -5 -5 
C -6.326016 -3.673985 -7.071068 -1.875269 -7.071068 0 
C -7.071068 1.875269 -6.326016 3.673985 -5 5 
C -3.673985 6.326016 -1.875269 7.071068 0 7.071068 
z
" id="mb8e39bd8a5" style="stroke:#000000;stroke-opacity:0.9;"/>
    </defs>
    <g clip-path="url(#p73c28f0888)">
     <use style="fill:#ba0900;fill-opacity:0.9;stroke:#000000;stroke-opacity:0.9;" x="415.5" xlink:href="#mb8e39bd8a5" y="89.28"/>
    </g>
   </g>
   <g id="PathCollection_7">
    <defs>
     <path d="M -7.070926 7.070926 
L 7.071209 7.070926 
L 7.071209 -7.071209 
L -7.070926 -7.071209 
z
" id="m19898598f9" style="stroke:#000000;stroke-opacity:0.9;"/>
    </defs>
    <g clip-path="url(#p73c28f0888)">
     <use style="fill:#6b7900;fill-opacity:0.9;stroke:#000000;stroke-opacity:0.9;" x="276.0" xlink:href="#m19898598f9" y="279.36"/>
    </g>
   </g>
   <g id="PathCollection_8">
    <defs>
     <path d="M -7.071068 7.071068 
L 7.071068 -7.071068 
M -7.071068 -7.071068 
L 7.071068 7.071068 
" id="m889e09f523" style="stroke:#00c2a0;stroke-opacity:0.9;"/>
    </defs>
    <g clip-path="url(#p73c28f0888)">
     <use style="fill:#00c2a0;fill-opacity:0.9;stroke:#00c2a0;stroke-opacity:0.9;" x="276.0" xlink:href="#m889e09f523" y="296.64"/>
    </g>
   </g>
   <g id="PathCollection_9">
    <defs>
     <path d="M -0 7.071068 
L 7.071068 -7.071068 
L -7.071068 -7.071068 
z
" id="m0b45095887" style="stroke:#000000;stroke-opacity:0.9;"/>
    </defs>
    <g clip-path="url(#p73c28f0888)">
     <use style="fill:#ffaa92;fill-opacity:0.9;stroke:#000000;stroke-opacity:0.9;" x="601.5" xlink:href="#m0b45095887" y="141.12"/>
    </g>
   </g>
   <g id="PathCollection_10">
    <defs>
     <path d="M 0 0 
L 0 -7.071068 
M 0 0 
L -5.656854 3.535534 
M 0 0 
L 5.656854 3.535534 
" id="m0fea38d447" style="stroke:#ff90c9;stroke-opacity:0.9;"/>
    </defs>
    <g clip-path="url(#p73c28f0888)">
     <use style="fill:#ff90c9;fill-opacity:0.9;stroke:#ff90c9;stroke-opacity:0.9;" x="322.5" xlink:href="#m0fea38d447" y="296.64"/>
    </g>
   </g>
   <g id="PathCollection_11">
    <defs>
     <path d="M 0 -7.071068 
L -7.071068 7.071068 
L 7.071068 7.071068 
z
" id="mcb1f7f8100" style="stroke:#000000;stroke-opacity:0.9;"/>
    </defs>
    <g clip-path="url(#p73c28f0888)">
     <use style="fill:#b903aa;fill-opacity:0.9;stroke:#000000;stroke-opacity:0.9;" x="322.5" xlink:href="#mcb1f7f8100" y="244.8"/>
    </g>
   </g>
   <g id="patch_3">
    <path d="M 90 72 
L 648 72 
" style="fill:none;stroke:#000000;stroke-linecap:square;stroke-linejoin:miter;"/>
   </g>
   <g id="patch_4">
    <path d="M 90 417.6 
L 90 72 
" style="fill:none;stroke:#000000;stroke-linecap:square;stroke-linejoin:miter;"/>
   </g>
   <g id="patch_5">
    <path d="M 90 417.6 
L 648 417.6 
" style="fill:none;stroke:#000000;stroke-linecap:square;stroke-linejoin:miter;"/>
   </g>
   <g id="patch_6">
    <path d="M 648 417.6 
L 648 72 
" style="fill:none;stroke:#000000;stroke-linecap:square;stroke-linejoin:miter;"/>
   </g>
   <g id="matplotlib.axis_1">
    <g id="xtick_1">
     <g id="line2d_1">
      <defs>
       <path d="M 0 0 
L 0 -4 
" id="mf193697fe9" style="stroke:#000000;stroke-width:0.5;"/>
      </defs>
      <g>
       <use style="stroke:#000000;stroke-width:0.5;" x="90.0" xlink:href="#mf193697fe9" y="417.6"/>
      </g>
     </g>
     <g id="text_1">
      <!-- 0 -->
      <defs>
       <path d="M 31.78125 66.40625 
Q 24.171875 66.40625 20.328125 58.90625 
Q 16.5 51.421875 16.5 36.375 
Q 16.5 21.390625 20.328125 13.890625 
Q 24.171875 6.390625 31.78125 6.390625 
Q 39.453125 6.390625 43.28125 13.890625 
Q 47.125 21.390625 47.125 36.375 
Q 47.125 51.421875 43.28125 58.90625 
Q 39.453125 66.40625 31.78125 66.40625 
M 31.78125 74.21875 
Q 44.046875 74.21875 50.515625 64.515625 
Q 56.984375 54.828125 56.984375 36.375 
Q 56.984375 17.96875 50.515625 8.265625 
Q 44.046875 -1.421875 31.78125 -1.421875 
Q 19.53125 -1.421875 13.0625 8.265625 
Q 6.59375 17.96875 6.59375 36.375 
Q 6.59375 54.828125 13.0625 64.515625 
Q 19.53125 74.21875 31.78125 74.21875 
" id="BitstreamVeraSans-Roman-30"/>
      </defs>
      <g transform="translate(83.00125 438.3165625)scale(0.22 -0.22)">
       <use xlink:href="#BitstreamVeraSans-Roman-30"/>
      </g>
     </g>
    </g>
    <g id="xtick_2">
     <g id="line2d_2">
      <g>
       <use style="stroke:#000000;stroke-width:0.5;" x="183.0" xlink:href="#mf193697fe9" y="417.6"/>
      </g>
     </g>
     <g id="text_2">
      <!-- 2 -->
      <defs>
       <path d="M 19.1875 8.296875 
L 53.609375 8.296875 
L 53.609375 0 
L 7.328125 0 
L 7.328125 8.296875 
Q 12.9375 14.109375 22.625 23.890625 
Q 32.328125 33.6875 34.8125 36.53125 
Q 39.546875 41.84375 41.421875 45.53125 
Q 43.3125 49.21875 43.3125 52.78125 
Q 43.3125 58.59375 39.234375 62.25 
Q 35.15625 65.921875 28.609375 65.921875 
Q 23.96875 65.921875 18.8125 64.3125 
Q 13.671875 62.703125 7.8125 59.421875 
L 7.8125 69.390625 
Q 13.765625 71.78125 18.9375 73 
Q 24.125 74.21875 28.421875 74.21875 
Q 39.75 74.21875 46.484375 68.546875 
Q 53.21875 62.890625 53.21875 53.421875 
Q 53.21875 48.921875 51.53125 44.890625 
Q 49.859375 40.875 45.40625 35.40625 
Q 44.1875 33.984375 37.640625 27.21875 
Q 31.109375 20.453125 19.1875 8.296875 
" id="BitstreamVeraSans-Roman-32"/>
      </defs>
      <g transform="translate(176.00125 438.3165625)scale(0.22 -0.22)">
       <use xlink:href="#BitstreamVeraSans-Roman-32"/>
      </g>
     </g>
    </g>
    <g id="xtick_3">
     <g id="line2d_3">
      <g>
       <use style="stroke:#000000;stroke-width:0.5;" x="276.0" xlink:href="#mf193697fe9" y="417.6"/>
      </g>
     </g>
     <g id="text_3">
      <!-- 4 -->
      <defs>
       <path d="M 37.796875 64.3125 
L 12.890625 25.390625 
L 37.796875 25.390625 
z
M 35.203125 72.90625 
L 47.609375 72.90625 
L 47.609375 25.390625 
L 58.015625 25.390625 
L 58.015625 17.1875 
L 47.609375 17.1875 
L 47.609375 0 
L 37.796875 0 
L 37.796875 17.1875 
L 4.890625 17.1875 
L 4.890625 26.703125 
z
" id="BitstreamVeraSans-Roman-34"/>
      </defs>
      <g transform="translate(269.00125 438.3165625)scale(0.22 -0.22)">
       <use xlink:href="#BitstreamVeraSans-Roman-34"/>
      </g>
     </g>
    </g>
    <g id="xtick_4">
     <g id="line2d_4">
      <g>
       <use style="stroke:#000000;stroke-width:0.5;" x="369.0" xlink:href="#mf193697fe9" y="417.6"/>
      </g>
     </g>
     <g id="text_4">
      <!-- 6 -->
      <defs>
       <path d="M 33.015625 40.375 
Q 26.375 40.375 22.484375 35.828125 
Q 18.609375 31.296875 18.609375 23.390625 
Q 18.609375 15.53125 22.484375 10.953125 
Q 26.375 6.390625 33.015625 6.390625 
Q 39.65625 6.390625 43.53125 10.953125 
Q 47.40625 15.53125 47.40625 23.390625 
Q 47.40625 31.296875 43.53125 35.828125 
Q 39.65625 40.375 33.015625 40.375 
M 52.59375 71.296875 
L 52.59375 62.3125 
Q 48.875 64.0625 45.09375 64.984375 
Q 41.3125 65.921875 37.59375 65.921875 
Q 27.828125 65.921875 22.671875 59.328125 
Q 17.53125 52.734375 16.796875 39.40625 
Q 19.671875 43.65625 24.015625 45.921875 
Q 28.375 48.1875 33.59375 48.1875 
Q 44.578125 48.1875 50.953125 41.515625 
Q 57.328125 34.859375 57.328125 23.390625 
Q 57.328125 12.15625 50.6875 5.359375 
Q 44.046875 -1.421875 33.015625 -1.421875 
Q 20.359375 -1.421875 13.671875 8.265625 
Q 6.984375 17.96875 6.984375 36.375 
Q 6.984375 53.65625 15.1875 63.9375 
Q 23.390625 74.21875 37.203125 74.21875 
Q 40.921875 74.21875 44.703125 73.484375 
Q 48.484375 72.75 52.59375 71.296875 
" id="BitstreamVeraSans-Roman-36"/>
      </defs>
      <g transform="translate(362.00125 438.3165625)scale(0.22 -0.22)">
       <use xlink:href="#BitstreamVeraSans-Roman-36"/>
      </g>
     </g>
    </g>
    <g id="xtick_5">
     <g id="line2d_5">
      <g>
       <use style="stroke:#000000;stroke-width:0.5;" x="462.0" xlink:href="#mf193697fe9" y="417.6"/>
      </g>
     </g>
     <g id="text_5">
      <!-- 8 -->
      <defs>
       <path d="M 31.78125 34.625 
Q 24.75 34.625 20.71875 30.859375 
Q 16.703125 27.09375 16.703125 20.515625 
Q 16.703125 13.921875 20.71875 10.15625 
Q 24.75 6.390625 31.78125 6.390625 
Q 38.8125 6.390625 42.859375 10.171875 
Q 46.921875 13.96875 46.921875 20.515625 
Q 46.921875 27.09375 42.890625 30.859375 
Q 38.875 34.625 31.78125 34.625 
M 21.921875 38.8125 
Q 15.578125 40.375 12.03125 44.71875 
Q 8.5 49.078125 8.5 55.328125 
Q 8.5 64.0625 14.71875 69.140625 
Q 20.953125 74.21875 31.78125 74.21875 
Q 42.671875 74.21875 48.875 69.140625 
Q 55.078125 64.0625 55.078125 55.328125 
Q 55.078125 49.078125 51.53125 44.71875 
Q 48 40.375 41.703125 38.8125 
Q 48.828125 37.15625 52.796875 32.3125 
Q 56.78125 27.484375 56.78125 20.515625 
Q 56.78125 9.90625 50.3125 4.234375 
Q 43.84375 -1.421875 31.78125 -1.421875 
Q 19.734375 -1.421875 13.25 4.234375 
Q 6.78125 9.90625 6.78125 20.515625 
Q 6.78125 27.484375 10.78125 32.3125 
Q 14.796875 37.15625 21.921875 38.8125 
M 18.3125 54.390625 
Q 18.3125 48.734375 21.84375 45.5625 
Q 25.390625 42.390625 31.78125 42.390625 
Q 38.140625 42.390625 41.71875 45.5625 
Q 45.3125 48.734375 45.3125 54.390625 
Q 45.3125 60.0625 41.71875 63.234375 
Q 38.140625 66.40625 31.78125 66.40625 
Q 25.390625 66.40625 21.84375 63.234375 
Q 18.3125 60.0625 18.3125 54.390625 
" id="BitstreamVeraSans-Roman-38"/>
      </defs>
      <g transform="translate(455.00125 438.3165625)scale(0.22 -0.22)">
       <use xlink:href="#BitstreamVeraSans-Roman-38"/>
      </g>
     </g>
    </g>
    <g id="xtick_6">
     <g id="line2d_6">
      <g>
       <use style="stroke:#000000;stroke-width:0.5;" x="555.0" xlink:href="#mf193697fe9" y="417.6"/>
      </g>
     </g>
     <g id="text_6">
      <!-- 10 -->
      <defs>
       <path d="M 12.40625 8.296875 
L 28.515625 8.296875 
L 28.515625 63.921875 
L 10.984375 60.40625 
L 10.984375 69.390625 
L 28.421875 72.90625 
L 38.28125 72.90625 
L 38.28125 8.296875 
L 54.390625 8.296875 
L 54.390625 0 
L 12.40625 0 
z
" id="BitstreamVeraSans-Roman-31"/>
      </defs>
      <g transform="translate(541.0025 438.3165625)scale(0.22 -0.22)">
       <use xlink:href="#BitstreamVeraSans-Roman-31"/>
       <use x="63.623046875" xlink:href="#BitstreamVeraSans-Roman-30"/>
      </g>
     </g>
    </g>
    <g id="xtick_7">
     <g id="line2d_7">
      <g>
       <use style="stroke:#000000;stroke-width:0.5;" x="648.0" xlink:href="#mf193697fe9" y="417.6"/>
      </g>
     </g>
     <g id="text_7">
      <!-- 12 -->
      <g transform="translate(634.0025 438.3165625)scale(0.22 -0.22)">
       <use xlink:href="#BitstreamVeraSans-Roman-31"/>
       <use x="63.623046875" xlink:href="#BitstreamVeraSans-Roman-32"/>
      </g>
     </g>
    </g>
    <g id="text_8">
     <!-- # variables -->
     <defs>
      <path d="M 51.125 44 
L 36.921875 44 
L 32.8125 27.6875 
L 47.125 27.6875 
z
M 43.796875 71.78125 
L 38.71875 51.515625 
L 52.984375 51.515625 
L 58.109375 71.78125 
L 65.921875 71.78125 
L 60.890625 51.515625 
L 76.125 51.515625 
L 76.125 44 
L 58.984375 44 
L 54.984375 27.6875 
L 70.515625 27.6875 
L 70.515625 20.21875 
L 53.078125 20.21875 
L 48 0 
L 40.1875 0 
L 45.21875 20.21875 
L 30.90625 20.21875 
L 25.875 0 
L 18.015625 0 
L 23.09375 20.21875 
L 7.71875 20.21875 
L 7.71875 27.6875 
L 24.90625 27.6875 
L 29 44 
L 13.28125 44 
L 13.28125 51.515625 
L 30.90625 51.515625 
L 35.890625 71.78125 
z
" id="BitstreamVeraSans-Roman-23"/>
      <path d="M 44.28125 53.078125 
L 44.28125 44.578125 
Q 40.484375 46.53125 36.375 47.5 
Q 32.28125 48.484375 27.875 48.484375 
Q 21.1875 48.484375 17.84375 46.4375 
Q 14.5 44.390625 14.5 40.28125 
Q 14.5 37.15625 16.890625 35.375 
Q 19.28125 33.59375 26.515625 31.984375 
L 29.59375 31.296875 
Q 39.15625 29.25 43.1875 25.515625 
Q 47.21875 21.78125 47.21875 15.09375 
Q 47.21875 7.46875 41.1875 3.015625 
Q 35.15625 -1.421875 24.609375 -1.421875 
Q 20.21875 -1.421875 15.453125 -0.5625 
Q 10.6875 0.296875 5.421875 2 
L 5.421875 11.28125 
Q 10.40625 8.6875 15.234375 7.390625 
Q 20.0625 6.109375 24.8125 6.109375 
Q 31.15625 6.109375 34.5625 8.28125 
Q 37.984375 10.453125 37.984375 14.40625 
Q 37.984375 18.0625 35.515625 20.015625 
Q 33.0625 21.96875 24.703125 23.78125 
L 21.578125 24.515625 
Q 13.234375 26.265625 9.515625 29.90625 
Q 5.8125 33.546875 5.8125 39.890625 
Q 5.8125 47.609375 11.28125 51.796875 
Q 16.75 56 26.8125 56 
Q 31.78125 56 36.171875 55.265625 
Q 40.578125 54.546875 44.28125 53.078125 
" id="BitstreamVeraSans-Roman-73"/>
      <path d="M 9.421875 75.984375 
L 18.40625 75.984375 
L 18.40625 0 
L 9.421875 0 
z
" id="BitstreamVeraSans-Roman-6c"/>
      <path d="M 41.109375 46.296875 
Q 39.59375 47.171875 37.8125 47.578125 
Q 36.03125 48 33.890625 48 
Q 26.265625 48 22.1875 43.046875 
Q 18.109375 38.09375 18.109375 28.8125 
L 18.109375 0 
L 9.078125 0 
L 9.078125 54.6875 
L 18.109375 54.6875 
L 18.109375 46.1875 
Q 20.953125 51.171875 25.484375 53.578125 
Q 30.03125 56 36.53125 56 
Q 37.453125 56 38.578125 55.875 
Q 39.703125 55.765625 41.0625 55.515625 
z
" id="BitstreamVeraSans-Roman-72"/>
      <path d="M 2.984375 54.6875 
L 12.5 54.6875 
L 29.59375 8.796875 
L 46.6875 54.6875 
L 56.203125 54.6875 
L 35.6875 0 
L 23.484375 0 
z
" id="BitstreamVeraSans-Roman-76"/>
      <path d="M 48.6875 27.296875 
Q 48.6875 37.203125 44.609375 42.84375 
Q 40.53125 48.484375 33.40625 48.484375 
Q 26.265625 48.484375 22.1875 42.84375 
Q 18.109375 37.203125 18.109375 27.296875 
Q 18.109375 17.390625 22.1875 11.75 
Q 26.265625 6.109375 33.40625 6.109375 
Q 40.53125 6.109375 44.609375 11.75 
Q 48.6875 17.390625 48.6875 27.296875 
M 18.109375 46.390625 
Q 20.953125 51.265625 25.265625 53.625 
Q 29.59375 56 35.59375 56 
Q 45.5625 56 51.78125 48.09375 
Q 58.015625 40.1875 58.015625 27.296875 
Q 58.015625 14.40625 51.78125 6.484375 
Q 45.5625 -1.421875 35.59375 -1.421875 
Q 29.59375 -1.421875 25.265625 0.953125 
Q 20.953125 3.328125 18.109375 8.203125 
L 18.109375 0 
L 9.078125 0 
L 9.078125 75.984375 
L 18.109375 75.984375 
z
" id="BitstreamVeraSans-Roman-62"/>
      <path d="M 56.203125 29.59375 
L 56.203125 25.203125 
L 14.890625 25.203125 
Q 15.484375 15.921875 20.484375 11.0625 
Q 25.484375 6.203125 34.421875 6.203125 
Q 39.59375 6.203125 44.453125 7.46875 
Q 49.3125 8.734375 54.109375 11.28125 
L 54.109375 2.78125 
Q 49.265625 0.734375 44.1875 -0.34375 
Q 39.109375 -1.421875 33.890625 -1.421875 
Q 20.796875 -1.421875 13.15625 6.1875 
Q 5.515625 13.8125 5.515625 26.8125 
Q 5.515625 40.234375 12.765625 48.109375 
Q 20.015625 56 32.328125 56 
Q 43.359375 56 49.78125 48.890625 
Q 56.203125 41.796875 56.203125 29.59375 
M 47.21875 32.234375 
Q 47.125 39.59375 43.09375 43.984375 
Q 39.0625 48.390625 32.421875 48.390625 
Q 24.90625 48.390625 20.390625 44.140625 
Q 15.875 39.890625 15.1875 32.171875 
z
" id="BitstreamVeraSans-Roman-65"/>
      <path d="M 9.421875 54.6875 
L 18.40625 54.6875 
L 18.40625 0 
L 9.421875 0 
z
M 9.421875 75.984375 
L 18.40625 75.984375 
L 18.40625 64.59375 
L 9.421875 64.59375 
z
" id="BitstreamVeraSans-Roman-69"/>
      <path d="M 34.28125 27.484375 
Q 23.390625 27.484375 19.1875 25 
Q 14.984375 22.515625 14.984375 16.5 
Q 14.984375 11.71875 18.140625 8.90625 
Q 21.296875 6.109375 26.703125 6.109375 
Q 34.1875 6.109375 38.703125 11.40625 
Q 43.21875 16.703125 43.21875 25.484375 
L 43.21875 27.484375 
z
M 52.203125 31.203125 
L 52.203125 0 
L 43.21875 0 
L 43.21875 8.296875 
Q 40.140625 3.328125 35.546875 0.953125 
Q 30.953125 -1.421875 24.3125 -1.421875 
Q 15.921875 -1.421875 10.953125 3.296875 
Q 6 8.015625 6 15.921875 
Q 6 25.140625 12.171875 29.828125 
Q 18.359375 34.515625 30.609375 34.515625 
L 43.21875 34.515625 
L 43.21875 35.40625 
Q 43.21875 41.609375 39.140625 45 
Q 35.0625 48.390625 27.6875 48.390625 
Q 23 48.390625 18.546875 47.265625 
Q 14.109375 46.140625 10.015625 43.890625 
L 10.015625 52.203125 
Q 14.9375 54.109375 19.578125 55.046875 
Q 24.21875 56 28.609375 56 
Q 40.484375 56 46.34375 49.84375 
Q 52.203125 43.703125 52.203125 31.203125 
" id="BitstreamVeraSans-Roman-61"/>
      <path id="BitstreamVeraSans-Roman-20"/>
     </defs>
     <g transform="translate(306.17796875 479.6084375)scale(0.22 -0.22)">
      <use xlink:href="#BitstreamVeraSans-Roman-23"/>
      <use x="83.7890625" xlink:href="#BitstreamVeraSans-Roman-20"/>
      <use x="115.576171875" xlink:href="#BitstreamVeraSans-Roman-76"/>
      <use x="174.755859375" xlink:href="#BitstreamVeraSans-Roman-61"/>
      <use x="236.03515625" xlink:href="#BitstreamVeraSans-Roman-72"/>
      <use x="277.1484375" xlink:href="#BitstreamVeraSans-Roman-69"/>
      <use x="304.931640625" xlink:href="#BitstreamVeraSans-Roman-61"/>
      <use x="366.2109375" xlink:href="#BitstreamVeraSans-Roman-62"/>
      <use x="429.6875" xlink:href="#BitstreamVeraSans-Roman-6c"/>
      <use x="457.470703125" xlink:href="#BitstreamVeraSans-Roman-65"/>
      <use x="518.994140625" xlink:href="#BitstreamVeraSans-Roman-73"/>
     </g>
    </g>
   </g>
   <g id="matplotlib.axis_2">
    <g id="ytick_1">
     <g id="line2d_8">
      <defs>
       <path d="M 0 0 
L 4 0 
" id="m27fac1ed23" style="stroke:#000000;stroke-width:0.5;"/>
      </defs>
      <g>
       <use style="stroke:#000000;stroke-width:0.5;" x="90.0" xlink:href="#m27fac1ed23" y="417.6"/>
      </g>
     </g>
     <g id="text_9">
      <!-- 0 -->
      <g transform="translate(72.0025 423.670625)scale(0.22 -0.22)">
       <use xlink:href="#BitstreamVeraSans-Roman-30"/>
      </g>
     </g>
    </g>
    <g id="ytick_2">
     <g id="line2d_9">
      <g>
       <use style="stroke:#000000;stroke-width:0.5;" x="90.0" xlink:href="#m27fac1ed23" y="331.2"/>
      </g>
     </g>
     <g id="text_10">
      <!-- 5 -->
      <defs>
       <path d="M 10.796875 72.90625 
L 49.515625 72.90625 
L 49.515625 64.59375 
L 19.828125 64.59375 
L 19.828125 46.734375 
Q 21.96875 47.46875 24.109375 47.828125 
Q 26.265625 48.1875 28.421875 48.1875 
Q 40.625 48.1875 47.75 41.5 
Q 54.890625 34.8125 54.890625 23.390625 
Q 54.890625 11.625 47.5625 5.09375 
Q 40.234375 -1.421875 26.90625 -1.421875 
Q 22.3125 -1.421875 17.546875 -0.640625 
Q 12.796875 0.140625 7.71875 1.703125 
L 7.71875 11.625 
Q 12.109375 9.234375 16.796875 8.0625 
Q 21.484375 6.890625 26.703125 6.890625 
Q 35.15625 6.890625 40.078125 11.328125 
Q 45.015625 15.765625 45.015625 23.390625 
Q 45.015625 31 40.078125 35.4375 
Q 35.15625 39.890625 26.703125 39.890625 
Q 22.75 39.890625 18.8125 39.015625 
Q 14.890625 38.140625 10.796875 36.28125 
z
" id="BitstreamVeraSans-Roman-35"/>
      </defs>
      <g transform="translate(72.0025 337.270625)scale(0.22 -0.22)">
       <use xlink:href="#BitstreamVeraSans-Roman-35"/>
      </g>
     </g>
    </g>
    <g id="ytick_3">
     <g id="line2d_10">
      <g>
       <use style="stroke:#000000;stroke-width:0.5;" x="90.0" xlink:href="#m27fac1ed23" y="244.8"/>
      </g>
     </g>
     <g id="text_11">
      <!-- 10 -->
      <g transform="translate(58.005 250.870625)scale(0.22 -0.22)">
       <use xlink:href="#BitstreamVeraSans-Roman-31"/>
       <use x="63.623046875" xlink:href="#BitstreamVeraSans-Roman-30"/>
      </g>
     </g>
    </g>
    <g id="ytick_4">
     <g id="line2d_11">
      <g>
       <use style="stroke:#000000;stroke-width:0.5;" x="90.0" xlink:href="#m27fac1ed23" y="158.4"/>
      </g>
     </g>
     <g id="text_12">
      <!-- 15 -->
      <g transform="translate(58.005 164.470625)scale(0.22 -0.22)">
       <use xlink:href="#BitstreamVeraSans-Roman-31"/>
       <use x="63.623046875" xlink:href="#BitstreamVeraSans-Roman-35"/>
      </g>
     </g>
    </g>
    <g id="ytick_5">
     <g id="line2d_12">
      <g>
       <use style="stroke:#000000;stroke-width:0.5;" x="90.0" xlink:href="#m27fac1ed23" y="72.0"/>
      </g>
     </g>
     <g id="text_13">
      <!-- 20 -->
      <g transform="translate(58.005 78.070625)scale(0.22 -0.22)">
       <use xlink:href="#BitstreamVeraSans-Roman-32"/>
       <use x="63.623046875" xlink:href="#BitstreamVeraSans-Roman-30"/>
      </g>
     </g>
    </g>
    <g id="text_14">
     <!-- # parameters -->
     <defs>
      <path d="M 18.3125 70.21875 
L 18.3125 54.6875 
L 36.8125 54.6875 
L 36.8125 47.703125 
L 18.3125 47.703125 
L 18.3125 18.015625 
Q 18.3125 11.328125 20.140625 9.421875 
Q 21.96875 7.515625 27.59375 7.515625 
L 36.8125 7.515625 
L 36.8125 0 
L 27.59375 0 
Q 17.1875 0 13.234375 3.875 
Q 9.28125 7.765625 9.28125 18.015625 
L 9.28125 47.703125 
L 2.6875 47.703125 
L 2.6875 54.6875 
L 9.28125 54.6875 
L 9.28125 70.21875 
z
" id="BitstreamVeraSans-Roman-74"/>
      <path d="M 52 44.1875 
Q 55.375 50.25 60.0625 53.125 
Q 64.75 56 71.09375 56 
Q 79.640625 56 84.28125 50.015625 
Q 88.921875 44.046875 88.921875 33.015625 
L 88.921875 0 
L 79.890625 0 
L 79.890625 32.71875 
Q 79.890625 40.578125 77.09375 44.375 
Q 74.3125 48.1875 68.609375 48.1875 
Q 61.625 48.1875 57.5625 43.546875 
Q 53.515625 38.921875 53.515625 30.90625 
L 53.515625 0 
L 44.484375 0 
L 44.484375 32.71875 
Q 44.484375 40.625 41.703125 44.40625 
Q 38.921875 48.1875 33.109375 48.1875 
Q 26.21875 48.1875 22.15625 43.53125 
Q 18.109375 38.875 18.109375 30.90625 
L 18.109375 0 
L 9.078125 0 
L 9.078125 54.6875 
L 18.109375 54.6875 
L 18.109375 46.1875 
Q 21.1875 51.21875 25.484375 53.609375 
Q 29.78125 56 35.6875 56 
Q 41.65625 56 45.828125 52.96875 
Q 50 49.953125 52 44.1875 
" id="BitstreamVeraSans-Roman-6d"/>
      <path d="M 18.109375 8.203125 
L 18.109375 -20.796875 
L 9.078125 -20.796875 
L 9.078125 54.6875 
L 18.109375 54.6875 
L 18.109375 46.390625 
Q 20.953125 51.265625 25.265625 53.625 
Q 29.59375 56 35.59375 56 
Q 45.5625 56 51.78125 48.09375 
Q 58.015625 40.1875 58.015625 27.296875 
Q 58.015625 14.40625 51.78125 6.484375 
Q 45.5625 -1.421875 35.59375 -1.421875 
Q 29.59375 -1.421875 25.265625 0.953125 
Q 20.953125 3.328125 18.109375 8.203125 
M 48.6875 27.296875 
Q 48.6875 37.203125 44.609375 42.84375 
Q 40.53125 48.484375 33.40625 48.484375 
Q 26.265625 48.484375 22.1875 42.84375 
Q 18.109375 37.203125 18.109375 27.296875 
Q 18.109375 17.390625 22.1875 11.75 
Q 26.265625 6.109375 33.40625 6.109375 
Q 40.53125 6.109375 44.609375 11.75 
Q 48.6875 17.390625 48.6875 27.296875 
" id="BitstreamVeraSans-Roman-70"/>
     </defs>
     <g transform="translate(33.4296875 321.31703125)rotate(-90.0)scale(0.22 -0.22)">
      <use xlink:href="#BitstreamVeraSans-Roman-23"/>
      <use x="83.7890625" xlink:href="#BitstreamVeraSans-Roman-20"/>
      <use x="115.576171875" xlink:href="#BitstreamVeraSans-Roman-70"/>
      <use x="179.052734375" xlink:href="#BitstreamVeraSans-Roman-61"/>
      <use x="240.33203125" xlink:href="#BitstreamVeraSans-Roman-72"/>
      <use x="281.4453125" xlink:href="#BitstreamVeraSans-Roman-61"/>
      <use x="342.724609375" xlink:href="#BitstreamVeraSans-Roman-6d"/>
      <use x="440.13671875" xlink:href="#BitstreamVeraSans-Roman-65"/>
      <use x="501.66015625" xlink:href="#BitstreamVeraSans-Roman-74"/>
      <use x="540.869140625" xlink:href="#BitstreamVeraSans-Roman-65"/>
      <use x="602.392578125" xlink:href="#BitstreamVeraSans-Roman-72"/>
      <use x="643.505859375" xlink:href="#BitstreamVeraSans-Roman-73"/>
     </g>
    </g>
   </g>
   <g id="legend_1">
    <g id="PathCollection_12">
     <path d="M -152.388 506.295682 
L -159.112985 511.18167 
L -156.544269 519.087364 
L -148.231731 519.087364 
L -145.663015 511.18167 
z
" style="fill:#4fc601;fill-opacity:0.9;stroke:#000000;stroke-opacity:0.9;"/>
     <path d="M -152.388 506.295682 
L -159.112985 511.18167 
L -156.544269 519.087364 
L -148.231731 519.087364 
L -145.663015 511.18167 
z
" style="fill:#4fc601;fill-opacity:0.9;stroke:#000000;stroke-opacity:0.9;"/>
     <path d="M -152.388 506.295682 
L -159.112985 511.18167 
L -156.544269 519.087364 
L -148.231731 519.087364 
L -145.663015 511.18167 
z
" style="fill:#4fc601;fill-opacity:0.9;stroke:#000000;stroke-opacity:0.9;"/>
    </g>
    <g id="text_15">
     <!-- Introductory Carbon Balance Model (ICBM) -->
     <defs>
      <path d="M 54.890625 33.015625 
L 54.890625 0 
L 45.90625 0 
L 45.90625 32.71875 
Q 45.90625 40.484375 42.875 44.328125 
Q 39.84375 48.1875 33.796875 48.1875 
Q 26.515625 48.1875 22.3125 43.546875 
Q 18.109375 38.921875 18.109375 30.90625 
L 18.109375 0 
L 9.078125 0 
L 9.078125 54.6875 
L 18.109375 54.6875 
L 18.109375 46.1875 
Q 21.34375 51.125 25.703125 53.5625 
Q 30.078125 56 35.796875 56 
Q 45.21875 56 50.046875 50.171875 
Q 54.890625 44.34375 54.890625 33.015625 
" id="BitstreamVeraSans-Roman-6e"/>
      <path d="M 32.171875 -5.078125 
Q 28.375 -14.84375 24.75 -17.8125 
Q 21.140625 -20.796875 15.09375 -20.796875 
L 7.90625 -20.796875 
L 7.90625 -13.28125 
L 13.1875 -13.28125 
Q 16.890625 -13.28125 18.9375 -11.515625 
Q 21 -9.765625 23.484375 -3.21875 
L 25.09375 0.875 
L 2.984375 54.6875 
L 12.5 54.6875 
L 29.59375 11.921875 
L 46.6875 54.6875 
L 56.203125 54.6875 
z
" id="BitstreamVeraSans-Roman-79"/>
      <path d="M 31 75.875 
Q 24.46875 64.65625 21.28125 53.65625 
Q 18.109375 42.671875 18.109375 31.390625 
Q 18.109375 20.125 21.3125 9.0625 
Q 24.515625 -2 31 -13.1875 
L 23.1875 -13.1875 
Q 15.875 -1.703125 12.234375 9.375 
Q 8.59375 20.453125 8.59375 31.390625 
Q 8.59375 42.28125 12.203125 53.3125 
Q 15.828125 64.359375 23.1875 75.875 
z
" id="BitstreamVeraSans-Roman-28"/>
      <path d="M 45.40625 46.390625 
L 45.40625 75.984375 
L 54.390625 75.984375 
L 54.390625 0 
L 45.40625 0 
L 45.40625 8.203125 
Q 42.578125 3.328125 38.25 0.953125 
Q 33.9375 -1.421875 27.875 -1.421875 
Q 17.96875 -1.421875 11.734375 6.484375 
Q 5.515625 14.40625 5.515625 27.296875 
Q 5.515625 40.1875 11.734375 48.09375 
Q 17.96875 56 27.875 56 
Q 33.9375 56 38.25 53.625 
Q 42.578125 51.265625 45.40625 46.390625 
M 14.796875 27.296875 
Q 14.796875 17.390625 18.875 11.75 
Q 22.953125 6.109375 30.078125 6.109375 
Q 37.203125 6.109375 41.296875 11.75 
Q 45.40625 17.390625 45.40625 27.296875 
Q 45.40625 37.203125 41.296875 42.84375 
Q 37.203125 48.484375 30.078125 48.484375 
Q 22.953125 48.484375 18.875 42.84375 
Q 14.796875 37.203125 14.796875 27.296875 
" id="BitstreamVeraSans-Roman-64"/>
      <path d="M 8.5 21.578125 
L 8.5 54.6875 
L 17.484375 54.6875 
L 17.484375 21.921875 
Q 17.484375 14.15625 20.5 10.265625 
Q 23.53125 6.390625 29.59375 6.390625 
Q 36.859375 6.390625 41.078125 11.03125 
Q 45.3125 15.671875 45.3125 23.6875 
L 45.3125 54.6875 
L 54.296875 54.6875 
L 54.296875 0 
L 45.3125 0 
L 45.3125 8.40625 
Q 42.046875 3.421875 37.71875 1 
Q 33.40625 -1.421875 27.6875 -1.421875 
Q 18.265625 -1.421875 13.375 4.4375 
Q 8.5 10.296875 8.5 21.578125 
" id="BitstreamVeraSans-Roman-75"/>
      <path d="M 8.015625 75.875 
L 15.828125 75.875 
Q 23.140625 64.359375 26.78125 53.3125 
Q 30.421875 42.28125 30.421875 31.390625 
Q 30.421875 20.453125 26.78125 9.375 
Q 23.140625 -1.703125 15.828125 -13.1875 
L 8.015625 -13.1875 
Q 14.5 -2 17.703125 9.0625 
Q 20.90625 20.125 20.90625 31.390625 
Q 20.90625 42.671875 17.703125 53.65625 
Q 14.5 64.65625 8.015625 75.875 
" id="BitstreamVeraSans-Roman-29"/>
      <path d="M 9.8125 72.90625 
L 19.671875 72.90625 
L 19.671875 0 
L 9.8125 0 
z
" id="BitstreamVeraSans-Roman-49"/>
      <path d="M 19.671875 34.8125 
L 19.671875 8.109375 
L 35.5 8.109375 
Q 43.453125 8.109375 47.28125 11.40625 
Q 51.125 14.703125 51.125 21.484375 
Q 51.125 28.328125 47.28125 31.5625 
Q 43.453125 34.8125 35.5 34.8125 
z
M 19.671875 64.796875 
L 19.671875 42.828125 
L 34.28125 42.828125 
Q 41.5 42.828125 45.03125 45.53125 
Q 48.578125 48.25 48.578125 53.8125 
Q 48.578125 59.328125 45.03125 62.0625 
Q 41.5 64.796875 34.28125 64.796875 
z
M 9.8125 72.90625 
L 35.015625 72.90625 
Q 46.296875 72.90625 52.390625 68.21875 
Q 58.5 63.53125 58.5 54.890625 
Q 58.5 48.1875 55.375 44.234375 
Q 52.25 40.28125 46.1875 39.3125 
Q 53.46875 37.75 57.5 32.78125 
Q 61.53125 27.828125 61.53125 20.40625 
Q 61.53125 10.640625 54.890625 5.3125 
Q 48.25 0 35.984375 0 
L 9.8125 0 
z
" id="BitstreamVeraSans-Roman-42"/>
      <path d="M 9.8125 72.90625 
L 24.515625 72.90625 
L 43.109375 23.296875 
L 61.8125 72.90625 
L 76.515625 72.90625 
L 76.515625 0 
L 66.890625 0 
L 66.890625 64.015625 
L 48.09375 14.015625 
L 38.1875 14.015625 
L 19.390625 64.015625 
L 19.390625 0 
L 9.8125 0 
z
" id="BitstreamVeraSans-Roman-4d"/>
      <path d="M 48.78125 52.59375 
L 48.78125 44.1875 
Q 44.96875 46.296875 41.140625 47.34375 
Q 37.3125 48.390625 33.40625 48.390625 
Q 24.65625 48.390625 19.8125 42.84375 
Q 14.984375 37.3125 14.984375 27.296875 
Q 14.984375 17.28125 19.8125 11.734375 
Q 24.65625 6.203125 33.40625 6.203125 
Q 37.3125 6.203125 41.140625 7.25 
Q 44.96875 8.296875 48.78125 10.40625 
L 48.78125 2.09375 
Q 45.015625 0.34375 40.984375 -0.53125 
Q 36.96875 -1.421875 32.421875 -1.421875 
Q 20.0625 -1.421875 12.78125 6.34375 
Q 5.515625 14.109375 5.515625 27.296875 
Q 5.515625 40.671875 12.859375 48.328125 
Q 20.21875 56 33.015625 56 
Q 37.15625 56 41.109375 55.140625 
Q 45.0625 54.296875 48.78125 52.59375 
" id="BitstreamVeraSans-Roman-63"/>
      <path d="M 64.40625 67.28125 
L 64.40625 56.890625 
Q 59.421875 61.53125 53.78125 63.8125 
Q 48.140625 66.109375 41.796875 66.109375 
Q 29.296875 66.109375 22.65625 58.46875 
Q 16.015625 50.828125 16.015625 36.375 
Q 16.015625 21.96875 22.65625 14.328125 
Q 29.296875 6.6875 41.796875 6.6875 
Q 48.140625 6.6875 53.78125 8.984375 
Q 59.421875 11.28125 64.40625 15.921875 
L 64.40625 5.609375 
Q 59.234375 2.09375 53.4375 0.328125 
Q 47.65625 -1.421875 41.21875 -1.421875 
Q 24.65625 -1.421875 15.125 8.703125 
Q 5.609375 18.84375 5.609375 36.375 
Q 5.609375 53.953125 15.125 64.078125 
Q 24.65625 74.21875 41.21875 74.21875 
Q 47.75 74.21875 53.53125 72.484375 
Q 59.328125 70.75 64.40625 67.28125 
" id="BitstreamVeraSans-Roman-43"/>
      <path d="M 30.609375 48.390625 
Q 23.390625 48.390625 19.1875 42.75 
Q 14.984375 37.109375 14.984375 27.296875 
Q 14.984375 17.484375 19.15625 11.84375 
Q 23.34375 6.203125 30.609375 6.203125 
Q 37.796875 6.203125 41.984375 11.859375 
Q 46.1875 17.53125 46.1875 27.296875 
Q 46.1875 37.015625 41.984375 42.703125 
Q 37.796875 48.390625 30.609375 48.390625 
M 30.609375 56 
Q 42.328125 56 49.015625 48.375 
Q 55.71875 40.765625 55.71875 27.296875 
Q 55.71875 13.875 49.015625 6.21875 
Q 42.328125 -1.421875 30.609375 -1.421875 
Q 18.84375 -1.421875 12.171875 6.21875 
Q 5.515625 13.875 5.515625 27.296875 
Q 5.515625 40.765625 12.171875 48.375 
Q 18.84375 56 30.609375 56 
" id="BitstreamVeraSans-Roman-6f"/>
     </defs>
     <g transform="translate(-126.468 517.14675)scale(0.144 -0.144)">
      <use xlink:href="#BitstreamVeraSans-Roman-49"/>
      <use x="29.4921875" xlink:href="#BitstreamVeraSans-Roman-6e"/>
      <use x="92.87109375" xlink:href="#BitstreamVeraSans-Roman-74"/>
      <use x="132.080078125" xlink:href="#BitstreamVeraSans-Roman-72"/>
      <use x="173.162109375" xlink:href="#BitstreamVeraSans-Roman-6f"/>
      <use x="234.34375" xlink:href="#BitstreamVeraSans-Roman-64"/>
      <use x="297.8203125" xlink:href="#BitstreamVeraSans-Roman-75"/>
      <use x="361.19921875" xlink:href="#BitstreamVeraSans-Roman-63"/>
      <use x="416.1796875" xlink:href="#BitstreamVeraSans-Roman-74"/>
      <use x="455.388671875" xlink:href="#BitstreamVeraSans-Roman-6f"/>
      <use x="516.5703125" xlink:href="#BitstreamVeraSans-Roman-72"/>
      <use x="557.68359375" xlink:href="#BitstreamVeraSans-Roman-79"/>
      <use x="616.86328125" xlink:href="#BitstreamVeraSans-Roman-20"/>
      <use x="648.650390625" xlink:href="#BitstreamVeraSans-Roman-43"/>
      <use x="718.474609375" xlink:href="#BitstreamVeraSans-Roman-61"/>
      <use x="779.75390625" xlink:href="#BitstreamVeraSans-Roman-72"/>
      <use x="820.8671875" xlink:href="#BitstreamVeraSans-Roman-62"/>
      <use x="884.34375" xlink:href="#BitstreamVeraSans-Roman-6f"/>
      <use x="945.525390625" xlink:href="#BitstreamVeraSans-Roman-6e"/>
      <use x="1008.904296875" xlink:href="#BitstreamVeraSans-Roman-20"/>
      <use x="1040.69140625" xlink:href="#BitstreamVeraSans-Roman-42"/>
      <use x="1109.294921875" xlink:href="#BitstreamVeraSans-Roman-61"/>
      <use x="1170.57421875" xlink:href="#BitstreamVeraSans-Roman-6c"/>
      <use x="1198.357421875" xlink:href="#BitstreamVeraSans-Roman-61"/>
      <use x="1259.63671875" xlink:href="#BitstreamVeraSans-Roman-6e"/>
      <use x="1323.015625" xlink:href="#BitstreamVeraSans-Roman-63"/>
      <use x="1377.99609375" xlink:href="#BitstreamVeraSans-Roman-65"/>
      <use x="1439.51953125" xlink:href="#BitstreamVeraSans-Roman-20"/>
      <use x="1471.306640625" xlink:href="#BitstreamVeraSans-Roman-4d"/>
      <use x="1557.5859375" xlink:href="#BitstreamVeraSans-Roman-6f"/>
      <use x="1618.767578125" xlink:href="#BitstreamVeraSans-Roman-64"/>
      <use x="1682.244140625" xlink:href="#BitstreamVeraSans-Roman-65"/>
      <use x="1743.767578125" xlink:href="#BitstreamVeraSans-Roman-6c"/>
      <use x="1771.55078125" xlink:href="#BitstreamVeraSans-Roman-20"/>
      <use x="1803.337890625" xlink:href="#BitstreamVeraSans-Roman-28"/>
      <use x="1842.3515625" xlink:href="#BitstreamVeraSans-Roman-49"/>
      <use x="1871.84375" xlink:href="#BitstreamVeraSans-Roman-43"/>
      <use x="1941.66796875" xlink:href="#BitstreamVeraSans-Roman-42"/>
      <use x="2010.271484375" xlink:href="#BitstreamVeraSans-Roman-4d"/>
      <use x="2096.55078125" xlink:href="#BitstreamVeraSans-Roman-29"/>
     </g>
    </g>
    <g id="PathCollection_13">
     <path d="M -152.388 544.50325 
L -142.388 534.50325 
L -152.388 524.50325 
L -162.388 534.50325 
z
" style="fill:#3b5dff;fill-opacity:0.9;stroke:#000000;stroke-opacity:0.9;"/>
     <path d="M -152.388 544.50325 
L -142.388 534.50325 
L -152.388 524.50325 
L -162.388 534.50325 
z
" style="fill:#3b5dff;fill-opacity:0.9;stroke:#000000;stroke-opacity:0.9;"/>
     <path d="M -152.388 544.50325 
L -142.388 534.50325 
L -152.388 524.50325 
L -162.388 534.50325 
z
" style="fill:#3b5dff;fill-opacity:0.9;stroke:#000000;stroke-opacity:0.9;"/>
    </g>
    <g id="text_16">
     <!-- Century -->
     <g transform="translate(-126.468 538.28325)scale(0.144 -0.144)">
      <use xlink:href="#BitstreamVeraSans-Roman-43"/>
      <use x="69.82421875" xlink:href="#BitstreamVeraSans-Roman-65"/>
      <use x="131.34765625" xlink:href="#BitstreamVeraSans-Roman-6e"/>
      <use x="194.7265625" xlink:href="#BitstreamVeraSans-Roman-74"/>
      <use x="233.935546875" xlink:href="#BitstreamVeraSans-Roman-75"/>
      <use x="297.314453125" xlink:href="#BitstreamVeraSans-Roman-72"/>
      <use x="338.427734375" xlink:href="#BitstreamVeraSans-Roman-79"/>
     </g>
    </g>
    <g id="PathCollection_14">
     <path d="M -159.459068 555.63975 
L -145.316932 555.63975 
M -152.388 562.710818 
L -152.388 548.568682 
" style="fill:#4a3b53;fill-opacity:0.9;stroke:#4a3b53;stroke-opacity:0.9;"/>
     <path d="M -159.459068 555.63975 
L -145.316932 555.63975 
M -152.388 562.710818 
L -152.388 548.568682 
" style="fill:#4a3b53;fill-opacity:0.9;stroke:#4a3b53;stroke-opacity:0.9;"/>
     <path d="M -159.459068 555.63975 
L -145.316932 555.63975 
M -152.388 562.710818 
L -152.388 548.568682 
" style="fill:#4a3b53;fill-opacity:0.9;stroke:#4a3b53;stroke-opacity:0.9;"/>
    </g>
    <g id="text_17">
     <!-- Exoenzyme model - reverse Michaelis Menten -->
     <defs>
      <path d="M 9.8125 72.90625 
L 55.90625 72.90625 
L 55.90625 64.59375 
L 19.671875 64.59375 
L 19.671875 43.015625 
L 54.390625 43.015625 
L 54.390625 34.71875 
L 19.671875 34.71875 
L 19.671875 8.296875 
L 56.78125 8.296875 
L 56.78125 0 
L 9.8125 0 
z
" id="BitstreamVeraSans-Roman-45"/>
      <path d="M 4.890625 31.390625 
L 31.203125 31.390625 
L 31.203125 23.390625 
L 4.890625 23.390625 
z
" id="BitstreamVeraSans-Roman-2d"/>
      <path d="M 54.890625 54.6875 
L 35.109375 28.078125 
L 55.90625 0 
L 45.3125 0 
L 29.390625 21.484375 
L 13.484375 0 
L 2.875 0 
L 24.125 28.609375 
L 4.6875 54.6875 
L 15.28125 54.6875 
L 29.78125 35.203125 
L 44.28125 54.6875 
z
" id="BitstreamVeraSans-Roman-78"/>
      <path d="M 5.515625 54.6875 
L 48.1875 54.6875 
L 48.1875 46.484375 
L 14.40625 7.171875 
L 48.1875 7.171875 
L 48.1875 0 
L 4.296875 0 
L 4.296875 8.203125 
L 38.09375 47.515625 
L 5.515625 47.515625 
z
" id="BitstreamVeraSans-Roman-7a"/>
      <path d="M 54.890625 33.015625 
L 54.890625 0 
L 45.90625 0 
L 45.90625 32.71875 
Q 45.90625 40.484375 42.875 44.328125 
Q 39.84375 48.1875 33.796875 48.1875 
Q 26.515625 48.1875 22.3125 43.546875 
Q 18.109375 38.921875 18.109375 30.90625 
L 18.109375 0 
L 9.078125 0 
L 9.078125 75.984375 
L 18.109375 75.984375 
L 18.109375 46.1875 
Q 21.34375 51.125 25.703125 53.5625 
Q 30.078125 56 35.796875 56 
Q 45.21875 56 50.046875 50.171875 
Q 54.890625 44.34375 54.890625 33.015625 
" id="BitstreamVeraSans-Roman-68"/>
     </defs>
     <g transform="translate(-126.468 559.41975)scale(0.144 -0.144)">
      <use xlink:href="#BitstreamVeraSans-Roman-45"/>
      <use x="63.18359375" xlink:href="#BitstreamVeraSans-Roman-78"/>
      <use x="122.31640625" xlink:href="#BitstreamVeraSans-Roman-6f"/>
      <use x="183.498046875" xlink:href="#BitstreamVeraSans-Roman-65"/>
      <use x="245.021484375" xlink:href="#BitstreamVeraSans-Roman-6e"/>
      <use x="308.400390625" xlink:href="#BitstreamVeraSans-Roman-7a"/>
      <use x="360.890625" xlink:href="#BitstreamVeraSans-Roman-79"/>
      <use x="420.0703125" xlink:href="#BitstreamVeraSans-Roman-6d"/>
      <use x="517.482421875" xlink:href="#BitstreamVeraSans-Roman-65"/>
      <use x="579.005859375" xlink:href="#BitstreamVeraSans-Roman-20"/>
      <use x="610.79296875" xlink:href="#BitstreamVeraSans-Roman-6d"/>
      <use x="708.205078125" xlink:href="#BitstreamVeraSans-Roman-6f"/>
      <use x="769.38671875" xlink:href="#BitstreamVeraSans-Roman-64"/>
      <use x="832.86328125" xlink:href="#BitstreamVeraSans-Roman-65"/>
      <use x="894.38671875" xlink:href="#BitstreamVeraSans-Roman-6c"/>
      <use x="922.169921875" xlink:href="#BitstreamVeraSans-Roman-20"/>
      <use x="953.95703125" xlink:href="#BitstreamVeraSans-Roman-2d"/>
      <use x="990.041015625" xlink:href="#BitstreamVeraSans-Roman-20"/>
      <use x="1021.828125" xlink:href="#BitstreamVeraSans-Roman-72"/>
      <use x="1062.91015625" xlink:href="#BitstreamVeraSans-Roman-65"/>
      <use x="1124.43359375" xlink:href="#BitstreamVeraSans-Roman-76"/>
      <use x="1183.61328125" xlink:href="#BitstreamVeraSans-Roman-65"/>
      <use x="1245.13671875" xlink:href="#BitstreamVeraSans-Roman-72"/>
      <use x="1286.25" xlink:href="#BitstreamVeraSans-Roman-73"/>
      <use x="1338.349609375" xlink:href="#BitstreamVeraSans-Roman-65"/>
      <use x="1399.873046875" xlink:href="#BitstreamVeraSans-Roman-20"/>
      <use x="1431.66015625" xlink:href="#BitstreamVeraSans-Roman-4d"/>
      <use x="1517.939453125" xlink:href="#BitstreamVeraSans-Roman-69"/>
      <use x="1545.72265625" xlink:href="#BitstreamVeraSans-Roman-63"/>
      <use x="1600.703125" xlink:href="#BitstreamVeraSans-Roman-68"/>
      <use x="1664.08203125" xlink:href="#BitstreamVeraSans-Roman-61"/>
      <use x="1725.361328125" xlink:href="#BitstreamVeraSans-Roman-65"/>
      <use x="1786.884765625" xlink:href="#BitstreamVeraSans-Roman-6c"/>
      <use x="1814.66796875" xlink:href="#BitstreamVeraSans-Roman-69"/>
      <use x="1842.451171875" xlink:href="#BitstreamVeraSans-Roman-73"/>
      <use x="1894.55078125" xlink:href="#BitstreamVeraSans-Roman-20"/>
      <use x="1926.337890625" xlink:href="#BitstreamVeraSans-Roman-4d"/>
      <use x="2012.6171875" xlink:href="#BitstreamVeraSans-Roman-65"/>
      <use x="2074.140625" xlink:href="#BitstreamVeraSans-Roman-6e"/>
      <use x="2137.51953125" xlink:href="#BitstreamVeraSans-Roman-74"/>
      <use x="2176.728515625" xlink:href="#BitstreamVeraSans-Roman-65"/>
      <use x="2238.251953125" xlink:href="#BitstreamVeraSans-Roman-6e"/>
     </g>
    </g>
    <g id="PathCollection_15">
     <path d="M -152.388 569.705182 
L -153.975554 574.59117 
L -159.112985 574.59117 
L -154.956716 577.610876 
L -156.544269 582.496864 
L -152.388 579.477157 
L -148.231731 582.496864 
L -149.819284 577.610876 
L -145.663015 574.59117 
L -150.800446 574.59117 
z
" style="fill:#ff2f80;fill-opacity:0.9;stroke:#000000;stroke-opacity:0.9;"/>
     <path d="M -152.388 569.705182 
L -153.975554 574.59117 
L -159.112985 574.59117 
L -154.956716 577.610876 
L -156.544269 582.496864 
L -152.388 579.477157 
L -148.231731 582.496864 
L -149.819284 577.610876 
L -145.663015 574.59117 
L -150.800446 574.59117 
z
" style="fill:#ff2f80;fill-opacity:0.9;stroke:#000000;stroke-opacity:0.9;"/>
     <path d="M -152.388 569.705182 
L -153.975554 574.59117 
L -159.112985 574.59117 
L -154.956716 577.610876 
L -156.544269 582.496864 
L -152.388 579.477157 
L -148.231731 582.496864 
L -149.819284 577.610876 
L -145.663015 574.59117 
L -150.800446 574.59117 
z
" style="fill:#ff2f80;fill-opacity:0.9;stroke:#000000;stroke-opacity:0.9;"/>
    </g>
    <g id="text_18">
     <!-- FB2005 - The C-N model of SOM dynamics, two decomposer types (model 4) -->
     <defs>
      <path d="M 39.40625 66.21875 
Q 28.65625 66.21875 22.328125 58.203125 
Q 16.015625 50.203125 16.015625 36.375 
Q 16.015625 22.609375 22.328125 14.59375 
Q 28.65625 6.59375 39.40625 6.59375 
Q 50.140625 6.59375 56.421875 14.59375 
Q 62.703125 22.609375 62.703125 36.375 
Q 62.703125 50.203125 56.421875 58.203125 
Q 50.140625 66.21875 39.40625 66.21875 
M 39.40625 74.21875 
Q 54.734375 74.21875 63.90625 63.9375 
Q 73.09375 53.65625 73.09375 36.375 
Q 73.09375 19.140625 63.90625 8.859375 
Q 54.734375 -1.421875 39.40625 -1.421875 
Q 24.03125 -1.421875 14.8125 8.828125 
Q 5.609375 19.09375 5.609375 36.375 
Q 5.609375 53.65625 14.8125 63.9375 
Q 24.03125 74.21875 39.40625 74.21875 
" id="BitstreamVeraSans-Roman-4f"/>
      <path d="M 11.71875 12.40625 
L 22.015625 12.40625 
L 22.015625 4 
L 14.015625 -11.625 
L 7.71875 -11.625 
L 11.71875 4 
z
" id="BitstreamVeraSans-Roman-2c"/>
      <path d="M 9.8125 72.90625 
L 51.703125 72.90625 
L 51.703125 64.59375 
L 19.671875 64.59375 
L 19.671875 43.109375 
L 48.578125 43.109375 
L 48.578125 34.8125 
L 19.671875 34.8125 
L 19.671875 0 
L 9.8125 0 
z
" id="BitstreamVeraSans-Roman-46"/>
      <path d="M 4.203125 54.6875 
L 13.1875 54.6875 
L 24.421875 12.015625 
L 35.59375 54.6875 
L 46.1875 54.6875 
L 57.421875 12.015625 
L 68.609375 54.6875 
L 77.59375 54.6875 
L 63.28125 0 
L 52.6875 0 
L 40.921875 44.828125 
L 29.109375 0 
L 18.5 0 
z
" id="BitstreamVeraSans-Roman-77"/>
      <path d="M 53.515625 70.515625 
L 53.515625 60.890625 
Q 47.90625 63.578125 42.921875 64.890625 
Q 37.9375 66.21875 33.296875 66.21875 
Q 25.25 66.21875 20.875 63.09375 
Q 16.5 59.96875 16.5 54.203125 
Q 16.5 49.359375 19.40625 46.890625 
Q 22.3125 44.4375 30.421875 42.921875 
L 36.375 41.703125 
Q 47.40625 39.59375 52.65625 34.296875 
Q 57.90625 29 57.90625 20.125 
Q 57.90625 9.515625 50.796875 4.046875 
Q 43.703125 -1.421875 29.984375 -1.421875 
Q 24.8125 -1.421875 18.96875 -0.25 
Q 13.140625 0.921875 6.890625 3.21875 
L 6.890625 13.375 
Q 12.890625 10.015625 18.65625 8.296875 
Q 24.421875 6.59375 29.984375 6.59375 
Q 38.421875 6.59375 43.015625 9.90625 
Q 47.609375 13.234375 47.609375 19.390625 
Q 47.609375 24.75 44.3125 27.78125 
Q 41.015625 30.8125 33.5 32.328125 
L 27.484375 33.5 
Q 16.453125 35.6875 11.515625 40.375 
Q 6.59375 45.0625 6.59375 53.421875 
Q 6.59375 63.09375 13.40625 68.65625 
Q 20.21875 74.21875 32.171875 74.21875 
Q 37.3125 74.21875 42.625 73.28125 
Q 47.953125 72.359375 53.515625 70.515625 
" id="BitstreamVeraSans-Roman-53"/>
      <path d="M 37.109375 75.984375 
L 37.109375 68.5 
L 28.515625 68.5 
Q 23.6875 68.5 21.796875 66.546875 
Q 19.921875 64.59375 19.921875 59.515625 
L 19.921875 54.6875 
L 34.71875 54.6875 
L 34.71875 47.703125 
L 19.921875 47.703125 
L 19.921875 0 
L 10.890625 0 
L 10.890625 47.703125 
L 2.296875 47.703125 
L 2.296875 54.6875 
L 10.890625 54.6875 
L 10.890625 58.5 
Q 10.890625 67.625 15.140625 71.796875 
Q 19.390625 75.984375 28.609375 75.984375 
z
" id="BitstreamVeraSans-Roman-66"/>
      <path d="M -0.296875 72.90625 
L 61.375 72.90625 
L 61.375 64.59375 
L 35.5 64.59375 
L 35.5 0 
L 25.59375 0 
L 25.59375 64.59375 
L -0.296875 64.59375 
z
" id="BitstreamVeraSans-Roman-54"/>
      <path d="M 9.8125 72.90625 
L 23.09375 72.90625 
L 55.421875 11.921875 
L 55.421875 72.90625 
L 64.984375 72.90625 
L 64.984375 0 
L 51.703125 0 
L 19.390625 60.984375 
L 19.390625 0 
L 9.8125 0 
z
" id="BitstreamVeraSans-Roman-4e"/>
     </defs>
     <g transform="translate(-126.468 580.55625)scale(0.144 -0.144)">
      <use xlink:href="#BitstreamVeraSans-Roman-46"/>
      <use x="57.51953125" xlink:href="#BitstreamVeraSans-Roman-42"/>
      <use x="126.123046875" xlink:href="#BitstreamVeraSans-Roman-32"/>
      <use x="189.74609375" xlink:href="#BitstreamVeraSans-Roman-30"/>
      <use x="253.369140625" xlink:href="#BitstreamVeraSans-Roman-30"/>
      <use x="316.9921875" xlink:href="#BitstreamVeraSans-Roman-35"/>
      <use x="380.615234375" xlink:href="#BitstreamVeraSans-Roman-20"/>
      <use x="412.40234375" xlink:href="#BitstreamVeraSans-Roman-2d"/>
      <use x="448.486328125" xlink:href="#BitstreamVeraSans-Roman-20"/>
      <use x="480.2734375" xlink:href="#BitstreamVeraSans-Roman-54"/>
      <use x="541.357421875" xlink:href="#BitstreamVeraSans-Roman-68"/>
      <use x="604.736328125" xlink:href="#BitstreamVeraSans-Roman-65"/>
      <use x="666.259765625" xlink:href="#BitstreamVeraSans-Roman-20"/>
      <use x="698.046875" xlink:href="#BitstreamVeraSans-Roman-43"/>
      <use x="767.87109375" xlink:href="#BitstreamVeraSans-Roman-2d"/>
      <use x="803.955078125" xlink:href="#BitstreamVeraSans-Roman-4e"/>
      <use x="878.759765625" xlink:href="#BitstreamVeraSans-Roman-20"/>
      <use x="910.546875" xlink:href="#BitstreamVeraSans-Roman-6d"/>
      <use x="1007.958984375" xlink:href="#BitstreamVeraSans-Roman-6f"/>
      <use x="1069.140625" xlink:href="#BitstreamVeraSans-Roman-64"/>
      <use x="1132.6171875" xlink:href="#BitstreamVeraSans-Roman-65"/>
      <use x="1194.140625" xlink:href="#BitstreamVeraSans-Roman-6c"/>
      <use x="1221.923828125" xlink:href="#BitstreamVeraSans-Roman-20"/>
      <use x="1253.7109375" xlink:href="#BitstreamVeraSans-Roman-6f"/>
      <use x="1314.892578125" xlink:href="#BitstreamVeraSans-Roman-66"/>
      <use x="1350.09765625" xlink:href="#BitstreamVeraSans-Roman-20"/>
      <use x="1381.884765625" xlink:href="#BitstreamVeraSans-Roman-53"/>
      <use x="1445.361328125" xlink:href="#BitstreamVeraSans-Roman-4f"/>
      <use x="1524.072265625" xlink:href="#BitstreamVeraSans-Roman-4d"/>
      <use x="1610.3515625" xlink:href="#BitstreamVeraSans-Roman-20"/>
      <use x="1642.138671875" xlink:href="#BitstreamVeraSans-Roman-64"/>
      <use x="1705.615234375" xlink:href="#BitstreamVeraSans-Roman-79"/>
      <use x="1764.794921875" xlink:href="#BitstreamVeraSans-Roman-6e"/>
      <use x="1828.173828125" xlink:href="#BitstreamVeraSans-Roman-61"/>
      <use x="1889.453125" xlink:href="#BitstreamVeraSans-Roman-6d"/>
      <use x="1986.865234375" xlink:href="#BitstreamVeraSans-Roman-69"/>
      <use x="2014.6484375" xlink:href="#BitstreamVeraSans-Roman-63"/>
      <use x="2069.62890625" xlink:href="#BitstreamVeraSans-Roman-73"/>
      <use x="2121.728515625" xlink:href="#BitstreamVeraSans-Roman-2c"/>
      <use x="2153.515625" xlink:href="#BitstreamVeraSans-Roman-20"/>
      <use x="2185.302734375" xlink:href="#BitstreamVeraSans-Roman-74"/>
      <use x="2224.51171875" xlink:href="#BitstreamVeraSans-Roman-77"/>
      <use x="2306.298828125" xlink:href="#BitstreamVeraSans-Roman-6f"/>
      <use x="2367.48046875" xlink:href="#BitstreamVeraSans-Roman-20"/>
      <use x="2399.267578125" xlink:href="#BitstreamVeraSans-Roman-64"/>
      <use x="2462.744140625" xlink:href="#BitstreamVeraSans-Roman-65"/>
      <use x="2524.267578125" xlink:href="#BitstreamVeraSans-Roman-63"/>
      <use x="2579.248046875" xlink:href="#BitstreamVeraSans-Roman-6f"/>
      <use x="2640.4296875" xlink:href="#BitstreamVeraSans-Roman-6d"/>
      <use x="2737.841796875" xlink:href="#BitstreamVeraSans-Roman-70"/>
      <use x="2801.318359375" xlink:href="#BitstreamVeraSans-Roman-6f"/>
      <use x="2862.5" xlink:href="#BitstreamVeraSans-Roman-73"/>
      <use x="2914.599609375" xlink:href="#BitstreamVeraSans-Roman-65"/>
      <use x="2976.123046875" xlink:href="#BitstreamVeraSans-Roman-72"/>
      <use x="3017.236328125" xlink:href="#BitstreamVeraSans-Roman-20"/>
      <use x="3049.0234375" xlink:href="#BitstreamVeraSans-Roman-74"/>
      <use x="3088.232421875" xlink:href="#BitstreamVeraSans-Roman-79"/>
      <use x="3147.412109375" xlink:href="#BitstreamVeraSans-Roman-70"/>
      <use x="3210.888671875" xlink:href="#BitstreamVeraSans-Roman-65"/>
      <use x="3272.412109375" xlink:href="#BitstreamVeraSans-Roman-73"/>
      <use x="3324.51171875" xlink:href="#BitstreamVeraSans-Roman-20"/>
      <use x="3356.298828125" xlink:href="#BitstreamVeraSans-Roman-28"/>
      <use x="3395.3125" xlink:href="#BitstreamVeraSans-Roman-6d"/>
      <use x="3492.724609375" xlink:href="#BitstreamVeraSans-Roman-6f"/>
      <use x="3553.90625" xlink:href="#BitstreamVeraSans-Roman-64"/>
      <use x="3617.3828125" xlink:href="#BitstreamVeraSans-Roman-65"/>
      <use x="3678.90625" xlink:href="#BitstreamVeraSans-Roman-6c"/>
      <use x="3706.689453125" xlink:href="#BitstreamVeraSans-Roman-20"/>
      <use x="3738.4765625" xlink:href="#BitstreamVeraSans-Roman-34"/>
      <use x="3802.099609375" xlink:href="#BitstreamVeraSans-Roman-29"/>
     </g>
    </g>
    <g id="PathCollection_16">
     <path d="M -159.459068 597.91275 
L -145.316932 604.983818 
L -145.316932 590.841682 
z
" style="fill:#61615a;fill-opacity:0.9;stroke:#000000;stroke-opacity:0.9;"/>
     <path d="M -159.459068 597.91275 
L -145.316932 604.983818 
L -145.316932 590.841682 
z
" style="fill:#61615a;fill-opacity:0.9;stroke:#000000;stroke-opacity:0.9;"/>
     <path d="M -159.459068 597.91275 
L -145.316932 604.983818 
L -145.316932 590.841682 
z
" style="fill:#61615a;fill-opacity:0.9;stroke:#000000;stroke-opacity:0.9;"/>
    </g>
    <g id="text_19">
     <!-- HD-1945 -->
     <defs>
      <path d="M 9.8125 72.90625 
L 19.671875 72.90625 
L 19.671875 43.015625 
L 55.515625 43.015625 
L 55.515625 72.90625 
L 65.375 72.90625 
L 65.375 0 
L 55.515625 0 
L 55.515625 34.71875 
L 19.671875 34.71875 
L 19.671875 0 
L 9.8125 0 
z
" id="BitstreamVeraSans-Roman-48"/>
      <path d="M 19.671875 64.796875 
L 19.671875 8.109375 
L 31.59375 8.109375 
Q 46.6875 8.109375 53.6875 14.9375 
Q 60.6875 21.78125 60.6875 36.53125 
Q 60.6875 51.171875 53.6875 57.984375 
Q 46.6875 64.796875 31.59375 64.796875 
z
M 9.8125 72.90625 
L 30.078125 72.90625 
Q 51.265625 72.90625 61.171875 64.09375 
Q 71.09375 55.28125 71.09375 36.53125 
Q 71.09375 17.671875 61.125 8.828125 
Q 51.171875 0 30.078125 0 
L 9.8125 0 
z
" id="BitstreamVeraSans-Roman-44"/>
      <path d="M 10.984375 1.515625 
L 10.984375 10.5 
Q 14.703125 8.734375 18.5 7.8125 
Q 22.3125 6.890625 25.984375 6.890625 
Q 35.75 6.890625 40.890625 13.453125 
Q 46.046875 20.015625 46.78125 33.40625 
Q 43.953125 29.203125 39.59375 26.953125 
Q 35.25 24.703125 29.984375 24.703125 
Q 19.046875 24.703125 12.671875 31.3125 
Q 6.296875 37.9375 6.296875 49.421875 
Q 6.296875 60.640625 12.9375 67.421875 
Q 19.578125 74.21875 30.609375 74.21875 
Q 43.265625 74.21875 49.921875 64.515625 
Q 56.59375 54.828125 56.59375 36.375 
Q 56.59375 19.140625 48.40625 8.859375 
Q 40.234375 -1.421875 26.421875 -1.421875 
Q 22.703125 -1.421875 18.890625 -0.6875 
Q 15.09375 0.046875 10.984375 1.515625 
M 30.609375 32.421875 
Q 37.25 32.421875 41.125 36.953125 
Q 45.015625 41.5 45.015625 49.421875 
Q 45.015625 57.28125 41.125 61.84375 
Q 37.25 66.40625 30.609375 66.40625 
Q 23.96875 66.40625 20.09375 61.84375 
Q 16.21875 57.28125 16.21875 49.421875 
Q 16.21875 41.5 20.09375 36.953125 
Q 23.96875 32.421875 30.609375 32.421875 
" id="BitstreamVeraSans-Roman-39"/>
     </defs>
     <g transform="translate(-126.468 601.69275)scale(0.144 -0.144)">
      <use xlink:href="#BitstreamVeraSans-Roman-48"/>
      <use x="75.1953125" xlink:href="#BitstreamVeraSans-Roman-44"/>
      <use x="152.197265625" xlink:href="#BitstreamVeraSans-Roman-2d"/>
      <use x="188.28125" xlink:href="#BitstreamVeraSans-Roman-31"/>
      <use x="251.904296875" xlink:href="#BitstreamVeraSans-Roman-39"/>
      <use x="315.52734375" xlink:href="#BitstreamVeraSans-Roman-34"/>
      <use x="379.150390625" xlink:href="#BitstreamVeraSans-Roman-35"/>
     </g>
    </g>
    <g id="PathCollection_17">
     <path d="M -152.388 626.120318 
C -150.512731 626.120318 -148.714016 625.375266 -147.388 624.04925 
C -146.061985 622.723234 -145.316932 620.924519 -145.316932 619.04925 
C -145.316932 617.173981 -146.061985 615.375266 -147.388 614.04925 
C -148.714016 612.723234 -150.512731 611.978182 -152.388 611.978182 
C -154.263269 611.978182 -156.061985 612.723234 -157.388 614.04925 
C -158.714016 615.375266 -159.459068 617.173981 -159.459068 619.04925 
C -159.459068 620.924519 -158.714016 622.723234 -157.388 624.04925 
C -156.061985 625.375266 -154.263269 626.120318 -152.388 626.120318 
z
" style="fill:#ba0900;fill-opacity:0.9;stroke:#000000;stroke-opacity:0.9;"/>
     <path d="M -152.388 626.120318 
C -150.512731 626.120318 -148.714016 625.375266 -147.388 624.04925 
C -146.061985 622.723234 -145.316932 620.924519 -145.316932 619.04925 
C -145.316932 617.173981 -146.061985 615.375266 -147.388 614.04925 
C -148.714016 612.723234 -150.512731 611.978182 -152.388 611.978182 
C -154.263269 611.978182 -156.061985 612.723234 -157.388 614.04925 
C -158.714016 615.375266 -159.459068 617.173981 -159.459068 619.04925 
C -159.459068 620.924519 -158.714016 622.723234 -157.388 624.04925 
C -156.061985 625.375266 -154.263269 626.120318 -152.388 626.120318 
z
" style="fill:#ba0900;fill-opacity:0.9;stroke:#000000;stroke-opacity:0.9;"/>
     <path d="M -152.388 626.120318 
C -150.512731 626.120318 -148.714016 625.375266 -147.388 624.04925 
C -146.061985 622.723234 -145.316932 620.924519 -145.316932 619.04925 
C -145.316932 617.173981 -146.061985 615.375266 -147.388 614.04925 
C -148.714016 612.723234 -150.512731 611.978182 -152.388 611.978182 
C -154.263269 611.978182 -156.061985 612.723234 -157.388 614.04925 
C -158.714016 615.375266 -159.459068 617.173981 -159.459068 619.04925 
C -159.459068 620.924519 -158.714016 622.723234 -157.388 624.04925 
C -156.061985 625.375266 -154.263269 626.120318 -152.388 626.120318 
z
" style="fill:#ba0900;fill-opacity:0.9;stroke:#000000;stroke-opacity:0.9;"/>
    </g>
    <g id="text_20">
     <!-- Microbial-Enzyme-Mediated Decomposition model (MEND) -->
     <g transform="translate(-126.468 622.82925)scale(0.144 -0.144)">
      <use xlink:href="#BitstreamVeraSans-Roman-4d"/>
      <use x="86.279296875" xlink:href="#BitstreamVeraSans-Roman-69"/>
      <use x="114.0625" xlink:href="#BitstreamVeraSans-Roman-63"/>
      <use x="169.04296875" xlink:href="#BitstreamVeraSans-Roman-72"/>
      <use x="210.125" xlink:href="#BitstreamVeraSans-Roman-6f"/>
      <use x="271.306640625" xlink:href="#BitstreamVeraSans-Roman-62"/>
      <use x="334.783203125" xlink:href="#BitstreamVeraSans-Roman-69"/>
      <use x="362.56640625" xlink:href="#BitstreamVeraSans-Roman-61"/>
      <use x="423.845703125" xlink:href="#BitstreamVeraSans-Roman-6c"/>
      <use x="451.62890625" xlink:href="#BitstreamVeraSans-Roman-2d"/>
      <use x="487.712890625" xlink:href="#BitstreamVeraSans-Roman-45"/>
      <use x="550.896484375" xlink:href="#BitstreamVeraSans-Roman-6e"/>
      <use x="614.275390625" xlink:href="#BitstreamVeraSans-Roman-7a"/>
      <use x="666.765625" xlink:href="#BitstreamVeraSans-Roman-79"/>
      <use x="725.9453125" xlink:href="#BitstreamVeraSans-Roman-6d"/>
      <use x="823.357421875" xlink:href="#BitstreamVeraSans-Roman-65"/>
      <use x="884.880859375" xlink:href="#BitstreamVeraSans-Roman-2d"/>
      <use x="920.96484375" xlink:href="#BitstreamVeraSans-Roman-4d"/>
      <use x="1007.244140625" xlink:href="#BitstreamVeraSans-Roman-65"/>
      <use x="1068.767578125" xlink:href="#BitstreamVeraSans-Roman-64"/>
      <use x="1132.244140625" xlink:href="#BitstreamVeraSans-Roman-69"/>
      <use x="1160.02734375" xlink:href="#BitstreamVeraSans-Roman-61"/>
      <use x="1221.306640625" xlink:href="#BitstreamVeraSans-Roman-74"/>
      <use x="1260.515625" xlink:href="#BitstreamVeraSans-Roman-65"/>
      <use x="1322.0390625" xlink:href="#BitstreamVeraSans-Roman-64"/>
      <use x="1385.515625" xlink:href="#BitstreamVeraSans-Roman-20"/>
      <use x="1417.302734375" xlink:href="#BitstreamVeraSans-Roman-44"/>
      <use x="1494.3046875" xlink:href="#BitstreamVeraSans-Roman-65"/>
      <use x="1555.828125" xlink:href="#BitstreamVeraSans-Roman-63"/>
      <use x="1610.80859375" xlink:href="#BitstreamVeraSans-Roman-6f"/>
      <use x="1671.990234375" xlink:href="#BitstreamVeraSans-Roman-6d"/>
      <use x="1769.40234375" xlink:href="#BitstreamVeraSans-Roman-70"/>
      <use x="1832.87890625" xlink:href="#BitstreamVeraSans-Roman-6f"/>
      <use x="1894.060546875" xlink:href="#BitstreamVeraSans-Roman-73"/>
      <use x="1946.16015625" xlink:href="#BitstreamVeraSans-Roman-69"/>
      <use x="1973.943359375" xlink:href="#BitstreamVeraSans-Roman-74"/>
      <use x="2013.15234375" xlink:href="#BitstreamVeraSans-Roman-69"/>
      <use x="2040.935546875" xlink:href="#BitstreamVeraSans-Roman-6f"/>
      <use x="2102.1171875" xlink:href="#BitstreamVeraSans-Roman-6e"/>
      <use x="2165.49609375" xlink:href="#BitstreamVeraSans-Roman-20"/>
      <use x="2197.283203125" xlink:href="#BitstreamVeraSans-Roman-6d"/>
      <use x="2294.6953125" xlink:href="#BitstreamVeraSans-Roman-6f"/>
      <use x="2355.876953125" xlink:href="#BitstreamVeraSans-Roman-64"/>
      <use x="2419.353515625" xlink:href="#BitstreamVeraSans-Roman-65"/>
      <use x="2480.876953125" xlink:href="#BitstreamVeraSans-Roman-6c"/>
      <use x="2508.66015625" xlink:href="#BitstreamVeraSans-Roman-20"/>
      <use x="2540.447265625" xlink:href="#BitstreamVeraSans-Roman-28"/>
      <use x="2579.4609375" xlink:href="#BitstreamVeraSans-Roman-4d"/>
      <use x="2665.740234375" xlink:href="#BitstreamVeraSans-Roman-45"/>
      <use x="2728.923828125" xlink:href="#BitstreamVeraSans-Roman-4e"/>
      <use x="2803.728515625" xlink:href="#BitstreamVeraSans-Roman-44"/>
      <use x="2880.73046875" xlink:href="#BitstreamVeraSans-Roman-29"/>
     </g>
    </g>
    <g id="PathCollection_18">
     <path d="M 462.785324 520.437676 
L 476.927459 520.437676 
L 476.927459 506.295541 
L 462.785324 506.295541 
z
" style="fill:#6b7900;fill-opacity:0.9;stroke:#000000;stroke-opacity:0.9;"/>
     <path d="M 462.785324 520.437676 
L 476.927459 520.437676 
L 476.927459 506.295541 
L 462.785324 506.295541 
z
" style="fill:#6b7900;fill-opacity:0.9;stroke:#000000;stroke-opacity:0.9;"/>
     <path d="M 462.785324 520.437676 
L 476.927459 520.437676 
L 476.927459 506.295541 
L 462.785324 506.295541 
z
" style="fill:#6b7900;fill-opacity:0.9;stroke:#000000;stroke-opacity:0.9;"/>
    </g>
    <g id="text_21">
     <!-- Exoenzyme model - reverse Michaelis Menten, improved -->
     <g transform="translate(495.77625 517.14675)scale(0.144 -0.144)">
      <use xlink:href="#BitstreamVeraSans-Roman-45"/>
      <use x="63.18359375" xlink:href="#BitstreamVeraSans-Roman-78"/>
      <use x="122.31640625" xlink:href="#BitstreamVeraSans-Roman-6f"/>
      <use x="183.498046875" xlink:href="#BitstreamVeraSans-Roman-65"/>
      <use x="245.021484375" xlink:href="#BitstreamVeraSans-Roman-6e"/>
      <use x="308.400390625" xlink:href="#BitstreamVeraSans-Roman-7a"/>
      <use x="360.890625" xlink:href="#BitstreamVeraSans-Roman-79"/>
      <use x="420.0703125" xlink:href="#BitstreamVeraSans-Roman-6d"/>
      <use x="517.482421875" xlink:href="#BitstreamVeraSans-Roman-65"/>
      <use x="579.005859375" xlink:href="#BitstreamVeraSans-Roman-20"/>
      <use x="610.79296875" xlink:href="#BitstreamVeraSans-Roman-6d"/>
      <use x="708.205078125" xlink:href="#BitstreamVeraSans-Roman-6f"/>
      <use x="769.38671875" xlink:href="#BitstreamVeraSans-Roman-64"/>
      <use x="832.86328125" xlink:href="#BitstreamVeraSans-Roman-65"/>
      <use x="894.38671875" xlink:href="#BitstreamVeraSans-Roman-6c"/>
      <use x="922.169921875" xlink:href="#BitstreamVeraSans-Roman-20"/>
      <use x="953.95703125" xlink:href="#BitstreamVeraSans-Roman-2d"/>
      <use x="990.041015625" xlink:href="#BitstreamVeraSans-Roman-20"/>
      <use x="1021.828125" xlink:href="#BitstreamVeraSans-Roman-72"/>
      <use x="1062.91015625" xlink:href="#BitstreamVeraSans-Roman-65"/>
      <use x="1124.43359375" xlink:href="#BitstreamVeraSans-Roman-76"/>
      <use x="1183.61328125" xlink:href="#BitstreamVeraSans-Roman-65"/>
      <use x="1245.13671875" xlink:href="#BitstreamVeraSans-Roman-72"/>
      <use x="1286.25" xlink:href="#BitstreamVeraSans-Roman-73"/>
      <use x="1338.349609375" xlink:href="#BitstreamVeraSans-Roman-65"/>
      <use x="1399.873046875" xlink:href="#BitstreamVeraSans-Roman-20"/>
      <use x="1431.66015625" xlink:href="#BitstreamVeraSans-Roman-4d"/>
      <use x="1517.939453125" xlink:href="#BitstreamVeraSans-Roman-69"/>
      <use x="1545.72265625" xlink:href="#BitstreamVeraSans-Roman-63"/>
      <use x="1600.703125" xlink:href="#BitstreamVeraSans-Roman-68"/>
      <use x="1664.08203125" xlink:href="#BitstreamVeraSans-Roman-61"/>
      <use x="1725.361328125" xlink:href="#BitstreamVeraSans-Roman-65"/>
      <use x="1786.884765625" xlink:href="#BitstreamVeraSans-Roman-6c"/>
      <use x="1814.66796875" xlink:href="#BitstreamVeraSans-Roman-69"/>
      <use x="1842.451171875" xlink:href="#BitstreamVeraSans-Roman-73"/>
      <use x="1894.55078125" xlink:href="#BitstreamVeraSans-Roman-20"/>
      <use x="1926.337890625" xlink:href="#BitstreamVeraSans-Roman-4d"/>
      <use x="2012.6171875" xlink:href="#BitstreamVeraSans-Roman-65"/>
      <use x="2074.140625" xlink:href="#BitstreamVeraSans-Roman-6e"/>
      <use x="2137.51953125" xlink:href="#BitstreamVeraSans-Roman-74"/>
      <use x="2176.728515625" xlink:href="#BitstreamVeraSans-Roman-65"/>
      <use x="2238.251953125" xlink:href="#BitstreamVeraSans-Roman-6e"/>
      <use x="2301.630859375" xlink:href="#BitstreamVeraSans-Roman-2c"/>
      <use x="2333.41796875" xlink:href="#BitstreamVeraSans-Roman-20"/>
      <use x="2365.205078125" xlink:href="#BitstreamVeraSans-Roman-69"/>
      <use x="2392.98828125" xlink:href="#BitstreamVeraSans-Roman-6d"/>
      <use x="2490.400390625" xlink:href="#BitstreamVeraSans-Roman-70"/>
      <use x="2553.876953125" xlink:href="#BitstreamVeraSans-Roman-72"/>
      <use x="2594.958984375" xlink:href="#BitstreamVeraSans-Roman-6f"/>
      <use x="2656.140625" xlink:href="#BitstreamVeraSans-Roman-76"/>
      <use x="2715.3203125" xlink:href="#BitstreamVeraSans-Roman-65"/>
      <use x="2776.84375" xlink:href="#BitstreamVeraSans-Roman-64"/>
     </g>
    </g>
    <g id="PathCollection_19">
     <path d="M 462.785182 541.574318 
L 476.927318 527.432182 
M 462.785182 527.432182 
L 476.927318 541.574318 
" style="fill:#00c2a0;fill-opacity:0.9;stroke:#00c2a0;stroke-opacity:0.9;"/>
     <path d="M 462.785182 541.574318 
L 476.927318 527.432182 
M 462.785182 527.432182 
L 476.927318 541.574318 
" style="fill:#00c2a0;fill-opacity:0.9;stroke:#00c2a0;stroke-opacity:0.9;"/>
     <path d="M 462.785182 541.574318 
L 476.927318 527.432182 
M 462.785182 527.432182 
L 476.927318 541.574318 
" style="fill:#00c2a0;fill-opacity:0.9;stroke:#00c2a0;stroke-opacity:0.9;"/>
    </g>
    <g id="text_22">
     <!-- Exoenzyme model -->
     <g transform="translate(495.77625 538.28325)scale(0.144 -0.144)">
      <use xlink:href="#BitstreamVeraSans-Roman-45"/>
      <use x="63.18359375" xlink:href="#BitstreamVeraSans-Roman-78"/>
      <use x="122.31640625" xlink:href="#BitstreamVeraSans-Roman-6f"/>
      <use x="183.498046875" xlink:href="#BitstreamVeraSans-Roman-65"/>
      <use x="245.021484375" xlink:href="#BitstreamVeraSans-Roman-6e"/>
      <use x="308.400390625" xlink:href="#BitstreamVeraSans-Roman-7a"/>
      <use x="360.890625" xlink:href="#BitstreamVeraSans-Roman-79"/>
      <use x="420.0703125" xlink:href="#BitstreamVeraSans-Roman-6d"/>
      <use x="517.482421875" xlink:href="#BitstreamVeraSans-Roman-65"/>
      <use x="579.005859375" xlink:href="#BitstreamVeraSans-Roman-20"/>
      <use x="610.79296875" xlink:href="#BitstreamVeraSans-Roman-6d"/>
      <use x="708.205078125" xlink:href="#BitstreamVeraSans-Roman-6f"/>
      <use x="769.38671875" xlink:href="#BitstreamVeraSans-Roman-64"/>
      <use x="832.86328125" xlink:href="#BitstreamVeraSans-Roman-65"/>
      <use x="894.38671875" xlink:href="#BitstreamVeraSans-Roman-6c"/>
     </g>
    </g>
    <g id="PathCollection_20">
     <path d="M 469.85625 562.710818 
L 476.927318 548.568682 
L 462.785182 548.568682 
z
" style="fill:#ffaa92;fill-opacity:0.9;stroke:#000000;stroke-opacity:0.9;"/>
     <path d="M 469.85625 562.710818 
L 476.927318 548.568682 
L 462.785182 548.568682 
z
" style="fill:#ffaa92;fill-opacity:0.9;stroke:#000000;stroke-opacity:0.9;"/>
     <path d="M 469.85625 562.710818 
L 476.927318 548.568682 
L 462.785182 548.568682 
z
" style="fill:#ffaa92;fill-opacity:0.9;stroke:#000000;stroke-opacity:0.9;"/>
    </g>
    <g id="text_23">
     <!-- AWB model -->
     <defs>
      <path d="M 34.1875 63.1875 
L 20.796875 26.90625 
L 47.609375 26.90625 
z
M 28.609375 72.90625 
L 39.796875 72.90625 
L 67.578125 0 
L 57.328125 0 
L 50.6875 18.703125 
L 17.828125 18.703125 
L 11.1875 0 
L 0.78125 0 
z
" id="BitstreamVeraSans-Roman-41"/>
      <path d="M 3.328125 72.90625 
L 13.28125 72.90625 
L 28.609375 11.28125 
L 43.890625 72.90625 
L 54.984375 72.90625 
L 70.3125 11.28125 
L 85.59375 72.90625 
L 95.609375 72.90625 
L 77.296875 0 
L 64.890625 0 
L 49.515625 63.28125 
L 33.984375 0 
L 21.578125 0 
z
" id="BitstreamVeraSans-Roman-57"/>
     </defs>
     <g transform="translate(495.77625 559.41975)scale(0.144 -0.144)">
      <use xlink:href="#BitstreamVeraSans-Roman-41"/>
      <use x="68.330078125" xlink:href="#BitstreamVeraSans-Roman-57"/>
      <use x="167.20703125" xlink:href="#BitstreamVeraSans-Roman-42"/>
      <use x="235.810546875" xlink:href="#BitstreamVeraSans-Roman-20"/>
      <use x="267.59765625" xlink:href="#BitstreamVeraSans-Roman-6d"/>
      <use x="365.009765625" xlink:href="#BitstreamVeraSans-Roman-6f"/>
      <use x="426.19140625" xlink:href="#BitstreamVeraSans-Roman-64"/>
      <use x="489.66796875" xlink:href="#BitstreamVeraSans-Roman-65"/>
      <use x="551.19140625" xlink:href="#BitstreamVeraSans-Roman-6c"/>
     </g>
    </g>
    <g id="PathCollection_21">
     <path d="M 469.85625 576.77625 
L 469.85625 569.705182 
M 469.85625 576.77625 
L 464.199396 580.311784 
M 469.85625 576.77625 
L 475.513104 580.311784 
" style="fill:#ff90c9;fill-opacity:0.9;stroke:#ff90c9;stroke-opacity:0.9;"/>
     <path d="M 469.85625 576.77625 
L 469.85625 569.705182 
M 469.85625 576.77625 
L 464.199396 580.311784 
M 469.85625 576.77625 
L 475.513104 580.311784 
" style="fill:#ff90c9;fill-opacity:0.9;stroke:#ff90c9;stroke-opacity:0.9;"/>
     <path d="M 469.85625 576.77625 
L 469.85625 569.705182 
M 469.85625 576.77625 
L 464.199396 580.311784 
M 469.85625 576.77625 
L 475.513104 580.311784 
" style="fill:#ff90c9;fill-opacity:0.9;stroke:#ff90c9;stroke-opacity:0.9;"/>
    </g>
    <g id="text_24">
     <!-- RothC-26.3 -->
     <defs>
      <path d="M 44.390625 34.1875 
Q 47.5625 33.109375 50.5625 29.59375 
Q 53.5625 26.078125 56.59375 19.921875 
L 66.609375 0 
L 56 0 
L 46.6875 18.703125 
Q 43.0625 26.03125 39.671875 28.421875 
Q 36.28125 30.8125 30.421875 30.8125 
L 19.671875 30.8125 
L 19.671875 0 
L 9.8125 0 
L 9.8125 72.90625 
L 32.078125 72.90625 
Q 44.578125 72.90625 50.734375 67.671875 
Q 56.890625 62.453125 56.890625 51.90625 
Q 56.890625 45.015625 53.6875 40.46875 
Q 50.484375 35.9375 44.390625 34.1875 
M 19.671875 64.796875 
L 19.671875 38.921875 
L 32.078125 38.921875 
Q 39.203125 38.921875 42.84375 42.21875 
Q 46.484375 45.515625 46.484375 51.90625 
Q 46.484375 58.296875 42.84375 61.546875 
Q 39.203125 64.796875 32.078125 64.796875 
z
" id="BitstreamVeraSans-Roman-52"/>
      <path d="M 40.578125 39.3125 
Q 47.65625 37.796875 51.625 33 
Q 55.609375 28.21875 55.609375 21.1875 
Q 55.609375 10.40625 48.1875 4.484375 
Q 40.765625 -1.421875 27.09375 -1.421875 
Q 22.515625 -1.421875 17.65625 -0.515625 
Q 12.796875 0.390625 7.625 2.203125 
L 7.625 11.71875 
Q 11.71875 9.328125 16.59375 8.109375 
Q 21.484375 6.890625 26.8125 6.890625 
Q 36.078125 6.890625 40.9375 10.546875 
Q 45.796875 14.203125 45.796875 21.1875 
Q 45.796875 27.640625 41.28125 31.265625 
Q 36.765625 34.90625 28.71875 34.90625 
L 20.21875 34.90625 
L 20.21875 43.015625 
L 29.109375 43.015625 
Q 36.375 43.015625 40.234375 45.921875 
Q 44.09375 48.828125 44.09375 54.296875 
Q 44.09375 59.90625 40.109375 62.90625 
Q 36.140625 65.921875 28.71875 65.921875 
Q 24.65625 65.921875 20.015625 65.03125 
Q 15.375 64.15625 9.8125 62.3125 
L 9.8125 71.09375 
Q 15.4375 72.65625 20.34375 73.4375 
Q 25.25 74.21875 29.59375 74.21875 
Q 40.828125 74.21875 47.359375 69.109375 
Q 53.90625 64.015625 53.90625 55.328125 
Q 53.90625 49.265625 50.4375 45.09375 
Q 46.96875 40.921875 40.578125 39.3125 
" id="BitstreamVeraSans-Roman-33"/>
      <path d="M 10.6875 12.40625 
L 21 12.40625 
L 21 0 
L 10.6875 0 
z
" id="BitstreamVeraSans-Roman-2e"/>
     </defs>
     <g transform="translate(495.77625 580.55625)scale(0.144 -0.144)">
      <use xlink:href="#BitstreamVeraSans-Roman-52"/>
      <use x="69.419921875" xlink:href="#BitstreamVeraSans-Roman-6f"/>
      <use x="130.6015625" xlink:href="#BitstreamVeraSans-Roman-74"/>
      <use x="169.810546875" xlink:href="#BitstreamVeraSans-Roman-68"/>
      <use x="233.189453125" xlink:href="#BitstreamVeraSans-Roman-43"/>
      <use x="303.013671875" xlink:href="#BitstreamVeraSans-Roman-2d"/>
      <use x="339.09765625" xlink:href="#BitstreamVeraSans-Roman-32"/>
      <use x="402.720703125" xlink:href="#BitstreamVeraSans-Roman-36"/>
      <use x="466.34375" xlink:href="#BitstreamVeraSans-Roman-2e"/>
      <use x="498.130859375" xlink:href="#BitstreamVeraSans-Roman-33"/>
     </g>
    </g>
    <g id="PathCollection_22">
     <path d="M 469.85625 590.841682 
L 462.785182 604.983818 
L 476.927318 604.983818 
z
" style="fill:#b903aa;fill-opacity:0.9;stroke:#000000;stroke-opacity:0.9;"/>
     <path d="M 469.85625 590.841682 
L 462.785182 604.983818 
L 476.927318 604.983818 
z
" style="fill:#b903aa;fill-opacity:0.9;stroke:#000000;stroke-opacity:0.9;"/>
     <path d="M 469.85625 590.841682 
L 462.785182 604.983818 
L 476.927318 604.983818 
z
" style="fill:#b903aa;fill-opacity:0.9;stroke:#000000;stroke-opacity:0.9;"/>
    </g>
    <g id="text_25">
     <!-- BACWAVE model -->
     <defs>
      <path d="M 28.609375 0 
L 0.78125 72.90625 
L 11.078125 72.90625 
L 34.1875 11.53125 
L 57.328125 72.90625 
L 67.578125 72.90625 
L 39.796875 0 
z
" id="BitstreamVeraSans-Roman-56"/>
     </defs>
     <g transform="translate(495.77625 601.69275)scale(0.144 -0.144)">
      <use xlink:href="#BitstreamVeraSans-Roman-42"/>
      <use x="68.603515625" xlink:href="#BitstreamVeraSans-Roman-41"/>
      <use x="136.99609375" xlink:href="#BitstreamVeraSans-Roman-43"/>
      <use x="206.8203125" xlink:href="#BitstreamVeraSans-Roman-57"/>
      <use x="305.619140625" xlink:href="#BitstreamVeraSans-Roman-41"/>
      <use x="373.93359375" xlink:href="#BitstreamVeraSans-Roman-56"/>
      <use x="442.341796875" xlink:href="#BitstreamVeraSans-Roman-45"/>
      <use x="505.525390625" xlink:href="#BitstreamVeraSans-Roman-20"/>
      <use x="537.3125" xlink:href="#BitstreamVeraSans-Roman-6d"/>
      <use x="634.724609375" xlink:href="#BitstreamVeraSans-Roman-6f"/>
      <use x="695.90625" xlink:href="#BitstreamVeraSans-Roman-64"/>
      <use x="759.3828125" xlink:href="#BitstreamVeraSans-Roman-65"/>
      <use x="820.90625" xlink:href="#BitstreamVeraSans-Roman-6c"/>
     </g>
    </g>
   </g>
  </g>
  <g id="axes_2">
   <g id="patch_7">
    <path d="M 90 72 
L 648 72 
" style="fill:none;stroke:#000000;stroke-linecap:square;stroke-linejoin:miter;"/>
   </g>
   <g id="patch_8">
    <path d="M 90 417.6 
L 90 72 
" style="fill:none;stroke:#000000;stroke-linecap:square;stroke-linejoin:miter;"/>
   </g>
   <g id="patch_9">
    <path d="M 90 417.6 
L 648 417.6 
" style="fill:none;stroke:#000000;stroke-linecap:square;stroke-linejoin:miter;"/>
   </g>
   <g id="patch_10">
    <path d="M 648 417.6 
L 648 72 
" style="fill:none;stroke:#000000;stroke-linecap:square;stroke-linejoin:miter;"/>
   </g>
   <g id="matplotlib.axis_3">
    <g id="xtick_8">
     <g id="line2d_13">
      <path clip-path="url(#p73c28f0888)" d="M 183 417.6 
L 183 72 
" style="fill:none;stroke:#000000;stroke-dasharray:1.000000,3.000000;stroke-dashoffset:0.0;stroke-width:0.5;"/>
     </g>
     <g id="line2d_14">
      <defs>
       <path d="M 0 0 
L 0 4 
" id="m848861efbe" style="stroke:#000000;stroke-width:0.5;"/>
      </defs>
      <g>
       <use style="stroke:#000000;stroke-width:0.5;" x="183.0" xlink:href="#m848861efbe" y="72.0"/>
      </g>
     </g>
     <g id="text_26">
      <!-- 2 -->
      <g transform="translate(176.6375 63.840625)scale(0.2 -0.2)">
       <use xlink:href="#BitstreamVeraSans-Roman-32"/>
      </g>
     </g>
    </g>
    <g id="xtick_9">
     <g id="line2d_15">
      <path clip-path="url(#p73c28f0888)" d="M 276 417.6 
L 276 72 
" style="fill:none;stroke:#000000;stroke-dasharray:1.000000,3.000000;stroke-dashoffset:0.0;stroke-width:0.5;"/>
     </g>
     <g id="line2d_16">
      <g>
       <use style="stroke:#000000;stroke-width:0.5;" x="276.0" xlink:href="#m848861efbe" y="72.0"/>
      </g>
     </g>
     <g id="text_27">
      <!-- 3 -->
      <g transform="translate(269.6375 63.840625)scale(0.2 -0.2)">
       <use xlink:href="#BitstreamVeraSans-Roman-33"/>
      </g>
     </g>
    </g>
    <g id="xtick_10">
     <g id="line2d_17">
      <path clip-path="url(#p73c28f0888)" d="M 322.5 417.6 
L 322.5 72 
" style="fill:none;stroke:#000000;stroke-dasharray:1.000000,3.000000;stroke-dashoffset:0.0;stroke-width:0.5;"/>
     </g>
     <g id="line2d_18">
      <g>
       <use style="stroke:#000000;stroke-width:0.5;" x="322.5" xlink:href="#m848861efbe" y="72.0"/>
      </g>
     </g>
     <g id="text_28">
      <!-- 3 -->
      <g transform="translate(316.1375 63.840625)scale(0.2 -0.2)">
       <use xlink:href="#BitstreamVeraSans-Roman-33"/>
      </g>
     </g>
    </g>
    <g id="xtick_11">
     <g id="line2d_19">
      <path clip-path="url(#p73c28f0888)" d="M 415.5 417.6 
L 415.5 72 
" style="fill:none;stroke:#000000;stroke-dasharray:1.000000,3.000000;stroke-dashoffset:0.0;stroke-width:0.5;"/>
     </g>
     <g id="line2d_20">
      <g>
       <use style="stroke:#000000;stroke-width:0.5;" x="415.5" xlink:href="#m848861efbe" y="72.0"/>
      </g>
     </g>
     <g id="text_29">
      <!-- 1 -->
      <g transform="translate(409.1375 63.840625)scale(0.2 -0.2)">
       <use xlink:href="#BitstreamVeraSans-Roman-31"/>
      </g>
     </g>
    </g>
    <g id="xtick_12">
     <g id="line2d_21">
      <path clip-path="url(#p73c28f0888)" d="M 508.5 417.6 
L 508.5 72 
" style="fill:none;stroke:#000000;stroke-dasharray:1.000000,3.000000;stroke-dashoffset:0.0;stroke-width:0.5;"/>
     </g>
     <g id="line2d_22">
      <g>
       <use style="stroke:#000000;stroke-width:0.5;" x="508.5" xlink:href="#m848861efbe" y="72.0"/>
      </g>
     </g>
     <g id="text_30">
      <!-- 1 -->
      <g transform="translate(502.1375 63.840625)scale(0.2 -0.2)">
       <use xlink:href="#BitstreamVeraSans-Roman-31"/>
      </g>
     </g>
    </g>
    <g id="xtick_13">
     <g id="line2d_23">
      <path clip-path="url(#p73c28f0888)" d="M 601.5 417.6 
L 601.5 72 
" style="fill:none;stroke:#000000;stroke-dasharray:1.000000,3.000000;stroke-dashoffset:0.0;stroke-width:0.5;"/>
     </g>
     <g id="line2d_24">
      <g>
       <use style="stroke:#000000;stroke-width:0.5;" x="601.5" xlink:href="#m848861efbe" y="72.0"/>
      </g>
     </g>
     <g id="text_31">
      <!-- 1 -->
      <g transform="translate(595.1375 63.840625)scale(0.2 -0.2)">
       <use xlink:href="#BitstreamVeraSans-Roman-31"/>
      </g>
     </g>
    </g>
    <g id="text_32">
     <!-- # models -->
     <g transform="translate(321.09375 43.64375)scale(0.2 -0.2)">
      <use xlink:href="#BitstreamVeraSans-Roman-23"/>
      <use x="83.7890625" xlink:href="#BitstreamVeraSans-Roman-20"/>
      <use x="115.576171875" xlink:href="#BitstreamVeraSans-Roman-6d"/>
      <use x="212.98828125" xlink:href="#BitstreamVeraSans-Roman-6f"/>
      <use x="274.169921875" xlink:href="#BitstreamVeraSans-Roman-64"/>
      <use x="337.646484375" xlink:href="#BitstreamVeraSans-Roman-65"/>
      <use x="399.169921875" xlink:href="#BitstreamVeraSans-Roman-6c"/>
      <use x="426.953125" xlink:href="#BitstreamVeraSans-Roman-73"/>
     </g>
    </g>
   </g>
  </g>
  <g id="axes_3">
   <g id="patch_11">
    <path d="M 90 72 
L 648 72 
" style="fill:none;stroke:#000000;stroke-linecap:square;stroke-linejoin:miter;"/>
   </g>
   <g id="patch_12">
    <path d="M 90 417.6 
L 90 72 
" style="fill:none;stroke:#000000;stroke-linecap:square;stroke-linejoin:miter;"/>
   </g>
   <g id="patch_13">
    <path d="M 90 417.6 
L 648 417.6 
" style="fill:none;stroke:#000000;stroke-linecap:square;stroke-linejoin:miter;"/>
   </g>
   <g id="patch_14">
    <path d="M 648 417.6 
L 648 72 
" style="fill:none;stroke:#000000;stroke-linecap:square;stroke-linejoin:miter;"/>
   </g>
   <g id="matplotlib.axis_4">
    <g id="ytick_6">
     <g id="line2d_25">
      <path clip-path="url(#p73c28f0888)" d="M 90 348.48 
L 648 348.48 
" style="fill:none;stroke:#000000;stroke-dasharray:1.000000,3.000000;stroke-dashoffset:0.0;stroke-width:0.5;"/>
     </g>
     <g id="line2d_26">
      <defs>
       <path d="M 0 0 
L -4 0 
" id="m8558b2e96e" style="stroke:#000000;stroke-width:0.5;"/>
      </defs>
      <g>
       <use style="stroke:#000000;stroke-width:0.5;" x="648.0" xlink:href="#m8558b2e96e" y="348.48"/>
      </g>
     </g>
     <g id="text_33">
      <!-- 1 -->
      <g transform="translate(652.0 353.99875)scale(0.2 -0.2)">
       <use xlink:href="#BitstreamVeraSans-Roman-31"/>
      </g>
     </g>
    </g>
    <g id="ytick_7">
     <g id="line2d_27">
      <path clip-path="url(#p73c28f0888)" d="M 90 331.2 
L 648 331.2 
" style="fill:none;stroke:#000000;stroke-dasharray:1.000000,3.000000;stroke-dashoffset:0.0;stroke-width:0.5;"/>
     </g>
     <g id="line2d_28">
      <g>
       <use style="stroke:#000000;stroke-width:0.5;" x="648.0" xlink:href="#m8558b2e96e" y="331.2"/>
      </g>
     </g>
     <g id="text_34">
      <!-- 1 -->
      <g transform="translate(652.0 336.71875)scale(0.2 -0.2)">
       <use xlink:href="#BitstreamVeraSans-Roman-31"/>
      </g>
     </g>
    </g>
    <g id="ytick_8">
     <g id="line2d_29">
      <path clip-path="url(#p73c28f0888)" d="M 90 296.64 
L 648 296.64 
" style="fill:none;stroke:#000000;stroke-dasharray:1.000000,3.000000;stroke-dashoffset:0.0;stroke-width:0.5;"/>
     </g>
     <g id="line2d_30">
      <g>
       <use style="stroke:#000000;stroke-width:0.5;" x="648.0" xlink:href="#m8558b2e96e" y="296.64"/>
      </g>
     </g>
     <g id="text_35">
      <!-- 2 -->
      <g transform="translate(652.0 302.15875)scale(0.2 -0.2)">
       <use xlink:href="#BitstreamVeraSans-Roman-32"/>
      </g>
     </g>
    </g>
    <g id="ytick_9">
     <g id="line2d_31">
      <path clip-path="url(#p73c28f0888)" d="M 90 279.36 
L 648 279.36 
" style="fill:none;stroke:#000000;stroke-dasharray:1.000000,3.000000;stroke-dashoffset:0.0;stroke-width:0.5;"/>
     </g>
     <g id="line2d_32">
      <g>
       <use style="stroke:#000000;stroke-width:0.5;" x="648.0" xlink:href="#m8558b2e96e" y="279.36"/>
      </g>
     </g>
     <g id="text_36">
      <!-- 2 -->
      <g transform="translate(652.0 284.87875)scale(0.2 -0.2)">
       <use xlink:href="#BitstreamVeraSans-Roman-32"/>
      </g>
     </g>
    </g>
    <g id="ytick_10">
     <g id="line2d_33">
      <path clip-path="url(#p73c28f0888)" d="M 90 244.8 
L 648 244.8 
" style="fill:none;stroke:#000000;stroke-dasharray:1.000000,3.000000;stroke-dashoffset:0.0;stroke-width:0.5;"/>
     </g>
     <g id="line2d_34">
      <g>
       <use style="stroke:#000000;stroke-width:0.5;" x="648.0" xlink:href="#m8558b2e96e" y="244.8"/>
      </g>
     </g>
     <g id="text_37">
      <!-- 1 -->
      <g transform="translate(652.0 250.31875)scale(0.2 -0.2)">
       <use xlink:href="#BitstreamVeraSans-Roman-31"/>
      </g>
     </g>
    </g>
    <g id="ytick_11">
     <g id="line2d_35">
      <path clip-path="url(#p73c28f0888)" d="M 90 210.24 
L 648 210.24 
" style="fill:none;stroke:#000000;stroke-dasharray:1.000000,3.000000;stroke-dashoffset:0.0;stroke-width:0.5;"/>
     </g>
     <g id="line2d_36">
      <g>
       <use style="stroke:#000000;stroke-width:0.5;" x="648.0" xlink:href="#m8558b2e96e" y="210.24"/>
      </g>
     </g>
     <g id="text_38">
      <!-- 1 -->
      <g transform="translate(652.0 215.75875)scale(0.2 -0.2)">
       <use xlink:href="#BitstreamVeraSans-Roman-31"/>
      </g>
     </g>
    </g>
    <g id="ytick_12">
     <g id="line2d_37">
      <path clip-path="url(#p73c28f0888)" d="M 90 192.96 
L 648 192.96 
" style="fill:none;stroke:#000000;stroke-dasharray:1.000000,3.000000;stroke-dashoffset:0.0;stroke-width:0.5;"/>
     </g>
     <g id="line2d_38">
      <g>
       <use style="stroke:#000000;stroke-width:0.5;" x="648.0" xlink:href="#m8558b2e96e" y="192.96"/>
      </g>
     </g>
     <g id="text_39">
      <!-- 1 -->
      <g transform="translate(652.0 198.47875)scale(0.2 -0.2)">
       <use xlink:href="#BitstreamVeraSans-Roman-31"/>
      </g>
     </g>
    </g>
    <g id="ytick_13">
     <g id="line2d_39">
      <path clip-path="url(#p73c28f0888)" d="M 90 141.12 
L 648 141.12 
" style="fill:none;stroke:#000000;stroke-dasharray:1.000000,3.000000;stroke-dashoffset:0.0;stroke-width:0.5;"/>
     </g>
     <g id="line2d_40">
      <g>
       <use style="stroke:#000000;stroke-width:0.5;" x="648.0" xlink:href="#m8558b2e96e" y="141.12"/>
      </g>
     </g>
     <g id="text_40">
      <!-- 1 -->
      <g transform="translate(652.0 146.63875)scale(0.2 -0.2)">
       <use xlink:href="#BitstreamVeraSans-Roman-31"/>
      </g>
     </g>
    </g>
    <g id="ytick_14">
     <g id="line2d_41">
      <path clip-path="url(#p73c28f0888)" d="M 90 89.28 
L 648 89.28 
" style="fill:none;stroke:#000000;stroke-dasharray:1.000000,3.000000;stroke-dashoffset:0.0;stroke-width:0.5;"/>
     </g>
     <g id="line2d_42">
      <g>
       <use style="stroke:#000000;stroke-width:0.5;" x="648.0" xlink:href="#m8558b2e96e" y="89.28"/>
      </g>
     </g>
     <g id="text_41">
      <!-- 1 -->
      <g transform="translate(652.0 94.79875)scale(0.2 -0.2)">
       <use xlink:href="#BitstreamVeraSans-Roman-31"/>
      </g>
     </g>
    </g>
    <g id="text_42">
     <!-- # models -->
     <g transform="translate(684.921875 292.70625)rotate(-90.0)scale(0.2 -0.2)">
      <use xlink:href="#BitstreamVeraSans-Roman-23"/>
      <use x="83.7890625" xlink:href="#BitstreamVeraSans-Roman-20"/>
      <use x="115.576171875" xlink:href="#BitstreamVeraSans-Roman-6d"/>
      <use x="212.98828125" xlink:href="#BitstreamVeraSans-Roman-6f"/>
      <use x="274.169921875" xlink:href="#BitstreamVeraSans-Roman-64"/>
      <use x="337.646484375" xlink:href="#BitstreamVeraSans-Roman-65"/>
      <use x="399.169921875" xlink:href="#BitstreamVeraSans-Roman-6c"/>
      <use x="426.953125" xlink:href="#BitstreamVeraSans-Roman-73"/>
     </g>
    </g>
   </g>
  </g>
 </g>
 <defs>
  <clipPath id="p73c28f0888">
   <rect height="345.6" width="558.0" x="90.0" y="72.0"/>
  </clipPath>
 </defs>
</svg>
