<?xml version="1.0" encoding="utf-8" standalone="no"?>
<!DOCTYPE svg PUBLIC "-//W3C//DTD SVG 1.1//EN"
  "http://www.w3.org/Graphics/SVG/1.1/DTD/svg11.dtd">
<!-- Created with matplotlib (http://matplotlib.org/) -->
<svg height="504pt" version="1.1" viewBox="0 0 504 504" width="504pt" xmlns="http://www.w3.org/2000/svg" xmlns:xlink="http://www.w3.org/1999/xlink">
 <defs>
  <style type="text/css">
*{stroke-linecap:butt;stroke-linejoin:round;}
  </style>
 </defs>
 <g id="figure_1">
  <g id="patch_1">
   <path d="M 0 504 
L 504 504 
L 504 0 
L 0 0 
z
" style="fill:#ffffff;"/>
  </g>
  <g id="axes_1">
   <g id="patch_2">
    <path clip-path="url(#pe836cc761e)" d="M 40.32 295.344 
C 45.666494 295.344 50.79473 293.432234 54.575273 290.029745 
C 58.355815 286.627257 60.48 282.011845 60.48 277.2 
C 60.48 272.388155 58.355815 267.772743 54.575273 264.370255 
C 50.79473 260.967766 45.666494 259.056 40.32 259.056 
C 34.973506 259.056 29.84527 260.967766 26.064727 264.370255 
C 22.284185 267.772743 20.16 272.388155 20.16 277.2 
C 20.16 282.011845 22.284185 286.627257 26.064727 290.029745 
C 29.84527 293.432234 34.973506 295.344 40.32 295.344 
z
" style="fill:#0000ff;opacity:0.3;stroke:#0000ff;stroke-linejoin:miter;"/>
   </g>
   <g id="patch_3">
    <path clip-path="url(#pe836cc761e)" d="M 1.164086 247.794464 
Q 11.057982 257.664789 20.951879 267.535114 
Q 7.119281 269.528036 -6.713317 271.520958 
z
" style="fill:#0000ff;opacity:0.5;stroke:#0000ff;stroke-linecap:round;"/>
   </g>
   <g id="patch_4">
    <path clip-path="url(#pe836cc761e)" d="M 34.512033 289.277435 
Q 20.748185 291.700034 6.984337 294.122633 
Q 13.304566 281.657995 19.624795 269.193357 
z
" style="fill:#0000ff;opacity:0.5;stroke:#0000ff;stroke-linecap:round;"/>
   </g>
   <g id="patch_5">
    <path clip-path="url(#pe836cc761e)" d="M 102.319637 160.631673 
C 107.666131 160.631673 112.794367 158.719907 116.574909 155.317418 
C 120.355452 151.91493 122.479637 147.299518 122.479637 142.487673 
C 122.479637 137.675828 120.355452 133.060416 116.574909 129.657927 
C 112.794367 126.255439 107.666131 124.343673 102.319637 124.343673 
C 96.973142 124.343673 91.844906 126.255439 88.064364 129.657927 
C 84.283821 133.060416 82.159637 137.675828 82.159637 142.487673 
C 82.159637 147.299518 84.283821 151.91493 88.064364 155.317418 
C 91.844906 158.719907 96.973142 160.631673 102.319637 160.631673 
z
" style="fill:#0000ff;opacity:0.3;stroke:#0000ff;stroke-linejoin:miter;"/>
   </g>
   <g id="patch_6">
    <path clip-path="url(#pe836cc761e)" d="M 96.724196 95.226398 
Q 96.463068 109.199383 96.20194 123.172368 
Q 85.180229 114.579674 74.158517 105.986981 
z
" style="fill:#0000ff;opacity:0.5;stroke:#0000ff;stroke-linecap:round;"/>
   </g>
   <g id="patch_7">
    <path clip-path="url(#pe836cc761e)" d="M 89.332127 147.606757 
Q 77.352489 140.409481 65.372851 133.212205 
Q 78.318455 127.946861 91.264058 122.681516 
z
" style="fill:#0000ff;opacity:0.5;stroke:#0000ff;stroke-linecap:round;"/>
   </g>
   <g id="patch_8">
    <path clip-path="url(#pe836cc761e)" d="M 252 104.832 
C 257.346494 104.832 262.47473 102.920234 266.255273 99.517745 
C 270.035815 96.115257 272.16 91.499845 272.16 86.688 
C 272.16 81.876155 270.035815 77.260743 266.255273 73.858255 
C 262.47473 70.455766 257.346494 68.544 252 68.544 
C 246.653506 68.544 241.52527 70.455766 237.744727 73.858255 
C 233.964185 77.260743 231.84 81.876155 231.84 86.688 
C 231.84 91.499845 233.964185 96.115257 237.744727 99.517745 
C 241.52527 102.920234 246.653506 104.832 252 104.832 
z
" style="fill:#0000ff;opacity:0.3;stroke:#0000ff;stroke-linejoin:miter;"/>
   </g>
   <g id="patch_9">
    <path clip-path="url(#pe836cc761e)" d="M 284.345528 51.264346 
Q 273.596244 60.195494 262.846961 69.126642 
Q 262.151612 55.168526 261.456264 41.210411 
z
" style="fill:#0000ff;opacity:0.5;stroke:#0000ff;stroke-linecap:round;"/>
   </g>
   <g id="patch_10">
    <path clip-path="url(#pe836cc761e)" d="M 240.473096 83.717368 
Q 236.836627 70.223348 233.200158 56.729327 
Q 246.177256 61.916564 259.154354 67.103802 
z
" style="fill:#0000ff;opacity:0.5;stroke:#0000ff;stroke-linecap:round;"/>
   </g>
   <g id="patch_11">
    <path clip-path="url(#pe836cc761e)" d="M 401.680363 160.631673 
C 407.026858 160.631673 412.155094 158.719907 415.935636 155.317418 
C 419.716179 151.91493 421.840363 147.299518 421.840363 142.487673 
C 421.840363 137.675828 419.716179 133.060416 415.935636 129.657927 
C 412.155094 126.255439 407.026858 124.343673 401.680363 124.343673 
C 396.333869 124.343673 391.205633 126.255439 387.425091 129.657927 
C 383.644548 133.060416 381.520363 137.675828 381.520363 142.487673 
C 381.520363 147.299518 383.644548 151.91493 387.425091 155.317418 
C 391.205633 158.719907 396.333869 160.631673 401.680363 160.631673 
z
" style="fill:#0000ff;opacity:0.3;stroke:#0000ff;stroke-linejoin:miter;"/>
   </g>
   <g id="patch_12">
    <path clip-path="url(#pe836cc761e)" d="M 396.167927 132.536042 
Q 404.029212 120.981272 411.890498 109.426503 
Q 416.417542 122.648393 420.944587 135.870282 
z
" style="fill:#0000ff;opacity:0.5;stroke:#0000ff;stroke-linecap:round;"/>
   </g>
   <g id="patch_13">
    <path clip-path="url(#pe836cc761e)" d="M 463.68 295.344 
C 469.026494 295.344 474.15473 293.432234 477.935273 290.029745 
C 481.715815 286.627257 483.84 282.011845 483.84 277.2 
C 483.84 272.388155 481.715815 267.772743 477.935273 264.370255 
C 474.15473 260.967766 469.026494 259.056 463.68 259.056 
C 458.333506 259.056 453.20527 260.967766 449.424727 264.370255 
C 445.644185 267.772743 443.52 272.388155 443.52 277.2 
C 443.52 282.011845 445.644185 286.627257 449.424727 290.029745 
C 453.20527 293.432234 458.333506 295.344 463.68 295.344 
z
" style="fill:#0000ff;opacity:0.3;stroke:#0000ff;stroke-linejoin:miter;"/>
   </g>
   <g id="patch_14">
    <path clip-path="url(#pe836cc761e)" d="M 469.487967 265.122565 
Q 483.251815 262.699966 497.015663 260.277367 
Q 490.695434 272.742005 484.375205 285.206643 
z
" style="fill:#0000ff;opacity:0.5;stroke:#0000ff;stroke-linecap:round;"/>
   </g>
   <g id="patch_15">
    <path clip-path="url(#pe836cc761e)" d="M 401.680363 430.056327 
C 407.026858 430.056327 412.155094 428.144561 415.935636 424.742073 
C 419.716179 421.339584 421.840363 416.724172 421.840363 411.912327 
C 421.840363 407.100482 419.716179 402.48507 415.935636 399.082582 
C 412.155094 395.680093 407.026858 393.768327 401.680363 393.768327 
C 396.333869 393.768327 391.205633 395.680093 387.425091 399.082582 
C 383.644548 402.48507 381.520363 407.100482 381.520363 411.912327 
C 381.520363 416.724172 383.644548 421.339584 387.425091 424.742073 
C 391.205633 428.144561 396.333869 430.056327 401.680363 430.056327 
z
" style="fill:#0000ff;opacity:0.3;stroke:#0000ff;stroke-linejoin:miter;"/>
   </g>
   <g id="patch_16">
    <path clip-path="url(#pe836cc761e)" d="M 414.667873 406.793243 
Q 426.647511 413.990519 438.627149 421.187795 
Q 425.681545 426.453139 412.735942 431.718484 
z
" style="fill:#0000ff;opacity:0.5;stroke:#0000ff;stroke-linecap:round;"/>
   </g>
   <g id="patch_17">
    <path clip-path="url(#pe836cc761e)" d="M 252 485.856 
C 257.346494 485.856 262.47473 483.944234 266.255273 480.541745 
C 270.035815 477.139257 272.16 472.523845 272.16 467.712 
C 272.16 462.900155 270.035815 458.284743 266.255273 454.882255 
C 262.47473 451.479766 257.346494 449.568 252 449.568 
C 246.653506 449.568 241.52527 451.479766 237.744727 454.882255 
C 233.964185 458.284743 231.84 462.900155 231.84 467.712 
C 231.84 472.523845 233.964185 477.139257 237.744727 480.541745 
C 241.52527 483.944234 246.653506 485.856 252 485.856 
z
" style="fill:#0000ff;opacity:0.3;stroke:#0000ff;stroke-linejoin:miter;"/>
   </g>
   <g id="patch_18">
    <path clip-path="url(#pe836cc761e)" d="M 263.526904 470.682632 
Q 267.163373 484.176652 270.799842 497.670673 
Q 257.822744 492.483436 244.845646 487.296198 
z
" style="fill:#0000ff;opacity:0.5;stroke:#0000ff;stroke-linecap:round;"/>
   </g>
   <g id="patch_19">
    <path clip-path="url(#pe836cc761e)" d="M 102.319637 430.056327 
C 107.666131 430.056327 112.794367 428.144561 116.574909 424.742073 
C 120.355452 421.339584 122.479637 416.724172 122.479637 411.912327 
C 122.479637 407.100482 120.355452 402.48507 116.574909 399.082582 
C 112.794367 395.680093 107.666131 393.768327 102.319637 393.768327 
C 96.973142 393.768327 91.844906 395.680093 88.064364 399.082582 
C 84.283821 402.48507 82.159637 407.100482 82.159637 411.912327 
C 82.159637 416.724172 84.283821 421.339584 88.064364 424.742073 
C 91.844906 428.144561 96.973142 430.056327 102.319637 430.056327 
z
" style="fill:#0000ff;opacity:0.3;stroke:#0000ff;stroke-linejoin:miter;"/>
   </g>
   <g id="patch_20">
    <path clip-path="url(#pe836cc761e)" d="M 107.832073 421.863958 
Q 99.970788 433.418728 92.109502 444.973497 
Q 87.582458 431.751607 83.055413 418.529718 
z
" style="fill:#0000ff;opacity:0.5;stroke:#0000ff;stroke-linecap:round;"/>
   </g>
   <g id="patch_21">
    <path clip-path="url(#pe836cc761e)" d="M 61.097215 267.710015 
Q 220.123314 241.85489 358.903736 161.630601 
L 355.150249 155.137425 
Q 368.926456 154.394349 382.877662 153.149767 
Q 375.479075 165.041998 367.661871 176.781346 
L 363.908384 170.28817 
Q 223.5393 251.43081 62.701985 277.58041 
L 61.097215 267.710015 
z
" style="fill:#0000ff;opacity:0.5;stroke:#0000ff;stroke-linecap:round;"/>
   </g>
   <g id="patch_22">
    <path clip-path="url(#pe836cc761e)" d="M 63.167942 275.525298 
Q 239.775702 310.552194 416.403156 280.181895 
L 415.132215 272.790366 
Q 428.33019 276.86373 441.833974 280.567492 
Q 430.754118 289.128427 419.368683 297.428798 
L 418.097743 290.037268 
Q 239.645986 320.721247 61.222519 285.334239 
L 63.167942 275.525298 
z
" style="fill:#0000ff;opacity:0.5;stroke:#0000ff;stroke-linecap:round;"/>
   </g>
   <g id="patch_23">
    <path clip-path="url(#pe836cc761e)" d="M 123.835988 148.764372 
Q 260.970222 233.313281 418.38868 263.511536 
L 419.801673 256.145842 
Q 430.701632 264.601996 442.062166 272.793606 
Q 428.685127 276.940673 415.091697 280.698156 
L 416.50469 273.332462 
Q 257.284094 242.788494 118.587874 157.276558 
L 123.835988 148.764372 
z
" style="fill:#0000ff;opacity:0.5;stroke:#0000ff;stroke-linecap:round;"/>
   </g>
   <g id="patch_24">
    <path clip-path="url(#pe836cc761e)" d="M 273.506894 92.960874 
Q 312.719984 117.07312 356.781594 128.284924 
L 358.631088 121.016542 
Q 368.647853 130.025022 380.002938 138.313841 
Q 366.546523 142.367708 352.466108 145.244481 
L 354.315602 137.9761 
Q 308.778726 126.388903 268.268896 101.479288 
L 273.506894 92.960874 
z
" style="fill:#0000ff;opacity:0.5;stroke:#0000ff;stroke-linecap:round;"/>
   </g>
   <g id="patch_25">
    <path clip-path="url(#pe836cc761e)" d="M 269.049013 99.973315 
Q 335.224216 188.338684 427.053255 248.240167 
L 431.150887 241.958494 
Q 437.966478 253.8694 445.519418 265.676772 
Q 431.545801 264.599846 417.492116 262.897405 
L 421.589747 256.615732 
Q 328.279792 195.748224 261.044718 105.967584 
L 269.049013 99.973315 
z
" style="fill:#0000ff;opacity:0.5;stroke:#0000ff;stroke-linecap:round;"/>
   </g>
   <g id="patch_26">
    <path clip-path="url(#pe836cc761e)" d="M 403.040351 163.341494 
Q 382.949822 264.996058 398.558175 366.678728 
L 405.971347 365.540801 
Q 401.642158 378.548416 397.91497 392.062729 
Q 389.369897 380.951159 381.260773 369.33389 
L 388.673945 368.195963 
Q 372.79934 264.778759 393.230108 161.402644 
L 403.040351 163.341494 
z
" style="fill:#0000ff;opacity:0.5;stroke:#0000ff;stroke-linecap:round;"/>
   </g>
   <g id="patch_27">
    <path clip-path="url(#pe836cc761e)" d="M 456.020594 297.217742 
Q 431.61037 330.990841 418.24528 369.888874 
L 425.338272 372.325976 
Q 415.553471 381.533611 406.428465 392.236925 
Q 403.401118 378.506933 401.694966 364.202302 
L 408.787957 366.639404 
Q 422.635668 326.336742 447.915914 291.359912 
L 456.020594 297.217742 
z
" style="fill:#0000ff;opacity:0.5;stroke:#0000ff;stroke-linecap:round;"/>
   </g>
   <g id="patch_28">
    <path clip-path="url(#pe836cc761e)" d="M 448.209918 293.181776 
Q 353.368838 349.725811 284.146134 434.775083 
L 289.962964 439.509477 
Q 277.400988 445.038854 264.864633 451.312439 
Q 267.403819 437.52725 270.573529 423.728165 
L 276.39036 428.462558 
Q 346.729206 342.041957 443.088994 284.592472 
L 448.209918 293.181776 
z
" style="fill:#0000ff;opacity:0.5;stroke:#0000ff;stroke-linecap:round;"/>
   </g>
   <g id="patch_29">
    <path clip-path="url(#pe836cc761e)" d="M 380.911958 421.399152 
Q 335.457521 428.844833 294.785709 449.225255 
L 298.145681 455.930521 
Q 284.673794 455.679089 270.661525 456.84758 
Q 278.182667 444.972901 286.945775 433.579635 
L 290.305747 440.284901 
Q 332.338635 419.222451 379.295448 411.530672 
L 380.911958 421.399152 
z
" style="fill:#0000ff;opacity:0.5;stroke:#0000ff;stroke-linecap:round;"/>
   </g>
   <g id="patch_30">
    <path clip-path="url(#pe836cc761e)" d="M 378.838137 413.588277 
Q 264.208269 390.915925 149.552358 409.060695 
L 150.724675 416.468507 
Q 137.668013 412.204847 124.156383 408.484121 
Q 135.259547 399.934739 146.816952 391.775802 
L 147.989269 399.183613 
Q 264.40284 380.760686 380.778424 403.778319 
L 378.838137 413.588277 
z
" style="fill:#0000ff;opacity:0.5;stroke:#0000ff;stroke-linecap:round;"/>
   </g>
   <g id="patch_31">
    <path clip-path="url(#pe836cc761e)" d="M 272.768405 458.225176 
Q 318.222843 450.779494 358.894654 430.399072 
L 355.534682 423.693806 
Q 369.006569 423.945238 383.018839 422.776747 
Q 375.497696 434.651426 366.734589 446.044692 
L 363.374617 439.339426 
Q 321.341728 460.401877 274.384915 468.093655 
L 272.768405 458.225176 
z
" style="fill:#0000ff;opacity:0.5;stroke:#0000ff;stroke-linecap:round;"/>
   </g>
   <g id="patch_32">
    <path clip-path="url(#pe836cc761e)" d="M 230.493106 461.439126 
Q 191.280016 437.32688 147.218406 426.115076 
L 145.368912 433.383458 
Q 135.352147 424.374978 123.997062 416.086159 
Q 137.453477 412.032292 151.533892 409.155519 
L 149.684398 416.4239 
Q 195.221274 428.011097 235.731104 452.920712 
L 230.493106 461.439126 
z
" style="fill:#0000ff;opacity:0.5;stroke:#0000ff;stroke-linecap:round;"/>
   </g>
   <g id="patch_33">
    <path clip-path="url(#pe836cc761e)" d="M 125.161863 410.236377 
Q 239.791731 432.908729 354.447642 414.763959 
L 353.275325 407.356147 
Q 366.331987 411.619807 379.843617 415.340533 
Q 368.740453 423.889915 357.183048 432.048853 
L 356.010731 424.641041 
Q 239.59716 443.063968 123.221576 420.046335 
L 125.161863 410.236377 
z
" style="fill:#0000ff;opacity:0.5;stroke:#0000ff;stroke-linecap:round;"/>
   </g>
   <g id="text_1">
    <!-- $x_{1}$ -->
    <defs>
     <path d="M 47.40625 40.71875 
C 44.203125 40.109375 43 37.71875 43 35.828125 
C 43 33.421875 44.90625 32.625 46.296875 32.625 
C 49.296875 32.625 51.40625 35.21875 51.40625 37.921875 
C 51.40625 42.109375 46.59375 44 42.40625 44 
C 36.296875 44 32.90625 38.015625 32 36.125 
C 29.703125 44 23.5 44 21.703125 44 
C 11.5 44 6.09375 30.9375 6.09375 28.734375 
C 6.09375 28.34375 6.5 27.84375 7.203125 27.84375 
C 8 27.84375 8.203125 28.4375 8.40625 28.84375 
C 11.796875 39.921875 18.5 42.015625 21.40625 42.015625 
C 25.90625 42.015625 26.796875 37.8125 26.796875 35.421875 
C 26.796875 33.234375 26.203125 30.9375 25 26.140625 
L 21.59375 12.46875 
C 20.09375 6.484375 17.203125 1 11.90625 1 
C 11.40625 1 8.90625 1 6.796875 2.296875 
C 10.40625 3 11.203125 5.984375 11.203125 7.1875 
C 11.203125 9.1875 9.703125 10.375 7.796875 10.375 
C 5.40625 10.375 2.796875 8.28125 2.796875 5.09375 
C 2.796875 0.890625 7.5 -1 11.796875 -1 
C 16.59375 -1 20 2.796875 22.09375 6.890625 
C 23.703125 1 28.703125 -1 32.40625 -1 
C 42.59375 -1 48 12.078125 48 14.265625 
C 48 14.765625 47.59375 15.171875 47 15.171875 
C 46.09375 15.171875 46 14.671875 45.703125 13.875 
C 43 5.09375 37.203125 1 32.703125 1 
C 29.203125 1 27.296875 3.59375 27.296875 7.6875 
C 27.296875 9.875 27.703125 11.46875 29.296875 18.0625 
L 32.796875 31.625 
C 34.296875 37.625 37.703125 42.015625 42.296875 42.015625 
C 42.5 42.015625 45.296875 42.015625 47.40625 40.71875 
z
" id="CMMI12-120"/>
     <path d="M 26.59375 63.40625 
C 26.59375 65.5 26.5 65.5 25.09375 65.5 
C 21.203125 61.1875 15.296875 59.796875 9.703125 59.796875 
C 9.40625 59.796875 8.90625 59.796875 8.796875 59.5 
C 8.703125 59.296875 8.703125 59.09375 8.703125 57 
C 11.796875 57 17 57.59375 21 59.984375 
L 21 7.203125 
C 21 3.6875 20.796875 2.5 12.203125 2.5 
L 9.203125 2.5 
L 9.203125 0 
C 14 0 19 0 23.796875 0 
C 28.59375 0 33.59375 0 38.40625 0 
L 38.40625 2.5 
L 35.40625 2.5 
C 26.796875 2.5 26.59375 3.59375 26.59375 7.15625 
z
" id="CMR17-49"/>
    </defs>
    <g transform="translate(29.570842 283.176824)scale(0.24 -0.24)">
     <use transform="translate(0 14.943915)scale(0.996264)" xlink:href="#CMMI12-120"/>
     <use transform="translate(55.43406 0)scale(0.697382)" xlink:href="#CMR17-49"/>
    </g>
   </g>
   <g id="text_2">
    <!-- $x_{2}$ -->
    <defs>
     <path d="M 41.703125 15.453125 
L 39.90625 15.453125 
C 38.90625 8.375 38.09375 7.171875 37.703125 6.5625 
C 37.203125 5.765625 30 5.765625 28.59375 5.765625 
L 9.40625 5.765625 
C 13 9.671875 20 16.75 28.5 24.953125 
C 34.59375 30.734375 41.703125 37.53125 41.703125 47.421875 
C 41.703125 59.21875 32.296875 66 21.796875 66 
C 10.796875 66 4.09375 56.3125 4.09375 47.34375 
C 4.09375 43.4375 7 42.9375 8.203125 42.9375 
C 9.203125 42.9375 12.203125 43.546875 12.203125 47.03125 
C 12.203125 50.109375 9.59375 51 8.203125 51 
C 7.59375 51 7 50.90625 6.59375 50.703125 
C 8.5 59.21875 14.296875 63.40625 20.40625 63.40625 
C 29.09375 63.40625 34.796875 56.515625 34.796875 47.421875 
C 34.796875 38.734375 29.703125 31.25 24 24.75 
L 4.09375 2.28125 
L 4.09375 0 
L 39.296875 0 
z
" id="CMR17-50"/>
    </defs>
    <g transform="translate(91.570479 148.464497)scale(0.24 -0.24)">
     <use transform="translate(0 14.943915)scale(0.996264)" xlink:href="#CMMI12-120"/>
     <use transform="translate(55.43406 0)scale(0.697382)" xlink:href="#CMR17-50"/>
    </g>
   </g>
   <g id="text_3">
    <!-- $x_{3}$ -->
    <defs>
     <path d="M 22.09375 33.703125 
C 31 33.703125 34.90625 25.96875 34.90625 17.03125 
C 34.90625 5 28.5 0.390625 22.703125 0.390625 
C 17.40625 0.390625 8.796875 3.03125 6.09375 10.828125 
C 6.59375 10.625 7.09375 10.625 7.59375 10.625 
C 10 10.625 11.796875 12.21875 11.796875 14.8125 
C 11.796875 17.703125 9.59375 19 7.59375 19 
C 5.90625 19 3.296875 18.203125 3.296875 14.46875 
C 3.296875 5.234375 12.296875 -2 22.90625 -2 
C 34 -2 42.5 6.71875 42.5 16.953125 
C 42.5 26.671875 34.5 33.703125 25 34.796875 
C 32.59375 36.375 39.90625 43.0625 39.90625 52.015625 
C 39.90625 59.6875 32 65.296875 23 65.296875 
C 13.90625 65.296875 5.90625 59.828125 5.90625 52.015625 
C 5.90625 48.59375 8.5 48 9.796875 48 
C 11.90625 48 13.703125 49.296875 13.703125 51.890625 
C 13.703125 54.46875 11.90625 55.765625 9.796875 55.765625 
C 9.40625 55.765625 8.90625 55.765625 8.5 55.578125 
C 11.40625 61.859375 19.296875 63 22.796875 63 
C 26.296875 63 32.90625 61.328125 32.90625 51.875 
C 32.90625 49.109375 32.5 44.1875 29.09375 39.84375 
C 26.09375 36 22.703125 36 19.40625 35.6875 
C 18.90625 35.6875 16.59375 35.453125 16.203125 35.453125 
C 15.5 35.359375 15.09375 35.265625 15.09375 34.5 
C 15.09375 33.796875 15.203125 33.703125 17.203125 33.703125 
z
" id="CMR17-51"/>
    </defs>
    <g transform="translate(241.250842 92.664824)scale(0.24 -0.24)">
     <use transform="translate(0 14.943915)scale(0.996264)" xlink:href="#CMMI12-120"/>
     <use transform="translate(55.43406 0)scale(0.697382)" xlink:href="#CMR17-51"/>
    </g>
   </g>
   <g id="text_4">
    <!-- $x_{4}$ -->
    <defs>
     <path d="M 33.59375 64.40625 
C 33.59375 66.5 33.5 66.5 31.703125 66.5 
L 2 19.59375 
L 2 17 
L 27.796875 17 
L 27.796875 7.140625 
C 27.796875 3.5 27.59375 2.5 20.59375 2.5 
L 18.703125 2.5 
L 18.703125 0 
C 21.90625 0 27.296875 0 30.703125 0 
C 34.09375 0 39.5 0 42.703125 0 
L 42.703125 2.5 
L 40.796875 2.5 
C 33.796875 2.5 33.59375 3.5 33.59375 7.140625 
L 33.59375 17 
L 43.796875 17 
L 43.796875 19.59375 
L 33.59375 19.59375 
z
M 28.09375 57.859375 
L 28.09375 19.59375 
L 4 19.59375 
z
" id="CMR17-52"/>
    </defs>
    <g transform="translate(390.931206 148.464497)scale(0.24 -0.24)">
     <use transform="translate(0 14.943915)scale(0.996264)" xlink:href="#CMMI12-120"/>
     <use transform="translate(55.43406 0)scale(0.697382)" xlink:href="#CMR17-52"/>
    </g>
   </g>
   <g id="text_5">
    <!-- $x_{5}$ -->
    <defs>
     <path d="M 11.40625 57.6875 
C 12.40625 57.28125 16.5 56 20.703125 56 
C 30 56 35.09375 61.109375 38 64.0625 
C 38 64.953125 38 65.5 37.40625 65.5 
C 37.296875 65.5 37.09375 65.5 36.296875 65.046875 
C 32.796875 63.40625 28.703125 62.078125 23.703125 62.078125 
C 20.703125 62.078125 16.203125 62.484375 11.296875 64.671875 
C 10.203125 65.171875 10 65.171875 9.90625 65.171875 
C 9.40625 65.171875 9.296875 65.0625 9.296875 63.078125 
L 9.296875 34.421875 
C 9.296875 32.640625 9.296875 32.140625 10.296875 32.140625 
C 10.796875 32.140625 11 32.34375 11.5 33.03125 
C 14.703125 37.515625 19.09375 39.40625 24.09375 39.40625 
C 27.59375 39.40625 35.09375 37.21875 35.09375 20.140625 
C 35.09375 16.953125 35.09375 11.171875 32.09375 6.578125 
C 29.59375 2.484375 25.703125 0.390625 21.40625 0.390625 
C 14.796875 0.390625 8.09375 5 6.296875 12.71875 
C 6.703125 12.609375 7.5 12.421875 7.90625 12.421875 
C 9.203125 12.421875 11.703125 13.125 11.703125 16.21875 
C 11.703125 18.90625 9.796875 20 7.90625 20 
C 5.59375 20 4.09375 18.59375 4.09375 15.796875 
C 4.09375 7.09375 11 -2 21.59375 -2 
C 31.90625 -2 41.703125 6.875 41.703125 19.75 
C 41.703125 31.71875 33.90625 41 24.203125 41 
C 19.09375 41 14.796875 39.109375 11.40625 35.53125 
z
" id="CMR17-53"/>
    </defs>
    <g transform="translate(452.930842 283.176824)scale(0.24 -0.24)">
     <use transform="translate(0 14.943915)scale(0.996264)" xlink:href="#CMMI12-120"/>
     <use transform="translate(55.43406 0)scale(0.697382)" xlink:href="#CMR17-53"/>
    </g>
   </g>
   <g id="text_6">
    <!-- $x_{6}$ -->
    <defs>
     <path d="M 10.59375 34 
C 10.59375 57.65625 21.796875 63 28.296875 63 
C 30.40625 63 35.5 62.640625 37.5 59 
C 35.90625 59 32.90625 59 32.90625 55.515625 
C 32.90625 52.828125 35.09375 51.921875 36.5 51.921875 
C 37.40625 51.921875 40.09375 52.3125 40.09375 55.625 
C 40.09375 61.78125 35.09375 65.296875 28.203125 65.296875 
C 16.296875 65.296875 3.796875 52.96875 3.796875 31 
C 3.796875 3.953125 15.09375 -2 23.09375 -2 
C 32.796875 -2 42 6.671875 42 20.046875 
C 42 32.515625 33.90625 41.59375 23.703125 41.59375 
C 17.59375 41.59375 13.09375 37.609375 10.59375 30.625 
z
M 23.09375 0.390625 
C 10.796875 0.390625 10.796875 18.75 10.796875 22.4375 
C 10.796875 29.625 14.203125 40 23.5 40 
C 25.203125 40 30.09375 40 33.40625 33.125 
C 35.203125 29.21875 35.203125 25.140625 35.203125 20.140625 
C 35.203125 14.75 35.203125 10.78125 33.09375 6.78125 
C 30.90625 2.671875 27.703125 0.390625 23.09375 0.390625 
z
" id="CMR17-54"/>
    </defs>
    <g transform="translate(390.931206 417.889151)scale(0.24 -0.24)">
     <use transform="translate(0 14.943915)scale(0.996264)" xlink:href="#CMMI12-120"/>
     <use transform="translate(55.43406 0)scale(0.697382)" xlink:href="#CMR17-54"/>
    </g>
   </g>
   <g id="text_7">
    <!-- $x_{7}$ -->
    <defs>
     <path d="M 45.09375 61.578125 
L 45.09375 63.765625 
L 21.59375 63.765625 
C 9.90625 63.765625 9.703125 65.078125 9.296875 67 
L 7.5 67 
L 4.59375 48.34375 
L 6.40625 48.34375 
C 6.703125 50.234375 7.40625 55.3125 8.59375 57.203125 
C 9.203125 58 16.59375 58 18.296875 58 
L 40.296875 58 
L 29.203125 41.578125 
C 21.796875 30.53125 16.703125 15.609375 16.703125 2.578125 
C 16.703125 1.390625 16.703125 -2 20.296875 -2 
C 23.90625 -2 23.90625 1.390625 23.90625 2.671875 
L 23.90625 7.265625 
C 23.90625 23.5625 26.703125 34.3125 31.296875 41.1875 
z
" id="CMR17-55"/>
    </defs>
    <g transform="translate(241.250842 473.688824)scale(0.24 -0.24)">
     <use transform="translate(0 14.943915)scale(0.996264)" xlink:href="#CMMI12-120"/>
     <use transform="translate(55.43406 0)scale(0.697382)" xlink:href="#CMR17-55"/>
    </g>
   </g>
   <g id="text_8">
    <!-- $x_{8}$ -->
    <defs>
     <path d="M 27.203125 35.375 
C 33.5 38.546875 39.90625 43.328125 39.90625 50.984375 
C 39.90625 60.015625 31.09375 65.296875 23 65.296875 
C 13.90625 65.296875 5.90625 58.734375 5.90625 49.6875 
C 5.90625 47.203125 6.5 42.921875 10.40625 39.140625 
C 11.40625 38.15625 15.59375 35.171875 18.296875 33.28125 
C 13.796875 30.984375 3.296875 25.53125 3.296875 14.59375 
C 3.296875 4.359375 13.09375 -2 22.796875 -2 
C 33.5 -2 42.5 5.65625 42.5 15.78125 
C 42.5 24.84375 36.40625 29.015625 32.40625 31.703125 
z
M 14.09375 44.09375 
C 13.296875 44.59375 9.296875 47.671875 9.296875 52.359375 
C 9.296875 58.421875 15.59375 63 22.796875 63 
C 30.703125 63 36.5 57.4375 36.5 50.96875 
C 36.5 41.703125 26.09375 36.421875 25.59375 36.421875 
C 25.5 36.421875 25.40625 36.421875 24.59375 37.03125 
z
M 32.5 23.734375 
C 34 22.640625 38.796875 19.375 38.796875 13.296875 
C 38.796875 5.953125 31.40625 0.390625 23 0.390625 
C 13.90625 0.390625 7 6.84375 7 14.6875 
C 7 22.546875 13.09375 29.09375 20 32.1875 
z
" id="CMR17-56"/>
    </defs>
    <g transform="translate(91.570479 417.889151)scale(0.24 -0.24)">
     <use transform="translate(0 14.943915)scale(0.996264)" xlink:href="#CMMI12-120"/>
     <use transform="translate(55.43406 0)scale(0.697382)" xlink:href="#CMR17-56"/>
    </g>
   </g>
   <g id="legend_1">
    <g id="patch_34">
     <path d="M 101.975204 26.977178 
L 402.024796 26.977178 
Q 404.024796 26.977178 404.024796 24.977178 
L 404.024796 12.04 
Q 404.024796 10.04 402.024796 10.04 
L 101.975204 10.04 
Q 99.975204 10.04 99.975204 12.04 
L 99.975204 24.977178 
Q 99.975204 26.977178 101.975204 26.977178 
z
" style="fill:#ffffff;opacity:0.8;stroke:#cccccc;stroke-linejoin:miter;"/>
    </g>
    <g id="patch_35">
     <path d="M 103.975204 21.04 
L 123.975204 21.04 
L 123.975204 14.04 
L 103.975204 14.04 
z
" style="fill:#0000ff;opacity:0.5;stroke:#0000ff;stroke-linejoin:miter;"/>
    </g>
    <g id="text_9">
     <!-- linear -->
     <defs>
      <path d="M 15.296875 68.6875 
L 3.40625 67.59375 
L 3.40625 65 
C 9.296875 65 10.203125 64.40625 10.203125 59.640625 
L 10.203125 6.65625 
C 10.203125 2.875 9.796875 2.390625 3.40625 2.390625 
L 3.40625 -0.203125 
C 5.796875 0 10.203125 0 12.703125 0 
C 15.296875 0 19.703125 0 22.09375 -0.203125 
L 22.09375 2.390625 
C 15.703125 2.390625 15.296875 2.78125 15.296875 6.65625 
z
" id="CMR17-108"/>
      <path d="M 15.5 61.078125 
C 15.5 63.265625 13.703125 65.15625 11.40625 65.15625 
C 9.203125 65.15625 7.296875 63.375 7.296875 61.078125 
C 7.296875 58.890625 9.09375 57 11.40625 57 
C 13.59375 57 15.5 58.796875 15.5 61.078125 
z
M 3.796875 42.28125 
L 3.796875 39.703125 
C 9.40625 39.703125 10.203125 39.09375 10.203125 34.328125 
L 10.203125 6.671875 
C 10.203125 2.875 9.796875 2.390625 3.40625 2.390625 
L 3.40625 -0.203125 
C 5.796875 0 10.09375 0 12.59375 0 
C 15 0 19.09375 0 21.40625 -0.203125 
L 21.40625 2.390625 
C 15.5 2.390625 15.296875 2.984375 15.296875 6.5625 
L 15.296875 43.375 
z
" id="CMR17-105"/>
      <path d="M 41.5 30.203125 
C 41.5 35.296875 40.5 43.59375 28.703125 43.59375 
C 20.796875 43.59375 16.703125 37.5 15.203125 33.5 
L 15.09375 33.5 
L 15.09375 43.59375 
L 3.296875 42.5 
L 3.296875 39.90625 
C 9.203125 39.90625 10.09375 39.296875 10.09375 34.5 
L 10.09375 6.6875 
C 10.09375 2.875 9.703125 2.390625 3.296875 2.390625 
L 3.296875 -0.203125 
C 5.703125 0 10.09375 0 12.703125 0 
C 15.296875 0 19.796875 0 22.203125 -0.203125 
L 22.203125 2.390625 
C 15.796875 2.390625 15.40625 2.78125 15.40625 6.6875 
L 15.40625 25.90625 
C 15.40625 35.109375 21 42 28 42 
C 35.40625 42 36.203125 35.40625 36.203125 30.59375 
L 36.203125 6.6875 
C 36.203125 2.875 35.796875 2.390625 29.40625 2.390625 
L 29.40625 -0.203125 
C 31.796875 0 36.203125 0 38.796875 0 
C 41.40625 0 45.90625 0 48.296875 -0.203125 
L 48.296875 2.390625 
C 41.90625 2.390625 41.5 2.78125 41.5 6.6875 
z
" id="CMR17-110"/>
      <path d="M 38.09375 23 
C 38.5 23.40625 38.5 23.609375 38.5 24.625 
C 38.5 34.96875 33.09375 44 21.703125 44 
C 11.09375 44 2.703125 33.890625 2.703125 21.609375 
C 2.703125 8.609375 12.203125 -1 22.796875 -1 
C 34 -1 38.40625 9.484375 38.40625 11.5625 
C 38.40625 12.25 37.796875 12.25 37.59375 12.25 
C 36.90625 12.25 36.796875 12.046875 36.40625 10.875 
C 34.203125 4.140625 28.703125 0.796875 23.5 0.796875 
C 19.203125 0.796875 14.90625 3.171875 12.203125 7.5 
C 9.09375 12.546875 9.09375 18.375 9.09375 23 
z
M 9.203125 24.5 
C 9.90625 39.140625 17.59375 42.40625 21.59375 42.40625 
C 28.40625 42.40625 33 35.890625 33.09375 24.5 
z
" id="CMR17-101"/>
      <path d="M 36 25.828125 
C 36 32.375 36 35.84375 31.796875 39.734375 
C 28.09375 43 23.796875 44 20.40625 44 
C 12.5 44 6.796875 37.609375 6.796875 30.796875 
C 6.796875 27 9.796875 27 10.40625 27 
C 11.703125 27 14 27.78125 14 30.53125 
C 14 33 12.09375 34.078125 10.40625 34.078125 
C 10 34.078125 9.5 33.96875 9.203125 33.875 
C 11.296875 40.5 16.703125 42.40625 20.203125 42.40625 
C 25.203125 42.40625 30.703125 37.953125 30.703125 29.453125 
L 30.703125 25 
C 24.796875 25 17.703125 24.203125 12.09375 21.203125 
C 5.796875 17.703125 4 12.703125 4 8.90625 
C 4 1.203125 13 -1 18.296875 -1 
C 23.796875 -1 28.90625 2.171875 31.09375 7.984375 
C 31.296875 3.640625 34.09375 -0.28125 38.5 -0.28125 
C 40.59375 -0.28125 45.90625 1.09375 45.90625 8.859375 
L 45.90625 14.375 
L 44.09375 14.375 
L 44.09375 8.78125 
C 44.09375 2.78125 41.40625 2 40.09375 2 
C 36 2 36 7.15625 36 11.53125 
z
M 30.703125 13.59375 
C 30.703125 4.953125 24.5 0.59375 19 0.59375 
C 14 0.59375 10.09375 4.296875 10.09375 8.90625 
C 10.09375 11.890625 11.40625 17.1875 17.203125 20.390625 
C 22 23.09375 27.5 23.5 30.703125 23.5 
z
" id="CMR17-97"/>
      <path d="M 15 23.390625 
C 15 33 19.09375 42 26.59375 42 
C 27.296875 42 28 41.90625 28.703125 41.59375 
C 28.703125 41.59375 26.5 40.890625 26.5 38.3125 
C 26.5 35.90625 28.40625 34.90625 29.90625 34.90625 
C 31.09375 34.90625 33.296875 35.609375 33.296875 38.40625 
C 33.296875 41.609375 30.09375 43.59375 26.703125 43.59375 
C 19.09375 43.59375 15.796875 36.203125 14.796875 32.703125 
L 14.703125 32.703125 
L 14.703125 43.59375 
L 3.09375 42.5 
L 3.09375 39.90625 
C 9 39.90625 9.90625 39.296875 9.90625 34.5 
L 9.90625 6.6875 
C 9.90625 2.875 9.5 2.390625 3.09375 2.390625 
L 3.09375 -0.203125 
C 5.5 0 10.09375 0 12.703125 0 
C 15.59375 0 20.703125 0 23.40625 -0.203125 
L 23.40625 2.390625 
C 16.203125 2.390625 15 2.390625 15 6.875 
z
" id="CMR17-114"/>
     </defs>
     <g transform="translate(131.975204 21.04)scale(0.1 -0.1)">
      <use transform="scale(0.996264)" xlink:href="#CMR17-108"/>
      <use transform="translate(24.871058 0)scale(0.996264)" xlink:href="#CMR17-105"/>
      <use transform="translate(49.742117 0)scale(0.996264)" xlink:href="#CMR17-110"/>
      <use transform="translate(100.637487 0)scale(0.996264)" xlink:href="#CMR17-101"/>
      <use transform="translate(141.123147 0)scale(0.996264)" xlink:href="#CMR17-97"/>
      <use transform="translate(186.813624 0)scale(0.996264)" xlink:href="#CMR17-114"/>
     </g>
    </g>
    <g id="patch_36">
     <path d="M 176.35605 21.04 
L 196.35605 21.04 
L 196.35605 14.04 
L 176.35605 14.04 
z
" style="fill:#008000;opacity:0.5;stroke:#008000;stroke-linejoin:miter;"/>
    </g>
    <g id="text_10">
     <!-- nonlinear -->
     <defs>
      <path d="M 43.09375 21.1875 
C 43.09375 34 33.796875 44 22.90625 44 
C 12 44 2.703125 34 2.703125 21.1875 
C 2.703125 8.609375 12 -1 22.90625 -1 
C 33.796875 -1 43.09375 8.609375 43.09375 21.1875 
z
M 22.90625 0.796875 
C 18.203125 0.796875 14.203125 3.59375 11.90625 7.5 
C 9.40625 11.984375 9.09375 17.59375 9.09375 22 
C 9.09375 26.203125 9.296875 31.40625 11.90625 35.90625 
C 13.90625 39.203125 17.796875 42.40625 22.90625 42.40625 
C 27.40625 42.40625 31.203125 39.90625 33.59375 36.40625 
C 36.703125 31.703125 36.703125 25.109375 36.703125 22 
C 36.703125 18.09375 36.5 12.109375 33.796875 7.296875 
C 31 2.703125 26.703125 0.796875 22.90625 0.796875 
z
" id="CMR17-111"/>
     </defs>
     <g transform="translate(204.35605 21.04)scale(0.1 -0.1)">
      <use transform="scale(0.996264)" xlink:href="#CMR17-110"/>
      <use transform="translate(50.89537 0)scale(0.996264)" xlink:href="#CMR17-111"/>
      <use transform="translate(96.585847 0)scale(0.996264)" xlink:href="#CMR17-110"/>
      <use transform="translate(147.481217 0)scale(0.996264)" xlink:href="#CMR17-108"/>
      <use transform="translate(172.352275 0)scale(0.996264)" xlink:href="#CMR17-105"/>
      <use transform="translate(197.223334 0)scale(0.996264)" xlink:href="#CMR17-110"/>
      <use transform="translate(248.118703 0)scale(0.996264)" xlink:href="#CMR17-101"/>
      <use transform="translate(288.604364 0)scale(0.996264)" xlink:href="#CMR17-97"/>
      <use transform="translate(334.294841 0)scale(0.996264)" xlink:href="#CMR17-114"/>
     </g>
    </g>
    <g id="patch_37">
     <path d="M 264.787866 21.04 
L 284.787866 21.04 
L 284.787866 14.04 
L 264.787866 14.04 
z
" style="fill:#ff0000;opacity:0.5;stroke:#ff0000;stroke-linejoin:miter;"/>
    </g>
    <g id="text_11">
     <!-- no substrate dependence -->
     <defs>
      <path d="M 30.90625 42.140625 
C 30.90625 43.953125 30.796875 44.046875 30.203125 44.046875 
C 29.796875 44.046875 29.703125 43.953125 28.5 42.453125 
C 28.203125 42.046875 27.296875 41.03125 27 40.640625 
C 23.796875 44.046875 19.296875 44.046875 17.59375 44.046875 
C 6.5 44.046875 2.5 38.234375 2.5 32.4375 
C 2.5 23.40625 12.703125 21.328125 15.59375 20.703125 
C 21.90625 19.421875 24.09375 19.015625 26.203125 17.203125 
C 27.5 16.015625 29.703125 13.8125 29.703125 10.21875 
C 29.703125 6 27.296875 0.59375 18.09375 0.59375 
C 9.40625 0.59375 6.296875 7.1875 4.5 15.953125 
C 4.203125 17.34375 4.203125 17.453125 3.40625 17.453125 
C 2.59375 17.453125 2.5 17.34375 2.5 15.359375 
L 2.5 0.984375 
C 2.5 -0.796875 2.59375 -0.90625 3.203125 -0.90625 
C 3.703125 -0.90625 3.796875 -0.796875 4.296875 0 
C 4.90625 0.890625 6.40625 3.296875 7 4.3125 
C 9 1.609375 12.5 -1 18.09375 -1 
C 28 -1 33.296875 4.421875 33.296875 12.25 
C 33.296875 17.375 30.59375 20.078125 29.296875 21.28125 
C 26.296875 24.390625 22.796875 25.09375 18.59375 25.890625 
C 13.09375 27.109375 6.09375 28.515625 6.09375 34.640625 
C 6.09375 37.234375 7.5 42.765625 17.59375 42.765625 
C 28.296875 42.765625 28.90625 32.71875 29.09375 29.5 
C 29.203125 29 29.703125 28.890625 30 28.890625 
C 30.90625 28.890625 30.90625 29.203125 30.90625 30.90625 
z
" id="CMR17-115"/>
      <path d="M 29.40625 42.078125 
L 29.40625 39.5 
C 35.296875 39.5 36.203125 38.890625 36.203125 34.15625 
L 36.203125 16.125 
C 36.203125 7.8125 31.703125 0.59375 24.296875 0.59375 
C 16.09375 0.59375 15.40625 5.4375 15.40625 10.59375 
L 15.40625 43.171875 
L 3.296875 42.078125 
L 3.296875 39.5 
C 7.296875 39.5 10 39.5 10.09375 35.53125 
L 10.09375 16.53125 
C 10.09375 9.890625 10.09375 5.640625 12.703125 2.859375 
C 14 1.578125 16.5 -1 23.703125 -1 
C 32.203125 -1 35.5 5.890625 36.296875 7.90625 
L 36.40625 7.90625 
L 36.40625 -0.984375 
L 48.296875 -0.984375 
L 48.296875 2 
C 42.40625 2 41.5 2.59375 41.5 7.390625 
L 41.5 43.171875 
z
" id="CMR17-117"/>
      <path d="M 15 68.6875 
L 3.09375 67.59375 
L 3.09375 65 
C 9 65 9.90625 64.40625 9.90625 59.640625 
L 9.90625 -0.203125 
L 11.703125 -0.203125 
L 14.59375 6.890625 
C 17.5 2.203125 21.796875 -1 27.59375 -1 
C 37.59375 -1 47.703125 7.8125 47.703125 21.40625 
C 47.703125 34.1875 38.703125 43.59375 28.59375 43.59375 
C 22.40625 43.59375 18 40.296875 15 36.40625 
z
M 15.203125 31.3125 
C 15.203125 33.09375 15.203125 33.40625 16.59375 35.5 
C 20.5 41.515625 26.09375 42 28 42 
C 31 42 41.296875 40.390625 41.296875 21.5 
C 41.296875 1.6875 29.5 0.59375 27.09375 0.59375 
C 24 0.59375 19.5 1.78125 16.296875 7.59375 
C 15.203125 9.5 15.203125 9.703125 15.203125 11.484375 
z
" id="CMR17-98"/>
      <path d="M 15.09375 40 
L 29.09375 40 
L 29.09375 42.578125 
L 15.09375 42.578125 
L 15.09375 61 
L 13.296875 61 
C 13.09375 50.703125 9.59375 41.6875 1.09375 41.6875 
L 1.09375 40 
L 9.796875 40 
L 9.796875 12.046875 
C 9.796875 10.15625 9.796875 -1 21.40625 -1 
C 27.296875 -1 30.703125 4.78125 30.703125 12.140625 
L 30.703125 17.8125 
L 28.90625 17.8125 
L 28.90625 12.234375 
C 28.90625 5.375 26.203125 0.796875 22 0.796875 
C 19.09375 0.796875 15.09375 2.78125 15.09375 11.84375 
z
" id="CMR17-116"/>
      <path d="M 29.203125 67.59375 
L 29.203125 65 
C 35.09375 65 36 64.40625 36 59.6875 
L 36 36.640625 
C 35.59375 37.140625 31.5 43.59375 23.40625 43.59375 
C 13.203125 43.59375 3.296875 34.5 3.296875 21.3125 
C 3.296875 8.203125 12.59375 -1 22.40625 -1 
C 30.90625 -1 35.296875 5.265625 35.796875 5.9375 
L 35.796875 -0.984375 
L 47.90625 -0.984375 
L 47.90625 2 
C 42 2 41.09375 2.59375 41.09375 7.390625 
L 41.09375 68.6875 
z
M 35.796875 11.796875 
C 35.796875 8.796875 34 6.09375 31.703125 4.09375 
C 28.296875 1.09375 24.90625 0.59375 23 0.59375 
C 20.09375 0.59375 9.703125 2.09375 9.703125 21.1875 
C 9.703125 40.8125 21.296875 42 23.90625 42 
C 28.5 42 32.203125 39.40625 34.5 35.796875 
C 35.796875 33.703125 35.796875 33.40625 35.796875 31.609375 
z
" id="CMR17-100"/>
      <path d="M 22 -16.609375 
C 15.59375 -16.609375 15.203125 -16.203125 15.203125 -12.328125 
L 15.203125 6.28125 
C 18.09375 2.09375 22.296875 -0.59375 27.59375 -0.59375 
C 37.59375 -0.59375 47.703125 8.171875 47.703125 21.6875 
C 47.703125 34.234375 39 43.78125 28.703125 43.78125 
C 22.703125 43.78125 17.796875 40.5 15 36.53125 
L 15 43.78125 
L 3.09375 42.6875 
L 3.09375 40.109375 
C 9 40.109375 9.90625 39.5 9.90625 34.734375 
L 9.90625 -12.328125 
C 9.90625 -16.109375 9.5 -16.609375 3.09375 -16.609375 
L 3.09375 -19.1875 
C 5.5 -19 9.90625 -19 12.5 -19 
C 15.09375 -19 19.59375 -19 22 -19.1875 
z
M 15.203125 31.4375 
C 15.203125 32.84375 15.203125 34.921875 19.09375 38.609375 
C 19.59375 39.015625 23 42 28 42 
C 35.296875 42 41.296875 32.9375 41.296875 21.59375 
C 41.296875 10.25 34.90625 1 27 1 
C 23.40625 1 19.5 2.6875 16.5 7.375 
C 15.203125 9.5625 15.203125 10.15625 15.203125 11.75 
z
" id="CMR17-112"/>
      <path d="M 34.90625 35 
C 33 35 30.203125 35 30.203125 31.515625 
C 30.203125 28.71875 32.5 27.921875 33.796875 27.921875 
C 34.5 27.921875 37.40625 28.234375 37.40625 31.625 
C 37.40625 38.546875 30.59375 43.796875 22.90625 43.796875 
C 12.296875 43.796875 3.296875 34.03125 3.296875 21.296875 
C 3.296875 8.0625 12.703125 -1 22.90625 -1 
C 35.296875 -1 38.40625 10.578125 38.40625 11.6875 
C 38.40625 12.09375 38.296875 12.390625 37.59375 12.390625 
C 36.90625 12.390625 36.796875 12.296875 36.40625 10.984375 
C 33.796875 2.8125 28.09375 0.796875 23.796875 0.796875 
C 17.40625 0.796875 9.703125 6.671875 9.703125 21.390625 
C 9.703125 36.53125 17.09375 42 23 42 
C 26.90625 42 32.703125 40.203125 34.90625 35 
z
" id="CMR17-99"/>
     </defs>
     <g transform="translate(292.787866 21.04)scale(0.1 -0.1)">
      <use transform="scale(0.996264)" xlink:href="#CMR17-110"/>
      <use transform="translate(50.89537 0)scale(0.996264)" xlink:href="#CMR17-111"/>
      <use transform="translate(126.661813 0)scale(0.996264)" xlink:href="#CMR17-115"/>
      <use transform="translate(162.463151 0)scale(0.996264)" xlink:href="#CMR17-117"/>
      <use transform="translate(213.358521 0)scale(0.996264)" xlink:href="#CMR17-98"/>
      <use transform="translate(264.25389 0)scale(0.996264)" xlink:href="#CMR17-115"/>
      <use transform="translate(300.055228 0)scale(0.996264)" xlink:href="#CMR17-116"/>
      <use transform="translate(335.335996 0)scale(0.996264)" xlink:href="#CMR17-114"/>
      <use transform="translate(370.616764 0)scale(0.996264)" xlink:href="#CMR17-97"/>
      <use transform="translate(416.307241 0)scale(0.996264)" xlink:href="#CMR17-116"/>
      <use transform="translate(451.588009 0)scale(0.996264)" xlink:href="#CMR17-101"/>
      <use transform="translate(522.149635 0)scale(0.996264)" xlink:href="#CMR17-100"/>
      <use transform="translate(573.045005 0)scale(0.996264)" xlink:href="#CMR17-101"/>
      <use transform="translate(613.530666 0)scale(0.996264)" xlink:href="#CMR17-112"/>
      <use transform="translate(667.028474 0)scale(0.996264)" xlink:href="#CMR17-101"/>
      <use transform="translate(707.514135 0)scale(0.996264)" xlink:href="#CMR17-110"/>
      <use transform="translate(758.409504 0)scale(0.996264)" xlink:href="#CMR17-100"/>
      <use transform="translate(809.304874 0)scale(0.996264)" xlink:href="#CMR17-101"/>
      <use transform="translate(849.790535 0)scale(0.996264)" xlink:href="#CMR17-110"/>
      <use transform="translate(900.685904 0)scale(0.996264)" xlink:href="#CMR17-99"/>
      <use transform="translate(941.171565 0)scale(0.996264)" xlink:href="#CMR17-101"/>
     </g>
    </g>
   </g>
  </g>
 </g>
 <defs>
  <clipPath id="pe836cc761e">
   <rect height="453.6" width="504" x="0" y="50.4"/>
  </clipPath>
 </defs>
</svg>
