<?xml version="1.0" encoding="utf-8" standalone="no"?>
<!DOCTYPE svg PUBLIC "-//W3C//DTD SVG 1.1//EN"
  "http://www.w3.org/Graphics/SVG/1.1/DTD/svg11.dtd">
<!-- Created with matplotlib (http://matplotlib.org/) -->
<svg height="216pt" version="1.1" viewBox="0 0 216 216" width="216pt" xmlns="http://www.w3.org/2000/svg" xmlns:xlink="http://www.w3.org/1999/xlink">
 <defs>
  <style type="text/css">
*{stroke-linecap:butt;stroke-linejoin:round;}
  </style>
 </defs>
 <g id="figure_1">
  <g id="patch_1">
   <path d="M 0 216 
L 216 216 
L 216 0 
L 0 0 
z
" style="fill:none;"/>
  </g>
  <g id="axes_1">
   <g id="patch_2">
    <path clip-path="url(#p56b3d83727)" d="M 40.392 115.7328 
C 42.1678 115.7328 43.871107 115.031819 45.126787 113.78424 
C 46.382467 112.536661 47.088 110.844343 47.088 109.08 
C 47.088 107.315657 46.382467 105.623339 45.126787 104.37576 
C 43.871107 103.128181 42.1678 102.4272 40.392 102.4272 
C 38.6162 102.4272 36.912893 103.128181 35.657213 104.37576 
C 34.401533 105.623339 33.696 107.315657 33.696 109.08 
C 33.696 110.844343 34.401533 112.536661 35.657213 113.78424 
C 36.912893 115.031819 38.6162 115.7328 40.392 115.7328 
z
" style="fill:#0000ff;opacity:0.3;stroke:#0000ff;stroke-linejoin:miter;"/>
   </g>
   <g id="patch_3">
    <path clip-path="url(#p56b3d83727)" d="M 27.545026 98.425777 
Q 30.141051 101.718008 32.737075 105.010238 
Q 28.545676 105.11172 24.354277 105.213201 
z
" style="fill:#0000ff;opacity:0.5;stroke:#0000ff;stroke-linecap:round;"/>
   </g>
   <g id="patch_4">
    <path clip-path="url(#p56b3d83727)" d="M 38.677802 113.348179 
Q 34.52533 113.927058 30.372858 114.505937 
Q 32.401238 110.836632 34.429618 107.167327 
z
" style="fill:#0000ff;opacity:0.5;stroke:#0000ff;stroke-linecap:round;"/>
   </g>
   <g id="patch_5">
    <path clip-path="url(#p56b3d83727)" d="M 60.984736 66.33828 
C 62.760536 66.33828 64.463843 65.637299 65.719523 64.38972 
C 66.975204 63.142141 67.680736 61.449823 67.680736 59.68548 
C 67.680736 57.921137 66.975204 56.228819 65.719523 54.98124 
C 64.463843 53.733661 62.760536 53.03268 60.984736 53.03268 
C 59.208936 53.03268 57.50563 53.733661 56.249949 54.98124 
C 54.994269 56.228819 54.288736 57.921137 54.288736 59.68548 
C 54.288736 61.449823 54.994269 63.142141 56.249949 64.38972 
C 57.50563 65.637299 59.208936 66.33828 60.984736 66.33828 
z
" style="fill:#0000ff;opacity:0.3;stroke:#0000ff;stroke-linejoin:miter;"/>
   </g>
   <g id="patch_6">
    <path clip-path="url(#p56b3d83727)" d="M 59.465926 43.096778 
Q 58.96715 47.259632 58.468374 51.422485 
Q 55.437357 48.525752 52.40634 45.629019 
z
" style="fill:#0000ff;opacity:0.5;stroke:#0000ff;stroke-linecap:round;"/>
   </g>
   <g id="patch_7">
    <path clip-path="url(#p56b3d83727)" d="M 56.751557 61.507874 
Q 53.395281 58.995198 50.039006 56.482522 
Q 54.062912 55.305108 58.086818 54.127693 
z
" style="fill:#0000ff;opacity:0.5;stroke:#0000ff;stroke-linecap:round;"/>
   </g>
   <g id="patch_8">
    <path clip-path="url(#p56b3d83727)" d="M 110.7 45.8784 
C 112.4758 45.8784 114.179107 45.177419 115.434787 43.92984 
C 116.690467 42.682261 117.396 40.989943 117.396 39.2256 
C 117.396 37.461257 116.690467 35.768939 115.434787 34.52136 
C 114.179107 33.273781 112.4758 32.5728 110.7 32.5728 
C 108.9242 32.5728 107.220893 33.273781 105.965213 34.52136 
C 104.709533 35.768939 104.004 37.461257 104.004 39.2256 
C 104.004 40.989943 104.709533 42.682261 105.965213 43.92984 
C 107.220893 45.177419 108.9242 45.8784 110.7 45.8784 
z
" style="fill:#0000ff;opacity:0.3;stroke:#0000ff;stroke-linejoin:miter;"/>
   </g>
   <g id="patch_9">
    <path clip-path="url(#p56b3d83727)" d="M 121.417515 26.459933 
Q 118.109801 29.0362 114.802086 31.612466 
Q 114.725702 27.420535 114.649317 23.228603 
z
" style="fill:#0000ff;opacity:0.5;stroke:#0000ff;stroke-linecap:round;"/>
   </g>
   <g id="patch_10">
    <path clip-path="url(#p56b3d83727)" d="M 106.440491 37.573363 
Q 105.83993 33.423971 105.239369 29.274579 
Q 108.919219 31.283766 112.599069 33.292952 
z
" style="fill:#0000ff;opacity:0.5;stroke:#0000ff;stroke-linecap:round;"/>
   </g>
   <g id="patch_11">
    <path clip-path="url(#p56b3d83727)" d="M 160.415264 66.33828 
C 162.191064 66.33828 163.89437 65.637299 165.150051 64.38972 
C 166.405731 63.142141 167.111264 61.449823 167.111264 59.68548 
C 167.111264 57.921137 166.405731 56.228819 165.150051 54.98124 
C 163.89437 53.733661 162.191064 53.03268 160.415264 53.03268 
C 158.639464 53.03268 156.936157 53.733661 155.680477 54.98124 
C 154.424796 56.228819 153.719264 57.921137 153.719264 59.68548 
C 153.719264 61.449823 154.424796 63.142141 155.680477 64.38972 
C 156.936157 65.637299 158.639464 66.33828 160.415264 66.33828 
z
" style="fill:#0000ff;opacity:0.3;stroke:#0000ff;stroke-linejoin:miter;"/>
   </g>
   <g id="patch_12">
    <path clip-path="url(#p56b3d83727)" d="M 158.586347 55.510059 
Q 161.110603 52.162485 163.63486 48.814911 
Q 164.798365 52.842861 165.961871 56.87081 
z
" style="fill:#0000ff;opacity:0.5;stroke:#0000ff;stroke-linecap:round;"/>
   </g>
   <g id="patch_13">
    <path clip-path="url(#p56b3d83727)" d="M 181.008 115.7328 
C 182.7838 115.7328 184.487107 115.031819 185.742787 113.78424 
C 186.998467 112.536661 187.704 110.844343 187.704 109.08 
C 187.704 107.315657 186.998467 105.623339 185.742787 104.37576 
C 184.487107 103.128181 182.7838 102.4272 181.008 102.4272 
C 179.2322 102.4272 177.528893 103.128181 176.273213 104.37576 
C 175.017533 105.623339 174.312 107.315657 174.312 109.08 
C 174.312 110.844343 175.017533 112.536661 176.273213 113.78424 
C 177.528893 115.031819 179.2322 115.7328 181.008 115.7328 
z
" style="fill:#0000ff;opacity:0.3;stroke:#0000ff;stroke-linejoin:miter;"/>
   </g>
   <g id="patch_14">
    <path clip-path="url(#p56b3d83727)" d="M 182.722198 104.811821 
Q 186.87467 104.232942 191.027142 103.654063 
Q 188.998762 107.323368 186.970382 110.992673 
z
" style="fill:#0000ff;opacity:0.5;stroke:#0000ff;stroke-linecap:round;"/>
   </g>
   <g id="patch_15">
    <path clip-path="url(#p56b3d83727)" d="M 160.415264 165.12732 
C 162.191064 165.12732 163.89437 164.426339 165.150051 163.17876 
C 166.405731 161.931181 167.111264 160.238863 167.111264 158.47452 
C 167.111264 156.710177 166.405731 155.017859 165.150051 153.77028 
C 163.89437 152.522701 162.191064 151.82172 160.415264 151.82172 
C 158.639464 151.82172 156.936157 152.522701 155.680477 153.77028 
C 154.424796 155.017859 153.719264 156.710177 153.719264 158.47452 
C 153.719264 160.238863 154.424796 161.931181 155.680477 163.17876 
C 156.936157 164.426339 158.639464 165.12732 160.415264 165.12732 
z
" style="fill:#0000ff;opacity:0.3;stroke:#0000ff;stroke-linejoin:miter;"/>
   </g>
   <g id="patch_16">
    <path clip-path="url(#p56b3d83727)" d="M 164.648443 156.652126 
Q 168.004719 159.164802 171.360994 161.677478 
Q 167.337088 162.854892 163.313182 164.032307 
z
" style="fill:#0000ff;opacity:0.5;stroke:#0000ff;stroke-linecap:round;"/>
   </g>
   <g id="patch_17">
    <path clip-path="url(#p56b3d83727)" d="M 110.7 185.5872 
C 112.4758 185.5872 114.179107 184.886219 115.434787 183.63864 
C 116.690467 182.391061 117.396 180.698743 117.396 178.9344 
C 117.396 177.170057 116.690467 175.477739 115.434787 174.23016 
C 114.179107 172.982581 112.4758 172.2816 110.7 172.2816 
C 108.9242 172.2816 107.220893 172.982581 105.965213 174.23016 
C 104.709533 175.477739 104.004 177.170057 104.004 178.9344 
C 104.004 180.698743 104.709533 182.391061 105.965213 183.63864 
C 107.220893 184.886219 108.9242 185.5872 110.7 185.5872 
z
" style="fill:#0000ff;opacity:0.3;stroke:#0000ff;stroke-linejoin:miter;"/>
   </g>
   <g id="patch_18">
    <path clip-path="url(#p56b3d83727)" d="M 114.959509 180.586637 
Q 115.56007 184.736029 116.160631 188.885421 
Q 112.480781 186.876234 108.800931 184.867048 
z
" style="fill:#0000ff;opacity:0.5;stroke:#0000ff;stroke-linecap:round;"/>
   </g>
   <g id="patch_19">
    <path clip-path="url(#p56b3d83727)" d="M 60.984736 165.12732 
C 62.760536 165.12732 64.463843 164.426339 65.719523 163.17876 
C 66.975204 161.931181 67.680736 160.238863 67.680736 158.47452 
C 67.680736 156.710177 66.975204 155.017859 65.719523 153.77028 
C 64.463843 152.522701 62.760536 151.82172 60.984736 151.82172 
C 59.208936 151.82172 57.50563 152.522701 56.249949 153.77028 
C 54.994269 155.017859 54.288736 156.710177 54.288736 158.47452 
C 54.288736 160.238863 54.994269 161.931181 56.249949 163.17876 
C 57.50563 164.426339 59.208936 165.12732 60.984736 165.12732 
z
" style="fill:#0000ff;opacity:0.3;stroke:#0000ff;stroke-linejoin:miter;"/>
   </g>
   <g id="patch_20">
    <path clip-path="url(#p56b3d83727)" d="M 62.813653 162.649941 
Q 60.289397 165.997515 57.76514 169.345089 
Q 56.601635 165.317139 55.438129 161.28919 
z
" style="fill:#0000ff;opacity:0.5;stroke:#0000ff;stroke-linecap:round;"/>
   </g>
   <g id="patch_21">
    <path clip-path="url(#p56b3d83727)" d="M 48.566195 105.667887 
Q 100.856587 95.121597 145.95456 67.077812 
L 144.766406 65.167108 
Q 148.895733 64.807612 153.0675 64.3125 
Q 150.953964 67.942964 148.726921 71.536121 
L 147.538767 69.625417 
Q 101.980749 97.955276 49.159313 108.608671 
L 48.566195 105.667887 
z
" style="fill:#0000ff;opacity:0.5;stroke:#0000ff;stroke-linecap:round;"/>
   </g>
   <g id="patch_22">
    <path clip-path="url(#p56b3d83727)" d="M 49.254806 109.035664 
Q 107.026272 120.257976 164.805123 110.421516 
L 164.427509 108.20343 
Q 168.391702 109.43077 172.43894 110.557959 
Q 169.104069 113.112969 165.686223 115.597051 
L 165.308609 113.378965 
Q 106.990842 123.307171 48.682739 111.980616 
L 49.254806 109.035664 
z
" style="fill:#0000ff;opacity:0.5;stroke:#0000ff;stroke-linecap:round;"/>
   </g>
   <g id="patch_23">
    <path clip-path="url(#p56b3d83727)" d="M 69.183959 63.011702 
Q 113.750329 92.325913 165.523659 104.148704 
L 166.024568 101.95517 
Q 169.210769 104.606318 172.522571 107.191007 
Q 168.465906 108.282175 164.354873 109.26695 
L 164.855782 107.073416 
Q 112.554309 95.13002 67.535336 65.518102 
L 69.183959 63.011702 
z
" style="fill:#0000ff;opacity:0.5;stroke:#0000ff;stroke-linecap:round;"/>
   </g>
   <g id="patch_24">
    <path clip-path="url(#p56b3d83727)" d="M 118.891879 42.539945 
Q 131.188429 50.468902 145.075299 54.566905 
L 145.712123 52.408906 
Q 148.630281 55.227524 151.912979 57.867249 
Q 147.829242 58.895943 143.589378 59.602234 
L 144.226202 57.444235 
Q 129.925391 53.224079 117.266121 45.061237 
L 118.891879 42.539945 
z
" style="fill:#0000ff;opacity:0.5;stroke:#0000ff;stroke-linecap:round;"/>
   </g>
   <g id="patch_25">
    <path clip-path="url(#p56b3d83727)" d="M 116.995985 45.419665 
Q 138.271042 76.572071 168.62402 98.601291 
L 169.945613 96.780332 
Q 171.820321 100.458359 173.886954 104.119188 
Q 169.719911 103.566198 165.540302 102.850195 
L 166.861895 101.029236 
Q 136.087388 78.694083 114.518591 47.111563 
L 116.995985 45.419665 
z
" style="fill:#0000ff;opacity:0.5;stroke:#0000ff;stroke-linecap:round;"/>
   </g>
   <g id="patch_26">
    <path clip-path="url(#p56b3d83727)" d="M 160.455594 68.501699 
Q 153.37886 105.410657 159.116944 142.32928 
L 161.34025 141.983722 
Q 160.051711 145.90528 158.911093 149.951271 
Q 156.366595 146.605532 153.929229 143.135581 
L 156.152535 142.790023 
Q 150.334501 105.357003 157.509262 67.936784 
L 160.455594 68.501699 
z
" style="fill:#0000ff;opacity:0.5;stroke:#0000ff;stroke-linecap:round;"/>
   </g>
   <g id="patch_27">
    <path clip-path="url(#p56b3d83727)" d="M 177.659263 117.236495 
Q 169.727975 129.415569 165.587147 143.188654 
L 167.741872 143.836465 
Q 164.907647 146.74271 162.25174 150.016425 
Q 161.242974 145.924455 160.559454 141.677096 
L 162.71418 142.324907 
Q 166.979013 128.13936 175.145337 115.59937 
L 177.659263 117.236495 
z
" style="fill:#0000ff;opacity:0.5;stroke:#0000ff;stroke-linecap:round;"/>
   </g>
   <g id="patch_28">
    <path clip-path="url(#p56b3d83727)" d="M 174.763708 115.345301 
Q 143.473901 136.418518 121.248435 166.628619 
L 123.060801 167.961971 
Q 119.370693 169.812868 115.696541 171.855797 
Q 116.276514 167.692386 117.019579 163.517465 
L 118.831946 164.850817 
Q 141.366066 134.221176 173.08788 112.857008 
L 174.763708 115.345301 
z
" style="fill:#0000ff;opacity:0.5;stroke:#0000ff;stroke-linecap:round;"/>
   </g>
   <g id="patch_29">
    <path clip-path="url(#p56b3d83727)" d="M 152.254588 161.889911 
Q 137.938565 164.913032 125.189441 171.776894 
L 126.256039 173.758023 
Q 122.199139 173.809944 118.009216 174.245533 
Q 120.186047 170.640335 122.700712 167.154262 
L 123.76731 169.13539 
Q 136.896448 162.066936 151.634747 158.954644 
L 152.254588 161.889911 
z
" style="fill:#0000ff;opacity:0.5;stroke:#0000ff;stroke-linecap:round;"/>
   </g>
   <g id="patch_30">
    <path clip-path="url(#p56b3d83727)" d="M 151.554096 158.521135 
Q 114.367185 151.389723 77.170652 157.182311 
L 77.51687 159.405515 
Q 73.594316 158.118243 69.548144 156.977969 
Q 72.893778 154.433195 76.362811 151.994837 
L 76.709029 154.21804 
Q 114.420443 148.34527 152.119116 155.574824 
L 151.554096 158.521135 
z
" style="fill:#0000ff;opacity:0.5;stroke:#0000ff;stroke-linecap:round;"/>
   </g>
   <g id="patch_31">
    <path clip-path="url(#p56b3d83727)" d="M 118.860675 175.519009 
Q 133.176698 172.495888 145.925823 165.632025 
L 144.859225 163.650897 
Q 148.916125 163.598976 153.106047 163.163387 
Q 150.929217 166.768585 148.414551 170.254658 
L 147.347953 168.27353 
Q 134.218815 175.341984 119.480517 178.454276 
L 118.860675 175.519009 
z
" style="fill:#0000ff;opacity:0.5;stroke:#0000ff;stroke-linecap:round;"/>
   </g>
   <g id="patch_32">
    <path clip-path="url(#p56b3d83727)" d="M 102.508121 175.620055 
Q 90.211571 167.691098 76.324701 163.593095 
L 75.687877 165.751094 
Q 72.769719 162.932476 69.487021 160.292751 
Q 73.570758 159.264057 77.810622 158.557766 
L 77.173798 160.715765 
Q 91.474609 164.935921 104.133879 173.098763 
L 102.508121 175.620055 
z
" style="fill:#0000ff;opacity:0.5;stroke:#0000ff;stroke-linecap:round;"/>
   </g>
   <g id="patch_33">
    <path clip-path="url(#p56b3d83727)" d="M 69.845904 158.427904 
Q 107.032815 165.559316 144.229348 159.766729 
L 143.88313 157.543525 
Q 147.805684 158.830797 151.851856 159.97107 
Q 148.506222 162.515845 145.037189 164.954203 
L 144.690971 162.731 
Q 106.979557 168.60377 69.280884 161.374216 
L 69.845904 158.427904 
z
" style="fill:#0000ff;opacity:0.5;stroke:#0000ff;stroke-linecap:round;"/>
   </g>
   <g id="text_1">
    <!-- $x_{1}$ -->
    <defs>
     <path d="M 47.40625 40.71875 
C 44.203125 40.109375 43 37.71875 43 35.828125 
C 43 33.421875 44.90625 32.625 46.296875 32.625 
C 49.296875 32.625 51.40625 35.21875 51.40625 37.921875 
C 51.40625 42.109375 46.59375 44 42.40625 44 
C 36.296875 44 32.90625 38.015625 32 36.125 
C 29.703125 44 23.5 44 21.703125 44 
C 11.5 44 6.09375 30.9375 6.09375 28.734375 
C 6.09375 28.34375 6.5 27.84375 7.203125 27.84375 
C 8 27.84375 8.203125 28.4375 8.40625 28.84375 
C 11.796875 39.921875 18.5 42.015625 21.40625 42.015625 
C 25.90625 42.015625 26.796875 37.8125 26.796875 35.421875 
C 26.796875 33.234375 26.203125 30.9375 25 26.140625 
L 21.59375 12.46875 
C 20.09375 6.484375 17.203125 1 11.90625 1 
C 11.40625 1 8.90625 1 6.796875 2.296875 
C 10.40625 3 11.203125 5.984375 11.203125 7.1875 
C 11.203125 9.1875 9.703125 10.375 7.796875 10.375 
C 5.40625 10.375 2.796875 8.28125 2.796875 5.09375 
C 2.796875 0.890625 7.5 -1 11.796875 -1 
C 16.59375 -1 20 2.796875 22.09375 6.890625 
C 23.703125 1 28.703125 -1 32.40625 -1 
C 42.59375 -1 48 12.078125 48 14.265625 
C 48 14.765625 47.59375 15.171875 47 15.171875 
C 46.09375 15.171875 46 14.671875 45.703125 13.875 
C 43 5.09375 37.203125 1 32.703125 1 
C 29.203125 1 27.296875 3.59375 27.296875 7.6875 
C 27.296875 9.875 27.703125 11.46875 29.296875 18.0625 
L 32.796875 31.625 
C 34.296875 37.625 37.703125 42.015625 42.296875 42.015625 
C 42.5 42.015625 45.296875 42.015625 47.40625 40.71875 
z
" id="CMMI12-120"/>
     <path d="M 26.59375 63.40625 
C 26.59375 65.5 26.5 65.5 25.09375 65.5 
C 21.203125 61.1875 15.296875 59.796875 9.703125 59.796875 
C 9.40625 59.796875 8.90625 59.796875 8.796875 59.5 
C 8.703125 59.296875 8.703125 59.09375 8.703125 57 
C 11.796875 57 17 57.59375 21 59.984375 
L 21 7.203125 
C 21 3.6875 20.796875 2.5 12.203125 2.5 
L 9.203125 2.5 
L 9.203125 0 
C 14 0 19 0 23.796875 0 
C 28.59375 0 33.59375 0 38.40625 0 
L 38.40625 2.5 
L 35.40625 2.5 
C 26.796875 2.5 26.59375 3.59375 26.59375 7.15625 
z
" id="CMR17-49"/>
    </defs>
    <g transform="translate(33.167741 113.065056)scale(0.16 -0.16)">
     <use transform="translate(0 14.943915)scale(0.996264)" xlink:href="#CMMI12-120"/>
     <use transform="translate(55.43406 0)scale(0.697382)" xlink:href="#CMR17-49"/>
    </g>
   </g>
   <g id="text_2">
    <!-- $x_{2}$ -->
    <defs>
     <path d="M 41.703125 15.453125 
L 39.90625 15.453125 
C 38.90625 8.375 38.09375 7.171875 37.703125 6.5625 
C 37.203125 5.765625 30 5.765625 28.59375 5.765625 
L 9.40625 5.765625 
C 13 9.671875 20 16.75 28.5 24.953125 
C 34.59375 30.734375 41.703125 37.53125 41.703125 47.421875 
C 41.703125 59.21875 32.296875 66 21.796875 66 
C 10.796875 66 4.09375 56.3125 4.09375 47.34375 
C 4.09375 43.4375 7 42.9375 8.203125 42.9375 
C 9.203125 42.9375 12.203125 43.546875 12.203125 47.03125 
C 12.203125 50.109375 9.59375 51 8.203125 51 
C 7.59375 51 7 50.90625 6.59375 50.703125 
C 8.5 59.21875 14.296875 63.40625 20.40625 63.40625 
C 29.09375 63.40625 34.796875 56.515625 34.796875 47.421875 
C 34.796875 38.734375 29.703125 31.25 24 24.75 
L 4.09375 2.28125 
L 4.09375 0 
L 39.296875 0 
z
" id="CMR17-50"/>
    </defs>
    <g transform="translate(53.760477 63.670536)scale(0.16 -0.16)">
     <use transform="translate(0 14.943915)scale(0.996264)" xlink:href="#CMMI12-120"/>
     <use transform="translate(55.43406 0)scale(0.697382)" xlink:href="#CMR17-50"/>
    </g>
   </g>
   <g id="text_3">
    <!-- $x_{3}$ -->
    <defs>
     <path d="M 22.09375 33.703125 
C 31 33.703125 34.90625 25.96875 34.90625 17.03125 
C 34.90625 5 28.5 0.390625 22.703125 0.390625 
C 17.40625 0.390625 8.796875 3.03125 6.09375 10.828125 
C 6.59375 10.625 7.09375 10.625 7.59375 10.625 
C 10 10.625 11.796875 12.21875 11.796875 14.8125 
C 11.796875 17.703125 9.59375 19 7.59375 19 
C 5.90625 19 3.296875 18.203125 3.296875 14.46875 
C 3.296875 5.234375 12.296875 -2 22.90625 -2 
C 34 -2 42.5 6.71875 42.5 16.953125 
C 42.5 26.671875 34.5 33.703125 25 34.796875 
C 32.59375 36.375 39.90625 43.0625 39.90625 52.015625 
C 39.90625 59.6875 32 65.296875 23 65.296875 
C 13.90625 65.296875 5.90625 59.828125 5.90625 52.015625 
C 5.90625 48.59375 8.5 48 9.796875 48 
C 11.90625 48 13.703125 49.296875 13.703125 51.890625 
C 13.703125 54.46875 11.90625 55.765625 9.796875 55.765625 
C 9.40625 55.765625 8.90625 55.765625 8.5 55.578125 
C 11.40625 61.859375 19.296875 63 22.796875 63 
C 26.296875 63 32.90625 61.328125 32.90625 51.875 
C 32.90625 49.109375 32.5 44.1875 29.09375 39.84375 
C 26.09375 36 22.703125 36 19.40625 35.6875 
C 18.90625 35.6875 16.59375 35.453125 16.203125 35.453125 
C 15.5 35.359375 15.09375 35.265625 15.09375 34.5 
C 15.09375 33.796875 15.203125 33.703125 17.203125 33.703125 
z
" id="CMR17-51"/>
    </defs>
    <g transform="translate(103.475741 43.210656)scale(0.16 -0.16)">
     <use transform="translate(0 14.943915)scale(0.996264)" xlink:href="#CMMI12-120"/>
     <use transform="translate(55.43406 0)scale(0.697382)" xlink:href="#CMR17-51"/>
    </g>
   </g>
   <g id="text_4">
    <!-- $x_{4}$ -->
    <defs>
     <path d="M 33.59375 64.40625 
C 33.59375 66.5 33.5 66.5 31.703125 66.5 
L 2 19.59375 
L 2 17 
L 27.796875 17 
L 27.796875 7.140625 
C 27.796875 3.5 27.59375 2.5 20.59375 2.5 
L 18.703125 2.5 
L 18.703125 0 
C 21.90625 0 27.296875 0 30.703125 0 
C 34.09375 0 39.5 0 42.703125 0 
L 42.703125 2.5 
L 40.796875 2.5 
C 33.796875 2.5 33.59375 3.5 33.59375 7.140625 
L 33.59375 17 
L 43.796875 17 
L 43.796875 19.59375 
L 33.59375 19.59375 
z
M 28.09375 57.859375 
L 28.09375 19.59375 
L 4 19.59375 
z
" id="CMR17-52"/>
    </defs>
    <g transform="translate(153.191004 63.670536)scale(0.16 -0.16)">
     <use transform="translate(0 14.943915)scale(0.996264)" xlink:href="#CMMI12-120"/>
     <use transform="translate(55.43406 0)scale(0.697382)" xlink:href="#CMR17-52"/>
    </g>
   </g>
   <g id="text_5">
    <!-- $x_{5}$ -->
    <defs>
     <path d="M 11.40625 57.6875 
C 12.40625 57.28125 16.5 56 20.703125 56 
C 30 56 35.09375 61.109375 38 64.0625 
C 38 64.953125 38 65.5 37.40625 65.5 
C 37.296875 65.5 37.09375 65.5 36.296875 65.046875 
C 32.796875 63.40625 28.703125 62.078125 23.703125 62.078125 
C 20.703125 62.078125 16.203125 62.484375 11.296875 64.671875 
C 10.203125 65.171875 10 65.171875 9.90625 65.171875 
C 9.40625 65.171875 9.296875 65.0625 9.296875 63.078125 
L 9.296875 34.421875 
C 9.296875 32.640625 9.296875 32.140625 10.296875 32.140625 
C 10.796875 32.140625 11 32.34375 11.5 33.03125 
C 14.703125 37.515625 19.09375 39.40625 24.09375 39.40625 
C 27.59375 39.40625 35.09375 37.21875 35.09375 20.140625 
C 35.09375 16.953125 35.09375 11.171875 32.09375 6.578125 
C 29.59375 2.484375 25.703125 0.390625 21.40625 0.390625 
C 14.796875 0.390625 8.09375 5 6.296875 12.71875 
C 6.703125 12.609375 7.5 12.421875 7.90625 12.421875 
C 9.203125 12.421875 11.703125 13.125 11.703125 16.21875 
C 11.703125 18.90625 9.796875 20 7.90625 20 
C 5.59375 20 4.09375 18.59375 4.09375 15.796875 
C 4.09375 7.09375 11 -2 21.59375 -2 
C 31.90625 -2 41.703125 6.875 41.703125 19.75 
C 41.703125 31.71875 33.90625 41 24.203125 41 
C 19.09375 41 14.796875 39.109375 11.40625 35.53125 
z
" id="CMR17-53"/>
    </defs>
    <g transform="translate(173.783741 113.065056)scale(0.16 -0.16)">
     <use transform="translate(0 14.943915)scale(0.996264)" xlink:href="#CMMI12-120"/>
     <use transform="translate(55.43406 0)scale(0.697382)" xlink:href="#CMR17-53"/>
    </g>
   </g>
   <g id="text_6">
    <!-- $x_{6}$ -->
    <defs>
     <path d="M 10.59375 34 
C 10.59375 57.65625 21.796875 63 28.296875 63 
C 30.40625 63 35.5 62.640625 37.5 59 
C 35.90625 59 32.90625 59 32.90625 55.515625 
C 32.90625 52.828125 35.09375 51.921875 36.5 51.921875 
C 37.40625 51.921875 40.09375 52.3125 40.09375 55.625 
C 40.09375 61.78125 35.09375 65.296875 28.203125 65.296875 
C 16.296875 65.296875 3.796875 52.96875 3.796875 31 
C 3.796875 3.953125 15.09375 -2 23.09375 -2 
C 32.796875 -2 42 6.671875 42 20.046875 
C 42 32.515625 33.90625 41.59375 23.703125 41.59375 
C 17.59375 41.59375 13.09375 37.609375 10.59375 30.625 
z
M 23.09375 0.390625 
C 10.796875 0.390625 10.796875 18.75 10.796875 22.4375 
C 10.796875 29.625 14.203125 40 23.5 40 
C 25.203125 40 30.09375 40 33.40625 33.125 
C 35.203125 29.21875 35.203125 25.140625 35.203125 20.140625 
C 35.203125 14.75 35.203125 10.78125 33.09375 6.78125 
C 30.90625 2.671875 27.703125 0.390625 23.09375 0.390625 
z
" id="CMR17-54"/>
    </defs>
    <g transform="translate(153.191004 162.459576)scale(0.16 -0.16)">
     <use transform="translate(0 14.943915)scale(0.996264)" xlink:href="#CMMI12-120"/>
     <use transform="translate(55.43406 0)scale(0.697382)" xlink:href="#CMR17-54"/>
    </g>
   </g>
   <g id="text_7">
    <!-- $x_{7}$ -->
    <defs>
     <path d="M 45.09375 61.578125 
L 45.09375 63.765625 
L 21.59375 63.765625 
C 9.90625 63.765625 9.703125 65.078125 9.296875 67 
L 7.5 67 
L 4.59375 48.34375 
L 6.40625 48.34375 
C 6.703125 50.234375 7.40625 55.3125 8.59375 57.203125 
C 9.203125 58 16.59375 58 18.296875 58 
L 40.296875 58 
L 29.203125 41.578125 
C 21.796875 30.53125 16.703125 15.609375 16.703125 2.578125 
C 16.703125 1.390625 16.703125 -2 20.296875 -2 
C 23.90625 -2 23.90625 1.390625 23.90625 2.671875 
L 23.90625 7.265625 
C 23.90625 23.5625 26.703125 34.3125 31.296875 41.1875 
z
" id="CMR17-55"/>
    </defs>
    <g transform="translate(103.475741 182.919456)scale(0.16 -0.16)">
     <use transform="translate(0 14.943915)scale(0.996264)" xlink:href="#CMMI12-120"/>
     <use transform="translate(55.43406 0)scale(0.697382)" xlink:href="#CMR17-55"/>
    </g>
   </g>
   <g id="text_8">
    <!-- $x_{8}$ -->
    <defs>
     <path d="M 27.203125 35.375 
C 33.5 38.546875 39.90625 43.328125 39.90625 50.984375 
C 39.90625 60.015625 31.09375 65.296875 23 65.296875 
C 13.90625 65.296875 5.90625 58.734375 5.90625 49.6875 
C 5.90625 47.203125 6.5 42.921875 10.40625 39.140625 
C 11.40625 38.15625 15.59375 35.171875 18.296875 33.28125 
C 13.796875 30.984375 3.296875 25.53125 3.296875 14.59375 
C 3.296875 4.359375 13.09375 -2 22.796875 -2 
C 33.5 -2 42.5 5.65625 42.5 15.78125 
C 42.5 24.84375 36.40625 29.015625 32.40625 31.703125 
z
M 14.09375 44.09375 
C 13.296875 44.59375 9.296875 47.671875 9.296875 52.359375 
C 9.296875 58.421875 15.59375 63 22.796875 63 
C 30.703125 63 36.5 57.4375 36.5 50.96875 
C 36.5 41.703125 26.09375 36.421875 25.59375 36.421875 
C 25.5 36.421875 25.40625 36.421875 24.59375 37.03125 
z
M 32.5 23.734375 
C 34 22.640625 38.796875 19.375 38.796875 13.296875 
C 38.796875 5.953125 31.40625 0.390625 23 0.390625 
C 13.90625 0.390625 7 6.84375 7 14.6875 
C 7 22.546875 13.09375 29.09375 20 32.1875 
z
" id="CMR17-56"/>
    </defs>
    <g transform="translate(53.760477 162.459576)scale(0.16 -0.16)">
     <use transform="translate(0 14.943915)scale(0.996264)" xlink:href="#CMMI12-120"/>
     <use transform="translate(55.43406 0)scale(0.697382)" xlink:href="#CMR17-56"/>
    </g>
   </g>
  </g>
 </g>
 <defs>
  <clipPath id="p56b3d83727">
   <rect height="166.32" width="167.4" x="27" y="25.92"/>
  </clipPath>
 </defs>
</svg>
