<?xml version="1.0" encoding="utf-8" standalone="no"?>
<!DOCTYPE svg PUBLIC "-//W3C//DTD SVG 1.1//EN"
  "http://www.w3.org/Graphics/SVG/1.1/DTD/svg11.dtd">
<!-- Created with matplotlib (https://matplotlib.org/) -->
<svg height="216pt" version="1.1" viewBox="0 0 216 216" width="216pt" xmlns="http://www.w3.org/2000/svg" xmlns:xlink="http://www.w3.org/1999/xlink">
 <defs>
  <style type="text/css">
*{stroke-linecap:butt;stroke-linejoin:round;}
  </style>
 </defs>
 <g id="figure_1">
  <g id="patch_1">
   <path d="M 0 216 
L 216 216 
L 216 0 
L 0 0 
z
" style="fill:none;"/>
  </g>
  <g id="axes_1">
   <g id="patch_2">
    <path clip-path="url(#pfd48d073d4)" d="M 73.872 128.09293 
C 78.94703 128.09293 83.814883 126.089607 87.403471 122.524171 
C 90.992059 118.958735 93.00839 114.122288 93.00839 109.08 
C 93.00839 104.037712 90.992059 99.201265 87.403471 95.635829 
C 83.814883 92.070393 78.94703 90.06707 73.872 90.06707 
C 68.79697 90.06707 63.929117 92.070393 60.340529 95.635829 
C 56.751941 99.201265 54.73561 104.037712 54.73561 109.08 
C 54.73561 114.122288 56.751941 118.958735 60.340529 122.524171 
C 63.929117 126.089607 68.79697 128.09293 73.872 128.09293 
z
" style="fill:#0000ff;opacity:0.3;stroke:#0000ff;stroke-linejoin:miter;"/>
   </g>
   <g id="patch_3">
    <path clip-path="url(#pfd48d073d4)" d="M 43.20327 90.187689 
Q 46.140896 92.554403 49.375649 94.400155 
L 50.490742 92.445912 
Q 52.547573 95.791453 55.41468 98.89981 
Q 51.20841 99.318556 46.773766 98.960057 
L 47.888859 97.005813 
Q 44.445655 95.041119 41.32114 92.523837 
L 43.20327 90.187689 
z
" style="fill:#0000ff;opacity:0.5;stroke:#0000ff;stroke-linecap:round;"/>
   </g>
   <g id="patch_4">
    <path clip-path="url(#pfd48d073d4)" d="M 129.114 96.404714 
C 134.18903 96.404714 139.056883 94.401391 142.645471 90.835955 
C 146.234059 87.27052 148.25039 82.434072 148.25039 77.391784 
C 148.25039 72.349496 146.234059 67.513049 142.645471 63.947613 
C 139.056883 60.382177 134.18903 58.378855 129.114 58.378855 
C 124.03897 58.378855 119.171117 60.382177 115.582529 63.947613 
C 111.993941 67.513049 109.97761 72.349496 109.97761 77.391784 
C 109.97761 82.434072 111.993941 87.27052 115.582529 90.835955 
C 119.171117 94.401391 124.03897 96.404714 129.114 96.404714 
z
" style="fill:#0000ff;opacity:0.3;stroke:#0000ff;stroke-linejoin:miter;"/>
   </g>
   <g id="patch_5">
    <path clip-path="url(#pfd48d073d4)" d="M 127.98611 56.171264 
Q 128.569641 52.48959 128.564603 48.809384 
L 126.314605 48.812463 
Q 128.196424 45.366936 129.466823 41.333696 
Q 131.922551 44.774091 133.814598 48.802198 
L 131.564601 48.805278 
Q 131.569964 52.723819 130.949123 56.64089 
L 127.98611 56.171264 
z
" style="fill:#0000ff;opacity:0.5;stroke:#0000ff;stroke-linecap:round;"/>
   </g>
   <g id="patch_6">
    <path clip-path="url(#pfd48d073d4)" d="M 129.114 159.781145 
C 134.18903 159.781145 139.056883 157.777823 142.645471 154.212387 
C 146.234059 150.646951 148.25039 145.810504 148.25039 140.768216 
C 148.25039 135.725928 146.234059 130.88948 142.645471 127.324045 
C 139.056883 123.758609 134.18903 121.755286 129.114 121.755286 
C 124.03897 121.755286 119.171117 123.758609 115.582529 127.324045 
C 111.993941 130.88948 109.97761 135.725928 109.97761 140.768216 
C 109.97761 145.810504 111.993941 150.646951 115.582529 154.212387 
C 119.171117 157.777823 124.03897 159.781145 129.114 159.781145 
z
" style="fill:#0000ff;opacity:0.3;stroke:#0000ff;stroke-linejoin:miter;"/>
   </g>
   <g id="patch_7">
    <path clip-path="url(#pfd48d073d4)" d="M 148.16307 150.395299 
Q 151.100696 152.762013 154.335449 154.607766 
L 155.450542 152.653522 
Q 157.507373 155.999064 160.37448 159.107421 
Q 156.16821 159.526166 151.733566 159.167667 
L 152.848659 157.213424 
Q 149.405455 155.248729 146.28094 152.731448 
L 148.16307 150.395299 
z
" style="fill:#0000ff;opacity:0.5;stroke:#0000ff;stroke-linecap:round;"/>
   </g>
   <g id="patch_8">
    <path clip-path="url(#pfd48d073d4)" d="M 93.205147 100.262376 
Q 100.219895 98.054428 106.485005 94.387366 
L 105.348425 92.44554 
Q 109.336373 92.290816 113.490217 91.535319 
Q 111.589577 95.303297 109.137023 98.918293 
L 108.000444 96.976467 
Q 101.443335 100.81444 94.105857 103.12397 
L 93.205147 100.262376 
z
" style="fill:#ff0000;opacity:0.5;stroke:#ff0000;stroke-linecap:round;"/>
   </g>
   <g id="patch_9">
    <path clip-path="url(#pfd48d073d4)" d="M 91.213859 121.299878 
Q 96.656023 126.236087 102.978174 129.790369 
L 104.080807 127.829068 
Q 106.227763 131.193925 108.977545 134.398546 
Q 104.76476 134.659719 100.405363 134.366737 
L 101.507996 132.405436 
Q 94.891028 128.68541 89.198349 123.521976 
L 91.213859 121.299878 
z
" style="fill:#ff0000;opacity:0.5;stroke:#ff0000;stroke-linecap:round;"/>
   </g>
   <g id="text_1">
    <!-- $C$ -->
    <defs>
     <path d="M 69.484375 67.28125 
L 67.484375 56.890625 
Q 62.796875 61.625 57.546875 63.921875 
Q 52.296875 66.21875 46.1875 66.21875 
Q 37.84375 66.21875 31.515625 62.203125 
Q 25.203125 58.203125 20.609375 50 
Q 17.671875 44.734375 16.125 38.84375 
Q 14.59375 32.953125 14.59375 27 
Q 14.59375 17.046875 19.75 11.8125 
Q 24.90625 6.59375 34.71875 6.59375 
Q 41.5 6.59375 47.75 8.765625 
Q 54 10.9375 59.90625 15.28125 
L 57.625 3.609375 
Q 51.8125 1.125 45.875 -0.140625 
Q 39.9375 -1.421875 33.984375 -1.421875 
Q 19.96875 -1.421875 12.078125 6.1875 
Q 4.203125 13.8125 4.203125 27.390625 
Q 4.203125 36.078125 7.203125 44.46875 
Q 10.203125 52.875 15.828125 59.8125 
Q 21.78125 67.1875 29.421875 70.703125 
Q 37.0625 74.21875 47.21875 74.21875 
Q 53.46875 74.21875 59.0625 72.484375 
Q 64.65625 70.75 69.484375 67.28125 
z
" id="DejaVuSans-Oblique-67"/>
    </defs>
    <g transform="translate(68.272 113.495)scale(0.16 -0.16)">
     <use transform="translate(0 0.78125)" xlink:href="#DejaVuSans-Oblique-67"/>
    </g>
   </g>
   <g id="text_2">
    <!-- $X$ -->
    <defs>
     <path d="M 13.71875 72.90625 
L 23.6875 72.90625 
L 36.1875 46.578125 
L 58.796875 72.90625 
L 70.3125 72.90625 
L 40.28125 38.09375 
L 58.40625 0 
L 48.484375 0 
L 33.796875 30.71875 
L 7.171875 0 
L -4.296875 0 
L 29.78125 39.203125 
z
" id="DejaVuSans-Oblique-88"/>
    </defs>
    <g transform="translate(123.594 81.806784)scale(0.16 -0.16)">
     <use transform="translate(0 0.09375)" xlink:href="#DejaVuSans-Oblique-88"/>
    </g>
   </g>
   <g id="text_3">
    <!-- $L$ -->
    <defs>
     <path d="M 16.796875 72.90625 
L 26.703125 72.90625 
L 14.203125 8.203125 
L 49.703125 8.203125 
L 48.09375 0 
L 2.6875 0 
z
" id="DejaVuSans-Oblique-76"/>
    </defs>
    <g transform="translate(124.634 145.183216)scale(0.16 -0.16)">
     <use transform="translate(0 0.09375)" xlink:href="#DejaVuSans-Oblique-76"/>
    </g>
   </g>
  </g>
 </g>
 <defs>
  <clipPath id="pfd48d073d4">
   <rect height="166.32" width="167.4" x="27" y="25.92"/>
  </clipPath>
 </defs>
</svg>
