<?xml version="1.0" encoding="utf-8" standalone="no"?>
<!DOCTYPE svg PUBLIC "-//W3C//DTD SVG 1.1//EN"
  "http://www.w3.org/Graphics/SVG/1.1/DTD/svg11.dtd">
<!-- Created with matplotlib (http://matplotlib.org/) -->
<svg height="216pt" version="1.1" viewBox="0 0 216 216" width="216pt" xmlns="http://www.w3.org/2000/svg" xmlns:xlink="http://www.w3.org/1999/xlink">
 <defs>
  <style type="text/css">
*{stroke-linecap:butt;stroke-linejoin:round;}
  </style>
 </defs>
 <g id="figure_1">
  <g id="patch_1">
   <path d="M 0 216 
L 216 216 
L 216 0 
L 0 0 
z
" style="fill:none;"/>
  </g>
  <g id="axes_1">
   <g id="patch_2">
    <path clip-path="url(#pfd7a59a39a)" d="M 47.088 119.0592 
C 49.7517 119.0592 52.30666 118.007729 54.190181 116.13636 
C 56.073701 114.264991 57.132 111.726515 57.132 109.08 
C 57.132 106.433485 56.073701 103.895009 54.190181 102.02364 
C 52.30666 100.152271 49.7517 99.1008 47.088 99.1008 
C 44.4243 99.1008 41.86934 100.152271 39.985819 102.02364 
C 38.102299 103.895009 37.044 106.433485 37.044 109.08 
C 37.044 111.726515 38.102299 114.264991 39.985819 116.13636 
C 41.86934 118.007729 44.4243 119.0592 47.088 119.0592 
z
" style="fill:#0000ff;opacity:0.3;stroke:#0000ff;stroke-linejoin:miter;"/>
   </g>
   <g id="patch_3">
    <path clip-path="url(#pfd7a59a39a)" d="M 31.069895 97.005326 
Q 33.792765 100.193445 36.515636 103.381563 
Q 32.331418 103.646988 28.147201 103.912414 
z
" style="fill:#0000ff;opacity:0.5;stroke:#0000ff;stroke-linecap:round;"/>
   </g>
   <g id="patch_4">
    <path clip-path="url(#pfd7a59a39a)" d="M 71.038567 69.646199 
C 73.702267 69.646199 76.257227 68.594728 78.140747 66.723359 
C 80.024268 64.851991 81.082567 62.313514 81.082567 59.666999 
C 81.082567 57.020485 80.024268 54.482008 78.140747 52.610639 
C 76.257227 50.739271 73.702267 49.687799 71.038567 49.687799 
C 68.374867 49.687799 65.819907 50.739271 63.936386 52.610639 
C 62.052866 54.482008 60.994567 57.020485 60.994567 59.666999 
C 60.994567 62.313514 62.052866 64.851991 63.936386 66.723359 
C 65.819907 68.594728 68.374867 69.646199 71.038567 69.646199 
z
" style="fill:#0000ff;opacity:0.3;stroke:#0000ff;stroke-linejoin:miter;"/>
   </g>
   <g id="patch_5">
    <path clip-path="url(#pfd7a59a39a)" d="M 124.855002 57.442196 
C 127.518702 57.442196 130.073662 56.390725 131.957182 54.519356 
C 133.840702 52.647988 134.899002 50.109511 134.899002 47.462996 
C 134.899002 44.816481 133.840702 42.278005 131.957182 40.406636 
C 130.073662 38.535268 127.518702 37.483796 124.855002 37.483796 
C 122.191302 37.483796 119.636341 38.535268 117.752821 40.406636 
C 115.869301 42.278005 114.811002 44.816481 114.811002 47.462996 
C 114.811002 50.109511 115.869301 52.647988 117.752821 54.519356 
C 119.636341 56.390725 122.191302 57.442196 124.855002 57.442196 
z
" style="fill:#0000ff;opacity:0.3;stroke:#0000ff;stroke-linejoin:miter;"/>
   </g>
   <g id="patch_6">
    <path clip-path="url(#pfd7a59a39a)" d="M 168.012432 91.637053 
C 170.676132 91.637053 173.231092 90.585582 175.114612 88.714213 
C 176.998132 86.842845 178.056432 84.304368 178.056432 81.657853 
C 178.056432 79.011339 176.998132 76.472862 175.114612 74.601493 
C 173.231092 72.730125 170.676132 71.678653 168.012432 71.678653 
C 165.348732 71.678653 162.793771 72.730125 160.910251 74.601493 
C 159.026731 76.472862 157.968432 79.011339 157.968432 81.657853 
C 157.968432 84.304368 159.026731 86.842845 160.910251 88.714213 
C 162.793771 90.585582 165.348732 91.637053 168.012432 91.637053 
z
" style="fill:#0000ff;opacity:0.3;stroke:#0000ff;stroke-linejoin:miter;"/>
   </g>
   <g id="patch_7">
    <path clip-path="url(#pfd7a59a39a)" d="M 171.675715 71.891222 
Q 175.07327 69.434652 178.470826 66.978081 
Q 178.397549 71.170068 178.324273 75.362055 
z
" style="fill:#008000;opacity:0.5;stroke:#008000;stroke-linecap:round;"/>
   </g>
   <g id="patch_8">
    <path clip-path="url(#pfd7a59a39a)" d="M 168.012432 146.481347 
C 170.676132 146.481347 173.231092 145.429875 175.114612 143.558507 
C 176.998132 141.687138 178.056432 139.148661 178.056432 136.502147 
C 178.056432 133.855632 176.998132 131.317155 175.114612 129.445787 
C 173.231092 127.574418 170.676132 126.522947 168.012432 126.522947 
C 165.348732 126.522947 162.793771 127.574418 160.910251 129.445787 
C 159.026731 131.317155 157.968432 133.855632 157.968432 136.502147 
C 157.968432 139.148661 159.026731 141.687138 160.910251 143.558507 
C 162.793771 145.429875 165.348732 146.481347 168.012432 146.481347 
z
" style="fill:#0000ff;opacity:0.3;stroke:#0000ff;stroke-linejoin:miter;"/>
   </g>
   <g id="patch_9">
    <path clip-path="url(#pfd7a59a39a)" d="M 177.191286 154.306442 
Q 176.121323 150.252641 175.051359 146.19884 
Q 178.936378 147.77515 182.821397 149.35146 
z
" style="fill:#0000ff;opacity:0.5;stroke:#0000ff;stroke-linecap:round;"/>
   </g>
   <g id="patch_10">
    <path clip-path="url(#pfd7a59a39a)" d="M 124.855002 180.676204 
C 127.518702 180.676204 130.073662 179.624732 131.957182 177.753364 
C 133.840702 175.881995 134.899002 173.343519 134.899002 170.697004 
C 134.899002 168.050489 133.840702 165.512012 131.957182 163.640644 
C 130.073662 161.769275 127.518702 160.717804 124.855002 160.717804 
C 122.191302 160.717804 119.636341 161.769275 117.752821 163.640644 
C 115.869301 165.512012 114.811002 168.050489 114.811002 170.697004 
C 114.811002 173.343519 115.869301 175.881995 117.752821 177.753364 
C 119.636341 179.624732 122.191302 180.676204 124.855002 180.676204 
z
" style="fill:#0000ff;opacity:0.3;stroke:#0000ff;stroke-linejoin:miter;"/>
   </g>
   <g id="patch_11">
    <path clip-path="url(#pfd7a59a39a)" d="M 71.038567 168.472201 
C 73.702267 168.472201 76.257227 167.420729 78.140747 165.549361 
C 80.024268 163.677992 81.082567 161.139515 81.082567 158.493001 
C 81.082567 155.846486 80.024268 153.308009 78.140747 151.436641 
C 76.257227 149.565272 73.702267 148.513801 71.038567 148.513801 
C 68.374867 148.513801 65.819907 149.565272 63.936386 151.436641 
C 62.052866 153.308009 60.994567 155.846486 60.994567 158.493001 
C 60.994567 161.139515 62.052866 163.677992 63.936386 165.549361 
C 65.819907 167.420729 68.374867 168.472201 71.038567 168.472201 
z
" style="fill:#0000ff;opacity:0.3;stroke:#0000ff;stroke-linejoin:miter;"/>
   </g>
   <g id="patch_12">
    <path clip-path="url(#pfd7a59a39a)" d="M 52.809039 98.389627 
Q 59.899457 88.804745 64.139751 77.806527 
L 62.040377 76.997126 
Q 65.079671 74.335217 67.944307 71.240103 
Q 68.684878 75.390559 69.038291 79.695128 
L 66.938917 78.885727 
Q 62.552629 90.262616 55.220853 100.173766 
L 52.809039 98.389627 
z
" style="fill:#008000;opacity:0.5;stroke:#008000;stroke-linecap:round;"/>
   </g>
   <g id="patch_13">
    <path clip-path="url(#pfd7a59a39a)" d="M 83.005294 156.266314 
Q 117.499855 155.130591 149.444356 142.642756 
L 148.625151 140.547188 
Q 152.72562 140.958057 156.921898 141.18464 
Q 154.216802 144.400159 151.355835 147.532413 
L 150.53663 145.436845 
Q 118.112872 158.112033 83.104015 159.264689 
L 83.005294 156.266314 
z
" style="fill:#0000ff;opacity:0.5;stroke:#0000ff;stroke-linecap:round;"/>
   </g>
   <g id="patch_14">
    <path clip-path="url(#pfd7a59a39a)" d="M 134.669514 163.533674 
Q 145.262803 157.958912 153.892612 149.859862 
L 152.352874 148.21922 
Q 156.246661 147.140747 160.171191 145.597512 
Q 159.035479 149.657387 157.485334 153.688028 
L 155.945596 152.047385 
Q 147.019497 160.424502 136.066625 166.188496 
L 134.669514 163.533674 
z
" style="fill:#0000ff;opacity:0.5;stroke:#0000ff;stroke-linecap:round;"/>
   </g>
   <g id="patch_15">
    <path clip-path="url(#pfd7a59a39a)" d="M 158.187891 88.829315 
Q 116.553772 110.431452 85.100272 144.915058 
L 86.762621 146.431335 
Q 82.890552 147.893586 79.014294 149.515105 
Q 80.050741 145.443416 81.221458 141.377078 
L 82.883807 142.893355 
Q 114.697578 108.014771 156.80623 86.166419 
L 158.187891 88.829315 
z
" style="fill:#0000ff;opacity:0.5;stroke:#0000ff;stroke-linecap:round;"/>
   </g>
   <g id="patch_16">
    <path clip-path="url(#pfd7a59a39a)" d="M 156.040167 83.884218 
Q 109.040412 85.367777 65.662453 102.913569 
L 66.506143 104.999399 
Q 62.382866 104.644249 58.187133 104.430559 
Q 60.881251 101.207247 63.693843 98.046632 
L 64.537533 100.132462 
Q 108.411251 82.386143 155.945519 80.885711 
L 156.040167 83.884218 
z
" style="fill:#0000ff;opacity:0.5;stroke:#0000ff;stroke-linecap:round;"/>
   </g>
   <g id="patch_17">
    <path clip-path="url(#pfd7a59a39a)" d="M 80.25104 67.579096 
Q 110.800554 103.169915 151.562138 125.90453 
L 152.658122 123.939506 
Q 154.96698 127.374593 157.431844 130.777339 
Q 153.23109 130.69943 149.004841 130.489585 
L 150.100826 128.524562 
Q 108.872347 105.529538 77.974633 69.533059 
L 80.25104 67.579096 
z
" style="fill:#008000;opacity:0.5;stroke:#008000;stroke-linecap:round;"/>
   </g>
   <g id="patch_18">
    <path clip-path="url(#pfd7a59a39a)" d="M 168.499298 124.409411 
Q 170.695282 112.713704 169.717887 100.989313 
L 167.475664 101.176234 
Q 169.050432 97.457576 170.279024 93.42501 
Q 172.755021 96.835191 174.949738 100.553163 
L 172.707516 100.740084 
Q 173.718607 112.868675 171.447775 124.963016 
L 168.499298 124.409411 
z
" style="fill:#008000;opacity:0.5;stroke:#008000;stroke-linecap:round;"/>
   </g>
   <g id="patch_19">
    <path clip-path="url(#pfd7a59a39a)" d="M 58.840936 112.233819 
Q 101.882818 131.169018 148.585753 134.051012 
L 148.724335 131.805284 
Q 152.291049 133.904305 155.984152 135.90696 
Q 152.163193 137.652837 148.262395 139.291045 
L 148.400977 137.045317 
Q 101.164279 134.130385 57.632893 114.97984 
L 58.840936 112.233819 
z
" style="fill:#008000;opacity:0.5;stroke:#008000;stroke-linecap:round;"/>
   </g>
   <g id="patch_20">
    <path clip-path="url(#pfd7a59a39a)" d="M 163.168395 125.401688 
Q 154.305863 92.256525 135.0344 64.130209 
L 133.178294 65.401967 
Q 132.649626 61.312032 131.918452 57.170214 
Q 135.665007 59.080601 139.365315 61.162772 
L 137.509209 62.434531 
Q 157.071252 90.984944 166.06658 124.626756 
L 163.168395 125.401688 
z
" style="fill:#008000;opacity:0.5;stroke:#008000;stroke-linecap:round;"/>
   </g>
   <g id="patch_21">
    <path clip-path="url(#pfd7a59a39a)" d="M 167.525566 93.750589 
Q 165.329582 105.446296 166.306977 117.170687 
L 168.549199 116.983766 
Q 166.974431 120.702424 165.745839 124.73499 
Q 163.269842 121.324809 161.075125 117.606837 
L 163.317347 117.419916 
Q 162.306256 105.291325 164.577088 93.196984 
L 167.525566 93.750589 
z
" style="fill:#0000ff;opacity:0.5;stroke:#0000ff;stroke-linecap:round;"/>
   </g>
   <g id="patch_22">
    <path clip-path="url(#pfd7a59a39a)" d="M 129.699039 58.563454 
Q 138.561571 91.708617 157.833033 119.834934 
L 159.689139 118.563176 
Q 160.217807 122.65311 160.948982 126.794929 
Q 157.202426 124.884541 153.502118 122.802371 
L 155.358225 121.530612 
Q 135.796182 92.980199 126.800853 59.338387 
L 129.699039 58.563454 
z
" style="fill:#0000ff;opacity:0.5;stroke:#0000ff;stroke-linecap:round;"/>
   </g>
   <g id="patch_23">
    <path clip-path="url(#pfd7a59a39a)" d="M 162.292773 92.351595 
Q 141.764423 119.843152 131.624527 152.396392 
L 133.772726 153.065527 
Q 130.889691 156.014387 128.091389 159.154356 
Q 127.269975 155.029775 126.612063 150.835077 
L 128.760262 151.504212 
Q 139.053046 118.460136 159.888988 90.556653 
L 162.292773 92.351595 
z
" style="fill:#0000ff;opacity:0.5;stroke:#0000ff;stroke-linecap:round;"/>
   </g>
   <g id="text_1">
    <!-- $P$ -->
    <defs>
     <path d="M 29.59375 31.609375 
L 46.40625 31.609375 
C 60.203125 31.609375 74 41.765625 74 53.140625 
C 74 60.90625 67.40625 68 54.796875 68 
L 23.90625 68 
C 22 68 21.09375 68 21.09375 66.109375 
C 21.09375 65.109375 22 65.109375 23.5 65.109375 
C 29.59375 65.109375 29.59375 64.3125 29.59375 63.21875 
C 29.59375 63.03125 29.59375 62.421875 29.203125 60.921875 
L 15.703125 7.375 
C 14.796875 3.890625 14.59375 2.890625 7.59375 2.890625 
C 5.703125 2.890625 4.703125 2.890625 4.703125 1.09375 
C 4.703125 0 5.59375 0 6.203125 0 
C 8.09375 0 10.09375 0 12 0 
L 23.703125 0 
C 25.59375 0 27.703125 0 29.59375 0 
C 30.40625 0 31.5 0 31.5 1.890625 
C 31.5 2.890625 30.59375 2.890625 29.09375 2.890625 
C 23.09375 2.890625 23 3.59375 23 4.578125 
C 23 5.078125 23.09375 5.765625 23.203125 6.265625 
z
M 36.796875 61.40625 
C 37.703125 65.109375 38.09375 65.109375 42 65.109375 
L 51.90625 65.109375 
C 59.40625 65.109375 65.59375 62.703125 65.59375 55.234375 
C 65.59375 52.640625 64.296875 44.171875 59.703125 39.59375 
C 58 37.796875 53.203125 34 44.09375 34 
L 30 34 
z
" id="CMMI12-80"/>
    </defs>
    <g transform="translate(42.057821 113.065056)scale(0.16 -0.16)">
     <use transform="scale(0.996264)" xlink:href="#CMMI12-80"/>
    </g>
   </g>
   <g id="text_2">
    <!-- $M$ -->
    <defs>
     <path d="M 90.796875 60.71875 
C 91.703125 64.109375 91.90625 65.109375 99 65.109375 
C 100.90625 65.109375 101.796875 65.109375 101.796875 67 
C 101.796875 68 101.09375 68 99.203125 68 
L 87.203125 68 
C 84.703125 68 84.59375 67.90625 83.5 66.296875 
L 47 8.78125 
L 39.5 65.796875 
C 39.203125 68 39.09375 68 36.5 68 
L 24.09375 68 
C 22.203125 68 21.296875 68 21.296875 66.109375 
C 21.296875 65.109375 22.203125 65.109375 23.703125 65.109375 
C 29.796875 65.109375 29.796875 64.3125 29.796875 63.21875 
C 29.796875 63.03125 29.796875 62.421875 29.40625 60.921875 
L 16.59375 9.90625 
C 15.40625 5.109375 13.09375 2.90625 6.40625 2.90625 
C 6.09375 2.90625 4.90625 2.90625 4.90625 1.140625 
C 4.90625 0 5.796875 0 6.203125 0 
C 8.203125 0 13.296875 0 15.296875 0 
L 20.09375 0 
C 21.5 0 23.203125 0 24.59375 0 
C 25.296875 0 26.40625 0 26.40625 1.90625 
C 26.40625 2.8125 25.40625 2.90625 25 2.90625 
C 21.703125 2.90625 18.5 3.5 18.5 7.09375 
C 18.5 8.09375 18.5 8.1875 18.90625 9.578125 
L 32.703125 64.515625 
L 32.796875 64.515625 
L 41.09375 2.6875 
C 41.40625 0.296875 41.5 0 42.40625 0 
C 43.5 0 44 0.796875 44.5 1.703125 
L 84.703125 65.015625 
L 84.796875 65.015625 
L 70.296875 7.390625 
C 69.40625 3.90625 69.203125 2.90625 62.203125 2.90625 
C 60.296875 2.90625 59.296875 2.90625 59.296875 1.09375 
C 59.296875 0 60.203125 0 60.796875 0 
C 62.5 0 64.5 0 66.203125 0 
L 78 0 
C 79.703125 0 81.796875 0 83.5 0 
C 84.296875 0 85.40625 0 85.40625 1.90625 
C 85.40625 2.90625 84.5 2.90625 83 2.90625 
C 76.90625 2.90625 76.90625 3.65625 76.90625 4.59375 
C 76.90625 4.703125 76.90625 5.390625 77.09375 6.1875 
z
" id="CMMI12-77"/>
    </defs>
    <g transform="translate(63.488693 63.652055)scale(0.16 -0.16)">
     <use transform="scale(0.996264)" xlink:href="#CMMI12-77"/>
    </g>
   </g>
   <g id="text_3">
    <!-- $Q$ -->
    <defs>
     <path d="M 42.59375 0.703125 
C 59.796875 7.65625 72.59375 25.984375 72.59375 44.203125 
C 72.59375 60.828125 61.796875 71 47.796875 71 
C 26.40625 71 4.796875 47.84375 4.796875 24.578125 
C 4.796875 8.765625 15.203125 -2 29.703125 -2 
C 33.09375 -2 36.40625 -1.5 39.59375 -0.515625 
C 39 -6.421875 39 -6.90625 39 -8.78125 
C 39 -11.625 39 -19 47 -19 
C 58.90625 -19 63.296875 -0.578125 63.296875 0.03125 
C 63.296875 0.609375 62.90625 1 62.40625 1 
C 61.796875 1 61.59375 0.53125 61.296875 -0.5625 
C 59.09375 -6.703125 53.90625 -10.21875 49.5 -10.21875 
C 44.40625 -10.21875 43.09375 -6.796875 42.59375 0.703125 
z
M 24.59375 1.203125 
C 16.703125 3.9375 12.90625 12.296875 12.90625 21.546875 
C 12.90625 28.609375 15.5 42.015625 22.09375 52.1875 
C 29.5 63.671875 39.40625 68.8125 47.203125 68.8125 
C 57.59375 68.8125 64.59375 60.34375 64.59375 47.25 
C 64.59375 39.796875 61.09375 14.8125 42.296875 3.75 
C 41.796875 8.921875 40.40625 15 33.796875 15 
C 28.40625 15 23.796875 9.515625 23.796875 4.546875 
C 23.796875 3.4375 24.203125 1.921875 24.59375 1.203125 
z
M 39.796875 2.4375 
C 36.203125 0.8125 33.09375 0.1875 30.296875 0.1875 
C 29.296875 0.1875 25.796875 0.1875 25.796875 4.65625 
C 25.796875 8.328125 29.296875 13 33.796875 13 
C 38.796875 13 39.90625 9.546875 39.90625 4.46875 
C 39.90625 3.84375 39.90625 3.03125 39.796875 2.4375 
z
" id="CMMI12-81"/>
    </defs>
    <g transform="translate(118.67417 51.448052)scale(0.16 -0.16)">
     <use transform="scale(0.996264)" xlink:href="#CMMI12-81"/>
    </g>
   </g>
   <g id="text_4">
    <!-- $B$ -->
    <defs>
     <path d="M 36.59375 61.265625 
C 37.5 65 37.90625 65 41.796875 65 
L 54.796875 65 
C 66.09375 65 66.09375 55.375 66.09375 54.453125 
C 66.09375 46.34375 58 36 44.796875 36 
L 30.40625 36 
z
M 53.5 35.546875 
C 64.40625 37.53125 74.296875 45.09375 74.296875 54.265625 
C 74.296875 62.03125 67.40625 68 56.09375 68 
L 24 68 
C 22.09375 68 21.203125 68 21.203125 66.03125 
C 21.203125 65 22.09375 65 23.59375 65 
C 29.703125 65 29.703125 64.25 29.703125 63.1875 
C 29.703125 63 29.703125 62.390625 29.296875 60.890625 
L 15.796875 7.375 
C 14.90625 3.890625 14.703125 2.890625 7.703125 2.890625 
C 5.796875 2.890625 4.796875 2.890625 4.796875 1.09375 
C 4.796875 0 5.40625 0 7.40625 0 
L 41.703125 0 
C 57 0 68.796875 11.546875 68.796875 21.609375 
C 68.796875 29.78125 61.59375 34.75 53.5 35.546875 
z
M 39.296875 2.890625 
L 25.796875 2.890625 
C 24.40625 2.890625 24.203125 2.890625 23.59375 3 
C 22.5 3.09375 22.40625 3.296875 22.40625 4.078125 
C 22.40625 4.765625 22.59375 5.359375 22.796875 6.234375 
L 29.796875 34 
L 48.59375 34 
C 60.40625 34 60.40625 23.171875 60.40625 22.390625 
C 60.40625 12.9375 51.703125 2.890625 39.296875 2.890625 
z
" id="CMMI12-66"/>
    </defs>
    <g transform="translate(162.08379 85.64291)scale(0.16 -0.16)">
     <use transform="scale(0.996264)" xlink:href="#CMMI12-66"/>
    </g>
   </g>
   <g id="text_5">
    <!-- $D$ -->
    <defs>
     <path d="M 15.703125 7.375 
C 14.796875 3.890625 14.59375 2.890625 7.59375 2.890625 
C 5.703125 2.890625 4.703125 2.890625 4.703125 1.09375 
C 4.703125 0 5.296875 0 7.296875 0 
L 39 0 
C 59.203125 0 78.90625 20.8125 78.90625 43.015625 
C 78.90625 57.359375 70.296875 68 56 68 
L 23.90625 68 
C 22 68 21.09375 68 21.09375 66.109375 
C 21.09375 65.109375 22 65.109375 23.5 65.109375 
C 29.59375 65.109375 29.59375 64.3125 29.59375 63.21875 
C 29.59375 63.03125 29.59375 62.421875 29.203125 60.921875 
z
M 36.796875 61.421875 
C 37.703125 65.109375 38.09375 65.109375 42 65.109375 
L 53 65.109375 
C 62.40625 65.109375 71 60.03125 71 46.296875 
C 71 41.3125 69 24 59.296875 13.046875 
C 56.5 9.765625 48.90625 2.890625 37.40625 2.890625 
L 26 2.890625 
C 24.59375 2.890625 24.40625 2.890625 23.796875 3 
C 22.703125 3.09375 22.59375 3.296875 22.59375 4.09375 
C 22.59375 4.796875 22.796875 5.390625 23 6.28125 
z
" id="CMMI12-68"/>
    </defs>
    <g transform="translate(161.532892 140.487203)scale(0.16 -0.16)">
     <use transform="scale(0.996264)" xlink:href="#CMMI12-68"/>
    </g>
   </g>
   <g id="text_6">
    <!-- $EP$ -->
    <defs>
     <path d="M 69.5 23.265625 
C 69.59375 23.5625 69.90625 24.28125 69.90625 24.671875 
C 69.90625 25.171875 69.5 25.671875 68.90625 25.671875 
C 68.5 25.671875 68.296875 25.578125 68 25.265625 
C 67.796875 25.171875 67.796875 24.96875 66.90625 22.953125 
C 61 8.90625 56.703125 2.890625 40.703125 2.890625 
L 26.09375 2.890625 
C 24.703125 2.890625 24.5 2.890625 23.90625 3 
C 22.796875 3.09375 22.703125 3.296875 22.703125 4.09375 
C 22.703125 4.796875 22.90625 5.390625 23.09375 6.296875 
L 30 34 
L 39.90625 34 
C 47.703125 34 48.296875 32.28125 48.296875 29.28125 
C 48.296875 28.28125 48.296875 27.375 47.59375 24.375 
C 47.40625 23.96875 47.296875 23.5625 47.296875 23.265625 
C 47.296875 22.5625 47.796875 22.265625 48.40625 22.265625 
C 49.296875 22.265625 49.40625 22.953125 49.796875 24.359375 
L 55.5 47.53125 
C 55.5 48.015625 55.09375 48.515625 54.5 48.515625 
C 53.59375 48.515625 53.5 48.125 53.09375 46.71875 
C 51.09375 39.078125 49.09375 36.890625 40.203125 36.890625 
L 30.703125 36.890625 
L 36.90625 61.40625 
C 37.796875 64.90625 38 64.90625 42.09375 64.90625 
L 56.40625 64.90625 
C 68.703125 64.90625 71.203125 61.609375 71.203125 54.03125 
C 71.203125 53.921875 71.203125 51.140625 70.796875 47.84375 
C 70.703125 47.4375 70.59375 46.84375 70.59375 46.640625 
C 70.59375 45.84375 71.09375 45.546875 71.703125 45.546875 
C 72.40625 45.546875 72.796875 45.953125 73 47.734375 
L 75.09375 65.21875 
C 75.09375 65.546875 75.296875 66.609375 75.296875 66.828125 
C 75.296875 68 74.40625 68 72.59375 68 
L 23.796875 68 
C 21.90625 68 20.90625 68 20.90625 66.078125 
C 20.90625 64.90625 21.59375 64.90625 23.296875 64.90625 
C 29.5 64.90625 29.5 64.28125 29.5 63.3125 
C 29.5 62.8125 29.40625 62.40625 29.09375 61.3125 
L 15.59375 7.390625 
C 14.703125 3.890625 14.5 2.890625 7.5 2.890625 
C 5.59375 2.890625 4.59375 2.890625 4.59375 1.09375 
C 4.59375 0 5.203125 0 7.203125 0 
L 57.40625 0 
C 59.59375 0 59.703125 0.09375 60.40625 1.71875 
z
" id="CMMI12-69"/>
    </defs>
    <g transform="translate(113.580691 174.68206)scale(0.16 -0.16)">
     <use transform="scale(0.996264)" xlink:href="#CMMI12-69"/>
     <use transform="translate(78.051636 0)scale(0.996264)" xlink:href="#CMMI12-80"/>
    </g>
   </g>
   <g id="text_7">
    <!-- $EM$ -->
    <g transform="translate(57.244561 162.478057)scale(0.16 -0.16)">
     <use transform="scale(0.996264)" xlink:href="#CMMI12-69"/>
     <use transform="translate(78.051636 0)scale(0.996264)" xlink:href="#CMMI12-77"/>
    </g>
   </g>
  </g>
 </g>
 <defs>
  <clipPath id="pfd7a59a39a">
   <rect height="166.32" width="167.4" x="27" y="25.92"/>
  </clipPath>
 </defs>
</svg>
