<?xml version="1.0" encoding="utf-8" standalone="no"?>
<!DOCTYPE svg PUBLIC "-//W3C//DTD SVG 1.1//EN"
  "http://www.w3.org/Graphics/SVG/1.1/DTD/svg11.dtd">
<!-- Created with matplotlib (http://matplotlib.org/) -->
<svg height="50pt" version="1.1" viewBox="0 0 50 50" width="50pt" xmlns="http://www.w3.org/2000/svg" xmlns:xlink="http://www.w3.org/1999/xlink">
 <defs>
  <style type="text/css">
*{stroke-linecap:butt;stroke-linejoin:round;}
  </style>
 </defs>
 <g id="figure_1">
  <g id="patch_1">
   <path d="M 0 50.4 
L 50.4 50.4 
L 50.4 0 
L 0 0 
z
" style="fill:none;"/>
  </g>
  <g id="axes_1">
   <g id="patch_2">
    <path clip-path="url(#pb294e2fd9b)" d="M 10.9872 27.081936 
C 11.422271 27.081936 11.839581 26.910196 12.147223 26.604539 
C 12.454864 26.298882 12.62772 25.884264 12.62772 25.452 
C 12.62772 25.019736 12.454864 24.605118 12.147223 24.299461 
C 11.839581 23.993804 11.422271 23.822064 10.9872 23.822064 
C 10.552129 23.822064 10.134819 23.993804 9.827177 24.299461 
C 9.519536 24.605118 9.34668 25.019736 9.34668 25.452 
C 9.34668 25.884264 9.519536 26.298882 9.827177 26.604539 
C 10.134819 26.910196 10.552129 27.081936 10.9872 27.081936 
z
" style="fill:#0000ff;opacity:0.3;stroke:#0000ff;stroke-linejoin:miter;"/>
   </g>
   <g id="patch_3">
    <path clip-path="url(#pb294e2fd9b)" d="M 8.145736 23.822064 
Q 8.774605 24.371621 9.566468 24.637032 
" style="fill:none;opacity:0.5;stroke:#0000ff;stroke-linecap:round;"/>
   </g>
   <g id="patch_4">
    <path clip-path="url(#pb294e2fd9b)" d="M 16.575666 15.552236 
C 17.010737 15.552236 17.428047 15.380496 17.735688 15.074839 
C 18.04333 14.769182 18.216186 14.354564 18.216186 13.9223 
C 18.216186 13.490036 18.04333 13.075418 17.735688 12.769761 
C 17.428047 12.464104 17.010737 12.292364 16.575666 12.292364 
C 16.140595 12.292364 15.723284 12.464104 15.415643 12.769761 
C 15.108001 13.075418 14.935146 13.490036 14.935146 13.9223 
C 14.935146 14.354564 15.108001 14.769182 15.415643 15.074839 
C 15.723284 15.380496 16.140595 15.552236 16.575666 15.552236 
z
" style="fill:#0000ff;opacity:0.3;stroke:#0000ff;stroke-linejoin:miter;"/>
   </g>
   <g id="patch_5">
    <path clip-path="url(#pb294e2fd9b)" d="M 29.132834 12.704635 
C 29.567905 12.704635 29.985215 12.532895 30.292857 12.227238 
C 30.600498 11.921581 30.773354 11.506963 30.773354 11.074699 
C 30.773354 10.642435 30.600498 10.227817 30.292857 9.92216 
C 29.985215 9.616503 29.567905 9.444763 29.132834 9.444763 
C 28.697763 9.444763 28.280453 9.616503 27.972811 9.92216 
C 27.665169 10.227817 27.492314 10.642435 27.492314 11.074699 
C 27.492314 11.506963 27.665169 11.921581 27.972811 12.227238 
C 28.280453 12.532895 28.697763 12.704635 29.132834 12.704635 
z
" style="fill:#0000ff;opacity:0.3;stroke:#0000ff;stroke-linejoin:miter;"/>
   </g>
   <g id="patch_6">
    <path clip-path="url(#pb294e2fd9b)" d="M 39.202901 20.683435 
C 39.637972 20.683435 40.055282 20.511695 40.362924 20.206038 
C 40.670565 19.900381 40.843421 19.485763 40.843421 19.053499 
C 40.843421 18.621235 40.670565 18.206617 40.362924 17.90096 
C 40.055282 17.595303 39.637972 17.423563 39.202901 17.423563 
C 38.76783 17.423563 38.35052 17.595303 38.042878 17.90096 
C 37.735236 18.206617 37.562381 18.621235 37.562381 19.053499 
C 37.562381 19.485763 37.735236 19.900381 38.042878 20.206038 
C 38.35052 20.511695 38.76783 20.683435 39.202901 20.683435 
z
" style="fill:#0000ff;opacity:0.3;stroke:#0000ff;stroke-linejoin:miter;"/>
   </g>
   <g id="patch_7">
    <path clip-path="url(#pb294e2fd9b)" d="M 40.127039 17.706783 
Q 40.723779 17.125838 41.051176 16.360066 
" style="fill:none;opacity:0.5;stroke:#008000;stroke-linecap:round;"/>
   </g>
   <g id="patch_8">
    <path clip-path="url(#pb294e2fd9b)" d="M 39.202901 33.480437 
C 39.637972 33.480437 40.055282 33.308697 40.362924 33.00304 
C 40.670565 32.697383 40.843421 32.282765 40.843421 31.850501 
C 40.843421 31.418237 40.670565 31.003619 40.362924 30.697962 
C 40.055282 30.392305 39.637972 30.220565 39.202901 30.220565 
C 38.76783 30.220565 38.35052 30.392305 38.042878 30.697962 
C 37.735236 31.003619 37.562381 31.418237 37.562381 31.850501 
C 37.562381 32.282765 37.735236 32.697383 38.042878 33.00304 
C 38.35052 33.308697 38.76783 33.480437 39.202901 33.480437 
z
" style="fill:#0000ff;opacity:0.3;stroke:#0000ff;stroke-linejoin:miter;"/>
   </g>
   <g id="patch_9">
    <path clip-path="url(#pb294e2fd9b)" d="M 41.051176 34.543934 
Q 40.723779 33.778162 40.127039 33.197217 
" style="fill:none;opacity:0.5;stroke:#0000ff;stroke-linecap:round;"/>
   </g>
   <g id="patch_10">
    <path clip-path="url(#pb294e2fd9b)" d="M 29.132834 41.459237 
C 29.567905 41.459237 29.985215 41.287497 30.292857 40.98184 
C 30.600498 40.676183 30.773354 40.261565 30.773354 39.829301 
C 30.773354 39.397037 30.600498 38.982419 30.292857 38.676762 
C 29.985215 38.371105 29.567905 38.199365 29.132834 38.199365 
C 28.697763 38.199365 28.280453 38.371105 27.972811 38.676762 
C 27.665169 38.982419 27.492314 39.397037 27.492314 39.829301 
C 27.492314 40.261565 27.665169 40.676183 27.972811 40.98184 
C 28.280453 41.287497 28.697763 41.459237 29.132834 41.459237 
z
" style="fill:#0000ff;opacity:0.3;stroke:#0000ff;stroke-linejoin:miter;"/>
   </g>
   <g id="patch_11">
    <path clip-path="url(#pb294e2fd9b)" d="M 16.575666 38.611636 
C 17.010737 38.611636 17.428047 38.439896 17.735688 38.134239 
C 18.04333 37.828582 18.216186 37.413964 18.216186 36.9817 
C 18.216186 36.549436 18.04333 36.134818 17.735688 35.829161 
C 17.428047 35.523504 17.010737 35.351764 16.575666 35.351764 
C 16.140595 35.351764 15.723284 35.523504 15.415643 35.829161 
C 15.108001 36.134818 14.935146 36.549436 14.935146 36.9817 
C 14.935146 37.413964 15.108001 37.828582 15.415643 38.134239 
C 15.723284 38.439896 16.140595 38.611636 16.575666 38.611636 
z
" style="fill:#0000ff;opacity:0.3;stroke:#0000ff;stroke-linejoin:miter;"/>
   </g>
   <g id="patch_12">
    <path clip-path="url(#pb294e2fd9b)" d="M 13.070094 22.478285 
Q 14.609893 20.088648 15.552807 17.406866 
" style="fill:none;opacity:0.5;stroke:#008000;stroke-linecap:round;"/>
   </g>
   <g id="patch_13">
    <path clip-path="url(#pb294e2fd9b)" d="M 20.206616 36.784983 
Q 28.311697 36.275656 35.849451 33.25341 
" style="fill:none;opacity:0.5;stroke:#0000ff;stroke-linecap:round;"/>
   </g>
   <g id="patch_14">
    <path clip-path="url(#pb294e2fd9b)" d="M 32.308855 38.04956 
Q 34.74375 36.560071 36.765723 34.545327 
" style="fill:none;opacity:0.5;stroke:#0000ff;stroke-linecap:round;"/>
   </g>
   <g id="patch_15">
    <path clip-path="url(#pb294e2fd9b)" d="M 36.006797 20.79449 
Q 26.357684 26.087866 18.98858 34.262342 
" style="fill:none;opacity:0.5;stroke:#0000ff;stroke-linecap:round;"/>
   </g>
   <g id="patch_16">
    <path clip-path="url(#pb294e2fd9b)" d="M 35.56777 19.242672 
Q 24.548426 19.845137 14.342162 24.042881 
" style="fill:none;opacity:0.5;stroke:#0000ff;stroke-linecap:round;"/>
   </g>
   <g id="patch_17">
    <path clip-path="url(#pb294e2fd9b)" d="M 18.998825 16.633608 
Q 26.358305 24.816605 36.001179 30.12122 
" style="fill:none;opacity:0.5;stroke:#008000;stroke-linecap:round;"/>
   </g>
   <g id="patch_18">
    <path clip-path="url(#pb294e2fd9b)" d="M 39.781261 28.262437 
Q 40.122672 25.447448 39.802 22.629912 
" style="fill:none;opacity:0.5;stroke:#008000;stroke-linecap:round;"/>
   </g>
   <g id="patch_19">
    <path clip-path="url(#pb294e2fd9b)" d="M 14.346942 26.849059 
Q 24.548222 31.058809 35.56681 31.674251 
" style="fill:none;opacity:0.5;stroke:#008000;stroke-linecap:round;"/>
   </g>
   <g id="patch_20">
    <path clip-path="url(#pb294e2fd9b)" d="M 38.194727 28.366802 
Q 35.877934 20.639019 31.260824 14.023457 
" style="fill:none;opacity:0.5;stroke:#008000;stroke-linecap:round;"/>
   </g>
   <g id="patch_21">
    <path clip-path="url(#pb294e2fd9b)" d="M 38.624541 22.641563 
Q 38.28313 25.456552 38.603801 28.274088 
" style="fill:none;opacity:0.5;stroke:#0000ff;stroke-linecap:round;"/>
   </g>
   <g id="patch_22">
    <path clip-path="url(#pb294e2fd9b)" d="M 30.141008 14.558398 
Q 32.4578 22.286181 37.07491 28.901743 
" style="fill:none;opacity:0.5;stroke:#0000ff;stroke-linecap:round;"/>
   </g>
   <g id="patch_23">
    <path clip-path="url(#pb294e2fd9b)" d="M 37.091695 22.005461 
Q 32.460765 28.611665 30.128019 36.334549 
" style="fill:none;opacity:0.5;stroke:#0000ff;stroke-linecap:round;"/>
   </g>
  </g>
 </g>
 <defs>
  <clipPath id="pb294e2fd9b">
   <rect height="38.808" width="39.06" x="6.3" y="6.048"/>
  </clipPath>
 </defs>
</svg>
