<?xml version="1.0" encoding="utf-8" standalone="no"?>
<!DOCTYPE svg PUBLIC "-//W3C//DTD SVG 1.1//EN"
  "http://www.w3.org/Graphics/SVG/1.1/DTD/svg11.dtd">
<!-- Created with matplotlib (http://matplotlib.org/) -->
<svg height="720pt" version="1.1" viewBox="0 0 1080 720" width="1080pt" xmlns="http://www.w3.org/2000/svg" xmlns:xlink="http://www.w3.org/1999/xlink">
 <defs>
  <style type="text/css">
*{stroke-linecap:butt;stroke-linejoin:round;}
  </style>
 </defs>
 <g id="figure_1">
  <g id="patch_1">
   <path d="M 0 720 
L 1080 720 
L 1080 0 
L 0 0 
z
" style="fill:#ffffff;"/>
  </g>
  <g id="axes_1">
   <g id="patch_2">
    <path d="M 71.816875 322.525937 
L 352.104412 322.525937 
L 352.104412 14.3 
L 71.816875 14.3 
z
" style="fill:#ffffff;"/>
   </g>
   <g id="patch_3">
    <path clip-path="url(#p74c68700f5)" d="M 71.816875 322.525937 
L 165.246054 322.525937 
L 165.246054 28.977426 
L 71.816875 28.977426 
z
" style="fill:#008000;opacity:0.75;"/>
   </g>
   <g id="patch_4">
    <path clip-path="url(#p74c68700f5)" d="M 165.246054 322.525937 
L 258.675233 322.525937 
L 258.675233 28.977426 
L 165.246054 28.977426 
z
" style="fill:#008000;opacity:0.75;"/>
   </g>
   <g id="patch_5">
    <path clip-path="url(#p74c68700f5)" d="M 258.675233 322.525937 
L 352.104412 322.525937 
L 352.104412 28.977426 
L 258.675233 28.977426 
z
" style="fill:#008000;opacity:0.75;"/>
   </g>
   <g id="matplotlib.axis_1">
    <g id="xtick_1">
     <g id="line2d_1">
      <defs>
       <path d="M 0 0 
L 0 3.5 
" id="m0cfe039188" style="stroke:#000000;stroke-width:0.8;"/>
      </defs>
      <g>
       <use style="stroke:#000000;stroke-width:0.8;" x="118.531464" xlink:href="#m0cfe039188" y="322.525937"/>
      </g>
     </g>
     <g id="text_1">
      <!-- 3 -->
      <defs>
       <path d="M 40.578125 39.3125 
Q 47.65625 37.796875 51.625 33 
Q 55.609375 28.21875 55.609375 21.1875 
Q 55.609375 10.40625 48.1875 4.484375 
Q 40.765625 -1.421875 27.09375 -1.421875 
Q 22.515625 -1.421875 17.65625 -0.515625 
Q 12.796875 0.390625 7.625 2.203125 
L 7.625 11.71875 
Q 11.71875 9.328125 16.59375 8.109375 
Q 21.484375 6.890625 26.8125 6.890625 
Q 36.078125 6.890625 40.9375 10.546875 
Q 45.796875 14.203125 45.796875 21.1875 
Q 45.796875 27.640625 41.28125 31.265625 
Q 36.765625 34.90625 28.71875 34.90625 
L 20.21875 34.90625 
L 20.21875 43.015625 
L 29.109375 43.015625 
Q 36.375 43.015625 40.234375 45.921875 
Q 44.09375 48.828125 44.09375 54.296875 
Q 44.09375 59.90625 40.109375 62.90625 
Q 36.140625 65.921875 28.71875 65.921875 
Q 24.65625 65.921875 20.015625 65.03125 
Q 15.375 64.15625 9.8125 62.3125 
L 9.8125 71.09375 
Q 15.4375 72.65625 20.34375 73.4375 
Q 25.25 74.21875 29.59375 74.21875 
Q 40.828125 74.21875 47.359375 69.109375 
Q 53.90625 64.015625 53.90625 55.328125 
Q 53.90625 49.265625 50.4375 45.09375 
Q 46.96875 40.921875 40.578125 39.3125 
z
" id="DejaVuSans-33"/>
      </defs>
      <g transform="translate(112.168964 344.722812)scale(0.2 -0.2)">
       <use xlink:href="#DejaVuSans-33"/>
      </g>
     </g>
    </g>
    <g id="xtick_2">
     <g id="line2d_2">
      <g>
       <use style="stroke:#000000;stroke-width:0.8;" x="211.960643" xlink:href="#m0cfe039188" y="322.525937"/>
      </g>
     </g>
     <g id="text_2">
      <!-- 4 -->
      <defs>
       <path d="M 37.796875 64.3125 
L 12.890625 25.390625 
L 37.796875 25.390625 
z
M 35.203125 72.90625 
L 47.609375 72.90625 
L 47.609375 25.390625 
L 58.015625 25.390625 
L 58.015625 17.1875 
L 47.609375 17.1875 
L 47.609375 0 
L 37.796875 0 
L 37.796875 17.1875 
L 4.890625 17.1875 
L 4.890625 26.703125 
z
" id="DejaVuSans-34"/>
      </defs>
      <g transform="translate(205.598143 344.722812)scale(0.2 -0.2)">
       <use xlink:href="#DejaVuSans-34"/>
      </g>
     </g>
    </g>
    <g id="xtick_3">
     <g id="line2d_3">
      <g>
       <use style="stroke:#000000;stroke-width:0.8;" x="305.389822" xlink:href="#m0cfe039188" y="322.525937"/>
      </g>
     </g>
     <g id="text_3">
      <!-- 5 -->
      <defs>
       <path d="M 10.796875 72.90625 
L 49.515625 72.90625 
L 49.515625 64.59375 
L 19.828125 64.59375 
L 19.828125 46.734375 
Q 21.96875 47.46875 24.109375 47.828125 
Q 26.265625 48.1875 28.421875 48.1875 
Q 40.625 48.1875 47.75 41.5 
Q 54.890625 34.8125 54.890625 23.390625 
Q 54.890625 11.625 47.5625 5.09375 
Q 40.234375 -1.421875 26.90625 -1.421875 
Q 22.3125 -1.421875 17.546875 -0.640625 
Q 12.796875 0.140625 7.71875 1.703125 
L 7.71875 11.625 
Q 12.109375 9.234375 16.796875 8.0625 
Q 21.484375 6.890625 26.703125 6.890625 
Q 35.15625 6.890625 40.078125 11.328125 
Q 45.015625 15.765625 45.015625 23.390625 
Q 45.015625 31 40.078125 35.4375 
Q 35.15625 39.890625 26.703125 39.890625 
Q 22.75 39.890625 18.8125 39.015625 
Q 14.890625 38.140625 10.796875 36.28125 
z
" id="DejaVuSans-35"/>
      </defs>
      <g transform="translate(299.027322 344.722812)scale(0.2 -0.2)">
       <use xlink:href="#DejaVuSans-35"/>
      </g>
     </g>
    </g>
    <g id="text_4">
     <!-- No. state variables -->
     <defs>
      <path d="M 9.8125 72.90625 
L 23.09375 72.90625 
L 55.421875 11.921875 
L 55.421875 72.90625 
L 64.984375 72.90625 
L 64.984375 0 
L 51.703125 0 
L 19.390625 60.984375 
L 19.390625 0 
L 9.8125 0 
z
" id="DejaVuSans-4e"/>
      <path d="M 30.609375 48.390625 
Q 23.390625 48.390625 19.1875 42.75 
Q 14.984375 37.109375 14.984375 27.296875 
Q 14.984375 17.484375 19.15625 11.84375 
Q 23.34375 6.203125 30.609375 6.203125 
Q 37.796875 6.203125 41.984375 11.859375 
Q 46.1875 17.53125 46.1875 27.296875 
Q 46.1875 37.015625 41.984375 42.703125 
Q 37.796875 48.390625 30.609375 48.390625 
z
M 30.609375 56 
Q 42.328125 56 49.015625 48.375 
Q 55.71875 40.765625 55.71875 27.296875 
Q 55.71875 13.875 49.015625 6.21875 
Q 42.328125 -1.421875 30.609375 -1.421875 
Q 18.84375 -1.421875 12.171875 6.21875 
Q 5.515625 13.875 5.515625 27.296875 
Q 5.515625 40.765625 12.171875 48.375 
Q 18.84375 56 30.609375 56 
z
" id="DejaVuSans-6f"/>
      <path d="M 10.6875 12.40625 
L 21 12.40625 
L 21 0 
L 10.6875 0 
z
" id="DejaVuSans-2e"/>
      <path id="DejaVuSans-20"/>
      <path d="M 44.28125 53.078125 
L 44.28125 44.578125 
Q 40.484375 46.53125 36.375 47.5 
Q 32.28125 48.484375 27.875 48.484375 
Q 21.1875 48.484375 17.84375 46.4375 
Q 14.5 44.390625 14.5 40.28125 
Q 14.5 37.15625 16.890625 35.375 
Q 19.28125 33.59375 26.515625 31.984375 
L 29.59375 31.296875 
Q 39.15625 29.25 43.1875 25.515625 
Q 47.21875 21.78125 47.21875 15.09375 
Q 47.21875 7.46875 41.1875 3.015625 
Q 35.15625 -1.421875 24.609375 -1.421875 
Q 20.21875 -1.421875 15.453125 -0.5625 
Q 10.6875 0.296875 5.421875 2 
L 5.421875 11.28125 
Q 10.40625 8.6875 15.234375 7.390625 
Q 20.0625 6.109375 24.8125 6.109375 
Q 31.15625 6.109375 34.5625 8.28125 
Q 37.984375 10.453125 37.984375 14.40625 
Q 37.984375 18.0625 35.515625 20.015625 
Q 33.0625 21.96875 24.703125 23.78125 
L 21.578125 24.515625 
Q 13.234375 26.265625 9.515625 29.90625 
Q 5.8125 33.546875 5.8125 39.890625 
Q 5.8125 47.609375 11.28125 51.796875 
Q 16.75 56 26.8125 56 
Q 31.78125 56 36.171875 55.265625 
Q 40.578125 54.546875 44.28125 53.078125 
z
" id="DejaVuSans-73"/>
      <path d="M 18.3125 70.21875 
L 18.3125 54.6875 
L 36.8125 54.6875 
L 36.8125 47.703125 
L 18.3125 47.703125 
L 18.3125 18.015625 
Q 18.3125 11.328125 20.140625 9.421875 
Q 21.96875 7.515625 27.59375 7.515625 
L 36.8125 7.515625 
L 36.8125 0 
L 27.59375 0 
Q 17.1875 0 13.234375 3.875 
Q 9.28125 7.765625 9.28125 18.015625 
L 9.28125 47.703125 
L 2.6875 47.703125 
L 2.6875 54.6875 
L 9.28125 54.6875 
L 9.28125 70.21875 
z
" id="DejaVuSans-74"/>
      <path d="M 34.28125 27.484375 
Q 23.390625 27.484375 19.1875 25 
Q 14.984375 22.515625 14.984375 16.5 
Q 14.984375 11.71875 18.140625 8.90625 
Q 21.296875 6.109375 26.703125 6.109375 
Q 34.1875 6.109375 38.703125 11.40625 
Q 43.21875 16.703125 43.21875 25.484375 
L 43.21875 27.484375 
z
M 52.203125 31.203125 
L 52.203125 0 
L 43.21875 0 
L 43.21875 8.296875 
Q 40.140625 3.328125 35.546875 0.953125 
Q 30.953125 -1.421875 24.3125 -1.421875 
Q 15.921875 -1.421875 10.953125 3.296875 
Q 6 8.015625 6 15.921875 
Q 6 25.140625 12.171875 29.828125 
Q 18.359375 34.515625 30.609375 34.515625 
L 43.21875 34.515625 
L 43.21875 35.40625 
Q 43.21875 41.609375 39.140625 45 
Q 35.0625 48.390625 27.6875 48.390625 
Q 23 48.390625 18.546875 47.265625 
Q 14.109375 46.140625 10.015625 43.890625 
L 10.015625 52.203125 
Q 14.9375 54.109375 19.578125 55.046875 
Q 24.21875 56 28.609375 56 
Q 40.484375 56 46.34375 49.84375 
Q 52.203125 43.703125 52.203125 31.203125 
z
" id="DejaVuSans-61"/>
      <path d="M 56.203125 29.59375 
L 56.203125 25.203125 
L 14.890625 25.203125 
Q 15.484375 15.921875 20.484375 11.0625 
Q 25.484375 6.203125 34.421875 6.203125 
Q 39.59375 6.203125 44.453125 7.46875 
Q 49.3125 8.734375 54.109375 11.28125 
L 54.109375 2.78125 
Q 49.265625 0.734375 44.1875 -0.34375 
Q 39.109375 -1.421875 33.890625 -1.421875 
Q 20.796875 -1.421875 13.15625 6.1875 
Q 5.515625 13.8125 5.515625 26.8125 
Q 5.515625 40.234375 12.765625 48.109375 
Q 20.015625 56 32.328125 56 
Q 43.359375 56 49.78125 48.890625 
Q 56.203125 41.796875 56.203125 29.59375 
z
M 47.21875 32.234375 
Q 47.125 39.59375 43.09375 43.984375 
Q 39.0625 48.390625 32.421875 48.390625 
Q 24.90625 48.390625 20.390625 44.140625 
Q 15.875 39.890625 15.1875 32.171875 
z
" id="DejaVuSans-65"/>
      <path d="M 2.984375 54.6875 
L 12.5 54.6875 
L 29.59375 8.796875 
L 46.6875 54.6875 
L 56.203125 54.6875 
L 35.6875 0 
L 23.484375 0 
z
" id="DejaVuSans-76"/>
      <path d="M 41.109375 46.296875 
Q 39.59375 47.171875 37.8125 47.578125 
Q 36.03125 48 33.890625 48 
Q 26.265625 48 22.1875 43.046875 
Q 18.109375 38.09375 18.109375 28.8125 
L 18.109375 0 
L 9.078125 0 
L 9.078125 54.6875 
L 18.109375 54.6875 
L 18.109375 46.1875 
Q 20.953125 51.171875 25.484375 53.578125 
Q 30.03125 56 36.53125 56 
Q 37.453125 56 38.578125 55.875 
Q 39.703125 55.765625 41.0625 55.515625 
z
" id="DejaVuSans-72"/>
      <path d="M 9.421875 54.6875 
L 18.40625 54.6875 
L 18.40625 0 
L 9.421875 0 
z
M 9.421875 75.984375 
L 18.40625 75.984375 
L 18.40625 64.59375 
L 9.421875 64.59375 
z
" id="DejaVuSans-69"/>
      <path d="M 48.6875 27.296875 
Q 48.6875 37.203125 44.609375 42.84375 
Q 40.53125 48.484375 33.40625 48.484375 
Q 26.265625 48.484375 22.1875 42.84375 
Q 18.109375 37.203125 18.109375 27.296875 
Q 18.109375 17.390625 22.1875 11.75 
Q 26.265625 6.109375 33.40625 6.109375 
Q 40.53125 6.109375 44.609375 11.75 
Q 48.6875 17.390625 48.6875 27.296875 
z
M 18.109375 46.390625 
Q 20.953125 51.265625 25.265625 53.625 
Q 29.59375 56 35.59375 56 
Q 45.5625 56 51.78125 48.09375 
Q 58.015625 40.1875 58.015625 27.296875 
Q 58.015625 14.40625 51.78125 6.484375 
Q 45.5625 -1.421875 35.59375 -1.421875 
Q 29.59375 -1.421875 25.265625 0.953125 
Q 20.953125 3.328125 18.109375 8.203125 
L 18.109375 0 
L 9.078125 0 
L 9.078125 75.984375 
L 18.109375 75.984375 
z
" id="DejaVuSans-62"/>
      <path d="M 9.421875 75.984375 
L 18.40625 75.984375 
L 18.40625 0 
L 9.421875 0 
z
" id="DejaVuSans-6c"/>
     </defs>
     <g transform="translate(108.541737 385.59875)scale(0.22 -0.22)">
      <use xlink:href="#DejaVuSans-4e"/>
      <use x="74.804688" xlink:href="#DejaVuSans-6f"/>
      <use x="135.970703" xlink:href="#DejaVuSans-2e"/>
      <use x="167.757812" xlink:href="#DejaVuSans-20"/>
      <use x="199.544922" xlink:href="#DejaVuSans-73"/>
      <use x="251.644531" xlink:href="#DejaVuSans-74"/>
      <use x="290.853516" xlink:href="#DejaVuSans-61"/>
      <use x="352.132812" xlink:href="#DejaVuSans-74"/>
      <use x="391.341797" xlink:href="#DejaVuSans-65"/>
      <use x="452.865234" xlink:href="#DejaVuSans-20"/>
      <use x="484.652344" xlink:href="#DejaVuSans-76"/>
      <use x="543.832031" xlink:href="#DejaVuSans-61"/>
      <use x="605.111328" xlink:href="#DejaVuSans-72"/>
      <use x="646.224609" xlink:href="#DejaVuSans-69"/>
      <use x="674.007812" xlink:href="#DejaVuSans-61"/>
      <use x="735.287109" xlink:href="#DejaVuSans-62"/>
      <use x="798.763672" xlink:href="#DejaVuSans-6c"/>
      <use x="826.546875" xlink:href="#DejaVuSans-65"/>
      <use x="888.070312" xlink:href="#DejaVuSans-73"/>
     </g>
    </g>
   </g>
   <g id="matplotlib.axis_2">
    <g id="ytick_1">
     <g id="line2d_4">
      <defs>
       <path d="M 0 0 
L -3.5 0 
" id="m713dc55908" style="stroke:#000000;stroke-width:0.8;"/>
      </defs>
      <g>
       <use style="stroke:#000000;stroke-width:0.8;" x="71.816875" xlink:href="#m713dc55908" y="322.525937"/>
      </g>
     </g>
     <g id="text_5">
      <!-- 0 -->
      <defs>
       <path d="M 31.78125 66.40625 
Q 24.171875 66.40625 20.328125 58.90625 
Q 16.5 51.421875 16.5 36.375 
Q 16.5 21.390625 20.328125 13.890625 
Q 24.171875 6.390625 31.78125 6.390625 
Q 39.453125 6.390625 43.28125 13.890625 
Q 47.125 21.390625 47.125 36.375 
Q 47.125 51.421875 43.28125 58.90625 
Q 39.453125 66.40625 31.78125 66.40625 
z
M 31.78125 74.21875 
Q 44.046875 74.21875 50.515625 64.515625 
Q 56.984375 54.828125 56.984375 36.375 
Q 56.984375 17.96875 50.515625 8.265625 
Q 44.046875 -1.421875 31.78125 -1.421875 
Q 19.53125 -1.421875 13.0625 8.265625 
Q 6.59375 17.96875 6.59375 36.375 
Q 6.59375 54.828125 13.0625 64.515625 
Q 19.53125 74.21875 31.78125 74.21875 
z
" id="DejaVuSans-30"/>
      </defs>
      <g transform="translate(52.091875 330.124375)scale(0.2 -0.2)">
       <use xlink:href="#DejaVuSans-30"/>
      </g>
     </g>
    </g>
    <g id="ytick_2">
     <g id="line2d_5">
      <g>
       <use style="stroke:#000000;stroke-width:0.8;" x="71.816875" xlink:href="#m713dc55908" y="28.977426"/>
      </g>
     </g>
     <g id="text_6">
      <!-- 1 -->
      <defs>
       <path d="M 12.40625 8.296875 
L 28.515625 8.296875 
L 28.515625 63.921875 
L 10.984375 60.40625 
L 10.984375 69.390625 
L 28.421875 72.90625 
L 38.28125 72.90625 
L 38.28125 8.296875 
L 54.390625 8.296875 
L 54.390625 0 
L 12.40625 0 
z
" id="DejaVuSans-31"/>
      </defs>
      <g transform="translate(52.091875 36.575863)scale(0.2 -0.2)">
       <use xlink:href="#DejaVuSans-31"/>
      </g>
     </g>
    </g>
    <g id="text_7">
     <!-- No. models -->
     <defs>
      <path d="M 52 44.1875 
Q 55.375 50.25 60.0625 53.125 
Q 64.75 56 71.09375 56 
Q 79.640625 56 84.28125 50.015625 
Q 88.921875 44.046875 88.921875 33.015625 
L 88.921875 0 
L 79.890625 0 
L 79.890625 32.71875 
Q 79.890625 40.578125 77.09375 44.375 
Q 74.3125 48.1875 68.609375 48.1875 
Q 61.625 48.1875 57.5625 43.546875 
Q 53.515625 38.921875 53.515625 30.90625 
L 53.515625 0 
L 44.484375 0 
L 44.484375 32.71875 
Q 44.484375 40.625 41.703125 44.40625 
Q 38.921875 48.1875 33.109375 48.1875 
Q 26.21875 48.1875 22.15625 43.53125 
Q 18.109375 38.875 18.109375 30.90625 
L 18.109375 0 
L 9.078125 0 
L 9.078125 54.6875 
L 18.109375 54.6875 
L 18.109375 46.1875 
Q 21.1875 51.21875 25.484375 53.609375 
Q 29.78125 56 35.6875 56 
Q 41.65625 56 45.828125 52.96875 
Q 50 49.953125 52 44.1875 
z
" id="DejaVuSans-6d"/>
      <path d="M 45.40625 46.390625 
L 45.40625 75.984375 
L 54.390625 75.984375 
L 54.390625 0 
L 45.40625 0 
L 45.40625 8.203125 
Q 42.578125 3.328125 38.25 0.953125 
Q 33.9375 -1.421875 27.875 -1.421875 
Q 17.96875 -1.421875 11.734375 6.484375 
Q 5.515625 14.40625 5.515625 27.296875 
Q 5.515625 40.1875 11.734375 48.09375 
Q 17.96875 56 27.875 56 
Q 33.9375 56 38.25 53.625 
Q 42.578125 51.265625 45.40625 46.390625 
z
M 14.796875 27.296875 
Q 14.796875 17.390625 18.875 11.75 
Q 22.953125 6.109375 30.078125 6.109375 
Q 37.203125 6.109375 41.296875 11.75 
Q 45.40625 17.390625 45.40625 27.296875 
Q 45.40625 37.203125 41.296875 42.84375 
Q 37.203125 48.484375 30.078125 48.484375 
Q 22.953125 48.484375 18.875 42.84375 
Q 14.796875 37.203125 14.796875 27.296875 
z
" id="DejaVuSans-64"/>
     </defs>
     <g transform="translate(27.516562 230.346406)rotate(-90)scale(0.22 -0.22)">
      <use xlink:href="#DejaVuSans-4e"/>
      <use x="74.804688" xlink:href="#DejaVuSans-6f"/>
      <use x="135.970703" xlink:href="#DejaVuSans-2e"/>
      <use x="167.757812" xlink:href="#DejaVuSans-20"/>
      <use x="199.544922" xlink:href="#DejaVuSans-6d"/>
      <use x="296.957031" xlink:href="#DejaVuSans-6f"/>
      <use x="358.138672" xlink:href="#DejaVuSans-64"/>
      <use x="421.615234" xlink:href="#DejaVuSans-65"/>
      <use x="483.138672" xlink:href="#DejaVuSans-6c"/>
      <use x="510.921875" xlink:href="#DejaVuSans-73"/>
     </g>
    </g>
   </g>
   <g id="patch_6">
    <path d="M 71.816875 322.525937 
L 71.816875 14.3 
" style="fill:none;stroke:#000000;stroke-linecap:square;stroke-linejoin:miter;stroke-width:0.8;"/>
   </g>
   <g id="patch_7">
    <path d="M 352.104412 322.525937 
L 352.104412 14.3 
" style="fill:none;stroke:#000000;stroke-linecap:square;stroke-linejoin:miter;stroke-width:0.8;"/>
   </g>
   <g id="patch_8">
    <path d="M 71.816875 322.525937 
L 352.104412 322.525937 
" style="fill:none;stroke:#000000;stroke-linecap:square;stroke-linejoin:miter;stroke-width:0.8;"/>
   </g>
   <g id="patch_9">
    <path d="M 71.816875 14.3 
L 352.104412 14.3 
" style="fill:none;stroke:#000000;stroke-linecap:square;stroke-linejoin:miter;stroke-width:0.8;"/>
   </g>
  </g>
  <g id="axes_2">
   <g id="patch_10">
    <path d="M 427.421287 322.525937 
L 707.708824 322.525937 
L 707.708824 14.3 
L 427.421287 14.3 
z
" style="fill:#ffffff;"/>
   </g>
   <g id="patch_11">
    <path clip-path="url(#p07897ad718)" d="M 427.421287 322.525937 
L 440.768312 322.525937 
L 440.768312 28.977426 
L 427.421287 28.977426 
z
" style="fill:#008000;opacity:0.75;"/>
   </g>
   <g id="patch_12">
    <path clip-path="url(#p07897ad718)" d="M 440.768312 322.525937 
L 454.115338 322.525937 
L 454.115338 322.525937 
L 440.768312 322.525937 
z
" style="fill:#008000;opacity:0.75;"/>
   </g>
   <g id="patch_13">
    <path clip-path="url(#p07897ad718)" d="M 454.115338 322.525937 
L 467.462363 322.525937 
L 467.462363 322.525937 
L 454.115338 322.525937 
z
" style="fill:#008000;opacity:0.75;"/>
   </g>
   <g id="patch_14">
    <path clip-path="url(#p07897ad718)" d="M 467.462363 322.525937 
L 480.809389 322.525937 
L 480.809389 322.525937 
L 467.462363 322.525937 
z
" style="fill:#008000;opacity:0.75;"/>
   </g>
   <g id="patch_15">
    <path clip-path="url(#p07897ad718)" d="M 480.809389 322.525937 
L 494.156415 322.525937 
L 494.156415 322.525937 
L 480.809389 322.525937 
z
" style="fill:#008000;opacity:0.75;"/>
   </g>
   <g id="patch_16">
    <path clip-path="url(#p07897ad718)" d="M 494.156415 322.525937 
L 507.50344 322.525937 
L 507.50344 322.525937 
L 494.156415 322.525937 
z
" style="fill:#008000;opacity:0.75;"/>
   </g>
   <g id="patch_17">
    <path clip-path="url(#p07897ad718)" d="M 507.50344 322.525937 
L 520.850466 322.525937 
L 520.850466 322.525937 
L 507.50344 322.525937 
z
" style="fill:#008000;opacity:0.75;"/>
   </g>
   <g id="patch_18">
    <path clip-path="url(#p07897ad718)" d="M 520.850466 322.525937 
L 534.197491 322.525937 
L 534.197491 322.525937 
L 520.850466 322.525937 
z
" style="fill:#008000;opacity:0.75;"/>
   </g>
   <g id="patch_19">
    <path clip-path="url(#p07897ad718)" d="M 534.197491 322.525937 
L 547.544517 322.525937 
L 547.544517 322.525937 
L 534.197491 322.525937 
z
" style="fill:#008000;opacity:0.75;"/>
   </g>
   <g id="patch_20">
    <path clip-path="url(#p07897ad718)" d="M 547.544517 322.525937 
L 560.891542 322.525937 
L 560.891542 322.525937 
L 547.544517 322.525937 
z
" style="fill:#008000;opacity:0.75;"/>
   </g>
   <g id="patch_21">
    <path clip-path="url(#p07897ad718)" d="M 560.891542 322.525937 
L 574.238568 322.525937 
L 574.238568 322.525937 
L 560.891542 322.525937 
z
" style="fill:#008000;opacity:0.75;"/>
   </g>
   <g id="patch_22">
    <path clip-path="url(#p07897ad718)" d="M 574.238568 322.525937 
L 587.585593 322.525937 
L 587.585593 322.525937 
L 574.238568 322.525937 
z
" style="fill:#008000;opacity:0.75;"/>
   </g>
   <g id="patch_23">
    <path clip-path="url(#p07897ad718)" d="M 587.585593 322.525937 
L 600.932619 322.525937 
L 600.932619 322.525937 
L 587.585593 322.525937 
z
" style="fill:#008000;opacity:0.75;"/>
   </g>
   <g id="patch_24">
    <path clip-path="url(#p07897ad718)" d="M 600.932619 322.525937 
L 614.279645 322.525937 
L 614.279645 322.525937 
L 600.932619 322.525937 
z
" style="fill:#008000;opacity:0.75;"/>
   </g>
   <g id="patch_25">
    <path clip-path="url(#p07897ad718)" d="M 614.279645 322.525937 
L 627.62667 322.525937 
L 627.62667 28.977426 
L 614.279645 28.977426 
z
" style="fill:#008000;opacity:0.75;"/>
   </g>
   <g id="patch_26">
    <path clip-path="url(#p07897ad718)" d="M 627.62667 322.525937 
L 640.973696 322.525937 
L 640.973696 322.525937 
L 627.62667 322.525937 
z
" style="fill:#008000;opacity:0.75;"/>
   </g>
   <g id="patch_27">
    <path clip-path="url(#p07897ad718)" d="M 640.973696 322.525937 
L 654.320721 322.525937 
L 654.320721 322.525937 
L 640.973696 322.525937 
z
" style="fill:#008000;opacity:0.75;"/>
   </g>
   <g id="patch_28">
    <path clip-path="url(#p07897ad718)" d="M 654.320721 322.525937 
L 667.667747 322.525937 
L 667.667747 322.525937 
L 654.320721 322.525937 
z
" style="fill:#008000;opacity:0.75;"/>
   </g>
   <g id="patch_29">
    <path clip-path="url(#p07897ad718)" d="M 667.667747 322.525937 
L 681.014772 322.525937 
L 681.014772 322.525937 
L 667.667747 322.525937 
z
" style="fill:#008000;opacity:0.75;"/>
   </g>
   <g id="patch_30">
    <path clip-path="url(#p07897ad718)" d="M 681.014772 322.525937 
L 694.361798 322.525937 
L 694.361798 322.525937 
L 681.014772 322.525937 
z
" style="fill:#008000;opacity:0.75;"/>
   </g>
   <g id="patch_31">
    <path clip-path="url(#p07897ad718)" d="M 694.361798 322.525937 
L 707.708824 322.525937 
L 707.708824 28.977426 
L 694.361798 28.977426 
z
" style="fill:#008000;opacity:0.75;"/>
   </g>
   <g id="matplotlib.axis_3">
    <g id="xtick_4">
     <g id="line2d_6">
      <g>
       <use style="stroke:#000000;stroke-width:0.8;" x="434.0948" xlink:href="#m0cfe039188" y="322.525937"/>
      </g>
     </g>
     <g id="text_8">
      <!-- 3 -->
      <g transform="translate(427.7323 344.722812)scale(0.2 -0.2)">
       <use xlink:href="#DejaVuSans-33"/>
      </g>
     </g>
    </g>
    <g id="xtick_5">
     <g id="line2d_7">
      <g>
       <use style="stroke:#000000;stroke-width:0.8;" x="474.135876" xlink:href="#m0cfe039188" y="322.525937"/>
      </g>
     </g>
     <g id="text_9">
      <!-- 6 -->
      <defs>
       <path d="M 33.015625 40.375 
Q 26.375 40.375 22.484375 35.828125 
Q 18.609375 31.296875 18.609375 23.390625 
Q 18.609375 15.53125 22.484375 10.953125 
Q 26.375 6.390625 33.015625 6.390625 
Q 39.65625 6.390625 43.53125 10.953125 
Q 47.40625 15.53125 47.40625 23.390625 
Q 47.40625 31.296875 43.53125 35.828125 
Q 39.65625 40.375 33.015625 40.375 
z
M 52.59375 71.296875 
L 52.59375 62.3125 
Q 48.875 64.0625 45.09375 64.984375 
Q 41.3125 65.921875 37.59375 65.921875 
Q 27.828125 65.921875 22.671875 59.328125 
Q 17.53125 52.734375 16.796875 39.40625 
Q 19.671875 43.65625 24.015625 45.921875 
Q 28.375 48.1875 33.59375 48.1875 
Q 44.578125 48.1875 50.953125 41.515625 
Q 57.328125 34.859375 57.328125 23.390625 
Q 57.328125 12.15625 50.6875 5.359375 
Q 44.046875 -1.421875 33.015625 -1.421875 
Q 20.359375 -1.421875 13.671875 8.265625 
Q 6.984375 17.96875 6.984375 36.375 
Q 6.984375 53.65625 15.1875 63.9375 
Q 23.390625 74.21875 37.203125 74.21875 
Q 40.921875 74.21875 44.703125 73.484375 
Q 48.484375 72.75 52.59375 71.296875 
z
" id="DejaVuSans-36"/>
      </defs>
      <g transform="translate(467.773376 344.722812)scale(0.2 -0.2)">
       <use xlink:href="#DejaVuSans-36"/>
      </g>
     </g>
    </g>
    <g id="xtick_6">
     <g id="line2d_8">
      <g>
       <use style="stroke:#000000;stroke-width:0.8;" x="514.176953" xlink:href="#m0cfe039188" y="322.525937"/>
      </g>
     </g>
     <g id="text_10">
      <!-- 9 -->
      <defs>
       <path d="M 10.984375 1.515625 
L 10.984375 10.5 
Q 14.703125 8.734375 18.5 7.8125 
Q 22.3125 6.890625 25.984375 6.890625 
Q 35.75 6.890625 40.890625 13.453125 
Q 46.046875 20.015625 46.78125 33.40625 
Q 43.953125 29.203125 39.59375 26.953125 
Q 35.25 24.703125 29.984375 24.703125 
Q 19.046875 24.703125 12.671875 31.3125 
Q 6.296875 37.9375 6.296875 49.421875 
Q 6.296875 60.640625 12.9375 67.421875 
Q 19.578125 74.21875 30.609375 74.21875 
Q 43.265625 74.21875 49.921875 64.515625 
Q 56.59375 54.828125 56.59375 36.375 
Q 56.59375 19.140625 48.40625 8.859375 
Q 40.234375 -1.421875 26.421875 -1.421875 
Q 22.703125 -1.421875 18.890625 -0.6875 
Q 15.09375 0.046875 10.984375 1.515625 
z
M 30.609375 32.421875 
Q 37.25 32.421875 41.125 36.953125 
Q 45.015625 41.5 45.015625 49.421875 
Q 45.015625 57.28125 41.125 61.84375 
Q 37.25 66.40625 30.609375 66.40625 
Q 23.96875 66.40625 20.09375 61.84375 
Q 16.21875 57.28125 16.21875 49.421875 
Q 16.21875 41.5 20.09375 36.953125 
Q 23.96875 32.421875 30.609375 32.421875 
z
" id="DejaVuSans-39"/>
      </defs>
      <g transform="translate(507.814453 344.722812)scale(0.2 -0.2)">
       <use xlink:href="#DejaVuSans-39"/>
      </g>
     </g>
    </g>
    <g id="xtick_7">
     <g id="line2d_9">
      <g>
       <use style="stroke:#000000;stroke-width:0.8;" x="554.21803" xlink:href="#m0cfe039188" y="322.525937"/>
      </g>
     </g>
     <g id="text_11">
      <!-- 12 -->
      <defs>
       <path d="M 19.1875 8.296875 
L 53.609375 8.296875 
L 53.609375 0 
L 7.328125 0 
L 7.328125 8.296875 
Q 12.9375 14.109375 22.625 23.890625 
Q 32.328125 33.6875 34.8125 36.53125 
Q 39.546875 41.84375 41.421875 45.53125 
Q 43.3125 49.21875 43.3125 52.78125 
Q 43.3125 58.59375 39.234375 62.25 
Q 35.15625 65.921875 28.609375 65.921875 
Q 23.96875 65.921875 18.8125 64.3125 
Q 13.671875 62.703125 7.8125 59.421875 
L 7.8125 69.390625 
Q 13.765625 71.78125 18.9375 73 
Q 24.125 74.21875 28.421875 74.21875 
Q 39.75 74.21875 46.484375 68.546875 
Q 53.21875 62.890625 53.21875 53.421875 
Q 53.21875 48.921875 51.53125 44.890625 
Q 49.859375 40.875 45.40625 35.40625 
Q 44.1875 33.984375 37.640625 27.21875 
Q 31.109375 20.453125 19.1875 8.296875 
z
" id="DejaVuSans-32"/>
      </defs>
      <g transform="translate(541.49303 344.722812)scale(0.2 -0.2)">
       <use xlink:href="#DejaVuSans-31"/>
       <use x="63.623047" xlink:href="#DejaVuSans-32"/>
      </g>
     </g>
    </g>
    <g id="xtick_8">
     <g id="line2d_10">
      <g>
       <use style="stroke:#000000;stroke-width:0.8;" x="594.259106" xlink:href="#m0cfe039188" y="322.525937"/>
      </g>
     </g>
     <g id="text_12">
      <!-- 15 -->
      <g transform="translate(581.534106 344.722812)scale(0.2 -0.2)">
       <use xlink:href="#DejaVuSans-31"/>
       <use x="63.623047" xlink:href="#DejaVuSans-35"/>
      </g>
     </g>
    </g>
    <g id="xtick_9">
     <g id="line2d_11">
      <g>
       <use style="stroke:#000000;stroke-width:0.8;" x="634.300183" xlink:href="#m0cfe039188" y="322.525937"/>
      </g>
     </g>
     <g id="text_13">
      <!-- 18 -->
      <defs>
       <path d="M 31.78125 34.625 
Q 24.75 34.625 20.71875 30.859375 
Q 16.703125 27.09375 16.703125 20.515625 
Q 16.703125 13.921875 20.71875 10.15625 
Q 24.75 6.390625 31.78125 6.390625 
Q 38.8125 6.390625 42.859375 10.171875 
Q 46.921875 13.96875 46.921875 20.515625 
Q 46.921875 27.09375 42.890625 30.859375 
Q 38.875 34.625 31.78125 34.625 
z
M 21.921875 38.8125 
Q 15.578125 40.375 12.03125 44.71875 
Q 8.5 49.078125 8.5 55.328125 
Q 8.5 64.0625 14.71875 69.140625 
Q 20.953125 74.21875 31.78125 74.21875 
Q 42.671875 74.21875 48.875 69.140625 
Q 55.078125 64.0625 55.078125 55.328125 
Q 55.078125 49.078125 51.53125 44.71875 
Q 48 40.375 41.703125 38.8125 
Q 48.828125 37.15625 52.796875 32.3125 
Q 56.78125 27.484375 56.78125 20.515625 
Q 56.78125 9.90625 50.3125 4.234375 
Q 43.84375 -1.421875 31.78125 -1.421875 
Q 19.734375 -1.421875 13.25 4.234375 
Q 6.78125 9.90625 6.78125 20.515625 
Q 6.78125 27.484375 10.78125 32.3125 
Q 14.796875 37.15625 21.921875 38.8125 
z
M 18.3125 54.390625 
Q 18.3125 48.734375 21.84375 45.5625 
Q 25.390625 42.390625 31.78125 42.390625 
Q 38.140625 42.390625 41.71875 45.5625 
Q 45.3125 48.734375 45.3125 54.390625 
Q 45.3125 60.0625 41.71875 63.234375 
Q 38.140625 66.40625 31.78125 66.40625 
Q 25.390625 66.40625 21.84375 63.234375 
Q 18.3125 60.0625 18.3125 54.390625 
z
" id="DejaVuSans-38"/>
      </defs>
      <g transform="translate(621.575183 344.722812)scale(0.2 -0.2)">
       <use xlink:href="#DejaVuSans-31"/>
       <use x="63.623047" xlink:href="#DejaVuSans-38"/>
      </g>
     </g>
    </g>
    <g id="xtick_10">
     <g id="line2d_12">
      <g>
       <use style="stroke:#000000;stroke-width:0.8;" x="674.34126" xlink:href="#m0cfe039188" y="322.525937"/>
      </g>
     </g>
     <g id="text_14">
      <!-- 21 -->
      <g transform="translate(661.61626 344.722812)scale(0.2 -0.2)">
       <use xlink:href="#DejaVuSans-32"/>
       <use x="63.623047" xlink:href="#DejaVuSans-31"/>
      </g>
     </g>
    </g>
    <g id="text_15">
     <!-- No. parameters -->
     <defs>
      <path d="M 18.109375 8.203125 
L 18.109375 -20.796875 
L 9.078125 -20.796875 
L 9.078125 54.6875 
L 18.109375 54.6875 
L 18.109375 46.390625 
Q 20.953125 51.265625 25.265625 53.625 
Q 29.59375 56 35.59375 56 
Q 45.5625 56 51.78125 48.09375 
Q 58.015625 40.1875 58.015625 27.296875 
Q 58.015625 14.40625 51.78125 6.484375 
Q 45.5625 -1.421875 35.59375 -1.421875 
Q 29.59375 -1.421875 25.265625 0.953125 
Q 20.953125 3.328125 18.109375 8.203125 
z
M 48.6875 27.296875 
Q 48.6875 37.203125 44.609375 42.84375 
Q 40.53125 48.484375 33.40625 48.484375 
Q 26.265625 48.484375 22.1875 42.84375 
Q 18.109375 37.203125 18.109375 27.296875 
Q 18.109375 17.390625 22.1875 11.75 
Q 26.265625 6.109375 33.40625 6.109375 
Q 40.53125 6.109375 44.609375 11.75 
Q 48.6875 17.390625 48.6875 27.296875 
z
" id="DejaVuSans-70"/>
     </defs>
     <g transform="translate(481.811461 385.59875)scale(0.22 -0.22)">
      <use xlink:href="#DejaVuSans-4e"/>
      <use x="74.804688" xlink:href="#DejaVuSans-6f"/>
      <use x="135.970703" xlink:href="#DejaVuSans-2e"/>
      <use x="167.757812" xlink:href="#DejaVuSans-20"/>
      <use x="199.544922" xlink:href="#DejaVuSans-70"/>
      <use x="263.021484" xlink:href="#DejaVuSans-61"/>
      <use x="324.300781" xlink:href="#DejaVuSans-72"/>
      <use x="365.414062" xlink:href="#DejaVuSans-61"/>
      <use x="426.693359" xlink:href="#DejaVuSans-6d"/>
      <use x="524.105469" xlink:href="#DejaVuSans-65"/>
      <use x="585.628906" xlink:href="#DejaVuSans-74"/>
      <use x="624.837891" xlink:href="#DejaVuSans-65"/>
      <use x="686.361328" xlink:href="#DejaVuSans-72"/>
      <use x="727.474609" xlink:href="#DejaVuSans-73"/>
     </g>
    </g>
   </g>
   <g id="matplotlib.axis_4">
    <g id="ytick_3">
     <g id="line2d_13">
      <g>
       <use style="stroke:#000000;stroke-width:0.8;" x="427.421287" xlink:href="#m713dc55908" y="322.525937"/>
      </g>
     </g>
     <g id="text_16">
      <!-- 0 -->
      <g transform="translate(407.696287 330.124375)scale(0.2 -0.2)">
       <use xlink:href="#DejaVuSans-30"/>
      </g>
     </g>
    </g>
    <g id="ytick_4">
     <g id="line2d_14">
      <g>
       <use style="stroke:#000000;stroke-width:0.8;" x="427.421287" xlink:href="#m713dc55908" y="28.977426"/>
      </g>
     </g>
     <g id="text_17">
      <!-- 1 -->
      <g transform="translate(407.696287 36.575863)scale(0.2 -0.2)">
       <use xlink:href="#DejaVuSans-31"/>
      </g>
     </g>
    </g>
    <g id="text_18">
     <!-- No. models -->
     <g transform="translate(383.120974 230.346406)rotate(-90)scale(0.22 -0.22)">
      <use xlink:href="#DejaVuSans-4e"/>
      <use x="74.804688" xlink:href="#DejaVuSans-6f"/>
      <use x="135.970703" xlink:href="#DejaVuSans-2e"/>
      <use x="167.757812" xlink:href="#DejaVuSans-20"/>
      <use x="199.544922" xlink:href="#DejaVuSans-6d"/>
      <use x="296.957031" xlink:href="#DejaVuSans-6f"/>
      <use x="358.138672" xlink:href="#DejaVuSans-64"/>
      <use x="421.615234" xlink:href="#DejaVuSans-65"/>
      <use x="483.138672" xlink:href="#DejaVuSans-6c"/>
      <use x="510.921875" xlink:href="#DejaVuSans-73"/>
     </g>
    </g>
   </g>
   <g id="patch_32">
    <path d="M 427.421287 322.525937 
L 427.421287 14.3 
" style="fill:none;stroke:#000000;stroke-linecap:square;stroke-linejoin:miter;stroke-width:0.8;"/>
   </g>
   <g id="patch_33">
    <path d="M 707.708824 322.525937 
L 707.708824 14.3 
" style="fill:none;stroke:#000000;stroke-linecap:square;stroke-linejoin:miter;stroke-width:0.8;"/>
   </g>
   <g id="patch_34">
    <path d="M 427.421287 322.525937 
L 707.708824 322.525937 
" style="fill:none;stroke:#000000;stroke-linecap:square;stroke-linejoin:miter;stroke-width:0.8;"/>
   </g>
   <g id="patch_35">
    <path d="M 427.421287 14.3 
L 707.708824 14.3 
" style="fill:none;stroke:#000000;stroke-linecap:square;stroke-linejoin:miter;stroke-width:0.8;"/>
   </g>
  </g>
  <g id="axes_3">
   <g id="patch_36">
    <path d="M 783.025699 322.525937 
L 1063.313235 322.525937 
L 1063.313235 14.3 
L 783.025699 14.3 
z
" style="fill:#ffffff;"/>
   </g>
   <g id="patch_37">
    <path clip-path="url(#p0c352e2764)" d="M 783.025699 322.525937 
L 798.597228 322.525937 
L 798.597228 28.977426 
L 783.025699 28.977426 
z
" style="fill:#008000;opacity:0.75;"/>
   </g>
   <g id="patch_38">
    <path clip-path="url(#p0c352e2764)" d="M 798.597228 322.525937 
L 814.168758 322.525937 
L 814.168758 322.525937 
L 798.597228 322.525937 
z
" style="fill:#008000;opacity:0.75;"/>
   </g>
   <g id="patch_39">
    <path clip-path="url(#p0c352e2764)" d="M 814.168758 322.525937 
L 829.740288 322.525937 
L 829.740288 322.525937 
L 814.168758 322.525937 
z
" style="fill:#008000;opacity:0.75;"/>
   </g>
   <g id="patch_40">
    <path clip-path="url(#p0c352e2764)" d="M 829.740288 322.525937 
L 845.311818 322.525937 
L 845.311818 322.525937 
L 829.740288 322.525937 
z
" style="fill:#008000;opacity:0.75;"/>
   </g>
   <g id="patch_41">
    <path clip-path="url(#p0c352e2764)" d="M 845.311818 322.525937 
L 860.883348 322.525937 
L 860.883348 322.525937 
L 845.311818 322.525937 
z
" style="fill:#008000;opacity:0.75;"/>
   </g>
   <g id="patch_42">
    <path clip-path="url(#p0c352e2764)" d="M 860.883348 322.525937 
L 876.454877 322.525937 
L 876.454877 322.525937 
L 860.883348 322.525937 
z
" style="fill:#008000;opacity:0.75;"/>
   </g>
   <g id="patch_43">
    <path clip-path="url(#p0c352e2764)" d="M 876.454877 322.525937 
L 892.026407 322.525937 
L 892.026407 28.977426 
L 876.454877 28.977426 
z
" style="fill:#008000;opacity:0.75;"/>
   </g>
   <g id="patch_44">
    <path clip-path="url(#p0c352e2764)" d="M 892.026407 322.525937 
L 907.597937 322.525937 
L 907.597937 322.525937 
L 892.026407 322.525937 
z
" style="fill:#008000;opacity:0.75;"/>
   </g>
   <g id="patch_45">
    <path clip-path="url(#p0c352e2764)" d="M 907.597937 322.525937 
L 923.169467 322.525937 
L 923.169467 322.525937 
L 907.597937 322.525937 
z
" style="fill:#008000;opacity:0.75;"/>
   </g>
   <g id="patch_46">
    <path clip-path="url(#p0c352e2764)" d="M 923.169467 322.525937 
L 938.740997 322.525937 
L 938.740997 322.525937 
L 923.169467 322.525937 
z
" style="fill:#008000;opacity:0.75;"/>
   </g>
   <g id="patch_47">
    <path clip-path="url(#p0c352e2764)" d="M 938.740997 322.525937 
L 954.312527 322.525937 
L 954.312527 322.525937 
L 938.740997 322.525937 
z
" style="fill:#008000;opacity:0.75;"/>
   </g>
   <g id="patch_48">
    <path clip-path="url(#p0c352e2764)" d="M 954.312527 322.525937 
L 969.884056 322.525937 
L 969.884056 322.525937 
L 954.312527 322.525937 
z
" style="fill:#008000;opacity:0.75;"/>
   </g>
   <g id="patch_49">
    <path clip-path="url(#p0c352e2764)" d="M 969.884056 322.525937 
L 985.455586 322.525937 
L 985.455586 322.525937 
L 969.884056 322.525937 
z
" style="fill:#008000;opacity:0.75;"/>
   </g>
   <g id="patch_50">
    <path clip-path="url(#p0c352e2764)" d="M 985.455586 322.525937 
L 1001.027116 322.525937 
L 1001.027116 322.525937 
L 985.455586 322.525937 
z
" style="fill:#008000;opacity:0.75;"/>
   </g>
   <g id="patch_51">
    <path clip-path="url(#p0c352e2764)" d="M 1001.027116 322.525937 
L 1016.598646 322.525937 
L 1016.598646 322.525937 
L 1001.027116 322.525937 
z
" style="fill:#008000;opacity:0.75;"/>
   </g>
   <g id="patch_52">
    <path clip-path="url(#p0c352e2764)" d="M 1016.598646 322.525937 
L 1032.170176 322.525937 
L 1032.170176 322.525937 
L 1016.598646 322.525937 
z
" style="fill:#008000;opacity:0.75;"/>
   </g>
   <g id="patch_53">
    <path clip-path="url(#p0c352e2764)" d="M 1032.170176 322.525937 
L 1047.741705 322.525937 
L 1047.741705 322.525937 
L 1032.170176 322.525937 
z
" style="fill:#008000;opacity:0.75;"/>
   </g>
   <g id="patch_54">
    <path clip-path="url(#p0c352e2764)" d="M 1047.741705 322.525937 
L 1063.313235 322.525937 
L 1063.313235 28.977426 
L 1047.741705 28.977426 
z
" style="fill:#008000;opacity:0.75;"/>
   </g>
   <g id="matplotlib.axis_5">
    <g id="xtick_11">
     <g id="line2d_15">
      <g>
       <use style="stroke:#000000;stroke-width:0.8;" x="806.382993" xlink:href="#m0cfe039188" y="322.525937"/>
      </g>
     </g>
     <g id="text_19">
      <!-- 6 -->
      <g transform="translate(800.020493 344.722812)scale(0.2 -0.2)">
       <use xlink:href="#DejaVuSans-36"/>
      </g>
     </g>
    </g>
    <g id="xtick_12">
     <g id="line2d_16">
      <g>
       <use style="stroke:#000000;stroke-width:0.8;" x="837.526053" xlink:href="#m0cfe039188" y="322.525937"/>
      </g>
     </g>
     <g id="text_20">
      <!-- 8 -->
      <g transform="translate(831.163553 344.722812)scale(0.2 -0.2)">
       <use xlink:href="#DejaVuSans-38"/>
      </g>
     </g>
    </g>
    <g id="xtick_13">
     <g id="line2d_17">
      <g>
       <use style="stroke:#000000;stroke-width:0.8;" x="868.669113" xlink:href="#m0cfe039188" y="322.525937"/>
      </g>
     </g>
     <g id="text_21">
      <!-- 10 -->
      <g transform="translate(855.944113 344.722812)scale(0.2 -0.2)">
       <use xlink:href="#DejaVuSans-31"/>
       <use x="63.623047" xlink:href="#DejaVuSans-30"/>
      </g>
     </g>
    </g>
    <g id="xtick_14">
     <g id="line2d_18">
      <g>
       <use style="stroke:#000000;stroke-width:0.8;" x="899.812172" xlink:href="#m0cfe039188" y="322.525937"/>
      </g>
     </g>
     <g id="text_22">
      <!-- 12 -->
      <g transform="translate(887.087172 344.722812)scale(0.2 -0.2)">
       <use xlink:href="#DejaVuSans-31"/>
       <use x="63.623047" xlink:href="#DejaVuSans-32"/>
      </g>
     </g>
    </g>
    <g id="xtick_15">
     <g id="line2d_19">
      <g>
       <use style="stroke:#000000;stroke-width:0.8;" x="930.955232" xlink:href="#m0cfe039188" y="322.525937"/>
      </g>
     </g>
     <g id="text_23">
      <!-- 14 -->
      <g transform="translate(918.230232 344.722812)scale(0.2 -0.2)">
       <use xlink:href="#DejaVuSans-31"/>
       <use x="63.623047" xlink:href="#DejaVuSans-34"/>
      </g>
     </g>
    </g>
    <g id="xtick_16">
     <g id="line2d_20">
      <g>
       <use style="stroke:#000000;stroke-width:0.8;" x="962.098291" xlink:href="#m0cfe039188" y="322.525937"/>
      </g>
     </g>
     <g id="text_24">
      <!-- 16 -->
      <g transform="translate(949.373291 344.722812)scale(0.2 -0.2)">
       <use xlink:href="#DejaVuSans-31"/>
       <use x="63.623047" xlink:href="#DejaVuSans-36"/>
      </g>
     </g>
    </g>
    <g id="xtick_17">
     <g id="line2d_21">
      <g>
       <use style="stroke:#000000;stroke-width:0.8;" x="993.241351" xlink:href="#m0cfe039188" y="322.525937"/>
      </g>
     </g>
     <g id="text_25">
      <!-- 18 -->
      <g transform="translate(980.516351 344.722812)scale(0.2 -0.2)">
       <use xlink:href="#DejaVuSans-31"/>
       <use x="63.623047" xlink:href="#DejaVuSans-38"/>
      </g>
     </g>
    </g>
    <g id="xtick_18">
     <g id="line2d_22">
      <g>
       <use style="stroke:#000000;stroke-width:0.8;" x="1024.384411" xlink:href="#m0cfe039188" y="322.525937"/>
      </g>
     </g>
     <g id="text_26">
      <!-- 20 -->
      <g transform="translate(1011.659411 344.722812)scale(0.2 -0.2)">
       <use xlink:href="#DejaVuSans-32"/>
       <use x="63.623047" xlink:href="#DejaVuSans-30"/>
      </g>
     </g>
    </g>
    <g id="xtick_19">
     <g id="line2d_23">
      <g>
       <use style="stroke:#000000;stroke-width:0.8;" x="1055.52747" xlink:href="#m0cfe039188" y="322.525937"/>
      </g>
     </g>
     <g id="text_27">
      <!-- 22 -->
      <g transform="translate(1042.80247 344.722812)scale(0.2 -0.2)">
       <use xlink:href="#DejaVuSans-32"/>
       <use x="63.623047" xlink:href="#DejaVuSans-32"/>
      </g>
     </g>
    </g>
    <g id="text_28">
     <!-- No. variables -->
     <g transform="translate(851.110873 385.59875)scale(0.22 -0.22)">
      <use xlink:href="#DejaVuSans-4e"/>
      <use x="74.804688" xlink:href="#DejaVuSans-6f"/>
      <use x="135.970703" xlink:href="#DejaVuSans-2e"/>
      <use x="167.757812" xlink:href="#DejaVuSans-20"/>
      <use x="199.544922" xlink:href="#DejaVuSans-76"/>
      <use x="258.724609" xlink:href="#DejaVuSans-61"/>
      <use x="320.003906" xlink:href="#DejaVuSans-72"/>
      <use x="361.117188" xlink:href="#DejaVuSans-69"/>
      <use x="388.900391" xlink:href="#DejaVuSans-61"/>
      <use x="450.179688" xlink:href="#DejaVuSans-62"/>
      <use x="513.65625" xlink:href="#DejaVuSans-6c"/>
      <use x="541.439453" xlink:href="#DejaVuSans-65"/>
      <use x="602.962891" xlink:href="#DejaVuSans-73"/>
     </g>
    </g>
   </g>
   <g id="matplotlib.axis_6">
    <g id="ytick_5">
     <g id="line2d_24">
      <g>
       <use style="stroke:#000000;stroke-width:0.8;" x="783.025699" xlink:href="#m713dc55908" y="322.525937"/>
      </g>
     </g>
     <g id="text_29">
      <!-- 0 -->
      <g transform="translate(763.300699 330.124375)scale(0.2 -0.2)">
       <use xlink:href="#DejaVuSans-30"/>
      </g>
     </g>
    </g>
    <g id="ytick_6">
     <g id="line2d_25">
      <g>
       <use style="stroke:#000000;stroke-width:0.8;" x="783.025699" xlink:href="#m713dc55908" y="28.977426"/>
      </g>
     </g>
     <g id="text_30">
      <!-- 1 -->
      <g transform="translate(763.300699 36.575863)scale(0.2 -0.2)">
       <use xlink:href="#DejaVuSans-31"/>
      </g>
     </g>
    </g>
    <g id="text_31">
     <!-- No. models -->
     <g transform="translate(738.725386 230.346406)rotate(-90)scale(0.22 -0.22)">
      <use xlink:href="#DejaVuSans-4e"/>
      <use x="74.804688" xlink:href="#DejaVuSans-6f"/>
      <use x="135.970703" xlink:href="#DejaVuSans-2e"/>
      <use x="167.757812" xlink:href="#DejaVuSans-20"/>
      <use x="199.544922" xlink:href="#DejaVuSans-6d"/>
      <use x="296.957031" xlink:href="#DejaVuSans-6f"/>
      <use x="358.138672" xlink:href="#DejaVuSans-64"/>
      <use x="421.615234" xlink:href="#DejaVuSans-65"/>
      <use x="483.138672" xlink:href="#DejaVuSans-6c"/>
      <use x="510.921875" xlink:href="#DejaVuSans-73"/>
     </g>
    </g>
   </g>
   <g id="patch_55">
    <path d="M 783.025699 322.525937 
L 783.025699 14.3 
" style="fill:none;stroke:#000000;stroke-linecap:square;stroke-linejoin:miter;stroke-width:0.8;"/>
   </g>
   <g id="patch_56">
    <path d="M 1063.313235 322.525937 
L 1063.313235 14.3 
" style="fill:none;stroke:#000000;stroke-linecap:square;stroke-linejoin:miter;stroke-width:0.8;"/>
   </g>
   <g id="patch_57">
    <path d="M 783.025699 322.525937 
L 1063.313235 322.525937 
" style="fill:none;stroke:#000000;stroke-linecap:square;stroke-linejoin:miter;stroke-width:0.8;"/>
   </g>
   <g id="patch_58">
    <path d="M 783.025699 14.3 
L 1063.313235 14.3 
" style="fill:none;stroke:#000000;stroke-linecap:square;stroke-linejoin:miter;stroke-width:0.8;"/>
   </g>
  </g>
 </g>
 <defs>
  <clipPath id="p74c68700f5">
   <rect height="308.225937" width="280.287537" x="71.816875" y="14.3"/>
  </clipPath>
  <clipPath id="p07897ad718">
   <rect height="308.225937" width="280.287537" x="427.421287" y="14.3"/>
  </clipPath>
  <clipPath id="p0c352e2764">
   <rect height="308.225937" width="280.287537" x="783.025699" y="14.3"/>
  </clipPath>
 </defs>
</svg>
