<?xml version="1.0" encoding="utf-8" standalone="no"?>
<!DOCTYPE svg PUBLIC "-//W3C//DTD SVG 1.1//EN"
  "http://www.w3.org/Graphics/SVG/1.1/DTD/svg11.dtd">
<!-- Created with matplotlib (http://matplotlib.org/) -->
<svg height="216pt" version="1.1" viewBox="0 0 216 216" width="216pt" xmlns="http://www.w3.org/2000/svg" xmlns:xlink="http://www.w3.org/1999/xlink">
 <defs>
  <style type="text/css">
*{stroke-linecap:butt;stroke-linejoin:round;stroke-miterlimit:100000;}
  </style>
 </defs>
 <g id="figure_1">
  <g id="patch_1">
   <path d="M 0 216 
L 216 216 
L 216 0 
L 0 0 
L 0 216 
z
" style="fill:none;"/>
  </g>
  <g id="axes_1">
   <g id="patch_2">
    <path clip-path="url(#p975a26a8b4)" d="M 51.84 131.82667 
C 58.158907 131.82667 64.219858 129.316142 68.688 124.848 
C 73.156142 120.379858 75.66667 114.318907 75.66667 108 
C 75.66667 101.681093 73.156142 95.620142 68.688 91.152 
C 64.219858 86.683858 58.158907 84.17333 51.84 84.17333 
C 45.521093 84.17333 39.460142 86.683858 34.992 91.152 
C 30.523858 95.620142 28.01333 101.681093 28.01333 108 
C 28.01333 114.318907 30.523858 120.379858 34.992 124.848 
C 39.460142 129.316142 45.521093 131.82667 51.84 131.82667 
z
" style="fill:#0000ff;opacity:0.3;stroke:#0000ff;stroke-linejoin:miter;"/>
   </g>
   <g id="patch_3">
    <path clip-path="url(#p975a26a8b4)" d="M 2.737845 78.37499 
Q 12.053079 86.216853 23.001706 91.2251 
L 23.937654 89.179006 
Q 26.408855 92.374734 29.316646 95.425288 
Q 25.131181 95.907062 20.817827 95.99932 
L 21.753775 93.953226 
Q 10.433603 88.775021 0.805805 80.670033 
L 2.737845 78.37499 
z
" style="fill:#0000ff;opacity:0.5;stroke:#000000;stroke-linecap:round;"/>
   </g>
   <g id="patch_4">
    <path clip-path="url(#p975a26a8b4)" d="M 29.826333 121.985464 
Q 18.377464 126.131762 8.565881 133.109427 
L 9.869876 134.943029 
Q 5.866695 135.485288 1.770942 136.478232 
Q 3.446446 132.612626 5.523225 128.831023 
L 6.82722 130.664625 
Q 16.971763 123.45017 28.804788 119.164747 
L 29.826333 121.985464 
z
" style="fill:#008000;opacity:0.5;stroke:#008000;stroke-linecap:round;"/>
   </g>
   <g id="patch_5">
    <path clip-path="url(#p975a26a8b4)" d="M 108 75.66667 
C 114.318907 75.66667 120.379858 73.156142 124.848 68.688 
C 129.316142 64.219858 131.82667 58.158907 131.82667 51.84 
C 131.82667 45.521093 129.316142 39.460142 124.848 34.992 
C 120.379858 30.523858 114.318907 28.01333 108 28.01333 
C 101.681093 28.01333 95.620142 30.523858 91.152 34.992 
C 86.683858 39.460142 84.17333 45.521093 84.17333 51.84 
C 84.17333 58.158907 86.683858 64.219858 91.152 68.688 
C 95.620142 73.156142 101.681093 75.66667 108 75.66667 
z
" style="fill:#0000ff;opacity:0.3;stroke:#0000ff;stroke-linejoin:miter;"/>
   </g>
   <g id="patch_6">
    <path clip-path="url(#p975a26a8b4)" d="M 137.62501 2.737845 
Q 129.783147 12.053079 124.7749 23.001706 
L 126.820994 23.937654 
Q 123.625266 26.408855 120.574712 29.316646 
Q 120.092938 25.131181 120.00068 20.817827 
L 122.046774 21.753775 
Q 127.224979 10.433603 135.329967 0.805805 
L 137.62501 2.737845 
z
" style="fill:#0000ff;opacity:0.5;stroke:#000000;stroke-linecap:round;"/>
   </g>
   <g id="patch_7">
    <path clip-path="url(#p975a26a8b4)" d="M 94.014536 29.826333 
Q 89.868238 18.377464 82.890573 8.565881 
L 81.056971 9.869876 
Q 80.514712 5.866695 79.521768 1.770942 
Q 83.387374 3.446446 87.168977 5.523225 
L 85.335375 6.82722 
Q 92.54983 16.971763 96.835253 28.804788 
L 94.014536 29.826333 
z
" style="fill:#0000ff;opacity:0.5;stroke:#0000ff;stroke-linecap:round;"/>
   </g>
   <g id="patch_8">
    <path clip-path="url(#p975a26a8b4)" d="M 164.16 131.82667 
C 170.478907 131.82667 176.539858 129.316142 181.008 124.848 
C 185.476142 120.379858 187.98667 114.318907 187.98667 108 
C 187.98667 101.681093 185.476142 95.620142 181.008 91.152 
C 176.539858 86.683858 170.478907 84.17333 164.16 84.17333 
C 157.841093 84.17333 151.780142 86.683858 147.312 91.152 
C 142.843858 95.620142 140.33333 101.681093 140.33333 108 
C 140.33333 114.318907 142.843858 120.379858 147.312 124.848 
C 151.780142 129.316142 157.841093 131.82667 164.16 131.82667 
z
" style="fill:#0000ff;opacity:0.3;stroke:#0000ff;stroke-linejoin:miter;"/>
   </g>
   <g id="patch_9">
    <path clip-path="url(#p975a26a8b4)" d="M 213.262155 137.62501 
Q 203.946921 129.783147 192.998294 124.7749 
L 192.062346 126.820994 
Q 189.591145 123.625266 186.683354 120.574712 
Q 190.868819 120.092938 195.182173 120.00068 
L 194.246225 122.046774 
Q 205.566397 127.224979 215.194195 135.329967 
L 213.262155 137.62501 
z
" style="fill:#0000ff;opacity:0.5;stroke:#000000;stroke-linecap:round;"/>
   </g>
   <g id="patch_10">
    <path clip-path="url(#p975a26a8b4)" d="M 186.173667 94.014536 
Q 197.622536 89.868238 207.434119 82.890573 
L 206.130124 81.056971 
Q 210.133305 80.514712 214.229058 79.521768 
Q 212.553554 83.387374 210.476775 87.168977 
L 209.17278 85.335375 
Q 199.028237 92.54983 187.195212 96.835253 
L 186.173667 94.014536 
z
" style="fill:#0000ff;opacity:0.5;stroke:#0000ff;stroke-linecap:round;"/>
   </g>
   <g id="patch_11">
    <path clip-path="url(#p975a26a8b4)" d="M 108 187.98667 
C 114.318907 187.98667 120.379858 185.476142 124.848 181.008 
C 129.316142 176.539858 131.82667 170.478907 131.82667 164.16 
C 131.82667 157.841093 129.316142 151.780142 124.848 147.312 
C 120.379858 142.843858 114.318907 140.33333 108 140.33333 
C 101.681093 140.33333 95.620142 142.843858 91.152 147.312 
C 86.683858 151.780142 84.17333 157.841093 84.17333 164.16 
C 84.17333 170.478907 86.683858 176.539858 91.152 181.008 
C 95.620142 185.476142 101.681093 187.98667 108 187.98667 
z
" style="fill:#0000ff;opacity:0.3;stroke:#0000ff;stroke-linejoin:miter;"/>
   </g>
   <g id="patch_12">
    <path clip-path="url(#p975a26a8b4)" d="M 78.37499 213.262155 
Q 86.216853 203.946921 91.2251 192.998294 
L 89.179006 192.062346 
Q 92.374734 189.591145 95.425288 186.683354 
Q 95.907062 190.868819 95.99932 195.182173 
L 93.953226 194.246225 
Q 88.775021 205.566397 80.670033 215.194195 
L 78.37499 213.262155 
z
" style="fill:#0000ff;opacity:0.5;stroke:#000000;stroke-linecap:round;"/>
   </g>
   <g id="patch_13">
    <path clip-path="url(#p975a26a8b4)" d="M 121.985464 186.173667 
Q 126.131762 197.622536 133.109427 207.434119 
L 134.943029 206.130124 
Q 135.485288 210.133305 136.478232 214.229058 
Q 132.612626 212.553554 128.831023 210.476775 
L 130.664625 209.17278 
Q 123.45017 199.028237 119.164747 187.195212 
L 121.985464 186.173667 
z
" style="fill:#ff0000;opacity:0.5;stroke:#ff0000;stroke-linecap:round;"/>
   </g>
   <g id="text_1">
    <!-- $C_{f}$ -->
    <defs>
     <path d="M 9.71875 -16.5 
Q 11.578125 -17.921875 14.203125 -17.921875 
Q 17.78125 -17.921875 20.015625 -10.015625 
Q 20.953125 -6.203125 25.09375 15.09375 
L 29.6875 39.59375 
L 21.09375 39.59375 
Q 20.125 39.59375 20.125 40.921875 
Q 20.515625 43.109375 21.390625 43.109375 
L 30.328125 43.109375 
L 31.5 49.609375 
Q 32.078125 52.640625 32.5625 54.8125 
Q 33.0625 56.984375 33.625 58.828125 
Q 34.1875 60.6875 35.296875 62.984375 
Q 37.015625 66.265625 39.921875 68.390625 
Q 42.828125 70.515625 46.1875 70.515625 
Q 48.390625 70.515625 50.46875 69.703125 
Q 52.546875 68.890625 53.859375 67.28125 
Q 55.171875 65.671875 55.171875 63.484375 
Q 55.171875 60.9375 53.484375 59.046875 
Q 51.8125 57.171875 49.421875 57.171875 
Q 47.796875 57.171875 46.65625 58.171875 
Q 45.515625 59.1875 45.515625 60.796875 
Q 45.515625 62.984375 47 64.625 
Q 48.484375 66.265625 50.6875 66.5 
Q 48.828125 67.921875 46.09375 67.921875 
Q 44.578125 67.921875 43.234375 66.5 
Q 41.890625 65.09375 41.5 63.484375 
Q 40.875 60.9375 38.71875 49.703125 
L 37.5 43.109375 
L 47.796875 43.109375 
Q 48.78125 43.109375 48.78125 41.796875 
Q 48.734375 41.546875 48.578125 40.9375 
Q 48.4375 40.328125 48.171875 39.953125 
Q 47.90625 39.59375 47.515625 39.59375 
L 36.8125 39.59375 
L 32.171875 15.1875 
Q 31.296875 9.859375 30.140625 4.359375 
Q 29 -1.125 26.921875 -6.90625 
Q 24.859375 -12.703125 21.625 -16.609375 
Q 18.40625 -20.515625 14.015625 -20.515625 
Q 10.640625 -20.515625 7.984375 -18.578125 
Q 5.328125 -16.65625 5.328125 -13.484375 
Q 5.328125 -10.9375 6.953125 -9.046875 
Q 8.59375 -7.171875 11.078125 -7.171875 
Q 12.75 -7.171875 13.859375 -8.171875 
Q 14.984375 -9.1875 14.984375 -10.796875 
Q 14.984375 -12.9375 13.390625 -14.71875 
Q 11.8125 -16.5 9.71875 -16.5 
" id="Cmmi10-66"/>
     <path d="M 14.59375 21.578125 
Q 14.59375 15.578125 16.90625 11.015625 
Q 19.234375 6.453125 23.65625 3.875 
Q 28.078125 1.3125 34.078125 1.3125 
Q 40.375 1.3125 46.203125 4.53125 
Q 52.046875 7.765625 56.171875 13.15625 
Q 60.296875 18.5625 61.8125 24.609375 
Q 62.015625 25.203125 62.59375 25.203125 
L 63.8125 25.203125 
Q 64.203125 25.203125 64.453125 24.921875 
Q 64.703125 24.65625 64.703125 24.3125 
Q 64.703125 24.21875 64.59375 24.03125 
Q 62.890625 17.09375 57.984375 11.015625 
Q 53.078125 4.9375 46.234375 1.359375 
Q 39.40625 -2.203125 32.171875 -2.203125 
Q 24.359375 -2.203125 18.15625 1.3125 
Q 11.96875 4.828125 8.515625 11.078125 
Q 5.078125 17.328125 5.078125 25.203125 
Q 5.078125 33.59375 8.828125 41.8125 
Q 12.59375 50.046875 18.9375 56.46875 
Q 25.296875 62.890625 33.421875 66.703125 
Q 41.546875 70.515625 49.90625 70.515625 
Q 53.21875 70.515625 56.25 69.5 
Q 59.28125 68.5 61.859375 66.453125 
Q 64.453125 64.40625 66.109375 61.71875 
L 74.03125 70.3125 
Q 74.03125 70.515625 74.515625 70.515625 
L 75.09375 70.515625 
Q 75.484375 70.515625 75.734375 70.171875 
Q 75.984375 69.828125 75.984375 69.484375 
L 69.1875 42.484375 
Q 69.1875 41.796875 68.40625 41.796875 
L 66.609375 41.796875 
Q 65.828125 41.796875 65.828125 42.921875 
Q 66.21875 45.125 66.21875 48.1875 
Q 66.21875 53.078125 64.546875 57.390625 
Q 62.890625 61.71875 59.390625 64.359375 
Q 55.90625 67 50.875 67 
Q 42.71875 67 35.9375 62.890625 
Q 29.15625 58.796875 24.4375 52.125 
Q 19.734375 45.453125 17.15625 37.328125 
Q 14.59375 29.203125 14.59375 21.578125 
" id="Cmmi10-43"/>
    </defs>
    <g transform="translate(42.88 111.12)scale(0.16 -0.16)">
     <use transform="translate(0.0 0.484375)" xlink:href="#Cmmi10-43"/>
     <use transform="translate(71.38671875 -16.521874999999994)scale(0.7)" xlink:href="#Cmmi10-66"/>
    </g>
   </g>
   <g id="text_2">
    <!-- $C_{r}$ -->
    <defs>
     <path d="M 7.71875 1.703125 
Q 7.71875 2.296875 7.8125 2.59375 
L 15.28125 32.421875 
Q 16.015625 35.203125 16.015625 37.3125 
Q 16.015625 41.609375 13.09375 41.609375 
Q 9.96875 41.609375 8.453125 37.859375 
Q 6.9375 34.125 5.515625 28.421875 
Q 5.515625 28.125 5.21875 27.953125 
Q 4.9375 27.78125 4.6875 27.78125 
L 3.515625 27.78125 
Q 3.171875 27.78125 2.921875 28.140625 
Q 2.6875 28.515625 2.6875 28.8125 
Q 3.765625 33.15625 4.765625 36.171875 
Q 5.765625 39.203125 7.890625 41.6875 
Q 10.015625 44.1875 13.1875 44.1875 
Q 16.65625 44.1875 19.265625 42.1875 
Q 21.875 40.1875 22.515625 36.921875 
Q 25.046875 40.234375 28.296875 42.203125 
Q 31.546875 44.1875 35.40625 44.1875 
Q 38.578125 44.1875 40.984375 42.328125 
Q 43.40625 40.484375 43.40625 37.3125 
Q 43.40625 34.765625 41.8125 32.875 
Q 40.234375 31 37.59375 31 
Q 35.984375 31 34.890625 32 
Q 33.796875 33.015625 33.796875 34.625 
Q 33.796875 36.8125 35.40625 38.546875 
Q 37.015625 40.28125 39.109375 40.28125 
Q 37.5 41.609375 35.203125 41.609375 
Q 30.90625 41.609375 27.734375 38.546875 
Q 24.5625 35.5 22.015625 30.8125 
L 14.890625 2.203125 
Q 14.546875 0.828125 13.34375 -0.140625 
Q 12.15625 -1.125 10.6875 -1.125 
Q 9.46875 -1.125 8.59375 -0.34375 
Q 7.71875 0.4375 7.71875 1.703125 
" id="Cmmi10-72"/>
    </defs>
    <g transform="translate(99.2 56.255)scale(0.16 -0.16)">
     <use transform="translate(0.0 0.484375)" xlink:href="#Cmmi10-43"/>
     <use transform="translate(71.38671875 -16.521874999999994)scale(0.7)" xlink:href="#Cmmi10-72"/>
    </g>
   </g>
   <g id="text_3">
    <!-- $C_{w}$ -->
    <defs>
     <path d="M 10.796875 11.625 
Q 10.796875 13.71875 11.359375 16.453125 
Q 11.921875 19.1875 12.59375 21.3125 
Q 13.28125 23.4375 14.90625 27.828125 
Q 16.546875 32.234375 16.703125 32.625 
Q 18.015625 36.28125 18.015625 38.625 
Q 18.015625 41.609375 15.828125 41.609375 
Q 11.859375 41.609375 9.296875 37.53125 
Q 6.734375 33.453125 5.515625 28.421875 
Q 5.328125 27.78125 4.6875 27.78125 
L 3.515625 27.78125 
Q 2.6875 27.78125 2.6875 28.71875 
L 2.6875 29 
Q 4.296875 34.96875 7.609375 39.578125 
Q 10.9375 44.1875 16.015625 44.1875 
Q 19.578125 44.1875 22.046875 41.84375 
Q 24.515625 39.5 24.515625 35.890625 
Q 24.515625 34.03125 23.6875 31.984375 
Q 22.515625 28.953125 20.921875 24.703125 
Q 19.34375 20.453125 18.453125 16.984375 
Q 17.578125 13.53125 17.578125 10.296875 
Q 17.578125 6.390625 19.625 3.953125 
Q 21.6875 1.515625 25.59375 1.515625 
Q 30.90625 1.515625 34.421875 9.625 
Q 34.28125 10.203125 34.28125 11.28125 
Q 34.28125 13.96875 35.109375 17.390625 
L 40.71875 39.890625 
Q 41.0625 41.21875 42.28125 42.15625 
Q 43.5 43.109375 44.921875 43.109375 
Q 46.09375 43.109375 47 42.328125 
Q 47.90625 41.546875 47.90625 40.28125 
Q 47.90625 39.703125 47.796875 39.5 
L 42.1875 17.1875 
Q 41.21875 13.1875 41.21875 10.015625 
Q 41.21875 6.25 42.9375 3.875 
Q 44.671875 1.515625 48.390625 1.515625 
Q 54.828125 1.515625 58.984375 10.015625 
Q 60.546875 13.03125 62.46875 18.9375 
Q 64.40625 24.859375 64.40625 27.984375 
Q 64.40625 30.859375 63.46875 32.546875 
Q 62.546875 34.234375 60.90625 36.1875 
Q 59.28125 38.140625 59.28125 39.109375 
Q 59.28125 41.015625 60.90625 42.640625 
Q 62.546875 44.28125 64.5 44.28125 
Q 66.890625 44.28125 67.9375 42.078125 
Q 69 39.890625 69 37.109375 
Q 69 33.734375 67.875 28.53125 
Q 66.75 23.34375 65.03125 18.09375 
Q 63.328125 12.84375 61.8125 9.71875 
Q 56.34375 -1.125 48.1875 -1.125 
Q 44 -1.125 40.53125 0.484375 
Q 37.0625 2.09375 35.40625 5.609375 
Q 33.796875 2.734375 31.171875 0.796875 
Q 28.5625 -1.125 25.390625 -1.125 
Q 18.796875 -1.125 14.796875 2.015625 
Q 10.796875 5.171875 10.796875 11.625 
" id="Cmmi10-77"/>
    </defs>
    <g transform="translate(153.92 112.415)scale(0.16 -0.16)">
     <use transform="translate(0.0 0.484375)" xlink:href="#Cmmi10-43"/>
     <use transform="translate(71.38671875 -16.521874999999994)scale(0.7)" xlink:href="#Cmmi10-77"/>
    </g>
   </g>
   <g id="text_4">
    <!-- $N_{f}$ -->
    <defs>
     <path d="M 4.6875 0 
Q 3.71875 0 3.71875 1.3125 
Q 3.765625 1.5625 3.90625 2.171875 
Q 4.046875 2.78125 4.3125 3.140625 
Q 4.59375 3.515625 4.984375 3.515625 
Q 14.546875 3.515625 16.109375 9.625 
L 29.6875 64.3125 
Q 26.90625 64.796875 20.90625 64.796875 
Q 19.921875 64.796875 19.921875 66.109375 
Q 19.96875 66.359375 20.109375 66.96875 
Q 20.265625 67.578125 20.53125 67.9375 
Q 20.796875 68.3125 21.1875 68.3125 
L 38.484375 68.3125 
Q 39.203125 68.3125 39.40625 67.671875 
L 61.625 14.796875 
L 72.703125 59.078125 
Q 72.90625 60.15625 72.90625 60.59375 
Q 72.90625 64.796875 65.1875 64.796875 
Q 64.203125 64.796875 64.203125 66.109375 
Q 64.546875 67.390625 64.734375 67.84375 
Q 64.9375 68.3125 65.921875 68.3125 
L 87.3125 68.3125 
Q 88.28125 68.3125 88.28125 67 
Q 88.234375 66.75 88.078125 66.140625 
Q 87.9375 65.53125 87.671875 65.15625 
Q 87.40625 64.796875 87.015625 64.796875 
Q 77.4375 64.796875 75.875 58.6875 
L 61.53125 0.875 
Q 61.1875 0 60.5 0 
L 59.28125 0 
Q 58.59375 0 58.40625 0.6875 
L 32.90625 61.1875 
L 32.71875 61.8125 
Q 32.515625 62.015625 32.515625 62.109375 
L 19.28125 9.1875 
Q 19.1875 8.9375 19.140625 8.5625 
Q 19.09375 8.203125 19 7.71875 
Q 19 5.125 21.234375 4.3125 
Q 23.484375 3.515625 26.8125 3.515625 
Q 27.78125 3.515625 27.78125 2.203125 
Q 27.4375 0.828125 27.1875 0.40625 
Q 26.953125 0 26.125 0 
z
" id="Cmmi10-4e"/>
    </defs>
    <g transform="translate(98.32 167.12)scale(0.16 -0.16)">
     <use transform="translate(0.0 0.6875)" xlink:href="#Cmmi10-4e"/>
     <use transform="translate(80.322265625 -16.318749999999994)scale(0.7)" xlink:href="#Cmmi10-66"/>
    </g>
   </g>
  </g>
 </g>
 <defs>
  <clipPath id="p975a26a8b4">
   <rect height="216.0" width="216.0" x="0.0" y="0.0"/>
  </clipPath>
 </defs>
</svg>
