<?xml version="1.0" encoding="utf-8" standalone="no"?>
<!DOCTYPE svg PUBLIC "-//W3C//DTD SVG 1.1//EN"
  "http://www.w3.org/Graphics/SVG/1.1/DTD/svg11.dtd">
<!-- Created with matplotlib (http://matplotlib.org/) -->
<svg height="504pt" version="1.1" viewBox="0 0 504 504" width="504pt" xmlns="http://www.w3.org/2000/svg" xmlns:xlink="http://www.w3.org/1999/xlink">
 <defs>
  <style type="text/css">
*{stroke-linecap:butt;stroke-linejoin:round;}
  </style>
 </defs>
 <g id="figure_1">
  <g id="patch_1">
   <path d="M 0 504 
L 504 504 
L 504 0 
L 0 0 
z
" style="fill:#ffffff;"/>
  </g>
  <g id="axes_1">
   <g id="patch_2">
    <path clip-path="url(#p56f3bf86fb)" d="M 100.8 322.56 
C 114.166236 322.56 126.986825 317.780584 136.438182 309.274364 
C 145.889538 300.768143 151.2 289.229613 151.2 277.2 
C 151.2 265.170387 145.889538 253.631857 136.438182 245.125636 
C 126.986825 236.619416 114.166236 231.84 100.8 231.84 
C 87.433764 231.84 74.613175 236.619416 65.161818 245.125636 
C 55.710462 253.631857 50.4 265.170387 50.4 277.2 
C 50.4 289.229613 55.710462 300.768143 65.161818 309.274364 
C 74.613175 317.780584 87.433764 322.56 100.8 322.56 
z
" style="fill:#0000ff;opacity:0.3;stroke:#0000ff;stroke-linejoin:miter;"/>
   </g>
   <g id="patch_3">
    <path clip-path="url(#p56f3bf86fb)" d="M 205.27663 193.140229 
C 218.642867 193.140229 231.463456 188.360814 240.914812 179.854593 
C 250.366169 171.348372 255.67663 159.809842 255.67663 147.780229 
C 255.67663 135.750617 250.366169 124.212086 240.914812 115.705866 
C 231.463456 107.199645 218.642867 102.420229 205.27663 102.420229 
C 191.910394 102.420229 179.089805 107.199645 169.638449 115.705866 
C 160.187092 124.212086 154.87663 135.750617 154.87663 147.780229 
C 154.87663 159.809842 160.187092 171.348372 169.638449 179.854593 
C 179.089805 188.360814 191.910394 193.140229 205.27663 193.140229 
z
" style="fill:#0000ff;opacity:0.3;stroke:#0000ff;stroke-linejoin:miter;"/>
   </g>
   <g id="patch_4">
    <path clip-path="url(#p56f3bf86fb)" d="M 229.997998 62.871054 
Q 226.732544 70.328736 224.612731 78.051156 
L 231.845193 80.036475 
Q 222.804698 89.078456 215.840914 101.415165 
Q 210.172811 88.437396 207.736986 73.418745 
L 214.969448 75.404064 
Q 217.281265 66.98218 220.837652 58.860063 
L 229.997998 62.871054 
z
" style="fill:#0000ff;opacity:0.5;stroke:#0000ff;stroke-linecap:round;"/>
   </g>
   <g id="patch_5">
    <path clip-path="url(#p56f3bf86fb)" d="M 162.736342 119.152164 
Q 156.591801 111.975575 149.512102 105.963209 
L 144.65726 111.679896 
Q 140.228448 99.631841 132.128716 88.019371 
Q 146.270711 88.538316 160.840066 92.624273 
L 155.985224 98.34096 
Q 163.670888 104.867936 170.332474 112.648412 
L 162.736342 119.152164 
z
" style="fill:#0000ff;opacity:0.5;stroke:#0000ff;stroke-linecap:round;"/>
   </g>
   <g id="patch_6">
    <path clip-path="url(#p56f3bf86fb)" d="M 374.32337 242.574183 
C 387.689606 242.574183 400.510195 237.794767 409.961551 229.288546 
C 419.412908 220.782326 424.72337 209.243795 424.72337 197.214183 
C 424.72337 185.18457 419.412908 173.64604 409.961551 165.139819 
C 400.510195 156.633599 387.689606 151.854183 374.32337 151.854183 
C 360.957133 151.854183 348.136544 156.633599 338.685188 165.139819 
C 329.233831 173.64604 323.92337 185.18457 323.92337 197.214183 
C 323.92337 209.243795 329.233831 220.782326 338.685188 229.288546 
C 348.136544 237.794767 360.957133 242.574183 374.32337 242.574183 
z
" style="fill:#0000ff;opacity:0.3;stroke:#0000ff;stroke-linejoin:miter;"/>
   </g>
   <g id="patch_7">
    <path clip-path="url(#p56f3bf86fb)" d="M 392.023201 151.192409 
Q 397.077643 144.409129 401.008206 137.076416 
L 394.397978 133.533129 
Q 405.22714 126.713138 414.788645 116.264629 
Q 417.385963 130.182044 416.43207 145.344088 
L 409.821843 141.8008 
Q 405.540268 149.788348 400.041897 157.1674 
L 392.023201 151.192409 
z
" style="fill:#0000ff;opacity:0.5;stroke:#0000ff;stroke-linecap:round;"/>
   </g>
   <g id="patch_8">
    <path clip-path="url(#p56f3bf86fb)" d="M 374.32337 402.545817 
C 387.689606 402.545817 400.510195 397.766401 409.961551 389.260181 
C 419.412908 380.75396 424.72337 369.21543 424.72337 357.185817 
C 424.72337 345.156205 419.412908 333.617674 409.961551 325.111454 
C 400.510195 316.605233 387.689606 311.825817 374.32337 311.825817 
C 360.957133 311.825817 348.136544 316.605233 338.685188 325.111454 
C 329.233831 333.617674 323.92337 345.156205 323.92337 357.185817 
C 323.92337 369.21543 329.233831 380.75396 338.685188 389.260181 
C 348.136544 397.766401 360.957133 402.545817 374.32337 402.545817 
z
" style="fill:#0000ff;opacity:0.3;stroke:#0000ff;stroke-linejoin:miter;"/>
   </g>
   <g id="patch_9">
    <path clip-path="url(#p56f3bf86fb)" d="M 427.732378 357.678023 
Q 437.847185 360.550083 448.12149 361.661926 
L 448.928398 354.205459 
Q 459.40687 361.687117 472.58053 366.859467 
Q 460.525135 374.258646 446.238704 379.060349 
L 447.045612 371.603882 
Q 435.929869 370.400982 425.000896 367.297742 
L 427.732378 357.678023 
z
" style="fill:#0000ff;opacity:0.5;stroke:#0000ff;stroke-linecap:round;"/>
   </g>
   <g id="patch_10">
    <path clip-path="url(#p56f3bf86fb)" d="M 205.27663 451.979771 
C 218.642867 451.979771 231.463456 447.200355 240.914812 438.694134 
C 250.366169 430.187914 255.67663 418.649383 255.67663 406.619771 
C 255.67663 394.590158 250.366169 383.051628 240.914812 374.545407 
C 231.463456 366.039186 218.642867 361.259771 205.27663 361.259771 
C 191.910394 361.259771 179.089805 366.039186 169.638449 374.545407 
C 160.187092 383.051628 154.87663 394.590158 154.87663 406.619771 
C 154.87663 418.649383 160.187092 430.187914 169.638449 438.694134 
C 179.089805 447.200355 191.910394 451.979771 205.27663 451.979771 
z
" style="fill:#0000ff;opacity:0.3;stroke:#0000ff;stroke-linejoin:miter;"/>
   </g>
   <g id="patch_11">
    <path clip-path="url(#p56f3bf86fb)" d="M 129.735263 461.990711 
Q 138.029383 457.466733 145.378343 451.786639 
L 140.791803 445.85253 
Q 153.4961 444.016537 166.534979 438.499044 
Q 163.096695 452.226517 156.080269 465.632894 
L 151.49373 459.698785 
Q 143.515758 465.865049 134.523713 470.769706 
L 129.735263 461.990711 
z
" style="fill:#0000ff;opacity:0.5;stroke:#0000ff;stroke-linecap:round;"/>
   </g>
   <g id="patch_12">
    <path clip-path="url(#p56f3bf86fb)" d="M 220.834338 452.728476 
Q 221.250435 460.859101 222.809565 468.71394 
L 230.166045 467.253731 
Q 226.126112 479.384969 225.417499 493.533698 
Q 214.542138 484.463064 205.644447 472.121094 
L 213.000926 470.660885 
Q 211.300577 462.094588 210.847407 453.239573 
L 220.834338 452.728476 
z
" style="fill:#0000ff;opacity:0.5;stroke:#0000ff;stroke-linecap:round;"/>
   </g>
   <g id="patch_13">
    <path clip-path="url(#p56f3bf86fb)" d="M 254.358291 164.985338 
Q 275.690044 176.852861 298.917532 182.9688 
L 300.827237 175.716006 
Q 310.482797 184.747099 322.171356 192.632852 
Q 308.836357 197.188235 294.461554 199.891987 
L 296.371259 192.639193 
Q 271.927512 186.203005 249.496682 173.724031 
L 254.358291 164.985338 
z
" style="fill:#0000ff;opacity:0.5;stroke:#0000ff;stroke-linecap:round;"/>
   </g>
   <g id="patch_14">
    <path clip-path="url(#p56f3bf86fb)" d="M 322.964674 209.454922 
Q 243.51432 216.076 171.306695 248.194595 
L 174.354819 255.047254 
Q 160.732659 254.261559 146.702897 254.371301 
Q 155.067209 243.109868 164.194406 232.205056 
L 167.24253 239.057716 
Q 240.996865 206.25113 322.134193 199.489467 
L 322.964674 209.454922 
z
" style="fill:#0000ff;opacity:0.5;stroke:#0000ff;stroke-linecap:round;"/>
   </g>
   <g id="patch_15">
    <path clip-path="url(#p56f3bf86fb)" d="M 256.746465 394.420225 
Q 281.285956 392.911402 304.308062 385.478384 
L 302.003707 378.341161 
Q 315.008231 380.736022 329.102787 381.079229 
Q 320.326309 392.10261 309.68489 402.131904 
L 307.380535 394.994681 
Q 283.158352 402.815161 257.360162 404.401376 
L 256.746465 394.420225 
z
" style="fill:#0000ff;opacity:0.5;stroke:#0000ff;stroke-linecap:round;"/>
   </g>
   <g id="patch_16">
    <path clip-path="url(#p56f3bf86fb)" d="M 325.316012 340.077134 
Q 254.901763 302.893109 176.862151 291.055561 
L 175.737369 298.470739 
Q 164.684544 290.468475 152.804952 283.00157 
Q 165.920284 278.021348 179.486641 273.753479 
L 178.361859 281.168657 
Q 258.074798 293.260026 329.985655 331.234372 
L 325.316012 340.077134 
z
" style="fill:#0000ff;opacity:0.5;stroke:#0000ff;stroke-linecap:round;"/>
   </g>
   <g id="patch_17">
    <path clip-path="url(#p56f3bf86fb)" d="M 346.08505 317.28517 
Q 311.965194 251.27559 258.701152 200.448034 
L 253.523405 205.873984 
Q 249.082901 192.991097 243.599881 180.071761 
Q 257.211211 183.482442 270.782563 187.787485 
L 265.604816 193.213434 
Q 320.079954 245.196688 354.968491 312.693386 
L 346.08505 317.28517 
z
" style="fill:#0000ff;opacity:0.5;stroke:#0000ff;stroke-linecap:round;"/>
   </g>
   <g id="patch_18">
    <path clip-path="url(#p56f3bf86fb)" d="M 208.670343 358.852695 
Q 222.951784 289.344012 214.075669 219.618277 
L 206.635711 220.565387 
Q 211.313844 207.78144 215.174579 194.286542 
Q 223.613964 205.498937 231.435573 217.408354 
L 223.995614 218.355464 
Q 233.081526 289.729246 218.465725 360.86528 
L 208.670343 358.852695 
z
" style="fill:#0000ff;opacity:0.5;stroke:#0000ff;stroke-linecap:round;"/>
   </g>
   <g id="patch_19">
    <path clip-path="url(#p56f3bf86fb)" d="M 152.158695 264.959261 
Q 231.609049 258.338183 303.816674 226.219588 
L 300.76855 219.366929 
Q 314.390711 220.152623 328.420472 220.042882 
Q 320.056161 231.304315 310.928963 242.209127 
L 307.880839 235.356467 
Q 234.126504 268.163053 152.989177 274.924716 
L 152.158695 264.959261 
z
" style="fill:#ff0000;opacity:0.5;stroke:#ff0000;stroke-linecap:round;"/>
   </g>
   <g id="patch_20">
    <path clip-path="url(#p56f3bf86fb)" d="M 201.882917 195.547305 
Q 187.601477 265.055988 196.477592 334.781723 
L 203.91755 333.834613 
Q 199.239417 346.61856 195.378682 360.113458 
Q 186.939297 348.901063 179.117688 336.991646 
L 186.557647 336.044536 
Q 177.471735 264.670754 192.087536 193.53472 
L 201.882917 195.547305 
z
" style="fill:#0000ff;opacity:0.5;stroke:#0000ff;stroke-linecap:round;"/>
   </g>
   <g id="patch_21">
    <path clip-path="url(#p56f3bf86fb)" d="M 340.320238 234.415387 
Q 282.864067 281.793084 244.334856 344.722665 
L 250.7312 348.638885 
Q 239.075328 355.697992 227.603384 363.781939 
Q 228.066244 349.758031 229.410053 335.584818 
L 235.806397 339.501038 
Q 275.210063 275.143213 333.958298 226.700095 
L 340.320238 234.415387 
z
" style="fill:#0000ff;opacity:0.5;stroke:#0000ff;stroke-linecap:round;"/>
   </g>
   <g id="text_1">
    <!-- $C_{s}$ -->
    <defs>
     <path d="M 74.703125 69.109375 
C 74.703125 70 74 70 73.796875 70 
C 73.59375 70 73.203125 70 72.40625 69 
L 65.5 60.65625 
C 62 66.625 56.5 70 49 70 
C 27.40625 70 5 48.25 5 24.921875 
C 5 8.328125 16.703125 -2 31.296875 -2 
C 39.296875 -2 46.296875 1.375 52.09375 6.25 
C 60.796875 13.484375 63.40625 23.140625 63.40625 23.921875 
C 63.40625 24.8125 62.59375 24.8125 62.296875 24.8125 
C 61.40625 24.8125 61.296875 24.21875 61.09375 23.8125 
C 56.5 8.34375 43 0.890625 33 0.890625 
C 22.40625 0.890625 13.203125 7.640625 13.203125 21.734375 
C 13.203125 24.921875 14.203125 42.1875 25.5 55.1875 
C 31 61.546875 40.40625 67.109375 49.90625 67.109375 
C 60.90625 67.109375 65.796875 58.078125 65.796875 47.9375 
C 65.796875 45.359375 65.5 43.1875 65.5 42.78125 
C 65.5 41.890625 66.5 41.890625 66.796875 41.890625 
C 67.90625 41.890625 68 41.984375 68.40625 43.765625 
z
" id="CMMI12-67"/>
     <path d="M 22.796875 20 
C 24.5 19.703125 27.203125 19.109375 27.796875 19 
C 29.09375 18.625 33.59375 17.03125 33.59375 12.234375 
C 33.59375 9.15625 30.796875 1.09375 19.203125 1.09375 
C 17.09375 1.09375 9.59375 1.09375 7.59375 6.8125 
C 11.59375 6.3125 13.59375 9.421875 13.59375 11.640625 
C 13.59375 13.75 12.203125 14.84375 10.203125 14.84375 
C 8 14.84375 5.09375 13.140625 5.09375 8.625 
C 5.09375 2.703125 11.09375 -1 19.09375 -1 
C 34.296875 -1 38.796875 10.171875 38.796875 15.375 
C 38.796875 16.859375 38.796875 19.65625 35.59375 22.84375 
C 33.09375 25.25 30.703125 25.75 25.296875 26.84375 
C 22.59375 27.4375 18.296875 28.34375 18.296875 32.828125 
C 18.296875 34.828125 20.09375 42.015625 29.59375 42.015625 
C 33.796875 42.015625 37.90625 40.453125 38.90625 37 
C 34.5 37 34.296875 33.203125 34.296875 33.109375 
C 34.296875 31 36.203125 30.40625 37.09375 30.40625 
C 38.5 30.40625 41.296875 31.484375 41.296875 35.640625 
C 41.296875 39.765625 37.5 44 29.703125 44 
C 16.59375 44 13.09375 33.75 13.09375 29.671875 
C 13.09375 22.09375 20.5 20.5 22.796875 20 
z
" id="CMMI12-115"/>
    </defs>
    <g transform="translate(88.565172 283.176824)scale(0.24 -0.24)">
     <use transform="translate(0 14.943915)scale(0.996264)" xlink:href="#CMMI12-67"/>
     <use transform="translate(69.792037 0)scale(0.697382)" xlink:href="#CMMI12-115"/>
    </g>
   </g>
   <g id="text_2">
    <!-- $C_{f}$ -->
    <defs>
     <path d="M 44.59375 40.09375 
C 46.59375 40.09375 47.40625 40.09375 47.40625 42 
C 47.40625 43 46.59375 43 44.796875 43 
L 36.703125 43 
C 38.59375 53.578125 40 60.890625 40.796875 64.171875 
C 41.40625 66.640625 43.5 69 46.09375 69 
C 48.203125 69 50.296875 68.09375 51.296875 67.15625 
C 47.40625 66.75 46.203125 63.78125 46.203125 62.015625 
C 46.203125 59.953125 47.703125 58.734375 49.59375 58.734375 
C 51.59375 58.734375 54.59375 60.46875 54.59375 64.359375 
C 54.59375 68.640625 50.40625 71 46 71 
C 41.703125 71 37.5 67.71875 35.5 63.71875 
C 33.703125 60.125 32.703125 56.421875 30.40625 43 
L 23.703125 43 
C 21.796875 43 20.796875 43 20.796875 41.203125 
C 20.796875 40.09375 21.40625 40.09375 23.40625 40.09375 
L 29.796875 40.09375 
C 28 30.875 23.90625 8.46875 21.59375 -2.140625 
C 19.90625 -10.765625 18.40625 -18 13.40625 -18 
C 13.09375 -18 10.203125 -18 8.40625 -16.109375 
C 13.5 -15.703125 13.5 -11.34375 13.5 -11.25 
C 13.5 -9.265625 12 -8.078125 10.09375 -8.078125 
C 8.09375 -8.078125 5.09375 -9.765625 5.09375 -13.546875 
C 5.09375 -17.8125 9.5 -20 13.40625 -20 
C 23.59375 -20 27.796875 -1.84375 28.90625 3.109375 
C 30.703125 10.75 35.59375 37.125 36.09375 40.09375 
z
" id="CMMI12-102"/>
    </defs>
    <g transform="translate(192.862619 154.719318)scale(0.24 -0.24)">
     <use transform="translate(0 14.943915)scale(0.996264)" xlink:href="#CMMI12-67"/>
     <use transform="translate(69.792037 0)scale(0.697382)" xlink:href="#CMMI12-102"/>
    </g>
   </g>
   <g id="text_3">
    <!-- $C_{ds}$ -->
    <defs>
     <path d="M 50.296875 66.515625 
C 50.40625 66.90625 50.59375 67.5 50.59375 68 
C 50.59375 69 49.59375 69 49.40625 69 
C 49.296875 69 44.40625 68.5625 43.90625 68.4375 
C 42.203125 68.328125 40.703125 68.09375 38.90625 68.09375 
C 36.40625 67.890625 35.703125 67.796875 35.703125 66 
C 35.703125 65 36.5 65 37.90625 65 
C 42.796875 65 42.90625 64.109375 42.90625 63.125 
C 42.90625 62.53125 42.703125 61.75 42.59375 61.453125 
L 36.5 37.421875 
C 35.40625 40.015625 32.703125 44 27.5 44 
C 16.203125 44 4 29.4375 4 14.671875 
C 4 4.796875 9.796875 -1 16.59375 -1 
C 22.09375 -1 26.796875 3.296875 29.59375 6.59375 
C 30.59375 0.703125 35.296875 -1 38.296875 -1 
C 41.296875 -1 43.703125 0.796875 45.5 4.390625 
C 47.09375 7.78125 48.5 13.875 48.5 14.265625 
C 48.5 14.765625 48.09375 15.171875 47.5 15.171875 
C 46.59375 15.171875 46.5 14.671875 46.09375 13.171875 
C 44.59375 7.28125 42.703125 1 38.59375 1 
C 35.703125 1 35.5 3.578125 35.5 5.578125 
C 35.5 5.96875 35.5 8.046875 36.203125 10.84375 
z
M 30.09375 11.875 
C 29.59375 10.171875 29.59375 9.984375 28.203125 8.078125 
C 26 5.28125 21.59375 1 16.90625 1 
C 12.796875 1 10.5 4.6875 10.5 10.578125 
C 10.5 16.0625 13.59375 27.234375 15.5 31.4375 
C 18.90625 38.421875 23.59375 42.015625 27.5 42.015625 
C 34.09375 42.015625 35.40625 33.828125 35.40625 33.03125 
C 35.40625 32.9375 35.09375 31.625 35 31.4375 
z
" id="CMMI12-100"/>
    </defs>
    <g transform="translate(357.830682 203.191007)scale(0.24 -0.24)">
     <use transform="translate(0 14.943915)scale(0.996264)" xlink:href="#CMMI12-67"/>
     <use transform="translate(69.792037 0)scale(0.697382)" xlink:href="#CMMI12-100"/>
     <use transform="translate(105.274243 0)scale(0.697382)" xlink:href="#CMMI12-115"/>
    </g>
   </g>
   <g id="text_4">
    <!-- $C_{df}$ -->
    <g transform="translate(359.017197 364.124906)scale(0.24 -0.24)">
     <use transform="translate(0 14.943915)scale(0.996264)" xlink:href="#CMMI12-67"/>
     <use transform="translate(69.792037 0)scale(0.697382)" xlink:href="#CMMI12-100"/>
     <use transform="translate(93.893474 0)scale(0.697382)" xlink:href="#CMMI12-102"/>
    </g>
   </g>
   <g id="text_5">
    <!-- $N$ -->
    <defs>
     <path d="M 74 57.78125 
C 75.09375 62.09375 76.703125 65.09375 84.296875 65.09375 
C 84.59375 65.09375 85.796875 65.09375 85.796875 66.859375 
C 85.796875 68 84.90625 68 84.5 68 
C 82.5 68 77.40625 68 75.40625 68 
L 70.59375 68 
C 69.203125 68 67.40625 68 66 68 
C 65.40625 68 64.203125 68 64.203125 66.09375 
C 64.203125 65.09375 65 65.09375 65.703125 65.09375 
C 71.703125 65.09375 72.09375 62.796875 72.09375 60.984375 
C 72.09375 60.09375 72 59.78125 71.703125 58.390625 
L 60.40625 13.28125 
L 39 66.390625 
C 38.296875 68 38.203125 68 36 68 
L 23.796875 68 
C 21.796875 68 20.90625 68 20.90625 66.09375 
C 20.90625 65.09375 21.59375 65.09375 23.5 65.09375 
C 24 65.09375 29.90625 65.09375 29.90625 64.296875 
C 29.90625 64.09375 29.703125 63.296875 29.59375 63 
L 16.296875 9.921875 
C 15.09375 5 12.703125 2.90625 6.09375 2.90625 
C 5.59375 2.90625 4.59375 2.90625 4.59375 1.046875 
C 4.59375 0 5.59375 0 5.90625 0 
C 7.90625 0 13 0 15 0 
L 19.796875 0 
C 21.203125 0 22.90625 0 24.296875 0 
C 25 0 26.09375 0 26.09375 1.90625 
C 26.09375 2.8125 25.09375 2.90625 24.703125 2.90625 
C 21.40625 2.90625 18.203125 3.5 18.203125 7.09375 
C 18.203125 7.890625 18.40625 8.78125 18.59375 9.578125 
L 32.09375 63 
C 32.703125 62 32.703125 61.8125 33.09375 60.90625 
L 56.90625 1.796875 
C 57.40625 0.59375 57.59375 0 58.5 0 
C 59.5 0 59.59375 0.296875 60 2 
z
" id="CMMI12-78"/>
    </defs>
    <g transform="translate(195.902816 412.596595)scale(0.24 -0.24)">
     <use transform="scale(0.996264)" xlink:href="#CMMI12-78"/>
    </g>
   </g>
   <g id="legend_1">
    <g id="patch_22">
     <path d="M 101.975204 26.977178 
L 402.024796 26.977178 
Q 404.024796 26.977178 404.024796 24.977178 
L 404.024796 12.04 
Q 404.024796 10.04 402.024796 10.04 
L 101.975204 10.04 
Q 99.975204 10.04 99.975204 12.04 
L 99.975204 24.977178 
Q 99.975204 26.977178 101.975204 26.977178 
z
" style="fill:#ffffff;opacity:0.8;stroke:#cccccc;stroke-linejoin:miter;"/>
    </g>
    <g id="patch_23">
     <path d="M 103.975204 21.04 
L 123.975204 21.04 
L 123.975204 14.04 
L 103.975204 14.04 
z
" style="fill:#0000ff;opacity:0.5;stroke:#0000ff;stroke-linejoin:miter;"/>
    </g>
    <g id="text_6">
     <!-- linear -->
     <defs>
      <path d="M 15.296875 68.6875 
L 3.40625 67.59375 
L 3.40625 65 
C 9.296875 65 10.203125 64.40625 10.203125 59.640625 
L 10.203125 6.65625 
C 10.203125 2.875 9.796875 2.390625 3.40625 2.390625 
L 3.40625 -0.203125 
C 5.796875 0 10.203125 0 12.703125 0 
C 15.296875 0 19.703125 0 22.09375 -0.203125 
L 22.09375 2.390625 
C 15.703125 2.390625 15.296875 2.78125 15.296875 6.65625 
z
" id="CMR17-108"/>
      <path d="M 15.5 61.078125 
C 15.5 63.265625 13.703125 65.15625 11.40625 65.15625 
C 9.203125 65.15625 7.296875 63.375 7.296875 61.078125 
C 7.296875 58.890625 9.09375 57 11.40625 57 
C 13.59375 57 15.5 58.796875 15.5 61.078125 
z
M 3.796875 42.28125 
L 3.796875 39.703125 
C 9.40625 39.703125 10.203125 39.09375 10.203125 34.328125 
L 10.203125 6.671875 
C 10.203125 2.875 9.796875 2.390625 3.40625 2.390625 
L 3.40625 -0.203125 
C 5.796875 0 10.09375 0 12.59375 0 
C 15 0 19.09375 0 21.40625 -0.203125 
L 21.40625 2.390625 
C 15.5 2.390625 15.296875 2.984375 15.296875 6.5625 
L 15.296875 43.375 
z
" id="CMR17-105"/>
      <path d="M 41.5 30.203125 
C 41.5 35.296875 40.5 43.59375 28.703125 43.59375 
C 20.796875 43.59375 16.703125 37.5 15.203125 33.5 
L 15.09375 33.5 
L 15.09375 43.59375 
L 3.296875 42.5 
L 3.296875 39.90625 
C 9.203125 39.90625 10.09375 39.296875 10.09375 34.5 
L 10.09375 6.6875 
C 10.09375 2.875 9.703125 2.390625 3.296875 2.390625 
L 3.296875 -0.203125 
C 5.703125 0 10.09375 0 12.703125 0 
C 15.296875 0 19.796875 0 22.203125 -0.203125 
L 22.203125 2.390625 
C 15.796875 2.390625 15.40625 2.78125 15.40625 6.6875 
L 15.40625 25.90625 
C 15.40625 35.109375 21 42 28 42 
C 35.40625 42 36.203125 35.40625 36.203125 30.59375 
L 36.203125 6.6875 
C 36.203125 2.875 35.796875 2.390625 29.40625 2.390625 
L 29.40625 -0.203125 
C 31.796875 0 36.203125 0 38.796875 0 
C 41.40625 0 45.90625 0 48.296875 -0.203125 
L 48.296875 2.390625 
C 41.90625 2.390625 41.5 2.78125 41.5 6.6875 
z
" id="CMR17-110"/>
      <path d="M 38.09375 23 
C 38.5 23.40625 38.5 23.609375 38.5 24.625 
C 38.5 34.96875 33.09375 44 21.703125 44 
C 11.09375 44 2.703125 33.890625 2.703125 21.609375 
C 2.703125 8.609375 12.203125 -1 22.796875 -1 
C 34 -1 38.40625 9.484375 38.40625 11.5625 
C 38.40625 12.25 37.796875 12.25 37.59375 12.25 
C 36.90625 12.25 36.796875 12.046875 36.40625 10.875 
C 34.203125 4.140625 28.703125 0.796875 23.5 0.796875 
C 19.203125 0.796875 14.90625 3.171875 12.203125 7.5 
C 9.09375 12.546875 9.09375 18.375 9.09375 23 
z
M 9.203125 24.5 
C 9.90625 39.140625 17.59375 42.40625 21.59375 42.40625 
C 28.40625 42.40625 33 35.890625 33.09375 24.5 
z
" id="CMR17-101"/>
      <path d="M 36 25.828125 
C 36 32.375 36 35.84375 31.796875 39.734375 
C 28.09375 43 23.796875 44 20.40625 44 
C 12.5 44 6.796875 37.609375 6.796875 30.796875 
C 6.796875 27 9.796875 27 10.40625 27 
C 11.703125 27 14 27.78125 14 30.53125 
C 14 33 12.09375 34.078125 10.40625 34.078125 
C 10 34.078125 9.5 33.96875 9.203125 33.875 
C 11.296875 40.5 16.703125 42.40625 20.203125 42.40625 
C 25.203125 42.40625 30.703125 37.953125 30.703125 29.453125 
L 30.703125 25 
C 24.796875 25 17.703125 24.203125 12.09375 21.203125 
C 5.796875 17.703125 4 12.703125 4 8.90625 
C 4 1.203125 13 -1 18.296875 -1 
C 23.796875 -1 28.90625 2.171875 31.09375 7.984375 
C 31.296875 3.640625 34.09375 -0.28125 38.5 -0.28125 
C 40.59375 -0.28125 45.90625 1.09375 45.90625 8.859375 
L 45.90625 14.375 
L 44.09375 14.375 
L 44.09375 8.78125 
C 44.09375 2.78125 41.40625 2 40.09375 2 
C 36 2 36 7.15625 36 11.53125 
z
M 30.703125 13.59375 
C 30.703125 4.953125 24.5 0.59375 19 0.59375 
C 14 0.59375 10.09375 4.296875 10.09375 8.90625 
C 10.09375 11.890625 11.40625 17.1875 17.203125 20.390625 
C 22 23.09375 27.5 23.5 30.703125 23.5 
z
" id="CMR17-97"/>
      <path d="M 15 23.390625 
C 15 33 19.09375 42 26.59375 42 
C 27.296875 42 28 41.90625 28.703125 41.59375 
C 28.703125 41.59375 26.5 40.890625 26.5 38.3125 
C 26.5 35.90625 28.40625 34.90625 29.90625 34.90625 
C 31.09375 34.90625 33.296875 35.609375 33.296875 38.40625 
C 33.296875 41.609375 30.09375 43.59375 26.703125 43.59375 
C 19.09375 43.59375 15.796875 36.203125 14.796875 32.703125 
L 14.703125 32.703125 
L 14.703125 43.59375 
L 3.09375 42.5 
L 3.09375 39.90625 
C 9 39.90625 9.90625 39.296875 9.90625 34.5 
L 9.90625 6.6875 
C 9.90625 2.875 9.5 2.390625 3.09375 2.390625 
L 3.09375 -0.203125 
C 5.5 0 10.09375 0 12.703125 0 
C 15.59375 0 20.703125 0 23.40625 -0.203125 
L 23.40625 2.390625 
C 16.203125 2.390625 15 2.390625 15 6.875 
z
" id="CMR17-114"/>
     </defs>
     <g transform="translate(131.975204 21.04)scale(0.1 -0.1)">
      <use transform="scale(0.996264)" xlink:href="#CMR17-108"/>
      <use transform="translate(24.871058 0)scale(0.996264)" xlink:href="#CMR17-105"/>
      <use transform="translate(49.742117 0)scale(0.996264)" xlink:href="#CMR17-110"/>
      <use transform="translate(100.637487 0)scale(0.996264)" xlink:href="#CMR17-101"/>
      <use transform="translate(141.123147 0)scale(0.996264)" xlink:href="#CMR17-97"/>
      <use transform="translate(186.813624 0)scale(0.996264)" xlink:href="#CMR17-114"/>
     </g>
    </g>
    <g id="patch_24">
     <path d="M 176.35605 21.04 
L 196.35605 21.04 
L 196.35605 14.04 
L 176.35605 14.04 
z
" style="fill:#008000;opacity:0.5;stroke:#008000;stroke-linejoin:miter;"/>
    </g>
    <g id="text_7">
     <!-- nonlinear -->
     <defs>
      <path d="M 43.09375 21.1875 
C 43.09375 34 33.796875 44 22.90625 44 
C 12 44 2.703125 34 2.703125 21.1875 
C 2.703125 8.609375 12 -1 22.90625 -1 
C 33.796875 -1 43.09375 8.609375 43.09375 21.1875 
z
M 22.90625 0.796875 
C 18.203125 0.796875 14.203125 3.59375 11.90625 7.5 
C 9.40625 11.984375 9.09375 17.59375 9.09375 22 
C 9.09375 26.203125 9.296875 31.40625 11.90625 35.90625 
C 13.90625 39.203125 17.796875 42.40625 22.90625 42.40625 
C 27.40625 42.40625 31.203125 39.90625 33.59375 36.40625 
C 36.703125 31.703125 36.703125 25.109375 36.703125 22 
C 36.703125 18.09375 36.5 12.109375 33.796875 7.296875 
C 31 2.703125 26.703125 0.796875 22.90625 0.796875 
z
" id="CMR17-111"/>
     </defs>
     <g transform="translate(204.35605 21.04)scale(0.1 -0.1)">
      <use transform="scale(0.996264)" xlink:href="#CMR17-110"/>
      <use transform="translate(50.89537 0)scale(0.996264)" xlink:href="#CMR17-111"/>
      <use transform="translate(96.585847 0)scale(0.996264)" xlink:href="#CMR17-110"/>
      <use transform="translate(147.481217 0)scale(0.996264)" xlink:href="#CMR17-108"/>
      <use transform="translate(172.352275 0)scale(0.996264)" xlink:href="#CMR17-105"/>
      <use transform="translate(197.223334 0)scale(0.996264)" xlink:href="#CMR17-110"/>
      <use transform="translate(248.118703 0)scale(0.996264)" xlink:href="#CMR17-101"/>
      <use transform="translate(288.604364 0)scale(0.996264)" xlink:href="#CMR17-97"/>
      <use transform="translate(334.294841 0)scale(0.996264)" xlink:href="#CMR17-114"/>
     </g>
    </g>
    <g id="patch_25">
     <path d="M 264.787866 21.04 
L 284.787866 21.04 
L 284.787866 14.04 
L 264.787866 14.04 
z
" style="fill:#ff0000;opacity:0.5;stroke:#ff0000;stroke-linejoin:miter;"/>
    </g>
    <g id="text_8">
     <!-- no substrate dependence -->
     <defs>
      <path d="M 30.90625 42.140625 
C 30.90625 43.953125 30.796875 44.046875 30.203125 44.046875 
C 29.796875 44.046875 29.703125 43.953125 28.5 42.453125 
C 28.203125 42.046875 27.296875 41.03125 27 40.640625 
C 23.796875 44.046875 19.296875 44.046875 17.59375 44.046875 
C 6.5 44.046875 2.5 38.234375 2.5 32.4375 
C 2.5 23.40625 12.703125 21.328125 15.59375 20.703125 
C 21.90625 19.421875 24.09375 19.015625 26.203125 17.203125 
C 27.5 16.015625 29.703125 13.8125 29.703125 10.21875 
C 29.703125 6 27.296875 0.59375 18.09375 0.59375 
C 9.40625 0.59375 6.296875 7.1875 4.5 15.953125 
C 4.203125 17.34375 4.203125 17.453125 3.40625 17.453125 
C 2.59375 17.453125 2.5 17.34375 2.5 15.359375 
L 2.5 0.984375 
C 2.5 -0.796875 2.59375 -0.90625 3.203125 -0.90625 
C 3.703125 -0.90625 3.796875 -0.796875 4.296875 0 
C 4.90625 0.890625 6.40625 3.296875 7 4.3125 
C 9 1.609375 12.5 -1 18.09375 -1 
C 28 -1 33.296875 4.421875 33.296875 12.25 
C 33.296875 17.375 30.59375 20.078125 29.296875 21.28125 
C 26.296875 24.390625 22.796875 25.09375 18.59375 25.890625 
C 13.09375 27.109375 6.09375 28.515625 6.09375 34.640625 
C 6.09375 37.234375 7.5 42.765625 17.59375 42.765625 
C 28.296875 42.765625 28.90625 32.71875 29.09375 29.5 
C 29.203125 29 29.703125 28.890625 30 28.890625 
C 30.90625 28.890625 30.90625 29.203125 30.90625 30.90625 
z
" id="CMR17-115"/>
      <path d="M 29.40625 42.078125 
L 29.40625 39.5 
C 35.296875 39.5 36.203125 38.890625 36.203125 34.15625 
L 36.203125 16.125 
C 36.203125 7.8125 31.703125 0.59375 24.296875 0.59375 
C 16.09375 0.59375 15.40625 5.4375 15.40625 10.59375 
L 15.40625 43.171875 
L 3.296875 42.078125 
L 3.296875 39.5 
C 7.296875 39.5 10 39.5 10.09375 35.53125 
L 10.09375 16.53125 
C 10.09375 9.890625 10.09375 5.640625 12.703125 2.859375 
C 14 1.578125 16.5 -1 23.703125 -1 
C 32.203125 -1 35.5 5.890625 36.296875 7.90625 
L 36.40625 7.90625 
L 36.40625 -0.984375 
L 48.296875 -0.984375 
L 48.296875 2 
C 42.40625 2 41.5 2.59375 41.5 7.390625 
L 41.5 43.171875 
z
" id="CMR17-117"/>
      <path d="M 15 68.6875 
L 3.09375 67.59375 
L 3.09375 65 
C 9 65 9.90625 64.40625 9.90625 59.640625 
L 9.90625 -0.203125 
L 11.703125 -0.203125 
L 14.59375 6.890625 
C 17.5 2.203125 21.796875 -1 27.59375 -1 
C 37.59375 -1 47.703125 7.8125 47.703125 21.40625 
C 47.703125 34.1875 38.703125 43.59375 28.59375 43.59375 
C 22.40625 43.59375 18 40.296875 15 36.40625 
z
M 15.203125 31.3125 
C 15.203125 33.09375 15.203125 33.40625 16.59375 35.5 
C 20.5 41.515625 26.09375 42 28 42 
C 31 42 41.296875 40.390625 41.296875 21.5 
C 41.296875 1.6875 29.5 0.59375 27.09375 0.59375 
C 24 0.59375 19.5 1.78125 16.296875 7.59375 
C 15.203125 9.5 15.203125 9.703125 15.203125 11.484375 
z
" id="CMR17-98"/>
      <path d="M 15.09375 40 
L 29.09375 40 
L 29.09375 42.578125 
L 15.09375 42.578125 
L 15.09375 61 
L 13.296875 61 
C 13.09375 50.703125 9.59375 41.6875 1.09375 41.6875 
L 1.09375 40 
L 9.796875 40 
L 9.796875 12.046875 
C 9.796875 10.15625 9.796875 -1 21.40625 -1 
C 27.296875 -1 30.703125 4.78125 30.703125 12.140625 
L 30.703125 17.8125 
L 28.90625 17.8125 
L 28.90625 12.234375 
C 28.90625 5.375 26.203125 0.796875 22 0.796875 
C 19.09375 0.796875 15.09375 2.78125 15.09375 11.84375 
z
" id="CMR17-116"/>
      <path d="M 29.203125 67.59375 
L 29.203125 65 
C 35.09375 65 36 64.40625 36 59.6875 
L 36 36.640625 
C 35.59375 37.140625 31.5 43.59375 23.40625 43.59375 
C 13.203125 43.59375 3.296875 34.5 3.296875 21.3125 
C 3.296875 8.203125 12.59375 -1 22.40625 -1 
C 30.90625 -1 35.296875 5.265625 35.796875 5.9375 
L 35.796875 -0.984375 
L 47.90625 -0.984375 
L 47.90625 2 
C 42 2 41.09375 2.59375 41.09375 7.390625 
L 41.09375 68.6875 
z
M 35.796875 11.796875 
C 35.796875 8.796875 34 6.09375 31.703125 4.09375 
C 28.296875 1.09375 24.90625 0.59375 23 0.59375 
C 20.09375 0.59375 9.703125 2.09375 9.703125 21.1875 
C 9.703125 40.8125 21.296875 42 23.90625 42 
C 28.5 42 32.203125 39.40625 34.5 35.796875 
C 35.796875 33.703125 35.796875 33.40625 35.796875 31.609375 
z
" id="CMR17-100"/>
      <path d="M 22 -16.609375 
C 15.59375 -16.609375 15.203125 -16.203125 15.203125 -12.328125 
L 15.203125 6.28125 
C 18.09375 2.09375 22.296875 -0.59375 27.59375 -0.59375 
C 37.59375 -0.59375 47.703125 8.171875 47.703125 21.6875 
C 47.703125 34.234375 39 43.78125 28.703125 43.78125 
C 22.703125 43.78125 17.796875 40.5 15 36.53125 
L 15 43.78125 
L 3.09375 42.6875 
L 3.09375 40.109375 
C 9 40.109375 9.90625 39.5 9.90625 34.734375 
L 9.90625 -12.328125 
C 9.90625 -16.109375 9.5 -16.609375 3.09375 -16.609375 
L 3.09375 -19.1875 
C 5.5 -19 9.90625 -19 12.5 -19 
C 15.09375 -19 19.59375 -19 22 -19.1875 
z
M 15.203125 31.4375 
C 15.203125 32.84375 15.203125 34.921875 19.09375 38.609375 
C 19.59375 39.015625 23 42 28 42 
C 35.296875 42 41.296875 32.9375 41.296875 21.59375 
C 41.296875 10.25 34.90625 1 27 1 
C 23.40625 1 19.5 2.6875 16.5 7.375 
C 15.203125 9.5625 15.203125 10.15625 15.203125 11.75 
z
" id="CMR17-112"/>
      <path d="M 34.90625 35 
C 33 35 30.203125 35 30.203125 31.515625 
C 30.203125 28.71875 32.5 27.921875 33.796875 27.921875 
C 34.5 27.921875 37.40625 28.234375 37.40625 31.625 
C 37.40625 38.546875 30.59375 43.796875 22.90625 43.796875 
C 12.296875 43.796875 3.296875 34.03125 3.296875 21.296875 
C 3.296875 8.0625 12.703125 -1 22.90625 -1 
C 35.296875 -1 38.40625 10.578125 38.40625 11.6875 
C 38.40625 12.09375 38.296875 12.390625 37.59375 12.390625 
C 36.90625 12.390625 36.796875 12.296875 36.40625 10.984375 
C 33.796875 2.8125 28.09375 0.796875 23.796875 0.796875 
C 17.40625 0.796875 9.703125 6.671875 9.703125 21.390625 
C 9.703125 36.53125 17.09375 42 23 42 
C 26.90625 42 32.703125 40.203125 34.90625 35 
z
" id="CMR17-99"/>
     </defs>
     <g transform="translate(292.787866 21.04)scale(0.1 -0.1)">
      <use transform="scale(0.996264)" xlink:href="#CMR17-110"/>
      <use transform="translate(50.89537 0)scale(0.996264)" xlink:href="#CMR17-111"/>
      <use transform="translate(126.661813 0)scale(0.996264)" xlink:href="#CMR17-115"/>
      <use transform="translate(162.463151 0)scale(0.996264)" xlink:href="#CMR17-117"/>
      <use transform="translate(213.358521 0)scale(0.996264)" xlink:href="#CMR17-98"/>
      <use transform="translate(264.25389 0)scale(0.996264)" xlink:href="#CMR17-115"/>
      <use transform="translate(300.055228 0)scale(0.996264)" xlink:href="#CMR17-116"/>
      <use transform="translate(335.335996 0)scale(0.996264)" xlink:href="#CMR17-114"/>
      <use transform="translate(370.616764 0)scale(0.996264)" xlink:href="#CMR17-97"/>
      <use transform="translate(416.307241 0)scale(0.996264)" xlink:href="#CMR17-116"/>
      <use transform="translate(451.588009 0)scale(0.996264)" xlink:href="#CMR17-101"/>
      <use transform="translate(522.149635 0)scale(0.996264)" xlink:href="#CMR17-100"/>
      <use transform="translate(573.045005 0)scale(0.996264)" xlink:href="#CMR17-101"/>
      <use transform="translate(613.530666 0)scale(0.996264)" xlink:href="#CMR17-112"/>
      <use transform="translate(667.028474 0)scale(0.996264)" xlink:href="#CMR17-101"/>
      <use transform="translate(707.514135 0)scale(0.996264)" xlink:href="#CMR17-110"/>
      <use transform="translate(758.409504 0)scale(0.996264)" xlink:href="#CMR17-100"/>
      <use transform="translate(809.304874 0)scale(0.996264)" xlink:href="#CMR17-101"/>
      <use transform="translate(849.790535 0)scale(0.996264)" xlink:href="#CMR17-110"/>
      <use transform="translate(900.685904 0)scale(0.996264)" xlink:href="#CMR17-99"/>
      <use transform="translate(941.171565 0)scale(0.996264)" xlink:href="#CMR17-101"/>
     </g>
    </g>
   </g>
  </g>
 </g>
 <defs>
  <clipPath id="p56f3bf86fb">
   <rect height="453.6" width="504" x="0" y="50.4"/>
  </clipPath>
 </defs>
</svg>
