<?xml version="1.0" encoding="utf-8" standalone="no"?>
<!DOCTYPE svg PUBLIC "-//W3C//DTD SVG 1.1//EN"
  "http://www.w3.org/Graphics/SVG/1.1/DTD/svg11.dtd">
<!-- Created with matplotlib (http://matplotlib.org/) -->
<svg height="216pt" version="1.1" viewBox="0 0 216 216" width="216pt" xmlns="http://www.w3.org/2000/svg" xmlns:xlink="http://www.w3.org/1999/xlink">
 <defs>
  <style type="text/css">
*{stroke-linecap:butt;stroke-linejoin:round;}
  </style>
 </defs>
 <g id="figure_1">
  <g id="patch_1">
   <path d="M 0 216 
L 216 216 
L 216 0 
L 0 0 
z
" style="fill:none;"/>
  </g>
  <g id="axes_1">
   <g id="patch_2">
    <path clip-path="url(#p71ddb7e7e7)" d="M 60.48 125.712 
C 64.9195 125.712 69.177767 123.959548 72.316968 120.8406 
C 75.456168 117.721652 77.22 113.490858 77.22 109.08 
C 77.22 104.669142 75.456168 100.438348 72.316968 97.3194 
C 69.177767 94.200452 64.9195 92.448 60.48 92.448 
C 56.0405 92.448 51.782233 94.200452 48.643032 97.3194 
C 45.503832 100.438348 43.74 104.669142 43.74 109.08 
C 43.74 113.490858 45.503832 117.721652 48.643032 120.8406 
C 51.782233 123.959548 56.0405 125.712 60.48 125.712 
z
" style="fill:#0000ff;opacity:0.3;stroke:#0000ff;stroke-linejoin:miter;"/>
   </g>
   <g id="patch_3">
    <path clip-path="url(#p71ddb7e7e7)" d="M 95.181167 78.258084 
C 99.620666 78.258084 103.878934 76.505632 107.018134 73.386684 
C 110.157335 70.267736 111.921167 66.036942 111.921167 61.626084 
C 111.921167 57.215226 110.157335 52.984432 107.018134 49.865484 
C 103.878934 46.746537 99.620666 44.994084 95.181167 44.994084 
C 90.741667 44.994084 86.4834 46.746537 83.344199 49.865484 
C 80.204999 52.984432 78.441167 57.215226 78.441167 61.626084 
C 78.441167 66.036942 80.204999 70.267736 83.344199 73.386684 
C 86.4834 76.505632 90.741667 78.258084 95.181167 78.258084 
z
" style="fill:#0000ff;opacity:0.3;stroke:#0000ff;stroke-linejoin:miter;"/>
   </g>
   <g id="patch_4">
    <path clip-path="url(#p71ddb7e7e7)" d="M 102.792955 31.474186 
Q 101.892268 33.850995 101.299579 36.292642 
L 103.486082 36.823397 
Q 100.845624 39.688295 98.734258 43.355435 
Q 97.072066 39.465072 96.197736 35.054213 
L 98.38424 35.584968 
Q 99.020894 32.962204 99.987625 30.411112 
L 102.792955 31.474186 
z
" style="fill:#0000ff;opacity:0.5;stroke:#0000ff;stroke-linecap:round;"/>
   </g>
   <g id="patch_5">
    <path clip-path="url(#p71ddb7e7e7)" d="M 80.347964 49.879997 
Q 78.71147 47.894414 76.861447 46.149088 
L 75.317441 47.785714 
Q 74.135528 44.072303 71.997412 40.420527 
Q 76.200156 40.906014 80.464127 42.330293 
L 78.920121 43.966919 
Q 80.906919 45.84128 82.663006 47.971966 
L 80.347964 49.879997 
z
" style="fill:#0000ff;opacity:0.5;stroke:#0000ff;stroke-linecap:round;"/>
   </g>
   <g id="patch_6">
    <path clip-path="url(#p71ddb7e7e7)" d="M 151.328833 96.383867 
C 155.768333 96.383867 160.0266 94.631415 163.165801 91.512467 
C 166.305001 88.393519 168.068833 84.162725 168.068833 79.751867 
C 168.068833 75.341009 166.305001 71.110215 163.165801 67.991267 
C 160.0266 64.872319 155.768333 63.119867 151.328833 63.119867 
C 146.889334 63.119867 142.631066 64.872319 139.491866 67.991267 
C 136.352665 71.110215 134.588833 75.341009 134.588833 79.751867 
C 134.588833 84.162725 136.352665 88.393519 139.491866 91.512467 
C 142.631066 94.631415 146.889334 96.383867 151.328833 96.383867 
z
" style="fill:#0000ff;opacity:0.3;stroke:#0000ff;stroke-linejoin:miter;"/>
   </g>
   <g id="patch_7">
    <path clip-path="url(#p71ddb7e7e7)" d="M 158.000419 62.087898 
Q 159.381474 59.94628 160.473633 57.676337 
L 158.446108 56.700815 
Q 161.627355 54.448415 164.45848 51.300959 
Q 165.271103 55.454671 165.204524 59.952554 
L 163.176999 58.977033 
Q 162.00389 61.415223 160.52165 63.713751 
L 158.000419 62.087898 
z
" style="fill:#0000ff;opacity:0.5;stroke:#0000ff;stroke-linecap:round;"/>
   </g>
   <g id="patch_8">
    <path clip-path="url(#p71ddb7e7e7)" d="M 151.328833 155.040133 
C 155.768333 155.040133 160.0266 153.287681 163.165801 150.168733 
C 166.305001 147.049785 168.068833 142.818991 168.068833 138.408133 
C 168.068833 133.997275 166.305001 129.766481 163.165801 126.647533 
C 160.0266 123.528585 155.768333 121.776133 151.328833 121.776133 
C 146.889334 121.776133 142.631066 123.528585 139.491866 126.647533 
C 136.352665 129.766481 134.588833 133.997275 134.588833 138.408133 
C 134.588833 142.818991 136.352665 147.049785 139.491866 150.168733 
C 142.631066 153.287681 146.889334 155.040133 151.328833 155.040133 
z
" style="fill:#0000ff;opacity:0.3;stroke:#0000ff;stroke-linejoin:miter;"/>
   </g>
   <g id="patch_9">
    <path clip-path="url(#p71ddb7e7e7)" d="M 170.275802 139.244744 
Q 172.785616 139.901397 175.328216 140.23392 
L 175.619988 138.002919 
Q 178.755087 140.318978 182.627065 142.02645 
Q 178.936162 144.094429 174.647414 145.439591 
L 174.939186 143.208589 
Q 172.209149 142.851553 169.516458 142.147052 
L 170.275802 139.244744 
z
" style="fill:#0000ff;opacity:0.5;stroke:#0000ff;stroke-linecap:round;"/>
   </g>
   <g id="patch_10">
    <path clip-path="url(#p71ddb7e7e7)" d="M 95.181167 173.165916 
C 99.620666 173.165916 103.878934 171.413463 107.018134 168.294516 
C 110.157335 165.175568 111.921167 160.944774 111.921167 156.533916 
C 111.921167 152.123058 110.157335 147.892264 107.018134 144.773316 
C 103.878934 141.654368 99.620666 139.901916 95.181167 139.901916 
C 90.741667 139.901916 86.4834 141.654368 83.344199 144.773316 
C 80.204999 147.892264 78.441167 152.123058 78.441167 156.533916 
C 78.441167 160.944774 80.204999 165.175568 83.344199 168.294516 
C 86.4834 171.413463 90.741667 173.165916 95.181167 173.165916 
z
" style="fill:#0000ff;opacity:0.3;stroke:#0000ff;stroke-linejoin:miter;"/>
   </g>
   <g id="patch_11">
    <path clip-path="url(#p71ddb7e7e7)" d="M 71.179417 176.482139 
Q 73.334276 175.075997 75.274047 173.430992 
L 73.818791 171.714971 
Q 77.640389 170.952266 81.506802 169.232421 
Q 80.558118 173.355375 78.669644 177.435043 
L 77.214388 175.719021 
Q 75.131207 177.485643 72.818875 178.994544 
L 71.179417 176.482139 
z
" style="fill:#0000ff;opacity:0.5;stroke:#0000ff;stroke-linecap:round;"/>
   </g>
   <g id="patch_12">
    <path clip-path="url(#p71ddb7e7e7)" d="M 100.231438 174.712574 
Q 100.382055 177.249851 100.840238 179.720273 
L 103.052511 179.309968 
Q 101.815342 183.004433 101.389188 187.214442 
Q 98.280758 184.344691 95.678269 180.677651 
L 97.890541 180.267346 
Q 97.398371 177.613672 97.23671 174.890346 
L 100.231438 174.712574 
z
" style="fill:#0000ff;opacity:0.5;stroke:#0000ff;stroke-linecap:round;"/>
   </g>
   <g id="patch_13">
    <path clip-path="url(#p71ddb7e7e7)" d="M 112.560359 68.89042 
Q 118.921206 72.524658 125.840681 74.625765 
L 126.494422 72.472831 
Q 129.317409 75.295841 132.695674 77.831541 
Q 128.637129 78.995803 124.315286 79.649276 
L 124.969027 77.496343 
Q 117.726289 75.297077 111.072107 71.495243 
L 112.560359 68.89042 
z
" style="fill:#0000ff;opacity:0.5;stroke:#0000ff;stroke-linecap:round;"/>
   </g>
   <g id="patch_14">
    <path clip-path="url(#p71ddb7e7e7)" d="M 132.982883 84.067377 
Q 107.367183 87.111824 84.235596 98.080143 
L 85.199598 100.11317 
Q 81.098857 99.981403 76.894565 100.092903 
Q 79.336284 96.66917 81.986258 93.336412 
L 82.95026 95.369439 
Q 106.525525 84.190742 132.628822 81.088344 
L 132.982883 84.067377 
z
" style="fill:#0000ff;opacity:0.5;stroke:#0000ff;stroke-linecap:round;"/>
   </g>
   <g id="patch_15">
    <path clip-path="url(#p71ddb7e7e7)" d="M 113.546842 152.259078 
Q 120.836851 151.487469 127.683129 149.143864 
L 126.954426 147.015134 
Q 130.893877 147.654737 135.115626 147.737143 
Q 132.505445 151.054033 129.383435 154.110901 
L 128.654733 151.982171 
Q 121.488707 154.435231 113.862612 155.242413 
L 113.546842 152.259078 
z
" style="fill:#0000ff;opacity:0.5;stroke:#0000ff;stroke-linecap:round;"/>
   </g>
   <g id="patch_16">
    <path clip-path="url(#p71ddb7e7e7)" d="M 133.941476 131.18812 
Q 111.382347 118.680937 86.205428 114.053888 
L 85.798731 116.266826 
Q 82.549331 113.762225 79.073687 111.394414 
Q 83.05616 110.044608 87.154387 108.890364 
L 86.747691 111.103303 
Q 112.407551 115.819108 135.396123 128.564382 
L 133.941476 131.18812 
z
" style="fill:#0000ff;opacity:0.5;stroke:#0000ff;stroke-linecap:round;"/>
   </g>
   <g id="patch_17">
    <path clip-path="url(#p71ddb7e7e7)" d="M 141.533263 122.405658 
Q 130.655713 99.14457 113.069513 80.701959 
L 111.441165 82.254692 
Q 110.281307 78.319904 108.857052 74.362985 
Q 112.87359 75.607391 116.868993 77.078914 
L 115.240644 78.631647 
Q 133.165429 97.429332 144.25081 121.134855 
L 141.533263 122.405658 
z
" style="fill:#0000ff;opacity:0.5;stroke:#0000ff;stroke-linecap:round;"/>
   </g>
   <g id="patch_18">
    <path clip-path="url(#p71ddb7e7e7)" d="M 96.725111 137.859703 
Q 101.662512 112.732146 98.367693 87.534049 
L 96.136685 87.825768 
Q 97.523652 83.963492 98.70964 79.926785 
Q 101.217345 83.304413 103.57338 86.853371 
L 101.342372 87.14509 
Q 104.700767 112.829408 99.668822 138.438123 
L 96.725111 137.859703 
z
" style="fill:#0000ff;opacity:0.5;stroke:#0000ff;stroke-linecap:round;"/>
   </g>
   <g id="patch_19">
    <path clip-path="url(#p71ddb7e7e7)" d="M 78.825951 104.76449 
Q 104.44165 101.720043 127.573238 90.751724 
L 126.609236 88.718697 
Q 130.709976 88.850464 134.914268 88.738964 
Q 132.472549 92.162697 129.822575 95.495455 
L 128.858573 93.462428 
Q 105.283308 104.641125 79.180012 107.743523 
L 78.825951 104.76449 
z
" style="fill:#ff0000;opacity:0.5;stroke:#ff0000;stroke-linecap:round;"/>
   </g>
   <g id="patch_20">
    <path clip-path="url(#p71ddb7e7e7)" d="M 93.637222 80.300297 
Q 88.699821 105.427854 91.99464 130.625951 
L 94.225648 130.334232 
Q 92.838681 134.196508 91.652693 138.233215 
Q 89.144988 134.855587 86.788953 131.306629 
L 89.019961 131.01491 
Q 85.661567 105.330592 90.693511 79.721877 
L 93.637222 80.300297 
z
" style="fill:#0000ff;opacity:0.5;stroke:#0000ff;stroke-linecap:round;"/>
   </g>
   <g id="patch_21">
    <path clip-path="url(#p71ddb7e7e7)" d="M 139.029785 93.96376 
Q 120.158807 111.382972 107.914019 133.734948 
L 109.887321 134.815956 
Q 106.489115 137.114425 103.149986 139.671568 
Q 103.118391 135.466432 103.309647 131.212596 
L 105.282949 132.293604 
Q 117.763459 109.511335 136.994954 91.759341 
L 139.029785 93.96376 
z
" style="fill:#0000ff;opacity:0.5;stroke:#0000ff;stroke-linecap:round;"/>
   </g>
   <g id="text_1">
    <!-- $C_{s}$ -->
    <defs>
     <path d="M 74.703125 69.109375 
C 74.703125 70 74 70 73.796875 70 
C 73.59375 70 73.203125 70 72.40625 69 
L 65.5 60.65625 
C 62 66.625 56.5 70 49 70 
C 27.40625 70 5 48.25 5 24.921875 
C 5 8.328125 16.703125 -2 31.296875 -2 
C 39.296875 -2 46.296875 1.375 52.09375 6.25 
C 60.796875 13.484375 63.40625 23.140625 63.40625 23.921875 
C 63.40625 24.8125 62.59375 24.8125 62.296875 24.8125 
C 61.40625 24.8125 61.296875 24.21875 61.09375 23.8125 
C 56.5 8.34375 43 0.890625 33 0.890625 
C 22.40625 0.890625 13.203125 7.640625 13.203125 21.734375 
C 13.203125 24.921875 14.203125 42.1875 25.5 55.1875 
C 31 61.546875 40.40625 67.109375 49.90625 67.109375 
C 60.90625 67.109375 65.796875 58.078125 65.796875 47.9375 
C 65.796875 45.359375 65.5 43.1875 65.5 42.78125 
C 65.5 41.890625 66.5 41.890625 66.796875 41.890625 
C 67.90625 41.890625 68 41.984375 68.40625 43.765625 
z
" id="CMMI12-67"/>
     <path d="M 22.796875 20 
C 24.5 19.703125 27.203125 19.109375 27.796875 19 
C 29.09375 18.625 33.59375 17.03125 33.59375 12.234375 
C 33.59375 9.15625 30.796875 1.09375 19.203125 1.09375 
C 17.09375 1.09375 9.59375 1.09375 7.59375 6.8125 
C 11.59375 6.3125 13.59375 9.421875 13.59375 11.640625 
C 13.59375 13.75 12.203125 14.84375 10.203125 14.84375 
C 8 14.84375 5.09375 13.140625 5.09375 8.625 
C 5.09375 2.703125 11.09375 -1 19.09375 -1 
C 34.296875 -1 38.796875 10.171875 38.796875 15.375 
C 38.796875 16.859375 38.796875 19.65625 35.59375 22.84375 
C 33.09375 25.25 30.703125 25.75 25.296875 26.84375 
C 22.59375 27.4375 18.296875 28.34375 18.296875 32.828125 
C 18.296875 34.828125 20.09375 42.015625 29.59375 42.015625 
C 33.796875 42.015625 37.90625 40.453125 38.90625 37 
C 34.5 37 34.296875 33.203125 34.296875 33.109375 
C 34.296875 31 36.203125 30.40625 37.09375 30.40625 
C 38.5 30.40625 41.296875 31.484375 41.296875 35.640625 
C 41.296875 39.765625 37.5 44 29.703125 44 
C 16.59375 44 13.09375 33.75 13.09375 29.671875 
C 13.09375 22.09375 20.5 20.5 22.796875 20 
z
" id="CMMI12-115"/>
    </defs>
    <g transform="translate(52.281458 113.065056)scale(0.16 -0.16)">
     <use transform="translate(0 14.943915)scale(0.996264)" xlink:href="#CMMI12-67"/>
     <use transform="translate(69.792037 0)scale(0.697382)" xlink:href="#CMMI12-115"/>
    </g>
   </g>
   <g id="text_2">
    <!-- $C_{f}$ -->
    <defs>
     <path d="M 44.59375 40.09375 
C 46.59375 40.09375 47.40625 40.09375 47.40625 42 
C 47.40625 43 46.59375 43 44.796875 43 
L 36.703125 43 
C 38.59375 53.578125 40 60.890625 40.796875 64.171875 
C 41.40625 66.640625 43.5 69 46.09375 69 
C 48.203125 69 50.296875 68.09375 51.296875 67.15625 
C 47.40625 66.75 46.203125 63.78125 46.203125 62.015625 
C 46.203125 59.953125 47.703125 58.734375 49.59375 58.734375 
C 51.59375 58.734375 54.59375 60.46875 54.59375 64.359375 
C 54.59375 68.640625 50.40625 71 46 71 
C 41.703125 71 37.5 67.71875 35.5 63.71875 
C 33.703125 60.125 32.703125 56.421875 30.40625 43 
L 23.703125 43 
C 21.796875 43 20.796875 43 20.796875 41.203125 
C 20.796875 40.09375 21.40625 40.09375 23.40625 40.09375 
L 29.796875 40.09375 
C 28 30.875 23.90625 8.46875 21.59375 -2.140625 
C 19.90625 -10.765625 18.40625 -18 13.40625 -18 
C 13.09375 -18 10.203125 -18 8.40625 -16.109375 
C 13.5 -15.703125 13.5 -11.34375 13.5 -11.25 
C 13.5 -9.265625 12 -8.078125 10.09375 -8.078125 
C 8.09375 -8.078125 5.09375 -9.765625 5.09375 -13.546875 
C 5.09375 -17.8125 9.5 -20 13.40625 -20 
C 23.59375 -20 27.796875 -1.84375 28.90625 3.109375 
C 30.703125 10.75 35.59375 37.125 36.09375 40.09375 
z
" id="CMMI12-102"/>
    </defs>
    <g transform="translate(86.866377 66.25318)scale(0.16 -0.16)">
     <use transform="translate(0 14.943915)scale(0.996264)" xlink:href="#CMMI12-67"/>
     <use transform="translate(69.792037 0)scale(0.697382)" xlink:href="#CMMI12-102"/>
    </g>
   </g>
   <g id="text_3">
    <!-- $C_{ds}$ -->
    <defs>
     <path d="M 50.296875 66.515625 
C 50.40625 66.90625 50.59375 67.5 50.59375 68 
C 50.59375 69 49.59375 69 49.40625 69 
C 49.296875 69 44.40625 68.5625 43.90625 68.4375 
C 42.203125 68.328125 40.703125 68.09375 38.90625 68.09375 
C 36.40625 67.890625 35.703125 67.796875 35.703125 66 
C 35.703125 65 36.5 65 37.90625 65 
C 42.796875 65 42.90625 64.109375 42.90625 63.125 
C 42.90625 62.53125 42.703125 61.75 42.59375 61.453125 
L 36.5 37.421875 
C 35.40625 40.015625 32.703125 44 27.5 44 
C 16.203125 44 4 29.4375 4 14.671875 
C 4 4.796875 9.796875 -1 16.59375 -1 
C 22.09375 -1 26.796875 3.296875 29.59375 6.59375 
C 30.59375 0.703125 35.296875 -1 38.296875 -1 
C 41.296875 -1 43.703125 0.796875 45.5 4.390625 
C 47.09375 7.78125 48.5 13.875 48.5 14.265625 
C 48.5 14.765625 48.09375 15.171875 47.5 15.171875 
C 46.59375 15.171875 46.5 14.671875 46.09375 13.171875 
C 44.59375 7.28125 42.703125 1 38.59375 1 
C 35.703125 1 35.5 3.578125 35.5 5.578125 
C 35.5 5.96875 35.5 8.046875 36.203125 10.84375 
z
M 30.09375 11.875 
C 29.59375 10.171875 29.59375 9.984375 28.203125 8.078125 
C 26 5.28125 21.59375 1 16.90625 1 
C 12.796875 1 10.5 4.6875 10.5 10.578125 
C 10.5 16.0625 13.59375 27.234375 15.5 31.4375 
C 18.90625 38.421875 23.59375 42.015625 27.5 42.015625 
C 34.09375 42.015625 35.40625 33.828125 35.40625 33.03125 
C 35.40625 32.9375 35.09375 31.625 35 31.4375 
z
" id="CMMI12-100"/>
    </defs>
    <g transform="translate(140.226463 83.736923)scale(0.16 -0.16)">
     <use transform="translate(0 14.943915)scale(0.996264)" xlink:href="#CMMI12-67"/>
     <use transform="translate(69.792037 0)scale(0.697382)" xlink:href="#CMMI12-100"/>
     <use transform="translate(105.274243 0)scale(0.697382)" xlink:href="#CMMI12-115"/>
    </g>
   </g>
   <g id="text_4">
    <!-- $C_{df}$ -->
    <g transform="translate(141.040062 143.035229)scale(0.16 -0.16)">
     <use transform="translate(0 14.943915)scale(0.996264)" xlink:href="#CMMI12-67"/>
     <use transform="translate(69.792037 0)scale(0.697382)" xlink:href="#CMMI12-100"/>
     <use transform="translate(93.893474 0)scale(0.697382)" xlink:href="#CMMI12-102"/>
    </g>
   </g>
   <g id="text_5">
    <!-- $N$ -->
    <defs>
     <path d="M 74 57.78125 
C 75.09375 62.09375 76.703125 65.09375 84.296875 65.09375 
C 84.59375 65.09375 85.796875 65.09375 85.796875 66.859375 
C 85.796875 68 84.90625 68 84.5 68 
C 82.5 68 77.40625 68 75.40625 68 
L 70.59375 68 
C 69.203125 68 67.40625 68 66 68 
C 65.40625 68 64.203125 68 64.203125 66.09375 
C 64.203125 65.09375 65 65.09375 65.703125 65.09375 
C 71.703125 65.09375 72.09375 62.796875 72.09375 60.984375 
C 72.09375 60.09375 72 59.78125 71.703125 58.390625 
L 60.40625 13.28125 
L 39 66.390625 
C 38.296875 68 38.203125 68 36 68 
L 23.796875 68 
C 21.796875 68 20.90625 68 20.90625 66.09375 
C 20.90625 65.09375 21.59375 65.09375 23.5 65.09375 
C 24 65.09375 29.90625 65.09375 29.90625 64.296875 
C 29.90625 64.09375 29.703125 63.296875 29.59375 63 
L 16.296875 9.921875 
C 15.09375 5 12.703125 2.90625 6.09375 2.90625 
C 5.59375 2.90625 4.59375 2.90625 4.59375 1.046875 
C 4.59375 0 5.59375 0 5.90625 0 
C 7.90625 0 13 0 15 0 
L 19.796875 0 
C 21.203125 0 22.90625 0 24.296875 0 
C 25 0 26.09375 0 26.09375 1.90625 
C 26.09375 2.8125 25.09375 2.90625 24.703125 2.90625 
C 21.40625 2.90625 18.203125 3.5 18.203125 7.09375 
C 18.203125 7.890625 18.40625 8.78125 18.59375 9.578125 
L 32.09375 63 
C 32.703125 62 32.703125 61.8125 33.09375 60.90625 
L 56.90625 1.796875 
C 57.40625 0.59375 57.59375 0 58.5 0 
C 59.5 0 59.59375 0.296875 60 2 
z
" id="CMMI12-78"/>
    </defs>
    <g transform="translate(88.931957 160.518972)scale(0.16 -0.16)">
     <use transform="scale(0.996264)" xlink:href="#CMMI12-78"/>
    </g>
   </g>
  </g>
 </g>
 <defs>
  <clipPath id="p71ddb7e7e7">
   <rect height="166.32" width="167.4" x="27" y="25.92"/>
  </clipPath>
 </defs>
</svg>
