<?xml version="1.0" encoding="utf-8" standalone="no"?>
<!DOCTYPE svg PUBLIC "-//W3C//DTD SVG 1.1//EN"
  "http://www.w3.org/Graphics/SVG/1.1/DTD/svg11.dtd">
<!-- Created with matplotlib (http://matplotlib.org/) -->
<svg height="504pt" version="1.1" viewBox="0 0 504 504" width="504pt" xmlns="http://www.w3.org/2000/svg" xmlns:xlink="http://www.w3.org/1999/xlink">
 <defs>
  <style type="text/css">
*{stroke-linecap:butt;stroke-linejoin:round;stroke-miterlimit:100000;}
  </style>
 </defs>
 <g id="figure_1">
  <g id="patch_1">
   <path d="M 0 504 
L 504 504 
L 504 0 
L 0 0 
z
" style="fill:#ffffff;"/>
  </g>
  <g id="axes_1">
   <g id="patch_2">
    <path clip-path="url(#p7bf6d21f55)" d="M 161.28 326.1888 
C 175.715535 326.1888 189.561772 321.027031 199.769236 311.840313 
C 209.976701 302.653594 215.712 290.191982 215.712 277.2 
C 215.712 264.208018 209.976701 251.746406 199.769236 242.559687 
C 189.561772 233.372969 175.715535 228.2112 161.28 228.2112 
C 146.844465 228.2112 132.998228 233.372969 122.790764 242.559687 
C 112.583299 251.746406 106.848 264.208018 106.848 277.2 
C 106.848 290.191982 112.583299 302.653594 122.790764 311.840313 
C 132.998228 321.027031 146.844465 326.1888 161.28 326.1888 
z
" style="fill:#0000ff;opacity:0.3;stroke:#0000ff;stroke-linejoin:miter;"/>
   </g>
   <g id="patch_3">
    <path clip-path="url(#p7bf6d21f55)" d="M 112.799349 304.174589 
Q 80.987524 313.712663 54.154394 332.826608 
L 55.894937 335.270071 
Q 50.485618 336.052061 44.993591 337.193453 
Q 47.38941 332.122334 50.093127 327.125195 
L 51.83367 329.568658 
Q 79.205363 310.07108 111.650563 300.343103 
L 112.799349 304.174589 
z
" style="fill:#008000;opacity:0.5;stroke:#008000;stroke-linecap:round;"/>
   </g>
   <g id="patch_4">
    <path clip-path="url(#p7bf6d21f55)" d="M 342.72 326.1888 
C 357.155535 326.1888 371.001772 321.027031 381.209236 311.840313 
C 391.416701 302.653594 397.152 290.191982 397.152 277.2 
C 397.152 264.208018 391.416701 251.746406 381.209236 242.559687 
C 371.001772 233.372969 357.155535 228.2112 342.72 228.2112 
C 328.284465 228.2112 314.438228 233.372969 304.230764 242.559687 
C 294.023299 251.746406 288.288 264.208018 288.288 277.2 
C 288.288 290.191982 294.023299 302.653594 304.230764 311.840313 
C 314.438228 321.027031 328.284465 326.1888 342.72 326.1888 
z
" style="fill:#0000ff;opacity:0.3;stroke:#0000ff;stroke-linejoin:miter;"/>
   </g>
   <g id="patch_5">
    <path clip-path="url(#p7bf6d21f55)" d="M 457.768318 338.764164 
Q 431.677854 318.215325 400.613303 307.244753 
L 399.614308 310.073535 
Q 395.865117 306.096624 391.774292 302.25862 
Q 397.301071 301.304204 402.944294 300.644262 
L 401.945298 303.473044 
Q 433.63334 314.663805 460.243266 335.621771 
L 457.768318 338.764164 
z
" style="fill:#0000ff;opacity:0.5;stroke:#000000;stroke-linecap:round;"/>
   </g>
   <g id="patch_6">
    <path clip-path="url(#p7bf6d21f55)" d="M 391.200651 250.225411 
Q 423.012476 240.687337 449.845606 221.573392 
L 448.105063 219.129929 
Q 453.514382 218.347939 459.006409 217.206547 
Q 456.61059 222.277666 453.906873 227.274805 
L 452.16633 224.831342 
Q 424.794637 244.32892 392.349437 254.056897 
L 391.200651 250.225411 
z
" style="fill:#008000;opacity:0.5;stroke:#008000;stroke-linecap:round;"/>
   </g>
   <g id="patch_7">
    <path clip-path="url(#p7bf6d21f55)" d="M 217.44421 283.382704 
Q 247.288928 290.375769 277.552182 287.557005 
L 277.273962 284.569934 
Q 282.33462 286.611075 287.663441 288.364461 
Q 283.055302 291.562237 278.201363 294.526838 
L 277.923142 291.539767 
Q 247.010947 294.418974 216.531666 287.277222 
L 217.44421 283.382704 
z
" style="fill:#008000;opacity:0.5;stroke:#008000;stroke-linecap:round;"/>
   </g>
   <g id="patch_8">
    <path clip-path="url(#p7bf6d21f55)" d="M 286.55579 271.017296 
Q 256.711072 264.024231 226.447818 266.842995 
L 226.726038 269.830066 
Q 221.66538 267.788925 216.336559 266.035539 
Q 220.944698 262.837763 225.798637 259.873162 
L 226.076858 262.860233 
Q 256.989053 259.981026 287.468334 267.122778 
L 286.55579 271.017296 
z
" style="fill:#008000;opacity:0.5;stroke:#008000;stroke-linecap:round;"/>
   </g>
   <g id="text_1">
    <!-- $X$ -->
    <defs>
     <path d="M 3.609375 0 
Q 2.59375 0 2.59375 1.3125 
Q 2.640625 1.5625 2.8125 2.1875 
Q 2.984375 2.828125 3.25 3.171875 
Q 3.515625 3.515625 4 3.515625 
Q 13.09375 3.515625 19.578125 10.296875 
Q 19.671875 10.40625 19.796875 10.453125 
Q 19.921875 10.5 19.921875 10.5 
L 41.796875 34.078125 
L 29.890625 62.796875 
Q 28.859375 64.109375 26.5625 64.453125 
Q 24.265625 64.796875 21.1875 64.796875 
Q 20.21875 64.796875 20.21875 66.109375 
Q 20.5625 67.390625 20.75 67.84375 
Q 20.953125 68.3125 21.921875 68.3125 
L 46.921875 68.3125 
Q 47.90625 68.3125 47.90625 67 
Q 47.859375 66.75 47.6875 66.109375 
Q 47.515625 65.484375 47.234375 65.140625 
Q 46.96875 64.796875 46.484375 64.796875 
Q 44.625 64.796875 42.640625 64.1875 
Q 40.671875 63.578125 39.890625 62.203125 
L 48.484375 41.5 
L 64.890625 59.078125 
Q 65.046875 59.421875 65.578125 60.28125 
Q 66.109375 61.140625 66.109375 61.921875 
Q 66.109375 63.375 64.84375 64.078125 
Q 63.578125 64.796875 61.8125 64.796875 
Q 60.796875 64.796875 60.796875 66.109375 
Q 61.140625 67.390625 61.328125 67.84375 
Q 61.53125 68.3125 62.5 68.3125 
L 84.1875 68.3125 
Q 84.71875 68.3125 84.953125 67.921875 
Q 85.203125 67.53125 85.203125 67 
Q 85.15625 66.75 85 66.15625 
Q 84.859375 65.578125 84.609375 65.1875 
Q 84.375 64.796875 83.890625 64.796875 
Q 79.25 64.796875 75.359375 63.109375 
Q 71.484375 61.421875 68.21875 58.015625 
Q 68.171875 57.953125 68.09375 57.921875 
Q 68.015625 57.90625 67.921875 57.8125 
L 49.8125 38.28125 
L 63.484375 5.515625 
Q 65.09375 3.515625 72.21875 3.515625 
Q 73.1875 3.515625 73.1875 2.203125 
Q 72.859375 0.875 72.625 0.4375 
Q 72.40625 0 71.484375 0 
L 46.484375 0 
Q 45.515625 0 45.515625 1.3125 
Q 45.5625 1.5625 45.703125 2.171875 
Q 45.84375 2.78125 46.109375 3.140625 
Q 46.390625 3.515625 46.78125 3.515625 
Q 48.734375 3.515625 50.734375 4.125 
Q 52.734375 4.734375 53.515625 6.109375 
L 43.109375 31 
L 22.90625 9.1875 
Q 22.75 8.84375 22.21875 8 
Q 21.6875 7.171875 21.6875 6.390625 
Q 21.6875 4.9375 23.046875 4.21875 
Q 24.421875 3.515625 25.984375 3.515625 
Q 27 3.515625 27 2.203125 
Q 26.65625 0.78125 26.453125 0.390625 
Q 26.265625 0 25.296875 0 
z
" id="Cmmi10-58"/>
    </defs>
    <g transform="translate(151.32 283.8225)scale(0.24 -0.24)">
     <use transform="translate(0.0 0.6875)" xlink:href="#Cmmi10-58"/>
    </g>
   </g>
   <g id="text_2">
    <!-- $S$ -->
    <defs>
     <path d="M 6.109375 -2.203125 
Q 5.8125 -2.203125 5.5625 -1.859375 
Q 5.328125 -1.515625 5.328125 -1.21875 
L 11.078125 22.125 
Q 11.28125 22.703125 11.921875 22.703125 
L 13.09375 22.703125 
Q 13.484375 22.703125 13.703125 22.40625 
Q 13.921875 22.125 13.921875 21.6875 
Q 13.09375 18.265625 13.09375 15.578125 
Q 13.09375 8.34375 18.0625 4.828125 
Q 23.046875 1.3125 30.609375 1.3125 
Q 33.890625 1.3125 37.0625 2.921875 
Q 40.234375 4.546875 42.59375 7.125 
Q 44.96875 9.71875 46.375 12.90625 
Q 47.796875 16.109375 47.796875 19.390625 
Q 47.796875 22.90625 45.9375 25.65625 
Q 44.09375 28.421875 40.828125 29.203125 
L 28.609375 32.421875 
Q 23.6875 33.734375 20.75 37.71875 
Q 17.828125 41.703125 17.828125 46.6875 
Q 17.828125 52.6875 21.390625 58.25 
Q 24.953125 63.8125 30.6875 67.15625 
Q 36.421875 70.515625 42.390625 70.515625 
Q 46.96875 70.515625 50.796875 68.828125 
Q 54.640625 67.140625 56.6875 63.484375 
L 62.40625 70.21875 
Q 62.984375 70.515625 63.09375 70.515625 
L 63.71875 70.515625 
Q 64.109375 70.515625 64.34375 70.171875 
Q 64.59375 69.828125 64.59375 69.484375 
L 58.796875 46.296875 
Q 58.640625 45.609375 58.015625 45.609375 
L 56.78125 45.609375 
Q 55.90625 45.609375 55.90625 46.6875 
Q 56.390625 49.859375 56.390625 52.203125 
Q 56.390625 56.84375 54.796875 60.28125 
Q 53.21875 63.71875 50.015625 65.5 
Q 46.828125 67.28125 42.09375 67.28125 
Q 38.09375 67.28125 34.125 64.984375 
Q 30.171875 62.703125 27.734375 58.890625 
Q 25.296875 55.078125 25.296875 50.984375 
Q 25.296875 47.75 27.171875 45.265625 
Q 29.046875 42.78125 32.171875 41.890625 
L 44.390625 38.71875 
Q 47.703125 37.84375 50.171875 35.625 
Q 52.640625 33.40625 53.90625 30.34375 
Q 55.171875 27.296875 55.171875 23.6875 
Q 55.171875 18.953125 53.171875 14.328125 
Q 51.171875 9.71875 47.578125 5.90625 
Q 44 2.09375 39.453125 -0.046875 
Q 34.90625 -2.203125 30.171875 -2.203125 
Q 18.265625 -2.203125 13.09375 4.78125 
L 7.515625 -1.90625 
Q 6.9375 -2.203125 6.78125 -2.203125 
z
" id="Cmmi10-53"/>
    </defs>
    <g transform="translate(335.28 283.8225)scale(0.24 -0.24)">
     <use transform="translate(0.0 0.484375)" xlink:href="#Cmmi10-53"/>
    </g>
   </g>
   <g id="legend_1">
    <g id="patch_9">
     <path d="M 10.55025 37.6965 
L 493.44975 37.6965 
L 493.44975 12.24 
L 10.55025 12.24 
z
" style="fill:#ffffff;stroke:#000000;stroke-linejoin:miter;"/>
    </g>
    <g id="patch_10">
     <path d="M 16.31025 28.94175 
L 45.11025 28.94175 
L 45.11025 18.86175 
L 16.31025 18.86175 
z
" style="fill:#0000ff;opacity:0.5;stroke:#0000ff;stroke-linejoin:miter;"/>
    </g>
    <g id="text_3">
     <!-- linear -->
     <defs>
      <path d="M 9.421875 75.984375 
L 18.40625 75.984375 
L 18.40625 0 
L 9.421875 0 
z
" id="BitstreamVeraSans-Roman-6c"/>
      <path d="M 41.109375 46.296875 
Q 39.59375 47.171875 37.8125 47.578125 
Q 36.03125 48 33.890625 48 
Q 26.265625 48 22.1875 43.046875 
Q 18.109375 38.09375 18.109375 28.8125 
L 18.109375 0 
L 9.078125 0 
L 9.078125 54.6875 
L 18.109375 54.6875 
L 18.109375 46.1875 
Q 20.953125 51.171875 25.484375 53.578125 
Q 30.03125 56 36.53125 56 
Q 37.453125 56 38.578125 55.875 
Q 39.703125 55.765625 41.0625 55.515625 
z
" id="BitstreamVeraSans-Roman-72"/>
      <path d="M 34.28125 27.484375 
Q 23.390625 27.484375 19.1875 25 
Q 14.984375 22.515625 14.984375 16.5 
Q 14.984375 11.71875 18.140625 8.90625 
Q 21.296875 6.109375 26.703125 6.109375 
Q 34.1875 6.109375 38.703125 11.40625 
Q 43.21875 16.703125 43.21875 25.484375 
L 43.21875 27.484375 
z
M 52.203125 31.203125 
L 52.203125 0 
L 43.21875 0 
L 43.21875 8.296875 
Q 40.140625 3.328125 35.546875 0.953125 
Q 30.953125 -1.421875 24.3125 -1.421875 
Q 15.921875 -1.421875 10.953125 3.296875 
Q 6 8.015625 6 15.921875 
Q 6 25.140625 12.171875 29.828125 
Q 18.359375 34.515625 30.609375 34.515625 
L 43.21875 34.515625 
L 43.21875 35.40625 
Q 43.21875 41.609375 39.140625 45 
Q 35.0625 48.390625 27.6875 48.390625 
Q 23 48.390625 18.546875 47.265625 
Q 14.109375 46.140625 10.015625 43.890625 
L 10.015625 52.203125 
Q 14.9375 54.109375 19.578125 55.046875 
Q 24.21875 56 28.609375 56 
Q 40.484375 56 46.34375 49.84375 
Q 52.203125 43.703125 52.203125 31.203125 
" id="BitstreamVeraSans-Roman-61"/>
      <path d="M 56.203125 29.59375 
L 56.203125 25.203125 
L 14.890625 25.203125 
Q 15.484375 15.921875 20.484375 11.0625 
Q 25.484375 6.203125 34.421875 6.203125 
Q 39.59375 6.203125 44.453125 7.46875 
Q 49.3125 8.734375 54.109375 11.28125 
L 54.109375 2.78125 
Q 49.265625 0.734375 44.1875 -0.34375 
Q 39.109375 -1.421875 33.890625 -1.421875 
Q 20.796875 -1.421875 13.15625 6.1875 
Q 5.515625 13.8125 5.515625 26.8125 
Q 5.515625 40.234375 12.765625 48.109375 
Q 20.015625 56 32.328125 56 
Q 43.359375 56 49.78125 48.890625 
Q 56.203125 41.796875 56.203125 29.59375 
M 47.21875 32.234375 
Q 47.125 39.59375 43.09375 43.984375 
Q 39.0625 48.390625 32.421875 48.390625 
Q 24.90625 48.390625 20.390625 44.140625 
Q 15.875 39.890625 15.1875 32.171875 
z
" id="BitstreamVeraSans-Roman-65"/>
      <path d="M 9.421875 54.6875 
L 18.40625 54.6875 
L 18.40625 0 
L 9.421875 0 
z
M 9.421875 75.984375 
L 18.40625 75.984375 
L 18.40625 64.59375 
L 9.421875 64.59375 
z
" id="BitstreamVeraSans-Roman-69"/>
      <path d="M 54.890625 33.015625 
L 54.890625 0 
L 45.90625 0 
L 45.90625 32.71875 
Q 45.90625 40.484375 42.875 44.328125 
Q 39.84375 48.1875 33.796875 48.1875 
Q 26.515625 48.1875 22.3125 43.546875 
Q 18.109375 38.921875 18.109375 30.90625 
L 18.109375 0 
L 9.078125 0 
L 9.078125 54.6875 
L 18.109375 54.6875 
L 18.109375 46.1875 
Q 21.34375 51.125 25.703125 53.5625 
Q 30.078125 56 35.796875 56 
Q 45.21875 56 50.046875 50.171875 
Q 54.890625 44.34375 54.890625 33.015625 
" id="BitstreamVeraSans-Roman-6e"/>
     </defs>
     <g transform="translate(56.63025 28.94175)scale(0.144 -0.144)">
      <use xlink:href="#BitstreamVeraSans-Roman-6c"/>
      <use x="27.783203125" xlink:href="#BitstreamVeraSans-Roman-69"/>
      <use x="55.56640625" xlink:href="#BitstreamVeraSans-Roman-6e"/>
      <use x="118.9453125" xlink:href="#BitstreamVeraSans-Roman-65"/>
      <use x="180.46875" xlink:href="#BitstreamVeraSans-Roman-61"/>
      <use x="241.748046875" xlink:href="#BitstreamVeraSans-Roman-72"/>
     </g>
    </g>
    <g id="patch_11">
     <path d="M 126.162 28.94175 
L 154.962 28.94175 
L 154.962 18.86175 
L 126.162 18.86175 
z
" style="fill:#008000;opacity:0.5;stroke:#008000;stroke-linejoin:miter;"/>
    </g>
    <g id="text_4">
     <!-- nonlinear -->
     <defs>
      <path d="M 30.609375 48.390625 
Q 23.390625 48.390625 19.1875 42.75 
Q 14.984375 37.109375 14.984375 27.296875 
Q 14.984375 17.484375 19.15625 11.84375 
Q 23.34375 6.203125 30.609375 6.203125 
Q 37.796875 6.203125 41.984375 11.859375 
Q 46.1875 17.53125 46.1875 27.296875 
Q 46.1875 37.015625 41.984375 42.703125 
Q 37.796875 48.390625 30.609375 48.390625 
M 30.609375 56 
Q 42.328125 56 49.015625 48.375 
Q 55.71875 40.765625 55.71875 27.296875 
Q 55.71875 13.875 49.015625 6.21875 
Q 42.328125 -1.421875 30.609375 -1.421875 
Q 18.84375 -1.421875 12.171875 6.21875 
Q 5.515625 13.875 5.515625 27.296875 
Q 5.515625 40.765625 12.171875 48.375 
Q 18.84375 56 30.609375 56 
" id="BitstreamVeraSans-Roman-6f"/>
     </defs>
     <g transform="translate(166.482 28.94175)scale(0.144 -0.144)">
      <use xlink:href="#BitstreamVeraSans-Roman-6e"/>
      <use x="63.37890625" xlink:href="#BitstreamVeraSans-Roman-6f"/>
      <use x="124.560546875" xlink:href="#BitstreamVeraSans-Roman-6e"/>
      <use x="187.939453125" xlink:href="#BitstreamVeraSans-Roman-6c"/>
      <use x="215.72265625" xlink:href="#BitstreamVeraSans-Roman-69"/>
      <use x="243.505859375" xlink:href="#BitstreamVeraSans-Roman-6e"/>
      <use x="306.884765625" xlink:href="#BitstreamVeraSans-Roman-65"/>
      <use x="368.408203125" xlink:href="#BitstreamVeraSans-Roman-61"/>
      <use x="429.6875" xlink:href="#BitstreamVeraSans-Roman-72"/>
     </g>
    </g>
    <g id="patch_12">
     <path d="M 263.07675 28.94175 
L 291.87675 28.94175 
L 291.87675 18.86175 
L 263.07675 18.86175 
z
" style="fill:#ff0000;opacity:0.5;stroke:#ff0000;stroke-linejoin:miter;"/>
    </g>
    <g id="text_5">
     <!-- no substrate dependence -->
     <defs>
      <path d="M 44.28125 53.078125 
L 44.28125 44.578125 
Q 40.484375 46.53125 36.375 47.5 
Q 32.28125 48.484375 27.875 48.484375 
Q 21.1875 48.484375 17.84375 46.4375 
Q 14.5 44.390625 14.5 40.28125 
Q 14.5 37.15625 16.890625 35.375 
Q 19.28125 33.59375 26.515625 31.984375 
L 29.59375 31.296875 
Q 39.15625 29.25 43.1875 25.515625 
Q 47.21875 21.78125 47.21875 15.09375 
Q 47.21875 7.46875 41.1875 3.015625 
Q 35.15625 -1.421875 24.609375 -1.421875 
Q 20.21875 -1.421875 15.453125 -0.5625 
Q 10.6875 0.296875 5.421875 2 
L 5.421875 11.28125 
Q 10.40625 8.6875 15.234375 7.390625 
Q 20.0625 6.109375 24.8125 6.109375 
Q 31.15625 6.109375 34.5625 8.28125 
Q 37.984375 10.453125 37.984375 14.40625 
Q 37.984375 18.0625 35.515625 20.015625 
Q 33.0625 21.96875 24.703125 23.78125 
L 21.578125 24.515625 
Q 13.234375 26.265625 9.515625 29.90625 
Q 5.8125 33.546875 5.8125 39.890625 
Q 5.8125 47.609375 11.28125 51.796875 
Q 16.75 56 26.8125 56 
Q 31.78125 56 36.171875 55.265625 
Q 40.578125 54.546875 44.28125 53.078125 
" id="BitstreamVeraSans-Roman-73"/>
      <path d="M 8.5 21.578125 
L 8.5 54.6875 
L 17.484375 54.6875 
L 17.484375 21.921875 
Q 17.484375 14.15625 20.5 10.265625 
Q 23.53125 6.390625 29.59375 6.390625 
Q 36.859375 6.390625 41.078125 11.03125 
Q 45.3125 15.671875 45.3125 23.6875 
L 45.3125 54.6875 
L 54.296875 54.6875 
L 54.296875 0 
L 45.3125 0 
L 45.3125 8.40625 
Q 42.046875 3.421875 37.71875 1 
Q 33.40625 -1.421875 27.6875 -1.421875 
Q 18.265625 -1.421875 13.375 4.4375 
Q 8.5 10.296875 8.5 21.578125 
" id="BitstreamVeraSans-Roman-75"/>
      <path d="M 18.109375 8.203125 
L 18.109375 -20.796875 
L 9.078125 -20.796875 
L 9.078125 54.6875 
L 18.109375 54.6875 
L 18.109375 46.390625 
Q 20.953125 51.265625 25.265625 53.625 
Q 29.59375 56 35.59375 56 
Q 45.5625 56 51.78125 48.09375 
Q 58.015625 40.1875 58.015625 27.296875 
Q 58.015625 14.40625 51.78125 6.484375 
Q 45.5625 -1.421875 35.59375 -1.421875 
Q 29.59375 -1.421875 25.265625 0.953125 
Q 20.953125 3.328125 18.109375 8.203125 
M 48.6875 27.296875 
Q 48.6875 37.203125 44.609375 42.84375 
Q 40.53125 48.484375 33.40625 48.484375 
Q 26.265625 48.484375 22.1875 42.84375 
Q 18.109375 37.203125 18.109375 27.296875 
Q 18.109375 17.390625 22.1875 11.75 
Q 26.265625 6.109375 33.40625 6.109375 
Q 40.53125 6.109375 44.609375 11.75 
Q 48.6875 17.390625 48.6875 27.296875 
" id="BitstreamVeraSans-Roman-70"/>
      <path d="M 48.78125 52.59375 
L 48.78125 44.1875 
Q 44.96875 46.296875 41.140625 47.34375 
Q 37.3125 48.390625 33.40625 48.390625 
Q 24.65625 48.390625 19.8125 42.84375 
Q 14.984375 37.3125 14.984375 27.296875 
Q 14.984375 17.28125 19.8125 11.734375 
Q 24.65625 6.203125 33.40625 6.203125 
Q 37.3125 6.203125 41.140625 7.25 
Q 44.96875 8.296875 48.78125 10.40625 
L 48.78125 2.09375 
Q 45.015625 0.34375 40.984375 -0.53125 
Q 36.96875 -1.421875 32.421875 -1.421875 
Q 20.0625 -1.421875 12.78125 6.34375 
Q 5.515625 14.109375 5.515625 27.296875 
Q 5.515625 40.671875 12.859375 48.328125 
Q 20.21875 56 33.015625 56 
Q 37.15625 56 41.109375 55.140625 
Q 45.0625 54.296875 48.78125 52.59375 
" id="BitstreamVeraSans-Roman-63"/>
      <path id="BitstreamVeraSans-Roman-20"/>
      <path d="M 48.6875 27.296875 
Q 48.6875 37.203125 44.609375 42.84375 
Q 40.53125 48.484375 33.40625 48.484375 
Q 26.265625 48.484375 22.1875 42.84375 
Q 18.109375 37.203125 18.109375 27.296875 
Q 18.109375 17.390625 22.1875 11.75 
Q 26.265625 6.109375 33.40625 6.109375 
Q 40.53125 6.109375 44.609375 11.75 
Q 48.6875 17.390625 48.6875 27.296875 
M 18.109375 46.390625 
Q 20.953125 51.265625 25.265625 53.625 
Q 29.59375 56 35.59375 56 
Q 45.5625 56 51.78125 48.09375 
Q 58.015625 40.1875 58.015625 27.296875 
Q 58.015625 14.40625 51.78125 6.484375 
Q 45.5625 -1.421875 35.59375 -1.421875 
Q 29.59375 -1.421875 25.265625 0.953125 
Q 20.953125 3.328125 18.109375 8.203125 
L 18.109375 0 
L 9.078125 0 
L 9.078125 75.984375 
L 18.109375 75.984375 
z
" id="BitstreamVeraSans-Roman-62"/>
      <path d="M 45.40625 46.390625 
L 45.40625 75.984375 
L 54.390625 75.984375 
L 54.390625 0 
L 45.40625 0 
L 45.40625 8.203125 
Q 42.578125 3.328125 38.25 0.953125 
Q 33.9375 -1.421875 27.875 -1.421875 
Q 17.96875 -1.421875 11.734375 6.484375 
Q 5.515625 14.40625 5.515625 27.296875 
Q 5.515625 40.1875 11.734375 48.09375 
Q 17.96875 56 27.875 56 
Q 33.9375 56 38.25 53.625 
Q 42.578125 51.265625 45.40625 46.390625 
M 14.796875 27.296875 
Q 14.796875 17.390625 18.875 11.75 
Q 22.953125 6.109375 30.078125 6.109375 
Q 37.203125 6.109375 41.296875 11.75 
Q 45.40625 17.390625 45.40625 27.296875 
Q 45.40625 37.203125 41.296875 42.84375 
Q 37.203125 48.484375 30.078125 48.484375 
Q 22.953125 48.484375 18.875 42.84375 
Q 14.796875 37.203125 14.796875 27.296875 
" id="BitstreamVeraSans-Roman-64"/>
      <path d="M 18.3125 70.21875 
L 18.3125 54.6875 
L 36.8125 54.6875 
L 36.8125 47.703125 
L 18.3125 47.703125 
L 18.3125 18.015625 
Q 18.3125 11.328125 20.140625 9.421875 
Q 21.96875 7.515625 27.59375 7.515625 
L 36.8125 7.515625 
L 36.8125 0 
L 27.59375 0 
Q 17.1875 0 13.234375 3.875 
Q 9.28125 7.765625 9.28125 18.015625 
L 9.28125 47.703125 
L 2.6875 47.703125 
L 2.6875 54.6875 
L 9.28125 54.6875 
L 9.28125 70.21875 
z
" id="BitstreamVeraSans-Roman-74"/>
     </defs>
     <g transform="translate(303.39675 28.94175)scale(0.144 -0.144)">
      <use xlink:href="#BitstreamVeraSans-Roman-6e"/>
      <use x="63.37890625" xlink:href="#BitstreamVeraSans-Roman-6f"/>
      <use x="124.560546875" xlink:href="#BitstreamVeraSans-Roman-20"/>
      <use x="156.34765625" xlink:href="#BitstreamVeraSans-Roman-73"/>
      <use x="208.447265625" xlink:href="#BitstreamVeraSans-Roman-75"/>
      <use x="271.826171875" xlink:href="#BitstreamVeraSans-Roman-62"/>
      <use x="335.302734375" xlink:href="#BitstreamVeraSans-Roman-73"/>
      <use x="387.40234375" xlink:href="#BitstreamVeraSans-Roman-74"/>
      <use x="426.611328125" xlink:href="#BitstreamVeraSans-Roman-72"/>
      <use x="467.724609375" xlink:href="#BitstreamVeraSans-Roman-61"/>
      <use x="529.00390625" xlink:href="#BitstreamVeraSans-Roman-74"/>
      <use x="568.212890625" xlink:href="#BitstreamVeraSans-Roman-65"/>
      <use x="629.736328125" xlink:href="#BitstreamVeraSans-Roman-20"/>
      <use x="661.5234375" xlink:href="#BitstreamVeraSans-Roman-64"/>
      <use x="725.0" xlink:href="#BitstreamVeraSans-Roman-65"/>
      <use x="786.5234375" xlink:href="#BitstreamVeraSans-Roman-70"/>
      <use x="850.0" xlink:href="#BitstreamVeraSans-Roman-65"/>
      <use x="911.5234375" xlink:href="#BitstreamVeraSans-Roman-6e"/>
      <use x="974.90234375" xlink:href="#BitstreamVeraSans-Roman-64"/>
      <use x="1038.37890625" xlink:href="#BitstreamVeraSans-Roman-65"/>
      <use x="1099.90234375" xlink:href="#BitstreamVeraSans-Roman-6e"/>
      <use x="1163.28125" xlink:href="#BitstreamVeraSans-Roman-63"/>
      <use x="1218.26171875" xlink:href="#BitstreamVeraSans-Roman-65"/>
     </g>
    </g>
   </g>
  </g>
 </g>
 <defs>
  <clipPath id="p7bf6d21f55">
   <rect height="453.6" width="504.0" x="0.0" y="50.4"/>
  </clipPath>
 </defs>
</svg>
