<?xml version="1.0" encoding="utf-8" standalone="no"?>
<!DOCTYPE svg PUBLIC "-//W3C//DTD SVG 1.1//EN"
  "http://www.w3.org/Graphics/SVG/1.1/DTD/svg11.dtd">
<!-- Created with matplotlib (http://matplotlib.org/) -->
<svg height="216pt" version="1.1" viewBox="0 0 216 216" width="216pt" xmlns="http://www.w3.org/2000/svg" xmlns:xlink="http://www.w3.org/1999/xlink">
 <defs>
  <style type="text/css">
*{stroke-linecap:butt;stroke-linejoin:round;stroke-miterlimit:100000;}
  </style>
 </defs>
 <g id="figure_1">
  <g id="patch_1">
   <path d="M 0 216 
L 216 216 
L 216 0 
L 0 0 
L 0 216 
z
" style="fill:none;"/>
  </g>
  <g id="axes_1">
   <g id="patch_2">
    <path clip-path="url(#p3b97b119c3)" d="M 69.12 131.328 
C 75.306658 131.328 81.240759 128.870015 85.615387 124.495387 
C 89.990015 120.120759 92.448 114.186658 92.448 108 
C 92.448 101.813342 89.990015 95.879241 85.615387 91.504613 
C 81.240759 87.129985 75.306658 84.672 69.12 84.672 
C 62.933342 84.672 56.999241 87.129985 52.624613 91.504613 
C 48.249985 95.879241 45.792 101.813342 45.792 108 
C 45.792 114.186658 48.249985 120.120759 52.624613 124.495387 
C 56.999241 128.870015 62.933342 131.328 69.12 131.328 
z
" style="fill:#0000ff;opacity:0.3;stroke:#0000ff;stroke-linejoin:miter;"/>
   </g>
   <g id="patch_3">
    <path clip-path="url(#p3b97b119c3)" d="M 47.537628 121.73682 
Q 36.449648 125.758357 26.931634 132.494654 
L 28.231449 134.331221 
Q 24.227305 134.863996 20.128235 135.857474 
Q 21.808041 131.990125 23.898731 128.20933 
L 25.198546 130.045897 
Q 35.046628 123.075997 46.514748 118.916586 
L 47.537628 121.73682 
z
" style="fill:#008000;opacity:0.5;stroke:#008000;stroke-linecap:round;"/>
   </g>
   <g id="patch_4">
    <path clip-path="url(#p3b97b119c3)" d="M 146.88 131.328 
C 153.066658 131.328 159.000759 128.870015 163.375387 124.495387 
C 167.750015 120.120759 170.208 114.186658 170.208 108 
C 170.208 101.813342 167.750015 95.879241 163.375387 91.504613 
C 159.000759 87.129985 153.066658 84.672 146.88 84.672 
C 140.693342 84.672 134.759241 87.129985 130.384613 91.504613 
C 126.009985 95.879241 123.552 101.813342 123.552 108 
C 123.552 114.186658 126.009985 120.120759 130.384613 124.495387 
C 134.759241 128.870015 140.693342 131.328 146.88 131.328 
z
" style="fill:#0000ff;opacity:0.3;stroke:#0000ff;stroke-linejoin:miter;"/>
   </g>
   <g id="patch_5">
    <path clip-path="url(#p3b97b119c3)" d="M 194.901621 137.001527 
Q 185.874878 129.409823 175.282067 124.53513 
L 174.341461 126.579087 
Q 171.877992 123.377784 168.96808 120.324624 
Q 173.157205 119.845704 177.476814 119.765897 
L 176.536208 121.809854 
Q 187.49636 126.853593 196.832575 134.70557 
L 194.901621 137.001527 
z
" style="fill:#0000ff;opacity:0.5;stroke:#000000;stroke-linecap:round;"/>
   </g>
   <g id="patch_6">
    <path clip-path="url(#p3b97b119c3)" d="M 168.462372 94.26318 
Q 179.550352 90.241643 189.068366 83.505346 
L 187.768551 81.668779 
Q 191.772695 81.136004 195.871765 80.142526 
Q 194.191959 84.009875 192.101269 87.79067 
L 190.801454 85.954103 
Q 180.953372 92.924003 169.485252 97.083414 
L 168.462372 94.26318 
z
" style="fill:#008000;opacity:0.5;stroke:#008000;stroke-linecap:round;"/>
   </g>
   <g id="patch_7">
    <path clip-path="url(#p3b97b119c3)" d="M 94.435661 110.648062 
Q 104.472337 112.906557 114.631324 112.553743 
L 114.55323 110.305099 
Q 118.1743 112.05943 122.155735 113.448885 
Q 118.648363 115.787311 114.813542 117.80058 
L 114.735449 115.551935 
Q 104.190503 115.918153 93.777057 113.574876 
L 94.435661 110.648062 
z
" style="fill:#008000;opacity:0.5;stroke:#008000;stroke-linecap:round;"/>
   </g>
   <g id="patch_8">
    <path clip-path="url(#p3b97b119c3)" d="M 121.564339 105.351938 
Q 111.527663 103.093443 101.368676 103.446257 
L 101.44677 105.694901 
Q 97.8257 103.94057 93.844265 102.551115 
Q 97.351637 100.212689 101.186458 98.19942 
L 101.264551 100.448065 
Q 111.809497 100.081847 122.222943 102.425124 
L 121.564339 105.351938 
z
" style="fill:#008000;opacity:0.5;stroke:#008000;stroke-linecap:round;"/>
   </g>
   <g id="text_1">
    <!-- $X$ -->
    <defs>
     <path d="M 3.609375 0 
Q 2.59375 0 2.59375 1.3125 
Q 2.640625 1.5625 2.8125 2.1875 
Q 2.984375 2.828125 3.25 3.171875 
Q 3.515625 3.515625 4 3.515625 
Q 13.09375 3.515625 19.578125 10.296875 
Q 19.671875 10.40625 19.796875 10.453125 
Q 19.921875 10.5 19.921875 10.5 
L 41.796875 34.078125 
L 29.890625 62.796875 
Q 28.859375 64.109375 26.5625 64.453125 
Q 24.265625 64.796875 21.1875 64.796875 
Q 20.21875 64.796875 20.21875 66.109375 
Q 20.5625 67.390625 20.75 67.84375 
Q 20.953125 68.3125 21.921875 68.3125 
L 46.921875 68.3125 
Q 47.90625 68.3125 47.90625 67 
Q 47.859375 66.75 47.6875 66.109375 
Q 47.515625 65.484375 47.234375 65.140625 
Q 46.96875 64.796875 46.484375 64.796875 
Q 44.625 64.796875 42.640625 64.1875 
Q 40.671875 63.578125 39.890625 62.203125 
L 48.484375 41.5 
L 64.890625 59.078125 
Q 65.046875 59.421875 65.578125 60.28125 
Q 66.109375 61.140625 66.109375 61.921875 
Q 66.109375 63.375 64.84375 64.078125 
Q 63.578125 64.796875 61.8125 64.796875 
Q 60.796875 64.796875 60.796875 66.109375 
Q 61.140625 67.390625 61.328125 67.84375 
Q 61.53125 68.3125 62.5 68.3125 
L 84.1875 68.3125 
Q 84.71875 68.3125 84.953125 67.921875 
Q 85.203125 67.53125 85.203125 67 
Q 85.15625 66.75 85 66.15625 
Q 84.859375 65.578125 84.609375 65.1875 
Q 84.375 64.796875 83.890625 64.796875 
Q 79.25 64.796875 75.359375 63.109375 
Q 71.484375 61.421875 68.21875 58.015625 
Q 68.171875 57.953125 68.09375 57.921875 
Q 68.015625 57.90625 67.921875 57.8125 
L 49.8125 38.28125 
L 63.484375 5.515625 
Q 65.09375 3.515625 72.21875 3.515625 
Q 73.1875 3.515625 73.1875 2.203125 
Q 72.859375 0.875 72.625 0.4375 
Q 72.40625 0 71.484375 0 
L 46.484375 0 
Q 45.515625 0 45.515625 1.3125 
Q 45.5625 1.5625 45.703125 2.171875 
Q 45.84375 2.78125 46.109375 3.140625 
Q 46.390625 3.515625 46.78125 3.515625 
Q 48.734375 3.515625 50.734375 4.125 
Q 52.734375 4.734375 53.515625 6.109375 
L 43.109375 31 
L 22.90625 9.1875 
Q 22.75 8.84375 22.21875 8 
Q 21.6875 7.171875 21.6875 6.390625 
Q 21.6875 4.9375 23.046875 4.21875 
Q 24.421875 3.515625 25.984375 3.515625 
Q 27 3.515625 27 2.203125 
Q 26.65625 0.78125 26.453125 0.390625 
Q 26.265625 0 25.296875 0 
z
" id="Cmmi10-58"/>
    </defs>
    <g transform="translate(62.48 112.415)scale(0.16 -0.16)">
     <use transform="translate(0.0 0.6875)" xlink:href="#Cmmi10-58"/>
    </g>
   </g>
   <g id="text_2">
    <!-- $S$ -->
    <defs>
     <path d="M 6.109375 -2.203125 
Q 5.8125 -2.203125 5.5625 -1.859375 
Q 5.328125 -1.515625 5.328125 -1.21875 
L 11.078125 22.125 
Q 11.28125 22.703125 11.921875 22.703125 
L 13.09375 22.703125 
Q 13.484375 22.703125 13.703125 22.40625 
Q 13.921875 22.125 13.921875 21.6875 
Q 13.09375 18.265625 13.09375 15.578125 
Q 13.09375 8.34375 18.0625 4.828125 
Q 23.046875 1.3125 30.609375 1.3125 
Q 33.890625 1.3125 37.0625 2.921875 
Q 40.234375 4.546875 42.59375 7.125 
Q 44.96875 9.71875 46.375 12.90625 
Q 47.796875 16.109375 47.796875 19.390625 
Q 47.796875 22.90625 45.9375 25.65625 
Q 44.09375 28.421875 40.828125 29.203125 
L 28.609375 32.421875 
Q 23.6875 33.734375 20.75 37.71875 
Q 17.828125 41.703125 17.828125 46.6875 
Q 17.828125 52.6875 21.390625 58.25 
Q 24.953125 63.8125 30.6875 67.15625 
Q 36.421875 70.515625 42.390625 70.515625 
Q 46.96875 70.515625 50.796875 68.828125 
Q 54.640625 67.140625 56.6875 63.484375 
L 62.40625 70.21875 
Q 62.984375 70.515625 63.09375 70.515625 
L 63.71875 70.515625 
Q 64.109375 70.515625 64.34375 70.171875 
Q 64.59375 69.828125 64.59375 69.484375 
L 58.796875 46.296875 
Q 58.640625 45.609375 58.015625 45.609375 
L 56.78125 45.609375 
Q 55.90625 45.609375 55.90625 46.6875 
Q 56.390625 49.859375 56.390625 52.203125 
Q 56.390625 56.84375 54.796875 60.28125 
Q 53.21875 63.71875 50.015625 65.5 
Q 46.828125 67.28125 42.09375 67.28125 
Q 38.09375 67.28125 34.125 64.984375 
Q 30.171875 62.703125 27.734375 58.890625 
Q 25.296875 55.078125 25.296875 50.984375 
Q 25.296875 47.75 27.171875 45.265625 
Q 29.046875 42.78125 32.171875 41.890625 
L 44.390625 38.71875 
Q 47.703125 37.84375 50.171875 35.625 
Q 52.640625 33.40625 53.90625 30.34375 
Q 55.171875 27.296875 55.171875 23.6875 
Q 55.171875 18.953125 53.171875 14.328125 
Q 51.171875 9.71875 47.578125 5.90625 
Q 44 2.09375 39.453125 -0.046875 
Q 34.90625 -2.203125 30.171875 -2.203125 
Q 18.265625 -2.203125 13.09375 4.78125 
L 7.515625 -1.90625 
Q 6.9375 -2.203125 6.78125 -2.203125 
z
" id="Cmmi10-53"/>
    </defs>
    <g transform="translate(141.92 112.415)scale(0.16 -0.16)">
     <use transform="translate(0.0 0.484375)" xlink:href="#Cmmi10-53"/>
    </g>
   </g>
  </g>
 </g>
 <defs>
  <clipPath id="p3b97b119c3">
   <rect height="216.0" width="216.0" x="0.0" y="0.0"/>
  </clipPath>
 </defs>
</svg>
