<?xml version="1.0" encoding="utf-8" standalone="no"?>
<!DOCTYPE svg PUBLIC "-//W3C//DTD SVG 1.1//EN"
  "http://www.w3.org/Graphics/SVG/1.1/DTD/svg11.dtd">
<!-- Created with matplotlib (http://matplotlib.org/) -->
<svg height="504pt" version="1.1" viewBox="0 0 504 504" width="504pt" xmlns="http://www.w3.org/2000/svg" xmlns:xlink="http://www.w3.org/1999/xlink">
 <defs>
  <style type="text/css">
*{stroke-linecap:butt;stroke-linejoin:round;stroke-miterlimit:100000;}
  </style>
 </defs>
 <g id="figure_1">
  <g id="patch_1">
   <path d="M 0 504 
L 504 504 
L 504 0 
L 0 0 
z
" style="fill:#ffffff;"/>
  </g>
  <g id="axes_1">
   <g id="patch_2">
    <path d="M 63.04375 448.42625 
L 491.04 448.42625 
L 491.04 12.96 
L 63.04375 12.96 
z
" style="fill:#ffffff;"/>
   </g>
   <g id="PathCollection_1">
    <defs>
     <path d="M 0 3.872983 
C 1.027127 3.872983 2.012324 3.464901 2.738613 2.738613 
C 3.464901 2.012324 3.872983 1.027127 3.872983 0 
C 3.872983 -1.027127 3.464901 -2.012324 2.738613 -2.738613 
C 2.012324 -3.464901 1.027127 -3.872983 0 -3.872983 
C -1.027127 -3.872983 -2.012324 -3.464901 -2.738613 -2.738613 
C -3.464901 -2.012324 -3.872983 -1.027127 -3.872983 0 
C -3.872983 1.027127 -3.464901 2.012324 -2.738613 2.738613 
C -2.012324 3.464901 -1.027127 3.872983 0 3.872983 
z
" id="m4f36e524d9" style="stroke:#000000;"/>
    </defs>
    <g clip-path="url(#pd187fced7f)">
     <use style="fill:#0000ff;stroke:#000000;" x="95.4677083333" xlink:href="#m4f36e524d9" y="382.446515152"/>
    </g>
   </g>
   <g id="patch_3">
    <path clip-path="url(#pd187fced7f)" d="M 295.494589 296.781562 
Q 300.263507 299.698311 305.032424 302.61506 
Q 299.837675 304.680145 294.642925 306.745229 
z
" style="fill:#0000ff;stroke:#000000;stroke-linecap:round;"/>
   </g>
   <g id="line2d_1">
    <path clip-path="url(#pd187fced7f)" d="M 95.467708 382.446515 
L 112.370028 383.233572 
L 127.976793 383.851167 
L 155.712049 384.765836 
L 189.913195 385.667158 
L 231.750605 386.531466 
L 276.200031 387.211464 
L 305.037382 387.448019 
L 317.606637 387.355028 
L 324.02318 387.098965 
L 328.874131 386.680514 
L 334.165392 385.986746 
L 340.199718 384.961761 
L 346.117772 383.735711 
L 351.94442 382.306937 
L 357.672087 380.671933 
L 363.09795 378.893063 
L 368.222957 376.986209 
L 373.23284 374.88541 
L 377.938789 372.672865 
L 382.345224 370.363726 
L 386.626537 367.869837 
L 390.610374 365.295323 
L 394.462008 362.537313 
L 398.020981 359.715456 
L 401.442448 356.711967 
L 404.578805 353.66278 
L 407.574165 350.43492 
L 410.294653 347.18124 
L 412.872498 343.753278 
L 415.300433 340.145297 
L 417.466534 336.536488 
L 419.48322 332.754208 
L 421.343664 328.793558 
L 423.040871 324.649749 
L 424.567688 320.318164 
L 425.916818 315.794421 
L 427.080835 311.074445 
L 428.008328 306.405345 
L 428.755426 301.553057 
L 429.315548 296.515295 
L 429.682093 291.290329 
L 429.848463 285.877087 
L 429.808104 280.275255 
L 429.535163 274.17548 
L 429.018573 267.869225 
L 428.251134 261.359743 
L 427.225929 254.651878 
L 425.936402 247.75226 
L 424.376443 240.669519 
L 422.540488 233.414515 
L 420.423619 226.000559 
L 418.148606 218.824623 
L 415.613491 211.53584 
L 412.816278 204.152971 
L 409.755904 196.697536 
L 406.43235 189.193984 
L 402.846764 181.669853 
L 399.210371 174.550568 
L 395.344206 167.469272 
L 391.252726 160.457565 
L 387.186849 153.930187 
L 382.931146 147.526577 
L 378.758797 141.642406 
L 374.431645 135.9265 
L 370.241435 130.74791 
L 365.929579 125.770432 
L 361.802654 121.330143 
L 357.58421 117.111227 
L 353.28217 113.136604 
L 349.220014 109.684822 
L 345.100417 106.482108 
L 341.253395 103.762704 
L 337.370379 101.285372 
L 333.458027 99.063984 
L 329.851841 97.264009 
L 326.232323 95.700253 
L 322.605132 94.382102 
L 319.3059 93.404323 
L 316.009543 92.642914 
L 312.720557 92.103466 
L 309.443484 91.790985 
L 306.182897 91.709845 
L 302.943387 91.863733 
L 299.729537 92.255595 
L 296.545914 92.887596 
L 293.397045 93.761071 
L 290.287396 94.876489 
L 287.221359 96.23343 
L 284.203229 97.830549 
L 281.237185 99.665568 
L 278.327277 101.735263 
L 275.477401 104.035464 
L 272.691287 106.561064 
L 269.972482 109.306035 
L 267.063531 112.570594 
L 264.244237 116.081799 
L 261.518438 119.828063 
L 258.889632 123.796712 
L 256.136143 128.363689 
L 253.505401 133.16011 
L 251.00047 138.166005 
L 248.431699 143.801276 
L 246.016084 149.630648 
L 243.588017 156.093597 
L 241.341078 162.7144 
L 239.135203 169.943751 
L 237.137397 177.272366 
L 235.346211 184.659644 
L 233.660663 192.560497 
L 232.203575 200.440029 
L 230.900301 208.743334 
L 229.842649 216.932813 
L 229.02299 224.969616 
L 228.405296 233.275496 
L 228.034676 241.339061 
L 227.900259 249.133117 
L 227.990919 256.636454 
L 228.295421 263.833385 
L 228.802551 270.713218 
L 229.501219 277.269689 
L 230.38054 283.500387 
L 231.429907 289.40618 
L 232.639032 294.99068 
L 233.997991 300.259733 
L 235.497241 305.220957 
L 237.127637 309.88334 
L 238.88044 314.256873 
L 240.854209 318.571826 
L 242.945751 322.589926 
L 245.14622 326.324495 
L 247.447235 329.788861 
L 249.840855 332.996177 
L 252.319561 335.959269 
L 255.012824 338.828085 
L 257.78462 341.453852 
L 260.627516 343.849696 
L 263.681386 346.131408 
L 266.798181 348.186667 
L 270.122936 350.110467 
L 273.500786 351.812598 
L 277.080756 353.368201 
L 280.86059 354.760797 
L 284.676844 355.930516 
L 288.681728 356.92435 
L 292.86918 357.726976 
L 297.069708 358.305279 
L 301.435452 358.678881 
L 305.794758 358.830491 
L 310.298022 358.76162 
L 314.772699 358.469628 
L 319.208086 357.960239 
L 323.59362 357.237843 
L 327.918821 356.305616 
L 332.173245 355.165632 
L 336.346442 353.818964 
L 340.427911 352.265783 
L 344.266838 350.571905 
L 348.001042 348.684214 
L 351.620815 346.60097 
L 354.989176 344.408003 
L 358.233366 342.029351 
L 361.227241 339.564684 
L 364.089746 336.923521 
L 366.812574 334.103321 
L 369.287259 331.225111 
L 371.6179 328.177317 
L 373.796859 324.957828 
L 375.816425 321.564728 
L 377.595087 318.148568 
L 379.213363 314.570307 
L 380.664381 310.82919 
L 381.941285 306.924931 
L 383.037267 302.857809 
L 383.9456 298.628768 
L 384.659678 294.239525 
L 385.173061 289.692689 
L 385.479525 284.991883 
L 385.57312 280.141874 
L 385.44823 275.148719 
L 385.099646 270.019899 
L 384.522636 264.764465 
L 383.713034 259.393192 
L 382.66732 253.918727 
L 381.382721 248.355741 
L 379.857308 242.72105 
L 378.0901 237.033755 
L 376.08117 231.315344 
L 373.831758 225.589785 
L 371.34438 219.88358 
L 368.746056 214.470336 
L 365.938252 209.128936 
L 362.926978 203.88901 
L 359.869562 199.010899 
L 356.64117 194.282942 
L 353.415704 189.947377 
L 350.052026 185.802432 
L 346.73746 182.066479 
L 343.316341 178.551543 
L 339.986188 175.447324 
L 336.578828 172.583446 
L 333.298831 170.117349 
L 329.967704 167.899756 
L 326.794147 166.053619 
L 323.591619 164.453766 
L 320.570364 163.18779 
L 317.538063 162.157009 
L 314.501938 161.36918 
L 311.671243 160.859048 
L 308.849632 160.571087 
L 306.043161 160.509029 
L 303.257884 160.67564 
L 300.499826 161.072662 
L 297.774949 161.700767 
L 295.089123 162.559524 
L 292.448093 163.64737 
L 289.857452 164.961596 
L 287.322607 166.498346 
L 284.848752 168.252631 
L 282.271501 170.366668 
L 279.775711 172.714552 
L 277.366761 175.286088 
L 274.89853 178.262673 
L 272.540258 181.465421 
L 270.296863 184.87776 
L 268.043949 188.713259 
L 265.930022 192.743164 
L 263.847279 197.196354 
L 261.927825 201.813572 
L 260.081558 206.833991 
L 258.421681 211.972534 
L 256.876522 217.473448 
L 255.476663 223.311521 
L 254.302931 229.17364 
L 253.352194 235.022229 
L 252.590722 241.097249 
L 252.063305 247.083815 
L 251.762951 252.950378 
L 251.683255 258.925734 
L 251.83356 264.713879 
L 252.203647 270.293366 
L 252.782898 275.647268 
L 253.560443 280.762804 
L 254.525287 285.630921 
L 255.666423 290.245861 
L 256.972916 294.604715 
L 258.433982 298.706992 
L 260.039036 302.554217 
L 261.77774 306.149553 
L 263.640036 309.497458 
L 265.616161 312.603388 
L 267.696661 315.473526 
L 269.96902 318.224295 
L 272.335065 320.733551 
L 274.785145 323.009407 
L 277.309964 325.059979 
L 280.009811 326.965038 
L 282.771293 328.643069 
L 285.698528 330.156407 
L 288.672093 331.442206 
L 291.798539 332.545591 
L 294.953734 333.42131 
L 298.127399 334.077331 
L 301.427458 334.533334 
L 304.725851 334.768123 
L 308.129062 334.784992 
L 311.507771 334.577843 
L 314.850798 334.152192 
L 318.147162 333.512797 
L 321.386054 332.663725 
L 324.556809 331.608427 
L 327.648881 330.349808 
L 330.651822 328.890316 
L 333.555271 327.232023 
L 336.348942 325.376718 
L 338.932533 323.399951 
L 341.395133 321.242377 
L 343.727682 318.905369 
L 345.921201 316.390409 
L 347.966806 313.69919 
L 349.791071 310.939034 
L 351.461924 308.019032 
L 352.9718 304.941838 
L 354.313325 301.710691 
L 355.47936 298.32952 
L 356.463047 294.803067 
L 357.257863 291.137009 
L 357.857682 287.338077 
L 358.256836 283.414191 
L 358.450192 279.374585 
L 358.428511 275.074565 
L 358.176401 270.675272 
L 357.690526 266.192335 
L 356.968583 261.643462 
L 356.009408 257.048529 
L 354.813105 252.429661 
L 353.381161 247.81128 
L 351.779978 243.383286 
L 349.96656 239.006505 
L 347.946492 234.708716 
L 345.726915 230.519399 
L 343.409147 226.616664 
L 340.923769 222.871963 
L 338.385896 219.447779 
L 335.823087 216.34837 
L 333.147159 213.456832 
L 330.487326 210.902404 
L 327.745325 208.580278 
L 325.056537 206.594204 
L 322.439947 204.927657 
L 319.784594 203.498054 
L 317.22908 202.367469 
L 314.656921 201.471252 
L 312.206471 200.843885 
L 309.757573 200.440272 
L 307.318413 200.264509 
L 304.897182 200.319355 
L 302.50202 200.606158 
L 300.14096 201.124803 
L 297.821877 201.873672 
L 295.55243 202.849638 
L 293.340014 204.048061 
L 291.191706 205.462829 
L 289.006964 207.177475 
L 286.908045 209.113063 
L 284.901754 211.257652 
L 282.90164 213.719802 
L 280.930208 216.512171 
L 279.091995 219.501918 
L 277.318687 222.814706 
L 275.635602 226.447634 
L 274.127898 230.23053 
L 272.747328 234.297691 
L 271.5194 238.628553 
L 270.504138 243.025721 
L 269.674018 247.624156 
L 269.069761 252.218531 
L 268.677315 256.942081 
L 268.51732 261.589733 
L 268.582409 266.130848 
L 268.864107 270.53883 
L 269.35304 274.791073 
L 270.039114 278.868795 
L 270.911693 282.756811 
L 271.959738 286.443232 
L 273.17195 289.919143 
L 274.536873 293.178254 
L 276.042994 296.216558 
L 277.678819 299.031993 
L 279.432936 301.62412 
L 281.362371 304.074377 
L 283.394255 306.288253 
L 285.516472 308.26889 
L 287.717151 310.020132 
L 289.984683 311.546315 
L 292.388688 312.893251 
L 294.839842 314.009679 
L 297.326191 314.901019 
L 299.920003 315.591324 
L 302.526386 316.052848 
L 305.133089 316.291215 
L 307.811539 316.308916 
L 310.46474 316.100232 
L 313.08014 315.670549 
L 315.645473 315.024993 
L 318.14874 314.16848 
L 320.578212 313.105761 
L 322.922422 311.841491 
L 325.17017 310.380305 
L 327.310532 308.726904 
L 329.332877 306.886152 
L 331.226883 304.863182 
L 332.982572 302.663506 
L 334.590341 300.293138 
L 336.041009 297.758713 
L 337.325866 295.067627 
L 338.436734 292.228159 
L 339.366035 289.249617 
L 340.106864 286.142463 
L 340.666945 282.815957 
L 341.01426 279.379649 
L 341.14408 275.849731 
L 341.052861 272.244242 
L 340.738371 268.58315 
L 340.199806 264.88841 
L 339.437914 261.183977 
L 338.455115 257.495772 
L 337.255605 253.851596 
L 335.845453 250.280965 
L 334.232682 246.814889 
L 332.484744 243.584119 
L 330.566664 240.511995 
L 328.558302 237.71581 
L 326.486482 235.204563 
L 324.301916 232.909477 
L 322.096606 230.91835 
L 319.893416 229.226925 
L 317.712854 227.826493 
L 315.490033 226.665857 
L 313.321812 225.785556 
L 311.222629 225.166728 
L 309.120338 224.776981 
L 307.025831 224.620363 
L 305.03252 224.691351 
L 303.065918 224.979368 
L 301.135363 225.482876 
L 299.249934 226.198604 
L 297.343363 227.164428 
L 295.504675 228.347536 
L 293.673986 229.798311 
L 291.935582 231.461286 
L 290.23706 233.397321 
L 288.599452 235.611043 
L 287.044952 238.101886 
L 285.642168 240.768737 
L 284.3573 243.68413 
L 283.212727 246.832018 
L 282.230514 250.190407 
L 281.431933 253.731537 
L 280.851188 257.313517 
L 280.478714 261.008251 
L 280.331387 264.670614 
L 280.403184 268.266905 
L 280.697865 271.86822 
L 281.206647 275.338884 
L 281.91824 278.654298 
L 282.820268 281.793868 
L 283.899495 284.740767 
L 285.142031 287.48163 
L 286.53351 290.006212 
L 288.059245 292.307025 
L 289.704362 294.378969 
L 291.453908 296.218989 
L 293.292944 297.82574 
L 295.206614 299.199297 
L 297.180208 300.340891 
L 299.199207 301.252685 
L 301.249319 301.937585 
L 303.316509 302.399087 
L 305.44609 302.644892 
L 307.564543 302.663285 
L 309.657581 302.459361 
L 311.711286 302.038533 
L 313.712131 301.406522 
L 315.699683 300.543245 
L 317.603789 299.470216 
L 319.411212 298.194831 
L 321.109274 296.725012 
L 322.685904 295.069302 
L 324.129691 293.236966 
L 325.463002 291.181868 
L 326.634214 288.963109 
L 327.633591 286.593869 
L 328.452467 284.088651 
L 329.097358 281.392855 
L 329.53756 278.589587 
L 329.767959 275.699612 
L 329.782761 272.669206 
L 329.571614 269.597928 
L 329.135031 266.514335 
L 328.475846 263.448913 
L 327.599327 260.433872 
L 326.513267 257.502836 
L 325.262495 254.759023 
L 323.83436 252.160555 
L 322.285859 249.799489 
L 320.643858 247.690775 
L 318.934245 245.844175 
L 317.13029 244.222537 
L 315.302333 242.881012 
L 313.472673 241.815541 
L 311.661325 241.01761 
L 309.885863 240.474827 
L 308.105805 240.165475 
L 306.390222 240.091624 
L 304.696137 240.24076 
L 303.035966 240.611187 
L 301.42175 241.1988 
L 299.81589 242.026284 
L 298.28327 243.0686 
L 296.791238 244.35568 
L 295.359597 245.890659 
L 294.009113 247.671771 
L 292.761145 249.691885 
L 291.637212 251.938174 
L 290.658506 254.391996 
L 289.845375 257.028992 
L 289.216793 259.819414 
L 288.789823 262.728684 
L 288.57911 265.718158 
L 288.593386 268.676312 
L 288.825514 271.565611 
L 289.278911 274.417277 
L 289.938231 277.129906 
L 290.789132 279.676433 
L 291.789978 281.981699 
L 292.94249 284.08972 
L 294.229856 285.986864 
L 295.634627 287.662735 
L 297.13893 289.109829 
L 298.72464 290.323199 
L 300.333682 291.279633 
L 301.986024 292.010025 
L 303.664891 292.515191 
L 305.353739 292.797304 
L 307.077162 292.858551 
L 308.776999 292.694075 
L 310.436726 292.309779 
L 312.040402 291.712602 
L 313.608232 290.888975 
L 315.085683 289.860191 
L 316.458045 288.637037 
L 317.739239 287.196741 
L 318.882536 285.57968 
L 319.89649 283.75936 
L 320.741995 281.788949 
L 321.422054 279.640632 
L 321.915901 277.329856 
L 322.200122 274.929111 
L 322.269964 272.414933 
L 322.115891 269.870945 
L 321.739887 267.332513 
L 321.14724 264.836598 
L 320.346618 262.421263 
L 319.350084 260.125053 
L 318.199288 258.028934 
L 316.922142 256.157061 
L 315.546642 254.527768 
L 314.100218 253.153426 
L 312.609166 252.040488 
L 311.098154 251.189731 
L 309.589818 250.596663 
L 308.104459 250.252074 
L 306.659842 250.142704 
L 305.234921 250.257718 
L 303.845336 250.594449 
L 302.506135 251.146965 
L 301.199845 251.928257 
L 299.946351 252.941039 
L 298.766384 254.183046 
L 297.681071 255.646577 
L 296.691136 257.35802 
L 295.844616 259.264461 
L 295.148832 261.384116 
L 294.642406 263.642269 
L 294.340683 265.999158 
L 294.255449 268.411224 
L 294.394429 270.832333 
L 294.751948 273.171157 
L 295.314901 275.388494 
L 296.067161 277.450294 
L 296.970857 279.293578 
L 298.019253 280.937295 
L 299.191428 282.363802 
L 300.439591 283.538629 
L 301.764247 284.483096 
L 303.115702 285.179956 
L 304.499264 285.648175 
L 305.894571 285.888139 
L 307.281611 285.902611 
L 308.640905 285.696548 
L 309.979869 285.26623 
L 311.251416 284.623116 
L 312.46043 283.759911 
L 313.58364 282.679126 
L 314.579528 281.413116 
L 315.448117 279.952584 
L 316.167199 278.311715 
L 316.715649 276.509747 
L 317.074125 274.571448 
L 317.225858 272.527503 
L 317.157513 270.414769 
L 316.867032 268.312204 
L 316.361733 266.264661 
L 315.653728 264.317294 
L 314.776669 262.544059 
L 313.759531 260.976738 
L 312.632498 259.640224 
L 311.42602 258.552143 
L 310.194149 257.736086 
L 308.942377 257.172217 
L 307.720692 256.860602 
L 306.501423 256.779013 
L 305.329148 256.921839 
L 304.197585 257.280402 
L 303.102842 257.859623 
L 302.066618 258.658378 
L 301.093329 259.691365 
L 300.212313 260.955338 
L 299.453838 262.43764 
L 298.847878 264.115472 
L 298.42271 265.95567 
L 298.205158 267.883342 
L 298.204686 269.84758 
L 298.42495 271.795447 
L 298.85501 273.645456 
L 299.477251 275.353788 
L 300.269971 276.883168 
L 301.192293 278.183969 
L 302.211847 279.243945 
L 303.297319 280.058582 
L 304.419164 280.629822 
L 305.569722 280.968678 
L 306.704516 281.075119 
L 307.819626 280.960478 
L 308.910682 280.624436 
L 309.952653 280.067097 
L 310.919956 279.29314 
L 311.78705 278.312253 
L 312.539683 277.119655 
L 313.138682 275.75185 
L 313.567401 274.213774 
L 313.796763 272.562361 
L 313.813192 270.841418 
L 313.609149 269.101055 
L 313.191602 267.420077 
L 312.576159 265.851796 
L 311.797272 264.465594 
L 310.888374 263.297805 
L 309.900461 262.387268 
L 308.87199 261.739357 
L 307.83762 261.34868 
L 306.82728 261.200834 
L 305.849329 261.277518 
L 304.894489 261.576174 
L 303.98808 262.096139 
L 303.142929 262.842833 
L 302.389541 263.809052 
L 301.750221 264.995673 
L 301.261839 266.379245 
L 300.961886 267.900074 
L 300.871477 269.504536 
L 301.000989 271.110263 
L 301.346628 272.654781 
L 301.887702 274.060841 
L 302.587119 275.266816 
L 303.408253 276.244377 
L 304.300928 276.968539 
L 305.239911 277.447896 
L 306.178228 277.683322 
L 307.112248 277.691156 
L 308.013782 277.477243 
L 308.125945 277.434182 
L 308.125945 277.434182 
" style="fill:none;stroke:#0000ff;stroke-linecap:square;"/>
   </g>
   <g id="patch_4">
    <path d="M 63.04375 12.96 
L 491.04 12.96 
" style="fill:none;stroke:#000000;stroke-linecap:square;stroke-linejoin:miter;"/>
   </g>
   <g id="patch_5">
    <path d="M 63.04375 448.42625 
L 63.04375 12.96 
" style="fill:none;stroke:#000000;stroke-linecap:square;stroke-linejoin:miter;"/>
   </g>
   <g id="patch_6">
    <path d="M 491.04 448.42625 
L 491.04 12.96 
" style="fill:none;stroke:#000000;stroke-linecap:square;stroke-linejoin:miter;"/>
   </g>
   <g id="patch_7">
    <path d="M 63.04375 448.42625 
L 491.04 448.42625 
" style="fill:none;stroke:#000000;stroke-linecap:square;stroke-linejoin:miter;"/>
   </g>
   <g id="matplotlib.axis_1">
    <g id="xtick_1">
     <g id="line2d_2">
      <defs>
       <path d="M 0 0 
L 0 -4 
" id="mf29b329541" style="stroke:#000000;stroke-width:0.5;"/>
      </defs>
      <g>
       <use style="stroke:#000000;stroke-width:0.5;" x="63.04375" xlink:href="#mf29b329541" y="448.42625"/>
      </g>
     </g>
     <g id="line2d_3">
      <defs>
       <path d="M 0 0 
L 0 4 
" id="mace4a799f7" style="stroke:#000000;stroke-width:0.5;"/>
      </defs>
      <g>
       <use style="stroke:#000000;stroke-width:0.5;" x="63.04375" xlink:href="#mace4a799f7" y="12.96"/>
      </g>
     </g>
     <g id="text_1">
      <!-- 0 -->
      <defs>
       <path d="M 31.78125 66.40625 
Q 24.171875 66.40625 20.328125 58.90625 
Q 16.5 51.421875 16.5 36.375 
Q 16.5 21.390625 20.328125 13.890625 
Q 24.171875 6.390625 31.78125 6.390625 
Q 39.453125 6.390625 43.28125 13.890625 
Q 47.125 21.390625 47.125 36.375 
Q 47.125 51.421875 43.28125 58.90625 
Q 39.453125 66.40625 31.78125 66.40625 
M 31.78125 74.21875 
Q 44.046875 74.21875 50.515625 64.515625 
Q 56.984375 54.828125 56.984375 36.375 
Q 56.984375 17.96875 50.515625 8.265625 
Q 44.046875 -1.421875 31.78125 -1.421875 
Q 19.53125 -1.421875 13.0625 8.265625 
Q 6.59375 17.96875 6.59375 36.375 
Q 6.59375 54.828125 13.0625 64.515625 
Q 19.53125 74.21875 31.78125 74.21875 
" id="BitstreamVeraSans-Roman-30"/>
      </defs>
      <g transform="translate(59.22625 461.544375)scale(0.12 -0.12)">
       <use xlink:href="#BitstreamVeraSans-Roman-30"/>
      </g>
     </g>
    </g>
    <g id="xtick_2">
     <g id="line2d_4">
      <g>
       <use style="stroke:#000000;stroke-width:0.5;" x="171.123611111" xlink:href="#mf29b329541" y="448.42625"/>
      </g>
     </g>
     <g id="line2d_5">
      <g>
       <use style="stroke:#000000;stroke-width:0.5;" x="171.123611111" xlink:href="#mace4a799f7" y="12.96"/>
      </g>
     </g>
     <g id="text_2">
      <!-- 5 -->
      <defs>
       <path d="M 10.796875 72.90625 
L 49.515625 72.90625 
L 49.515625 64.59375 
L 19.828125 64.59375 
L 19.828125 46.734375 
Q 21.96875 47.46875 24.109375 47.828125 
Q 26.265625 48.1875 28.421875 48.1875 
Q 40.625 48.1875 47.75 41.5 
Q 54.890625 34.8125 54.890625 23.390625 
Q 54.890625 11.625 47.5625 5.09375 
Q 40.234375 -1.421875 26.90625 -1.421875 
Q 22.3125 -1.421875 17.546875 -0.640625 
Q 12.796875 0.140625 7.71875 1.703125 
L 7.71875 11.625 
Q 12.109375 9.234375 16.796875 8.0625 
Q 21.484375 6.890625 26.703125 6.890625 
Q 35.15625 6.890625 40.078125 11.328125 
Q 45.015625 15.765625 45.015625 23.390625 
Q 45.015625 31 40.078125 35.4375 
Q 35.15625 39.890625 26.703125 39.890625 
Q 22.75 39.890625 18.8125 39.015625 
Q 14.890625 38.140625 10.796875 36.28125 
z
" id="BitstreamVeraSans-Roman-35"/>
      </defs>
      <g transform="translate(167.306111111 461.544375)scale(0.12 -0.12)">
       <use xlink:href="#BitstreamVeraSans-Roman-35"/>
      </g>
     </g>
    </g>
    <g id="xtick_3">
     <g id="line2d_6">
      <g>
       <use style="stroke:#000000;stroke-width:0.5;" x="279.203472222" xlink:href="#mf29b329541" y="448.42625"/>
      </g>
     </g>
     <g id="line2d_7">
      <g>
       <use style="stroke:#000000;stroke-width:0.5;" x="279.203472222" xlink:href="#mace4a799f7" y="12.96"/>
      </g>
     </g>
     <g id="text_3">
      <!-- 10 -->
      <defs>
       <path d="M 12.40625 8.296875 
L 28.515625 8.296875 
L 28.515625 63.921875 
L 10.984375 60.40625 
L 10.984375 69.390625 
L 28.421875 72.90625 
L 38.28125 72.90625 
L 38.28125 8.296875 
L 54.390625 8.296875 
L 54.390625 0 
L 12.40625 0 
z
" id="BitstreamVeraSans-Roman-31"/>
      </defs>
      <g transform="translate(271.568472222 461.544375)scale(0.12 -0.12)">
       <use xlink:href="#BitstreamVeraSans-Roman-31"/>
       <use x="63.623046875" xlink:href="#BitstreamVeraSans-Roman-30"/>
      </g>
     </g>
    </g>
    <g id="xtick_4">
     <g id="line2d_8">
      <g>
       <use style="stroke:#000000;stroke-width:0.5;" x="387.283333333" xlink:href="#mf29b329541" y="448.42625"/>
      </g>
     </g>
     <g id="line2d_9">
      <g>
       <use style="stroke:#000000;stroke-width:0.5;" x="387.283333333" xlink:href="#mace4a799f7" y="12.96"/>
      </g>
     </g>
     <g id="text_4">
      <!-- 15 -->
      <g transform="translate(379.648333333 461.544375)scale(0.12 -0.12)">
       <use xlink:href="#BitstreamVeraSans-Roman-31"/>
       <use x="63.623046875" xlink:href="#BitstreamVeraSans-Roman-35"/>
      </g>
     </g>
    </g>
    <g id="text_5">
     <!-- $S\quad(\mu gC cm^{-3})$ -->
     <defs>
      <path d="M 6.109375 -2.203125 
Q 5.8125 -2.203125 5.5625 -1.859375 
Q 5.328125 -1.515625 5.328125 -1.21875 
L 11.078125 22.125 
Q 11.28125 22.703125 11.921875 22.703125 
L 13.09375 22.703125 
Q 13.484375 22.703125 13.703125 22.40625 
Q 13.921875 22.125 13.921875 21.6875 
Q 13.09375 18.265625 13.09375 15.578125 
Q 13.09375 8.34375 18.0625 4.828125 
Q 23.046875 1.3125 30.609375 1.3125 
Q 33.890625 1.3125 37.0625 2.921875 
Q 40.234375 4.546875 42.59375 7.125 
Q 44.96875 9.71875 46.375 12.90625 
Q 47.796875 16.109375 47.796875 19.390625 
Q 47.796875 22.90625 45.9375 25.65625 
Q 44.09375 28.421875 40.828125 29.203125 
L 28.609375 32.421875 
Q 23.6875 33.734375 20.75 37.71875 
Q 17.828125 41.703125 17.828125 46.6875 
Q 17.828125 52.6875 21.390625 58.25 
Q 24.953125 63.8125 30.6875 67.15625 
Q 36.421875 70.515625 42.390625 70.515625 
Q 46.96875 70.515625 50.796875 68.828125 
Q 54.640625 67.140625 56.6875 63.484375 
L 62.40625 70.21875 
Q 62.984375 70.515625 63.09375 70.515625 
L 63.71875 70.515625 
Q 64.109375 70.515625 64.34375 70.171875 
Q 64.59375 69.828125 64.59375 69.484375 
L 58.796875 46.296875 
Q 58.640625 45.609375 58.015625 45.609375 
L 56.78125 45.609375 
Q 55.90625 45.609375 55.90625 46.6875 
Q 56.390625 49.859375 56.390625 52.203125 
Q 56.390625 56.84375 54.796875 60.28125 
Q 53.21875 63.71875 50.015625 65.5 
Q 46.828125 67.28125 42.09375 67.28125 
Q 38.09375 67.28125 34.125 64.984375 
Q 30.171875 62.703125 27.734375 58.890625 
Q 25.296875 55.078125 25.296875 50.984375 
Q 25.296875 47.75 27.171875 45.265625 
Q 29.046875 42.78125 32.171875 41.890625 
L 44.390625 38.71875 
Q 47.703125 37.84375 50.171875 35.625 
Q 52.640625 33.40625 53.90625 30.34375 
Q 55.171875 27.296875 55.171875 23.6875 
Q 55.171875 18.953125 53.171875 14.328125 
Q 51.171875 9.71875 47.578125 5.90625 
Q 44 2.09375 39.453125 -0.046875 
Q 34.90625 -2.203125 30.171875 -2.203125 
Q 18.265625 -2.203125 13.09375 4.78125 
L 7.515625 -1.90625 
Q 6.9375 -2.203125 6.78125 -2.203125 
z
" id="Cmmi10-53"/>
      <path d="M 7.71875 1.703125 
Q 7.71875 2.296875 7.8125 2.59375 
L 15.28125 32.421875 
Q 16.015625 35.203125 16.015625 37.3125 
Q 16.015625 41.609375 13.09375 41.609375 
Q 9.96875 41.609375 8.453125 37.859375 
Q 6.9375 34.125 5.515625 28.421875 
Q 5.515625 28.125 5.21875 27.953125 
Q 4.9375 27.78125 4.6875 27.78125 
L 3.515625 27.78125 
Q 3.171875 27.78125 2.921875 28.140625 
Q 2.6875 28.515625 2.6875 28.8125 
Q 3.765625 33.15625 4.765625 36.171875 
Q 5.765625 39.203125 7.890625 41.6875 
Q 10.015625 44.1875 13.1875 44.1875 
Q 16.9375 44.1875 19.8125 41.8125 
Q 22.703125 39.453125 22.703125 35.796875 
Q 25.6875 39.703125 29.6875 41.9375 
Q 33.6875 44.1875 38.1875 44.1875 
Q 42.921875 44.1875 46.359375 41.765625 
Q 49.8125 39.359375 49.8125 34.90625 
Q 52.875 39.265625 57 41.71875 
Q 61.140625 44.1875 66.015625 44.1875 
Q 71.1875 44.1875 74.328125 41.375 
Q 77.484375 38.578125 77.484375 33.40625 
Q 77.484375 29.296875 75.65625 23.484375 
Q 73.828125 17.671875 71.09375 10.5 
Q 69.671875 7.03125 69.671875 4.5 
Q 69.671875 1.515625 72.015625 1.515625 
Q 75.921875 1.515625 78.515625 5.703125 
Q 81.109375 9.90625 82.171875 14.703125 
Q 82.46875 15.28125 83.015625 15.28125 
L 84.1875 15.28125 
Q 84.578125 15.28125 84.84375 15.015625 
Q 85.109375 14.75 85.109375 14.40625 
Q 85.109375 14.3125 85.015625 14.109375 
Q 83.640625 8.453125 80.25 3.65625 
Q 76.859375 -1.125 71.78125 -1.125 
Q 68.265625 -1.125 65.765625 1.296875 
Q 63.28125 3.71875 63.28125 7.171875 
Q 63.28125 8.9375 64.109375 11.078125 
Q 66.9375 18.609375 68.8125 24.515625 
Q 70.703125 30.421875 70.703125 34.90625 
Q 70.703125 37.703125 69.578125 39.65625 
Q 68.453125 41.609375 65.828125 41.609375 
Q 60.359375 41.609375 56.34375 38.25 
Q 52.34375 34.90625 49.421875 29.390625 
Q 49.21875 28.421875 49.125 27.875 
L 42.671875 2.203125 
Q 42.328125 0.828125 41.125 -0.140625 
Q 39.9375 -1.125 38.484375 -1.125 
Q 37.3125 -1.125 36.40625 -0.34375 
Q 35.5 0.4375 35.5 1.703125 
Q 35.5 2.296875 35.59375 2.59375 
L 42 28.078125 
Q 43.015625 32.171875 43.015625 34.90625 
Q 43.015625 37.703125 41.859375 39.65625 
Q 40.71875 41.609375 37.984375 41.609375 
Q 34.328125 41.609375 31.25 39.984375 
Q 28.171875 38.375 25.875 35.71875 
Q 23.578125 33.0625 21.6875 29.390625 
L 14.890625 2.203125 
Q 14.546875 0.828125 13.34375 -0.140625 
Q 12.15625 -1.125 10.6875 -1.125 
Q 9.46875 -1.125 8.59375 -0.34375 
Q 7.71875 0.4375 7.71875 1.703125 
" id="Cmmi10-6d"/>
      <path d="M 6.5 -25 
Q 5.609375 -25 5.609375 -24.125 
Q 5.609375 -23.6875 5.8125 -23.484375 
Q 22.90625 -6.78125 22.90625 25 
Q 22.90625 56.78125 6 73.296875 
Q 5.609375 73.53125 5.609375 74.125 
Q 5.609375 74.46875 5.875 74.734375 
Q 6.15625 75 6.5 75 
L 7.421875 75 
Q 7.71875 75 7.90625 74.8125 
Q 15.09375 69.140625 19.875 61.03125 
Q 24.65625 52.9375 26.875 43.75 
Q 29.109375 34.578125 29.109375 25 
Q 29.109375 17.921875 27.90625 11.0625 
Q 26.703125 4.203125 24.09375 -2.453125 
Q 21.484375 -9.125 17.484375 -14.765625 
Q 13.484375 -20.40625 7.90625 -24.8125 
Q 7.71875 -25 7.421875 -25 
z
" id="Cmr10-29"/>
      <path d="M 11.71875 11.921875 
Q 11.71875 7.5625 13.9375 4.53125 
Q 16.15625 1.515625 20.3125 1.515625 
Q 26.265625 1.515625 31.75 4.25 
Q 37.25 6.984375 40.71875 11.8125 
Q 41.015625 12.109375 41.5 12.109375 
Q 42 12.109375 42.5 11.546875 
Q 43.015625 10.984375 43.015625 10.5 
Q 43.015625 10.109375 42.828125 9.90625 
Q 39.15625 4.78125 32.953125 1.828125 
Q 26.765625 -1.125 20.125 -1.125 
Q 15.328125 -1.125 11.671875 1.140625 
Q 8.015625 3.421875 6 7.21875 
Q 4 11.03125 4 15.828125 
Q 4 22.5625 7.765625 29.203125 
Q 11.53125 35.84375 17.78125 40.015625 
Q 24.03125 44.1875 30.90625 44.1875 
Q 35.40625 44.1875 38.984375 42.015625 
Q 42.578125 39.84375 42.578125 35.59375 
Q 42.578125 32.859375 40.984375 30.921875 
Q 39.40625 29 36.71875 29 
Q 35.109375 29 34 30 
Q 32.90625 31 32.90625 32.625 
Q 32.90625 34.96875 34.609375 36.625 
Q 36.328125 38.28125 38.625 38.28125 
L 38.8125 38.28125 
Q 37.640625 39.984375 35.421875 40.796875 
Q 33.203125 41.609375 30.8125 41.609375 
Q 24.953125 41.609375 20.546875 36.59375 
Q 16.15625 31.59375 13.9375 24.625 
Q 11.71875 17.671875 11.71875 11.921875 
" id="Cmmi10-63"/>
      <path d="M 31 -24.8125 
Q 25.4375 -20.40625 21.40625 -14.71875 
Q 17.390625 -9.03125 14.8125 -2.578125 
Q 12.25 3.859375 10.984375 10.890625 
Q 9.71875 17.921875 9.71875 25 
Q 9.71875 32.171875 10.984375 39.203125 
Q 12.25 46.234375 14.859375 52.734375 
Q 17.484375 59.234375 21.53125 64.890625 
Q 25.59375 70.5625 31 74.8125 
Q 31 75 31.5 75 
L 32.421875 75 
Q 32.71875 75 32.953125 74.734375 
Q 33.203125 74.46875 33.203125 74.125 
Q 33.203125 73.6875 33.015625 73.484375 
Q 28.125 68.703125 24.875 63.234375 
Q 21.625 57.765625 19.640625 51.578125 
Q 17.671875 45.40625 16.796875 38.78125 
Q 15.921875 32.171875 15.921875 25 
Q 15.921875 -6.78125 32.90625 -23.296875 
Q 33.203125 -23.578125 33.203125 -24.125 
Q 33.203125 -24.359375 32.9375 -24.671875 
Q 32.671875 -25 32.421875 -25 
L 31.5 -25 
Q 31 -25 31 -24.8125 
" id="Cmr10-28"/>
      <path d="M 9.515625 7.71875 
Q 11.859375 4.296875 15.8125 2.640625 
Q 19.78125 0.984375 24.3125 0.984375 
Q 30.125 0.984375 32.5625 5.9375 
Q 35.015625 10.890625 35.015625 17.1875 
Q 35.015625 20.015625 34.5 22.84375 
Q 33.984375 25.6875 32.765625 28.125 
Q 31.546875 30.5625 29.421875 32.03125 
Q 27.296875 33.5 24.21875 33.5 
L 17.578125 33.5 
Q 16.703125 33.5 16.703125 34.421875 
L 16.703125 35.296875 
Q 16.703125 36.078125 17.578125 36.078125 
L 23.09375 36.53125 
Q 26.609375 36.53125 28.921875 39.15625 
Q 31.25 41.796875 32.328125 45.578125 
Q 33.40625 49.359375 33.40625 52.78125 
Q 33.40625 57.5625 31.15625 60.640625 
Q 28.90625 63.71875 24.3125 63.71875 
Q 20.515625 63.71875 17.046875 62.28125 
Q 13.578125 60.84375 11.53125 57.90625 
Q 11.71875 57.953125 11.859375 57.984375 
Q 12.015625 58.015625 12.203125 58.015625 
Q 14.453125 58.015625 15.96875 56.453125 
Q 17.484375 54.890625 17.484375 52.6875 
Q 17.484375 50.53125 15.96875 48.96875 
Q 14.453125 47.40625 12.203125 47.40625 
Q 10.015625 47.40625 8.453125 48.96875 
Q 6.890625 50.53125 6.890625 52.6875 
Q 6.890625 56.984375 9.46875 60.15625 
Q 12.0625 63.328125 16.140625 64.96875 
Q 20.21875 66.609375 24.3125 66.609375 
Q 27.34375 66.609375 30.703125 65.703125 
Q 34.078125 64.796875 36.8125 63.109375 
Q 39.546875 61.421875 41.28125 58.78125 
Q 43.015625 56.15625 43.015625 52.78125 
Q 43.015625 48.578125 41.140625 45.015625 
Q 39.265625 41.453125 35.984375 38.859375 
Q 32.71875 36.28125 28.8125 35.015625 
Q 33.15625 34.1875 37.0625 31.734375 
Q 40.96875 29.296875 43.328125 25.484375 
Q 45.703125 21.6875 45.703125 17.28125 
Q 45.703125 11.765625 42.671875 7.296875 
Q 39.65625 2.828125 34.71875 0.3125 
Q 29.78125 -2.203125 24.3125 -2.203125 
Q 19.625 -2.203125 14.90625 -0.40625 
Q 10.203125 1.375 7.203125 4.9375 
Q 4.203125 8.5 4.203125 13.484375 
Q 4.203125 15.96875 5.859375 17.625 
Q 7.515625 19.28125 10.015625 19.28125 
Q 11.625 19.28125 12.96875 18.53125 
Q 14.3125 17.78125 15.0625 16.40625 
Q 15.828125 15.046875 15.828125 13.484375 
Q 15.828125 11.03125 14.109375 9.375 
Q 12.40625 7.71875 10.015625 7.71875 
z
" id="Cmr10-33"/>
      <path d="M 2.78125 -18.796875 
Q 2.78125 -18.21875 2.875 -18.015625 
L 17.578125 41.015625 
Q 18.015625 42.4375 19.15625 43.3125 
Q 20.3125 44.1875 21.78125 44.1875 
Q 23.046875 44.1875 23.921875 43.421875 
Q 24.8125 42.671875 24.8125 41.40625 
Q 24.8125 41.109375 24.78125 40.9375 
Q 24.75 40.765625 24.703125 40.578125 
L 18.796875 17.1875 
Q 17.828125 13.03125 17.828125 10.015625 
Q 17.828125 6.296875 19.578125 3.90625 
Q 21.34375 1.515625 24.90625 1.515625 
Q 32.171875 1.515625 37.703125 10.59375 
Q 37.75 10.6875 37.765625 10.734375 
Q 37.796875 10.796875 37.796875 10.890625 
L 45.015625 39.890625 
Q 45.359375 41.21875 46.578125 42.15625 
Q 47.796875 43.109375 49.21875 43.109375 
Q 50.390625 43.109375 51.296875 42.328125 
Q 52.203125 41.546875 52.203125 40.28125 
Q 52.203125 39.703125 52.09375 39.5 
L 44.921875 10.6875 
Q 44.1875 7.859375 44.1875 5.8125 
Q 44.1875 1.515625 47.125 1.515625 
Q 50.25 1.515625 51.828125 5.375 
Q 53.421875 9.234375 54.59375 14.703125 
Q 54.78125 15.28125 55.421875 15.28125 
L 56.59375 15.28125 
Q 56.984375 15.28125 57.25 14.96875 
Q 57.515625 14.65625 57.515625 14.3125 
Q 55.765625 7.328125 53.6875 3.09375 
Q 51.609375 -1.125 46.921875 -1.125 
Q 43.609375 -1.125 41.046875 0.78125 
Q 38.484375 2.6875 37.703125 5.90625 
Q 35.203125 2.78125 31.859375 0.828125 
Q 28.515625 -1.125 24.8125 -1.125 
Q 18.5625 -1.125 14.984375 1.8125 
L 9.90625 -18.40625 
Q 9.625 -19.828125 8.453125 -20.703125 
Q 7.28125 -21.578125 5.8125 -21.578125 
Q 4.59375 -21.578125 3.6875 -20.8125 
Q 2.78125 -20.0625 2.78125 -18.796875 
" id="Cmmi10-b9"/>
      <path d="M 14.59375 21.578125 
Q 14.59375 15.578125 16.90625 11.015625 
Q 19.234375 6.453125 23.65625 3.875 
Q 28.078125 1.3125 34.078125 1.3125 
Q 40.375 1.3125 46.203125 4.53125 
Q 52.046875 7.765625 56.171875 13.15625 
Q 60.296875 18.5625 61.8125 24.609375 
Q 62.015625 25.203125 62.59375 25.203125 
L 63.8125 25.203125 
Q 64.203125 25.203125 64.453125 24.921875 
Q 64.703125 24.65625 64.703125 24.3125 
Q 64.703125 24.21875 64.59375 24.03125 
Q 62.890625 17.09375 57.984375 11.015625 
Q 53.078125 4.9375 46.234375 1.359375 
Q 39.40625 -2.203125 32.171875 -2.203125 
Q 24.359375 -2.203125 18.15625 1.3125 
Q 11.96875 4.828125 8.515625 11.078125 
Q 5.078125 17.328125 5.078125 25.203125 
Q 5.078125 33.59375 8.828125 41.8125 
Q 12.59375 50.046875 18.9375 56.46875 
Q 25.296875 62.890625 33.421875 66.703125 
Q 41.546875 70.515625 49.90625 70.515625 
Q 53.21875 70.515625 56.25 69.5 
Q 59.28125 68.5 61.859375 66.453125 
Q 64.453125 64.40625 66.109375 61.71875 
L 74.03125 70.3125 
Q 74.03125 70.515625 74.515625 70.515625 
L 75.09375 70.515625 
Q 75.484375 70.515625 75.734375 70.171875 
Q 75.984375 69.828125 75.984375 69.484375 
L 69.1875 42.484375 
Q 69.1875 41.796875 68.40625 41.796875 
L 66.609375 41.796875 
Q 65.828125 41.796875 65.828125 42.921875 
Q 66.21875 45.125 66.21875 48.1875 
Q 66.21875 53.078125 64.546875 57.390625 
Q 62.890625 61.71875 59.390625 64.359375 
Q 55.90625 67 50.875 67 
Q 42.71875 67 35.9375 62.890625 
Q 29.15625 58.796875 24.4375 52.125 
Q 19.734375 45.453125 17.15625 37.328125 
Q 14.59375 29.203125 14.59375 21.578125 
" id="Cmmi10-43"/>
      <path d="M 10.203125 23 
Q 9.375 23 8.828125 23.625 
Q 8.296875 24.265625 8.296875 25 
Q 8.296875 25.734375 8.828125 26.359375 
Q 9.375 27 10.203125 27 
L 67.578125 27 
Q 68.359375 27 68.875 26.359375 
Q 69.390625 25.734375 69.390625 25 
Q 69.390625 24.265625 68.875 23.625 
Q 68.359375 23 67.578125 23 
z
" id="Cmsy10-a1"/>
      <path d="M 1.421875 -14.3125 
Q 1.421875 -11.859375 3.09375 -10.03125 
Q 4.78125 -8.203125 7.171875 -8.203125 
Q 8.796875 -8.203125 9.890625 -9.203125 
Q 10.984375 -10.203125 10.984375 -11.8125 
Q 10.984375 -13.625 9.953125 -15.0625 
Q 8.9375 -16.5 7.328125 -17.09375 
Q 10.015625 -17.921875 15.71875 -17.921875 
Q 20.3125 -17.921875 24.125 -14.375 
Q 27.9375 -10.84375 29.109375 -6.203125 
L 31.984375 5.515625 
Q 26.5625 0 20.703125 0 
Q 16.40625 0 13.34375 2.1875 
Q 10.296875 4.390625 8.6875 8.046875 
Q 7.078125 11.71875 7.078125 15.828125 
Q 7.078125 20.40625 8.953125 25.4375 
Q 10.84375 30.46875 14.234375 34.765625 
Q 17.625 39.0625 22.015625 41.625 
Q 26.421875 44.1875 31.296875 44.1875 
Q 34.234375 44.1875 36.578125 42.578125 
Q 38.921875 40.96875 40.28125 38.28125 
Q 41.265625 42.1875 44.578125 42.1875 
Q 45.84375 42.1875 46.71875 41.421875 
Q 47.609375 40.671875 47.609375 39.40625 
Q 47.609375 39.109375 47.578125 38.953125 
Q 47.5625 38.8125 47.515625 38.625 
L 36.078125 -6.78125 
Q 35.296875 -9.90625 33.203125 -12.5 
Q 31.109375 -15.09375 28.265625 -16.828125 
Q 25.4375 -18.5625 22.0625 -19.53125 
Q 18.703125 -20.515625 15.578125 -20.515625 
Q 9.859375 -20.515625 5.640625 -19.40625 
Q 1.421875 -18.3125 1.421875 -14.3125 
M 20.90625 2.59375 
Q 27.296875 2.59375 33.5 11.375 
L 39.015625 33.203125 
Q 38.328125 36.671875 36.28125 39.140625 
Q 34.234375 41.609375 31.109375 41.609375 
Q 27.78125 41.609375 24.828125 38.890625 
Q 21.875 36.1875 19.921875 32.421875 
Q 18.0625 28.8125 16.328125 22.046875 
Q 14.59375 15.28125 14.59375 11.375 
Q 14.59375 7.953125 16.15625 5.265625 
Q 17.71875 2.59375 20.90625 2.59375 
" id="Cmmi10-67"/>
     </defs>
     <g transform="translate(213.041875 486.04)scale(0.2 -0.2)">
      <use transform="translate(0.0 0.109375)" xlink:href="#Cmmi10-53"/>
      <use transform="translate(149.072265625 0.109375)" xlink:href="#Cmr10-28"/>
      <use transform="translate(187.890625 0.109375)" xlink:href="#Cmmi10-b9"/>
      <use transform="translate(248.095703125 0.109375)" xlink:href="#Cmmi10-67"/>
      <use transform="translate(295.80078125 0.109375)" xlink:href="#Cmmi10-43"/>
      <use transform="translate(367.1875 0.109375)" xlink:href="#Cmmi10-63"/>
      <use transform="translate(410.400390625 0.109375)" xlink:href="#Cmmi10-6d"/>
      <use transform="translate(504.496640625 38.3734375)scale(0.7)" xlink:href="#Cmsy10-a1"/>
      <use transform="translate(558.8765234374999 38.3734375)scale(0.7)" xlink:href="#Cmr10-33"/>
      <use transform="translate(600.2538671875 0.109375)" xlink:href="#Cmr10-29"/>
     </g>
    </g>
   </g>
   <g id="matplotlib.axis_2">
    <g id="ytick_1">
     <g id="line2d_10">
      <defs>
       <path d="M 0 0 
L 4 0 
" id="m49ab07108c" style="stroke:#000000;stroke-width:0.5;"/>
      </defs>
      <g>
       <use style="stroke:#000000;stroke-width:0.5;" x="63.04375" xlink:href="#m49ab07108c" y="448.42625"/>
      </g>
     </g>
     <g id="line2d_11">
      <defs>
       <path d="M 0 0 
L -4 0 
" id="m40ca226ebc" style="stroke:#000000;stroke-width:0.5;"/>
      </defs>
      <g>
       <use style="stroke:#000000;stroke-width:0.5;" x="491.04" xlink:href="#m40ca226ebc" y="448.42625"/>
      </g>
     </g>
     <g id="text_6">
      <!-- 0.0 -->
      <defs>
       <path d="M 10.6875 12.40625 
L 21 12.40625 
L 21 0 
L 10.6875 0 
z
" id="BitstreamVeraSans-Roman-2e"/>
      </defs>
      <g transform="translate(39.96 451.7375)scale(0.12 -0.12)">
       <use xlink:href="#BitstreamVeraSans-Roman-30"/>
       <use x="63.623046875" xlink:href="#BitstreamVeraSans-Roman-2e"/>
       <use x="95.41015625" xlink:href="#BitstreamVeraSans-Roman-30"/>
      </g>
     </g>
    </g>
    <g id="ytick_2">
     <g id="line2d_12">
      <g>
       <use style="stroke:#000000;stroke-width:0.5;" x="63.04375" xlink:href="#m49ab07108c" y="382.446515152"/>
      </g>
     </g>
     <g id="line2d_13">
      <g>
       <use style="stroke:#000000;stroke-width:0.5;" x="491.04" xlink:href="#m40ca226ebc" y="382.446515152"/>
      </g>
     </g>
     <g id="text_7">
      <!-- 0.5 -->
      <g transform="translate(39.96 385.757765152)scale(0.12 -0.12)">
       <use xlink:href="#BitstreamVeraSans-Roman-30"/>
       <use x="63.623046875" xlink:href="#BitstreamVeraSans-Roman-2e"/>
       <use x="95.41015625" xlink:href="#BitstreamVeraSans-Roman-35"/>
      </g>
     </g>
    </g>
    <g id="ytick_3">
     <g id="line2d_14">
      <g>
       <use style="stroke:#000000;stroke-width:0.5;" x="63.04375" xlink:href="#m49ab07108c" y="316.466780303"/>
      </g>
     </g>
     <g id="line2d_15">
      <g>
       <use style="stroke:#000000;stroke-width:0.5;" x="491.04" xlink:href="#m40ca226ebc" y="316.466780303"/>
      </g>
     </g>
     <g id="text_8">
      <!-- 1.0 -->
      <g transform="translate(39.96 319.778030303)scale(0.12 -0.12)">
       <use xlink:href="#BitstreamVeraSans-Roman-31"/>
       <use x="63.623046875" xlink:href="#BitstreamVeraSans-Roman-2e"/>
       <use x="95.41015625" xlink:href="#BitstreamVeraSans-Roman-30"/>
      </g>
     </g>
    </g>
    <g id="ytick_4">
     <g id="line2d_16">
      <g>
       <use style="stroke:#000000;stroke-width:0.5;" x="63.04375" xlink:href="#m49ab07108c" y="250.487045455"/>
      </g>
     </g>
     <g id="line2d_17">
      <g>
       <use style="stroke:#000000;stroke-width:0.5;" x="491.04" xlink:href="#m40ca226ebc" y="250.487045455"/>
      </g>
     </g>
     <g id="text_9">
      <!-- 1.5 -->
      <g transform="translate(39.96 253.798295455)scale(0.12 -0.12)">
       <use xlink:href="#BitstreamVeraSans-Roman-31"/>
       <use x="63.623046875" xlink:href="#BitstreamVeraSans-Roman-2e"/>
       <use x="95.41015625" xlink:href="#BitstreamVeraSans-Roman-35"/>
      </g>
     </g>
    </g>
    <g id="ytick_5">
     <g id="line2d_18">
      <g>
       <use style="stroke:#000000;stroke-width:0.5;" x="63.04375" xlink:href="#m49ab07108c" y="184.507310606"/>
      </g>
     </g>
     <g id="line2d_19">
      <g>
       <use style="stroke:#000000;stroke-width:0.5;" x="491.04" xlink:href="#m40ca226ebc" y="184.507310606"/>
      </g>
     </g>
     <g id="text_10">
      <!-- 2.0 -->
      <defs>
       <path d="M 19.1875 8.296875 
L 53.609375 8.296875 
L 53.609375 0 
L 7.328125 0 
L 7.328125 8.296875 
Q 12.9375 14.109375 22.625 23.890625 
Q 32.328125 33.6875 34.8125 36.53125 
Q 39.546875 41.84375 41.421875 45.53125 
Q 43.3125 49.21875 43.3125 52.78125 
Q 43.3125 58.59375 39.234375 62.25 
Q 35.15625 65.921875 28.609375 65.921875 
Q 23.96875 65.921875 18.8125 64.3125 
Q 13.671875 62.703125 7.8125 59.421875 
L 7.8125 69.390625 
Q 13.765625 71.78125 18.9375 73 
Q 24.125 74.21875 28.421875 74.21875 
Q 39.75 74.21875 46.484375 68.546875 
Q 53.21875 62.890625 53.21875 53.421875 
Q 53.21875 48.921875 51.53125 44.890625 
Q 49.859375 40.875 45.40625 35.40625 
Q 44.1875 33.984375 37.640625 27.21875 
Q 31.109375 20.453125 19.1875 8.296875 
" id="BitstreamVeraSans-Roman-32"/>
      </defs>
      <g transform="translate(39.96 187.818560606)scale(0.12 -0.12)">
       <use xlink:href="#BitstreamVeraSans-Roman-32"/>
       <use x="63.623046875" xlink:href="#BitstreamVeraSans-Roman-2e"/>
       <use x="95.41015625" xlink:href="#BitstreamVeraSans-Roman-30"/>
      </g>
     </g>
    </g>
    <g id="ytick_6">
     <g id="line2d_20">
      <g>
       <use style="stroke:#000000;stroke-width:0.5;" x="63.04375" xlink:href="#m49ab07108c" y="118.527575758"/>
      </g>
     </g>
     <g id="line2d_21">
      <g>
       <use style="stroke:#000000;stroke-width:0.5;" x="491.04" xlink:href="#m40ca226ebc" y="118.527575758"/>
      </g>
     </g>
     <g id="text_11">
      <!-- 2.5 -->
      <g transform="translate(39.96 121.838825758)scale(0.12 -0.12)">
       <use xlink:href="#BitstreamVeraSans-Roman-32"/>
       <use x="63.623046875" xlink:href="#BitstreamVeraSans-Roman-2e"/>
       <use x="95.41015625" xlink:href="#BitstreamVeraSans-Roman-35"/>
      </g>
     </g>
    </g>
    <g id="ytick_7">
     <g id="line2d_22">
      <g>
       <use style="stroke:#000000;stroke-width:0.5;" x="63.04375" xlink:href="#m49ab07108c" y="52.5478409091"/>
      </g>
     </g>
     <g id="line2d_23">
      <g>
       <use style="stroke:#000000;stroke-width:0.5;" x="491.04" xlink:href="#m40ca226ebc" y="52.5478409091"/>
      </g>
     </g>
     <g id="text_12">
      <!-- 3.0 -->
      <defs>
       <path d="M 40.578125 39.3125 
Q 47.65625 37.796875 51.625 33 
Q 55.609375 28.21875 55.609375 21.1875 
Q 55.609375 10.40625 48.1875 4.484375 
Q 40.765625 -1.421875 27.09375 -1.421875 
Q 22.515625 -1.421875 17.65625 -0.515625 
Q 12.796875 0.390625 7.625 2.203125 
L 7.625 11.71875 
Q 11.71875 9.328125 16.59375 8.109375 
Q 21.484375 6.890625 26.8125 6.890625 
Q 36.078125 6.890625 40.9375 10.546875 
Q 45.796875 14.203125 45.796875 21.1875 
Q 45.796875 27.640625 41.28125 31.265625 
Q 36.765625 34.90625 28.71875 34.90625 
L 20.21875 34.90625 
L 20.21875 43.015625 
L 29.109375 43.015625 
Q 36.375 43.015625 40.234375 45.921875 
Q 44.09375 48.828125 44.09375 54.296875 
Q 44.09375 59.90625 40.109375 62.90625 
Q 36.140625 65.921875 28.71875 65.921875 
Q 24.65625 65.921875 20.015625 65.03125 
Q 15.375 64.15625 9.8125 62.3125 
L 9.8125 71.09375 
Q 15.4375 72.65625 20.34375 73.4375 
Q 25.25 74.21875 29.59375 74.21875 
Q 40.828125 74.21875 47.359375 69.109375 
Q 53.90625 64.015625 53.90625 55.328125 
Q 53.90625 49.265625 50.4375 45.09375 
Q 46.96875 40.921875 40.578125 39.3125 
" id="BitstreamVeraSans-Roman-33"/>
      </defs>
      <g transform="translate(39.96 55.8590909091)scale(0.12 -0.12)">
       <use xlink:href="#BitstreamVeraSans-Roman-33"/>
       <use x="63.623046875" xlink:href="#BitstreamVeraSans-Roman-2e"/>
       <use x="95.41015625" xlink:href="#BitstreamVeraSans-Roman-30"/>
      </g>
     </g>
    </g>
    <g id="text_13">
     <!-- $X\quad(\mu gC cm^{-3})$ -->
     <defs>
      <path d="M 3.609375 0 
Q 2.59375 0 2.59375 1.3125 
Q 2.640625 1.5625 2.8125 2.1875 
Q 2.984375 2.828125 3.25 3.171875 
Q 3.515625 3.515625 4 3.515625 
Q 13.09375 3.515625 19.578125 10.296875 
Q 19.671875 10.40625 19.796875 10.453125 
Q 19.921875 10.5 19.921875 10.5 
L 41.796875 34.078125 
L 29.890625 62.796875 
Q 28.859375 64.109375 26.5625 64.453125 
Q 24.265625 64.796875 21.1875 64.796875 
Q 20.21875 64.796875 20.21875 66.109375 
Q 20.5625 67.390625 20.75 67.84375 
Q 20.953125 68.3125 21.921875 68.3125 
L 46.921875 68.3125 
Q 47.90625 68.3125 47.90625 67 
Q 47.859375 66.75 47.6875 66.109375 
Q 47.515625 65.484375 47.234375 65.140625 
Q 46.96875 64.796875 46.484375 64.796875 
Q 44.625 64.796875 42.640625 64.1875 
Q 40.671875 63.578125 39.890625 62.203125 
L 48.484375 41.5 
L 64.890625 59.078125 
Q 65.046875 59.421875 65.578125 60.28125 
Q 66.109375 61.140625 66.109375 61.921875 
Q 66.109375 63.375 64.84375 64.078125 
Q 63.578125 64.796875 61.8125 64.796875 
Q 60.796875 64.796875 60.796875 66.109375 
Q 61.140625 67.390625 61.328125 67.84375 
Q 61.53125 68.3125 62.5 68.3125 
L 84.1875 68.3125 
Q 84.71875 68.3125 84.953125 67.921875 
Q 85.203125 67.53125 85.203125 67 
Q 85.15625 66.75 85 66.15625 
Q 84.859375 65.578125 84.609375 65.1875 
Q 84.375 64.796875 83.890625 64.796875 
Q 79.25 64.796875 75.359375 63.109375 
Q 71.484375 61.421875 68.21875 58.015625 
Q 68.171875 57.953125 68.09375 57.921875 
Q 68.015625 57.90625 67.921875 57.8125 
L 49.8125 38.28125 
L 63.484375 5.515625 
Q 65.09375 3.515625 72.21875 3.515625 
Q 73.1875 3.515625 73.1875 2.203125 
Q 72.859375 0.875 72.625 0.4375 
Q 72.40625 0 71.484375 0 
L 46.484375 0 
Q 45.515625 0 45.515625 1.3125 
Q 45.5625 1.5625 45.703125 2.171875 
Q 45.84375 2.78125 46.109375 3.140625 
Q 46.390625 3.515625 46.78125 3.515625 
Q 48.734375 3.515625 50.734375 4.125 
Q 52.734375 4.734375 53.515625 6.109375 
L 43.109375 31 
L 22.90625 9.1875 
Q 22.75 8.84375 22.21875 8 
Q 21.6875 7.171875 21.6875 6.390625 
Q 21.6875 4.9375 23.046875 4.21875 
Q 24.421875 3.515625 25.984375 3.515625 
Q 27 3.515625 27 2.203125 
Q 26.65625 0.78125 26.453125 0.390625 
Q 26.265625 0 25.296875 0 
z
" id="Cmmi10-58"/>
     </defs>
     <g transform="translate(29.96 296.793125)rotate(-90.0)scale(0.2 -0.2)">
      <use transform="translate(0.0 0.109375)" xlink:href="#Cmmi10-58"/>
      <use transform="translate(170.60546875 0.109375)" xlink:href="#Cmr10-28"/>
      <use transform="translate(209.423828125 0.109375)" xlink:href="#Cmmi10-b9"/>
      <use transform="translate(269.62890625 0.109375)" xlink:href="#Cmmi10-67"/>
      <use transform="translate(317.333984375 0.109375)" xlink:href="#Cmmi10-43"/>
      <use transform="translate(388.720703125 0.109375)" xlink:href="#Cmmi10-63"/>
      <use transform="translate(431.93359375 0.109375)" xlink:href="#Cmmi10-6d"/>
      <use transform="translate(526.02984375 38.3734375)scale(0.7)" xlink:href="#Cmsy10-a1"/>
      <use transform="translate(580.4097265625 38.3734375)scale(0.7)" xlink:href="#Cmr10-33"/>
      <use transform="translate(621.7870703125 0.109375)" xlink:href="#Cmr10-29"/>
     </g>
    </g>
   </g>
  </g>
 </g>
 <defs>
  <clipPath id="pd187fced7f">
   <rect height="435.46625" width="427.99625" x="63.04375" y="12.96"/>
  </clipPath>
 </defs>
</svg>
