<?xml version="1.0" encoding="utf-8" standalone="no"?>
<!DOCTYPE svg PUBLIC "-//W3C//DTD SVG 1.1//EN"
  "http://www.w3.org/Graphics/SVG/1.1/DTD/svg11.dtd">
<!-- Created with matplotlib (http://matplotlib.org/) -->
<svg height="504pt" version="1.1" viewBox="0 0 504 504" width="504pt" xmlns="http://www.w3.org/2000/svg" xmlns:xlink="http://www.w3.org/1999/xlink">
 <defs>
  <style type="text/css">
*{stroke-linecap:butt;stroke-linejoin:round;stroke-miterlimit:100000;}
  </style>
 </defs>
 <g id="figure_1">
  <g id="patch_1">
   <path d="M 0 504 
L 504 504 
L 504 0 
L 0 0 
z
" style="fill:#ffffff;"/>
  </g>
  <g id="axes_1">
   <g id="patch_2">
    <path d="M 63.04375 204.90625 
L 475.77 204.90625 
L 475.77 12.96 
L 63.04375 12.96 
z
" style="fill:#ffffff;"/>
   </g>
   <g id="line2d_1">
    <path clip-path="url(#p3db7c3cdb5)" d="M 63.04375 175.823485 
L 63.250113 177.500477 
L 63.497749 177.9411 
L 63.786657 178.028444 
L 64.281929 177.900383 
L 65.148654 177.425618 
L 66.18047 176.607186 
L 67.274194 175.450253 
L 68.429828 173.894003 
L 69.626734 171.900407 
L 70.864912 169.398329 
L 72.144364 166.3001 
L 73.465088 162.499305 
L 74.806448 157.945175 
L 76.189081 152.441122 
L 77.612987 145.829369 
L 79.078165 137.946438 
L 80.625888 128.372402 
L 82.318066 116.452507 
L 84.319788 100.659118 
L 89.169322 61.555188 
L 90.263046 54.928997 
L 91.109135 51.068302 
L 91.769497 48.997 
L 92.285405 48.02744 
L 92.677495 47.699187 
L 92.987039 47.699793 
L 93.296584 47.935256 
L 93.668038 48.532462 
L 94.122037 49.731185 
L 94.679217 51.900003 
L 95.339579 55.427723 
L 96.144395 61.008052 
L 97.176211 69.858685 
L 98.682662 84.953559 
L 101.840018 116.873592 
L 103.284559 128.991595 
L 104.564011 137.933372 
L 105.781553 144.925261 
L 106.937187 150.321292 
L 108.051548 154.520019 
L 109.145272 157.809766 
L 110.197724 160.303015 
L 111.208903 162.158345 
L 112.17881 163.500481 
L 113.107444 164.427351 
L 113.994806 165.016276 
L 114.861531 165.333713 
L 115.728256 165.413156 
L 116.594981 165.267271 
L 117.502979 164.88277 
L 118.452249 164.234821 
L 119.484065 163.250355 
L 120.577789 161.889676 
L 121.754059 160.058925 
L 123.012874 157.669028 
L 124.333598 154.667988 
L 125.736867 150.905204 
L 127.202046 146.32315 
L 128.770405 140.662545 
L 130.462583 133.685868 
L 132.361124 124.864023 
L 134.775572 112.492836 
L 138.758381 92.014526 
L 140.16165 86.028929 
L 141.234738 82.35467 
L 142.101463 80.118925 
L 142.803098 78.863262 
L 143.380915 78.235917 
L 143.876186 78.006464 
L 144.309549 78.046319 
L 144.742911 78.314295 
L 145.238183 78.900972 
L 145.815999 79.959765 
L 146.496998 81.709302 
L 147.301814 84.432094 
L 148.271721 88.545674 
L 149.509899 94.839287 
L 151.429076 105.925338 
L 154.524523 123.710581 
L 156.175428 131.855816 
L 157.61997 137.904342 
L 158.940694 142.523063 
L 160.199509 146.143687 
L 161.375779 148.881735 
L 162.49014 150.944252 
L 163.563228 152.479703 
L 164.574408 153.552133 
L 165.523678 154.250844 
L 166.452312 154.663166 
L 167.339673 154.819713 
L 168.227035 154.754718 
L 169.155669 154.458681 
L 170.125576 153.908808 
L 171.157391 153.061482 
L 172.271752 151.849618 
L 173.468658 150.211237 
L 174.768746 148.042974 
L 176.172015 145.256591 
L 177.699102 141.712174 
L 179.370644 137.250401 
L 181.269184 131.517923 
L 183.621724 123.652765 
L 189.007801 105.361975 
L 190.452343 101.386797 
L 191.607977 98.815355 
L 192.557247 97.202924 
L 193.362063 96.236993 
L 194.063698 95.719615 
L 194.682787 95.526198 
L 195.260604 95.57374 
L 195.859057 95.857033 
L 196.498783 96.421397 
L 197.221054 97.375197 
L 198.046506 98.855608 
L 199.016413 101.079691 
L 200.192683 104.37347 
L 201.71977 109.36881 
L 204.712035 120.133466 
L 207.085211 128.239347 
L 208.818662 133.393814 
L 210.325112 137.205153 
L 211.707745 140.11997 
L 212.987197 142.317687 
L 214.184103 143.948701 
L 215.3191 145.129175 
L 216.392188 145.930472 
L 217.403368 146.416885 
L 218.393911 146.650561 
L 219.384454 146.652996 
L 220.374997 146.432581 
L 221.406812 145.974411 
L 222.500537 145.243158 
L 223.676807 144.185182 
L 224.956258 142.728203 
L 226.359527 140.781836 
L 227.907251 138.240818 
L 229.640701 134.952848 
L 231.683696 130.579275 
L 234.57278 123.807922 
L 238.287316 115.186109 
L 240.020766 111.724714 
L 241.382763 109.473486 
L 242.51776 107.999806 
L 243.508303 107.059165 
L 244.375028 106.524626 
L 245.179844 106.282276 
L 245.943388 106.284427 
L 246.706931 106.513764 
L 247.511747 106.997926 
L 248.378473 107.787456 
L 249.369016 109.007779 
L 250.504013 110.7777 
L 251.886646 113.374287 
L 253.723278 117.340037 
L 259.625263 130.437189 
L 261.358713 133.560873 
L 262.8858 135.868523 
L 264.268433 137.571995 
L 265.568521 138.830947 
L 266.786063 139.708757 
L 267.941697 140.27623 
L 269.076694 140.587301 
L 270.191055 140.661886 
L 271.305416 140.515153 
L 272.461049 140.137878 
L 273.678592 139.503148 
L 274.978679 138.570642 
L 276.402585 137.267364 
L 277.970945 135.520893 
L 279.766304 133.173022 
L 281.91248 129.980608 
L 285.338108 124.417306 
L 288.474828 119.480553 
L 290.31146 116.992819 
L 291.776638 115.361709 
L 293.035453 114.274796 
L 294.17045 113.579468 
L 295.202266 113.200922 
L 296.172172 113.074812 
L 297.142079 113.174415 
L 298.132622 113.506368 
L 299.185074 114.104095 
L 300.340707 115.030254 
L 301.640795 116.36992 
L 303.209155 118.325276 
L 305.314059 121.337748 
L 310.906499 129.509354 
L 312.784404 131.769641 
L 314.414673 133.398812 
L 315.921123 134.597378 
L 317.324393 135.435158 
L 318.665753 135.980241 
L 319.965841 136.270697 
L 321.245292 136.331951 
L 322.54538 136.172767 
L 323.88674 135.784427 
L 325.310646 135.137337 
L 326.858369 134.180963 
L 328.550547 132.866614 
L 330.510996 131.050361 
L 332.987354 128.431609 
L 339.673519 121.191749 
L 341.468878 119.66789 
L 342.995965 118.650306 
L 344.357962 117.9988 
L 345.637413 117.629126 
L 346.854956 117.506366 
L 348.072498 117.609675 
L 349.310677 117.941433 
L 350.631401 118.532449 
L 352.075943 119.429869 
L 353.747484 120.739403 
L 355.893661 122.721976 
L 363.095734 129.609594 
L 365.014911 131.013007 
L 366.748361 132.011006 
L 368.357993 132.685851 
L 369.905717 133.09622 
L 371.412168 133.269121 
L 372.939255 133.220065 
L 374.507615 132.943799 
L 376.15852 132.421586 
L 377.933242 131.621077 
L 379.934965 130.46443 
L 382.349413 128.797347 
L 386.683039 125.467538 
L 389.75785 123.252145 
L 391.862753 122.002041 
L 393.637476 121.197173 
L 395.247109 120.703633 
L 396.774196 120.463853 
L 398.280647 120.453476 
L 399.807734 120.669705 
L 401.39673 121.122822 
L 403.150816 121.861776 
L 405.193811 122.974748 
L 408.00035 124.781014 
L 413.407064 128.292961 
L 415.718331 129.497698 
L 417.740689 130.305973 
L 419.618594 130.820454 
L 421.434589 131.088635 
L 423.229948 131.129911 
L 425.06658 130.948584 
L 426.985757 130.533994 
L 429.090661 129.845709 
L 431.50511 128.8137 
L 434.80692 127.136679 
L 440.337451 124.318614 
L 442.7519 123.360224 
L 444.815531 122.774542 
L 446.714072 122.46186 
L 448.550704 122.381376 
L 450.407972 122.522791 
L 452.368422 122.900088 
L 454.535234 123.551608 
L 457.176682 124.59172 
L 466.772568 128.599576 
L 469.125107 129.207606 
L 471.333193 129.550491 
L 473.479369 129.659837 
L 475.666818 129.546536 
L 475.77 129.535802 
L 475.77 129.535802 
" style="fill:none;stroke:#0000ff;stroke-linecap:square;"/>
   </g>
   <g id="patch_3">
    <path d="M 63.04375 12.96 
L 475.77 12.96 
" style="fill:none;stroke:#000000;stroke-linecap:square;stroke-linejoin:miter;"/>
   </g>
   <g id="patch_4">
    <path d="M 63.04375 204.90625 
L 63.04375 12.96 
" style="fill:none;stroke:#000000;stroke-linecap:square;stroke-linejoin:miter;"/>
   </g>
   <g id="patch_5">
    <path d="M 475.77 204.90625 
L 475.77 12.96 
" style="fill:none;stroke:#000000;stroke-linecap:square;stroke-linejoin:miter;"/>
   </g>
   <g id="patch_6">
    <path d="M 63.04375 204.90625 
L 475.77 204.90625 
" style="fill:none;stroke:#000000;stroke-linecap:square;stroke-linejoin:miter;"/>
   </g>
   <g id="matplotlib.axis_1">
    <g id="xtick_1">
     <g id="line2d_2">
      <defs>
       <path d="M 0 0 
L 0 -4 
" id="m277a517b51" style="stroke:#000000;stroke-width:0.5;"/>
      </defs>
      <g>
       <use style="stroke:#000000;stroke-width:0.5;" x="63.04375" xlink:href="#m277a517b51" y="204.90625"/>
      </g>
     </g>
     <g id="line2d_3">
      <defs>
       <path d="M 0 0 
L 0 4 
" id="m72340cd88b" style="stroke:#000000;stroke-width:0.5;"/>
      </defs>
      <g>
       <use style="stroke:#000000;stroke-width:0.5;" x="63.04375" xlink:href="#m72340cd88b" y="12.96"/>
      </g>
     </g>
     <g id="text_1">
      <!-- 0 -->
      <defs>
       <path d="M 31.78125 66.40625 
Q 24.171875 66.40625 20.328125 58.90625 
Q 16.5 51.421875 16.5 36.375 
Q 16.5 21.390625 20.328125 13.890625 
Q 24.171875 6.390625 31.78125 6.390625 
Q 39.453125 6.390625 43.28125 13.890625 
Q 47.125 21.390625 47.125 36.375 
Q 47.125 51.421875 43.28125 58.90625 
Q 39.453125 66.40625 31.78125 66.40625 
M 31.78125 74.21875 
Q 44.046875 74.21875 50.515625 64.515625 
Q 56.984375 54.828125 56.984375 36.375 
Q 56.984375 17.96875 50.515625 8.265625 
Q 44.046875 -1.421875 31.78125 -1.421875 
Q 19.53125 -1.421875 13.0625 8.265625 
Q 6.59375 17.96875 6.59375 36.375 
Q 6.59375 54.828125 13.0625 64.515625 
Q 19.53125 74.21875 31.78125 74.21875 
" id="BitstreamVeraSans-Roman-30"/>
      </defs>
      <g transform="translate(59.22625 218.024375)scale(0.12 -0.12)">
       <use xlink:href="#BitstreamVeraSans-Roman-30"/>
      </g>
     </g>
    </g>
    <g id="xtick_2">
     <g id="line2d_4">
      <g>
       <use style="stroke:#000000;stroke-width:0.5;" x="166.2253125" xlink:href="#m277a517b51" y="204.90625"/>
      </g>
     </g>
     <g id="line2d_5">
      <g>
       <use style="stroke:#000000;stroke-width:0.5;" x="166.2253125" xlink:href="#m72340cd88b" y="12.96"/>
      </g>
     </g>
     <g id="text_2">
      <!-- 500 -->
      <defs>
       <path d="M 10.796875 72.90625 
L 49.515625 72.90625 
L 49.515625 64.59375 
L 19.828125 64.59375 
L 19.828125 46.734375 
Q 21.96875 47.46875 24.109375 47.828125 
Q 26.265625 48.1875 28.421875 48.1875 
Q 40.625 48.1875 47.75 41.5 
Q 54.890625 34.8125 54.890625 23.390625 
Q 54.890625 11.625 47.5625 5.09375 
Q 40.234375 -1.421875 26.90625 -1.421875 
Q 22.3125 -1.421875 17.546875 -0.640625 
Q 12.796875 0.140625 7.71875 1.703125 
L 7.71875 11.625 
Q 12.109375 9.234375 16.796875 8.0625 
Q 21.484375 6.890625 26.703125 6.890625 
Q 35.15625 6.890625 40.078125 11.328125 
Q 45.015625 15.765625 45.015625 23.390625 
Q 45.015625 31 40.078125 35.4375 
Q 35.15625 39.890625 26.703125 39.890625 
Q 22.75 39.890625 18.8125 39.015625 
Q 14.890625 38.140625 10.796875 36.28125 
z
" id="BitstreamVeraSans-Roman-35"/>
      </defs>
      <g transform="translate(154.7728125 218.024375)scale(0.12 -0.12)">
       <use xlink:href="#BitstreamVeraSans-Roman-35"/>
       <use x="63.623046875" xlink:href="#BitstreamVeraSans-Roman-30"/>
       <use x="127.24609375" xlink:href="#BitstreamVeraSans-Roman-30"/>
      </g>
     </g>
    </g>
    <g id="xtick_3">
     <g id="line2d_6">
      <g>
       <use style="stroke:#000000;stroke-width:0.5;" x="269.406875" xlink:href="#m277a517b51" y="204.90625"/>
      </g>
     </g>
     <g id="line2d_7">
      <g>
       <use style="stroke:#000000;stroke-width:0.5;" x="269.406875" xlink:href="#m72340cd88b" y="12.96"/>
      </g>
     </g>
     <g id="text_3">
      <!-- 1000 -->
      <defs>
       <path d="M 12.40625 8.296875 
L 28.515625 8.296875 
L 28.515625 63.921875 
L 10.984375 60.40625 
L 10.984375 69.390625 
L 28.421875 72.90625 
L 38.28125 72.90625 
L 38.28125 8.296875 
L 54.390625 8.296875 
L 54.390625 0 
L 12.40625 0 
z
" id="BitstreamVeraSans-Roman-31"/>
      </defs>
      <g transform="translate(254.136875 218.024375)scale(0.12 -0.12)">
       <use xlink:href="#BitstreamVeraSans-Roman-31"/>
       <use x="63.623046875" xlink:href="#BitstreamVeraSans-Roman-30"/>
       <use x="127.24609375" xlink:href="#BitstreamVeraSans-Roman-30"/>
       <use x="190.869140625" xlink:href="#BitstreamVeraSans-Roman-30"/>
      </g>
     </g>
    </g>
    <g id="xtick_4">
     <g id="line2d_8">
      <g>
       <use style="stroke:#000000;stroke-width:0.5;" x="372.5884375" xlink:href="#m277a517b51" y="204.90625"/>
      </g>
     </g>
     <g id="line2d_9">
      <g>
       <use style="stroke:#000000;stroke-width:0.5;" x="372.5884375" xlink:href="#m72340cd88b" y="12.96"/>
      </g>
     </g>
     <g id="text_4">
      <!-- 1500 -->
      <g transform="translate(357.3184375 218.024375)scale(0.12 -0.12)">
       <use xlink:href="#BitstreamVeraSans-Roman-31"/>
       <use x="63.623046875" xlink:href="#BitstreamVeraSans-Roman-35"/>
       <use x="127.24609375" xlink:href="#BitstreamVeraSans-Roman-30"/>
       <use x="190.869140625" xlink:href="#BitstreamVeraSans-Roman-30"/>
      </g>
     </g>
    </g>
    <g id="xtick_5">
     <g id="line2d_10">
      <g>
       <use style="stroke:#000000;stroke-width:0.5;" x="475.77" xlink:href="#m277a517b51" y="204.90625"/>
      </g>
     </g>
     <g id="line2d_11">
      <g>
       <use style="stroke:#000000;stroke-width:0.5;" x="475.77" xlink:href="#m72340cd88b" y="12.96"/>
      </g>
     </g>
     <g id="text_5">
      <!-- 2000 -->
      <defs>
       <path d="M 19.1875 8.296875 
L 53.609375 8.296875 
L 53.609375 0 
L 7.328125 0 
L 7.328125 8.296875 
Q 12.9375 14.109375 22.625 23.890625 
Q 32.328125 33.6875 34.8125 36.53125 
Q 39.546875 41.84375 41.421875 45.53125 
Q 43.3125 49.21875 43.3125 52.78125 
Q 43.3125 58.59375 39.234375 62.25 
Q 35.15625 65.921875 28.609375 65.921875 
Q 23.96875 65.921875 18.8125 64.3125 
Q 13.671875 62.703125 7.8125 59.421875 
L 7.8125 69.390625 
Q 13.765625 71.78125 18.9375 73 
Q 24.125 74.21875 28.421875 74.21875 
Q 39.75 74.21875 46.484375 68.546875 
Q 53.21875 62.890625 53.21875 53.421875 
Q 53.21875 48.921875 51.53125 44.890625 
Q 49.859375 40.875 45.40625 35.40625 
Q 44.1875 33.984375 37.640625 27.21875 
Q 31.109375 20.453125 19.1875 8.296875 
" id="BitstreamVeraSans-Roman-32"/>
      </defs>
      <g transform="translate(460.5 218.024375)scale(0.12 -0.12)">
       <use xlink:href="#BitstreamVeraSans-Roman-32"/>
       <use x="63.623046875" xlink:href="#BitstreamVeraSans-Roman-30"/>
       <use x="127.24609375" xlink:href="#BitstreamVeraSans-Roman-30"/>
       <use x="190.869140625" xlink:href="#BitstreamVeraSans-Roman-30"/>
      </g>
     </g>
    </g>
    <g id="text_6">
     <!-- $t\quad(hr)$ -->
     <defs>
      <path d="M 6.5 -25 
Q 5.609375 -25 5.609375 -24.125 
Q 5.609375 -23.6875 5.8125 -23.484375 
Q 22.90625 -6.78125 22.90625 25 
Q 22.90625 56.78125 6 73.296875 
Q 5.609375 73.53125 5.609375 74.125 
Q 5.609375 74.46875 5.875 74.734375 
Q 6.15625 75 6.5 75 
L 7.421875 75 
Q 7.71875 75 7.90625 74.8125 
Q 15.09375 69.140625 19.875 61.03125 
Q 24.65625 52.9375 26.875 43.75 
Q 29.109375 34.578125 29.109375 25 
Q 29.109375 17.921875 27.90625 11.0625 
Q 26.703125 4.203125 24.09375 -2.453125 
Q 21.484375 -9.125 17.484375 -14.765625 
Q 13.484375 -20.40625 7.90625 -24.8125 
Q 7.71875 -25 7.421875 -25 
z
" id="Cmr10-29"/>
      <path d="M 31 -24.8125 
Q 25.4375 -20.40625 21.40625 -14.71875 
Q 17.390625 -9.03125 14.8125 -2.578125 
Q 12.25 3.859375 10.984375 10.890625 
Q 9.71875 17.921875 9.71875 25 
Q 9.71875 32.171875 10.984375 39.203125 
Q 12.25 46.234375 14.859375 52.734375 
Q 17.484375 59.234375 21.53125 64.890625 
Q 25.59375 70.5625 31 74.8125 
Q 31 75 31.5 75 
L 32.421875 75 
Q 32.71875 75 32.953125 74.734375 
Q 33.203125 74.46875 33.203125 74.125 
Q 33.203125 73.6875 33.015625 73.484375 
Q 28.125 68.703125 24.875 63.234375 
Q 21.625 57.765625 19.640625 51.578125 
Q 17.671875 45.40625 16.796875 38.78125 
Q 15.921875 32.171875 15.921875 25 
Q 15.921875 -6.78125 32.90625 -23.296875 
Q 33.203125 -23.578125 33.203125 -24.125 
Q 33.203125 -24.359375 32.9375 -24.671875 
Q 32.671875 -25 32.421875 -25 
L 31.5 -25 
Q 31 -25 31 -24.8125 
" id="Cmr10-28"/>
      <path d="M 5.328125 1.8125 
Q 5.328125 2.390625 5.421875 2.6875 
L 19.921875 60.5 
Q 20.3125 62.203125 20.40625 63.1875 
Q 20.40625 64.796875 13.921875 64.796875 
Q 12.890625 64.796875 12.890625 66.109375 
Q 12.9375 66.359375 13.109375 66.984375 
Q 13.28125 67.625 13.546875 67.96875 
Q 13.8125 68.3125 14.3125 68.3125 
L 27.78125 69.390625 
L 28.078125 69.390625 
Q 28.078125 69.28125 28.421875 69.109375 
Q 28.765625 68.953125 28.8125 68.890625 
Q 29 68.40625 29 68.109375 
L 21.1875 36.921875 
Q 27.34375 44.1875 35.796875 44.1875 
Q 39.3125 44.1875 41.875 42.96875 
Q 44.4375 41.75 45.875 39.28125 
Q 47.3125 36.8125 47.3125 33.40625 
Q 47.3125 29.296875 45.484375 23.484375 
Q 43.65625 17.671875 40.921875 10.5 
Q 39.5 7.234375 39.5 4.5 
Q 39.5 1.515625 41.796875 1.515625 
Q 45.703125 1.515625 48.3125 5.6875 
Q 50.921875 9.859375 52 14.703125 
Q 52.203125 15.28125 52.78125 15.28125 
L 54 15.28125 
Q 54.390625 15.28125 54.640625 15.015625 
Q 54.890625 14.75 54.890625 14.40625 
Q 54.890625 14.3125 54.78125 14.109375 
Q 53.90625 10.5 52.171875 7 
Q 50.4375 3.515625 47.796875 1.1875 
Q 45.171875 -1.125 41.609375 -1.125 
Q 38.09375 -1.125 35.59375 1.296875 
Q 33.109375 3.71875 33.109375 7.171875 
Q 33.109375 9.03125 33.890625 11.078125 
Q 36.71875 18.609375 38.59375 24.515625 
Q 40.484375 30.421875 40.484375 34.90625 
Q 40.484375 37.796875 39.359375 39.703125 
Q 38.234375 41.609375 35.59375 41.609375 
Q 30.21875 41.609375 26.21875 38.3125 
Q 22.21875 35.015625 19.28125 29.59375 
L 12.5 2.296875 
Q 12.109375 0.78125 10.984375 -0.171875 
Q 9.859375 -1.125 8.40625 -1.125 
Q 7.125 -1.125 6.21875 -0.265625 
Q 5.328125 0.59375 5.328125 1.8125 
" id="Cmmi10-68"/>
      <path d="M 7.71875 1.703125 
Q 7.71875 2.296875 7.8125 2.59375 
L 15.28125 32.421875 
Q 16.015625 35.203125 16.015625 37.3125 
Q 16.015625 41.609375 13.09375 41.609375 
Q 9.96875 41.609375 8.453125 37.859375 
Q 6.9375 34.125 5.515625 28.421875 
Q 5.515625 28.125 5.21875 27.953125 
Q 4.9375 27.78125 4.6875 27.78125 
L 3.515625 27.78125 
Q 3.171875 27.78125 2.921875 28.140625 
Q 2.6875 28.515625 2.6875 28.8125 
Q 3.765625 33.15625 4.765625 36.171875 
Q 5.765625 39.203125 7.890625 41.6875 
Q 10.015625 44.1875 13.1875 44.1875 
Q 16.65625 44.1875 19.265625 42.1875 
Q 21.875 40.1875 22.515625 36.921875 
Q 25.046875 40.234375 28.296875 42.203125 
Q 31.546875 44.1875 35.40625 44.1875 
Q 38.578125 44.1875 40.984375 42.328125 
Q 43.40625 40.484375 43.40625 37.3125 
Q 43.40625 34.765625 41.8125 32.875 
Q 40.234375 31 37.59375 31 
Q 35.984375 31 34.890625 32 
Q 33.796875 33.015625 33.796875 34.625 
Q 33.796875 36.8125 35.40625 38.546875 
Q 37.015625 40.28125 39.109375 40.28125 
Q 37.5 41.609375 35.203125 41.609375 
Q 30.90625 41.609375 27.734375 38.546875 
Q 24.5625 35.5 22.015625 30.8125 
L 14.890625 2.203125 
Q 14.546875 0.828125 13.34375 -0.140625 
Q 12.15625 -1.125 10.6875 -1.125 
Q 9.46875 -1.125 8.59375 -0.34375 
Q 7.71875 0.4375 7.71875 1.703125 
" id="Cmmi10-72"/>
      <path d="M 6.203125 8.109375 
Q 6.203125 9.578125 6.5 10.890625 
L 13.71875 39.59375 
L 3.21875 39.59375 
Q 2.203125 39.59375 2.203125 40.921875 
Q 2.59375 43.109375 3.515625 43.109375 
L 14.59375 43.109375 
L 18.609375 59.421875 
Q 19 60.75 20.171875 61.671875 
Q 21.34375 62.59375 22.796875 62.59375 
Q 24.078125 62.59375 24.921875 61.828125 
Q 25.78125 61.078125 25.78125 59.8125 
Q 25.78125 59.515625 25.75 59.34375 
Q 25.734375 59.1875 25.6875 58.984375 
L 21.6875 43.109375 
L 31.984375 43.109375 
Q 33.015625 43.109375 33.015625 41.796875 
Q 32.953125 41.546875 32.8125 40.953125 
Q 32.671875 40.375 32.421875 39.984375 
Q 32.171875 39.59375 31.6875 39.59375 
L 20.796875 39.59375 
L 13.625 10.6875 
Q 12.890625 7.859375 12.890625 5.8125 
Q 12.890625 1.515625 15.828125 1.515625 
Q 20.21875 1.515625 23.609375 5.640625 
Q 27 9.765625 28.8125 14.703125 
Q 29.203125 15.28125 29.59375 15.28125 
L 30.8125 15.28125 
Q 31.203125 15.28125 31.4375 15.015625 
Q 31.6875 14.75 31.6875 14.40625 
Q 31.6875 14.203125 31.59375 14.109375 
Q 29.390625 8.0625 25.1875 3.46875 
Q 21 -1.125 15.578125 -1.125 
Q 11.625 -1.125 8.90625 1.453125 
Q 6.203125 4.046875 6.203125 8.109375 
" id="Cmmi10-74"/>
     </defs>
     <g transform="translate(238.906875 240.52)scale(0.2 -0.2)">
      <use xlink:href="#Cmmi10-74"/>
      <use transform="translate(123.876953125 0.0)" xlink:href="#Cmr10-28"/>
      <use transform="translate(162.6953125 0.0)" xlink:href="#Cmmi10-68"/>
      <use transform="translate(220.3125 0.0)" xlink:href="#Cmmi10-72"/>
      <use transform="translate(265.4296875 0.0)" xlink:href="#Cmr10-29"/>
     </g>
    </g>
   </g>
   <g id="matplotlib.axis_2">
    <g id="ytick_1">
     <g id="line2d_12">
      <defs>
       <path d="M 0 0 
L 4 0 
" id="m2375550a4d" style="stroke:#000000;stroke-width:0.5;"/>
      </defs>
      <g>
       <use style="stroke:#000000;stroke-width:0.5;" x="63.04375" xlink:href="#m2375550a4d" y="204.90625"/>
      </g>
     </g>
     <g id="line2d_13">
      <defs>
       <path d="M 0 0 
L -4 0 
" id="m7cdd149bd9" style="stroke:#000000;stroke-width:0.5;"/>
      </defs>
      <g>
       <use style="stroke:#000000;stroke-width:0.5;" x="475.77" xlink:href="#m7cdd149bd9" y="204.90625"/>
      </g>
     </g>
     <g id="text_7">
      <!-- 0.0 -->
      <defs>
       <path d="M 10.6875 12.40625 
L 21 12.40625 
L 21 0 
L 10.6875 0 
z
" id="BitstreamVeraSans-Roman-2e"/>
      </defs>
      <g transform="translate(39.96 208.2175)scale(0.12 -0.12)">
       <use xlink:href="#BitstreamVeraSans-Roman-30"/>
       <use x="63.623046875" xlink:href="#BitstreamVeraSans-Roman-2e"/>
       <use x="95.41015625" xlink:href="#BitstreamVeraSans-Roman-30"/>
      </g>
     </g>
    </g>
    <g id="ytick_2">
     <g id="line2d_14">
      <g>
       <use style="stroke:#000000;stroke-width:0.5;" x="63.04375" xlink:href="#m2375550a4d" y="175.823484848"/>
      </g>
     </g>
     <g id="line2d_15">
      <g>
       <use style="stroke:#000000;stroke-width:0.5;" x="475.77" xlink:href="#m7cdd149bd9" y="175.823484848"/>
      </g>
     </g>
     <g id="text_8">
      <!-- 0.5 -->
      <g transform="translate(39.96 179.134734848)scale(0.12 -0.12)">
       <use xlink:href="#BitstreamVeraSans-Roman-30"/>
       <use x="63.623046875" xlink:href="#BitstreamVeraSans-Roman-2e"/>
       <use x="95.41015625" xlink:href="#BitstreamVeraSans-Roman-35"/>
      </g>
     </g>
    </g>
    <g id="ytick_3">
     <g id="line2d_16">
      <g>
       <use style="stroke:#000000;stroke-width:0.5;" x="63.04375" xlink:href="#m2375550a4d" y="146.740719697"/>
      </g>
     </g>
     <g id="line2d_17">
      <g>
       <use style="stroke:#000000;stroke-width:0.5;" x="475.77" xlink:href="#m7cdd149bd9" y="146.740719697"/>
      </g>
     </g>
     <g id="text_9">
      <!-- 1.0 -->
      <g transform="translate(39.96 150.051969697)scale(0.12 -0.12)">
       <use xlink:href="#BitstreamVeraSans-Roman-31"/>
       <use x="63.623046875" xlink:href="#BitstreamVeraSans-Roman-2e"/>
       <use x="95.41015625" xlink:href="#BitstreamVeraSans-Roman-30"/>
      </g>
     </g>
    </g>
    <g id="ytick_4">
     <g id="line2d_18">
      <g>
       <use style="stroke:#000000;stroke-width:0.5;" x="63.04375" xlink:href="#m2375550a4d" y="117.657954545"/>
      </g>
     </g>
     <g id="line2d_19">
      <g>
       <use style="stroke:#000000;stroke-width:0.5;" x="475.77" xlink:href="#m7cdd149bd9" y="117.657954545"/>
      </g>
     </g>
     <g id="text_10">
      <!-- 1.5 -->
      <g transform="translate(39.96 120.969204545)scale(0.12 -0.12)">
       <use xlink:href="#BitstreamVeraSans-Roman-31"/>
       <use x="63.623046875" xlink:href="#BitstreamVeraSans-Roman-2e"/>
       <use x="95.41015625" xlink:href="#BitstreamVeraSans-Roman-35"/>
      </g>
     </g>
    </g>
    <g id="ytick_5">
     <g id="line2d_20">
      <g>
       <use style="stroke:#000000;stroke-width:0.5;" x="63.04375" xlink:href="#m2375550a4d" y="88.5751893939"/>
      </g>
     </g>
     <g id="line2d_21">
      <g>
       <use style="stroke:#000000;stroke-width:0.5;" x="475.77" xlink:href="#m7cdd149bd9" y="88.5751893939"/>
      </g>
     </g>
     <g id="text_11">
      <!-- 2.0 -->
      <g transform="translate(39.96 91.8864393939)scale(0.12 -0.12)">
       <use xlink:href="#BitstreamVeraSans-Roman-32"/>
       <use x="63.623046875" xlink:href="#BitstreamVeraSans-Roman-2e"/>
       <use x="95.41015625" xlink:href="#BitstreamVeraSans-Roman-30"/>
      </g>
     </g>
    </g>
    <g id="ytick_6">
     <g id="line2d_22">
      <g>
       <use style="stroke:#000000;stroke-width:0.5;" x="63.04375" xlink:href="#m2375550a4d" y="59.4924242424"/>
      </g>
     </g>
     <g id="line2d_23">
      <g>
       <use style="stroke:#000000;stroke-width:0.5;" x="475.77" xlink:href="#m7cdd149bd9" y="59.4924242424"/>
      </g>
     </g>
     <g id="text_12">
      <!-- 2.5 -->
      <g transform="translate(39.96 62.8036742424)scale(0.12 -0.12)">
       <use xlink:href="#BitstreamVeraSans-Roman-32"/>
       <use x="63.623046875" xlink:href="#BitstreamVeraSans-Roman-2e"/>
       <use x="95.41015625" xlink:href="#BitstreamVeraSans-Roman-35"/>
      </g>
     </g>
    </g>
    <g id="ytick_7">
     <g id="line2d_24">
      <g>
       <use style="stroke:#000000;stroke-width:0.5;" x="63.04375" xlink:href="#m2375550a4d" y="30.4096590909"/>
      </g>
     </g>
     <g id="line2d_25">
      <g>
       <use style="stroke:#000000;stroke-width:0.5;" x="475.77" xlink:href="#m7cdd149bd9" y="30.4096590909"/>
      </g>
     </g>
     <g id="text_13">
      <!-- 3.0 -->
      <defs>
       <path d="M 40.578125 39.3125 
Q 47.65625 37.796875 51.625 33 
Q 55.609375 28.21875 55.609375 21.1875 
Q 55.609375 10.40625 48.1875 4.484375 
Q 40.765625 -1.421875 27.09375 -1.421875 
Q 22.515625 -1.421875 17.65625 -0.515625 
Q 12.796875 0.390625 7.625 2.203125 
L 7.625 11.71875 
Q 11.71875 9.328125 16.59375 8.109375 
Q 21.484375 6.890625 26.8125 6.890625 
Q 36.078125 6.890625 40.9375 10.546875 
Q 45.796875 14.203125 45.796875 21.1875 
Q 45.796875 27.640625 41.28125 31.265625 
Q 36.765625 34.90625 28.71875 34.90625 
L 20.21875 34.90625 
L 20.21875 43.015625 
L 29.109375 43.015625 
Q 36.375 43.015625 40.234375 45.921875 
Q 44.09375 48.828125 44.09375 54.296875 
Q 44.09375 59.90625 40.109375 62.90625 
Q 36.140625 65.921875 28.71875 65.921875 
Q 24.65625 65.921875 20.015625 65.03125 
Q 15.375 64.15625 9.8125 62.3125 
L 9.8125 71.09375 
Q 15.4375 72.65625 20.34375 73.4375 
Q 25.25 74.21875 29.59375 74.21875 
Q 40.828125 74.21875 47.359375 69.109375 
Q 53.90625 64.015625 53.90625 55.328125 
Q 53.90625 49.265625 50.4375 45.09375 
Q 46.96875 40.921875 40.578125 39.3125 
" id="BitstreamVeraSans-Roman-33"/>
      </defs>
      <g transform="translate(39.96 33.7209090909)scale(0.12 -0.12)">
       <use xlink:href="#BitstreamVeraSans-Roman-33"/>
       <use x="63.623046875" xlink:href="#BitstreamVeraSans-Roman-2e"/>
       <use x="95.41015625" xlink:href="#BitstreamVeraSans-Roman-30"/>
      </g>
     </g>
    </g>
    <g id="text_14">
     <!-- $X\quad(\mu gC cm^{-3})$ -->
     <defs>
      <path d="M 3.609375 0 
Q 2.59375 0 2.59375 1.3125 
Q 2.640625 1.5625 2.8125 2.1875 
Q 2.984375 2.828125 3.25 3.171875 
Q 3.515625 3.515625 4 3.515625 
Q 13.09375 3.515625 19.578125 10.296875 
Q 19.671875 10.40625 19.796875 10.453125 
Q 19.921875 10.5 19.921875 10.5 
L 41.796875 34.078125 
L 29.890625 62.796875 
Q 28.859375 64.109375 26.5625 64.453125 
Q 24.265625 64.796875 21.1875 64.796875 
Q 20.21875 64.796875 20.21875 66.109375 
Q 20.5625 67.390625 20.75 67.84375 
Q 20.953125 68.3125 21.921875 68.3125 
L 46.921875 68.3125 
Q 47.90625 68.3125 47.90625 67 
Q 47.859375 66.75 47.6875 66.109375 
Q 47.515625 65.484375 47.234375 65.140625 
Q 46.96875 64.796875 46.484375 64.796875 
Q 44.625 64.796875 42.640625 64.1875 
Q 40.671875 63.578125 39.890625 62.203125 
L 48.484375 41.5 
L 64.890625 59.078125 
Q 65.046875 59.421875 65.578125 60.28125 
Q 66.109375 61.140625 66.109375 61.921875 
Q 66.109375 63.375 64.84375 64.078125 
Q 63.578125 64.796875 61.8125 64.796875 
Q 60.796875 64.796875 60.796875 66.109375 
Q 61.140625 67.390625 61.328125 67.84375 
Q 61.53125 68.3125 62.5 68.3125 
L 84.1875 68.3125 
Q 84.71875 68.3125 84.953125 67.921875 
Q 85.203125 67.53125 85.203125 67 
Q 85.15625 66.75 85 66.15625 
Q 84.859375 65.578125 84.609375 65.1875 
Q 84.375 64.796875 83.890625 64.796875 
Q 79.25 64.796875 75.359375 63.109375 
Q 71.484375 61.421875 68.21875 58.015625 
Q 68.171875 57.953125 68.09375 57.921875 
Q 68.015625 57.90625 67.921875 57.8125 
L 49.8125 38.28125 
L 63.484375 5.515625 
Q 65.09375 3.515625 72.21875 3.515625 
Q 73.1875 3.515625 73.1875 2.203125 
Q 72.859375 0.875 72.625 0.4375 
Q 72.40625 0 71.484375 0 
L 46.484375 0 
Q 45.515625 0 45.515625 1.3125 
Q 45.5625 1.5625 45.703125 2.171875 
Q 45.84375 2.78125 46.109375 3.140625 
Q 46.390625 3.515625 46.78125 3.515625 
Q 48.734375 3.515625 50.734375 4.125 
Q 52.734375 4.734375 53.515625 6.109375 
L 43.109375 31 
L 22.90625 9.1875 
Q 22.75 8.84375 22.21875 8 
Q 21.6875 7.171875 21.6875 6.390625 
Q 21.6875 4.9375 23.046875 4.21875 
Q 24.421875 3.515625 25.984375 3.515625 
Q 27 3.515625 27 2.203125 
Q 26.65625 0.78125 26.453125 0.390625 
Q 26.265625 0 25.296875 0 
z
" id="Cmmi10-58"/>
      <path d="M 7.71875 1.703125 
Q 7.71875 2.296875 7.8125 2.59375 
L 15.28125 32.421875 
Q 16.015625 35.203125 16.015625 37.3125 
Q 16.015625 41.609375 13.09375 41.609375 
Q 9.96875 41.609375 8.453125 37.859375 
Q 6.9375 34.125 5.515625 28.421875 
Q 5.515625 28.125 5.21875 27.953125 
Q 4.9375 27.78125 4.6875 27.78125 
L 3.515625 27.78125 
Q 3.171875 27.78125 2.921875 28.140625 
Q 2.6875 28.515625 2.6875 28.8125 
Q 3.765625 33.15625 4.765625 36.171875 
Q 5.765625 39.203125 7.890625 41.6875 
Q 10.015625 44.1875 13.1875 44.1875 
Q 16.9375 44.1875 19.8125 41.8125 
Q 22.703125 39.453125 22.703125 35.796875 
Q 25.6875 39.703125 29.6875 41.9375 
Q 33.6875 44.1875 38.1875 44.1875 
Q 42.921875 44.1875 46.359375 41.765625 
Q 49.8125 39.359375 49.8125 34.90625 
Q 52.875 39.265625 57 41.71875 
Q 61.140625 44.1875 66.015625 44.1875 
Q 71.1875 44.1875 74.328125 41.375 
Q 77.484375 38.578125 77.484375 33.40625 
Q 77.484375 29.296875 75.65625 23.484375 
Q 73.828125 17.671875 71.09375 10.5 
Q 69.671875 7.03125 69.671875 4.5 
Q 69.671875 1.515625 72.015625 1.515625 
Q 75.921875 1.515625 78.515625 5.703125 
Q 81.109375 9.90625 82.171875 14.703125 
Q 82.46875 15.28125 83.015625 15.28125 
L 84.1875 15.28125 
Q 84.578125 15.28125 84.84375 15.015625 
Q 85.109375 14.75 85.109375 14.40625 
Q 85.109375 14.3125 85.015625 14.109375 
Q 83.640625 8.453125 80.25 3.65625 
Q 76.859375 -1.125 71.78125 -1.125 
Q 68.265625 -1.125 65.765625 1.296875 
Q 63.28125 3.71875 63.28125 7.171875 
Q 63.28125 8.9375 64.109375 11.078125 
Q 66.9375 18.609375 68.8125 24.515625 
Q 70.703125 30.421875 70.703125 34.90625 
Q 70.703125 37.703125 69.578125 39.65625 
Q 68.453125 41.609375 65.828125 41.609375 
Q 60.359375 41.609375 56.34375 38.25 
Q 52.34375 34.90625 49.421875 29.390625 
Q 49.21875 28.421875 49.125 27.875 
L 42.671875 2.203125 
Q 42.328125 0.828125 41.125 -0.140625 
Q 39.9375 -1.125 38.484375 -1.125 
Q 37.3125 -1.125 36.40625 -0.34375 
Q 35.5 0.4375 35.5 1.703125 
Q 35.5 2.296875 35.59375 2.59375 
L 42 28.078125 
Q 43.015625 32.171875 43.015625 34.90625 
Q 43.015625 37.703125 41.859375 39.65625 
Q 40.71875 41.609375 37.984375 41.609375 
Q 34.328125 41.609375 31.25 39.984375 
Q 28.171875 38.375 25.875 35.71875 
Q 23.578125 33.0625 21.6875 29.390625 
L 14.890625 2.203125 
Q 14.546875 0.828125 13.34375 -0.140625 
Q 12.15625 -1.125 10.6875 -1.125 
Q 9.46875 -1.125 8.59375 -0.34375 
Q 7.71875 0.4375 7.71875 1.703125 
" id="Cmmi10-6d"/>
      <path d="M 11.71875 11.921875 
Q 11.71875 7.5625 13.9375 4.53125 
Q 16.15625 1.515625 20.3125 1.515625 
Q 26.265625 1.515625 31.75 4.25 
Q 37.25 6.984375 40.71875 11.8125 
Q 41.015625 12.109375 41.5 12.109375 
Q 42 12.109375 42.5 11.546875 
Q 43.015625 10.984375 43.015625 10.5 
Q 43.015625 10.109375 42.828125 9.90625 
Q 39.15625 4.78125 32.953125 1.828125 
Q 26.765625 -1.125 20.125 -1.125 
Q 15.328125 -1.125 11.671875 1.140625 
Q 8.015625 3.421875 6 7.21875 
Q 4 11.03125 4 15.828125 
Q 4 22.5625 7.765625 29.203125 
Q 11.53125 35.84375 17.78125 40.015625 
Q 24.03125 44.1875 30.90625 44.1875 
Q 35.40625 44.1875 38.984375 42.015625 
Q 42.578125 39.84375 42.578125 35.59375 
Q 42.578125 32.859375 40.984375 30.921875 
Q 39.40625 29 36.71875 29 
Q 35.109375 29 34 30 
Q 32.90625 31 32.90625 32.625 
Q 32.90625 34.96875 34.609375 36.625 
Q 36.328125 38.28125 38.625 38.28125 
L 38.8125 38.28125 
Q 37.640625 39.984375 35.421875 40.796875 
Q 33.203125 41.609375 30.8125 41.609375 
Q 24.953125 41.609375 20.546875 36.59375 
Q 16.15625 31.59375 13.9375 24.625 
Q 11.71875 17.671875 11.71875 11.921875 
" id="Cmmi10-63"/>
      <path d="M 2.78125 -18.796875 
Q 2.78125 -18.21875 2.875 -18.015625 
L 17.578125 41.015625 
Q 18.015625 42.4375 19.15625 43.3125 
Q 20.3125 44.1875 21.78125 44.1875 
Q 23.046875 44.1875 23.921875 43.421875 
Q 24.8125 42.671875 24.8125 41.40625 
Q 24.8125 41.109375 24.78125 40.9375 
Q 24.75 40.765625 24.703125 40.578125 
L 18.796875 17.1875 
Q 17.828125 13.03125 17.828125 10.015625 
Q 17.828125 6.296875 19.578125 3.90625 
Q 21.34375 1.515625 24.90625 1.515625 
Q 32.171875 1.515625 37.703125 10.59375 
Q 37.75 10.6875 37.765625 10.734375 
Q 37.796875 10.796875 37.796875 10.890625 
L 45.015625 39.890625 
Q 45.359375 41.21875 46.578125 42.15625 
Q 47.796875 43.109375 49.21875 43.109375 
Q 50.390625 43.109375 51.296875 42.328125 
Q 52.203125 41.546875 52.203125 40.28125 
Q 52.203125 39.703125 52.09375 39.5 
L 44.921875 10.6875 
Q 44.1875 7.859375 44.1875 5.8125 
Q 44.1875 1.515625 47.125 1.515625 
Q 50.25 1.515625 51.828125 5.375 
Q 53.421875 9.234375 54.59375 14.703125 
Q 54.78125 15.28125 55.421875 15.28125 
L 56.59375 15.28125 
Q 56.984375 15.28125 57.25 14.96875 
Q 57.515625 14.65625 57.515625 14.3125 
Q 55.765625 7.328125 53.6875 3.09375 
Q 51.609375 -1.125 46.921875 -1.125 
Q 43.609375 -1.125 41.046875 0.78125 
Q 38.484375 2.6875 37.703125 5.90625 
Q 35.203125 2.78125 31.859375 0.828125 
Q 28.515625 -1.125 24.8125 -1.125 
Q 18.5625 -1.125 14.984375 1.8125 
L 9.90625 -18.40625 
Q 9.625 -19.828125 8.453125 -20.703125 
Q 7.28125 -21.578125 5.8125 -21.578125 
Q 4.59375 -21.578125 3.6875 -20.8125 
Q 2.78125 -20.0625 2.78125 -18.796875 
" id="Cmmi10-b9"/>
      <path d="M 9.515625 7.71875 
Q 11.859375 4.296875 15.8125 2.640625 
Q 19.78125 0.984375 24.3125 0.984375 
Q 30.125 0.984375 32.5625 5.9375 
Q 35.015625 10.890625 35.015625 17.1875 
Q 35.015625 20.015625 34.5 22.84375 
Q 33.984375 25.6875 32.765625 28.125 
Q 31.546875 30.5625 29.421875 32.03125 
Q 27.296875 33.5 24.21875 33.5 
L 17.578125 33.5 
Q 16.703125 33.5 16.703125 34.421875 
L 16.703125 35.296875 
Q 16.703125 36.078125 17.578125 36.078125 
L 23.09375 36.53125 
Q 26.609375 36.53125 28.921875 39.15625 
Q 31.25 41.796875 32.328125 45.578125 
Q 33.40625 49.359375 33.40625 52.78125 
Q 33.40625 57.5625 31.15625 60.640625 
Q 28.90625 63.71875 24.3125 63.71875 
Q 20.515625 63.71875 17.046875 62.28125 
Q 13.578125 60.84375 11.53125 57.90625 
Q 11.71875 57.953125 11.859375 57.984375 
Q 12.015625 58.015625 12.203125 58.015625 
Q 14.453125 58.015625 15.96875 56.453125 
Q 17.484375 54.890625 17.484375 52.6875 
Q 17.484375 50.53125 15.96875 48.96875 
Q 14.453125 47.40625 12.203125 47.40625 
Q 10.015625 47.40625 8.453125 48.96875 
Q 6.890625 50.53125 6.890625 52.6875 
Q 6.890625 56.984375 9.46875 60.15625 
Q 12.0625 63.328125 16.140625 64.96875 
Q 20.21875 66.609375 24.3125 66.609375 
Q 27.34375 66.609375 30.703125 65.703125 
Q 34.078125 64.796875 36.8125 63.109375 
Q 39.546875 61.421875 41.28125 58.78125 
Q 43.015625 56.15625 43.015625 52.78125 
Q 43.015625 48.578125 41.140625 45.015625 
Q 39.265625 41.453125 35.984375 38.859375 
Q 32.71875 36.28125 28.8125 35.015625 
Q 33.15625 34.1875 37.0625 31.734375 
Q 40.96875 29.296875 43.328125 25.484375 
Q 45.703125 21.6875 45.703125 17.28125 
Q 45.703125 11.765625 42.671875 7.296875 
Q 39.65625 2.828125 34.71875 0.3125 
Q 29.78125 -2.203125 24.3125 -2.203125 
Q 19.625 -2.203125 14.90625 -0.40625 
Q 10.203125 1.375 7.203125 4.9375 
Q 4.203125 8.5 4.203125 13.484375 
Q 4.203125 15.96875 5.859375 17.625 
Q 7.515625 19.28125 10.015625 19.28125 
Q 11.625 19.28125 12.96875 18.53125 
Q 14.3125 17.78125 15.0625 16.40625 
Q 15.828125 15.046875 15.828125 13.484375 
Q 15.828125 11.03125 14.109375 9.375 
Q 12.40625 7.71875 10.015625 7.71875 
z
" id="Cmr10-33"/>
      <path d="M 10.203125 23 
Q 9.375 23 8.828125 23.625 
Q 8.296875 24.265625 8.296875 25 
Q 8.296875 25.734375 8.828125 26.359375 
Q 9.375 27 10.203125 27 
L 67.578125 27 
Q 68.359375 27 68.875 26.359375 
Q 69.390625 25.734375 69.390625 25 
Q 69.390625 24.265625 68.875 23.625 
Q 68.359375 23 67.578125 23 
z
" id="Cmsy10-a1"/>
      <path d="M 14.59375 21.578125 
Q 14.59375 15.578125 16.90625 11.015625 
Q 19.234375 6.453125 23.65625 3.875 
Q 28.078125 1.3125 34.078125 1.3125 
Q 40.375 1.3125 46.203125 4.53125 
Q 52.046875 7.765625 56.171875 13.15625 
Q 60.296875 18.5625 61.8125 24.609375 
Q 62.015625 25.203125 62.59375 25.203125 
L 63.8125 25.203125 
Q 64.203125 25.203125 64.453125 24.921875 
Q 64.703125 24.65625 64.703125 24.3125 
Q 64.703125 24.21875 64.59375 24.03125 
Q 62.890625 17.09375 57.984375 11.015625 
Q 53.078125 4.9375 46.234375 1.359375 
Q 39.40625 -2.203125 32.171875 -2.203125 
Q 24.359375 -2.203125 18.15625 1.3125 
Q 11.96875 4.828125 8.515625 11.078125 
Q 5.078125 17.328125 5.078125 25.203125 
Q 5.078125 33.59375 8.828125 41.8125 
Q 12.59375 50.046875 18.9375 56.46875 
Q 25.296875 62.890625 33.421875 66.703125 
Q 41.546875 70.515625 49.90625 70.515625 
Q 53.21875 70.515625 56.25 69.5 
Q 59.28125 68.5 61.859375 66.453125 
Q 64.453125 64.40625 66.109375 61.71875 
L 74.03125 70.3125 
Q 74.03125 70.515625 74.515625 70.515625 
L 75.09375 70.515625 
Q 75.484375 70.515625 75.734375 70.171875 
Q 75.984375 69.828125 75.984375 69.484375 
L 69.1875 42.484375 
Q 69.1875 41.796875 68.40625 41.796875 
L 66.609375 41.796875 
Q 65.828125 41.796875 65.828125 42.921875 
Q 66.21875 45.125 66.21875 48.1875 
Q 66.21875 53.078125 64.546875 57.390625 
Q 62.890625 61.71875 59.390625 64.359375 
Q 55.90625 67 50.875 67 
Q 42.71875 67 35.9375 62.890625 
Q 29.15625 58.796875 24.4375 52.125 
Q 19.734375 45.453125 17.15625 37.328125 
Q 14.59375 29.203125 14.59375 21.578125 
" id="Cmmi10-43"/>
      <path d="M 1.421875 -14.3125 
Q 1.421875 -11.859375 3.09375 -10.03125 
Q 4.78125 -8.203125 7.171875 -8.203125 
Q 8.796875 -8.203125 9.890625 -9.203125 
Q 10.984375 -10.203125 10.984375 -11.8125 
Q 10.984375 -13.625 9.953125 -15.0625 
Q 8.9375 -16.5 7.328125 -17.09375 
Q 10.015625 -17.921875 15.71875 -17.921875 
Q 20.3125 -17.921875 24.125 -14.375 
Q 27.9375 -10.84375 29.109375 -6.203125 
L 31.984375 5.515625 
Q 26.5625 0 20.703125 0 
Q 16.40625 0 13.34375 2.1875 
Q 10.296875 4.390625 8.6875 8.046875 
Q 7.078125 11.71875 7.078125 15.828125 
Q 7.078125 20.40625 8.953125 25.4375 
Q 10.84375 30.46875 14.234375 34.765625 
Q 17.625 39.0625 22.015625 41.625 
Q 26.421875 44.1875 31.296875 44.1875 
Q 34.234375 44.1875 36.578125 42.578125 
Q 38.921875 40.96875 40.28125 38.28125 
Q 41.265625 42.1875 44.578125 42.1875 
Q 45.84375 42.1875 46.71875 41.421875 
Q 47.609375 40.671875 47.609375 39.40625 
Q 47.609375 39.109375 47.578125 38.953125 
Q 47.5625 38.8125 47.515625 38.625 
L 36.078125 -6.78125 
Q 35.296875 -9.90625 33.203125 -12.5 
Q 31.109375 -15.09375 28.265625 -16.828125 
Q 25.4375 -18.5625 22.0625 -19.53125 
Q 18.703125 -20.515625 15.578125 -20.515625 
Q 9.859375 -20.515625 5.640625 -19.40625 
Q 1.421875 -18.3125 1.421875 -14.3125 
M 20.90625 2.59375 
Q 27.296875 2.59375 33.5 11.375 
L 39.015625 33.203125 
Q 38.328125 36.671875 36.28125 39.140625 
Q 34.234375 41.609375 31.109375 41.609375 
Q 27.78125 41.609375 24.828125 38.890625 
Q 21.875 36.1875 19.921875 32.421875 
Q 18.0625 28.8125 16.328125 22.046875 
Q 14.59375 15.28125 14.59375 11.375 
Q 14.59375 7.953125 16.15625 5.265625 
Q 17.71875 2.59375 20.90625 2.59375 
" id="Cmmi10-67"/>
     </defs>
     <g transform="translate(29.96 175.033125)rotate(-90.0)scale(0.2 -0.2)">
      <use transform="translate(0.0 0.109375)" xlink:href="#Cmmi10-58"/>
      <use transform="translate(170.60546875 0.109375)" xlink:href="#Cmr10-28"/>
      <use transform="translate(209.423828125 0.109375)" xlink:href="#Cmmi10-b9"/>
      <use transform="translate(269.62890625 0.109375)" xlink:href="#Cmmi10-67"/>
      <use transform="translate(317.333984375 0.109375)" xlink:href="#Cmmi10-43"/>
      <use transform="translate(388.720703125 0.109375)" xlink:href="#Cmmi10-63"/>
      <use transform="translate(431.93359375 0.109375)" xlink:href="#Cmmi10-6d"/>
      <use transform="translate(526.02984375 38.3734375)scale(0.7)" xlink:href="#Cmsy10-a1"/>
      <use transform="translate(580.4097265625 38.3734375)scale(0.7)" xlink:href="#Cmr10-33"/>
      <use transform="translate(621.7870703125 0.109375)" xlink:href="#Cmr10-29"/>
     </g>
    </g>
   </g>
  </g>
  <g id="axes_2">
   <g id="patch_7">
    <path d="M 63.04375 450.42625 
L 475.77 450.42625 
L 475.77 258.48 
L 63.04375 258.48 
z
" style="fill:#ffffff;"/>
   </g>
   <g id="line2d_26">
    <path clip-path="url(#pf4c42b2a7b)" d="M 63.04375 435.884867 
L 63.332658 369.078394 
L 63.621567 346.407537 
L 63.931111 337.761192 
L 64.281929 333.837088 
L 64.7772 330.894054 
L 66.139197 324.658939 
L 68.966372 312.638697 
L 71.153821 304.25778 
L 72.94918 298.208195 
L 74.476267 293.805574 
L 75.776355 290.702807 
L 76.890716 288.589738 
L 77.839986 287.237061 
L 78.665439 286.428736 
L 79.367073 286.032254 
L 80.006799 285.918692 
L 80.605252 286.038225 
L 81.203705 286.386448 
L 81.843431 287.022655 
L 82.545065 288.04704 
L 83.329245 289.611924 
L 84.19597 291.874506 
L 85.145241 295.009514 
L 86.197693 299.292056 
L 87.373962 305.055695 
L 88.735959 312.910075 
L 90.428137 324.073558 
L 95.525306 358.693916 
L 96.763485 365.104469 
L 97.815937 369.456393 
L 98.744571 372.405772 
L 99.570023 374.328874 
L 100.292294 375.492597 
L 100.93202 376.141125 
L 101.509837 376.437783 
L 102.067017 376.481535 
L 102.644834 376.293888 
L 103.284559 375.83197 
L 104.00683 375.019953 
L 104.873555 373.685616 
L 105.905371 371.657568 
L 107.14355 368.704355 
L 108.670637 364.455064 
L 110.651723 358.237029 
L 113.582079 348.2227 
L 119.380883 328.320645 
L 121.712786 321.18393 
L 123.570055 316.177185 
L 125.138414 312.552333 
L 126.500411 309.940208 
L 127.676681 308.143225 
L 128.708496 306.956128 
L 129.616494 306.238382 
L 130.42131 305.875373 
L 131.164218 305.780361 
L 131.865852 305.911318 
L 132.588123 306.277939 
L 133.351667 306.928574 
L 134.177119 307.942843 
L 135.085117 309.436471 
L 136.07566 311.517127 
L 137.190021 314.408037 
L 138.448836 318.333438 
L 139.914014 323.675854 
L 141.812555 331.515907 
L 146.662088 351.955705 
L 148.085994 356.792035 
L 149.2829 360.118418 
L 150.335352 362.422496 
L 151.263986 363.955639 
L 152.110075 364.946266 
L 152.873618 365.516893 
L 153.595889 365.786166 
L 154.297524 365.808972 
L 155.019795 365.601688 
L 155.803975 365.130723 
L 156.6707 364.338201 
L 157.661243 363.120056 
L 158.837513 361.29873 
L 160.220146 358.727123 
L 161.93296 355.044304 
L 164.22359 349.546605 
L 172.354297 329.551878 
L 174.252838 325.707815 
L 175.841834 322.964743 
L 177.224467 320.998619 
L 178.44201 319.635406 
L 179.535734 318.733936 
L 180.505641 318.209137 
L 181.413639 317.96463 
L 182.280364 317.962919 
L 183.126452 318.185917 
L 183.993178 318.648873 
L 184.901175 319.390537 
L 185.891718 320.497685 
L 186.985443 322.073007 
L 188.202985 324.239762 
L 189.585618 327.1768 
L 191.25716 331.282235 
L 193.692244 337.930558 
L 197.097236 347.143793 
L 198.768777 351.015737 
L 200.130774 353.64134 
L 201.32768 355.487903 
L 202.400768 356.749991 
L 203.370675 357.563204 
L 204.278673 358.044521 
L 205.145398 358.258001 
L 206.012123 358.241147 
L 206.899484 357.998331 
L 207.848755 357.503516 
L 208.901207 356.695893 
L 210.098113 355.483822 
L 211.480746 353.752309 
L 213.152287 351.280342 
L 215.298464 347.679296 
L 219.487635 340.094134 
L 222.4799 334.928102 
L 224.543532 331.792452 
L 226.256346 329.579968 
L 227.74216 328.012627 
L 229.062884 326.933328 
L 230.25979 326.235271 
L 231.353515 325.845897 
L 232.405967 325.705514 
L 233.417146 325.793274 
L 234.448962 326.110782 
L 235.501414 326.671397 
L 236.615774 327.520373 
L 237.833317 328.734996 
L 239.195314 330.420534 
L 240.78431 332.762318 
L 242.786032 336.139988 
L 249.142016 347.177748 
L 250.710376 349.29496 
L 252.072373 350.777047 
L 253.289915 351.789808 
L 254.424912 352.455771 
L 255.498 352.836064 
L 256.550452 352.977331 
L 257.623541 352.893755 
L 258.737901 352.577441 
L 259.934808 351.997642 
L 261.255532 351.099804 
L 262.761982 349.792596 
L 264.536705 347.943555 
L 266.847972 345.190407 
L 274.565953 335.730972 
L 276.464494 333.89176 
L 278.115399 332.591928 
L 279.580577 331.710906 
L 280.942574 331.146053 
L 282.222025 330.853328 
L 283.460204 330.798006 
L 284.677746 330.965682 
L 285.915925 331.36061 
L 287.216013 332.01135 
L 288.619282 332.968272 
L 290.187642 334.316688 
L 292.04491 336.223173 
L 294.624449 339.22507 
L 299.019983 344.349209 
L 300.939161 346.219906 
L 302.548793 347.490145 
L 303.993335 348.356833 
L 305.355331 348.918245 
L 306.655419 349.216226 
L 307.93487 349.284504 
L 309.255594 349.129702 
L 310.638227 348.738637 
L 312.124042 348.083009 
L 313.795583 347.095232 
L 315.776669 345.653169 
L 318.418117 343.430207 
L 324.918556 337.849068 
L 327.064732 336.364903 
L 328.901364 335.357659 
L 330.552269 334.698113 
L 332.099992 334.313639 
L 333.585807 334.16978 
L 335.050985 334.248763 
L 336.5368 334.550568 
L 338.105159 335.10052 
L 339.797337 335.936623 
L 341.716514 337.141953 
L 344.151599 338.951651 
L 350.879037 344.101407 
L 352.860123 345.249661 
L 354.614209 346.013112 
L 356.244478 346.482711 
L 357.812838 346.706196 
L 359.381197 346.706756 
L 361.011466 346.481807 
L 362.744916 346.012594 
L 364.664094 345.255457 
L 366.934088 344.109031 
L 370.11208 342.228308 
L 375.518794 339.023058 
L 377.953879 337.859993 
L 380.038146 337.106509 
L 381.936687 336.653051 
L 383.752683 336.447307 
L 385.527405 336.469544 
L 387.322765 336.713937 
L 389.221305 337.200031 
L 391.305573 337.968749 
L 393.823203 339.147303 
L 398.817191 341.810049 
L 401.830092 343.256669 
L 404.120723 344.114806 
L 406.163718 344.645348 
L 408.103531 344.919513 
L 410.022708 344.964352 
L 411.983158 344.785793 
L 414.088062 344.365825 
L 416.461238 343.657658 
L 419.47414 342.50977 
L 427.893755 339.166889 
L 430.411385 338.486826 
L 432.681379 338.100183 
L 434.848192 337.955446 
L 436.994369 338.034502 
L 439.223091 338.341069 
L 441.658175 338.905419 
L 444.609168 339.829734 
L 454.205053 343.022461 
L 456.722684 343.508886 
L 459.075223 343.737703 
L 461.407127 343.739824 
L 463.821575 343.517899 
L 466.504296 343.04169 
L 469.806106 342.216669 
L 475.77 340.512651 
L 475.77 340.512651 
" style="fill:none;stroke:#0000ff;stroke-linecap:square;"/>
   </g>
   <g id="patch_8">
    <path d="M 63.04375 258.48 
L 475.77 258.48 
" style="fill:none;stroke:#000000;stroke-linecap:square;stroke-linejoin:miter;"/>
   </g>
   <g id="patch_9">
    <path d="M 63.04375 450.42625 
L 63.04375 258.48 
" style="fill:none;stroke:#000000;stroke-linecap:square;stroke-linejoin:miter;"/>
   </g>
   <g id="patch_10">
    <path d="M 475.77 450.42625 
L 475.77 258.48 
" style="fill:none;stroke:#000000;stroke-linecap:square;stroke-linejoin:miter;"/>
   </g>
   <g id="patch_11">
    <path d="M 63.04375 450.42625 
L 475.77 450.42625 
" style="fill:none;stroke:#000000;stroke-linecap:square;stroke-linejoin:miter;"/>
   </g>
   <g id="matplotlib.axis_3">
    <g id="xtick_6">
     <g id="line2d_27">
      <g>
       <use style="stroke:#000000;stroke-width:0.5;" x="63.04375" xlink:href="#m277a517b51" y="450.42625"/>
      </g>
     </g>
     <g id="line2d_28">
      <g>
       <use style="stroke:#000000;stroke-width:0.5;" x="63.04375" xlink:href="#m72340cd88b" y="258.48"/>
      </g>
     </g>
     <g id="text_15">
      <!-- 0 -->
      <g transform="translate(59.22625 463.544375)scale(0.12 -0.12)">
       <use xlink:href="#BitstreamVeraSans-Roman-30"/>
      </g>
     </g>
    </g>
    <g id="xtick_7">
     <g id="line2d_29">
      <g>
       <use style="stroke:#000000;stroke-width:0.5;" x="166.2253125" xlink:href="#m277a517b51" y="450.42625"/>
      </g>
     </g>
     <g id="line2d_30">
      <g>
       <use style="stroke:#000000;stroke-width:0.5;" x="166.2253125" xlink:href="#m72340cd88b" y="258.48"/>
      </g>
     </g>
     <g id="text_16">
      <!-- 500 -->
      <g transform="translate(154.7728125 463.544375)scale(0.12 -0.12)">
       <use xlink:href="#BitstreamVeraSans-Roman-35"/>
       <use x="63.623046875" xlink:href="#BitstreamVeraSans-Roman-30"/>
       <use x="127.24609375" xlink:href="#BitstreamVeraSans-Roman-30"/>
      </g>
     </g>
    </g>
    <g id="xtick_8">
     <g id="line2d_31">
      <g>
       <use style="stroke:#000000;stroke-width:0.5;" x="269.406875" xlink:href="#m277a517b51" y="450.42625"/>
      </g>
     </g>
     <g id="line2d_32">
      <g>
       <use style="stroke:#000000;stroke-width:0.5;" x="269.406875" xlink:href="#m72340cd88b" y="258.48"/>
      </g>
     </g>
     <g id="text_17">
      <!-- 1000 -->
      <g transform="translate(254.136875 463.544375)scale(0.12 -0.12)">
       <use xlink:href="#BitstreamVeraSans-Roman-31"/>
       <use x="63.623046875" xlink:href="#BitstreamVeraSans-Roman-30"/>
       <use x="127.24609375" xlink:href="#BitstreamVeraSans-Roman-30"/>
       <use x="190.869140625" xlink:href="#BitstreamVeraSans-Roman-30"/>
      </g>
     </g>
    </g>
    <g id="xtick_9">
     <g id="line2d_33">
      <g>
       <use style="stroke:#000000;stroke-width:0.5;" x="372.5884375" xlink:href="#m277a517b51" y="450.42625"/>
      </g>
     </g>
     <g id="line2d_34">
      <g>
       <use style="stroke:#000000;stroke-width:0.5;" x="372.5884375" xlink:href="#m72340cd88b" y="258.48"/>
      </g>
     </g>
     <g id="text_18">
      <!-- 1500 -->
      <g transform="translate(357.3184375 463.544375)scale(0.12 -0.12)">
       <use xlink:href="#BitstreamVeraSans-Roman-31"/>
       <use x="63.623046875" xlink:href="#BitstreamVeraSans-Roman-35"/>
       <use x="127.24609375" xlink:href="#BitstreamVeraSans-Roman-30"/>
       <use x="190.869140625" xlink:href="#BitstreamVeraSans-Roman-30"/>
      </g>
     </g>
    </g>
    <g id="xtick_10">
     <g id="line2d_35">
      <g>
       <use style="stroke:#000000;stroke-width:0.5;" x="475.77" xlink:href="#m277a517b51" y="450.42625"/>
      </g>
     </g>
     <g id="line2d_36">
      <g>
       <use style="stroke:#000000;stroke-width:0.5;" x="475.77" xlink:href="#m72340cd88b" y="258.48"/>
      </g>
     </g>
     <g id="text_19">
      <!-- 2000 -->
      <g transform="translate(460.5 463.544375)scale(0.12 -0.12)">
       <use xlink:href="#BitstreamVeraSans-Roman-32"/>
       <use x="63.623046875" xlink:href="#BitstreamVeraSans-Roman-30"/>
       <use x="127.24609375" xlink:href="#BitstreamVeraSans-Roman-30"/>
       <use x="190.869140625" xlink:href="#BitstreamVeraSans-Roman-30"/>
      </g>
     </g>
    </g>
    <g id="text_20">
     <!-- $t\quad(hr)$ -->
     <g transform="translate(238.906875 486.04)scale(0.2 -0.2)">
      <use xlink:href="#Cmmi10-74"/>
      <use transform="translate(123.876953125 0.0)" xlink:href="#Cmr10-28"/>
      <use transform="translate(162.6953125 0.0)" xlink:href="#Cmmi10-68"/>
      <use transform="translate(220.3125 0.0)" xlink:href="#Cmmi10-72"/>
      <use transform="translate(265.4296875 0.0)" xlink:href="#Cmr10-29"/>
     </g>
    </g>
   </g>
   <g id="matplotlib.axis_4">
    <g id="ytick_8">
     <g id="line2d_37">
      <g>
       <use style="stroke:#000000;stroke-width:0.5;" x="63.04375" xlink:href="#m2375550a4d" y="450.42625"/>
      </g>
     </g>
     <g id="line2d_38">
      <g>
       <use style="stroke:#000000;stroke-width:0.5;" x="475.77" xlink:href="#m7cdd149bd9" y="450.42625"/>
      </g>
     </g>
     <g id="text_21">
      <!-- 0 -->
      <g transform="translate(51.40875 453.7375)scale(0.12 -0.12)">
       <use xlink:href="#BitstreamVeraSans-Roman-30"/>
      </g>
     </g>
    </g>
    <g id="ytick_9">
     <g id="line2d_39">
      <g>
       <use style="stroke:#000000;stroke-width:0.5;" x="63.04375" xlink:href="#m2375550a4d" y="401.954974747"/>
      </g>
     </g>
     <g id="line2d_40">
      <g>
       <use style="stroke:#000000;stroke-width:0.5;" x="475.77" xlink:href="#m7cdd149bd9" y="401.954974747"/>
      </g>
     </g>
     <g id="text_22">
      <!-- 5 -->
      <g transform="translate(51.40875 405.266224747)scale(0.12 -0.12)">
       <use xlink:href="#BitstreamVeraSans-Roman-35"/>
      </g>
     </g>
    </g>
    <g id="ytick_10">
     <g id="line2d_41">
      <g>
       <use style="stroke:#000000;stroke-width:0.5;" x="63.04375" xlink:href="#m2375550a4d" y="353.483699495"/>
      </g>
     </g>
     <g id="line2d_42">
      <g>
       <use style="stroke:#000000;stroke-width:0.5;" x="475.77" xlink:href="#m7cdd149bd9" y="353.483699495"/>
      </g>
     </g>
     <g id="text_23">
      <!-- 10 -->
      <g transform="translate(43.77375 356.794949495)scale(0.12 -0.12)">
       <use xlink:href="#BitstreamVeraSans-Roman-31"/>
       <use x="63.623046875" xlink:href="#BitstreamVeraSans-Roman-30"/>
      </g>
     </g>
    </g>
    <g id="ytick_11">
     <g id="line2d_43">
      <g>
       <use style="stroke:#000000;stroke-width:0.5;" x="63.04375" xlink:href="#m2375550a4d" y="305.012424242"/>
      </g>
     </g>
     <g id="line2d_44">
      <g>
       <use style="stroke:#000000;stroke-width:0.5;" x="475.77" xlink:href="#m7cdd149bd9" y="305.012424242"/>
      </g>
     </g>
     <g id="text_24">
      <!-- 15 -->
      <g transform="translate(43.77375 308.323674242)scale(0.12 -0.12)">
       <use xlink:href="#BitstreamVeraSans-Roman-31"/>
       <use x="63.623046875" xlink:href="#BitstreamVeraSans-Roman-35"/>
      </g>
     </g>
    </g>
    <g id="text_25">
     <!-- $S\quad(\mu gC cm^{-3})$ -->
     <defs>
      <path d="M 6.109375 -2.203125 
Q 5.8125 -2.203125 5.5625 -1.859375 
Q 5.328125 -1.515625 5.328125 -1.21875 
L 11.078125 22.125 
Q 11.28125 22.703125 11.921875 22.703125 
L 13.09375 22.703125 
Q 13.484375 22.703125 13.703125 22.40625 
Q 13.921875 22.125 13.921875 21.6875 
Q 13.09375 18.265625 13.09375 15.578125 
Q 13.09375 8.34375 18.0625 4.828125 
Q 23.046875 1.3125 30.609375 1.3125 
Q 33.890625 1.3125 37.0625 2.921875 
Q 40.234375 4.546875 42.59375 7.125 
Q 44.96875 9.71875 46.375 12.90625 
Q 47.796875 16.109375 47.796875 19.390625 
Q 47.796875 22.90625 45.9375 25.65625 
Q 44.09375 28.421875 40.828125 29.203125 
L 28.609375 32.421875 
Q 23.6875 33.734375 20.75 37.71875 
Q 17.828125 41.703125 17.828125 46.6875 
Q 17.828125 52.6875 21.390625 58.25 
Q 24.953125 63.8125 30.6875 67.15625 
Q 36.421875 70.515625 42.390625 70.515625 
Q 46.96875 70.515625 50.796875 68.828125 
Q 54.640625 67.140625 56.6875 63.484375 
L 62.40625 70.21875 
Q 62.984375 70.515625 63.09375 70.515625 
L 63.71875 70.515625 
Q 64.109375 70.515625 64.34375 70.171875 
Q 64.59375 69.828125 64.59375 69.484375 
L 58.796875 46.296875 
Q 58.640625 45.609375 58.015625 45.609375 
L 56.78125 45.609375 
Q 55.90625 45.609375 55.90625 46.6875 
Q 56.390625 49.859375 56.390625 52.203125 
Q 56.390625 56.84375 54.796875 60.28125 
Q 53.21875 63.71875 50.015625 65.5 
Q 46.828125 67.28125 42.09375 67.28125 
Q 38.09375 67.28125 34.125 64.984375 
Q 30.171875 62.703125 27.734375 58.890625 
Q 25.296875 55.078125 25.296875 50.984375 
Q 25.296875 47.75 27.171875 45.265625 
Q 29.046875 42.78125 32.171875 41.890625 
L 44.390625 38.71875 
Q 47.703125 37.84375 50.171875 35.625 
Q 52.640625 33.40625 53.90625 30.34375 
Q 55.171875 27.296875 55.171875 23.6875 
Q 55.171875 18.953125 53.171875 14.328125 
Q 51.171875 9.71875 47.578125 5.90625 
Q 44 2.09375 39.453125 -0.046875 
Q 34.90625 -2.203125 30.171875 -2.203125 
Q 18.265625 -2.203125 13.09375 4.78125 
L 7.515625 -1.90625 
Q 6.9375 -2.203125 6.78125 -2.203125 
z
" id="Cmmi10-53"/>
     </defs>
     <g transform="translate(33.77375 418.453125)rotate(-90.0)scale(0.2 -0.2)">
      <use transform="translate(0.0 0.109375)" xlink:href="#Cmmi10-53"/>
      <use transform="translate(149.072265625 0.109375)" xlink:href="#Cmr10-28"/>
      <use transform="translate(187.890625 0.109375)" xlink:href="#Cmmi10-b9"/>
      <use transform="translate(248.095703125 0.109375)" xlink:href="#Cmmi10-67"/>
      <use transform="translate(295.80078125 0.109375)" xlink:href="#Cmmi10-43"/>
      <use transform="translate(367.1875 0.109375)" xlink:href="#Cmmi10-63"/>
      <use transform="translate(410.400390625 0.109375)" xlink:href="#Cmmi10-6d"/>
      <use transform="translate(504.496640625 38.3734375)scale(0.7)" xlink:href="#Cmsy10-a1"/>
      <use transform="translate(558.8765234374999 38.3734375)scale(0.7)" xlink:href="#Cmr10-33"/>
      <use transform="translate(600.2538671875 0.109375)" xlink:href="#Cmr10-29"/>
     </g>
    </g>
   </g>
  </g>
 </g>
 <defs>
  <clipPath id="pf4c42b2a7b">
   <rect height="191.94625" width="412.72625" x="63.04375" y="258.48"/>
  </clipPath>
  <clipPath id="p3db7c3cdb5">
   <rect height="191.94625" width="412.72625" x="63.04375" y="12.96"/>
  </clipPath>
 </defs>
</svg>
