<?xml version="1.0" encoding="utf-8" standalone="no"?>
<!DOCTYPE svg PUBLIC "-//W3C//DTD SVG 1.1//EN"
  "http://www.w3.org/Graphics/SVG/1.1/DTD/svg11.dtd">
<!-- Created with matplotlib (http://matplotlib.org/) -->
<svg height="504pt" version="1.1" viewBox="0 0 504 504" width="504pt" xmlns="http://www.w3.org/2000/svg" xmlns:xlink="http://www.w3.org/1999/xlink">
 <defs>
  <style type="text/css">
*{stroke-linecap:butt;stroke-linejoin:round;stroke-miterlimit:100000;}
  </style>
 </defs>
 <g id="figure_1">
  <g id="patch_1">
   <path d="M 0 504 
L 504 504 
L 504 0 
L 0 0 
z
" style="fill:#ffffff;"/>
  </g>
  <g id="axes_1">
   <g id="patch_2">
    <path d="M 63.04375 448.42625 
L 491.04 448.42625 
L 491.04 12.96 
L 63.04375 12.96 
z
" style="fill:#ffffff;"/>
   </g>
   <g id="PathCollection_1">
    <defs>
     <path d="M 0 3.872983 
C 1.027127 3.872983 2.012324 3.464901 2.738613 2.738613 
C 3.464901 2.012324 3.872983 1.027127 3.872983 0 
C 3.872983 -1.027127 3.464901 -2.012324 2.738613 -2.738613 
C 2.012324 -3.464901 1.027127 -3.872983 0 -3.872983 
C -1.027127 -3.872983 -2.012324 -3.464901 -2.738613 -2.738613 
C -3.464901 -2.012324 -3.872983 -1.027127 -3.872983 0 
C -3.872983 1.027127 -3.464901 2.012324 -2.738613 2.738613 
C -2.012324 3.464901 -1.027127 3.872983 0 3.872983 
z
" id="mc0b5006bfe" style="stroke:#000000;"/>
    </defs>
    <g clip-path="url(#pa918f036fc)">
     <use style="fill:#0000ff;stroke:#000000;" x="122.638164557" xlink:href="#mc0b5006bfe" y="248.624088235"/>
    </g>
   </g>
   <g id="patch_3">
    <path clip-path="url(#pa918f036fc)" d="M 330.2217 280.702545 
Q 330.880128 275.151286 331.538556 269.600028 
Q 335.584506 273.457525 339.630456 277.315023 
z
" style="fill:#0000ff;stroke:#000000;stroke-linecap:round;"/>
   </g>
   <g id="line2d_1">
    <path clip-path="url(#pa918f036fc)" d="M 122.638165 248.624088 
L 143.551917 250.842113 
L 162.840163 252.63087 
L 180.632242 254.090871 
L 197.045932 255.291769 
L 226.160417 257.104416 
L 250.944721 258.339596 
L 272.043279 259.160786 
L 290.003285 259.674045 
L 305.290005 259.951886 
L 324.057375 260.036293 
L 338.784012 259.825009 
L 350.332152 259.398155 
L 359.379632 258.810992 
L 366.459445 258.102842 
L 371.990737 257.30234 
L 376.303152 256.430725 
L 379.65596 255.503969 
L 382.253088 254.534221 
L 384.254936 253.5308 
L 385.787672 252.500903 
L 386.950541 251.450127 
L 387.821607 250.382839 
L 388.46228 249.302463 
L 389.040079 247.846177 
L 389.380003 246.376227 
L 389.564946 244.524941 
L 389.544927 242.289472 
L 389.258677 239.294357 
L 388.658729 235.53871 
L 387.578484 230.275635 
L 385.869895 223.148163 
L 383.763908 215.32081 
L 381.348526 207.212159 
L 378.854062 199.593999 
L 376.181608 192.130265 
L 373.33764 184.85732 
L 370.476324 178.142614 
L 367.473214 171.668797 
L 364.496184 165.773055 
L 361.405932 160.155517 
L 358.381332 155.117425 
L 355.445028 150.636079 
L 352.438173 146.445236 
L 349.550169 142.784845 
L 346.612316 139.416926 
L 343.818642 136.539506 
L 340.99254 133.946057 
L 338.330697 131.792307 
L 335.65049 129.905504 
L 333.149603 128.399875 
L 330.641172 127.137837 
L 328.12928 126.12491 
L 325.618052 125.365944 
L 323.304177 124.894343 
L 320.997685 124.64532 
L 318.701856 124.620959 
L 316.419961 124.822735 
L 314.155251 125.251501 
L 311.910952 125.907466 
L 309.690248 126.790179 
L 307.496277 127.898527 
L 305.332117 129.230726 
L 303.024741 130.923682 
L 300.759611 132.87245 
L 298.540331 135.072114 
L 296.205597 137.714899 
L 293.932218 140.63357 
L 291.724134 143.818669 
L 289.43501 147.514978 
L 287.229379 151.490925 
L 284.973174 156.022887 
L 282.820812 160.835711 
L 280.652072 166.233542 
L 278.609088 171.898302 
L 276.586908 178.156848 
L 274.613432 185.017794 
L 272.808473 192.101428 
L 271.093076 199.754892 
L 269.568568 207.565432 
L 268.173959 215.886659 
L 266.990096 224.281859 
L 265.974285 233.104418 
L 265.185312 241.904737 
L 264.619276 250.635383 
L 264.260617 259.641476 
L 264.13385 268.479817 
L 264.231668 277.111336 
L 264.546075 285.502195 
L 265.068521 293.62363 
L 265.790021 301.451719 
L 266.70126 308.967059 
L 267.7927 316.154411 
L 269.054655 323.002317 
L 270.47737 329.502694 
L 272.051087 335.650425 
L 273.766088 341.442979 
L 275.612747 346.880024 
L 277.493548 351.749402 
L 279.477923 356.297541 
L 281.557826 360.528125 
L 283.725365 364.44567 
L 285.972809 368.055333 
L 288.292594 371.362741 
L 290.677327 374.373849 
L 293.119781 377.094817 
L 295.612896 379.531901 
L 298.149775 381.691361 
L 300.605972 383.499377 
L 303.090169 385.065363 
L 305.596753 386.394461 
L 308.120225 387.491638 
L 310.655196 388.361667 
L 313.196379 389.009111 
L 315.859583 389.453379 
L 318.518052 389.662852 
L 321.166031 389.64199 
L 323.797861 389.394985 
L 326.407974 388.925766 
L 328.990883 388.238024 
L 331.541183 387.335216 
L 334.166755 386.164948 
L 336.744851 384.766669 
L 339.269542 383.143685 
L 341.734978 381.299145 
L 344.238186 379.141468 
L 346.664113 376.749199 
L 349.006378 374.125646 
L 351.258691 371.274134 
L 353.502526 368.065069 
L 355.635165 364.616343 
L 357.649866 360.932202 
L 359.540034 357.017219 
L 361.366791 352.706132 
L 363.04487 348.156975 
L 364.567485 343.376666 
L 365.928117 338.372962 
L 367.120554 333.154576 
L 368.174541 327.518779 
L 369.034682 321.674413 
L 369.695345 315.635406 
L 370.151462 309.417402 
L 370.398595 303.037902 
L 370.433 296.516404 
L 370.251706 289.874515 
L 369.852583 283.136075 
L 369.207319 276.074049 
L 368.361807 269.222298 
L 367.297973 262.360699 
L 366.017875 255.522577 
L 364.524801 248.743562 
L 362.82332 242.061453 
L 360.993398 235.755554 
L 358.982205 229.613499 
L 356.884602 223.897871 
L 354.634496 218.404072 
L 352.339279 213.371593 
L 349.920711 208.607643 
L 347.496201 204.323098 
L 345.088086 200.507427 
L 342.716384 197.144442 
L 340.281521 194.073784 
L 337.911633 191.437864 
L 335.621247 189.208197 
L 333.299758 187.257911 
L 331.078075 185.677667 
L 328.840786 184.365849 
L 326.719011 183.379738 
L 324.594059 182.644337 
L 322.595936 182.184845 
L 320.604099 181.953556 
L 318.62296 181.952173 
L 316.656907 182.18154 
L 314.710287 182.641617 
L 312.787384 183.331466 
L 310.892409 184.249243 
L 309.029478 185.3922 
L 307.0897 186.849235 
L 305.195261 188.550896 
L 303.243761 190.611988 
L 301.353147 192.930928 
L 299.428828 195.64704 
L 297.488043 198.789207 
L 295.639814 202.204688 
L 293.804428 206.064588 
L 292.003009 210.384124 
L 290.258226 215.171813 
L 288.660163 220.204562 
L 287.153629 225.680496 
L 285.763104 231.586543 
L 284.513556 237.900475 
L 283.466269 244.34103 
L 282.593249 251.11233 
L 281.937827 257.917905 
L 281.485381 264.960398 
L 281.260217 271.938359 
L 281.256875 278.806334 
L 281.468725 285.523393 
L 281.906843 292.28256 
L 282.558146 298.805774 
L 283.379647 304.851971 
L 284.380479 310.627515 
L 285.550356 316.113685 
L 286.878643 321.295414 
L 288.354457 326.160947 
L 289.966742 330.701487 
L 291.640259 334.766266 
L 293.420274 338.51954 
L 295.296769 341.959454 
L 297.25977 345.08559 
L 299.222588 347.800111 
L 301.247692 350.22598 
L 303.326431 352.365488 
L 305.367846 354.155313 
L 307.443464 355.685963 
L 309.545903 356.960682 
L 311.667897 357.982948 
L 313.716766 358.730207 
L 315.770835 359.25152 
L 317.823976 359.550315 
L 319.870162 359.630078 
L 321.903467 359.494341 
L 324.001516 359.127635 
L 326.072805 358.53503 
L 328.110989 357.720633 
L 330.10985 356.688599 
L 332.140401 355.388949 
L 334.115126 353.863308 
L 336.099692 352.04512 
L 338.009843 349.994328 
L 339.904711 347.628297 
L 341.704563 345.025554 
L 343.460795 342.088213 
L 345.099578 338.913658 
L 346.663402 335.390028 
L 348.085846 331.633852 
L 349.39942 327.521135 
L 350.546739 323.18781 
L 351.520945 318.649904 
L 352.338467 313.76962 
L 352.959028 308.711103 
L 353.377632 303.497395 
L 353.593596 297.984812 
L 353.587433 292.363848 
L 353.357364 286.666935 
L 352.903056 280.929008 
L 352.225714 275.187453 
L 351.328173 269.481994 
L 350.214972 263.854505 
L 348.935496 258.513356 
L 347.466534 253.327925 
L 345.871268 248.492874 
L 344.116267 243.882436 
L 342.276201 239.671156 
L 340.375691 235.867428 
L 338.437734 232.473072 
L 336.483505 229.483814 
L 334.532217 226.889845 
L 332.601033 224.676494 
L 330.705045 222.824943 
L 328.77638 221.253204 
L 326.905405 220.019168 
L 325.102264 219.09531 
L 323.375167 218.452499 
L 321.648404 218.046787 
L 320.009687 217.882976 
L 318.381913 217.937316 
L 316.770215 218.209734 
L 315.17965 218.699095 
L 313.537725 219.443987 
L 311.930159 220.42182 
L 310.288788 221.690529 
L 308.697039 223.202064 
L 307.092165 225.032492 
L 305.48859 227.202901 
L 303.902268 229.730817 
L 302.350605 232.629323 
L 300.852324 235.906142 
L 299.427277 239.562812 
L 298.096195 243.593928 
L 296.880396 247.986537 
L 295.801429 252.719709 
L 294.88068 257.764355 
L 294.138941 263.083298 
L 293.59596 268.631626 
L 293.276039 274.194058 
L 293.17605 279.879634 
L 293.303018 285.471913 
L 293.649388 290.92293 
L 294.206026 296.189796 
L 294.962431 301.234786 
L 295.906943 306.025275 
L 296.992626 310.408884 
L 298.231639 314.504964 
L 299.611155 318.296169 
L 301.071919 321.671202 
L 302.640174 324.736237 
L 304.251671 327.4055 
L 305.940856 329.771905 
L 307.640386 331.772895 
L 309.334217 333.435103 
L 311.06675 334.827579 
L 312.769446 335.918117 
L 314.491042 336.759049 
L 316.163378 337.336197 
L 317.838145 337.685186 
L 319.508049 337.808939 
L 321.165921 337.710793 
L 322.80473 337.394459 
L 324.474632 336.841168 
L 326.109236 336.063131 
L 327.755326 335.027438 
L 329.348054 333.763292 
L 330.929794 332.224271 
L 332.485836 330.395988 
L 334.000036 328.265667 
L 335.45485 325.822559 
L 336.793853 323.140753 
L 338.042363 320.145977 
L 339.180252 316.835656 
L 340.186483 313.21127 
L 341.01931 309.385101 
L 341.687009 305.272275 
L 342.168364 300.889151 
L 342.438389 296.37627 
L 342.494051 291.770827 
L 342.327289 286.99268 
L 341.934806 282.204123 
L 341.319876 277.452685 
L 340.488156 272.787789 
L 339.476219 268.371353 
L 338.275638 264.133315 
L 336.935778 260.221192 
L 335.482376 256.660021 
L 333.940467 253.467475 
L 332.333995 250.654044 
L 330.735071 248.290325 
L 329.118651 246.287787 
L 327.502364 244.637142 
L 325.955722 243.363629 
L 324.439904 242.391663 
L 322.965658 241.700717 
L 321.541925 241.268209 
L 320.121443 241.066688 
L 318.711349 241.097077 
L 317.371848 241.344392 
L 316.002479 241.82625 
L 314.663939 242.533397 
L 313.313525 243.500421 
L 311.963085 244.745459 
L 310.625831 246.28379 
L 309.316259 248.127115 
L 308.010741 250.356361 
L 306.771971 252.915319 
L 305.586416 255.886956 
L 304.513215 259.183243 
L 303.549072 262.881885 
L 302.746082 266.861364 
L 302.123226 271.080463 
L 301.697816 275.490549 
L 301.484985 280.036419 
L 301.494316 284.550753 
L 301.727592 289.081003 
L 302.178081 293.463762 
L 302.834259 297.649504 
L 303.660794 301.506009 
L 304.656475 305.098087 
L 305.776806 308.321275 
L 306.996282 311.174091 
L 308.325618 313.721533 
L 309.712763 315.89853 
L 311.136737 317.719502 
L 312.578731 319.202139 
L 314.022092 320.366478 
L 315.452272 321.234137 
L 316.856747 321.827688 
L 318.22491 322.170168 
L 319.589153 322.28483 
L 320.94088 322.174875 
L 322.271685 321.844365 
L 323.612288 321.278327 
L 324.950895 320.463081 
L 326.274399 319.386511 
L 327.568414 318.038422 
L 328.817339 316.410946 
L 330.004456 314.498991 
L 331.138251 312.242878 
L 332.167536 309.691615 
L 333.072362 306.853148 
L 333.832614 303.74094 
L 334.428407 300.374715 
L 334.84057 296.781212 
L 335.051202 292.994922 
L 335.04431 289.058746 
L 334.813682 285.106614 
L 334.363165 281.195071 
L 333.699914 277.382035 
L 332.854412 273.800106 
L 331.851465 270.492371 
L 330.716625 267.494053 
L 329.47557 264.83224 
L 328.185384 262.575908 
L 326.842207 260.670691 
L 325.502657 259.153704 
L 324.189531 257.997093 
L 322.921395 257.167377 
L 321.676091 256.614765 
L 320.46466 256.321396 
L 319.296346 256.267103 
L 318.142923 256.438848 
L 317.012704 256.833936 
L 315.879989 257.470247 
L 314.756661 258.36109 
L 313.625234 259.55293 
L 312.534484 261.028502 
L 311.47432 262.837593 
L 310.469559 264.992417 
L 309.547243 267.495395 
L 308.736045 270.337381 
L 308.065472 273.496175 
L 307.564876 276.935503 
L 307.266083 280.532227 
L 307.181309 284.222232 
L 307.318875 287.936709 
L 307.673874 291.536216 
L 308.233961 294.959913 
L 308.96758 298.094975 
L 309.847446 300.91167 
L 310.846585 303.391322 
L 311.938936 305.524763 
L 313.099817 307.310806 
L 314.27941 308.726698 
L 315.453925 309.802611 
L 316.632101 310.58756 
L 317.799086 311.098535 
L 318.941972 311.354393 
L 320.049753 311.375255 
L 321.140935 311.174094 
L 322.232613 310.742535 
L 323.312156 310.070863 
L 324.36581 309.151743 
L 325.401502 307.950758 
L 326.39761 306.451307 
L 327.329983 304.642284 
L 328.172258 302.519567 
L 328.896359 300.087665 
L 329.473195 297.361479 
L 329.868254 294.422755 
L 330.066503 291.261093 
L 330.045201 287.986371 
L 329.801079 284.721374 
L 329.341055 281.535619 
L 328.689885 278.549231 
L 327.872902 275.817253 
L 326.917366 273.385287 
L 325.872329 271.324785 
L 324.793617 269.672143 
L 323.691347 268.378797 
L 322.614809 267.445588 
L 321.561546 266.818217 
L 320.547626 266.467247 
L 319.560897 266.360137 
L 318.611679 266.479006 
L 317.661717 266.826524 
L 316.723432 267.413113 
L 315.789218 268.267953 
L 314.87817 269.409055 
L 313.994354 270.880594 
L 313.168271 272.699001 
L 312.433839 274.866695 
L 311.827303 277.368872 
L 311.391356 280.123147 
L 311.151079 283.070235 
L 311.126049 286.088576 
L 311.321096 289.097859 
L 311.726894 291.972039 
L 312.326913 294.641716 
L 313.073355 296.974927 
L 313.944771 298.983275 
L 314.894469 300.621254 
L 315.871798 301.876666 
L 316.865173 302.798143 
L 317.832012 303.400686 
L 318.772626 303.732644 
L 319.692197 303.824226 
L 320.597743 303.688037 
L 321.477152 303.329845 
L 322.353646 302.728914 
L 323.209051 301.869558 
L 324.037417 300.717724 
L 324.810538 299.256963 
L 325.496788 297.481158 
L 326.061995 295.397478 
L 326.470774 293.02947 
L 326.686758 290.4585 
L 326.689461 287.789125 
L 326.47224 285.100422 
L 326.043172 282.514648 
L 325.428875 280.146019 
L 324.67116 278.087142 
L 323.821791 276.398543 
L 322.921026 275.084121 
L 322.020057 274.144484 
L 321.13263 273.529072 
L 320.280667 273.202637 
L 319.463835 273.125475 
L 318.67826 273.273372 
L 317.90383 273.64712 
L 317.140327 274.264946 
L 316.379977 275.175533 
L 315.652893 276.407079 
L 314.9943 277.973371 
L 314.443332 279.868845 
L 314.041053 282.064123 
L 313.829094 284.469801 
L 313.832848 286.969102 
L 314.058152 289.432493 
L 314.490736 291.734316 
L 315.089489 293.743263 
L 315.814779 295.417039 
L 316.60364 296.701629 
L 317.427439 297.632806 
L 318.241061 298.227531 
L 319.018537 298.531948 
L 319.768173 298.594102 
L 320.501926 298.432147 
L 321.217898 298.044848 
L 321.922596 297.407585 
L 322.602347 296.488406 
L 323.233954 295.251146 
L 323.77586 293.684951 
L 324.178116 291.826911 
L 324.399594 289.749226 
L 324.412443 287.527095 
L 324.204476 285.309365 
L 323.788116 283.224329 
L 323.202913 281.408361 
L 322.509206 279.955184 
L 321.766308 278.889082 
L 321.018098 278.184345 
L 320.298165 277.79736 
L 319.618854 277.674355 
L 318.962977 277.77937 
L 318.323878 278.10963 
L 317.689759 278.696535 
L 317.079385 279.576223 
L 316.522025 280.783128 
L 316.064022 282.319666 
L 315.757888 284.133278 
L 315.645441 286.12958 
L 315.751101 288.18251 
L 316.068497 290.111563 
L 316.566334 291.797887 
L 317.183102 293.128441 
L 317.859222 294.080265 
L 318.539836 294.672247 
L 319.189176 294.957696 
L 319.810538 294.99443 
L 320.404339 294.808497 
L 320.987292 294.389686 
L 321.557181 293.695593 
L 322.076904 292.701318 
L 322.506905 291.387496 
L 322.792147 289.792724 
L 322.886074 288.000989 
L 322.761217 286.154187 
L 322.425748 284.429651 
L 321.925362 282.981709 
L 321.324299 281.895632 
L 321.051019 281.546153 
L 321.051019 281.546153 
" style="fill:none;stroke:#0000ff;stroke-linecap:square;"/>
   </g>
   <g id="patch_4">
    <path d="M 63.04375 12.96 
L 491.04 12.96 
" style="fill:none;stroke:#000000;stroke-linecap:square;stroke-linejoin:miter;"/>
   </g>
   <g id="patch_5">
    <path d="M 63.04375 448.42625 
L 63.04375 12.96 
" style="fill:none;stroke:#000000;stroke-linecap:square;stroke-linejoin:miter;"/>
   </g>
   <g id="patch_6">
    <path d="M 491.04 448.42625 
L 491.04 12.96 
" style="fill:none;stroke:#000000;stroke-linecap:square;stroke-linejoin:miter;"/>
   </g>
   <g id="patch_7">
    <path d="M 63.04375 448.42625 
L 491.04 448.42625 
" style="fill:none;stroke:#000000;stroke-linecap:square;stroke-linejoin:miter;"/>
   </g>
   <g id="matplotlib.axis_1">
    <g id="xtick_1">
     <g id="line2d_2">
      <defs>
       <path d="M 0 0 
L 0 -4 
" id="mefca3ef5b1" style="stroke:#000000;stroke-width:0.5;"/>
      </defs>
      <g>
       <use style="stroke:#000000;stroke-width:0.5;" x="68.4614240506" xlink:href="#mefca3ef5b1" y="448.42625"/>
      </g>
     </g>
     <g id="line2d_3">
      <defs>
       <path d="M 0 0 
L 0 4 
" id="mb6786ef4c0" style="stroke:#000000;stroke-width:0.5;"/>
      </defs>
      <g>
       <use style="stroke:#000000;stroke-width:0.5;" x="68.4614240506" xlink:href="#mb6786ef4c0" y="12.96"/>
      </g>
     </g>
     <g id="text_1">
      <!-- 2 -->
      <defs>
       <path d="M 19.1875 8.296875 
L 53.609375 8.296875 
L 53.609375 0 
L 7.328125 0 
L 7.328125 8.296875 
Q 12.9375 14.109375 22.625 23.890625 
Q 32.328125 33.6875 34.8125 36.53125 
Q 39.546875 41.84375 41.421875 45.53125 
Q 43.3125 49.21875 43.3125 52.78125 
Q 43.3125 58.59375 39.234375 62.25 
Q 35.15625 65.921875 28.609375 65.921875 
Q 23.96875 65.921875 18.8125 64.3125 
Q 13.671875 62.703125 7.8125 59.421875 
L 7.8125 69.390625 
Q 13.765625 71.78125 18.9375 73 
Q 24.125 74.21875 28.421875 74.21875 
Q 39.75 74.21875 46.484375 68.546875 
Q 53.21875 62.890625 53.21875 53.421875 
Q 53.21875 48.921875 51.53125 44.890625 
Q 49.859375 40.875 45.40625 35.40625 
Q 44.1875 33.984375 37.640625 27.21875 
Q 31.109375 20.453125 19.1875 8.296875 
" id="BitstreamVeraSans-Roman-32"/>
      </defs>
      <g transform="translate(64.6439240506 461.544375)scale(0.12 -0.12)">
       <use xlink:href="#BitstreamVeraSans-Roman-32"/>
      </g>
     </g>
    </g>
    <g id="xtick_2">
     <g id="line2d_4">
      <g>
       <use style="stroke:#000000;stroke-width:0.5;" x="122.638164557" xlink:href="#mefca3ef5b1" y="448.42625"/>
      </g>
     </g>
     <g id="line2d_5">
      <g>
       <use style="stroke:#000000;stroke-width:0.5;" x="122.638164557" xlink:href="#mb6786ef4c0" y="12.96"/>
      </g>
     </g>
     <g id="text_2">
      <!-- 4 -->
      <defs>
       <path d="M 37.796875 64.3125 
L 12.890625 25.390625 
L 37.796875 25.390625 
z
M 35.203125 72.90625 
L 47.609375 72.90625 
L 47.609375 25.390625 
L 58.015625 25.390625 
L 58.015625 17.1875 
L 47.609375 17.1875 
L 47.609375 0 
L 37.796875 0 
L 37.796875 17.1875 
L 4.890625 17.1875 
L 4.890625 26.703125 
z
" id="BitstreamVeraSans-Roman-34"/>
      </defs>
      <g transform="translate(118.820664557 461.544375)scale(0.12 -0.12)">
       <use xlink:href="#BitstreamVeraSans-Roman-34"/>
      </g>
     </g>
    </g>
    <g id="xtick_3">
     <g id="line2d_6">
      <g>
       <use style="stroke:#000000;stroke-width:0.5;" x="176.814905063" xlink:href="#mefca3ef5b1" y="448.42625"/>
      </g>
     </g>
     <g id="line2d_7">
      <g>
       <use style="stroke:#000000;stroke-width:0.5;" x="176.814905063" xlink:href="#mb6786ef4c0" y="12.96"/>
      </g>
     </g>
     <g id="text_3">
      <!-- 6 -->
      <defs>
       <path d="M 33.015625 40.375 
Q 26.375 40.375 22.484375 35.828125 
Q 18.609375 31.296875 18.609375 23.390625 
Q 18.609375 15.53125 22.484375 10.953125 
Q 26.375 6.390625 33.015625 6.390625 
Q 39.65625 6.390625 43.53125 10.953125 
Q 47.40625 15.53125 47.40625 23.390625 
Q 47.40625 31.296875 43.53125 35.828125 
Q 39.65625 40.375 33.015625 40.375 
M 52.59375 71.296875 
L 52.59375 62.3125 
Q 48.875 64.0625 45.09375 64.984375 
Q 41.3125 65.921875 37.59375 65.921875 
Q 27.828125 65.921875 22.671875 59.328125 
Q 17.53125 52.734375 16.796875 39.40625 
Q 19.671875 43.65625 24.015625 45.921875 
Q 28.375 48.1875 33.59375 48.1875 
Q 44.578125 48.1875 50.953125 41.515625 
Q 57.328125 34.859375 57.328125 23.390625 
Q 57.328125 12.15625 50.6875 5.359375 
Q 44.046875 -1.421875 33.015625 -1.421875 
Q 20.359375 -1.421875 13.671875 8.265625 
Q 6.984375 17.96875 6.984375 36.375 
Q 6.984375 53.65625 15.1875 63.9375 
Q 23.390625 74.21875 37.203125 74.21875 
Q 40.921875 74.21875 44.703125 73.484375 
Q 48.484375 72.75 52.59375 71.296875 
" id="BitstreamVeraSans-Roman-36"/>
      </defs>
      <g transform="translate(172.997405063 461.544375)scale(0.12 -0.12)">
       <use xlink:href="#BitstreamVeraSans-Roman-36"/>
      </g>
     </g>
    </g>
    <g id="xtick_4">
     <g id="line2d_8">
      <g>
       <use style="stroke:#000000;stroke-width:0.5;" x="230.99164557" xlink:href="#mefca3ef5b1" y="448.42625"/>
      </g>
     </g>
     <g id="line2d_9">
      <g>
       <use style="stroke:#000000;stroke-width:0.5;" x="230.99164557" xlink:href="#mb6786ef4c0" y="12.96"/>
      </g>
     </g>
     <g id="text_4">
      <!-- 8 -->
      <defs>
       <path d="M 31.78125 34.625 
Q 24.75 34.625 20.71875 30.859375 
Q 16.703125 27.09375 16.703125 20.515625 
Q 16.703125 13.921875 20.71875 10.15625 
Q 24.75 6.390625 31.78125 6.390625 
Q 38.8125 6.390625 42.859375 10.171875 
Q 46.921875 13.96875 46.921875 20.515625 
Q 46.921875 27.09375 42.890625 30.859375 
Q 38.875 34.625 31.78125 34.625 
M 21.921875 38.8125 
Q 15.578125 40.375 12.03125 44.71875 
Q 8.5 49.078125 8.5 55.328125 
Q 8.5 64.0625 14.71875 69.140625 
Q 20.953125 74.21875 31.78125 74.21875 
Q 42.671875 74.21875 48.875 69.140625 
Q 55.078125 64.0625 55.078125 55.328125 
Q 55.078125 49.078125 51.53125 44.71875 
Q 48 40.375 41.703125 38.8125 
Q 48.828125 37.15625 52.796875 32.3125 
Q 56.78125 27.484375 56.78125 20.515625 
Q 56.78125 9.90625 50.3125 4.234375 
Q 43.84375 -1.421875 31.78125 -1.421875 
Q 19.734375 -1.421875 13.25 4.234375 
Q 6.78125 9.90625 6.78125 20.515625 
Q 6.78125 27.484375 10.78125 32.3125 
Q 14.796875 37.15625 21.921875 38.8125 
M 18.3125 54.390625 
Q 18.3125 48.734375 21.84375 45.5625 
Q 25.390625 42.390625 31.78125 42.390625 
Q 38.140625 42.390625 41.71875 45.5625 
Q 45.3125 48.734375 45.3125 54.390625 
Q 45.3125 60.0625 41.71875 63.234375 
Q 38.140625 66.40625 31.78125 66.40625 
Q 25.390625 66.40625 21.84375 63.234375 
Q 18.3125 60.0625 18.3125 54.390625 
" id="BitstreamVeraSans-Roman-38"/>
      </defs>
      <g transform="translate(227.17414557 461.544375)scale(0.12 -0.12)">
       <use xlink:href="#BitstreamVeraSans-Roman-38"/>
      </g>
     </g>
    </g>
    <g id="xtick_5">
     <g id="line2d_10">
      <g>
       <use style="stroke:#000000;stroke-width:0.5;" x="285.168386076" xlink:href="#mefca3ef5b1" y="448.42625"/>
      </g>
     </g>
     <g id="line2d_11">
      <g>
       <use style="stroke:#000000;stroke-width:0.5;" x="285.168386076" xlink:href="#mb6786ef4c0" y="12.96"/>
      </g>
     </g>
     <g id="text_5">
      <!-- 10 -->
      <defs>
       <path d="M 12.40625 8.296875 
L 28.515625 8.296875 
L 28.515625 63.921875 
L 10.984375 60.40625 
L 10.984375 69.390625 
L 28.421875 72.90625 
L 38.28125 72.90625 
L 38.28125 8.296875 
L 54.390625 8.296875 
L 54.390625 0 
L 12.40625 0 
z
" id="BitstreamVeraSans-Roman-31"/>
       <path d="M 31.78125 66.40625 
Q 24.171875 66.40625 20.328125 58.90625 
Q 16.5 51.421875 16.5 36.375 
Q 16.5 21.390625 20.328125 13.890625 
Q 24.171875 6.390625 31.78125 6.390625 
Q 39.453125 6.390625 43.28125 13.890625 
Q 47.125 21.390625 47.125 36.375 
Q 47.125 51.421875 43.28125 58.90625 
Q 39.453125 66.40625 31.78125 66.40625 
M 31.78125 74.21875 
Q 44.046875 74.21875 50.515625 64.515625 
Q 56.984375 54.828125 56.984375 36.375 
Q 56.984375 17.96875 50.515625 8.265625 
Q 44.046875 -1.421875 31.78125 -1.421875 
Q 19.53125 -1.421875 13.0625 8.265625 
Q 6.59375 17.96875 6.59375 36.375 
Q 6.59375 54.828125 13.0625 64.515625 
Q 19.53125 74.21875 31.78125 74.21875 
" id="BitstreamVeraSans-Roman-30"/>
      </defs>
      <g transform="translate(277.533386076 461.544375)scale(0.12 -0.12)">
       <use xlink:href="#BitstreamVeraSans-Roman-31"/>
       <use x="63.623046875" xlink:href="#BitstreamVeraSans-Roman-30"/>
      </g>
     </g>
    </g>
    <g id="xtick_6">
     <g id="line2d_12">
      <g>
       <use style="stroke:#000000;stroke-width:0.5;" x="339.345126582" xlink:href="#mefca3ef5b1" y="448.42625"/>
      </g>
     </g>
     <g id="line2d_13">
      <g>
       <use style="stroke:#000000;stroke-width:0.5;" x="339.345126582" xlink:href="#mb6786ef4c0" y="12.96"/>
      </g>
     </g>
     <g id="text_6">
      <!-- 12 -->
      <g transform="translate(331.710126582 461.544375)scale(0.12 -0.12)">
       <use xlink:href="#BitstreamVeraSans-Roman-31"/>
       <use x="63.623046875" xlink:href="#BitstreamVeraSans-Roman-32"/>
      </g>
     </g>
    </g>
    <g id="xtick_7">
     <g id="line2d_14">
      <g>
       <use style="stroke:#000000;stroke-width:0.5;" x="393.521867089" xlink:href="#mefca3ef5b1" y="448.42625"/>
      </g>
     </g>
     <g id="line2d_15">
      <g>
       <use style="stroke:#000000;stroke-width:0.5;" x="393.521867089" xlink:href="#mb6786ef4c0" y="12.96"/>
      </g>
     </g>
     <g id="text_7">
      <!-- 14 -->
      <g transform="translate(385.886867089 461.544375)scale(0.12 -0.12)">
       <use xlink:href="#BitstreamVeraSans-Roman-31"/>
       <use x="63.623046875" xlink:href="#BitstreamVeraSans-Roman-34"/>
      </g>
     </g>
    </g>
    <g id="xtick_8">
     <g id="line2d_16">
      <g>
       <use style="stroke:#000000;stroke-width:0.5;" x="447.698607595" xlink:href="#mefca3ef5b1" y="448.42625"/>
      </g>
     </g>
     <g id="line2d_17">
      <g>
       <use style="stroke:#000000;stroke-width:0.5;" x="447.698607595" xlink:href="#mb6786ef4c0" y="12.96"/>
      </g>
     </g>
     <g id="text_8">
      <!-- 16 -->
      <g transform="translate(440.063607595 461.544375)scale(0.12 -0.12)">
       <use xlink:href="#BitstreamVeraSans-Roman-31"/>
       <use x="63.623046875" xlink:href="#BitstreamVeraSans-Roman-36"/>
      </g>
     </g>
    </g>
    <g id="text_9">
     <!-- $S\quad(\mu gC cm^{-3})$ -->
     <defs>
      <path d="M 6.109375 -2.203125 
Q 5.8125 -2.203125 5.5625 -1.859375 
Q 5.328125 -1.515625 5.328125 -1.21875 
L 11.078125 22.125 
Q 11.28125 22.703125 11.921875 22.703125 
L 13.09375 22.703125 
Q 13.484375 22.703125 13.703125 22.40625 
Q 13.921875 22.125 13.921875 21.6875 
Q 13.09375 18.265625 13.09375 15.578125 
Q 13.09375 8.34375 18.0625 4.828125 
Q 23.046875 1.3125 30.609375 1.3125 
Q 33.890625 1.3125 37.0625 2.921875 
Q 40.234375 4.546875 42.59375 7.125 
Q 44.96875 9.71875 46.375 12.90625 
Q 47.796875 16.109375 47.796875 19.390625 
Q 47.796875 22.90625 45.9375 25.65625 
Q 44.09375 28.421875 40.828125 29.203125 
L 28.609375 32.421875 
Q 23.6875 33.734375 20.75 37.71875 
Q 17.828125 41.703125 17.828125 46.6875 
Q 17.828125 52.6875 21.390625 58.25 
Q 24.953125 63.8125 30.6875 67.15625 
Q 36.421875 70.515625 42.390625 70.515625 
Q 46.96875 70.515625 50.796875 68.828125 
Q 54.640625 67.140625 56.6875 63.484375 
L 62.40625 70.21875 
Q 62.984375 70.515625 63.09375 70.515625 
L 63.71875 70.515625 
Q 64.109375 70.515625 64.34375 70.171875 
Q 64.59375 69.828125 64.59375 69.484375 
L 58.796875 46.296875 
Q 58.640625 45.609375 58.015625 45.609375 
L 56.78125 45.609375 
Q 55.90625 45.609375 55.90625 46.6875 
Q 56.390625 49.859375 56.390625 52.203125 
Q 56.390625 56.84375 54.796875 60.28125 
Q 53.21875 63.71875 50.015625 65.5 
Q 46.828125 67.28125 42.09375 67.28125 
Q 38.09375 67.28125 34.125 64.984375 
Q 30.171875 62.703125 27.734375 58.890625 
Q 25.296875 55.078125 25.296875 50.984375 
Q 25.296875 47.75 27.171875 45.265625 
Q 29.046875 42.78125 32.171875 41.890625 
L 44.390625 38.71875 
Q 47.703125 37.84375 50.171875 35.625 
Q 52.640625 33.40625 53.90625 30.34375 
Q 55.171875 27.296875 55.171875 23.6875 
Q 55.171875 18.953125 53.171875 14.328125 
Q 51.171875 9.71875 47.578125 5.90625 
Q 44 2.09375 39.453125 -0.046875 
Q 34.90625 -2.203125 30.171875 -2.203125 
Q 18.265625 -2.203125 13.09375 4.78125 
L 7.515625 -1.90625 
Q 6.9375 -2.203125 6.78125 -2.203125 
z
" id="Cmmi10-53"/>
      <path d="M 7.71875 1.703125 
Q 7.71875 2.296875 7.8125 2.59375 
L 15.28125 32.421875 
Q 16.015625 35.203125 16.015625 37.3125 
Q 16.015625 41.609375 13.09375 41.609375 
Q 9.96875 41.609375 8.453125 37.859375 
Q 6.9375 34.125 5.515625 28.421875 
Q 5.515625 28.125 5.21875 27.953125 
Q 4.9375 27.78125 4.6875 27.78125 
L 3.515625 27.78125 
Q 3.171875 27.78125 2.921875 28.140625 
Q 2.6875 28.515625 2.6875 28.8125 
Q 3.765625 33.15625 4.765625 36.171875 
Q 5.765625 39.203125 7.890625 41.6875 
Q 10.015625 44.1875 13.1875 44.1875 
Q 16.9375 44.1875 19.8125 41.8125 
Q 22.703125 39.453125 22.703125 35.796875 
Q 25.6875 39.703125 29.6875 41.9375 
Q 33.6875 44.1875 38.1875 44.1875 
Q 42.921875 44.1875 46.359375 41.765625 
Q 49.8125 39.359375 49.8125 34.90625 
Q 52.875 39.265625 57 41.71875 
Q 61.140625 44.1875 66.015625 44.1875 
Q 71.1875 44.1875 74.328125 41.375 
Q 77.484375 38.578125 77.484375 33.40625 
Q 77.484375 29.296875 75.65625 23.484375 
Q 73.828125 17.671875 71.09375 10.5 
Q 69.671875 7.03125 69.671875 4.5 
Q 69.671875 1.515625 72.015625 1.515625 
Q 75.921875 1.515625 78.515625 5.703125 
Q 81.109375 9.90625 82.171875 14.703125 
Q 82.46875 15.28125 83.015625 15.28125 
L 84.1875 15.28125 
Q 84.578125 15.28125 84.84375 15.015625 
Q 85.109375 14.75 85.109375 14.40625 
Q 85.109375 14.3125 85.015625 14.109375 
Q 83.640625 8.453125 80.25 3.65625 
Q 76.859375 -1.125 71.78125 -1.125 
Q 68.265625 -1.125 65.765625 1.296875 
Q 63.28125 3.71875 63.28125 7.171875 
Q 63.28125 8.9375 64.109375 11.078125 
Q 66.9375 18.609375 68.8125 24.515625 
Q 70.703125 30.421875 70.703125 34.90625 
Q 70.703125 37.703125 69.578125 39.65625 
Q 68.453125 41.609375 65.828125 41.609375 
Q 60.359375 41.609375 56.34375 38.25 
Q 52.34375 34.90625 49.421875 29.390625 
Q 49.21875 28.421875 49.125 27.875 
L 42.671875 2.203125 
Q 42.328125 0.828125 41.125 -0.140625 
Q 39.9375 -1.125 38.484375 -1.125 
Q 37.3125 -1.125 36.40625 -0.34375 
Q 35.5 0.4375 35.5 1.703125 
Q 35.5 2.296875 35.59375 2.59375 
L 42 28.078125 
Q 43.015625 32.171875 43.015625 34.90625 
Q 43.015625 37.703125 41.859375 39.65625 
Q 40.71875 41.609375 37.984375 41.609375 
Q 34.328125 41.609375 31.25 39.984375 
Q 28.171875 38.375 25.875 35.71875 
Q 23.578125 33.0625 21.6875 29.390625 
L 14.890625 2.203125 
Q 14.546875 0.828125 13.34375 -0.140625 
Q 12.15625 -1.125 10.6875 -1.125 
Q 9.46875 -1.125 8.59375 -0.34375 
Q 7.71875 0.4375 7.71875 1.703125 
" id="Cmmi10-6d"/>
      <path d="M 6.5 -25 
Q 5.609375 -25 5.609375 -24.125 
Q 5.609375 -23.6875 5.8125 -23.484375 
Q 22.90625 -6.78125 22.90625 25 
Q 22.90625 56.78125 6 73.296875 
Q 5.609375 73.53125 5.609375 74.125 
Q 5.609375 74.46875 5.875 74.734375 
Q 6.15625 75 6.5 75 
L 7.421875 75 
Q 7.71875 75 7.90625 74.8125 
Q 15.09375 69.140625 19.875 61.03125 
Q 24.65625 52.9375 26.875 43.75 
Q 29.109375 34.578125 29.109375 25 
Q 29.109375 17.921875 27.90625 11.0625 
Q 26.703125 4.203125 24.09375 -2.453125 
Q 21.484375 -9.125 17.484375 -14.765625 
Q 13.484375 -20.40625 7.90625 -24.8125 
Q 7.71875 -25 7.421875 -25 
z
" id="Cmr10-29"/>
      <path d="M 11.71875 11.921875 
Q 11.71875 7.5625 13.9375 4.53125 
Q 16.15625 1.515625 20.3125 1.515625 
Q 26.265625 1.515625 31.75 4.25 
Q 37.25 6.984375 40.71875 11.8125 
Q 41.015625 12.109375 41.5 12.109375 
Q 42 12.109375 42.5 11.546875 
Q 43.015625 10.984375 43.015625 10.5 
Q 43.015625 10.109375 42.828125 9.90625 
Q 39.15625 4.78125 32.953125 1.828125 
Q 26.765625 -1.125 20.125 -1.125 
Q 15.328125 -1.125 11.671875 1.140625 
Q 8.015625 3.421875 6 7.21875 
Q 4 11.03125 4 15.828125 
Q 4 22.5625 7.765625 29.203125 
Q 11.53125 35.84375 17.78125 40.015625 
Q 24.03125 44.1875 30.90625 44.1875 
Q 35.40625 44.1875 38.984375 42.015625 
Q 42.578125 39.84375 42.578125 35.59375 
Q 42.578125 32.859375 40.984375 30.921875 
Q 39.40625 29 36.71875 29 
Q 35.109375 29 34 30 
Q 32.90625 31 32.90625 32.625 
Q 32.90625 34.96875 34.609375 36.625 
Q 36.328125 38.28125 38.625 38.28125 
L 38.8125 38.28125 
Q 37.640625 39.984375 35.421875 40.796875 
Q 33.203125 41.609375 30.8125 41.609375 
Q 24.953125 41.609375 20.546875 36.59375 
Q 16.15625 31.59375 13.9375 24.625 
Q 11.71875 17.671875 11.71875 11.921875 
" id="Cmmi10-63"/>
      <path d="M 31 -24.8125 
Q 25.4375 -20.40625 21.40625 -14.71875 
Q 17.390625 -9.03125 14.8125 -2.578125 
Q 12.25 3.859375 10.984375 10.890625 
Q 9.71875 17.921875 9.71875 25 
Q 9.71875 32.171875 10.984375 39.203125 
Q 12.25 46.234375 14.859375 52.734375 
Q 17.484375 59.234375 21.53125 64.890625 
Q 25.59375 70.5625 31 74.8125 
Q 31 75 31.5 75 
L 32.421875 75 
Q 32.71875 75 32.953125 74.734375 
Q 33.203125 74.46875 33.203125 74.125 
Q 33.203125 73.6875 33.015625 73.484375 
Q 28.125 68.703125 24.875 63.234375 
Q 21.625 57.765625 19.640625 51.578125 
Q 17.671875 45.40625 16.796875 38.78125 
Q 15.921875 32.171875 15.921875 25 
Q 15.921875 -6.78125 32.90625 -23.296875 
Q 33.203125 -23.578125 33.203125 -24.125 
Q 33.203125 -24.359375 32.9375 -24.671875 
Q 32.671875 -25 32.421875 -25 
L 31.5 -25 
Q 31 -25 31 -24.8125 
" id="Cmr10-28"/>
      <path d="M 9.515625 7.71875 
Q 11.859375 4.296875 15.8125 2.640625 
Q 19.78125 0.984375 24.3125 0.984375 
Q 30.125 0.984375 32.5625 5.9375 
Q 35.015625 10.890625 35.015625 17.1875 
Q 35.015625 20.015625 34.5 22.84375 
Q 33.984375 25.6875 32.765625 28.125 
Q 31.546875 30.5625 29.421875 32.03125 
Q 27.296875 33.5 24.21875 33.5 
L 17.578125 33.5 
Q 16.703125 33.5 16.703125 34.421875 
L 16.703125 35.296875 
Q 16.703125 36.078125 17.578125 36.078125 
L 23.09375 36.53125 
Q 26.609375 36.53125 28.921875 39.15625 
Q 31.25 41.796875 32.328125 45.578125 
Q 33.40625 49.359375 33.40625 52.78125 
Q 33.40625 57.5625 31.15625 60.640625 
Q 28.90625 63.71875 24.3125 63.71875 
Q 20.515625 63.71875 17.046875 62.28125 
Q 13.578125 60.84375 11.53125 57.90625 
Q 11.71875 57.953125 11.859375 57.984375 
Q 12.015625 58.015625 12.203125 58.015625 
Q 14.453125 58.015625 15.96875 56.453125 
Q 17.484375 54.890625 17.484375 52.6875 
Q 17.484375 50.53125 15.96875 48.96875 
Q 14.453125 47.40625 12.203125 47.40625 
Q 10.015625 47.40625 8.453125 48.96875 
Q 6.890625 50.53125 6.890625 52.6875 
Q 6.890625 56.984375 9.46875 60.15625 
Q 12.0625 63.328125 16.140625 64.96875 
Q 20.21875 66.609375 24.3125 66.609375 
Q 27.34375 66.609375 30.703125 65.703125 
Q 34.078125 64.796875 36.8125 63.109375 
Q 39.546875 61.421875 41.28125 58.78125 
Q 43.015625 56.15625 43.015625 52.78125 
Q 43.015625 48.578125 41.140625 45.015625 
Q 39.265625 41.453125 35.984375 38.859375 
Q 32.71875 36.28125 28.8125 35.015625 
Q 33.15625 34.1875 37.0625 31.734375 
Q 40.96875 29.296875 43.328125 25.484375 
Q 45.703125 21.6875 45.703125 17.28125 
Q 45.703125 11.765625 42.671875 7.296875 
Q 39.65625 2.828125 34.71875 0.3125 
Q 29.78125 -2.203125 24.3125 -2.203125 
Q 19.625 -2.203125 14.90625 -0.40625 
Q 10.203125 1.375 7.203125 4.9375 
Q 4.203125 8.5 4.203125 13.484375 
Q 4.203125 15.96875 5.859375 17.625 
Q 7.515625 19.28125 10.015625 19.28125 
Q 11.625 19.28125 12.96875 18.53125 
Q 14.3125 17.78125 15.0625 16.40625 
Q 15.828125 15.046875 15.828125 13.484375 
Q 15.828125 11.03125 14.109375 9.375 
Q 12.40625 7.71875 10.015625 7.71875 
z
" id="Cmr10-33"/>
      <path d="M 2.78125 -18.796875 
Q 2.78125 -18.21875 2.875 -18.015625 
L 17.578125 41.015625 
Q 18.015625 42.4375 19.15625 43.3125 
Q 20.3125 44.1875 21.78125 44.1875 
Q 23.046875 44.1875 23.921875 43.421875 
Q 24.8125 42.671875 24.8125 41.40625 
Q 24.8125 41.109375 24.78125 40.9375 
Q 24.75 40.765625 24.703125 40.578125 
L 18.796875 17.1875 
Q 17.828125 13.03125 17.828125 10.015625 
Q 17.828125 6.296875 19.578125 3.90625 
Q 21.34375 1.515625 24.90625 1.515625 
Q 32.171875 1.515625 37.703125 10.59375 
Q 37.75 10.6875 37.765625 10.734375 
Q 37.796875 10.796875 37.796875 10.890625 
L 45.015625 39.890625 
Q 45.359375 41.21875 46.578125 42.15625 
Q 47.796875 43.109375 49.21875 43.109375 
Q 50.390625 43.109375 51.296875 42.328125 
Q 52.203125 41.546875 52.203125 40.28125 
Q 52.203125 39.703125 52.09375 39.5 
L 44.921875 10.6875 
Q 44.1875 7.859375 44.1875 5.8125 
Q 44.1875 1.515625 47.125 1.515625 
Q 50.25 1.515625 51.828125 5.375 
Q 53.421875 9.234375 54.59375 14.703125 
Q 54.78125 15.28125 55.421875 15.28125 
L 56.59375 15.28125 
Q 56.984375 15.28125 57.25 14.96875 
Q 57.515625 14.65625 57.515625 14.3125 
Q 55.765625 7.328125 53.6875 3.09375 
Q 51.609375 -1.125 46.921875 -1.125 
Q 43.609375 -1.125 41.046875 0.78125 
Q 38.484375 2.6875 37.703125 5.90625 
Q 35.203125 2.78125 31.859375 0.828125 
Q 28.515625 -1.125 24.8125 -1.125 
Q 18.5625 -1.125 14.984375 1.8125 
L 9.90625 -18.40625 
Q 9.625 -19.828125 8.453125 -20.703125 
Q 7.28125 -21.578125 5.8125 -21.578125 
Q 4.59375 -21.578125 3.6875 -20.8125 
Q 2.78125 -20.0625 2.78125 -18.796875 
" id="Cmmi10-b9"/>
      <path d="M 14.59375 21.578125 
Q 14.59375 15.578125 16.90625 11.015625 
Q 19.234375 6.453125 23.65625 3.875 
Q 28.078125 1.3125 34.078125 1.3125 
Q 40.375 1.3125 46.203125 4.53125 
Q 52.046875 7.765625 56.171875 13.15625 
Q 60.296875 18.5625 61.8125 24.609375 
Q 62.015625 25.203125 62.59375 25.203125 
L 63.8125 25.203125 
Q 64.203125 25.203125 64.453125 24.921875 
Q 64.703125 24.65625 64.703125 24.3125 
Q 64.703125 24.21875 64.59375 24.03125 
Q 62.890625 17.09375 57.984375 11.015625 
Q 53.078125 4.9375 46.234375 1.359375 
Q 39.40625 -2.203125 32.171875 -2.203125 
Q 24.359375 -2.203125 18.15625 1.3125 
Q 11.96875 4.828125 8.515625 11.078125 
Q 5.078125 17.328125 5.078125 25.203125 
Q 5.078125 33.59375 8.828125 41.8125 
Q 12.59375 50.046875 18.9375 56.46875 
Q 25.296875 62.890625 33.421875 66.703125 
Q 41.546875 70.515625 49.90625 70.515625 
Q 53.21875 70.515625 56.25 69.5 
Q 59.28125 68.5 61.859375 66.453125 
Q 64.453125 64.40625 66.109375 61.71875 
L 74.03125 70.3125 
Q 74.03125 70.515625 74.515625 70.515625 
L 75.09375 70.515625 
Q 75.484375 70.515625 75.734375 70.171875 
Q 75.984375 69.828125 75.984375 69.484375 
L 69.1875 42.484375 
Q 69.1875 41.796875 68.40625 41.796875 
L 66.609375 41.796875 
Q 65.828125 41.796875 65.828125 42.921875 
Q 66.21875 45.125 66.21875 48.1875 
Q 66.21875 53.078125 64.546875 57.390625 
Q 62.890625 61.71875 59.390625 64.359375 
Q 55.90625 67 50.875 67 
Q 42.71875 67 35.9375 62.890625 
Q 29.15625 58.796875 24.4375 52.125 
Q 19.734375 45.453125 17.15625 37.328125 
Q 14.59375 29.203125 14.59375 21.578125 
" id="Cmmi10-43"/>
      <path d="M 10.203125 23 
Q 9.375 23 8.828125 23.625 
Q 8.296875 24.265625 8.296875 25 
Q 8.296875 25.734375 8.828125 26.359375 
Q 9.375 27 10.203125 27 
L 67.578125 27 
Q 68.359375 27 68.875 26.359375 
Q 69.390625 25.734375 69.390625 25 
Q 69.390625 24.265625 68.875 23.625 
Q 68.359375 23 67.578125 23 
z
" id="Cmsy10-a1"/>
      <path d="M 1.421875 -14.3125 
Q 1.421875 -11.859375 3.09375 -10.03125 
Q 4.78125 -8.203125 7.171875 -8.203125 
Q 8.796875 -8.203125 9.890625 -9.203125 
Q 10.984375 -10.203125 10.984375 -11.8125 
Q 10.984375 -13.625 9.953125 -15.0625 
Q 8.9375 -16.5 7.328125 -17.09375 
Q 10.015625 -17.921875 15.71875 -17.921875 
Q 20.3125 -17.921875 24.125 -14.375 
Q 27.9375 -10.84375 29.109375 -6.203125 
L 31.984375 5.515625 
Q 26.5625 0 20.703125 0 
Q 16.40625 0 13.34375 2.1875 
Q 10.296875 4.390625 8.6875 8.046875 
Q 7.078125 11.71875 7.078125 15.828125 
Q 7.078125 20.40625 8.953125 25.4375 
Q 10.84375 30.46875 14.234375 34.765625 
Q 17.625 39.0625 22.015625 41.625 
Q 26.421875 44.1875 31.296875 44.1875 
Q 34.234375 44.1875 36.578125 42.578125 
Q 38.921875 40.96875 40.28125 38.28125 
Q 41.265625 42.1875 44.578125 42.1875 
Q 45.84375 42.1875 46.71875 41.421875 
Q 47.609375 40.671875 47.609375 39.40625 
Q 47.609375 39.109375 47.578125 38.953125 
Q 47.5625 38.8125 47.515625 38.625 
L 36.078125 -6.78125 
Q 35.296875 -9.90625 33.203125 -12.5 
Q 31.109375 -15.09375 28.265625 -16.828125 
Q 25.4375 -18.5625 22.0625 -19.53125 
Q 18.703125 -20.515625 15.578125 -20.515625 
Q 9.859375 -20.515625 5.640625 -19.40625 
Q 1.421875 -18.3125 1.421875 -14.3125 
M 20.90625 2.59375 
Q 27.296875 2.59375 33.5 11.375 
L 39.015625 33.203125 
Q 38.328125 36.671875 36.28125 39.140625 
Q 34.234375 41.609375 31.109375 41.609375 
Q 27.78125 41.609375 24.828125 38.890625 
Q 21.875 36.1875 19.921875 32.421875 
Q 18.0625 28.8125 16.328125 22.046875 
Q 14.59375 15.28125 14.59375 11.375 
Q 14.59375 7.953125 16.15625 5.265625 
Q 17.71875 2.59375 20.90625 2.59375 
" id="Cmmi10-67"/>
     </defs>
     <g transform="translate(213.041875 486.04)scale(0.2 -0.2)">
      <use transform="translate(0.0 0.109375)" xlink:href="#Cmmi10-53"/>
      <use transform="translate(149.072265625 0.109375)" xlink:href="#Cmr10-28"/>
      <use transform="translate(187.890625 0.109375)" xlink:href="#Cmmi10-b9"/>
      <use transform="translate(248.095703125 0.109375)" xlink:href="#Cmmi10-67"/>
      <use transform="translate(295.80078125 0.109375)" xlink:href="#Cmmi10-43"/>
      <use transform="translate(367.1875 0.109375)" xlink:href="#Cmmi10-63"/>
      <use transform="translate(410.400390625 0.109375)" xlink:href="#Cmmi10-6d"/>
      <use transform="translate(504.496640625 38.3734375)scale(0.7)" xlink:href="#Cmsy10-a1"/>
      <use transform="translate(558.8765234374999 38.3734375)scale(0.7)" xlink:href="#Cmr10-33"/>
      <use transform="translate(600.2538671875 0.109375)" xlink:href="#Cmr10-29"/>
     </g>
    </g>
   </g>
   <g id="matplotlib.axis_2">
    <g id="ytick_1">
     <g id="line2d_18">
      <defs>
       <path d="M 0 0 
L 4 0 
" id="mcbc49d0a24" style="stroke:#000000;stroke-width:0.5;"/>
      </defs>
      <g>
       <use style="stroke:#000000;stroke-width:0.5;" x="63.04375" xlink:href="#mcbc49d0a24" y="376.702397059"/>
      </g>
     </g>
     <g id="line2d_19">
      <defs>
       <path d="M 0 0 
L -4 0 
" id="mdbc3fc6744" style="stroke:#000000;stroke-width:0.5;"/>
      </defs>
      <g>
       <use style="stroke:#000000;stroke-width:0.5;" x="491.04" xlink:href="#mdbc3fc6744" y="376.702397059"/>
      </g>
     </g>
     <g id="text_10">
      <!-- 1.0 -->
      <defs>
       <path d="M 10.6875 12.40625 
L 21 12.40625 
L 21 0 
L 10.6875 0 
z
" id="BitstreamVeraSans-Roman-2e"/>
      </defs>
      <g transform="translate(39.96 380.013647059)scale(0.12 -0.12)">
       <use xlink:href="#BitstreamVeraSans-Roman-31"/>
       <use x="63.623046875" xlink:href="#BitstreamVeraSans-Roman-2e"/>
       <use x="95.41015625" xlink:href="#BitstreamVeraSans-Roman-30"/>
      </g>
     </g>
    </g>
    <g id="ytick_2">
     <g id="line2d_20">
      <g>
       <use style="stroke:#000000;stroke-width:0.5;" x="63.04375" xlink:href="#mcbc49d0a24" y="248.624088235"/>
      </g>
     </g>
     <g id="line2d_21">
      <g>
       <use style="stroke:#000000;stroke-width:0.5;" x="491.04" xlink:href="#mdbc3fc6744" y="248.624088235"/>
      </g>
     </g>
     <g id="text_11">
      <!-- 1.5 -->
      <defs>
       <path d="M 10.796875 72.90625 
L 49.515625 72.90625 
L 49.515625 64.59375 
L 19.828125 64.59375 
L 19.828125 46.734375 
Q 21.96875 47.46875 24.109375 47.828125 
Q 26.265625 48.1875 28.421875 48.1875 
Q 40.625 48.1875 47.75 41.5 
Q 54.890625 34.8125 54.890625 23.390625 
Q 54.890625 11.625 47.5625 5.09375 
Q 40.234375 -1.421875 26.90625 -1.421875 
Q 22.3125 -1.421875 17.546875 -0.640625 
Q 12.796875 0.140625 7.71875 1.703125 
L 7.71875 11.625 
Q 12.109375 9.234375 16.796875 8.0625 
Q 21.484375 6.890625 26.703125 6.890625 
Q 35.15625 6.890625 40.078125 11.328125 
Q 45.015625 15.765625 45.015625 23.390625 
Q 45.015625 31 40.078125 35.4375 
Q 35.15625 39.890625 26.703125 39.890625 
Q 22.75 39.890625 18.8125 39.015625 
Q 14.890625 38.140625 10.796875 36.28125 
z
" id="BitstreamVeraSans-Roman-35"/>
      </defs>
      <g transform="translate(39.96 251.935338235)scale(0.12 -0.12)">
       <use xlink:href="#BitstreamVeraSans-Roman-31"/>
       <use x="63.623046875" xlink:href="#BitstreamVeraSans-Roman-2e"/>
       <use x="95.41015625" xlink:href="#BitstreamVeraSans-Roman-35"/>
      </g>
     </g>
    </g>
    <g id="ytick_3">
     <g id="line2d_22">
      <g>
       <use style="stroke:#000000;stroke-width:0.5;" x="63.04375" xlink:href="#mcbc49d0a24" y="120.545779412"/>
      </g>
     </g>
     <g id="line2d_23">
      <g>
       <use style="stroke:#000000;stroke-width:0.5;" x="491.04" xlink:href="#mdbc3fc6744" y="120.545779412"/>
      </g>
     </g>
     <g id="text_12">
      <!-- 2.0 -->
      <g transform="translate(39.96 123.857029412)scale(0.12 -0.12)">
       <use xlink:href="#BitstreamVeraSans-Roman-32"/>
       <use x="63.623046875" xlink:href="#BitstreamVeraSans-Roman-2e"/>
       <use x="95.41015625" xlink:href="#BitstreamVeraSans-Roman-30"/>
      </g>
     </g>
    </g>
    <g id="text_13">
     <!-- $X\quad(\mu gC cm^{-3})$ -->
     <defs>
      <path d="M 3.609375 0 
Q 2.59375 0 2.59375 1.3125 
Q 2.640625 1.5625 2.8125 2.1875 
Q 2.984375 2.828125 3.25 3.171875 
Q 3.515625 3.515625 4 3.515625 
Q 13.09375 3.515625 19.578125 10.296875 
Q 19.671875 10.40625 19.796875 10.453125 
Q 19.921875 10.5 19.921875 10.5 
L 41.796875 34.078125 
L 29.890625 62.796875 
Q 28.859375 64.109375 26.5625 64.453125 
Q 24.265625 64.796875 21.1875 64.796875 
Q 20.21875 64.796875 20.21875 66.109375 
Q 20.5625 67.390625 20.75 67.84375 
Q 20.953125 68.3125 21.921875 68.3125 
L 46.921875 68.3125 
Q 47.90625 68.3125 47.90625 67 
Q 47.859375 66.75 47.6875 66.109375 
Q 47.515625 65.484375 47.234375 65.140625 
Q 46.96875 64.796875 46.484375 64.796875 
Q 44.625 64.796875 42.640625 64.1875 
Q 40.671875 63.578125 39.890625 62.203125 
L 48.484375 41.5 
L 64.890625 59.078125 
Q 65.046875 59.421875 65.578125 60.28125 
Q 66.109375 61.140625 66.109375 61.921875 
Q 66.109375 63.375 64.84375 64.078125 
Q 63.578125 64.796875 61.8125 64.796875 
Q 60.796875 64.796875 60.796875 66.109375 
Q 61.140625 67.390625 61.328125 67.84375 
Q 61.53125 68.3125 62.5 68.3125 
L 84.1875 68.3125 
Q 84.71875 68.3125 84.953125 67.921875 
Q 85.203125 67.53125 85.203125 67 
Q 85.15625 66.75 85 66.15625 
Q 84.859375 65.578125 84.609375 65.1875 
Q 84.375 64.796875 83.890625 64.796875 
Q 79.25 64.796875 75.359375 63.109375 
Q 71.484375 61.421875 68.21875 58.015625 
Q 68.171875 57.953125 68.09375 57.921875 
Q 68.015625 57.90625 67.921875 57.8125 
L 49.8125 38.28125 
L 63.484375 5.515625 
Q 65.09375 3.515625 72.21875 3.515625 
Q 73.1875 3.515625 73.1875 2.203125 
Q 72.859375 0.875 72.625 0.4375 
Q 72.40625 0 71.484375 0 
L 46.484375 0 
Q 45.515625 0 45.515625 1.3125 
Q 45.5625 1.5625 45.703125 2.171875 
Q 45.84375 2.78125 46.109375 3.140625 
Q 46.390625 3.515625 46.78125 3.515625 
Q 48.734375 3.515625 50.734375 4.125 
Q 52.734375 4.734375 53.515625 6.109375 
L 43.109375 31 
L 22.90625 9.1875 
Q 22.75 8.84375 22.21875 8 
Q 21.6875 7.171875 21.6875 6.390625 
Q 21.6875 4.9375 23.046875 4.21875 
Q 24.421875 3.515625 25.984375 3.515625 
Q 27 3.515625 27 2.203125 
Q 26.65625 0.78125 26.453125 0.390625 
Q 26.265625 0 25.296875 0 
z
" id="Cmmi10-58"/>
     </defs>
     <g transform="translate(29.96 296.793125)rotate(-90.0)scale(0.2 -0.2)">
      <use transform="translate(0.0 0.109375)" xlink:href="#Cmmi10-58"/>
      <use transform="translate(170.60546875 0.109375)" xlink:href="#Cmr10-28"/>
      <use transform="translate(209.423828125 0.109375)" xlink:href="#Cmmi10-b9"/>
      <use transform="translate(269.62890625 0.109375)" xlink:href="#Cmmi10-67"/>
      <use transform="translate(317.333984375 0.109375)" xlink:href="#Cmmi10-43"/>
      <use transform="translate(388.720703125 0.109375)" xlink:href="#Cmmi10-63"/>
      <use transform="translate(431.93359375 0.109375)" xlink:href="#Cmmi10-6d"/>
      <use transform="translate(526.02984375 38.3734375)scale(0.7)" xlink:href="#Cmsy10-a1"/>
      <use transform="translate(580.4097265625 38.3734375)scale(0.7)" xlink:href="#Cmr10-33"/>
      <use transform="translate(621.7870703125 0.109375)" xlink:href="#Cmr10-29"/>
     </g>
    </g>
   </g>
  </g>
 </g>
 <defs>
  <clipPath id="pa918f036fc">
   <rect height="435.46625" width="427.99625" x="63.04375" y="12.96"/>
  </clipPath>
 </defs>
</svg>
