<?xml version="1.0" encoding="utf-8" standalone="no"?>
<!DOCTYPE svg PUBLIC "-//W3C//DTD SVG 1.1//EN"
  "http://www.w3.org/Graphics/SVG/1.1/DTD/svg11.dtd">
<!-- Created with matplotlib (http://matplotlib.org/) -->
<svg height="504pt" version="1.1" viewBox="0 0 504 504" width="504pt" xmlns="http://www.w3.org/2000/svg" xmlns:xlink="http://www.w3.org/1999/xlink">
 <defs>
  <style type="text/css">
*{stroke-linecap:butt;stroke-linejoin:round;stroke-miterlimit:100000;}
  </style>
 </defs>
 <g id="figure_1">
  <g id="patch_1">
   <path d="M 0 504 
L 504 504 
L 504 0 
L 0 0 
z
" style="fill:#ffffff;"/>
  </g>
  <g id="axes_1">
   <g id="patch_2">
    <path d="M 63.04375 448.42625 
L 491.04 448.42625 
L 491.04 18.766875 
L 63.04375 18.766875 
z
" style="fill:#ffffff;"/>
   </g>
   <g id="PathCollection_1">
    <defs>
     <path d="M 0 3.872983 
C 1.027127 3.872983 2.012324 3.464901 2.738613 2.738613 
C 3.464901 2.012324 3.872983 1.027127 3.872983 0 
C 3.872983 -1.027127 3.464901 -2.012324 2.738613 -2.738613 
C 2.012324 -3.464901 1.027127 -3.872983 0 -3.872983 
C -1.027127 -3.872983 -2.012324 -3.464901 -2.738613 -2.738613 
C -3.464901 -2.012324 -3.872983 -1.027127 -3.872983 0 
C -3.872983 1.027127 -3.464901 2.012324 -2.738613 2.738613 
C -2.012324 3.464901 -1.027127 3.872983 0 3.872983 
z
" id="mc02c9f6cd7" style="stroke:#000000;"/>
    </defs>
    <g clip-path="url(#p7919040bf4)">
     <use style="fill:#0000ff;stroke:#000000;" x="123.838671875" xlink:href="#mc02c9f6cd7" y="367.139341216"/>
    </g>
   </g>
   <g id="patch_3">
    <path clip-path="url(#p7919040bf4)" d="M 338.739043 296.063447 
Q 342.575702 291.997731 346.41236 287.932014 
Q 347.362938 293.440771 348.313517 298.949528 
z
" style="fill:#0000ff;stroke:#000000;stroke-linecap:round;"/>
   </g>
   <g id="line2d_1">
    <path clip-path="url(#p7919040bf4)" d="M 123.838672 367.139341 
L 142.755359 369.698912 
L 160.209772 371.747739 
L 176.320092 373.424027 
L 191.192953 374.817146 
L 217.606819 376.981422 
L 240.135883 378.55528 
L 267.886933 380.181755 
L 289.77688 381.218972 
L 311.972552 382.009666 
L 328.199992 382.356351 
L 340.094232 382.410419 
L 348.841803 382.264537 
L 355.303975 381.978328 
L 360.106003 381.591509 
L 364.45315 381.006959 
L 367.529532 380.342462 
L 369.752667 379.620932 
L 371.40239 378.857348 
L 372.884622 377.899198 
L 374.018526 376.90552 
L 375.206079 375.536616 
L 376.403095 373.766875 
L 377.728688 371.381741 
L 379.375709 367.934658 
L 381.243064 363.502836 
L 383.14835 358.398949 
L 384.922025 353.017871 
L 386.625235 347.121925 
L 388.17489 340.934296 
L 389.564568 334.460877 
L 390.788007 327.708659 
L 391.839172 320.68591 
L 392.743446 313.105732 
L 393.449039 305.256274 
L 393.950262 297.152472 
L 394.241917 288.811621 
L 394.31937 280.253597 
L 394.178622 271.501071 
L 393.816393 262.579721 
L 393.230202 253.51841 
L 392.418455 244.349366 
L 391.380535 235.108299 
L 390.116889 225.834507 
L 388.629122 216.570902 
L 386.92008 207.364008 
L 385.071969 198.611251 
L 383.028055 190.004556 
L 380.887414 181.925965 
L 378.578604 174.074378 
L 376.215329 166.807335 
L 373.712481 159.836163 
L 371.19592 153.48557 
L 368.689883 147.749428 
L 366.216339 142.613561 
L 363.665685 137.826007 
L 361.178419 133.625985 
L 358.771089 129.981378 
L 356.320742 126.681349 
L 353.973088 123.897171 
L 351.739207 121.584716 
L 349.628081 119.69784 
L 347.504954 118.09128 
L 345.516332 116.851187 
L 343.524539 115.866879 
L 341.675298 115.185849 
L 339.829275 114.732237 
L 337.989349 114.508435 
L 336.158397 114.516196 
L 334.339284 114.756618 
L 332.534853 115.23013 
L 330.747921 115.93647 
L 328.981263 116.87468 
L 327.237609 118.043104 
L 325.38862 119.556136 
L 323.572666 121.329553 
L 321.667246 123.513136 
L 319.807116 125.983084 
L 317.876938 128.924082 
L 315.891678 132.382973 
L 313.978529 136.171096 
L 312.036255 140.52218 
L 310.084276 145.470927 
L 308.238075 150.758266 
L 306.413861 156.657714 
L 304.634769 163.182462 
L 302.925373 170.33537 
L 301.377854 177.764178 
L 299.936217 185.771407 
L 298.626215 194.328747 
L 297.515732 203.030275 
L 296.570927 212.18229 
L 295.816047 221.726556 
L 295.29013 231.230071 
L 294.988596 240.630107 
L 294.906774 250.221476 
L 295.05311 259.583923 
L 295.419013 268.668549 
L 295.99508 277.433679 
L 296.771261 285.844551 
L 297.737004 293.872883 
L 298.881397 301.496355 
L 300.141832 308.438979 
L 301.547478 314.979521 
L 303.088181 321.110671 
L 304.753788 326.828251 
L 306.534202 332.130734 
L 308.345088 336.838454 
L 310.244077 341.165251 
L 312.222503 345.11461 
L 314.18861 348.555062 
L 316.212652 351.656441 
L 318.287344 354.423876 
L 320.316503 356.767704 
L 322.379437 358.814878 
L 324.470082 360.570517 
L 326.490272 361.981782 
L 328.525256 363.13553 
L 330.570008 364.036207 
L 332.619591 364.688184 
L 334.576056 365.08245 
L 336.528344 365.257621 
L 338.472368 365.217217 
L 340.495714 364.947393 
L 342.501016 364.448536 
L 344.483789 363.72434 
L 346.439618 362.778397 
L 348.450821 361.556159 
L 350.422935 360.099292 
L 352.433918 358.333092 
L 354.391733 356.319936 
L 356.3689 353.96496 
L 358.276804 351.351654 
L 360.181393 348.365203 
L 362.066637 344.980217 
L 363.850744 341.313013 
L 365.586967 337.21972 
L 367.200037 332.839544 
L 368.733492 328.010659 
L 370.120033 322.895831 
L 371.352673 317.507845 
L 372.458884 311.6617 
L 373.386638 305.555819 
L 374.129802 299.209608 
L 374.698012 292.42232 
L 375.058083 285.427944 
L 375.205743 278.255847 
L 375.137751 270.938467 
L 374.851985 263.511441 
L 374.347546 256.013697 
L 373.624854 248.487475 
L 372.685739 240.978291 
L 371.533533 233.534811 
L 370.173145 226.208635 
L 368.664585 219.281525 
L 366.974641 212.566129 
L 365.177031 206.325215 
L 363.297383 200.579081 
L 361.360004 195.339644 
L 359.30981 190.435532 
L 357.238815 186.065526 
L 355.167617 182.220735 
L 353.114751 178.885344 
L 351.096634 176.037533 
L 349.127564 173.650418 
L 347.219764 171.693033 
L 345.383467 170.131306 
L 343.627033 168.929017 
L 341.957089 168.048679 
L 340.285888 167.424424 
L 338.710408 167.072954 
L 337.141562 166.954712 
L 335.583101 167.070686 
L 334.038744 167.420961 
L 332.51216 168.004698 
L 331.00696 168.820127 
L 329.44045 169.933045 
L 327.905954 171.298351 
L 326.325299 173.007266 
L 324.709641 175.094793 
L 323.071717 177.593888 
L 321.425878 180.534361 
L 319.788069 183.94172 
L 318.17577 187.835922 
L 316.607877 192.230143 
L 315.104538 197.129567 
L 313.686917 202.530304 
L 312.376907 208.418481 
L 311.196794 214.769588 
L 310.168859 221.548148 
L 309.314958 228.707749 
L 308.673241 235.956903 
L 308.231984 243.464318 
L 308.012131 250.929687 
L 308.01201 258.518498 
L 308.234897 265.934713 
L 308.672169 273.123526 
L 309.313945 280.037141 
L 310.149285 286.634623 
L 311.166394 292.881613 
L 312.314476 298.577879 
L 313.609894 303.897402 
L 315.040452 308.824081 
L 316.543451 313.210769 
L 318.15018 317.20966 
L 319.793021 320.70553 
L 321.453414 323.732769 
L 323.175404 326.413162 
L 324.887712 328.672585 
L 326.577225 330.547058 
L 328.296921 332.124915 
L 329.974635 333.366486 
L 331.601841 334.305887 
L 333.237073 334.998723 
L 334.874769 335.448094 
L 336.44419 335.653525 
L 338.006064 335.640766 
L 339.555703 335.413099 
L 341.151929 334.951115 
L 342.724766 334.263696 
L 344.33032 333.314162 
L 345.899647 332.130272 
L 347.485222 330.658309 
L 349.075855 328.877179 
L 350.658995 326.766539 
L 352.220693 324.307108 
L 353.745577 321.481032 
L 355.216854 318.272322 
L 356.616332 314.667382 
L 357.888024 310.777772 
L 359.056449 306.490868 
L 360.100821 301.803178 
L 360.999435 296.716377 
L 361.712793 291.389493 
L 362.24649 285.697853 
L 362.572745 279.823671 
L 362.687759 273.807711 
L 362.58371 267.527864 
L 362.254055 261.196221 
L 361.700336 254.867523 
L 360.92623 248.599697 
L 359.966339 242.613102 
L 358.810624 236.799794 
L 357.507322 231.366398 
L 356.081415 226.347518 
L 354.557357 221.769213 
L 352.958699 217.648997 
L 351.307766 213.996077 
L 349.625392 210.811758 
L 347.988133 208.174788 
L 346.358939 205.963235 
L 344.812015 204.21931 
L 343.301175 202.835209 
L 341.835942 201.784961 
L 340.424192 201.040455 
L 339.072252 200.572172 
L 337.723876 200.344764 
L 336.44471 200.353441 
L 335.177662 200.582508 
L 333.92698 201.030757 
L 332.638835 201.732924 
L 331.3213 202.717245 
L 329.983757 204.010695 
L 328.636932 205.638211 
L 327.292893 207.621841 
L 325.965012 209.979846 
L 324.623152 212.829193 
L 323.334625 216.094565 
L 322.079835 219.898497 
L 320.922888 224.125662 
L 319.855243 228.894642 
L 318.934564 234.046796 
L 318.180519 239.536731 
L 317.611571 245.309312 
L 317.244482 251.300538 
L 317.093844 257.438759 
L 317.166992 263.496385 
L 317.456584 269.4052 
L 317.953172 275.103925 
L 318.645491 280.538534 
L 319.520721 285.662294 
L 320.53672 290.320817 
L 321.699165 294.615682 
L 322.958582 298.427004 
L 324.29147 301.766476 
L 325.676414 304.651565 
L 327.094128 307.103992 
L 328.527435 309.148469 
L 329.961214 310.811686 
L 331.382311 312.121498 
L 332.779434 313.106284 
L 334.143034 313.794456 
L 335.465177 314.214072 
L 336.739413 314.392549 
L 338.005666 314.35122 
L 339.258399 314.093439 
L 340.535838 313.602351 
L 341.829686 312.859393 
L 343.130485 311.846833 
L 344.427581 310.548061 
L 345.709123 308.947915 
L 346.997802 306.972773 
L 348.23875 304.65642 
L 349.446086 301.915408 
L 350.565881 298.807079 
L 351.579104 295.333195 
L 352.466113 291.501073 
L 353.206952 287.32451 
L 353.78171 282.824786 
L 354.170963 278.03173 
L 354.356298 272.9848 
L 354.324111 267.848799 
L 354.066662 262.57049 
L 353.585451 257.331936 
L 352.904288 252.314153 
L 352.023965 247.470741 
L 350.981926 242.969367 
L 349.803528 238.85544 
L 348.546432 235.248341 
L 347.208735 232.071847 
L 345.850068 229.404932 
L 344.496909 227.222675 
L 343.171599 225.490818 
L 341.89243 224.168263 
L 340.633029 223.182236 
L 339.444806 222.529823 
L 338.29533 222.151722 
L 337.191065 222.023367 
L 336.137085 222.119181 
L 335.057902 222.445161 
L 333.99991 222.998909 
L 332.930963 223.808802 
L 331.824141 224.93497 
L 330.729356 226.36836 
L 329.626451 228.179597 
L 328.535727 230.400356 
L 327.48029 233.054243 
L 326.461974 236.237501 
L 325.539695 239.88018 
L 324.74384 243.963605 
L 324.117078 248.351781 
L 323.668939 253.083838 
L 323.430153 257.988293 
L 323.411986 262.982032 
L 323.615465 267.878688 
L 324.030909 272.600842 
L 324.64566 277.079294 
L 325.42646 281.171811 
L 326.346465 284.849546 
L 327.379573 288.096475 
L 328.500905 290.907319 
L 329.659326 293.235712 
L 330.858318 295.159023 
L 332.049184 296.659832 
L 333.213326 297.78195 
L 334.335919 298.570228 
L 335.437051 299.080286 
L 336.508096 299.335129 
L 337.541895 299.358038 
L 338.563368 299.163145 
L 339.596098 298.738977 
L 340.631177 298.071373 
L 341.686586 297.11874 
L 342.747048 295.850536 
L 343.79462 294.239125 
L 344.808679 292.261079 
L 345.766003 289.898694 
L 346.640982 287.141742 
L 347.405989 283.989449 
L 348.031934 280.452698 
L 348.482284 276.631658 
L 348.742353 272.497614 
L 348.786153 268.185833 
L 348.607108 263.850465 
L 348.209717 259.57328 
L 347.602771 255.437452 
L 346.815579 251.594529 
L 345.893579 248.169644 
L 344.850215 245.136752 
L 343.759679 242.62816 
L 342.63264 240.578498 
L 341.521798 239.004653 
L 340.451866 237.85648 
L 339.414139 237.059953 
L 338.449313 236.586774 
L 337.511924 236.369604 
L 336.609268 236.388044 
L 335.720597 236.63078 
L 334.826683 237.111644 
L 333.936829 237.844765 
L 333.014002 238.903491 
L 332.100677 240.297315 
L 331.195787 242.091426 
L 330.327424 244.316194 
L 329.527585 246.987295 
L 328.83142 250.10144 
L 328.276058 253.632491 
L 327.903661 257.460306 
L 327.739426 261.435073 
L 327.791933 265.462431 
L 328.064474 269.444215 
L 328.545029 273.220732 
L 329.203609 276.656132 
L 330.011423 279.700537 
L 330.921956 282.278181 
L 331.882483 284.356317 
L 332.879367 286.001354 
L 333.866708 287.217959 
L 334.82202 288.059028 
L 335.750068 288.588821 
L 336.638782 288.844528 
L 337.500509 288.86125 
L 338.348587 288.651785 
L 339.195238 288.20798 
L 340.049506 287.501572 
L 340.914957 286.484843 
L 341.770225 285.122361 
L 342.589931 283.385437 
L 343.344872 281.25512 
L 344.002523 278.725622 
L 344.527913 275.808111 
L 344.880959 272.587171 
L 345.036361 269.124519 
L 344.975233 265.555557 
L 344.691673 261.977499 
L 344.204349 258.596375 
L 343.538234 255.499332 
L 342.735714 252.800282 
L 341.84888 250.573187 
L 340.916642 248.817846 
L 339.990427 247.534875 
L 339.099442 246.669131 
L 338.264996 246.156585 
L 337.482838 245.927307 
L 336.725488 245.936473 
L 335.982978 246.1736 
L 335.246506 246.647391 
L 334.494221 247.404318 
L 333.729627 248.504817 
L 332.979635 249.9923 
L 332.276574 251.896078 
L 331.657486 254.225202 
L 331.162745 256.962412 
L 330.837188 260.013168 
L 330.711267 263.292212 
L 330.804151 266.598463 
L 331.114708 269.815666 
L 331.617318 272.752421 
L 332.271228 275.298199 
L 333.038417 277.414765 
L 333.855788 279.042052 
L 334.684833 280.219357 
L 335.495327 280.999402 
L 336.264837 281.441762 
L 336.992649 281.608942 
L 337.682889 281.543826 
L 338.370003 281.254419 
L 339.069726 280.708724 
L 339.764759 279.877045 
L 340.456538 278.691356 
L 341.111515 277.111096 
L 341.689592 275.113134 
L 342.140373 272.733777 
L 342.421051 270.051834 
L 342.501448 267.146271 
L 342.360674 264.161006 
L 342.003555 261.292951 
L 341.464738 258.723733 
L 340.792289 256.561696 
L 340.041497 254.867451 
L 339.279978 253.665827 
L 338.534488 252.883159 
L 337.844337 252.461852 
L 337.20203 252.317523 
L 336.581276 252.406001 
L 335.968015 252.726137 
L 335.352088 253.307938 
L 334.731654 254.21042 
L 334.127137 255.495042 
L 333.578679 257.194562 
L 333.133053 259.310775 
L 332.843107 261.773087 
L 332.750595 264.459268 
L 332.877052 267.178391 
L 333.213129 269.732509 
L 333.721199 271.953685 
L 334.351827 273.751343 
L 335.041347 275.071967 
L 335.725531 275.93048 
L 336.378845 276.413959 
L 336.988763 276.598796 
L 337.561223 276.543209 
L 338.124602 276.2613 
L 338.692505 275.720087 
L 339.259438 274.861955 
L 339.799099 273.629304 
L 340.266763 271.993698 
L 340.61062 269.961597 
L 340.774567 267.638201 
L 340.724696 265.187186 
L 340.456714 262.804081 
L 340.002905 260.699964 
L 339.419555 259.011665 
L 338.782521 257.815679 
L 338.160152 257.086229 
L 337.582043 256.725675 
L 337.053347 256.6437 
L 336.545235 256.791244 
L 336.038527 257.180928 
L 335.53059 257.864246 
L 335.034008 258.922437 
L 334.597802 260.396508 
L 334.283003 262.26055 
L 334.146252 264.419834 
L 334.225833 266.672961 
L 334.516639 268.771136 
L 334.973824 270.522702 
L 335.527977 271.815566 
L 336.102666 272.633127 
L 336.65101 273.053042 
L 337.150506 273.168649 
L 337.61864 273.048403 
L 338.080883 272.691425 
L 338.545614 272.037972 
L 338.985895 271.019242 
L 339.351984 269.589322 
L 339.552903 268.086421 
L 339.552903 268.086421 
" style="fill:none;stroke:#0000ff;stroke-linecap:square;"/>
   </g>
   <g id="patch_4">
    <path d="M 63.04375 18.766875 
L 491.04 18.766875 
" style="fill:none;stroke:#000000;stroke-linecap:square;stroke-linejoin:miter;"/>
   </g>
   <g id="patch_5">
    <path d="M 63.04375 448.42625 
L 63.04375 18.766875 
" style="fill:none;stroke:#000000;stroke-linecap:square;stroke-linejoin:miter;"/>
   </g>
   <g id="patch_6">
    <path d="M 491.04 448.42625 
L 491.04 18.766875 
" style="fill:none;stroke:#000000;stroke-linecap:square;stroke-linejoin:miter;"/>
   </g>
   <g id="patch_7">
    <path d="M 63.04375 448.42625 
L 491.04 448.42625 
" style="fill:none;stroke:#000000;stroke-linecap:square;stroke-linejoin:miter;"/>
   </g>
   <g id="matplotlib.axis_1">
    <g id="xtick_1">
     <g id="line2d_2">
      <defs>
       <path d="M 0 0 
L 0 -4 
" id="m6f17b63d9e" style="stroke:#000000;stroke-width:0.5;"/>
      </defs>
      <g>
       <use style="stroke:#000000;stroke-width:0.5;" x="63.04375" xlink:href="#m6f17b63d9e" y="448.42625"/>
      </g>
     </g>
     <g id="line2d_3">
      <defs>
       <path d="M 0 0 
L 0 4 
" id="m96d76fc244" style="stroke:#000000;stroke-width:0.5;"/>
      </defs>
      <g>
       <use style="stroke:#000000;stroke-width:0.5;" x="63.04375" xlink:href="#m96d76fc244" y="18.766875"/>
      </g>
     </g>
     <g id="text_1">
      <!-- 0 -->
      <defs>
       <path d="M 31.78125 66.40625 
Q 24.171875 66.40625 20.328125 58.90625 
Q 16.5 51.421875 16.5 36.375 
Q 16.5 21.390625 20.328125 13.890625 
Q 24.171875 6.390625 31.78125 6.390625 
Q 39.453125 6.390625 43.28125 13.890625 
Q 47.125 21.390625 47.125 36.375 
Q 47.125 51.421875 43.28125 58.90625 
Q 39.453125 66.40625 31.78125 66.40625 
M 31.78125 74.21875 
Q 44.046875 74.21875 50.515625 64.515625 
Q 56.984375 54.828125 56.984375 36.375 
Q 56.984375 17.96875 50.515625 8.265625 
Q 44.046875 -1.421875 31.78125 -1.421875 
Q 19.53125 -1.421875 13.0625 8.265625 
Q 6.59375 17.96875 6.59375 36.375 
Q 6.59375 54.828125 13.0625 64.515625 
Q 19.53125 74.21875 31.78125 74.21875 
" id="BitstreamVeraSans-Roman-30"/>
      </defs>
      <g transform="translate(59.22625 461.544375)scale(0.12 -0.12)">
       <use xlink:href="#BitstreamVeraSans-Roman-30"/>
      </g>
     </g>
    </g>
    <g id="xtick_2">
     <g id="line2d_4">
      <g>
       <use style="stroke:#000000;stroke-width:0.5;" x="111.6796875" xlink:href="#m6f17b63d9e" y="448.42625"/>
      </g>
     </g>
     <g id="line2d_5">
      <g>
       <use style="stroke:#000000;stroke-width:0.5;" x="111.6796875" xlink:href="#m96d76fc244" y="18.766875"/>
      </g>
     </g>
     <g id="text_2">
      <!-- 2 -->
      <defs>
       <path d="M 19.1875 8.296875 
L 53.609375 8.296875 
L 53.609375 0 
L 7.328125 0 
L 7.328125 8.296875 
Q 12.9375 14.109375 22.625 23.890625 
Q 32.328125 33.6875 34.8125 36.53125 
Q 39.546875 41.84375 41.421875 45.53125 
Q 43.3125 49.21875 43.3125 52.78125 
Q 43.3125 58.59375 39.234375 62.25 
Q 35.15625 65.921875 28.609375 65.921875 
Q 23.96875 65.921875 18.8125 64.3125 
Q 13.671875 62.703125 7.8125 59.421875 
L 7.8125 69.390625 
Q 13.765625 71.78125 18.9375 73 
Q 24.125 74.21875 28.421875 74.21875 
Q 39.75 74.21875 46.484375 68.546875 
Q 53.21875 62.890625 53.21875 53.421875 
Q 53.21875 48.921875 51.53125 44.890625 
Q 49.859375 40.875 45.40625 35.40625 
Q 44.1875 33.984375 37.640625 27.21875 
Q 31.109375 20.453125 19.1875 8.296875 
" id="BitstreamVeraSans-Roman-32"/>
      </defs>
      <g transform="translate(107.8621875 461.544375)scale(0.12 -0.12)">
       <use xlink:href="#BitstreamVeraSans-Roman-32"/>
      </g>
     </g>
    </g>
    <g id="xtick_3">
     <g id="line2d_6">
      <g>
       <use style="stroke:#000000;stroke-width:0.5;" x="160.315625" xlink:href="#m6f17b63d9e" y="448.42625"/>
      </g>
     </g>
     <g id="line2d_7">
      <g>
       <use style="stroke:#000000;stroke-width:0.5;" x="160.315625" xlink:href="#m96d76fc244" y="18.766875"/>
      </g>
     </g>
     <g id="text_3">
      <!-- 4 -->
      <defs>
       <path d="M 37.796875 64.3125 
L 12.890625 25.390625 
L 37.796875 25.390625 
z
M 35.203125 72.90625 
L 47.609375 72.90625 
L 47.609375 25.390625 
L 58.015625 25.390625 
L 58.015625 17.1875 
L 47.609375 17.1875 
L 47.609375 0 
L 37.796875 0 
L 37.796875 17.1875 
L 4.890625 17.1875 
L 4.890625 26.703125 
z
" id="BitstreamVeraSans-Roman-34"/>
      </defs>
      <g transform="translate(156.498125 461.544375)scale(0.12 -0.12)">
       <use xlink:href="#BitstreamVeraSans-Roman-34"/>
      </g>
     </g>
    </g>
    <g id="xtick_4">
     <g id="line2d_8">
      <g>
       <use style="stroke:#000000;stroke-width:0.5;" x="208.9515625" xlink:href="#m6f17b63d9e" y="448.42625"/>
      </g>
     </g>
     <g id="line2d_9">
      <g>
       <use style="stroke:#000000;stroke-width:0.5;" x="208.9515625" xlink:href="#m96d76fc244" y="18.766875"/>
      </g>
     </g>
     <g id="text_4">
      <!-- 6 -->
      <defs>
       <path d="M 33.015625 40.375 
Q 26.375 40.375 22.484375 35.828125 
Q 18.609375 31.296875 18.609375 23.390625 
Q 18.609375 15.53125 22.484375 10.953125 
Q 26.375 6.390625 33.015625 6.390625 
Q 39.65625 6.390625 43.53125 10.953125 
Q 47.40625 15.53125 47.40625 23.390625 
Q 47.40625 31.296875 43.53125 35.828125 
Q 39.65625 40.375 33.015625 40.375 
M 52.59375 71.296875 
L 52.59375 62.3125 
Q 48.875 64.0625 45.09375 64.984375 
Q 41.3125 65.921875 37.59375 65.921875 
Q 27.828125 65.921875 22.671875 59.328125 
Q 17.53125 52.734375 16.796875 39.40625 
Q 19.671875 43.65625 24.015625 45.921875 
Q 28.375 48.1875 33.59375 48.1875 
Q 44.578125 48.1875 50.953125 41.515625 
Q 57.328125 34.859375 57.328125 23.390625 
Q 57.328125 12.15625 50.6875 5.359375 
Q 44.046875 -1.421875 33.015625 -1.421875 
Q 20.359375 -1.421875 13.671875 8.265625 
Q 6.984375 17.96875 6.984375 36.375 
Q 6.984375 53.65625 15.1875 63.9375 
Q 23.390625 74.21875 37.203125 74.21875 
Q 40.921875 74.21875 44.703125 73.484375 
Q 48.484375 72.75 52.59375 71.296875 
" id="BitstreamVeraSans-Roman-36"/>
      </defs>
      <g transform="translate(205.1340625 461.544375)scale(0.12 -0.12)">
       <use xlink:href="#BitstreamVeraSans-Roman-36"/>
      </g>
     </g>
    </g>
    <g id="xtick_5">
     <g id="line2d_10">
      <g>
       <use style="stroke:#000000;stroke-width:0.5;" x="257.5875" xlink:href="#m6f17b63d9e" y="448.42625"/>
      </g>
     </g>
     <g id="line2d_11">
      <g>
       <use style="stroke:#000000;stroke-width:0.5;" x="257.5875" xlink:href="#m96d76fc244" y="18.766875"/>
      </g>
     </g>
     <g id="text_5">
      <!-- 8 -->
      <defs>
       <path d="M 31.78125 34.625 
Q 24.75 34.625 20.71875 30.859375 
Q 16.703125 27.09375 16.703125 20.515625 
Q 16.703125 13.921875 20.71875 10.15625 
Q 24.75 6.390625 31.78125 6.390625 
Q 38.8125 6.390625 42.859375 10.171875 
Q 46.921875 13.96875 46.921875 20.515625 
Q 46.921875 27.09375 42.890625 30.859375 
Q 38.875 34.625 31.78125 34.625 
M 21.921875 38.8125 
Q 15.578125 40.375 12.03125 44.71875 
Q 8.5 49.078125 8.5 55.328125 
Q 8.5 64.0625 14.71875 69.140625 
Q 20.953125 74.21875 31.78125 74.21875 
Q 42.671875 74.21875 48.875 69.140625 
Q 55.078125 64.0625 55.078125 55.328125 
Q 55.078125 49.078125 51.53125 44.71875 
Q 48 40.375 41.703125 38.8125 
Q 48.828125 37.15625 52.796875 32.3125 
Q 56.78125 27.484375 56.78125 20.515625 
Q 56.78125 9.90625 50.3125 4.234375 
Q 43.84375 -1.421875 31.78125 -1.421875 
Q 19.734375 -1.421875 13.25 4.234375 
Q 6.78125 9.90625 6.78125 20.515625 
Q 6.78125 27.484375 10.78125 32.3125 
Q 14.796875 37.15625 21.921875 38.8125 
M 18.3125 54.390625 
Q 18.3125 48.734375 21.84375 45.5625 
Q 25.390625 42.390625 31.78125 42.390625 
Q 38.140625 42.390625 41.71875 45.5625 
Q 45.3125 48.734375 45.3125 54.390625 
Q 45.3125 60.0625 41.71875 63.234375 
Q 38.140625 66.40625 31.78125 66.40625 
Q 25.390625 66.40625 21.84375 63.234375 
Q 18.3125 60.0625 18.3125 54.390625 
" id="BitstreamVeraSans-Roman-38"/>
      </defs>
      <g transform="translate(253.77 461.544375)scale(0.12 -0.12)">
       <use xlink:href="#BitstreamVeraSans-Roman-38"/>
      </g>
     </g>
    </g>
    <g id="xtick_6">
     <g id="line2d_12">
      <g>
       <use style="stroke:#000000;stroke-width:0.5;" x="306.2234375" xlink:href="#m6f17b63d9e" y="448.42625"/>
      </g>
     </g>
     <g id="line2d_13">
      <g>
       <use style="stroke:#000000;stroke-width:0.5;" x="306.2234375" xlink:href="#m96d76fc244" y="18.766875"/>
      </g>
     </g>
     <g id="text_6">
      <!-- 10 -->
      <defs>
       <path d="M 12.40625 8.296875 
L 28.515625 8.296875 
L 28.515625 63.921875 
L 10.984375 60.40625 
L 10.984375 69.390625 
L 28.421875 72.90625 
L 38.28125 72.90625 
L 38.28125 8.296875 
L 54.390625 8.296875 
L 54.390625 0 
L 12.40625 0 
z
" id="BitstreamVeraSans-Roman-31"/>
      </defs>
      <g transform="translate(298.5884375 461.544375)scale(0.12 -0.12)">
       <use xlink:href="#BitstreamVeraSans-Roman-31"/>
       <use x="63.623046875" xlink:href="#BitstreamVeraSans-Roman-30"/>
      </g>
     </g>
    </g>
    <g id="xtick_7">
     <g id="line2d_14">
      <g>
       <use style="stroke:#000000;stroke-width:0.5;" x="354.859375" xlink:href="#m6f17b63d9e" y="448.42625"/>
      </g>
     </g>
     <g id="line2d_15">
      <g>
       <use style="stroke:#000000;stroke-width:0.5;" x="354.859375" xlink:href="#m96d76fc244" y="18.766875"/>
      </g>
     </g>
     <g id="text_7">
      <!-- 12 -->
      <g transform="translate(347.224375 461.544375)scale(0.12 -0.12)">
       <use xlink:href="#BitstreamVeraSans-Roman-31"/>
       <use x="63.623046875" xlink:href="#BitstreamVeraSans-Roman-32"/>
      </g>
     </g>
    </g>
    <g id="xtick_8">
     <g id="line2d_16">
      <g>
       <use style="stroke:#000000;stroke-width:0.5;" x="403.4953125" xlink:href="#m6f17b63d9e" y="448.42625"/>
      </g>
     </g>
     <g id="line2d_17">
      <g>
       <use style="stroke:#000000;stroke-width:0.5;" x="403.4953125" xlink:href="#m96d76fc244" y="18.766875"/>
      </g>
     </g>
     <g id="text_8">
      <!-- 14 -->
      <g transform="translate(395.8603125 461.544375)scale(0.12 -0.12)">
       <use xlink:href="#BitstreamVeraSans-Roman-31"/>
       <use x="63.623046875" xlink:href="#BitstreamVeraSans-Roman-34"/>
      </g>
     </g>
    </g>
    <g id="xtick_9">
     <g id="line2d_18">
      <g>
       <use style="stroke:#000000;stroke-width:0.5;" x="452.13125" xlink:href="#m6f17b63d9e" y="448.42625"/>
      </g>
     </g>
     <g id="line2d_19">
      <g>
       <use style="stroke:#000000;stroke-width:0.5;" x="452.13125" xlink:href="#m96d76fc244" y="18.766875"/>
      </g>
     </g>
     <g id="text_9">
      <!-- 16 -->
      <g transform="translate(444.49625 461.544375)scale(0.12 -0.12)">
       <use xlink:href="#BitstreamVeraSans-Roman-31"/>
       <use x="63.623046875" xlink:href="#BitstreamVeraSans-Roman-36"/>
      </g>
     </g>
    </g>
    <g id="text_10">
     <!-- $S\quad(\mu gC cm^{-3})$ -->
     <defs>
      <path d="M 6.109375 -2.203125 
Q 5.8125 -2.203125 5.5625 -1.859375 
Q 5.328125 -1.515625 5.328125 -1.21875 
L 11.078125 22.125 
Q 11.28125 22.703125 11.921875 22.703125 
L 13.09375 22.703125 
Q 13.484375 22.703125 13.703125 22.40625 
Q 13.921875 22.125 13.921875 21.6875 
Q 13.09375 18.265625 13.09375 15.578125 
Q 13.09375 8.34375 18.0625 4.828125 
Q 23.046875 1.3125 30.609375 1.3125 
Q 33.890625 1.3125 37.0625 2.921875 
Q 40.234375 4.546875 42.59375 7.125 
Q 44.96875 9.71875 46.375 12.90625 
Q 47.796875 16.109375 47.796875 19.390625 
Q 47.796875 22.90625 45.9375 25.65625 
Q 44.09375 28.421875 40.828125 29.203125 
L 28.609375 32.421875 
Q 23.6875 33.734375 20.75 37.71875 
Q 17.828125 41.703125 17.828125 46.6875 
Q 17.828125 52.6875 21.390625 58.25 
Q 24.953125 63.8125 30.6875 67.15625 
Q 36.421875 70.515625 42.390625 70.515625 
Q 46.96875 70.515625 50.796875 68.828125 
Q 54.640625 67.140625 56.6875 63.484375 
L 62.40625 70.21875 
Q 62.984375 70.515625 63.09375 70.515625 
L 63.71875 70.515625 
Q 64.109375 70.515625 64.34375 70.171875 
Q 64.59375 69.828125 64.59375 69.484375 
L 58.796875 46.296875 
Q 58.640625 45.609375 58.015625 45.609375 
L 56.78125 45.609375 
Q 55.90625 45.609375 55.90625 46.6875 
Q 56.390625 49.859375 56.390625 52.203125 
Q 56.390625 56.84375 54.796875 60.28125 
Q 53.21875 63.71875 50.015625 65.5 
Q 46.828125 67.28125 42.09375 67.28125 
Q 38.09375 67.28125 34.125 64.984375 
Q 30.171875 62.703125 27.734375 58.890625 
Q 25.296875 55.078125 25.296875 50.984375 
Q 25.296875 47.75 27.171875 45.265625 
Q 29.046875 42.78125 32.171875 41.890625 
L 44.390625 38.71875 
Q 47.703125 37.84375 50.171875 35.625 
Q 52.640625 33.40625 53.90625 30.34375 
Q 55.171875 27.296875 55.171875 23.6875 
Q 55.171875 18.953125 53.171875 14.328125 
Q 51.171875 9.71875 47.578125 5.90625 
Q 44 2.09375 39.453125 -0.046875 
Q 34.90625 -2.203125 30.171875 -2.203125 
Q 18.265625 -2.203125 13.09375 4.78125 
L 7.515625 -1.90625 
Q 6.9375 -2.203125 6.78125 -2.203125 
z
" id="Cmmi10-53"/>
      <path d="M 7.71875 1.703125 
Q 7.71875 2.296875 7.8125 2.59375 
L 15.28125 32.421875 
Q 16.015625 35.203125 16.015625 37.3125 
Q 16.015625 41.609375 13.09375 41.609375 
Q 9.96875 41.609375 8.453125 37.859375 
Q 6.9375 34.125 5.515625 28.421875 
Q 5.515625 28.125 5.21875 27.953125 
Q 4.9375 27.78125 4.6875 27.78125 
L 3.515625 27.78125 
Q 3.171875 27.78125 2.921875 28.140625 
Q 2.6875 28.515625 2.6875 28.8125 
Q 3.765625 33.15625 4.765625 36.171875 
Q 5.765625 39.203125 7.890625 41.6875 
Q 10.015625 44.1875 13.1875 44.1875 
Q 16.9375 44.1875 19.8125 41.8125 
Q 22.703125 39.453125 22.703125 35.796875 
Q 25.6875 39.703125 29.6875 41.9375 
Q 33.6875 44.1875 38.1875 44.1875 
Q 42.921875 44.1875 46.359375 41.765625 
Q 49.8125 39.359375 49.8125 34.90625 
Q 52.875 39.265625 57 41.71875 
Q 61.140625 44.1875 66.015625 44.1875 
Q 71.1875 44.1875 74.328125 41.375 
Q 77.484375 38.578125 77.484375 33.40625 
Q 77.484375 29.296875 75.65625 23.484375 
Q 73.828125 17.671875 71.09375 10.5 
Q 69.671875 7.03125 69.671875 4.5 
Q 69.671875 1.515625 72.015625 1.515625 
Q 75.921875 1.515625 78.515625 5.703125 
Q 81.109375 9.90625 82.171875 14.703125 
Q 82.46875 15.28125 83.015625 15.28125 
L 84.1875 15.28125 
Q 84.578125 15.28125 84.84375 15.015625 
Q 85.109375 14.75 85.109375 14.40625 
Q 85.109375 14.3125 85.015625 14.109375 
Q 83.640625 8.453125 80.25 3.65625 
Q 76.859375 -1.125 71.78125 -1.125 
Q 68.265625 -1.125 65.765625 1.296875 
Q 63.28125 3.71875 63.28125 7.171875 
Q 63.28125 8.9375 64.109375 11.078125 
Q 66.9375 18.609375 68.8125 24.515625 
Q 70.703125 30.421875 70.703125 34.90625 
Q 70.703125 37.703125 69.578125 39.65625 
Q 68.453125 41.609375 65.828125 41.609375 
Q 60.359375 41.609375 56.34375 38.25 
Q 52.34375 34.90625 49.421875 29.390625 
Q 49.21875 28.421875 49.125 27.875 
L 42.671875 2.203125 
Q 42.328125 0.828125 41.125 -0.140625 
Q 39.9375 -1.125 38.484375 -1.125 
Q 37.3125 -1.125 36.40625 -0.34375 
Q 35.5 0.4375 35.5 1.703125 
Q 35.5 2.296875 35.59375 2.59375 
L 42 28.078125 
Q 43.015625 32.171875 43.015625 34.90625 
Q 43.015625 37.703125 41.859375 39.65625 
Q 40.71875 41.609375 37.984375 41.609375 
Q 34.328125 41.609375 31.25 39.984375 
Q 28.171875 38.375 25.875 35.71875 
Q 23.578125 33.0625 21.6875 29.390625 
L 14.890625 2.203125 
Q 14.546875 0.828125 13.34375 -0.140625 
Q 12.15625 -1.125 10.6875 -1.125 
Q 9.46875 -1.125 8.59375 -0.34375 
Q 7.71875 0.4375 7.71875 1.703125 
" id="Cmmi10-6d"/>
      <path d="M 6.5 -25 
Q 5.609375 -25 5.609375 -24.125 
Q 5.609375 -23.6875 5.8125 -23.484375 
Q 22.90625 -6.78125 22.90625 25 
Q 22.90625 56.78125 6 73.296875 
Q 5.609375 73.53125 5.609375 74.125 
Q 5.609375 74.46875 5.875 74.734375 
Q 6.15625 75 6.5 75 
L 7.421875 75 
Q 7.71875 75 7.90625 74.8125 
Q 15.09375 69.140625 19.875 61.03125 
Q 24.65625 52.9375 26.875 43.75 
Q 29.109375 34.578125 29.109375 25 
Q 29.109375 17.921875 27.90625 11.0625 
Q 26.703125 4.203125 24.09375 -2.453125 
Q 21.484375 -9.125 17.484375 -14.765625 
Q 13.484375 -20.40625 7.90625 -24.8125 
Q 7.71875 -25 7.421875 -25 
z
" id="Cmr10-29"/>
      <path d="M 11.71875 11.921875 
Q 11.71875 7.5625 13.9375 4.53125 
Q 16.15625 1.515625 20.3125 1.515625 
Q 26.265625 1.515625 31.75 4.25 
Q 37.25 6.984375 40.71875 11.8125 
Q 41.015625 12.109375 41.5 12.109375 
Q 42 12.109375 42.5 11.546875 
Q 43.015625 10.984375 43.015625 10.5 
Q 43.015625 10.109375 42.828125 9.90625 
Q 39.15625 4.78125 32.953125 1.828125 
Q 26.765625 -1.125 20.125 -1.125 
Q 15.328125 -1.125 11.671875 1.140625 
Q 8.015625 3.421875 6 7.21875 
Q 4 11.03125 4 15.828125 
Q 4 22.5625 7.765625 29.203125 
Q 11.53125 35.84375 17.78125 40.015625 
Q 24.03125 44.1875 30.90625 44.1875 
Q 35.40625 44.1875 38.984375 42.015625 
Q 42.578125 39.84375 42.578125 35.59375 
Q 42.578125 32.859375 40.984375 30.921875 
Q 39.40625 29 36.71875 29 
Q 35.109375 29 34 30 
Q 32.90625 31 32.90625 32.625 
Q 32.90625 34.96875 34.609375 36.625 
Q 36.328125 38.28125 38.625 38.28125 
L 38.8125 38.28125 
Q 37.640625 39.984375 35.421875 40.796875 
Q 33.203125 41.609375 30.8125 41.609375 
Q 24.953125 41.609375 20.546875 36.59375 
Q 16.15625 31.59375 13.9375 24.625 
Q 11.71875 17.671875 11.71875 11.921875 
" id="Cmmi10-63"/>
      <path d="M 31 -24.8125 
Q 25.4375 -20.40625 21.40625 -14.71875 
Q 17.390625 -9.03125 14.8125 -2.578125 
Q 12.25 3.859375 10.984375 10.890625 
Q 9.71875 17.921875 9.71875 25 
Q 9.71875 32.171875 10.984375 39.203125 
Q 12.25 46.234375 14.859375 52.734375 
Q 17.484375 59.234375 21.53125 64.890625 
Q 25.59375 70.5625 31 74.8125 
Q 31 75 31.5 75 
L 32.421875 75 
Q 32.71875 75 32.953125 74.734375 
Q 33.203125 74.46875 33.203125 74.125 
Q 33.203125 73.6875 33.015625 73.484375 
Q 28.125 68.703125 24.875 63.234375 
Q 21.625 57.765625 19.640625 51.578125 
Q 17.671875 45.40625 16.796875 38.78125 
Q 15.921875 32.171875 15.921875 25 
Q 15.921875 -6.78125 32.90625 -23.296875 
Q 33.203125 -23.578125 33.203125 -24.125 
Q 33.203125 -24.359375 32.9375 -24.671875 
Q 32.671875 -25 32.421875 -25 
L 31.5 -25 
Q 31 -25 31 -24.8125 
" id="Cmr10-28"/>
      <path d="M 9.515625 7.71875 
Q 11.859375 4.296875 15.8125 2.640625 
Q 19.78125 0.984375 24.3125 0.984375 
Q 30.125 0.984375 32.5625 5.9375 
Q 35.015625 10.890625 35.015625 17.1875 
Q 35.015625 20.015625 34.5 22.84375 
Q 33.984375 25.6875 32.765625 28.125 
Q 31.546875 30.5625 29.421875 32.03125 
Q 27.296875 33.5 24.21875 33.5 
L 17.578125 33.5 
Q 16.703125 33.5 16.703125 34.421875 
L 16.703125 35.296875 
Q 16.703125 36.078125 17.578125 36.078125 
L 23.09375 36.53125 
Q 26.609375 36.53125 28.921875 39.15625 
Q 31.25 41.796875 32.328125 45.578125 
Q 33.40625 49.359375 33.40625 52.78125 
Q 33.40625 57.5625 31.15625 60.640625 
Q 28.90625 63.71875 24.3125 63.71875 
Q 20.515625 63.71875 17.046875 62.28125 
Q 13.578125 60.84375 11.53125 57.90625 
Q 11.71875 57.953125 11.859375 57.984375 
Q 12.015625 58.015625 12.203125 58.015625 
Q 14.453125 58.015625 15.96875 56.453125 
Q 17.484375 54.890625 17.484375 52.6875 
Q 17.484375 50.53125 15.96875 48.96875 
Q 14.453125 47.40625 12.203125 47.40625 
Q 10.015625 47.40625 8.453125 48.96875 
Q 6.890625 50.53125 6.890625 52.6875 
Q 6.890625 56.984375 9.46875 60.15625 
Q 12.0625 63.328125 16.140625 64.96875 
Q 20.21875 66.609375 24.3125 66.609375 
Q 27.34375 66.609375 30.703125 65.703125 
Q 34.078125 64.796875 36.8125 63.109375 
Q 39.546875 61.421875 41.28125 58.78125 
Q 43.015625 56.15625 43.015625 52.78125 
Q 43.015625 48.578125 41.140625 45.015625 
Q 39.265625 41.453125 35.984375 38.859375 
Q 32.71875 36.28125 28.8125 35.015625 
Q 33.15625 34.1875 37.0625 31.734375 
Q 40.96875 29.296875 43.328125 25.484375 
Q 45.703125 21.6875 45.703125 17.28125 
Q 45.703125 11.765625 42.671875 7.296875 
Q 39.65625 2.828125 34.71875 0.3125 
Q 29.78125 -2.203125 24.3125 -2.203125 
Q 19.625 -2.203125 14.90625 -0.40625 
Q 10.203125 1.375 7.203125 4.9375 
Q 4.203125 8.5 4.203125 13.484375 
Q 4.203125 15.96875 5.859375 17.625 
Q 7.515625 19.28125 10.015625 19.28125 
Q 11.625 19.28125 12.96875 18.53125 
Q 14.3125 17.78125 15.0625 16.40625 
Q 15.828125 15.046875 15.828125 13.484375 
Q 15.828125 11.03125 14.109375 9.375 
Q 12.40625 7.71875 10.015625 7.71875 
z
" id="Cmr10-33"/>
      <path d="M 2.78125 -18.796875 
Q 2.78125 -18.21875 2.875 -18.015625 
L 17.578125 41.015625 
Q 18.015625 42.4375 19.15625 43.3125 
Q 20.3125 44.1875 21.78125 44.1875 
Q 23.046875 44.1875 23.921875 43.421875 
Q 24.8125 42.671875 24.8125 41.40625 
Q 24.8125 41.109375 24.78125 40.9375 
Q 24.75 40.765625 24.703125 40.578125 
L 18.796875 17.1875 
Q 17.828125 13.03125 17.828125 10.015625 
Q 17.828125 6.296875 19.578125 3.90625 
Q 21.34375 1.515625 24.90625 1.515625 
Q 32.171875 1.515625 37.703125 10.59375 
Q 37.75 10.6875 37.765625 10.734375 
Q 37.796875 10.796875 37.796875 10.890625 
L 45.015625 39.890625 
Q 45.359375 41.21875 46.578125 42.15625 
Q 47.796875 43.109375 49.21875 43.109375 
Q 50.390625 43.109375 51.296875 42.328125 
Q 52.203125 41.546875 52.203125 40.28125 
Q 52.203125 39.703125 52.09375 39.5 
L 44.921875 10.6875 
Q 44.1875 7.859375 44.1875 5.8125 
Q 44.1875 1.515625 47.125 1.515625 
Q 50.25 1.515625 51.828125 5.375 
Q 53.421875 9.234375 54.59375 14.703125 
Q 54.78125 15.28125 55.421875 15.28125 
L 56.59375 15.28125 
Q 56.984375 15.28125 57.25 14.96875 
Q 57.515625 14.65625 57.515625 14.3125 
Q 55.765625 7.328125 53.6875 3.09375 
Q 51.609375 -1.125 46.921875 -1.125 
Q 43.609375 -1.125 41.046875 0.78125 
Q 38.484375 2.6875 37.703125 5.90625 
Q 35.203125 2.78125 31.859375 0.828125 
Q 28.515625 -1.125 24.8125 -1.125 
Q 18.5625 -1.125 14.984375 1.8125 
L 9.90625 -18.40625 
Q 9.625 -19.828125 8.453125 -20.703125 
Q 7.28125 -21.578125 5.8125 -21.578125 
Q 4.59375 -21.578125 3.6875 -20.8125 
Q 2.78125 -20.0625 2.78125 -18.796875 
" id="Cmmi10-b9"/>
      <path d="M 14.59375 21.578125 
Q 14.59375 15.578125 16.90625 11.015625 
Q 19.234375 6.453125 23.65625 3.875 
Q 28.078125 1.3125 34.078125 1.3125 
Q 40.375 1.3125 46.203125 4.53125 
Q 52.046875 7.765625 56.171875 13.15625 
Q 60.296875 18.5625 61.8125 24.609375 
Q 62.015625 25.203125 62.59375 25.203125 
L 63.8125 25.203125 
Q 64.203125 25.203125 64.453125 24.921875 
Q 64.703125 24.65625 64.703125 24.3125 
Q 64.703125 24.21875 64.59375 24.03125 
Q 62.890625 17.09375 57.984375 11.015625 
Q 53.078125 4.9375 46.234375 1.359375 
Q 39.40625 -2.203125 32.171875 -2.203125 
Q 24.359375 -2.203125 18.15625 1.3125 
Q 11.96875 4.828125 8.515625 11.078125 
Q 5.078125 17.328125 5.078125 25.203125 
Q 5.078125 33.59375 8.828125 41.8125 
Q 12.59375 50.046875 18.9375 56.46875 
Q 25.296875 62.890625 33.421875 66.703125 
Q 41.546875 70.515625 49.90625 70.515625 
Q 53.21875 70.515625 56.25 69.5 
Q 59.28125 68.5 61.859375 66.453125 
Q 64.453125 64.40625 66.109375 61.71875 
L 74.03125 70.3125 
Q 74.03125 70.515625 74.515625 70.515625 
L 75.09375 70.515625 
Q 75.484375 70.515625 75.734375 70.171875 
Q 75.984375 69.828125 75.984375 69.484375 
L 69.1875 42.484375 
Q 69.1875 41.796875 68.40625 41.796875 
L 66.609375 41.796875 
Q 65.828125 41.796875 65.828125 42.921875 
Q 66.21875 45.125 66.21875 48.1875 
Q 66.21875 53.078125 64.546875 57.390625 
Q 62.890625 61.71875 59.390625 64.359375 
Q 55.90625 67 50.875 67 
Q 42.71875 67 35.9375 62.890625 
Q 29.15625 58.796875 24.4375 52.125 
Q 19.734375 45.453125 17.15625 37.328125 
Q 14.59375 29.203125 14.59375 21.578125 
" id="Cmmi10-43"/>
      <path d="M 10.203125 23 
Q 9.375 23 8.828125 23.625 
Q 8.296875 24.265625 8.296875 25 
Q 8.296875 25.734375 8.828125 26.359375 
Q 9.375 27 10.203125 27 
L 67.578125 27 
Q 68.359375 27 68.875 26.359375 
Q 69.390625 25.734375 69.390625 25 
Q 69.390625 24.265625 68.875 23.625 
Q 68.359375 23 67.578125 23 
z
" id="Cmsy10-a1"/>
      <path d="M 1.421875 -14.3125 
Q 1.421875 -11.859375 3.09375 -10.03125 
Q 4.78125 -8.203125 7.171875 -8.203125 
Q 8.796875 -8.203125 9.890625 -9.203125 
Q 10.984375 -10.203125 10.984375 -11.8125 
Q 10.984375 -13.625 9.953125 -15.0625 
Q 8.9375 -16.5 7.328125 -17.09375 
Q 10.015625 -17.921875 15.71875 -17.921875 
Q 20.3125 -17.921875 24.125 -14.375 
Q 27.9375 -10.84375 29.109375 -6.203125 
L 31.984375 5.515625 
Q 26.5625 0 20.703125 0 
Q 16.40625 0 13.34375 2.1875 
Q 10.296875 4.390625 8.6875 8.046875 
Q 7.078125 11.71875 7.078125 15.828125 
Q 7.078125 20.40625 8.953125 25.4375 
Q 10.84375 30.46875 14.234375 34.765625 
Q 17.625 39.0625 22.015625 41.625 
Q 26.421875 44.1875 31.296875 44.1875 
Q 34.234375 44.1875 36.578125 42.578125 
Q 38.921875 40.96875 40.28125 38.28125 
Q 41.265625 42.1875 44.578125 42.1875 
Q 45.84375 42.1875 46.71875 41.421875 
Q 47.609375 40.671875 47.609375 39.40625 
Q 47.609375 39.109375 47.578125 38.953125 
Q 47.5625 38.8125 47.515625 38.625 
L 36.078125 -6.78125 
Q 35.296875 -9.90625 33.203125 -12.5 
Q 31.109375 -15.09375 28.265625 -16.828125 
Q 25.4375 -18.5625 22.0625 -19.53125 
Q 18.703125 -20.515625 15.578125 -20.515625 
Q 9.859375 -20.515625 5.640625 -19.40625 
Q 1.421875 -18.3125 1.421875 -14.3125 
M 20.90625 2.59375 
Q 27.296875 2.59375 33.5 11.375 
L 39.015625 33.203125 
Q 38.328125 36.671875 36.28125 39.140625 
Q 34.234375 41.609375 31.109375 41.609375 
Q 27.78125 41.609375 24.828125 38.890625 
Q 21.875 36.1875 19.921875 32.421875 
Q 18.0625 28.8125 16.328125 22.046875 
Q 14.59375 15.28125 14.59375 11.375 
Q 14.59375 7.953125 16.15625 5.265625 
Q 17.71875 2.59375 20.90625 2.59375 
" id="Cmmi10-67"/>
     </defs>
     <g transform="translate(213.041875 486.04)scale(0.2 -0.2)">
      <use transform="translate(0.0 0.109375)" xlink:href="#Cmmi10-53"/>
      <use transform="translate(149.072265625 0.109375)" xlink:href="#Cmr10-28"/>
      <use transform="translate(187.890625 0.109375)" xlink:href="#Cmmi10-b9"/>
      <use transform="translate(248.095703125 0.109375)" xlink:href="#Cmmi10-67"/>
      <use transform="translate(295.80078125 0.109375)" xlink:href="#Cmmi10-43"/>
      <use transform="translate(367.1875 0.109375)" xlink:href="#Cmmi10-63"/>
      <use transform="translate(410.400390625 0.109375)" xlink:href="#Cmmi10-6d"/>
      <use transform="translate(504.496640625 38.3734375)scale(0.7)" xlink:href="#Cmsy10-a1"/>
      <use transform="translate(558.8765234374999 38.3734375)scale(0.7)" xlink:href="#Cmr10-33"/>
      <use transform="translate(600.2538671875 0.109375)" xlink:href="#Cmr10-29"/>
     </g>
    </g>
   </g>
   <g id="matplotlib.axis_2">
    <g id="ytick_1">
     <g id="line2d_20">
      <defs>
       <path d="M 0 0 
L 4 0 
" id="mf1c42e4983" style="stroke:#000000;stroke-width:0.5;"/>
      </defs>
      <g>
       <use style="stroke:#000000;stroke-width:0.5;" x="63.04375" xlink:href="#mf1c42e4983" y="425.201418919"/>
      </g>
     </g>
     <g id="line2d_21">
      <defs>
       <path d="M 0 0 
L -4 0 
" id="m492db4bfd5" style="stroke:#000000;stroke-width:0.5;"/>
      </defs>
      <g>
       <use style="stroke:#000000;stroke-width:0.5;" x="491.04" xlink:href="#m492db4bfd5" y="425.201418919"/>
      </g>
     </g>
     <g id="text_11">
      <!-- 0.8 -->
      <defs>
       <path d="M 10.6875 12.40625 
L 21 12.40625 
L 21 0 
L 10.6875 0 
z
" id="BitstreamVeraSans-Roman-2e"/>
      </defs>
      <g transform="translate(39.96 428.512668919)scale(0.12 -0.12)">
       <use xlink:href="#BitstreamVeraSans-Roman-30"/>
       <use x="63.623046875" xlink:href="#BitstreamVeraSans-Roman-2e"/>
       <use x="95.41015625" xlink:href="#BitstreamVeraSans-Roman-38"/>
      </g>
     </g>
    </g>
    <g id="ytick_2">
     <g id="line2d_22">
      <g>
       <use style="stroke:#000000;stroke-width:0.5;" x="63.04375" xlink:href="#mf1c42e4983" y="367.139341216"/>
      </g>
     </g>
     <g id="line2d_23">
      <g>
       <use style="stroke:#000000;stroke-width:0.5;" x="491.04" xlink:href="#m492db4bfd5" y="367.139341216"/>
      </g>
     </g>
     <g id="text_12">
      <!-- 1.0 -->
      <g transform="translate(39.96 370.450591216)scale(0.12 -0.12)">
       <use xlink:href="#BitstreamVeraSans-Roman-31"/>
       <use x="63.623046875" xlink:href="#BitstreamVeraSans-Roman-2e"/>
       <use x="95.41015625" xlink:href="#BitstreamVeraSans-Roman-30"/>
      </g>
     </g>
    </g>
    <g id="ytick_3">
     <g id="line2d_24">
      <g>
       <use style="stroke:#000000;stroke-width:0.5;" x="63.04375" xlink:href="#mf1c42e4983" y="309.077263514"/>
      </g>
     </g>
     <g id="line2d_25">
      <g>
       <use style="stroke:#000000;stroke-width:0.5;" x="491.04" xlink:href="#m492db4bfd5" y="309.077263514"/>
      </g>
     </g>
     <g id="text_13">
      <!-- 1.2 -->
      <g transform="translate(39.96 312.388513514)scale(0.12 -0.12)">
       <use xlink:href="#BitstreamVeraSans-Roman-31"/>
       <use x="63.623046875" xlink:href="#BitstreamVeraSans-Roman-2e"/>
       <use x="95.41015625" xlink:href="#BitstreamVeraSans-Roman-32"/>
      </g>
     </g>
    </g>
    <g id="ytick_4">
     <g id="line2d_26">
      <g>
       <use style="stroke:#000000;stroke-width:0.5;" x="63.04375" xlink:href="#mf1c42e4983" y="251.015185811"/>
      </g>
     </g>
     <g id="line2d_27">
      <g>
       <use style="stroke:#000000;stroke-width:0.5;" x="491.04" xlink:href="#m492db4bfd5" y="251.015185811"/>
      </g>
     </g>
     <g id="text_14">
      <!-- 1.4 -->
      <g transform="translate(39.96 254.326435811)scale(0.12 -0.12)">
       <use xlink:href="#BitstreamVeraSans-Roman-31"/>
       <use x="63.623046875" xlink:href="#BitstreamVeraSans-Roman-2e"/>
       <use x="95.41015625" xlink:href="#BitstreamVeraSans-Roman-34"/>
      </g>
     </g>
    </g>
    <g id="ytick_5">
     <g id="line2d_28">
      <g>
       <use style="stroke:#000000;stroke-width:0.5;" x="63.04375" xlink:href="#mf1c42e4983" y="192.953108108"/>
      </g>
     </g>
     <g id="line2d_29">
      <g>
       <use style="stroke:#000000;stroke-width:0.5;" x="491.04" xlink:href="#m492db4bfd5" y="192.953108108"/>
      </g>
     </g>
     <g id="text_15">
      <!-- 1.6 -->
      <g transform="translate(39.96 196.264358108)scale(0.12 -0.12)">
       <use xlink:href="#BitstreamVeraSans-Roman-31"/>
       <use x="63.623046875" xlink:href="#BitstreamVeraSans-Roman-2e"/>
       <use x="95.41015625" xlink:href="#BitstreamVeraSans-Roman-36"/>
      </g>
     </g>
    </g>
    <g id="ytick_6">
     <g id="line2d_30">
      <g>
       <use style="stroke:#000000;stroke-width:0.5;" x="63.04375" xlink:href="#mf1c42e4983" y="134.891030405"/>
      </g>
     </g>
     <g id="line2d_31">
      <g>
       <use style="stroke:#000000;stroke-width:0.5;" x="491.04" xlink:href="#m492db4bfd5" y="134.891030405"/>
      </g>
     </g>
     <g id="text_16">
      <!-- 1.8 -->
      <g transform="translate(39.96 138.202280405)scale(0.12 -0.12)">
       <use xlink:href="#BitstreamVeraSans-Roman-31"/>
       <use x="63.623046875" xlink:href="#BitstreamVeraSans-Roman-2e"/>
       <use x="95.41015625" xlink:href="#BitstreamVeraSans-Roman-38"/>
      </g>
     </g>
    </g>
    <g id="ytick_7">
     <g id="line2d_32">
      <g>
       <use style="stroke:#000000;stroke-width:0.5;" x="63.04375" xlink:href="#mf1c42e4983" y="76.8289527027"/>
      </g>
     </g>
     <g id="line2d_33">
      <g>
       <use style="stroke:#000000;stroke-width:0.5;" x="491.04" xlink:href="#m492db4bfd5" y="76.8289527027"/>
      </g>
     </g>
     <g id="text_17">
      <!-- 2.0 -->
      <g transform="translate(39.96 80.1402027027)scale(0.12 -0.12)">
       <use xlink:href="#BitstreamVeraSans-Roman-32"/>
       <use x="63.623046875" xlink:href="#BitstreamVeraSans-Roman-2e"/>
       <use x="95.41015625" xlink:href="#BitstreamVeraSans-Roman-30"/>
      </g>
     </g>
    </g>
    <g id="ytick_8">
     <g id="line2d_34">
      <g>
       <use style="stroke:#000000;stroke-width:0.5;" x="63.04375" xlink:href="#mf1c42e4983" y="18.766875"/>
      </g>
     </g>
     <g id="line2d_35">
      <g>
       <use style="stroke:#000000;stroke-width:0.5;" x="491.04" xlink:href="#m492db4bfd5" y="18.766875"/>
      </g>
     </g>
     <g id="text_18">
      <!-- 2.2 -->
      <g transform="translate(39.96 22.078125)scale(0.12 -0.12)">
       <use xlink:href="#BitstreamVeraSans-Roman-32"/>
       <use x="63.623046875" xlink:href="#BitstreamVeraSans-Roman-2e"/>
       <use x="95.41015625" xlink:href="#BitstreamVeraSans-Roman-32"/>
      </g>
     </g>
    </g>
    <g id="text_19">
     <!-- $X\quad(\mu gC cm^{-3})$ -->
     <defs>
      <path d="M 3.609375 0 
Q 2.59375 0 2.59375 1.3125 
Q 2.640625 1.5625 2.8125 2.1875 
Q 2.984375 2.828125 3.25 3.171875 
Q 3.515625 3.515625 4 3.515625 
Q 13.09375 3.515625 19.578125 10.296875 
Q 19.671875 10.40625 19.796875 10.453125 
Q 19.921875 10.5 19.921875 10.5 
L 41.796875 34.078125 
L 29.890625 62.796875 
Q 28.859375 64.109375 26.5625 64.453125 
Q 24.265625 64.796875 21.1875 64.796875 
Q 20.21875 64.796875 20.21875 66.109375 
Q 20.5625 67.390625 20.75 67.84375 
Q 20.953125 68.3125 21.921875 68.3125 
L 46.921875 68.3125 
Q 47.90625 68.3125 47.90625 67 
Q 47.859375 66.75 47.6875 66.109375 
Q 47.515625 65.484375 47.234375 65.140625 
Q 46.96875 64.796875 46.484375 64.796875 
Q 44.625 64.796875 42.640625 64.1875 
Q 40.671875 63.578125 39.890625 62.203125 
L 48.484375 41.5 
L 64.890625 59.078125 
Q 65.046875 59.421875 65.578125 60.28125 
Q 66.109375 61.140625 66.109375 61.921875 
Q 66.109375 63.375 64.84375 64.078125 
Q 63.578125 64.796875 61.8125 64.796875 
Q 60.796875 64.796875 60.796875 66.109375 
Q 61.140625 67.390625 61.328125 67.84375 
Q 61.53125 68.3125 62.5 68.3125 
L 84.1875 68.3125 
Q 84.71875 68.3125 84.953125 67.921875 
Q 85.203125 67.53125 85.203125 67 
Q 85.15625 66.75 85 66.15625 
Q 84.859375 65.578125 84.609375 65.1875 
Q 84.375 64.796875 83.890625 64.796875 
Q 79.25 64.796875 75.359375 63.109375 
Q 71.484375 61.421875 68.21875 58.015625 
Q 68.171875 57.953125 68.09375 57.921875 
Q 68.015625 57.90625 67.921875 57.8125 
L 49.8125 38.28125 
L 63.484375 5.515625 
Q 65.09375 3.515625 72.21875 3.515625 
Q 73.1875 3.515625 73.1875 2.203125 
Q 72.859375 0.875 72.625 0.4375 
Q 72.40625 0 71.484375 0 
L 46.484375 0 
Q 45.515625 0 45.515625 1.3125 
Q 45.5625 1.5625 45.703125 2.171875 
Q 45.84375 2.78125 46.109375 3.140625 
Q 46.390625 3.515625 46.78125 3.515625 
Q 48.734375 3.515625 50.734375 4.125 
Q 52.734375 4.734375 53.515625 6.109375 
L 43.109375 31 
L 22.90625 9.1875 
Q 22.75 8.84375 22.21875 8 
Q 21.6875 7.171875 21.6875 6.390625 
Q 21.6875 4.9375 23.046875 4.21875 
Q 24.421875 3.515625 25.984375 3.515625 
Q 27 3.515625 27 2.203125 
Q 26.65625 0.78125 26.453125 0.390625 
Q 26.265625 0 25.296875 0 
z
" id="Cmmi10-58"/>
     </defs>
     <g transform="translate(29.96 299.6965625)rotate(-90.0)scale(0.2 -0.2)">
      <use transform="translate(0.0 0.109375)" xlink:href="#Cmmi10-58"/>
      <use transform="translate(170.60546875 0.109375)" xlink:href="#Cmr10-28"/>
      <use transform="translate(209.423828125 0.109375)" xlink:href="#Cmmi10-b9"/>
      <use transform="translate(269.62890625 0.109375)" xlink:href="#Cmmi10-67"/>
      <use transform="translate(317.333984375 0.109375)" xlink:href="#Cmmi10-43"/>
      <use transform="translate(388.720703125 0.109375)" xlink:href="#Cmmi10-63"/>
      <use transform="translate(431.93359375 0.109375)" xlink:href="#Cmmi10-6d"/>
      <use transform="translate(526.02984375 38.3734375)scale(0.7)" xlink:href="#Cmsy10-a1"/>
      <use transform="translate(580.4097265625 38.3734375)scale(0.7)" xlink:href="#Cmr10-33"/>
      <use transform="translate(621.7870703125 0.109375)" xlink:href="#Cmr10-29"/>
     </g>
    </g>
   </g>
  </g>
 </g>
 <defs>
  <clipPath id="p7919040bf4">
   <rect height="429.659375" width="427.99625" x="63.04375" y="18.766875"/>
  </clipPath>
 </defs>
</svg>
