<?xml version="1.0" encoding="UTF-8" standalone="no"?>
<svg
   xmlns:dc="http://purl.org/dc/elements/1.1/"
   xmlns:cc="http://creativecommons.org/ns#"
   xmlns:rdf="http://www.w3.org/1999/02/22-rdf-syntax-ns#"
   xmlns:svg="http://www.w3.org/2000/svg"
   xmlns="http://www.w3.org/2000/svg"
   xmlns:sodipodi="http://sodipodi.sourceforge.net/DTD/sodipodi-0.dtd"
   xmlns:inkscape="http://www.inkscape.org/namespaces/inkscape"
   version="1.0"
   width="1223.000000pt"
   height="1280.000000pt"
   viewBox="0 0 1223.000000 1280.000000"
   preserveAspectRatio="xMidYMid meet"
   id="svg18"
   sodipodi:docname="FritzC.svg"
   inkscape:version="0.92.3 (2405546, 2018-03-11)">
  <defs
     id="defs22" />
  <sodipodi:namedview
     pagecolor="#ffffff"
     bordercolor="#666666"
     borderopacity="1"
     objecttolerance="10"
     gridtolerance="10"
     guidetolerance="10"
     inkscape:pageopacity="0"
     inkscape:pageshadow="2"
     inkscape:window-width="3706"
     inkscape:window-height="2049"
     id="namedview20"
     showgrid="false"
     inkscape:zoom="0.553125"
     inkscape:cx="249.55933"
     inkscape:cy="1441.8946"
     inkscape:window-x="134"
     inkscape:window-y="55"
     inkscape:window-maximized="1"
     inkscape:current-layer="svg18" />
  <metadata
     id="metadata2">
Created by potrace 1.15, written by Peter Selinger 2001-2017
<rdf:RDF>
  <cc:Work
     rdf:about="">
    <dc:format>image/svg+xml</dc:format>
    <dc:type
       rdf:resource="http://purl.org/dc/dcmitype/StillImage" />
    <dc:title />
  </cc:Work>
</rdf:RDF>
</metadata>
  <g
     transform="matrix(0.1,0,0,-0.1,-5.7527333,1331.7746)"
     id="g16"
     style="fill:#000000;stroke:none">
    <path
       d="m 7785,12784 c -96,-34 -120,-99 -113,-313 4,-108 13,-190 38,-318 18,-94 30,-179 27,-187 -4,-9 -17,-16 -30,-16 -15,0 -34,-13 -54,-37 -62,-77 -207,-141 -413,-182 -58,-11 -222,-39 -365,-61 -554,-86 -830,-155 -1065,-266 -286,-136 -533,-376 -656,-639 -26,-55 -54,-96 -90,-131 -168,-164 -268,-463 -281,-845 -7,-197 7,-346 47,-505 36,-143 76,-228 186,-395 174,-262 360,-668 553,-1205 l 62,-172 -30,-159 c -17,-88 -31,-166 -31,-175 0,-9 21,-39 47,-68 l 46,-51 -7,-164 c -3,-92 -2,-235 4,-324 l 11,-161 -153,-167 C 5046,5726 4650,5237 4369,4825 l -54,-80 -85,-8 c -155,-14 -441,-98 -493,-145 -25,-22 -109,-163 -141,-236 -63,-141 -85,-267 -66,-363 18,-89 74,-195 145,-271 l 63,-67 -202,-313 c -110,-171 -204,-312 -208,-312 -4,0 -180,106 -390,236 -211,130 -397,243 -415,250 -47,20 -150,17 -198,-5 -59,-27 -102,-79 -200,-241 -49,-80 -92,-149 -96,-154 -4,-5 -50,19 -102,52 -102,66 -124,77 -195,93 -67,15 -136,-8 -188,-63 -64,-66 -203,-282 -479,-742 C 927,2224 775,1977 728,1905 569,1663 539,1579 574,1486 c 22,-57 92,-122 187,-174 120,-66 114,-58 83,-127 -49,-106 -30,-217 48,-292 18,-17 211,-140 428,-274 217,-133 396,-243 398,-245 2,-1 -8,-19 -21,-41 -33,-51 -50,-107 -45,-149 l 4,-34 H 844 31 L 16,128 C -6,98 -4,77 21,54 41,36 75,35 956,30 c 503,-3 914,-2 914,2 0,3 -11,19 -24,35 -47,56 -76,106 -76,132 0,29 33,89 54,97 7,3 48,-17 92,-44 99,-61 142,-75 210,-70 30,3 54,2 54,-2 0,-4 -18,-35 -41,-70 -22,-34 -38,-65 -35,-67 6,-6 3066,14 3684,23 359,6 403,8 397,22 -3,8 -59,114 -125,234 l -120,218 440,1022 c 242,562 445,1025 451,1029 6,3 68,10 137,13 70,4 239,16 377,26 137,11 252,16 256,12 4,-4 22,-53 40,-108 l 33,-102 -622,-871 c -343,-479 -624,-873 -625,-877 -1,-3 30,-16 68,-28 155,-49 272,-140 296,-229 14,-50 5,-172 -16,-245 -10,-34 -35,-74 -71,-117 L 6649,0 h 1001 1001 l -7,23 c -3,12 -206,609 -450,1326 -244,718 -442,1307 -439,1309 2,3 91,13 197,23 266,24 394,38 523,55 194,25 215,27 215,18 0,-21 110,-2008 116,-2092 l 6,-93 71,39 c 105,56 214,99 309,122 170,41 251,18 302,-83 69,-138 33,-339 -90,-508 -19,-26 -34,-52 -34,-58 0,-15 2776,-16 2814,-1 32,12 51,50 42,85 -14,57 39,55 -1342,55 -1201,0 -1266,1 -1261,18 53,163 61,293 27,403 -76,248 -275,309 -619,189 -46,-16 -86,-28 -88,-26 -4,4 -101,1742 -105,1890 l -3,100 31,9 c 24,7 37,21 54,57 16,34 27,46 39,43 19,-5 135,69 236,150 55,44 78,57 105,57 45,0 360,36 365,42 2,2 56,295 121,652 l 116,648 -46,182 c -25,99 -90,356 -145,569 -79,309 -96,387 -83,381 71,-30 319,-107 417,-129 161,-36 356,-45 473,-21 148,30 240,82 355,200 266,272 489,857 491,1291 0,165 -4,181 -48,189 -34,6 -34,7 -23,41 9,31 14,35 43,35 37,0 36,-1 55,108 12,72 13,73 54,91 55,24 87,76 87,140 0,26 -5,57 -10,68 -9,17 -6,25 20,49 60,56 75,142 38,214 l -20,39 31,50 c 64,103 42,239 -48,289 -15,9 -13,33 31,313 27,167 49,313 50,323 1,17 -24,30 -144,78 -80,31 -153,57 -162,58 -13,0 -325,-235 -373,-281 -5,-5 -27,-132 -50,-282 l -41,-272 -39,-6 c -52,-7 -96,-31 -129,-69 -55,-65 -48,-125 28,-258 l 56,-98 -21,-80 c -13,-49 -22,-113 -22,-170 -2,-83 1,-95 32,-158 20,-40 29,-71 24,-75 -6,-3 -13,-53 -17,-111 -31,-468 -164,-850 -321,-921 -51,-24 -202,-25 -295,-4 -159,37 -350,114 -526,212 l -101,56 -7,111 c -3,61 -15,155 -26,209 -18,94 -18,104 -3,200 39,254 7,898 -56,1113 l -9,31 132,6 c 202,8 327,58 446,177 116,116 165,240 158,400 -3,84 -8,105 -36,163 -98,199 -354,281 -576,183 -30,-13 -57,-22 -60,-18 -11,11 -6,51 19,144 113,427 70,830 -122,1135 l -54,87 43,35 c 216,177 348,375 393,591 21,99 19,264 -4,376 -41,199 -158,430 -313,615 -86,104 -129,140 -213,180 -170,82 -358,112 -846,133 -231,10 -336,19 -360,29 -45,18 -96,78 -125,144 -26,59 -64,194 -64,229 0,31 -9,34 -55,18 z m 118,-450 c 71,-64 112,-73 382,-84 439,-18 584,-32 742,-70 182,-43 262,-103 396,-292 164,-232 237,-435 237,-658 0,-210 -71,-375 -238,-552 -90,-95 -258,-221 -286,-214 -12,2 -73,21 -136,41 -510,161 -970,133 -1289,-80 -95,-63 -96,-64 -67,-116 58,-105 116,-293 116,-378 0,-27 -9,-34 -127,-97 -270,-145 -470,-300 -512,-395 -20,-46 -43,-205 -85,-599 l -23,-215 -7,80 c -39,414 -115,587 -282,640 -202,63 -411,-43 -523,-266 -56,-111 -75,-205 -68,-338 4,-91 0,-134 -29,-296 -64,-367 -127,-623 -179,-724 -27,-54 -94,-113 -151,-131 -20,-7 -37,-10 -39,-8 -2,1 -31,80 -65,173 -193,533 -392,964 -558,1205 -164,238 -221,461 -209,825 11,369 119,680 273,786 24,16 44,36 44,43 0,7 22,57 49,112 119,245 327,442 602,573 222,106 487,171 1040,256 399,61 544,95 672,160 l 68,35 -20,-28 c -37,-53 -167,-168 -253,-226 -48,-31 -90,-66 -93,-77 -10,-32 20,-69 57,-69 64,0 286,173 384,301 63,82 112,190 124,275 10,74 7,102 -29,284 -12,58 -24,146 -27,195 l -5,90 32,-58 c 18,-32 55,-78 82,-103 z m 757,-1869 c 127,-21 296,-66 408,-108 l 91,-34 32,21 32,20 29,-34 c 71,-85 151,-282 179,-440 32,-176 8,-494 -51,-681 -35,-112 -22,-187 48,-268 l 29,-35 98,50 c 94,47 100,49 184,49 69,0 96,-5 136,-23 126,-58 187,-179 164,-323 -25,-158 -131,-281 -296,-346 -62,-25 -80,-27 -213,-27 -114,-1 -156,3 -195,17 -67,23 -122,69 -148,126 -20,41 -26,46 -58,49 -66,6 -81,-53 -35,-132 32,-54 83,-100 150,-133 l 52,-25 27,-127 c 31,-147 47,-269 47,-363 v -68 h -87 c -140,0 -276,41 -417,124 -86,51 -229,185 -297,279 -60,82 -75,97 -101,97 -25,0 -58,-35 -58,-63 0,-31 113,-179 207,-268 193,-185 397,-276 640,-286 l 122,-6 7,-45 c 9,-60 -1,-327 -16,-425 -15,-90 7,-79 -210,-106 -345,-44 -813,-52 -1140,-21 -380,36 -743,109 -1075,217 -220,71 -870,296 -1054,365 -23,8 -22,9 22,39 92,61 136,139 192,344 34,123 93,397 115,532 l 12,72 53,-40 c 109,-82 254,-106 350,-59 40,20 51,31 53,53 4,31 -21,67 -45,67 -8,0 -37,-7 -64,-16 -43,-14 -59,-15 -104,-5 -98,22 -181,96 -213,190 -17,48 -15,176 3,245 36,138 120,253 222,302 105,52 238,29 290,-49 62,-91 102,-299 111,-579 l 7,-196 105,40 c 58,22 109,43 113,47 4,4 19,117 33,252 36,361 64,589 75,634 23,89 246,253 576,423 l 72,37 6,60 c 10,97 -32,290 -87,399 -23,45 -28,39 85,97 87,44 218,84 322,98 95,13 349,5 465,-14 z m 2805,-1614 c 60,-23 59,13 4,-336 -36,-224 -42,-252 -62,-265 -49,-32 -94,-89 -107,-134 -14,-52 -8,-128 14,-162 14,-20 13,-24 -9,-44 -58,-54 -72,-149 -33,-226 20,-41 20,-45 4,-62 -44,-50 -42,-143 4,-196 27,-30 28,-34 18,-84 l -11,-52 h -71 -72 l 102,673 c 55,369 109,727 119,795 15,103 21,122 34,117 9,-3 39,-14 66,-24 z m -185,5 c 0,-2 -9,-61 -20,-132 -11,-71 -20,-133 -20,-139 0,-5 -4,-3 -9,5 -5,9 -3,51 4,100 7,47 11,86 10,88 -1,2 -51,-31 -110,-73 -60,-41 -110,-73 -112,-71 -12,12 24,49 126,132 104,83 131,102 131,90 z m -117,-778 c -27,-179 -49,-305 -51,-283 -3,39 71,565 84,599 19,48 11,-21 -33,-316 z m 356,66 c 51,-64 10,-184 -62,-184 -38,0 -50,7 -66,37 -25,48 -5,138 36,162 33,19 70,12 92,-15 z m -685,-102 c -3,-26 -11,-77 -18,-112 l -12,-65 -28,45 c -16,24 -31,63 -34,86 -4,39 -2,43 34,68 57,38 66,35 58,-22 z m 659,-205 c 32,-42 26,-95 -13,-130 -27,-24 -39,-28 -68,-23 -52,8 -77,37 -77,90 0,64 34,98 94,94 34,-2 48,-9 64,-31 z m -412,-306 c -17,-106 -32,-195 -35,-198 -3,-3 -47,31 -99,75 -104,90 -98,73 -76,197 14,77 16,79 46,55 14,-11 30,-20 35,-20 5,0 32,-16 61,-35 l 52,-35 7,27 c 3,16 12,55 19,88 24,120 19,35 -10,-154 z m 371,46 c 12,-19 8,-81 -6,-99 -20,-26 -26,-22 -26,17 0,25 -6,37 -21,46 -26,14 -69,-3 -69,-26 0,-9 -5,-13 -11,-9 -14,8 -3,53 19,77 13,15 25,17 62,12 25,-4 48,-12 52,-18 z M 5925,7354 c 370,-135 975,-342 1136,-388 493,-141 1028,-206 1579,-193 135,4 260,10 279,13 27,6 33,4 29,-7 -5,-13 -382,-574 -398,-592 -24,-28 -1232,129 -1570,204 -374,84 -736,289 -1107,626 -50,46 -112,108 -136,136 l -45,52 21,108 c 12,59 24,107 27,107 3,0 86,-30 185,-66 z m 5066,-114 c 53,-50 53,-50 121,-50 71,0 76,-3 53,-33 -17,-23 -57,-18 -178,20 -61,19 -77,28 -73,40 3,8 6,28 6,44 0,16 4,29 9,29 5,0 33,-22 62,-50 z m -52,-175 c 38,-13 188,-46 274,-60 l 37,-6 v -52 c 0,-29 -5,-92 -10,-142 -57,-511 -330,-1062 -596,-1202 -98,-52 -176,-66 -339,-60 -199,8 -385,54 -642,159 -114,46 -122,52 -128,81 -4,18 -17,52 -29,77 -13,25 -40,96 -60,158 l -38,113 35,77 c 19,42 40,96 47,120 l 11,43 32,-20 c 66,-41 275,-140 367,-174 180,-67 250,-81 405,-82 134,0 143,1 197,28 179,88 310,395 369,865 6,50 15,92 19,92 4,0 26,-7 49,-15 z m -4996,-269 58,-49 -108,-109 -108,-109 -6,58 c -9,78 -10,269 -3,316 l 7,37 51,-47 c 28,-27 77,-70 109,-97 z m 3425,16 c 3,-22 3,-22 -33,-5 -36,17 -36,18 -14,24 34,10 44,6 47,-19 z M 6225,6591 c 88,-58 191,-113 383,-208 2,0 -77,-93 -176,-205 -586,-663 -1077,-1256 -1430,-1726 -86,-115 -160,-211 -165,-213 -4,-2 -27,41 -52,95 -24,54 -59,124 -77,154 -44,72 -135,170 -197,213 -28,19 -51,37 -51,40 0,4 41,64 91,135 357,502 865,1103 1363,1612 99,100 184,181 190,179 6,-3 61,-37 121,-76 z m 2802,-133 c -2,-18 -4,-6 -4,27 0,33 2,48 4,33 2,-15 2,-42 0,-60 z m -88,-164 c 12,-27 35,-69 50,-94 l 29,-45 -18,-180 c -26,-253 -49,-553 -57,-740 l -6,-159 -18,40 c -256,554 -374,789 -450,901 -16,23 -29,44 -29,47 0,4 38,3 84,0 l 83,-7 144,213 143,212 12,-69 c 6,-38 21,-92 33,-119 z m -1910,-34 c 255,-50 811,-130 1151,-165 l 65,-7 53,-73 c 135,-188 341,-603 606,-1226 l 96,-226 v -595 -596 l -101,-219 c -56,-120 -102,-219 -104,-221 -13,-14 -409,-67 -755,-101 -247,-25 -985,-81 -1397,-107 l -101,-6 -11,53 c -6,30 -49,250 -97,489 -47,239 -166,833 -265,1320 -98,486 -179,890 -179,897 0,13 190,236 533,625 l 208,235 76,-24 c 42,-13 142,-37 222,-53 z M 6094,4235 c 203,-1008 305,-1525 321,-1623 l 7,-43 121,6 c 67,4 128,9 136,11 16,5 76,147 -433,-1034 C 6006,995 5810,537 5810,535 c 0,-2 41,-79 91,-170 50,-92 88,-170 84,-173 -6,-7 -295,-9 -2691,-27 l -992,-7 -4,48 c -3,35 0,56 12,74 68,101 1377,2234 1393,2269 15,35 18,59 14,115 l -5,70 246,387 246,387 31,-16 c 72,-38 191,-4 274,79 87,87 165,236 211,406 31,114 28,109 43,91 20,-26 50,-29 82,-9 17,10 77,83 134,162 142,196 407,536 630,808 276,338 255,315 263,294 4,-10 104,-499 222,-1088 z m 3636,413 51,-197 -107,-593 c -58,-326 -111,-596 -118,-600 -6,-4 -27,-8 -47,-8 -20,0 -52,-3 -70,-6 l -34,-7 22,24 c 60,66 153,543 153,787 0,100 1,105 32,150 30,44 32,51 39,181 4,75 8,219 9,321 1,121 5,178 11,165 5,-11 31,-109 59,-217 z M 4521,4533 c 56,-59 103,-126 129,-189 l 21,-47 -21,-102 c -42,-215 -108,-390 -186,-496 -21,-29 -58,-62 -88,-79 -58,-34 -65,-35 -90,-17 -17,13 -16,16 17,61 38,49 57,100 57,151 0,38 -30,104 -59,129 -15,14 -21,31 -21,63 0,58 -20,102 -63,140 -116,102 -300,37 -323,-113 -8,-58 29,-138 82,-173 48,-33 140,-41 194,-16 32,15 42,15 55,5 41,-34 1,-116 -77,-157 -43,-22 -66,-27 -123,-28 -61,0 -78,5 -132,34 -83,45 -175,142 -216,228 -27,58 -32,79 -31,143 0,109 50,246 139,386 31,48 38,53 122,83 119,44 224,68 368,84 l 120,13 40,-27 c 22,-15 61,-49 86,-76 z m 4629,-197 c -7,-7 -10,18 -9,80 l 2,89 9,-79 c 6,-53 5,-83 -2,-90 z M 4134,4059 c 52,-41 24,-109 -46,-109 -71,0 -101,58 -53,105 30,30 64,32 99,4 z m 5133,-166 c 37,-51 71,-93 74,-93 4,0 30,36 59,80 29,44 55,79 57,76 14,-14 -49,-380 -92,-529 -23,-79 -26,-85 -102,-157 -74,-70 -243,-207 -243,-197 0,3 27,64 60,135 l 60,131 v 358 l 1,358 29,-35 c 16,-19 60,-76 97,-127 z M 3890,3569 c 34,-14 80,-22 123,-23 47,-1 66,-5 63,-13 -8,-20 -437,-693 -443,-693 -2,0 -49,27 -103,60 l -98,61 201,314 c 111,173 202,314 202,315 0,0 25,-10 55,-21 z m -926,-459 c 694,-427 631,-381 631,-469 l -1,-56 -694,-1124 C 2377,614 2199,333 2176,319 c -72,-44 -65,-47 -641,307 -292,180 -542,338 -558,352 -31,30 -49,84 -40,121 3,14 318,532 699,1151 479,778 702,1130 721,1142 16,10 48,18 74,18 43,0 77,-19 533,-300 z m -1223,25 c 46,-16 220,-126 216,-136 -6,-15 -1001,-1626 -1011,-1636 -9,-10 -31,-1 -101,38 -50,28 -107,67 -127,87 -68,65 -56,98 142,402 59,91 183,293 275,450 206,348 275,460 378,615 98,148 113,167 140,182 29,16 36,16 88,-2 z M 8093,1207 c 197,-578 357,-1055 357,-1059 0,-5 -345,-8 -766,-8 h -765 l 8,57 c 4,32 8,103 8,158 0,89 -3,107 -29,162 -33,73 -113,154 -199,203 l -58,32 18,28 c 41,63 1058,1480 1063,1480 3,0 166,-474 363,-1053 z"
       id="path4"
       inkscape:connector-curvature="0" />
    <path
       d="m 8692,9680 c -88,-41 -187,-107 -254,-169 -65,-59 -148,-178 -148,-211 0,-40 18,-60 55,-60 31,0 38,6 71,58 67,107 171,196 304,262 36,18 73,39 83,48 24,22 22,67 -5,86 -30,21 -33,21 -106,-14 z"
       id="path6"
       inkscape:connector-curvature="0" />
    <path
       d="m 8672,9254 c -48,-34 -66,-109 -38,-163 21,-39 58,-61 107,-61 33,0 47,6 75,34 30,30 34,40 34,86 0,46 -4,56 -34,86 -28,28 -41,34 -78,34 -24,0 -54,-7 -66,-16 z"
       id="path8"
       inkscape:connector-curvature="0" />
    <path
       d="m 6564,9014 c -17,-25 -16,-28 17,-96 41,-86 44,-150 10,-216 -25,-48 -21,-75 13,-98 38,-24 69,-4 102,63 24,47 28,70 27,128 -1,79 -29,167 -70,215 -32,39 -75,41 -99,4 z"
       id="path10"
       inkscape:connector-curvature="0" />
    <path
       d="m 8528,8326 c -129,-54 -227,-142 -279,-250 -38,-81 -47,-141 -24,-166 35,-39 105,-12 105,40 0,35 60,137 103,177 44,40 116,83 167,98 58,17 80,74 42,108 -24,22 -46,21 -114,-7 z"
       id="path12"
       inkscape:connector-curvature="0" />
    <path
       d="m 10892,7598 c -18,-18 -15,-103 3,-118 22,-18 35,-2 42,47 5,38 -9,83 -25,83 -5,0 -13,-5 -20,-12 z m 15,-75 c -3,-10 -5,-2 -5,17 0,19 2,27 5,18 2,-10 2,-26 0,-35 z"
       id="path14"
       inkscape:connector-curvature="0" />
  </g>
  <flowRoot
     xml:space="preserve"
     id="flowRoot3773"
     style="font-style:normal;font-weight:normal;font-size:40px;line-height:1.25;font-family:sans-serif;letter-spacing:0px;word-spacing:0px;fill:#ff0000;fill-opacity:1;stroke:none"
     transform="matrix(4.8503405,0,0,4.6756373,-69.783313,243.88091)"><flowRegion
       id="flowRegion3775"
       style="fill:#ff0000"><rect
         id="rect3777"
         width="55.802612"
         height="81.161957"
         x="143.09924"
         y="118.17494"
         style="fill:#ff0000" /></flowRegion><flowPara
       id="flowPara3779"
       style="font-style:normal;font-variant:normal;font-weight:bold;font-stretch:normal;font-size:64px;font-family:Chandas;-inkscape-font-specification:'Chandas Bold'">C</flowPara></flowRoot>  <path
     style="fill:#000000;fill-opacity:0;stroke-width:0.75"
     id="path54"
     d="m 674.26224,772.86385 c -2.19103,4.4136 -4.58331,8.72287 -6.51495,13.26105 -0.12034,0.41347 -0.24068,0.82695 -0.36102,1.24035 0.009,0.066 0.008,0.26115 0.0281,0.19792 0.12032,-0.3645 0.0322,-0.82132 0.27566,-1.1181 1.0744,-1.30965 5.1531,-2.9844 6.53886,-3.69307 7.41921,-4.28108 15.15107,-7.91648 22.92123,-11.50028 1.95855,-0.8031 12.60041,-6.44992 12.03444,-0.22177 -0.0659,0.72525 -0.59857,1.32772 -0.89786,1.99162 -3.99055,5.67848 -8.49029,10.90073 -13.64979,15.53685 -1.82608,-0.26887 -1.69457,2.4828 -3.02737,2.9118 -0.0782,0.0255 -0.75885,-1.5057 -0.11478,-2.4642 0.37282,-0.55485 1.15987,-0.66487 1.7398,-0.99735 -4.88367,2.7714 -9.76734,5.5428 -14.65102,8.3142 11.96709,-7.39522 24.13359,-14.46262 36.54977,-21.07582 9.59633,-5.54708 -8.99306,4.98082 -13.39124,7.63867 -0.12411,0.075 0.23946,0.21465 0.24494,0.35955 0.0267,0.70478 0.34693,1.61145 -0.15144,2.11058 -0.63177,0.63277 -1.73561,0.43087 -2.60298,0.64807 -1.21594,0.3045 -2.43128,0.6114 -3.64692,0.9171 -6.01409,1.38255 -11.88466,3.42525 -18.00667,4.32383 -1.18568,0.17407 -2.37992,0.38745 -3.57781,0.3528 -0.88342,-0.0255 -1.73172,-0.35438 -2.59757,-0.53153 -0.53474,-0.55717 -1.29157,-0.96532 -1.60421,-1.67145 -2.18837,-4.9428 4.60678,-13.83097 7.12474,-17.64907 2.33258,-4.51988 8.99208,-9.95048 10.18557,-14.82473 0.10783,-0.4404 -0.0517,-0.90532 -0.0775,-1.35802 -0.41701,-0.24788 -0.79533,-0.57728 -1.25103,-0.74378 -3.68296,-1.34527 -8.07777,-1.43032 -11.91924,-1.65195 -4.65199,-0.26842 -8.26247,-0.30052 -12.95792,-0.40155 -13.68091,-0.34987 -27.3711,0.21233 -41.04928,-0.11947 -4.28984,-0.41325 -12.12794,-1.39763 -10.09661,-7.86514 0.29483,-0.93871 0.9223,-1.73832 1.38346,-2.60747 4.98312,-6.02891 11.59001,-10.55185 18.1846,-14.66362 8.64722,4.50378 15.07052,-12.38508 24.19307,-12.55149 2.22258,-0.0406 4.35466,1.1832 6.29327,2.08596 3.95862,2.0446 8.26928,3.26283 12.3179,5.06237 3.29688,1.26324 6.56805,2.46599 9.7914,3.90883 3.48084,0.85887 6.35499,2.50345 9.18553,4.66563 3.10093,2.52315 5.70902,5.62325 7.90744,8.94962 0.89011,1.59695 1.69554,3.23812 2.5023,4.87792 0,0 -17.45976,9.93649 -17.45976,9.93649 v 0 c -0.7848,-1.56068 -1.56221,-3.12518 -2.37295,-4.67262 -2.06003,-3.14146 -4.5806,-6.02178 -7.53901,-8.34874 -2.78251,-1.99291 -5.76636,-3.17966 -8.98986,-4.28037 -3.18415,-1.44675 -6.51165,-2.48958 -9.7144,-3.89437 -4.13417,-1.61942 -8.24678,-3.26492 -12.29714,-5.09076 -1.20934,-0.46439 -2.43991,-1.06062 -3.76536,-1.14525 -5.75685,-0.36758 -23.23093,12.67176 8.4854,-6.65716 -6.63505,3.84785 -13.02906,8.32458 -18.43622,13.7867 -0.33337,0.41592 -2.18613,2.4739 -2.32192,3.38201 -0.52322,3.49879 7.1147,3.25135 8.6719,3.61949 13.61249,0.42051 27.23683,0.0112 40.85315,0.24281 4.49482,0.0819 8.71438,0.11006 13.19503,0.37243 3.99787,0.23411 9.37926,0.20037 12.95994,2.4335 0.80104,0.49957 1.34139,1.32876 2.0121,1.99314 0.15191,0.77293 0.52353,1.53399 0.45574,2.31878 -0.41966,4.85823 -7.90567,11.12718 -10.27356,15.34713 -2.40961,3.52868 -4.89384,7.07595 -6.69835,10.97018 -0.3966,0.85582 -0.69646,1.75432 -0.99671,2.64855 -0.15193,0.45247 -0.46681,0.9216 -0.35811,1.38637 0.0828,0.35423 0.56275,0.46103 0.84412,0.69158 8.03848,0.72337 15.7989,-3.17025 23.55254,-4.68015 1.2551,-0.33135 2.50901,-0.66728 3.76531,-0.99405 0.93021,-0.24203 1.84411,-0.8583 2.79414,-0.71235 0.97087,0.14917 1.79265,0.86767 2.51935,1.5285 0.204,0.18555 0.3006,0.67642 0.068,0.82447 -8.83301,5.62395 -13.49998,8.15678 -20.81719,12.1773 -5.92206,3.13718 -19.24858,10.5726 6.78551,-4.21485 1.14767,-0.6519 -2.24783,1.38413 -3.37541,2.07023 -1.03186,0.62782 -2.06757,1.24927 -3.10288,1.8714 -0.92921,0.55837 -1.86047,1.11337 -2.7907,1.67002 -6.5266,3.82448 -13.02376,7.69965 -19.57979,11.4735 -1.68726,0.97125 -2.30975,1.49708 -4.06156,0.007 -1.86022,-1.58212 2.21566,-3.77557 2.70522,-4.5414 5.22746,-4.3713 9.83453,-9.33435 13.61152,-15.03015 0.67031,-0.51307 1.0808,-1.28617 1.96455,-0.88035 0.14765,0.0675 -0.3274,-0.007 -0.48689,0.0233 -0.76296,0.14843 -1.53006,0.29025 -2.27446,0.51383 -2.9526,0.88695 -4.45097,1.63447 -7.34208,2.87347 -7.80246,3.61935 -15.48743,7.44765 -22.98722,11.66513 -2.53564,1.32667 -10.55789,6.57862 -9.20136,-0.65183 1.79536,-4.59645 4.29791,-8.86732 6.44795,-13.29967 0,0 18.29656,-8.37825 18.29656,-8.37825 z"
     inkscape:connector-curvature="0" />
  <path
     style="fill:#000000;fill-opacity:0;stroke-width:0.75"
     id="path56"
     d="m 698.27333,753.9808 c -6.86965,3.2829 -13.73659,6.6285 -20.38847,10.33635 4.32477,-2.36865 8.46204,-5.11763 12.97429,-7.10595 1.46339,-0.64493 -2.5327,1.95802 -3.72089,3.02827 -1.10999,0.9999 -2.18967,2.04165 -3.16436,3.17378 -2.91758,3.38887 -4.4181,7.09162 -5.87836,11.24437 -1.54496,5.4744 -2.12673,11.27325 1.15484,16.2879 2.3884,3.6498 3.68353,3.92963 7.33574,6.3225 10.35061,4.42635 22.07441,6.43695 33.32111,5.29088 2.4181,-0.24638 4.79602,-0.79358 7.19404,-1.1904 5.80161,-1.45065 7.2033,-1.48485 12.55268,-4.03125 1.70758,-0.81285 6.59958,-3.6966 4.93437,-2.80013 -18.44735,9.93083 -13.81128,9.16755 -7.25182,1.23803 2.24691,-3.417 5.00726,-7.48538 4.18553,-11.82758 -0.14746,-0.77925 -0.47841,-1.5123 -0.71763,-2.26845 -1.16548,-1.80517 -1.59985,-2.75707 -3.29652,-4.1907 -4.29534,-3.62917 -9.85176,-5.82712 -14.93274,-8.0433 -12.22548,-4.60762 -24.95574,-5.0265 -37.8492,-4.68375 -11.43589,1.2624 -22.7043,3.86745 -33.50635,7.81433 -6.11318,3.51667 -21.12149,10.08712 7.65556,-4.44338 0.77973,-0.39375 -1.34705,1.11645 -1.96407,1.73475 -1.4119,1.41488 -1.47246,1.73445 -2.46421,3.38813 -2.32492,5.83155 0.0533,7.16287 5.33719,8.65492 10.7346,2.30963 20.08087,0.35573 30.37424,-2.74837 6.04255,-2.20155 12.04484,-4.57163 17.80552,-7.44428 1.50022,-0.74812 5.88237,-3.21855 4.426,-2.38822 -15.2804,8.71132 -17.2428,10.30972 -10.49635,5.4024 0.32392,-0.24758 4.06303,-3.43733 3.54525,-3.8601 -0.46486,-0.37958 -1.02514,-0.62445 -1.53161,-0.94635 0,0 16.99171,-10.85813 16.99171,-10.85813 v 0 c 4.26047,3.05663 3.11544,5.12535 -0.55541,8.3217 -13.56169,10.58468 -29.49927,17.95238 -45.6246,23.6739 -2.03336,0.57293 -4.04541,1.22775 -6.10007,1.71885 -8.32407,1.9896 -16.94633,2.1999 -25.30876,0.32573 -1.04154,-0.37695 -2.13305,-0.63728 -3.12463,-1.13085 -4.14299,-2.0625 -5.40215,-6.23738 -4.01454,-10.46978 5.01099,-11.51422 19.80861,-15.70012 30.59871,-21.0495 10.90034,-3.65325 22.18735,-6.23865 33.66589,-7.1526 13.01532,-0.12255 26.24046,0.42278 38.50652,5.2536 5.33341,2.35283 11.17772,4.65818 15.61089,8.5839 1.86293,1.64963 2.43173,2.8344 3.75495,4.88513 0.318,0.88642 0.7284,1.74495 0.95408,2.6592 1.19287,4.83285 -1.19715,9.33 -3.70545,13.28947 -7.94887,10.55595 -10.30635,9.6084 -26.22163,18.83445 -5.47919,3.17625 -11.48494,5.11718 -17.71584,6.16388 -2.44101,0.3312 -4.86657,0.80902 -7.323,0.9936 -9.40914,0.70695 -19.54448,-0.53625 -28.47027,-3.64815 -1.97436,-0.68835 -3.83832,-1.65975 -5.75748,-2.48963 -1.55921,-1.08285 -3.26481,-1.9806 -4.67764,-3.24847 -6.50632,-5.83883 -7.1611,-13.53135 -5.18471,-21.52035 1.36203,-4.3356 2.7171,-8.41658 5.55844,-12.06105 6.87983,-8.8245 18.5962,-13.57845 27.4806,-19.06163 6.8357,-3.66147 13.75049,-7.22171 20.83121,-10.38437 0,0 -15.80275,12.4267 -15.80275,12.4267 z"
     inkscape:connector-curvature="0" />
  <rect
     style="fill:#000000;fill-opacity:0;stroke-width:0.75"
     id="rect58"
     width="310.50848"
     height="277.96609"
     x="-51.525421"
     y="-748.47461" />
  <rect
     style="fill:#0000a4;fill-opacity:0;stroke-width:0.75"
     id="rect60"
     width="109.83051"
     height="103.05084"
     x="131.52542"
     y="117.9661" />
  <rect
     style="fill:#707e88;fill-opacity:0;stroke-width:0.75"
     id="rect4570"
     width="141.01697"
     height="138.30508"
     x="131.52542"
     y="117.9661" />
  <path
     style="fill:#707e88;fill-opacity:0;stroke-width:0.75"
     id="path4572"
     sodipodi:type="arc"
     sodipodi:cx="162.03391"
     sodipodi:cy="203.38983"
     sodipodi:rx="29.152542"
     sodipodi:ry="120.67797"
     sodipodi:start="0"
     sodipodi:end="6.2363"
     d="M 191.18645,203.38983 A 29.152542,120.67797 0 0 1 162.3756,324.05951 29.152542,120.67797 0 0 1 132.88937,206.21858 29.152542,120.67797 0 0 1 161.009,82.786462 29.152542,120.67797 0 0 1 191.15441,197.73388 l -29.1205,5.65595 z" />
  <path
     style="fill:#707e88;fill-opacity:0;stroke-width:0.75"
     id="path4574"
     sodipodi:type="arc"
     sodipodi:cx="336.94916"
     sodipodi:cy="88.135597"
     sodipodi:rx="76.610176"
     sodipodi:ry="35.254238"
     sodipodi:start="0"
     sodipodi:end="6.2363058"
     d="M 413.55933,88.135597 A 76.610176,35.254238 0 0 1 337.847,123.38741 76.610176,35.254238 0 0 1 260.36003,88.961872 a 76.610176,35.254238 0 0 1 73.8961,-36.058725 76.610176,35.254238 0 0 1 79.21904,33.580354 l -76.52601,1.652096 z" />
  <path
     style="fill:#000080;fill-opacity:0;stroke-width:0.75"
     id="path4576"
     sodipodi:type="arc"
     sodipodi:cx="317.28815"
     sodipodi:cy="101.01695"
     sodipodi:rx="74.576271"
     sodipodi:ry="113.22034"
     sodipodi:start="0"
     sodipodi:end="1.5708625"
     d="m 391.86442,101.01695 a 74.576271,113.22034 0 0 1 -21.84463,80.06152 74.576271,113.22034 0 0 1 -52.73658,33.15882 l 0.005,-113.22034 z" />
  <path
     style="fill:#0d8000;fill-opacity:0;stroke-width:0.75"
     id="path4578"
     sodipodi:type="arc"
     sodipodi:cx="269.15256"
     sodipodi:cy="238.64406"
     sodipodi:rx="83.389832"
     sodipodi:ry="86.779655"
     sodipodi:start="0"
     sodipodi:end="1.5708626"
     d="m 352.54239,238.64406 a 83.389832,86.779655 0 0 1 -24.42627,61.36451 83.389832,86.779655 0 0 1 -58.96909,25.41514 l 0.006,-86.77965 z" />
  <flowRoot
     xml:space="preserve"
     id="flowRoot4580"
     style="fill:black;fill-opacity:1;stroke:none;font-family:serif;font-style:normal;font-weight:normal;font-size:40px;line-height:1.25;letter-spacing:0px;word-spacing:0px;-inkscape-font-specification:serif;font-stretch:normal;font-variant:normal"><flowRegion
       id="flowRegion4582"><rect
         id="rect4584"
         width="88.58757"
         height="59.661018"
         x="1439.0961"
         y="1659.661" /></flowRegion><flowPara
       id="flowPara4586" /></flowRoot></svg>
