<?xml version="1.0" encoding="utf-8" standalone="no"?>
<!DOCTYPE svg PUBLIC "-//W3C//DTD SVG 1.1//EN"
  "http://www.w3.org/Graphics/SVG/1.1/DTD/svg11.dtd">
<!-- Created with matplotlib (http://matplotlib.org/) -->
<svg height="216pt" version="1.1" viewBox="0 0 216 216" width="216pt" xmlns="http://www.w3.org/2000/svg" xmlns:xlink="http://www.w3.org/1999/xlink">
 <defs>
  <style type="text/css">
*{stroke-linecap:butt;stroke-linejoin:round;}
  </style>
 </defs>
 <g id="figure_1">
  <g id="patch_1">
   <path d="M 0 216 
L 216 216 
L 216 0 
L 0 0 
z
" style="fill:none;"/>
  </g>
  <g id="axes_1">
   <g id="patch_2">
    <path clip-path="url(#pdb99f5107f)" d="M 33.696 112.4064 
C 34.5839 112.4064 35.435553 112.05591 36.063394 111.43212 
C 36.691234 110.80833 37.044 109.962172 37.044 109.08 
C 37.044 108.197828 36.691234 107.35167 36.063394 106.72788 
C 35.435553 106.10409 34.5839 105.7536 33.696 105.7536 
C 32.8081 105.7536 31.956447 106.10409 31.328606 106.72788 
C 30.700766 107.35167 30.348 108.197828 30.348 109.08 
C 30.348 109.962172 30.700766 110.80833 31.328606 111.43212 
C 31.956447 112.05591 32.8081 112.4064 33.696 112.4064 
z
" style="fill:#0000ff;opacity:0.3;stroke:#0000ff;stroke-linejoin:miter;"/>
   </g>
   <g id="patch_3">
    <path clip-path="url(#pdb99f5107f)" d="M 24.877095 101.477727 
Q 27.836821 104.447264 30.796547 107.4168 
Q 26.645082 108.002859 22.493617 108.588918 
z
" style="fill:#0000ff;opacity:0.5;stroke:#0000ff;stroke-linecap:round;"/>
   </g>
   <g id="patch_4">
    <path clip-path="url(#pdb99f5107f)" d="M 36.012151 110.294921 
Q 31.954623 111.35066 27.897094 112.4064 
Q 29.487019 108.526933 31.076945 104.647467 
z
" style="fill:#0000ff;opacity:0.5;stroke:#0000ff;stroke-linecap:round;"/>
   </g>
   <g id="patch_5">
    <path clip-path="url(#pdb99f5107f)" d="M 51.711514 63.22852 
C 52.599414 63.22852 53.451067 62.878029 54.078907 62.25424 
C 54.706747 61.63045 55.059514 60.784291 55.059514 59.90212 
C 55.059514 59.019948 54.706747 58.173789 54.078907 57.55 
C 53.451067 56.92621 52.599414 56.57572 51.711514 56.57572 
C 50.823614 56.57572 49.97196 56.92621 49.34412 57.55 
C 48.71628 58.173789 48.363514 59.019948 48.363514 59.90212 
C 48.363514 60.784291 48.71628 61.63045 49.34412 62.25424 
C 49.97196 62.878029 50.823614 63.22852 51.711514 63.22852 
z
" style="fill:#0000ff;opacity:0.3;stroke:#0000ff;stroke-linejoin:miter;"/>
   </g>
   <g id="patch_6">
    <path clip-path="url(#pdb99f5107f)" d="M 49.855384 48.421273 
Q 50.210907 52.5988 50.56643 56.776326 
Q 47.011095 54.554229 43.45576 52.332132 
z
" style="fill:#0000ff;opacity:0.5;stroke:#0000ff;stroke-linecap:round;"/>
   </g>
   <g id="patch_7">
    <path clip-path="url(#pdb99f5107f)" d="M 52.704952 62.316067 
Q 48.911096 60.53147 45.117241 58.746873 
Q 48.821232 56.782547 52.525223 54.818221 
z
" style="fill:#0000ff;opacity:0.5;stroke:#0000ff;stroke-linecap:round;"/>
   </g>
   <g id="patch_8">
    <path clip-path="url(#pdb99f5107f)" d="M 97.328396 37.061516 
C 98.216296 37.061516 99.067949 36.711026 99.695789 36.087236 
C 100.323629 35.463447 100.676396 34.617288 100.676396 33.735116 
C 100.676396 32.852945 100.323629 32.006786 99.695789 31.382996 
C 99.067949 30.759207 98.216296 30.408716 97.328396 30.408716 
C 96.440496 30.408716 95.588842 30.759207 94.961002 31.382996 
C 94.333162 32.006786 93.980396 32.852945 93.980396 33.735116 
C 93.980396 34.617288 94.333162 35.463447 94.961002 36.087236 
C 95.588842 36.711026 96.440496 37.061516 97.328396 37.061516 
z
" style="fill:#0000ff;opacity:0.3;stroke:#0000ff;stroke-linejoin:miter;"/>
   </g>
   <g id="patch_9">
    <path clip-path="url(#pdb99f5107f)" d="M 103.327869 23.772116 
Q 100.900674 27.190719 98.473479 30.609323 
Q 97.194913 26.616405 95.916348 22.623487 
z
" style="fill:#0000ff;opacity:0.5;stroke:#0000ff;stroke-linecap:round;"/>
   </g>
   <g id="patch_10">
    <path clip-path="url(#pdb99f5107f)" d="M 96.558445 36.24287 
Q 94.791367 32.440823 93.02429 28.638776 
Q 97.126174 29.506342 101.228058 30.373909 
z
" style="fill:#0000ff;opacity:0.5;stroke:#0000ff;stroke-linecap:round;"/>
   </g>
   <g id="patch_11">
    <path clip-path="url(#pdb99f5107f)" d="M 149.202 46.149221 
C 150.0899 46.149221 150.941553 45.798731 151.569394 45.174941 
C 152.197234 44.551152 152.55 43.704993 152.55 42.822821 
C 152.55 41.94065 152.197234 41.094491 151.569394 40.470701 
C 150.941553 39.846912 150.0899 39.496421 149.202 39.496421 
C 148.3141 39.496421 147.462447 39.846912 146.834606 40.470701 
C 146.206766 41.094491 145.854 41.94065 145.854 42.822821 
C 145.854 43.704993 146.206766 44.551152 146.834606 45.174941 
C 147.462447 45.798731 148.3141 46.149221 149.202 46.149221 
z
" style="fill:#0000ff;opacity:0.3;stroke:#0000ff;stroke-linejoin:miter;"/>
   </g>
   <g id="patch_12">
    <path clip-path="url(#pdb99f5107f)" d="M 146.995693 44.259812 
Q 148.098847 40.214917 149.202 36.170021 
Q 151.776024 39.479481 154.350049 42.788941 
z
" style="fill:#0000ff;opacity:0.5;stroke:#0000ff;stroke-linecap:round;"/>
   </g>
   <g id="patch_13">
    <path clip-path="url(#pdb99f5107f)" d="M 183.060091 86.239396 
C 183.947991 86.239396 184.799644 85.888906 185.427484 85.265116 
C 186.055324 84.641327 186.408091 83.795168 186.408091 82.912996 
C 186.408091 82.030825 186.055324 81.184666 185.427484 80.560876 
C 184.799644 79.937087 183.947991 79.586596 183.060091 79.586596 
C 182.172191 79.586596 181.320537 79.937087 180.692697 80.560876 
C 180.064857 81.184666 179.712091 82.030825 179.712091 82.912996 
C 179.712091 83.795168 180.064857 84.641327 180.692697 85.265116 
C 181.320537 85.888906 182.172191 86.239396 183.060091 86.239396 
z
" style="fill:#0000ff;opacity:0.3;stroke:#0000ff;stroke-linejoin:miter;"/>
   </g>
   <g id="patch_14">
    <path clip-path="url(#pdb99f5107f)" d="M 180.458846 82.573613 
Q 183.911521 80.195134 187.364196 77.816656 
Q 187.195374 82.005883 187.026552 86.19511 
z
" style="fill:#0000ff;opacity:0.5;stroke:#0000ff;stroke-linecap:round;"/>
   </g>
   <g id="patch_15">
    <path clip-path="url(#pdb99f5107f)" d="M 183.060091 138.573404 
C 183.947991 138.573404 184.799644 138.222913 185.427484 137.599124 
C 186.055324 136.975334 186.408091 136.129175 186.408091 135.247004 
C 186.408091 134.364832 186.055324 133.518673 185.427484 132.894884 
C 184.799644 132.271094 183.947991 131.920604 183.060091 131.920604 
C 182.172191 131.920604 181.320537 132.271094 180.692697 132.894884 
C 180.064857 133.518673 179.712091 134.364832 179.712091 135.247004 
C 179.712091 136.129175 180.064857 136.975334 180.692697 137.599124 
C 181.320537 138.222913 182.172191 138.573404 183.060091 138.573404 
z
" style="fill:#0000ff;opacity:0.3;stroke:#0000ff;stroke-linejoin:miter;"/>
   </g>
   <g id="patch_16">
    <path clip-path="url(#pdb99f5107f)" d="M 181.305206 133.314533 
Q 185.479785 133.703145 189.654363 134.091757 
Q 186.838727 137.198252 184.02309 140.304748 
z
" style="fill:#0000ff;opacity:0.5;stroke:#0000ff;stroke-linecap:round;"/>
   </g>
   <g id="patch_17">
    <path clip-path="url(#pdb99f5107f)" d="M 149.202 178.663579 
C 150.0899 178.663579 150.941553 178.313088 151.569394 177.689299 
C 152.197234 177.065509 152.55 176.21935 152.55 175.337179 
C 152.55 174.455007 152.197234 173.608848 151.569394 172.985059 
C 150.941553 172.361269 150.0899 172.010779 149.202 172.010779 
C 148.3141 172.010779 147.462447 172.361269 146.834606 172.985059 
C 146.206766 173.608848 145.854 174.455007 145.854 175.337179 
C 145.854 176.21935 146.206766 177.065509 146.834606 177.689299 
C 147.462447 178.313088 148.3141 178.663579 149.202 178.663579 
z
" style="fill:#0000ff;opacity:0.3;stroke:#0000ff;stroke-linejoin:miter;"/>
   </g>
   <g id="patch_18">
    <path clip-path="url(#pdb99f5107f)" d="M 149.081454 172.724506 
Q 152.04118 175.694042 155.000906 178.663579 
Q 150.849441 179.249638 146.697977 179.835697 
z
" style="fill:#0000ff;opacity:0.5;stroke:#0000ff;stroke-linecap:round;"/>
   </g>
   <g id="patch_19">
    <path clip-path="url(#pdb99f5107f)" d="M 97.328396 187.751284 
C 98.216296 187.751284 99.067949 187.400793 99.695789 186.777004 
C 100.323629 186.153214 100.676396 185.307055 100.676396 184.424884 
C 100.676396 183.542712 100.323629 182.696553 99.695789 182.072764 
C 99.067949 181.448974 98.216296 181.098484 97.328396 181.098484 
C 96.440496 181.098484 95.588842 181.448974 94.961002 182.072764 
C 94.333162 182.696553 93.980396 183.542712 93.980396 184.424884 
C 93.980396 185.307055 94.333162 186.153214 94.961002 186.777004 
C 95.588842 187.400793 96.440496 187.751284 97.328396 187.751284 
z
" style="fill:#0000ff;opacity:0.3;stroke:#0000ff;stroke-linejoin:miter;"/>
   </g>
   <g id="patch_20">
    <path clip-path="url(#pdb99f5107f)" d="M 98.907516 182.321418 
Q 99.263039 186.498944 99.618563 190.676471 
Q 96.063227 188.454373 92.507892 186.232276 
z
" style="fill:#0000ff;opacity:0.5;stroke:#0000ff;stroke-linecap:round;"/>
   </g>
   <g id="patch_21">
    <path clip-path="url(#pdb99f5107f)" d="M 51.711514 161.58428 
C 52.599414 161.58428 53.451067 161.23379 54.078907 160.61 
C 54.706747 159.986211 55.059514 159.140052 55.059514 158.25788 
C 55.059514 157.375709 54.706747 156.52955 54.078907 155.90576 
C 53.451067 155.281971 52.599414 154.93148 51.711514 154.93148 
C 50.823614 154.93148 49.97196 155.281971 49.34412 155.90576 
C 48.71628 156.52955 48.363514 157.375709 48.363514 158.25788 
C 48.363514 159.140052 48.71628 159.986211 49.34412 160.61 
C 49.97196 161.23379 50.823614 161.58428 51.711514 161.58428 
z
" style="fill:#0000ff;opacity:0.3;stroke:#0000ff;stroke-linejoin:miter;"/>
   </g>
   <g id="patch_22">
    <path clip-path="url(#pdb99f5107f)" d="M 54.275737 157.67226 
Q 51.848542 161.090864 49.421347 164.509467 
Q 48.142781 160.516549 46.864215 156.523631 
z
" style="fill:#0000ff;opacity:0.5;stroke:#0000ff;stroke-linecap:round;"/>
   </g>
   <g id="patch_23">
    <path clip-path="url(#pdb99f5107f)" d="M 38.234515 105.826282 
Q 93.520398 86.933841 138.411395 49.917843 
L 136.979972 48.181891 
Q 141.02677 47.275536 145.095905 46.240288 
Q 143.477584 50.11448 141.751381 53.968397 
L 140.319959 52.232446 
Q 95.007457 89.596005 39.204606 108.665106 
L 38.234515 105.826282 
z
" style="fill:#0000ff;opacity:0.5;stroke:#0000ff;stroke-linecap:round;"/>
   </g>
   <g id="patch_24">
    <path clip-path="url(#pdb99f5107f)" d="M 39.069768 107.565066 
Q 106.900733 108.843222 170.494151 85.927345 
L 169.731377 83.810584 
Q 173.854494 84.318035 178.034084 84.72617 
Q 175.1952 87.820569 172.273958 90.866453 
L 171.511184 88.749693 
Q 107.397319 111.853112 39.013249 110.564534 
L 39.069768 107.565066 
z
" style="fill:#0000ff;opacity:0.5;stroke:#0000ff;stroke-linecap:round;"/>
   </g>
   <g id="patch_25">
    <path clip-path="url(#pdb99f5107f)" d="M 57.084528 58.384428 
Q 98.078768 59.039018 136.635339 45.771357 
L 135.903226 43.643797 
Q 139.994996 44.219167 144.176437 44.639324 
Q 141.325221 47.726276 138.343601 50.735663 
L 137.611489 48.608103 
Q 98.557183 62.04704 57.036631 61.384046 
L 57.084528 58.384428 
z
" style="fill:#0000ff;opacity:0.5;stroke:#0000ff;stroke-linecap:round;"/>
   </g>
   <g id="patch_26">
    <path clip-path="url(#pdb99f5107f)" d="M 57.277327 60.302799 
Q 111.942133 81.189635 170.219821 81.460013 
L 170.23026 79.210038 
Q 173.922403 81.102427 177.714095 82.910075 
Q 173.989714 84.852301 170.195464 86.709957 
L 170.205903 84.459981 
Q 111.381798 84.187068 56.206559 63.105201 
L 57.277327 60.302799 
z
" style="fill:#0000ff;opacity:0.5;stroke:#0000ff;stroke-linecap:round;"/>
   </g>
   <g id="patch_27">
    <path clip-path="url(#pdb99f5107f)" d="M 101.332439 37.602365 
Q 129.777906 88.479795 174.147078 125.910305 
L 175.597903 124.190534 
Q 177.215397 128.008481 178.963953 131.825269 
Q 174.862603 130.929178 170.761822 129.923101 
L 172.212646 128.203331 
Q 127.425953 90.420595 98.713915 39.066377 
L 101.332439 37.602365 
z
" style="fill:#0000ff;opacity:0.5;stroke:#0000ff;stroke-linecap:round;"/>
   </g>
   <g id="patch_28">
    <path clip-path="url(#pdb99f5107f)" d="M 149.763945 48.357775 
Q 138.703287 105.409158 148.415136 162.461628 
L 150.633228 162.08405 
Q 149.40529 166.04512 148.278538 170.090117 
Q 145.723245 166.758335 143.239586 163.342645 
L 145.457679 162.965066 
Q 135.654192 105.374266 146.818783 47.786791 
L 149.763945 48.357775 
z
" style="fill:#0000ff;opacity:0.5;stroke:#0000ff;stroke-linecap:round;"/>
   </g>
   <g id="patch_29">
    <path clip-path="url(#pdb99f5107f)" d="M 181.685693 88.30686 
Q 160.722143 123.239561 152.935559 163.00086 
L 155.143618 163.433271 
Q 152.595567 166.685873 150.137433 170.094701 
Q 148.89382 166.080519 147.783424 161.991901 
L 149.991482 162.424312 
Q 157.879147 122.146851 179.113342 86.76316 
L 181.685693 88.30686 
z
" style="fill:#0000ff;opacity:0.5;stroke:#0000ff;stroke-linecap:round;"/>
   </g>
   <g id="patch_30">
    <path clip-path="url(#pdb99f5107f)" d="M 179.913222 87.512891 
Q 134.514091 124.072232 105.037287 174.080168 
L 106.975615 175.222701 
Q 103.482228 177.456371 100.011917 179.819061 
Q 100.208954 175.625582 100.51452 171.414257 
L 102.452849 172.55679 
Q 132.207033 122.078272 178.031613 85.176323 
L 179.913222 87.512891 
z
" style="fill:#0000ff;opacity:0.5;stroke:#0000ff;stroke-linecap:round;"/>
   </g>
   <g id="patch_31">
    <path clip-path="url(#pdb99f5107f)" d="M 179.930552 139.844646 
Q 166.536954 150.850031 157.065047 165.169817 
L 158.941661 166.411114 
Q 155.382323 168.390096 151.87777 170.724399 
Q 152.126483 166.521851 152.686281 162.273456 
L 154.562895 163.514753 
Q 164.283741 148.818618 178.025971 137.526764 
L 179.930552 139.844646 
z
" style="fill:#0000ff;opacity:0.5;stroke:#0000ff;stroke-linecap:round;"/>
   </g>
   <g id="patch_32">
    <path clip-path="url(#pdb99f5107f)" d="M 178.529503 138.500166 
Q 139.823733 151.81861 108.136787 177.375648 
L 109.549332 179.126995 
Q 105.506178 179.978548 101.431496 181.006812 
Q 103.061555 177.133702 104.840849 173.289172 
L 106.253394 175.040519 
Q 138.349981 149.153086 177.55339 135.663407 
L 178.529503 138.500166 
z
" style="fill:#0000ff;opacity:0.5;stroke:#0000ff;stroke-linecap:round;"/>
   </g>
   <g id="patch_33">
    <path clip-path="url(#pdb99f5107f)" d="M 143.841734 176.862163 
Q 126.4243 176.718278 109.89638 181.662209 
L 110.541185 183.817836 
Q 106.538372 183.056135 102.350398 182.601455 
Q 105.237475 179.535011 108.391837 176.632413 
L 109.036641 178.78804 
Q 125.997355 173.714648 143.866516 173.862265 
L 143.841734 176.862163 
z
" style="fill:#0000ff;opacity:0.5;stroke:#0000ff;stroke-linecap:round;"/>
   </g>
   <g id="patch_34">
    <path clip-path="url(#pdb99f5107f)" d="M 143.635314 174.938351 
Q 105.305036 160.386954 64.534451 159.757334 
L 64.499708 162.007066 
Q 60.847221 160.074983 57.057639 158.258388 
Q 60.788442 156.324536 64.615517 154.50796 
L 64.580774 156.757692 
Q 105.877676 157.39544 144.700065 172.133658 
L 143.635314 174.938351 
z
" style="fill:#0000ff;opacity:0.5;stroke:#0000ff;stroke-linecap:round;"/>
   </g>
   <g id="patch_35">
    <path clip-path="url(#pdb99f5107f)" d="M 102.688661 182.8999 
Q 120.106096 183.043785 136.634015 178.099854 
L 135.989211 175.944227 
Q 139.992024 176.705927 144.179998 177.160607 
Q 141.292921 180.227052 138.138558 183.12965 
L 137.493754 180.974023 
Q 120.53304 186.047414 102.663879 185.899797 
L 102.688661 182.8999 
z
" style="fill:#0000ff;opacity:0.5;stroke:#0000ff;stroke-linecap:round;"/>
   </g>
   <g id="patch_36">
    <path clip-path="url(#pdb99f5107f)" d="M 92.243222 182.173005 
Q 78.973961 170.939793 63.139057 164.175667 
L 62.255197 166.244795 
Q 59.667342 163.098404 56.740349 160.069595 
Q 60.920506 159.56 65.201398 159.347702 
L 64.317537 161.41683 
Q 80.567691 168.358336 94.181589 179.883303 
L 92.243222 182.173005 
z
" style="fill:#0000ff;opacity:0.5;stroke:#0000ff;stroke-linecap:round;"/>
   </g>
   <g id="patch_37">
    <path clip-path="url(#pdb99f5107f)" d="M 57.2782 158.656708 
Q 95.608477 173.208105 136.379063 173.837724 
L 136.413806 171.587993 
Q 140.066293 173.520076 143.855875 175.336671 
Q 140.125071 177.270523 136.297997 179.087099 
L 136.33274 176.837367 
Q 95.035837 176.199619 56.213449 161.461401 
L 57.2782 158.656708 
z
" style="fill:#0000ff;opacity:0.5;stroke:#0000ff;stroke-linecap:round;"/>
   </g>
   <g id="patch_38">
    <path clip-path="url(#pdb99f5107f)" d="M 56.796688 160.509759 
Q 70.065948 171.742971 85.900852 178.507097 
L 86.784713 176.437969 
Q 89.372567 179.584359 92.29956 182.613169 
Q 88.119404 183.122764 83.838512 183.335062 
L 84.722372 181.265934 
Q 68.472218 174.324428 54.858321 162.799461 
L 56.796688 160.509759 
z
" style="fill:#0000ff;opacity:0.5;stroke:#0000ff;stroke-linecap:round;"/>
   </g>
   <g id="text_1">
    <!-- $x_{1}$ -->
    <defs>
     <path d="M 60.015625 54.6875 
L 34.90625 27.875 
L 50.296875 0 
L 39.984375 0 
L 28.421875 21.6875 
L 8.296875 0 
L -2.59375 0 
L 24.3125 28.8125 
L 10.015625 54.6875 
L 20.3125 54.6875 
L 30.8125 34.90625 
L 49.125 54.6875 
z
" id="DejaVuSans-Oblique-78"/>
     <path d="M 12.40625 8.296875 
L 28.515625 8.296875 
L 28.515625 63.921875 
L 10.984375 60.40625 
L 10.984375 69.390625 
L 28.421875 72.90625 
L 38.28125 72.90625 
L 38.28125 8.296875 
L 54.390625 8.296875 
L 54.390625 0 
L 12.40625 0 
z
" id="DejaVuSans-31"/>
    </defs>
    <g transform="translate(25.136 113.495)scale(0.16 -0.16)">
     <use transform="translate(0 0.3125)" xlink:href="#DejaVuSans-Oblique-78"/>
     <use transform="translate(59.179688 -16.09375)scale(0.7)" xlink:href="#DejaVuSans-31"/>
    </g>
   </g>
   <g id="text_2">
    <!-- $x_{2}$ -->
    <defs>
     <path d="M 19.1875 8.296875 
L 53.609375 8.296875 
L 53.609375 0 
L 7.328125 0 
L 7.328125 8.296875 
Q 12.9375 14.109375 22.625 23.890625 
Q 32.328125 33.6875 34.8125 36.53125 
Q 39.546875 41.84375 41.421875 45.53125 
Q 43.3125 49.21875 43.3125 52.78125 
Q 43.3125 58.59375 39.234375 62.25 
Q 35.15625 65.921875 28.609375 65.921875 
Q 23.96875 65.921875 18.8125 64.3125 
Q 13.671875 62.703125 7.8125 59.421875 
L 7.8125 69.390625 
Q 13.765625 71.78125 18.9375 73 
Q 24.125 74.21875 28.421875 74.21875 
Q 39.75 74.21875 46.484375 68.546875 
Q 53.21875 62.890625 53.21875 53.421875 
Q 53.21875 48.921875 51.53125 44.890625 
Q 49.859375 40.875 45.40625 35.40625 
Q 44.1875 33.984375 37.640625 27.21875 
Q 31.109375 20.453125 19.1875 8.296875 
z
" id="DejaVuSans-32"/>
    </defs>
    <g transform="translate(43.151514 64.31712)scale(0.16 -0.16)">
     <use transform="translate(0 0.3125)" xlink:href="#DejaVuSans-Oblique-78"/>
     <use transform="translate(59.179688 -16.09375)scale(0.7)" xlink:href="#DejaVuSans-32"/>
    </g>
   </g>
   <g id="text_3">
    <!-- $x_{3}$ -->
    <defs>
     <path d="M 40.578125 39.3125 
Q 47.65625 37.796875 51.625 33 
Q 55.609375 28.21875 55.609375 21.1875 
Q 55.609375 10.40625 48.1875 4.484375 
Q 40.765625 -1.421875 27.09375 -1.421875 
Q 22.515625 -1.421875 17.65625 -0.515625 
Q 12.796875 0.390625 7.625 2.203125 
L 7.625 11.71875 
Q 11.71875 9.328125 16.59375 8.109375 
Q 21.484375 6.890625 26.8125 6.890625 
Q 36.078125 6.890625 40.9375 10.546875 
Q 45.796875 14.203125 45.796875 21.1875 
Q 45.796875 27.640625 41.28125 31.265625 
Q 36.765625 34.90625 28.71875 34.90625 
L 20.21875 34.90625 
L 20.21875 43.015625 
L 29.109375 43.015625 
Q 36.375 43.015625 40.234375 45.921875 
Q 44.09375 48.828125 44.09375 54.296875 
Q 44.09375 59.90625 40.109375 62.90625 
Q 36.140625 65.921875 28.71875 65.921875 
Q 24.65625 65.921875 20.015625 65.03125 
Q 15.375 64.15625 9.8125 62.3125 
L 9.8125 71.09375 
Q 15.4375 72.65625 20.34375 73.4375 
Q 25.25 74.21875 29.59375 74.21875 
Q 40.828125 74.21875 47.359375 69.109375 
Q 53.90625 64.015625 53.90625 55.328125 
Q 53.90625 49.265625 50.4375 45.09375 
Q 46.96875 40.921875 40.578125 39.3125 
z
" id="DejaVuSans-33"/>
    </defs>
    <g transform="translate(88.768396 38.150116)scale(0.16 -0.16)">
     <use transform="translate(0 0.3125)" xlink:href="#DejaVuSans-Oblique-78"/>
     <use transform="translate(59.179688 -16.09375)scale(0.7)" xlink:href="#DejaVuSans-33"/>
    </g>
   </g>
   <g id="text_4">
    <!-- $x_{4}$ -->
    <defs>
     <path d="M 37.796875 64.3125 
L 12.890625 25.390625 
L 37.796875 25.390625 
z
M 35.203125 72.90625 
L 47.609375 72.90625 
L 47.609375 25.390625 
L 58.015625 25.390625 
L 58.015625 17.1875 
L 47.609375 17.1875 
L 47.609375 0 
L 37.796875 0 
L 37.796875 17.1875 
L 4.890625 17.1875 
L 4.890625 26.703125 
z
" id="DejaVuSans-34"/>
    </defs>
    <g transform="translate(140.642 47.237821)scale(0.16 -0.16)">
     <use transform="translate(0 0.3125)" xlink:href="#DejaVuSans-Oblique-78"/>
     <use transform="translate(59.179688 -16.09375)scale(0.7)" xlink:href="#DejaVuSans-34"/>
    </g>
   </g>
   <g id="text_5">
    <!-- $x_{5}$ -->
    <defs>
     <path d="M 10.796875 72.90625 
L 49.515625 72.90625 
L 49.515625 64.59375 
L 19.828125 64.59375 
L 19.828125 46.734375 
Q 21.96875 47.46875 24.109375 47.828125 
Q 26.265625 48.1875 28.421875 48.1875 
Q 40.625 48.1875 47.75 41.5 
Q 54.890625 34.8125 54.890625 23.390625 
Q 54.890625 11.625 47.5625 5.09375 
Q 40.234375 -1.421875 26.90625 -1.421875 
Q 22.3125 -1.421875 17.546875 -0.640625 
Q 12.796875 0.140625 7.71875 1.703125 
L 7.71875 11.625 
Q 12.109375 9.234375 16.796875 8.0625 
Q 21.484375 6.890625 26.703125 6.890625 
Q 35.15625 6.890625 40.078125 11.328125 
Q 45.015625 15.765625 45.015625 23.390625 
Q 45.015625 31 40.078125 35.4375 
Q 35.15625 39.890625 26.703125 39.890625 
Q 22.75 39.890625 18.8125 39.015625 
Q 14.890625 38.140625 10.796875 36.28125 
z
" id="DejaVuSans-35"/>
    </defs>
    <g transform="translate(174.500091 87.327996)scale(0.16 -0.16)">
     <use transform="translate(0 0.3125)" xlink:href="#DejaVuSans-Oblique-78"/>
     <use transform="translate(59.179688 -16.09375)scale(0.7)" xlink:href="#DejaVuSans-35"/>
    </g>
   </g>
   <g id="text_6">
    <!-- $x_{6}$ -->
    <defs>
     <path d="M 33.015625 40.375 
Q 26.375 40.375 22.484375 35.828125 
Q 18.609375 31.296875 18.609375 23.390625 
Q 18.609375 15.53125 22.484375 10.953125 
Q 26.375 6.390625 33.015625 6.390625 
Q 39.65625 6.390625 43.53125 10.953125 
Q 47.40625 15.53125 47.40625 23.390625 
Q 47.40625 31.296875 43.53125 35.828125 
Q 39.65625 40.375 33.015625 40.375 
z
M 52.59375 71.296875 
L 52.59375 62.3125 
Q 48.875 64.0625 45.09375 64.984375 
Q 41.3125 65.921875 37.59375 65.921875 
Q 27.828125 65.921875 22.671875 59.328125 
Q 17.53125 52.734375 16.796875 39.40625 
Q 19.671875 43.65625 24.015625 45.921875 
Q 28.375 48.1875 33.59375 48.1875 
Q 44.578125 48.1875 50.953125 41.515625 
Q 57.328125 34.859375 57.328125 23.390625 
Q 57.328125 12.15625 50.6875 5.359375 
Q 44.046875 -1.421875 33.015625 -1.421875 
Q 20.359375 -1.421875 13.671875 8.265625 
Q 6.984375 17.96875 6.984375 36.375 
Q 6.984375 53.65625 15.1875 63.9375 
Q 23.390625 74.21875 37.203125 74.21875 
Q 40.921875 74.21875 44.703125 73.484375 
Q 48.484375 72.75 52.59375 71.296875 
z
" id="DejaVuSans-36"/>
    </defs>
    <g transform="translate(174.500091 139.662004)scale(0.16 -0.16)">
     <use transform="translate(0 0.3125)" xlink:href="#DejaVuSans-Oblique-78"/>
     <use transform="translate(59.179688 -16.09375)scale(0.7)" xlink:href="#DejaVuSans-36"/>
    </g>
   </g>
   <g id="text_7">
    <!-- $x_{7}$ -->
    <defs>
     <path d="M 8.203125 72.90625 
L 55.078125 72.90625 
L 55.078125 68.703125 
L 28.609375 0 
L 18.3125 0 
L 43.21875 64.59375 
L 8.203125 64.59375 
z
" id="DejaVuSans-37"/>
    </defs>
    <g transform="translate(140.642 179.752179)scale(0.16 -0.16)">
     <use transform="translate(0 0.3125)" xlink:href="#DejaVuSans-Oblique-78"/>
     <use transform="translate(59.179688 -16.09375)scale(0.7)" xlink:href="#DejaVuSans-37"/>
    </g>
   </g>
   <g id="text_8">
    <!-- $x_{8}$ -->
    <defs>
     <path d="M 31.78125 34.625 
Q 24.75 34.625 20.71875 30.859375 
Q 16.703125 27.09375 16.703125 20.515625 
Q 16.703125 13.921875 20.71875 10.15625 
Q 24.75 6.390625 31.78125 6.390625 
Q 38.8125 6.390625 42.859375 10.171875 
Q 46.921875 13.96875 46.921875 20.515625 
Q 46.921875 27.09375 42.890625 30.859375 
Q 38.875 34.625 31.78125 34.625 
z
M 21.921875 38.8125 
Q 15.578125 40.375 12.03125 44.71875 
Q 8.5 49.078125 8.5 55.328125 
Q 8.5 64.0625 14.71875 69.140625 
Q 20.953125 74.21875 31.78125 74.21875 
Q 42.671875 74.21875 48.875 69.140625 
Q 55.078125 64.0625 55.078125 55.328125 
Q 55.078125 49.078125 51.53125 44.71875 
Q 48 40.375 41.703125 38.8125 
Q 48.828125 37.15625 52.796875 32.3125 
Q 56.78125 27.484375 56.78125 20.515625 
Q 56.78125 9.90625 50.3125 4.234375 
Q 43.84375 -1.421875 31.78125 -1.421875 
Q 19.734375 -1.421875 13.25 4.234375 
Q 6.78125 9.90625 6.78125 20.515625 
Q 6.78125 27.484375 10.78125 32.3125 
Q 14.796875 37.15625 21.921875 38.8125 
z
M 18.3125 54.390625 
Q 18.3125 48.734375 21.84375 45.5625 
Q 25.390625 42.390625 31.78125 42.390625 
Q 38.140625 42.390625 41.71875 45.5625 
Q 45.3125 48.734375 45.3125 54.390625 
Q 45.3125 60.0625 41.71875 63.234375 
Q 38.140625 66.40625 31.78125 66.40625 
Q 25.390625 66.40625 21.84375 63.234375 
Q 18.3125 60.0625 18.3125 54.390625 
z
" id="DejaVuSans-38"/>
    </defs>
    <g transform="translate(88.768396 188.839884)scale(0.16 -0.16)">
     <use transform="translate(0 0.3125)" xlink:href="#DejaVuSans-Oblique-78"/>
     <use transform="translate(59.179688 -16.09375)scale(0.7)" xlink:href="#DejaVuSans-38"/>
    </g>
   </g>
   <g id="text_9">
    <!-- $x_{9}$ -->
    <defs>
     <path d="M 10.984375 1.515625 
L 10.984375 10.5 
Q 14.703125 8.734375 18.5 7.8125 
Q 22.3125 6.890625 25.984375 6.890625 
Q 35.75 6.890625 40.890625 13.453125 
Q 46.046875 20.015625 46.78125 33.40625 
Q 43.953125 29.203125 39.59375 26.953125 
Q 35.25 24.703125 29.984375 24.703125 
Q 19.046875 24.703125 12.671875 31.3125 
Q 6.296875 37.9375 6.296875 49.421875 
Q 6.296875 60.640625 12.9375 67.421875 
Q 19.578125 74.21875 30.609375 74.21875 
Q 43.265625 74.21875 49.921875 64.515625 
Q 56.59375 54.828125 56.59375 36.375 
Q 56.59375 19.140625 48.40625 8.859375 
Q 40.234375 -1.421875 26.421875 -1.421875 
Q 22.703125 -1.421875 18.890625 -0.6875 
Q 15.09375 0.046875 10.984375 1.515625 
z
M 30.609375 32.421875 
Q 37.25 32.421875 41.125 36.953125 
Q 45.015625 41.5 45.015625 49.421875 
Q 45.015625 57.28125 41.125 61.84375 
Q 37.25 66.40625 30.609375 66.40625 
Q 23.96875 66.40625 20.09375 61.84375 
Q 16.21875 57.28125 16.21875 49.421875 
Q 16.21875 41.5 20.09375 36.953125 
Q 23.96875 32.421875 30.609375 32.421875 
z
" id="DejaVuSans-39"/>
    </defs>
    <g transform="translate(43.151514 162.67288)scale(0.16 -0.16)">
     <use transform="translate(0 0.3125)" xlink:href="#DejaVuSans-Oblique-78"/>
     <use transform="translate(59.179688 -16.09375)scale(0.7)" xlink:href="#DejaVuSans-39"/>
    </g>
   </g>
  </g>
 </g>
 <defs>
  <clipPath id="pdb99f5107f">
   <rect height="166.32" width="167.4" x="27" y="25.92"/>
  </clipPath>
 </defs>
</svg>
