<?xml version="1.0" encoding="utf-8" standalone="no"?>
<!DOCTYPE svg PUBLIC "-//W3C//DTD SVG 1.1//EN"
  "http://www.w3.org/Graphics/SVG/1.1/DTD/svg11.dtd">
<!-- Created with matplotlib (http://matplotlib.org/) -->
<svg height="216pt" version="1.1" viewBox="0 0 216 216" width="216pt" xmlns="http://www.w3.org/2000/svg" xmlns:xlink="http://www.w3.org/1999/xlink">
 <defs>
  <style type="text/css">
*{stroke-linecap:butt;stroke-linejoin:round;}
  </style>
 </defs>
 <g id="figure_1">
  <g id="patch_1">
   <path d="M 0 216 
L 216 216 
L 216 0 
L 0 0 
z
" style="fill:none;"/>
  </g>
  <g id="axes_1">
   <g id="patch_2">
    <path clip-path="url(#pda63bf0216)" d="M 67.176 127.426536 
C 72.073153 127.426536 76.77039 125.493429 80.2332 122.05296 
C 83.69601 118.612491 85.641669 113.945558 85.641669 109.08 
C 85.641669 104.214442 83.69601 99.547509 80.2332 96.10704 
C 76.77039 92.666571 72.073153 90.733464 67.176 90.733464 
C 62.278847 90.733464 57.58161 92.666571 54.1188 96.10704 
C 50.65599 99.547509 48.710331 104.214442 48.710331 109.08 
C 48.710331 113.945558 50.65599 118.612491 54.1188 122.05296 
C 57.58161 125.493429 62.278847 127.426536 67.176 127.426536 
z
" style="fill:#0000ff;opacity:0.3;stroke:#0000ff;stroke-linejoin:miter;"/>
   </g>
   <g id="patch_3">
    <path clip-path="url(#pda63bf0216)" d="M 37.663323 90.847651 
Q 40.345229 93.002449 43.283551 94.707469 
L 44.41281 92.761377 
Q 46.438666 96.118947 49.303985 99.233144 
Q 45.09389 99.645783 40.648614 99.248351 
L 41.777873 97.302259 
Q 38.643193 95.483298 35.784311 93.186308 
L 37.663323 90.847651 
z
" style="fill:#0000ff;opacity:0.5;stroke:#0000ff;stroke-linecap:round;"/>
   </g>
   <g id="patch_4">
    <path clip-path="url(#pda63bf0216)" d="M 49.838338 120.328451 
Q 46.624356 121.555684 43.669182 123.231324 
L 44.778982 125.188578 
Q 40.857951 125.242293 36.72321 126.143509 
Q 38.492432 122.30098 41.079648 118.664397 
L 42.189448 120.621651 
Q 45.342107 118.834034 48.768175 117.525818 
L 49.838338 120.328451 
z
" style="fill:#008000;opacity:0.5;stroke:#008000;stroke-linecap:round;"/>
   </g>
   <g id="patch_5">
    <path clip-path="url(#pda63bf0216)" d="M 110.7 84.183336 
C 115.597153 84.183336 120.29439 82.250229 123.7572 78.80976 
C 127.22001 75.369291 129.165669 70.702358 129.165669 65.8368 
C 129.165669 60.971242 127.22001 56.304309 123.7572 52.86384 
C 120.29439 49.423371 115.597153 47.490264 110.7 47.490264 
C 105.802847 47.490264 101.10561 49.423371 97.6428 52.86384 
C 94.17999 56.304309 92.234331 60.971242 92.234331 65.8368 
C 92.234331 70.702358 94.17999 75.369291 97.6428 78.80976 
C 101.10561 82.250229 105.802847 84.183336 110.7 84.183336 
z
" style="fill:#0000ff;opacity:0.3;stroke:#0000ff;stroke-linejoin:miter;"/>
   </g>
   <g id="patch_6">
    <path clip-path="url(#pda63bf0216)" d="M 129.036261 36.531693 
Q 126.88537 39.179246 125.176748 42.082221 
L 127.115811 43.223508 
Q 123.747175 45.226004 120.617285 48.071277 
Q 120.228014 43.8609 120.652268 39.41922 
L 122.591331 40.560506 
Q 124.414513 37.462892 126.707814 34.640045 
L 129.036261 36.531693 
z
" style="fill:#0000ff;opacity:0.5;stroke:#0000ff;stroke-linecap:round;"/>
   </g>
   <g id="patch_7">
    <path clip-path="url(#pda63bf0216)" d="M 99.383497 48.611828 
Q 98.148223 45.43221 96.472053 42.510377 
L 94.520394 43.629987 
Q 94.448499 39.711756 93.526175 35.583668 
Q 97.376969 37.330146 101.025925 39.897955 
L 99.074265 41.017564 
Q 100.862819 44.135301 102.17988 47.52544 
L 99.383497 48.611828 
z
" style="fill:#0000ff;opacity:0.5;stroke:#0000ff;stroke-linecap:round;"/>
   </g>
   <g id="patch_8">
    <path clip-path="url(#pda63bf0216)" d="M 154.224 127.426536 
C 159.121153 127.426536 163.81839 125.493429 167.2812 122.05296 
C 170.74401 118.612491 172.689669 113.945558 172.689669 109.08 
C 172.689669 104.214442 170.74401 99.547509 167.2812 96.10704 
C 163.81839 92.666571 159.121153 90.733464 154.224 90.733464 
C 149.326847 90.733464 144.62961 92.666571 141.1668 96.10704 
C 137.70399 99.547509 135.758331 104.214442 135.758331 109.08 
C 135.758331 113.945558 137.70399 118.612491 141.1668 122.05296 
C 144.62961 125.493429 149.326847 127.426536 154.224 127.426536 
z
" style="fill:#0000ff;opacity:0.3;stroke:#0000ff;stroke-linejoin:miter;"/>
   </g>
   <g id="patch_9">
    <path clip-path="url(#pda63bf0216)" d="M 183.736677 127.312349 
Q 181.054771 125.157551 178.116449 123.452531 
L 176.98719 125.398623 
Q 174.961334 122.041053 172.096015 118.926856 
Q 176.30611 118.514217 180.751386 118.911649 
L 179.622127 120.857741 
Q 182.756807 122.676702 185.615689 124.973692 
L 183.736677 127.312349 
z
" style="fill:#0000ff;opacity:0.5;stroke:#0000ff;stroke-linecap:round;"/>
   </g>
   <g id="patch_10">
    <path clip-path="url(#pda63bf0216)" d="M 171.561662 97.831549 
Q 174.775644 96.604316 177.730818 94.928676 
L 176.621018 92.971422 
Q 180.542049 92.917707 184.67679 92.016491 
Q 182.907568 95.85902 180.320352 99.495603 
L 179.210552 97.538349 
Q 176.057893 99.325966 172.631825 100.634182 
L 171.561662 97.831549 
z
" style="fill:#0000ff;opacity:0.5;stroke:#0000ff;stroke-linecap:round;"/>
   </g>
   <g id="patch_11">
    <path clip-path="url(#pda63bf0216)" d="M 110.7 170.669736 
C 115.597153 170.669736 120.29439 168.736629 123.7572 165.29616 
C 127.22001 161.855691 129.165669 157.188758 129.165669 152.3232 
C 129.165669 147.457642 127.22001 142.790709 123.7572 139.35024 
C 120.29439 135.909771 115.597153 133.976664 110.7 133.976664 
C 105.802847 133.976664 101.10561 135.909771 97.6428 139.35024 
C 94.17999 142.790709 92.234331 147.457642 92.234331 152.3232 
C 92.234331 157.188758 94.17999 161.855691 97.6428 165.29616 
C 101.10561 168.736629 105.802847 170.669736 110.7 170.669736 
z
" style="fill:#0000ff;opacity:0.3;stroke:#0000ff;stroke-linejoin:miter;"/>
   </g>
   <g id="patch_12">
    <path clip-path="url(#pda63bf0216)" d="M 92.363739 181.628307 
Q 94.51463 178.980754 96.223252 176.077779 
L 94.284189 174.936492 
Q 97.652825 172.933996 100.782715 170.088723 
Q 101.171986 174.2991 100.747732 178.74078 
L 98.808669 177.599494 
Q 96.985487 180.697108 94.692186 183.519955 
L 92.363739 181.628307 
z
" style="fill:#0000ff;opacity:0.5;stroke:#0000ff;stroke-linecap:round;"/>
   </g>
   <g id="patch_13">
    <path clip-path="url(#pda63bf0216)" d="M 122.016503 169.548172 
Q 123.251777 172.72779 124.927947 175.649623 
L 126.879606 174.530013 
Q 126.951501 178.448244 127.873825 182.576332 
Q 124.023031 180.829854 120.374075 178.262045 
L 122.325735 177.142436 
Q 120.537181 174.024699 119.22012 170.63456 
L 122.016503 169.548172 
z
" style="fill:#ff0000;opacity:0.5;stroke:#ff0000;stroke-linecap:round;"/>
   </g>
   <g id="text_1">
    <!-- $C_{f}$ -->
    <defs>
     <path d="M 69.484375 67.28125 
L 67.484375 56.890625 
Q 62.796875 61.625 57.546875 63.921875 
Q 52.296875 66.21875 46.1875 66.21875 
Q 37.84375 66.21875 31.515625 62.203125 
Q 25.203125 58.203125 20.609375 50 
Q 17.671875 44.734375 16.125 38.84375 
Q 14.59375 32.953125 14.59375 27 
Q 14.59375 17.046875 19.75 11.8125 
Q 24.90625 6.59375 34.71875 6.59375 
Q 41.5 6.59375 47.75 8.765625 
Q 54 10.9375 59.90625 15.28125 
L 57.625 3.609375 
Q 51.8125 1.125 45.875 -0.140625 
Q 39.9375 -1.421875 33.984375 -1.421875 
Q 19.96875 -1.421875 12.078125 6.1875 
Q 4.203125 13.8125 4.203125 27.390625 
Q 4.203125 36.078125 7.203125 44.46875 
Q 10.203125 52.875 15.828125 59.8125 
Q 21.78125 67.1875 29.421875 70.703125 
Q 37.0625 74.21875 47.21875 74.21875 
Q 53.46875 74.21875 59.0625 72.484375 
Q 64.65625 70.75 69.484375 67.28125 
z
" id="DejaVuSans-Oblique-43"/>
     <path d="M 47.796875 75.984375 
L 46.390625 68.5 
L 37.796875 68.5 
Q 32.90625 68.5 30.6875 66.578125 
Q 28.46875 64.65625 27.390625 59.515625 
L 26.421875 54.6875 
L 41.21875 54.6875 
L 39.890625 47.703125 
L 25.09375 47.703125 
L 15.828125 0 
L 6.78125 0 
L 16.109375 47.703125 
L 7.515625 47.703125 
L 8.796875 54.6875 
L 17.390625 54.6875 
L 18.109375 58.5 
Q 19.96875 68.171875 24.625 72.078125 
Q 29.296875 75.984375 39.3125 75.984375 
z
" id="DejaVuSans-Oblique-66"/>
    </defs>
    <g transform="translate(59.336 113.495)scale(0.16 -0.16)">
     <use transform="translate(0 0.78125)" xlink:href="#DejaVuSans-Oblique-43"/>
     <use transform="translate(69.824219 -15.625)scale(0.7)" xlink:href="#DejaVuSans-Oblique-66"/>
    </g>
   </g>
   <g id="text_2">
    <!-- $C_{r}$ -->
    <defs>
     <path d="M 44.578125 46.390625 
Q 43.21875 47.125 41.453125 47.515625 
Q 39.703125 47.90625 37.703125 47.90625 
Q 30.515625 47.90625 25.140625 42.453125 
Q 19.78125 37.015625 18.015625 27.875 
L 12.5 0 
L 3.515625 0 
L 14.203125 54.6875 
L 23.1875 54.6875 
L 21.484375 46.1875 
Q 25.046875 50.921875 30 53.453125 
Q 34.96875 56 40.578125 56 
Q 42.046875 56 43.453125 55.828125 
Q 44.875 55.671875 46.296875 55.28125 
z
" id="DejaVuSans-Oblique-72"/>
    </defs>
    <g transform="translate(102.54 70.2518)scale(0.16 -0.16)">
     <use transform="translate(0 0.78125)" xlink:href="#DejaVuSans-Oblique-43"/>
     <use transform="translate(69.824219 -15.625)scale(0.7)" xlink:href="#DejaVuSans-Oblique-72"/>
    </g>
   </g>
   <g id="text_3">
    <!-- $C_{w}$ -->
    <defs>
     <path d="M 8.5 54.6875 
L 17.390625 54.6875 
L 19.671875 10.6875 
L 40.09375 54.6875 
L 50.484375 54.6875 
L 53.515625 10.6875 
L 72.90625 54.6875 
L 81.890625 54.6875 
L 56.890625 0 
L 46.390625 0 
L 43.703125 45.3125 
L 22.796875 0 
L 12.203125 0 
z
" id="DejaVuSans-Oblique-77"/>
    </defs>
    <g transform="translate(143.824 113.495)scale(0.16 -0.16)">
     <use transform="translate(0 0.78125)" xlink:href="#DejaVuSans-Oblique-43"/>
     <use transform="translate(69.824219 -15.625)scale(0.7)" xlink:href="#DejaVuSans-Oblique-77"/>
    </g>
   </g>
   <g id="text_4">
    <!-- $N_{f}$ -->
    <defs>
     <path d="M 16.890625 72.90625 
L 30.171875 72.90625 
L 50.296875 10.40625 
L 62.5 72.90625 
L 72.125 72.90625 
L 57.90625 0 
L 44.578125 0 
L 24.515625 62.890625 
L 12.3125 0 
L 2.6875 0 
z
" id="DejaVuSans-Oblique-4e"/>
    </defs>
    <g transform="translate(102.46 156.7382)scale(0.16 -0.16)">
     <use transform="translate(0 0.09375)" xlink:href="#DejaVuSans-Oblique-4e"/>
     <use transform="translate(74.804688 -16.3125)scale(0.7)" xlink:href="#DejaVuSans-Oblique-66"/>
    </g>
   </g>
  </g>
 </g>
 <defs>
  <clipPath id="pda63bf0216">
   <rect height="166.32" width="167.4" x="27" y="25.92"/>
  </clipPath>
 </defs>
</svg>
