<?xml version="1.0" encoding="utf-8" standalone="no"?>
<!DOCTYPE svg PUBLIC "-//W3C//DTD SVG 1.1//EN"
  "http://www.w3.org/Graphics/SVG/1.1/DTD/svg11.dtd">
<!-- Created with matplotlib (http://matplotlib.org/) -->
<svg height="216pt" version="1.1" viewBox="0 0 216 216" width="216pt" xmlns="http://www.w3.org/2000/svg" xmlns:xlink="http://www.w3.org/1999/xlink">
 <defs>
  <style type="text/css">
*{stroke-linecap:butt;stroke-linejoin:round;stroke-miterlimit:100000;}
  </style>
 </defs>
 <g id="figure_1">
  <g id="patch_1">
   <path d="M 0 216 
L 216 216 
L 216 0 
L 0 0 
L 0 216 
z
" style="fill:none;"/>
  </g>
  <g id="axes_1">
   <g id="patch_2">
    <path clip-path="url(#p67799b84bd)" d="M 43.2 129.6 
C 48.928387 129.6 54.422925 127.324088 58.473506 123.273506 
C 62.524088 119.222925 64.8 113.728387 64.8 108 
C 64.8 102.271613 62.524088 96.777075 58.473506 92.726494 
C 54.422925 88.675912 48.928387 86.4 43.2 86.4 
C 37.471613 86.4 31.977075 88.675912 27.926494 92.726494 
C 23.875912 96.777075 21.6 102.271613 21.6 108 
C 21.6 113.728387 23.875912 119.222925 27.926494 123.273506 
C 31.977075 127.324088 37.471613 129.6 43.2 129.6 
z
" style="fill:#0000ff;opacity:0.3;stroke:#0000ff;stroke-linejoin:miter;"/>
   </g>
   <g id="patch_3">
    <path clip-path="url(#p67799b84bd)" d="M 87.975699 67.971538 
C 93.704086 67.971538 99.198624 65.695625 103.249205 61.645044 
C 107.299787 57.594463 109.575699 52.099925 109.575699 46.371538 
C 109.575699 40.643151 107.299787 35.148613 103.249205 31.098031 
C 99.198624 27.04745 93.704086 24.771538 87.975699 24.771538 
C 82.247312 24.771538 76.752774 27.04745 72.702192 31.098031 
C 68.651611 35.148613 66.375699 40.643151 66.375699 46.371538 
C 66.375699 52.099925 68.651611 57.594463 72.702192 61.645044 
C 76.752774 65.695625 82.247312 67.971538 87.975699 67.971538 
z
" style="fill:#0000ff;opacity:0.3;stroke:#0000ff;stroke-linejoin:miter;"/>
   </g>
   <g id="patch_4">
    <path clip-path="url(#p67799b84bd)" d="M 99.824129 -4.041384 
Q 95.903446 5.678782 94.604436 15.953898 
L 96.836668 16.236103 
Q 94.525741 19.535399 92.514051 23.244429 
Q 90.770327 19.403741 89.395894 15.295419 
L 91.628126 15.577624 
Q 92.975878 4.916965 97.04193 -5.1636 
L 99.824129 -4.041384 
z
" style="fill:#0000ff;opacity:0.5;stroke:#000000;stroke-linecap:round;"/>
   </g>
   <g id="patch_5">
    <path clip-path="url(#p67799b84bd)" d="M 69.528606 31.252767 
Q 63.071037 22.997273 54.82203 16.734738 
L 53.461517 18.526805 
Q 51.759707 14.875837 49.553438 11.279146 
Q 53.751432 11.689381 57.996561 12.553249 
L 56.636048 14.345316 
Q 65.194574 20.842833 71.891573 29.404419 
L 69.528606 31.252767 
z
" style="fill:#0000ff;opacity:0.5;stroke:#0000ff;stroke-linecap:round;"/>
   </g>
   <g id="patch_6">
    <path clip-path="url(#p67799b84bd)" d="M 160.424301 91.511516 
C 166.152688 91.511516 171.647226 89.235603 175.697808 85.185022 
C 179.748389 81.134441 182.024301 75.639903 182.024301 69.911516 
C 182.024301 64.183129 179.748389 58.68859 175.697808 54.638009 
C 171.647226 50.587428 166.152688 48.311516 160.424301 48.311516 
C 154.695914 48.311516 149.201376 50.587428 145.150795 54.638009 
C 141.100213 58.68859 138.824301 64.183129 138.824301 69.911516 
C 138.824301 75.639903 141.100213 81.134441 145.150795 85.185022 
C 149.201376 89.235603 154.695914 91.511516 160.424301 91.511516 
z
" style="fill:#0000ff;opacity:0.3;stroke:#0000ff;stroke-linejoin:miter;"/>
   </g>
   <g id="patch_7">
    <path clip-path="url(#p67799b84bd)" d="M 169.102642 47.695331 
Q 174.958584 39.00273 178.365526 29.222229 
L 176.240747 28.482083 
Q 179.187136 25.735354 181.926017 22.525629 
Q 182.833112 26.644928 183.323342 30.949235 
L 181.198564 30.209089 
Q 177.663787 40.356575 171.590722 49.371475 
L 169.102642 47.695331 
z
" style="fill:#0000ff;opacity:0.5;stroke:#0000ff;stroke-linecap:round;"/>
   </g>
   <g id="patch_8">
    <path clip-path="url(#p67799b84bd)" d="M 160.424301 167.688484 
C 166.152688 167.688484 171.647226 165.412572 175.697808 161.361991 
C 179.748389 157.31141 182.024301 151.816871 182.024301 146.088484 
C 182.024301 140.360097 179.748389 134.865559 175.697808 130.814978 
C 171.647226 126.764397 166.152688 124.488484 160.424301 124.488484 
C 154.695914 124.488484 149.201376 126.764397 145.150795 130.814978 
C 141.100213 134.865559 138.824301 140.360097 138.824301 146.088484 
C 138.824301 151.816871 141.100213 157.31141 145.150795 161.361991 
C 149.201376 165.412572 154.695914 167.688484 160.424301 167.688484 
z
" style="fill:#0000ff;opacity:0.3;stroke:#0000ff;stroke-linejoin:miter;"/>
   </g>
   <g id="patch_9">
    <path clip-path="url(#p67799b84bd)" d="M 184.234904 147.476898 
Q 194.311644 150.360069 204.666256 150.577921 
L 204.713584 148.328419 
Q 208.236363 150.281816 212.135353 151.894787 
Q 208.497974 154.030419 204.555825 155.82676 
L 204.603153 153.577258 
Q 193.860015 153.351231 183.409655 150.361159 
L 184.234904 147.476898 
z
" style="fill:#0000ff;opacity:0.5;stroke:#0000ff;stroke-linecap:round;"/>
   </g>
   <g id="patch_10">
    <path clip-path="url(#p67799b84bd)" d="M 87.975699 191.228462 
C 93.704086 191.228462 99.198624 188.95255 103.249205 184.901969 
C 107.299787 180.851387 109.575699 175.356849 109.575699 169.628462 
C 109.575699 163.900075 107.299787 158.405537 103.249205 154.354956 
C 99.198624 150.304375 93.704086 148.028462 87.975699 148.028462 
C 82.247312 148.028462 76.752774 150.304375 72.702192 154.354956 
C 68.651611 158.405537 66.375699 163.900075 66.375699 169.628462 
C 66.375699 175.356849 68.651611 180.851387 72.702192 184.901969 
C 76.752774 188.95255 82.247312 191.228462 87.975699 191.228462 
z
" style="fill:#0000ff;opacity:0.3;stroke:#0000ff;stroke-linejoin:miter;"/>
   </g>
   <g id="patch_11">
    <path clip-path="url(#p67799b84bd)" d="M 48.758145 203.44904 
Q 57.643414 197.889781 64.733898 190.340576 
L 63.09386 188.800194 
Q 66.902716 187.489337 70.710321 185.67111 
Q 69.863524 189.803226 68.560652 193.934801 
L 66.920615 192.394419 
Q 59.564082 200.226885 50.34937 205.992267 
L 48.758145 203.44904 
z
" style="fill:#0000ff;opacity:0.5;stroke:#000000;stroke-linecap:round;"/>
   </g>
   <g id="patch_12">
    <path clip-path="url(#p67799b84bd)" d="M 94.01312 192.702734 
Q 94.384945 203.177233 97.377506 213.092374 
L 99.531535 212.442251 
Q 98.762343 216.396246 98.433171 220.602842 
Q 95.278052 217.803435 92.351439 214.609328 
L 94.505468 213.959205 
Q 91.40062 203.672028 91.015008 192.809162 
L 94.01312 192.702734 
z
" style="fill:#0000ff;opacity:0.5;stroke:#0000ff;stroke-linecap:round;"/>
   </g>
   <g id="patch_13">
    <path clip-path="url(#p67799b84bd)" d="M 109.694654 55.909176 
Q 119.35373 61.539029 130.020062 64.426897 
L 130.60807 62.25509 
Q 133.562665 65.001214 136.946928 67.518504 
Q 132.899203 68.699253 128.648042 69.494447 
L 129.236051 67.32264 
Q 118.18626 64.330951 108.183964 58.501051 
L 109.694654 55.909176 
z
" style="fill:#0000ff;opacity:0.5;stroke:#0000ff;stroke-linecap:round;"/>
   </g>
   <g id="patch_14">
    <path clip-path="url(#p67799b84bd)" d="M 137.278389 75.005145 
Q 102.457321 79.112056 71.199585 94.515566 
L 72.194158 96.533814 
Q 68.071394 96.474504 63.869843 96.604494 
Q 66.294286 93.170969 68.878915 89.806321 
L 69.873488 91.824569 
Q 101.593792 76.193109 136.926995 72.025796 
L 137.278389 75.005145 
z
" style="fill:#0000ff;opacity:0.5;stroke:#0000ff;stroke-linecap:round;"/>
   </g>
   <g id="patch_15">
    <path clip-path="url(#p67799b84bd)" d="M 111.152786 164.578492 
Q 122.276287 163.455676 132.602977 159.522498 
L 131.802129 157.419847 
Q 135.806579 157.90484 140.02413 157.952151 
Q 137.443479 161.28659 134.471621 164.428685 
L 133.670773 162.326033 
Q 122.972834 166.400611 111.454077 167.563324 
L 111.152786 164.578492 
z
" style="fill:#0000ff;opacity:0.5;stroke:#0000ff;stroke-linecap:round;"/>
   </g>
   <g id="patch_16">
    <path clip-path="url(#p67799b84bd)" d="M 138.704905 136.604491 
Q 108.120088 119.459742 73.778092 113.548607 
L 73.396422 115.765999 
Q 70.095897 113.294716 66.620365 110.930271 
Q 70.599955 109.577543 74.668655 108.374692 
L 74.286985 110.592084 
Q 109.137192 116.590695 140.171838 133.987603 
L 138.704905 136.604491 
z
" style="fill:#0000ff;opacity:0.5;stroke:#0000ff;stroke-linecap:round;"/>
   </g>
   <g id="patch_17">
    <path clip-path="url(#p67799b84bd)" d="M 148.427492 125.649432 
Q 133.761286 93.801734 109.452505 68.833806 
L 107.840377 70.403374 
Q 106.62278 66.464064 105.200802 62.508322 
Q 109.215472 63.753086 113.214137 65.171481 
L 111.602009 66.741049 
Q 136.270524 92.078465 151.152434 124.394567 
L 148.427492 125.649432 
z
" style="fill:#0000ff;opacity:0.5;stroke:#0000ff;stroke-linecap:round;"/>
   </g>
   <g id="patch_18">
    <path clip-path="url(#p67799b84bd)" d="M 90.283849 146.041374 
Q 97.138247 111.655465 92.14781 77.167645 
L 89.921002 77.489867 
Q 91.251414 73.587213 92.426136 69.551132 
Q 94.942418 72.917931 97.343695 76.415793 
L 95.116887 76.738015 
Q 100.181175 111.736204 93.225966 146.627848 
L 90.283849 146.041374 
z
" style="fill:#0000ff;opacity:0.5;stroke:#0000ff;stroke-linecap:round;"/>
   </g>
   <g id="patch_19">
    <path clip-path="url(#p67799b84bd)" d="M 144.692825 87.637174 
Q 118.935971 111.427045 102.701887 142.261583 
L 104.69281 143.309784 
Q 101.322562 145.685102 97.999843 148.259875 
Q 97.943083 144.057044 98.056401 139.815779 
L 100.047324 140.863981 
Q 116.521648 109.573137 142.657324 85.433374 
L 144.692825 87.637174 
z
" style="fill:#0000ff;opacity:0.5;stroke:#0000ff;stroke-linecap:round;"/>
   </g>
   <g id="patch_20">
    <path clip-path="url(#p67799b84bd)" d="M 85.667548 69.958626 
Q 78.81315 104.344535 83.803587 138.832355 
L 86.030395 138.510133 
Q 84.699984 142.412787 83.525261 146.448868 
Q 81.008979 143.082069 78.607703 139.584207 
L 80.83451 139.261985 
Q 75.770222 104.263796 82.725432 69.372152 
L 85.667548 69.958626 
z
" style="fill:#0000ff;opacity:0.5;stroke:#0000ff;stroke-linecap:round;"/>
   </g>
   <g id="text_1">
    <!-- $C_{s}$ -->
    <defs>
     <path d="M 8.6875 6.109375 
Q 11.375 1.515625 19.484375 1.515625 
Q 23 1.515625 26.171875 2.703125 
Q 29.34375 3.90625 31.421875 6.296875 
Q 33.5 8.6875 33.5 12.109375 
Q 33.5 14.703125 31.640625 16.359375 
Q 29.78125 18.015625 27.09375 18.609375 
L 21.6875 19.671875 
Q 17.96875 20.609375 15.578125 23.140625 
Q 13.1875 25.6875 13.1875 29.296875 
Q 13.1875 33.734375 15.59375 37.15625 
Q 18.015625 40.578125 21.96875 42.375 
Q 25.921875 44.1875 30.171875 44.1875 
Q 34.71875 44.1875 38.296875 42.015625 
Q 41.890625 39.84375 41.890625 35.59375 
Q 41.890625 33.296875 40.59375 31.53125 
Q 39.3125 29.78125 37.015625 29.78125 
Q 35.6875 29.78125 34.734375 30.640625 
Q 33.796875 31.5 33.796875 32.8125 
Q 33.796875 33.984375 34.453125 35.078125 
Q 35.109375 36.1875 36.203125 36.84375 
Q 37.3125 37.5 38.484375 37.5 
Q 37.59375 39.65625 35.171875 40.625 
Q 32.765625 41.609375 29.984375 41.609375 
Q 27.4375 41.609375 24.890625 40.578125 
Q 22.359375 39.546875 20.8125 37.5625 
Q 19.28125 35.59375 19.28125 32.90625 
Q 19.28125 31.109375 20.546875 29.734375 
Q 21.828125 28.375 23.6875 27.78125 
L 29.5 26.609375 
Q 32.28125 26.03125 34.59375 24.53125 
Q 36.921875 23.046875 38.25 20.765625 
Q 39.59375 18.5 39.59375 15.578125 
Q 39.59375 11.859375 37.515625 8.25 
Q 35.453125 4.640625 32.421875 2.484375 
Q 27.09375 -1.125 19.390625 -1.125 
Q 14.0625 -1.125 9.609375 1.3125 
Q 5.171875 3.765625 5.171875 8.59375 
Q 5.171875 11.328125 6.75 13.34375 
Q 8.34375 15.375 11.078125 15.375 
Q 12.703125 15.375 13.796875 14.390625 
Q 14.890625 13.421875 14.890625 11.8125 
Q 14.890625 9.515625 13.171875 7.8125 
Q 11.46875 6.109375 9.1875 6.109375 
z
" id="Cmmi10-73"/>
     <path d="M 14.59375 21.578125 
Q 14.59375 15.578125 16.90625 11.015625 
Q 19.234375 6.453125 23.65625 3.875 
Q 28.078125 1.3125 34.078125 1.3125 
Q 40.375 1.3125 46.203125 4.53125 
Q 52.046875 7.765625 56.171875 13.15625 
Q 60.296875 18.5625 61.8125 24.609375 
Q 62.015625 25.203125 62.59375 25.203125 
L 63.8125 25.203125 
Q 64.203125 25.203125 64.453125 24.921875 
Q 64.703125 24.65625 64.703125 24.3125 
Q 64.703125 24.21875 64.59375 24.03125 
Q 62.890625 17.09375 57.984375 11.015625 
Q 53.078125 4.9375 46.234375 1.359375 
Q 39.40625 -2.203125 32.171875 -2.203125 
Q 24.359375 -2.203125 18.15625 1.3125 
Q 11.96875 4.828125 8.515625 11.078125 
Q 5.078125 17.328125 5.078125 25.203125 
Q 5.078125 33.59375 8.828125 41.8125 
Q 12.59375 50.046875 18.9375 56.46875 
Q 25.296875 62.890625 33.421875 66.703125 
Q 41.546875 70.515625 49.90625 70.515625 
Q 53.21875 70.515625 56.25 69.5 
Q 59.28125 68.5 61.859375 66.453125 
Q 64.453125 64.40625 66.109375 61.71875 
L 74.03125 70.3125 
Q 74.03125 70.515625 74.515625 70.515625 
L 75.09375 70.515625 
Q 75.484375 70.515625 75.734375 70.171875 
Q 75.984375 69.828125 75.984375 69.484375 
L 69.1875 42.484375 
Q 69.1875 41.796875 68.40625 41.796875 
L 66.609375 41.796875 
Q 65.828125 41.796875 65.828125 42.921875 
Q 66.21875 45.125 66.21875 48.1875 
Q 66.21875 53.078125 64.546875 57.390625 
Q 62.890625 61.71875 59.390625 64.359375 
Q 55.90625 67 50.875 67 
Q 42.71875 67 35.9375 62.890625 
Q 29.15625 58.796875 24.4375 52.125 
Q 19.734375 45.453125 17.15625 37.328125 
Q 14.59375 29.203125 14.59375 21.578125 
" id="Cmmi10-43"/>
    </defs>
    <g transform="translate(34.32 112.415)scale(0.16 -0.16)">
     <use transform="translate(0.0 0.484375)" xlink:href="#Cmmi10-43"/>
     <use transform="translate(71.38671875 -16.521874999999994)scale(0.7)" xlink:href="#Cmmi10-73"/>
    </g>
   </g>
   <g id="text_2">
    <!-- $C_{f}$ -->
    <defs>
     <path d="M 9.71875 -16.5 
Q 11.578125 -17.921875 14.203125 -17.921875 
Q 17.78125 -17.921875 20.015625 -10.015625 
Q 20.953125 -6.203125 25.09375 15.09375 
L 29.6875 39.59375 
L 21.09375 39.59375 
Q 20.125 39.59375 20.125 40.921875 
Q 20.515625 43.109375 21.390625 43.109375 
L 30.328125 43.109375 
L 31.5 49.609375 
Q 32.078125 52.640625 32.5625 54.8125 
Q 33.0625 56.984375 33.625 58.828125 
Q 34.1875 60.6875 35.296875 62.984375 
Q 37.015625 66.265625 39.921875 68.390625 
Q 42.828125 70.515625 46.1875 70.515625 
Q 48.390625 70.515625 50.46875 69.703125 
Q 52.546875 68.890625 53.859375 67.28125 
Q 55.171875 65.671875 55.171875 63.484375 
Q 55.171875 60.9375 53.484375 59.046875 
Q 51.8125 57.171875 49.421875 57.171875 
Q 47.796875 57.171875 46.65625 58.171875 
Q 45.515625 59.1875 45.515625 60.796875 
Q 45.515625 62.984375 47 64.625 
Q 48.484375 66.265625 50.6875 66.5 
Q 48.828125 67.921875 46.09375 67.921875 
Q 44.578125 67.921875 43.234375 66.5 
Q 41.890625 65.09375 41.5 63.484375 
Q 40.875 60.9375 38.71875 49.703125 
L 37.5 43.109375 
L 47.796875 43.109375 
Q 48.78125 43.109375 48.78125 41.796875 
Q 48.734375 41.546875 48.578125 40.9375 
Q 48.4375 40.328125 48.171875 39.953125 
Q 47.90625 39.59375 47.515625 39.59375 
L 36.8125 39.59375 
L 32.171875 15.1875 
Q 31.296875 9.859375 30.140625 4.359375 
Q 29 -1.125 26.921875 -6.90625 
Q 24.859375 -12.703125 21.625 -16.609375 
Q 18.40625 -20.515625 14.015625 -20.515625 
Q 10.640625 -20.515625 7.984375 -18.578125 
Q 5.328125 -16.65625 5.328125 -13.484375 
Q 5.328125 -10.9375 6.953125 -9.046875 
Q 8.59375 -7.171875 11.078125 -7.171875 
Q 12.75 -7.171875 13.859375 -8.171875 
Q 14.984375 -9.1875 14.984375 -10.796875 
Q 14.984375 -12.9375 13.390625 -14.71875 
Q 11.8125 -16.5 9.71875 -16.5 
" id="Cmmi10-66"/>
    </defs>
    <g transform="translate(79.0156987645 49.4915377441)scale(0.16 -0.16)">
     <use transform="translate(0.0 0.484375)" xlink:href="#Cmmi10-43"/>
     <use transform="translate(71.38671875 -16.521874999999994)scale(0.7)" xlink:href="#Cmmi10-66"/>
    </g>
   </g>
   <g id="text_3">
    <!-- $C_{ds}$ -->
    <defs>
     <path d="M 17.390625 -1.125 
Q 11.078125 -1.125 7.4375 3.640625 
Q 3.8125 8.40625 3.8125 14.890625 
Q 3.8125 21.296875 7.125 28.171875 
Q 10.453125 35.0625 16.09375 39.625 
Q 21.734375 44.1875 28.21875 44.1875 
Q 31.15625 44.1875 33.515625 42.546875 
Q 35.890625 40.921875 37.203125 38.1875 
L 42.828125 60.5 
Q 43.21875 62.203125 43.3125 63.1875 
Q 43.3125 64.796875 36.8125 64.796875 
Q 35.796875 64.796875 35.796875 66.109375 
Q 35.84375 66.359375 36.015625 66.984375 
Q 36.1875 67.625 36.453125 67.96875 
Q 36.71875 68.3125 37.203125 68.3125 
L 50.6875 69.390625 
Q 51.90625 69.390625 51.90625 68.109375 
L 37.5 10.59375 
Q 36.8125 8.9375 36.8125 5.8125 
Q 36.8125 1.515625 39.703125 1.515625 
Q 42.828125 1.515625 44.453125 5.484375 
Q 46.09375 9.46875 47.21875 14.703125 
Q 47.40625 15.28125 48 15.28125 
L 49.21875 15.28125 
Q 49.609375 15.28125 49.84375 14.9375 
Q 50.09375 14.59375 50.09375 14.3125 
Q 48.34375 7.328125 46.265625 3.09375 
Q 44.1875 -1.125 39.5 -1.125 
Q 36.140625 -1.125 33.546875 0.84375 
Q 30.953125 2.828125 30.328125 6.109375 
Q 23.875 -1.125 17.390625 -1.125 
M 17.484375 1.515625 
Q 21.09375 1.515625 24.484375 4.21875 
Q 27.875 6.9375 30.328125 10.59375 
Q 30.421875 10.6875 30.421875 10.984375 
L 35.890625 33.015625 
Q 35.296875 36.53125 33.296875 39.0625 
Q 31.296875 41.609375 27.984375 41.609375 
Q 24.609375 41.609375 21.703125 38.84375 
Q 18.796875 36.078125 16.796875 32.328125 
Q 14.84375 28.328125 13.0625 21.34375 
Q 11.28125 14.359375 11.28125 10.5 
Q 11.28125 7.03125 12.765625 4.265625 
Q 14.265625 1.515625 17.484375 1.515625 
" id="Cmmi10-64"/>
    </defs>
    <g transform="translate(148.664301235 74.3265156514)scale(0.16 -0.16)">
     <use transform="translate(0.0 0.484375)" xlink:href="#Cmmi10-43"/>
     <use transform="translate(71.38671875 -16.521874999999994)scale(0.7)" xlink:href="#Cmmi10-64"/>
     <use transform="translate(107.7880859375 -16.521874999999994)scale(0.7)" xlink:href="#Cmmi10-73"/>
    </g>
   </g>
   <g id="text_4">
    <!-- $C_{df}$ -->
    <g transform="translate(148.504301235 149.208484349)scale(0.16 -0.16)">
     <use transform="translate(0.0 0.484375)" xlink:href="#Cmmi10-43"/>
     <use transform="translate(71.38671875 -16.521874999999994)scale(0.7)" xlink:href="#Cmmi10-64"/>
     <use transform="translate(107.7880859375 -16.521874999999994)scale(0.7)" xlink:href="#Cmmi10-66"/>
    </g>
   </g>
   <g id="text_5">
    <!-- $N$ -->
    <defs>
     <path d="M 4.6875 0 
Q 3.71875 0 3.71875 1.3125 
Q 3.765625 1.5625 3.90625 2.171875 
Q 4.046875 2.78125 4.3125 3.140625 
Q 4.59375 3.515625 4.984375 3.515625 
Q 14.546875 3.515625 16.109375 9.625 
L 29.6875 64.3125 
Q 26.90625 64.796875 20.90625 64.796875 
Q 19.921875 64.796875 19.921875 66.109375 
Q 19.96875 66.359375 20.109375 66.96875 
Q 20.265625 67.578125 20.53125 67.9375 
Q 20.796875 68.3125 21.1875 68.3125 
L 38.484375 68.3125 
Q 39.203125 68.3125 39.40625 67.671875 
L 61.625 14.796875 
L 72.703125 59.078125 
Q 72.90625 60.15625 72.90625 60.59375 
Q 72.90625 64.796875 65.1875 64.796875 
Q 64.203125 64.796875 64.203125 66.109375 
Q 64.546875 67.390625 64.734375 67.84375 
Q 64.9375 68.3125 65.921875 68.3125 
L 87.3125 68.3125 
Q 88.28125 68.3125 88.28125 67 
Q 88.234375 66.75 88.078125 66.140625 
Q 87.9375 65.53125 87.671875 65.15625 
Q 87.40625 64.796875 87.015625 64.796875 
Q 77.4375 64.796875 75.875 58.6875 
L 61.53125 0.875 
Q 61.1875 0 60.5 0 
L 59.28125 0 
Q 58.59375 0 58.40625 0.6875 
L 32.90625 61.1875 
L 32.71875 61.8125 
Q 32.515625 62.015625 32.515625 62.109375 
L 19.28125 9.1875 
Q 19.1875 8.9375 19.140625 8.5625 
Q 19.09375 8.203125 19 7.71875 
Q 19 5.125 21.234375 4.3125 
Q 23.484375 3.515625 26.8125 3.515625 
Q 27.78125 3.515625 27.78125 2.203125 
Q 27.4375 0.828125 27.1875 0.40625 
Q 26.953125 0 26.125 0 
z
" id="Cmmi10-4e"/>
    </defs>
    <g transform="translate(81.4956987645 174.043462256)scale(0.16 -0.16)">
     <use transform="translate(0.0 0.6875)" xlink:href="#Cmmi10-4e"/>
    </g>
   </g>
  </g>
 </g>
 <defs>
  <clipPath id="p67799b84bd">
   <rect height="216.0" width="216.0" x="0.0" y="0.0"/>
  </clipPath>
 </defs>
</svg>
