<?xml version="1.0" encoding="utf-8" standalone="no"?>
<!DOCTYPE svg PUBLIC "-//W3C//DTD SVG 1.1//EN"
  "http://www.w3.org/Graphics/SVG/1.1/DTD/svg11.dtd">
<!-- Created with matplotlib (http://matplotlib.org/) -->
<svg height="504pt" version="1.1" viewBox="0 0 504 504" width="504pt" xmlns="http://www.w3.org/2000/svg" xmlns:xlink="http://www.w3.org/1999/xlink">
 <defs>
  <style type="text/css">
*{stroke-linecap:butt;stroke-linejoin:round;stroke-miterlimit:100000;}
  </style>
 </defs>
 <g id="figure_1">
  <g id="patch_1">
   <path d="M 0 504 
L 504 504 
L 504 0 
L 0 0 
z
" style="fill:#ffffff;"/>
  </g>
  <g id="axes_1">
   <g id="patch_2">
    <path clip-path="url(#pc2c2279be7)" d="M 80.64 313.488 
C 91.332989 313.488 101.58946 309.664467 109.150545 302.859491 
C 116.71163 296.054514 120.96 286.82369 120.96 277.2 
C 120.96 267.57631 116.71163 258.345486 109.150545 251.540509 
C 101.58946 244.735533 91.332989 240.912 80.64 240.912 
C 69.947011 240.912 59.69054 244.735533 52.129455 251.540509 
C 44.56837 258.345486 40.32 267.57631 40.32 277.2 
C 40.32 286.82369 44.56837 296.054514 52.129455 302.859491 
C 59.69054 309.664467 69.947011 313.488 80.64 313.488 
z
" style="fill:#0000ff;opacity:0.3;stroke:#0000ff;stroke-linejoin:miter;"/>
   </g>
   <g id="patch_3">
    <path clip-path="url(#pc2c2279be7)" d="M -3.855911 231.506852 
Q 14.018831 245.488281 35.042536 253.402961 
L 36.09951 250.595327 
Q 39.722215 254.633323 43.807083 258.488323 
Q 38.270119 259.423464 32.576262 259.954105 
L 33.633237 257.146472 
Q 12.036609 249.016107 -6.320324 234.657514 
L -3.855911 231.506852 
z
" style="fill:#0000ff;opacity:0.5;stroke:#000000;stroke-linecap:round;"/>
   </g>
   <g id="patch_4">
    <path clip-path="url(#pc2c2279be7)" d="M 44.385335 297.826261 
Q 22.669989 304.416445 4.108981 317.070586 
L 5.798892 319.549336 
Q 0.412292 320.192712 -5.090218 321.31946 
Q -2.672772 316.251086 0.165856 311.286836 
L 1.855767 313.765586 
Q 20.922586 300.766604 43.223727 293.998642 
L 44.385335 297.826261 
z
" style="fill:#008000;opacity:0.5;stroke:#008000;stroke-linecap:round;"/>
   </g>
   <g id="patch_5">
    <path clip-path="url(#pc2c2279be7)" d="M 166.32 179.926098 
C 177.012989 179.926098 187.26946 176.102566 194.830545 169.297589 
C 202.39163 162.492612 206.64 153.261788 206.64 143.638098 
C 206.64 134.014408 202.39163 124.783584 194.830545 117.978607 
C 187.26946 111.173631 177.012989 107.350098 166.32 107.350098 
C 155.627011 107.350098 145.37054 111.173631 137.809455 117.978607 
C 130.24837 124.783584 126 134.014408 126 143.638098 
C 126 153.261788 130.24837 162.492612 137.809455 169.297589 
C 145.37054 176.102566 155.627011 179.926098 166.32 179.926098 
z
" style="fill:#0000ff;opacity:0.3;stroke:#0000ff;stroke-linejoin:miter;"/>
   </g>
   <g id="patch_6">
    <path clip-path="url(#pc2c2279be7)" d="M 337.68 179.926098 
C 348.372989 179.926098 358.62946 176.102566 366.190545 169.297589 
C 373.75163 162.492612 378 153.261788 378 143.638098 
C 378 134.014408 373.75163 124.783584 366.190545 117.978607 
C 358.62946 111.173631 348.372989 107.350098 337.68 107.350098 
C 326.987011 107.350098 316.73054 111.173631 309.169455 117.978607 
C 301.60837 124.783584 297.36 134.014408 297.36 143.638098 
C 297.36 153.261788 301.60837 162.492612 309.169455 169.297589 
C 316.73054 176.102566 326.987011 179.926098 337.68 179.926098 
z
" style="fill:#0000ff;opacity:0.3;stroke:#0000ff;stroke-linejoin:miter;"/>
   </g>
   <g id="patch_7">
    <path clip-path="url(#pc2c2279be7)" d="M 423.63884 100.760359 
Q 401.923494 107.350543 383.362486 120.004684 
L 385.052397 122.483434 
Q 379.665797 123.12681 374.163287 124.253558 
Q 376.580733 119.185184 379.419361 114.220934 
L 381.109272 116.699684 
Q 400.176091 103.700702 422.477232 96.93274 
L 423.63884 100.760359 
z
" style="fill:#0000ff;opacity:0.5;stroke:#000000;stroke-linecap:round;"/>
   </g>
   <g id="patch_8">
    <path clip-path="url(#pc2c2279be7)" d="M 336.092099 105.021727 
Q 339.806052 85.008108 337.54725 64.997612 
L 334.566183 65.334117 
Q 336.515297 60.284774 338.058458 54.881185 
Q 341.437333 59.369686 344.503075 64.212433 
L 341.522007 64.548938 
Q 343.847676 85.151806 340.024955 105.751552 
L 336.092099 105.021727 
z
" style="fill:#008000;opacity:0.5;stroke:#008000;stroke-linecap:round;"/>
   </g>
   <g id="patch_9">
    <path clip-path="url(#pc2c2279be7)" d="M 423.36 313.488 
C 434.052989 313.488 444.30946 309.664467 451.870545 302.859491 
C 459.43163 296.054514 463.68 286.82369 463.68 277.2 
C 463.68 267.57631 459.43163 258.345486 451.870545 251.540509 
C 444.30946 244.735533 434.052989 240.912 423.36 240.912 
C 412.667011 240.912 402.41054 244.735533 394.849455 251.540509 
C 387.28837 258.345486 383.04 267.57631 383.04 277.2 
C 383.04 286.82369 387.28837 296.054514 394.849455 302.859491 
C 402.41054 309.664467 412.667011 313.488 423.36 313.488 
z
" style="fill:#0000ff;opacity:0.3;stroke:#0000ff;stroke-linejoin:miter;"/>
   </g>
   <g id="patch_10">
    <path clip-path="url(#pc2c2279be7)" d="M 337.68 447.049902 
C 348.372989 447.049902 358.62946 443.226369 366.190545 436.421393 
C 373.75163 429.616416 378 420.385592 378 410.761902 
C 378 401.138212 373.75163 391.907388 366.190545 385.102411 
C 358.62946 378.297434 348.372989 374.473902 337.68 374.473902 
C 326.987011 374.473902 316.73054 378.297434 309.169455 385.102411 
C 301.60837 391.907388 297.36 401.138212 297.36 410.761902 
C 297.36 420.385592 301.60837 429.616416 309.169455 436.421393 
C 316.73054 443.226369 326.987011 447.049902 337.68 447.049902 
z
" style="fill:#0000ff;opacity:0.3;stroke:#0000ff;stroke-linejoin:miter;"/>
   </g>
   <g id="patch_11">
    <path clip-path="url(#pc2c2279be7)" d="M 336.092099 499.15353 
Q 339.806052 479.139912 337.54725 459.129416 
L 334.566183 459.465921 
Q 336.515297 454.416578 338.058458 449.012989 
Q 341.437333 453.501489 344.503075 458.344236 
L 341.522007 458.680742 
Q 343.847676 479.28361 340.024955 499.883355 
L 336.092099 499.15353 
z
" style="fill:#0000ff;opacity:0.5;stroke:#000000;stroke-linecap:round;"/>
   </g>
   <g id="patch_12">
    <path clip-path="url(#pc2c2279be7)" d="M 375.397594 428.572754 
Q 393.272336 442.554183 414.296041 450.468863 
L 415.353015 447.661229 
Q 418.97572 451.699225 423.060588 455.554225 
Q 417.523624 456.489366 411.829767 457.020007 
L 412.886742 454.212374 
Q 391.290114 446.082009 372.933181 431.723416 
L 375.397594 428.572754 
z
" style="fill:#008000;opacity:0.5;stroke:#008000;stroke-linecap:round;"/>
   </g>
   <g id="patch_13">
    <path clip-path="url(#pc2c2279be7)" d="M 166.32 447.049902 
C 177.012989 447.049902 187.26946 443.226369 194.830545 436.421393 
C 202.39163 429.616416 206.64 420.385592 206.64 410.761902 
C 206.64 401.138212 202.39163 391.907388 194.830545 385.102411 
C 187.26946 378.297434 177.012989 374.473902 166.32 374.473902 
C 155.627011 374.473902 145.37054 378.297434 137.809455 385.102411 
C 130.24837 391.907388 126 401.138212 126 410.761902 
C 126 420.385592 130.24837 429.616416 137.809455 436.421393 
C 145.37054 443.226369 155.627011 447.049902 166.32 447.049902 
z
" style="fill:#0000ff;opacity:0.3;stroke:#0000ff;stroke-linejoin:miter;"/>
   </g>
   <g id="patch_14">
    <path clip-path="url(#pc2c2279be7)" d="M 106.007066 246.176445 
Q 131.433764 220.501283 146.979278 188.184539 
L 144.275802 186.88407 
Q 148.640989 183.579595 152.912611 179.94387 
Q 153.242182 185.542862 153.287388 191.218967 
L 150.583912 189.918498 
Q 134.747732 222.839492 108.849212 248.991087 
L 106.007066 246.176445 
z
" style="fill:#008000;opacity:0.5;stroke:#008000;stroke-linecap:round;"/>
   </g>
   <g id="patch_15">
    <path clip-path="url(#pc2c2279be7)" d="M 406.343148 242.154281 
Q 393.667969 208.49564 370.890122 181.0155 
L 368.580412 182.929981 
Q 367.398795 177.584914 365.875785 172.186516 
Q 371.101959 174.221556 376.279446 176.548376 
L 373.969736 178.462858 
Q 397.175193 206.458885 410.086516 240.744602 
L 406.343148 242.154281 
z
" style="fill:#0000ff;opacity:0.5;stroke:#0000ff;stroke-linecap:round;"/>
   </g>
   <g id="patch_16">
    <path clip-path="url(#pc2c2279be7)" d="M 354.696852 178.683817 
Q 367.372031 212.342458 390.149878 239.822598 
L 392.459588 237.908117 
Q 393.641205 243.253185 395.164215 248.651582 
Q 389.938041 246.616542 384.760554 244.289722 
L 387.070264 242.37524 
Q 363.864807 214.379213 350.953484 180.093496 
L 354.696852 178.683817 
z
" style="fill:#008000;opacity:0.5;stroke:#008000;stroke-linecap:round;"/>
   </g>
   <g id="patch_17">
    <path clip-path="url(#pc2c2279be7)" d="M 295.487207 406.621336 
Q 256.819772 398.470487 217.909531 403.517751 
L 218.295445 406.492826 
Q 213.134756 404.640203 207.763328 403.027719 
Q 212.28475 399.710771 217.009066 396.575909 
L 217.39498 399.550984 
Q 256.979504 394.416255 296.312251 402.707348 
L 295.487207 406.621336 
z
" style="fill:#008000;opacity:0.5;stroke:#008000;stroke-linecap:round;"/>
   </g>
   <g id="patch_18">
    <path clip-path="url(#pc2c2279be7)" d="M 140.952934 174.661653 
Q 115.526236 200.336815 99.980722 232.653559 
L 102.684198 233.954028 
Q 98.319011 237.258503 94.047389 240.894229 
Q 93.717818 235.295236 93.672612 229.619131 
L 96.376088 230.9196 
Q 112.212268 197.998606 138.110788 171.847011 
L 140.952934 174.661653 
z
" style="fill:#0000ff;opacity:0.5;stroke:#0000ff;stroke-linecap:round;"/>
   </g>
   <g id="patch_19">
    <path clip-path="url(#pc2c2279be7)" d="M 208.512793 414.902468 
Q 247.180228 423.053317 286.090469 418.006053 
L 285.704555 415.030978 
Q 290.865244 416.883601 296.236672 418.496084 
Q 291.71525 421.813033 286.990934 424.947895 
L 286.60502 421.97282 
Q 247.020496 427.107548 207.687749 418.816456 
L 208.512793 414.902468 
z
" style="fill:#0000ff;opacity:0.5;stroke:#0000ff;stroke-linecap:round;"/>
   </g>
   <g id="text_1">
    <!-- $S1$ -->
    <defs>
     <path d="M 6.109375 -2.203125 
Q 5.8125 -2.203125 5.5625 -1.859375 
Q 5.328125 -1.515625 5.328125 -1.21875 
L 11.078125 22.125 
Q 11.28125 22.703125 11.921875 22.703125 
L 13.09375 22.703125 
Q 13.484375 22.703125 13.703125 22.40625 
Q 13.921875 22.125 13.921875 21.6875 
Q 13.09375 18.265625 13.09375 15.578125 
Q 13.09375 8.34375 18.0625 4.828125 
Q 23.046875 1.3125 30.609375 1.3125 
Q 33.890625 1.3125 37.0625 2.921875 
Q 40.234375 4.546875 42.59375 7.125 
Q 44.96875 9.71875 46.375 12.90625 
Q 47.796875 16.109375 47.796875 19.390625 
Q 47.796875 22.90625 45.9375 25.65625 
Q 44.09375 28.421875 40.828125 29.203125 
L 28.609375 32.421875 
Q 23.6875 33.734375 20.75 37.71875 
Q 17.828125 41.703125 17.828125 46.6875 
Q 17.828125 52.6875 21.390625 58.25 
Q 24.953125 63.8125 30.6875 67.15625 
Q 36.421875 70.515625 42.390625 70.515625 
Q 46.96875 70.515625 50.796875 68.828125 
Q 54.640625 67.140625 56.6875 63.484375 
L 62.40625 70.21875 
Q 62.984375 70.515625 63.09375 70.515625 
L 63.71875 70.515625 
Q 64.109375 70.515625 64.34375 70.171875 
Q 64.59375 69.828125 64.59375 69.484375 
L 58.796875 46.296875 
Q 58.640625 45.609375 58.015625 45.609375 
L 56.78125 45.609375 
Q 55.90625 45.609375 55.90625 46.6875 
Q 56.390625 49.859375 56.390625 52.203125 
Q 56.390625 56.84375 54.796875 60.28125 
Q 53.21875 63.71875 50.015625 65.5 
Q 46.828125 67.28125 42.09375 67.28125 
Q 38.09375 67.28125 34.125 64.984375 
Q 30.171875 62.703125 27.734375 58.890625 
Q 25.296875 55.078125 25.296875 50.984375 
Q 25.296875 47.75 27.171875 45.265625 
Q 29.046875 42.78125 32.171875 41.890625 
L 44.390625 38.71875 
Q 47.703125 37.84375 50.171875 35.625 
Q 52.640625 33.40625 53.90625 30.34375 
Q 55.171875 27.296875 55.171875 23.6875 
Q 55.171875 18.953125 53.171875 14.328125 
Q 51.171875 9.71875 47.578125 5.90625 
Q 44 2.09375 39.453125 -0.046875 
Q 34.90625 -2.203125 30.171875 -2.203125 
Q 18.265625 -2.203125 13.09375 4.78125 
L 7.515625 -1.90625 
Q 6.9375 -2.203125 6.78125 -2.203125 
z
" id="Cmmi10-53"/>
     <path d="M 9.28125 0 
L 9.28125 3.515625 
Q 21.78125 3.515625 21.78125 6.6875 
L 21.78125 59.1875 
Q 16.609375 56.6875 8.6875 56.6875 
L 8.6875 60.203125 
Q 20.953125 60.203125 27.203125 66.609375 
L 28.609375 66.609375 
Q 28.953125 66.609375 29.265625 66.328125 
Q 29.59375 66.0625 29.59375 65.71875 
L 29.59375 6.6875 
Q 29.59375 3.515625 42.09375 3.515625 
L 42.09375 0 
z
" id="Cmr10-31"/>
    </defs>
    <g transform="translate(67.2 283.8225)scale(0.24 -0.24)">
     <use transform="translate(0.0 0.484375)" xlink:href="#Cmmi10-53"/>
     <use transform="translate(61.279296875 0.484375)" xlink:href="#Cmr10-31"/>
    </g>
   </g>
   <g id="text_2">
    <!-- $B1$ -->
    <defs>
     <path d="M 4.984375 0 
Q 4 0 4 1.3125 
Q 4.046875 1.5625 4.1875 2.140625 
Q 4.34375 2.734375 4.578125 3.125 
Q 4.828125 3.515625 5.328125 3.515625 
Q 8.15625 3.515625 10.25 3.65625 
Q 12.359375 3.8125 13.8125 4.203125 
Q 14.984375 4.640625 15.71875 6.890625 
L 29.390625 61.8125 
Q 29.59375 62.796875 29.59375 63.1875 
Q 29.59375 64.265625 28.421875 64.40625 
Q 26.515625 64.796875 21.1875 64.796875 
Q 20.21875 64.796875 20.21875 66.109375 
Q 20.265625 66.359375 20.40625 66.96875 
Q 20.5625 67.578125 20.828125 67.9375 
Q 21.09375 68.3125 21.484375 68.3125 
L 57.328125 68.3125 
Q 60.59375 68.3125 63.796875 67.5 
Q 67 66.703125 69.703125 64.9375 
Q 72.40625 63.1875 74 60.5625 
Q 75.59375 57.953125 75.59375 54.5 
Q 75.59375 50.734375 73.65625 47.5 
Q 71.734375 44.28125 68.671875 41.890625 
Q 65.625 39.5 62.078125 37.953125 
Q 58.546875 36.421875 54.6875 35.6875 
Q 57.421875 35.6875 60.21875 34.609375 
Q 63.03125 33.546875 65.234375 31.6875 
Q 67.4375 29.828125 68.78125 27.234375 
Q 70.125 24.65625 70.125 21.6875 
Q 70.125 15.671875 65.921875 10.6875 
Q 61.71875 5.71875 55.34375 2.859375 
Q 48.96875 0 43.015625 0 
z
M 23.390625 4.296875 
Q 23.390625 3.515625 26.8125 3.515625 
L 41.109375 3.515625 
Q 46 3.515625 50.484375 6.21875 
Q 54.984375 8.9375 57.6875 13.421875 
Q 60.40625 17.921875 60.40625 22.796875 
Q 60.40625 25.78125 59.15625 28.4375 
Q 57.90625 31.109375 55.5625 32.640625 
Q 53.21875 34.1875 50.203125 34.1875 
L 30.71875 34.1875 
L 23.78125 6.5 
Q 23.390625 5.125 23.390625 4.296875 
M 31.390625 36.8125 
L 46.578125 36.8125 
Q 51.375 36.8125 55.890625 39.25 
Q 60.40625 41.703125 63.25 45.890625 
Q 66.109375 50.09375 66.109375 54.78125 
Q 66.109375 59.125 63.390625 61.953125 
Q 60.6875 64.796875 56.390625 64.796875 
L 42.671875 64.796875 
Q 39.984375 64.796875 39.0625 64.296875 
Q 38.140625 63.8125 37.5 61.375 
z
" id="Cmmi10-42"/>
    </defs>
    <g transform="translate(151.2 150.260598127)scale(0.24 -0.24)">
     <use transform="translate(0.0 0.6875)" xlink:href="#Cmmi10-42"/>
     <use transform="translate(75.78125 0.6875)" xlink:href="#Cmr10-31"/>
    </g>
   </g>
   <g id="text_3">
    <!-- $S2$ -->
    <defs>
     <path d="M 4.984375 0 
L 4.984375 2.6875 
Q 4.984375 2.9375 5.171875 3.21875 
L 20.703125 20.40625 
Q 24.21875 24.21875 26.40625 26.796875 
Q 28.609375 29.390625 30.75 32.765625 
Q 32.90625 36.140625 34.15625 39.625 
Q 35.40625 43.109375 35.40625 47.015625 
Q 35.40625 51.125 33.890625 54.859375 
Q 32.375 58.59375 29.375 60.84375 
Q 26.375 63.09375 22.125 63.09375 
Q 17.78125 63.09375 14.3125 60.46875 
Q 10.84375 57.859375 9.421875 53.71875 
Q 9.8125 53.8125 10.5 53.8125 
Q 12.75 53.8125 14.328125 52.296875 
Q 15.921875 50.78125 15.921875 48.390625 
Q 15.921875 46.09375 14.328125 44.5 
Q 12.75 42.921875 10.5 42.921875 
Q 8.15625 42.921875 6.5625 44.546875 
Q 4.984375 46.1875 4.984375 48.390625 
Q 4.984375 52.15625 6.390625 55.4375 
Q 7.8125 58.734375 10.46875 61.296875 
Q 13.140625 63.875 16.484375 65.234375 
Q 19.828125 66.609375 23.578125 66.609375 
Q 29.296875 66.609375 34.21875 64.1875 
Q 39.15625 61.765625 42.03125 57.34375 
Q 44.921875 52.9375 44.921875 47.015625 
Q 44.921875 42.671875 43.015625 38.765625 
Q 41.109375 34.859375 38.125 31.65625 
Q 35.15625 28.46875 30.515625 24.40625 
Q 25.875 20.359375 24.421875 19 
L 13.09375 8.109375 
L 22.703125 8.109375 
Q 29.78125 8.109375 34.546875 8.21875 
Q 39.3125 8.34375 39.59375 8.59375 
Q 40.765625 9.859375 42 17.828125 
L 44.921875 17.828125 
L 42.09375 0 
z
" id="Cmr10-32"/>
    </defs>
    <g transform="translate(324.24 150.260598127)scale(0.24 -0.24)">
     <use transform="translate(0.0 0.484375)" xlink:href="#Cmmi10-53"/>
     <use transform="translate(61.279296875 0.484375)" xlink:href="#Cmr10-32"/>
    </g>
   </g>
   <g id="text_4">
    <!-- $B2$ -->
    <g transform="translate(408.24 283.8225)scale(0.24 -0.24)">
     <use transform="translate(0.0 0.6875)" xlink:href="#Cmmi10-42"/>
     <use transform="translate(75.78125 0.6875)" xlink:href="#Cmr10-32"/>
    </g>
   </g>
   <g id="text_5">
    <!-- $S3$ -->
    <defs>
     <path d="M 9.515625 7.71875 
Q 11.859375 4.296875 15.8125 2.640625 
Q 19.78125 0.984375 24.3125 0.984375 
Q 30.125 0.984375 32.5625 5.9375 
Q 35.015625 10.890625 35.015625 17.1875 
Q 35.015625 20.015625 34.5 22.84375 
Q 33.984375 25.6875 32.765625 28.125 
Q 31.546875 30.5625 29.421875 32.03125 
Q 27.296875 33.5 24.21875 33.5 
L 17.578125 33.5 
Q 16.703125 33.5 16.703125 34.421875 
L 16.703125 35.296875 
Q 16.703125 36.078125 17.578125 36.078125 
L 23.09375 36.53125 
Q 26.609375 36.53125 28.921875 39.15625 
Q 31.25 41.796875 32.328125 45.578125 
Q 33.40625 49.359375 33.40625 52.78125 
Q 33.40625 57.5625 31.15625 60.640625 
Q 28.90625 63.71875 24.3125 63.71875 
Q 20.515625 63.71875 17.046875 62.28125 
Q 13.578125 60.84375 11.53125 57.90625 
Q 11.71875 57.953125 11.859375 57.984375 
Q 12.015625 58.015625 12.203125 58.015625 
Q 14.453125 58.015625 15.96875 56.453125 
Q 17.484375 54.890625 17.484375 52.6875 
Q 17.484375 50.53125 15.96875 48.96875 
Q 14.453125 47.40625 12.203125 47.40625 
Q 10.015625 47.40625 8.453125 48.96875 
Q 6.890625 50.53125 6.890625 52.6875 
Q 6.890625 56.984375 9.46875 60.15625 
Q 12.0625 63.328125 16.140625 64.96875 
Q 20.21875 66.609375 24.3125 66.609375 
Q 27.34375 66.609375 30.703125 65.703125 
Q 34.078125 64.796875 36.8125 63.109375 
Q 39.546875 61.421875 41.28125 58.78125 
Q 43.015625 56.15625 43.015625 52.78125 
Q 43.015625 48.578125 41.140625 45.015625 
Q 39.265625 41.453125 35.984375 38.859375 
Q 32.71875 36.28125 28.8125 35.015625 
Q 33.15625 34.1875 37.0625 31.734375 
Q 40.96875 29.296875 43.328125 25.484375 
Q 45.703125 21.6875 45.703125 17.28125 
Q 45.703125 11.765625 42.671875 7.296875 
Q 39.65625 2.828125 34.71875 0.3125 
Q 29.78125 -2.203125 24.3125 -2.203125 
Q 19.625 -2.203125 14.90625 -0.40625 
Q 10.203125 1.375 7.203125 4.9375 
Q 4.203125 8.5 4.203125 13.484375 
Q 4.203125 15.96875 5.859375 17.625 
Q 7.515625 19.28125 10.015625 19.28125 
Q 11.625 19.28125 12.96875 18.53125 
Q 14.3125 17.78125 15.0625 16.40625 
Q 15.828125 15.046875 15.828125 13.484375 
Q 15.828125 11.03125 14.109375 9.375 
Q 12.40625 7.71875 10.015625 7.71875 
z
" id="Cmr10-33"/>
    </defs>
    <g transform="translate(324.24 417.384401873)scale(0.24 -0.24)">
     <use transform="translate(0.0 0.484375)" xlink:href="#Cmmi10-53"/>
     <use transform="translate(61.279296875 0.484375)" xlink:href="#Cmr10-33"/>
    </g>
   </g>
   <g id="text_6">
    <!-- $B3$ -->
    <g transform="translate(151.2 417.384401873)scale(0.24 -0.24)">
     <use transform="translate(0.0 0.6875)" xlink:href="#Cmmi10-42"/>
     <use transform="translate(75.78125 0.6875)" xlink:href="#Cmr10-33"/>
    </g>
   </g>
   <g id="legend_1">
    <g id="patch_20">
     <path d="M 10.55025 37.6965 
L 493.44975 37.6965 
L 493.44975 12.24 
L 10.55025 12.24 
z
" style="fill:#ffffff;stroke:#000000;stroke-linejoin:miter;"/>
    </g>
    <g id="patch_21">
     <path d="M 16.31025 28.94175 
L 45.11025 28.94175 
L 45.11025 18.86175 
L 16.31025 18.86175 
z
" style="fill:#0000ff;opacity:0.5;stroke:#0000ff;stroke-linejoin:miter;"/>
    </g>
    <g id="text_7">
     <!-- linear -->
     <defs>
      <path d="M 9.421875 54.6875 
L 18.40625 54.6875 
L 18.40625 0 
L 9.421875 0 
z
M 9.421875 75.984375 
L 18.40625 75.984375 
L 18.40625 64.59375 
L 9.421875 64.59375 
z
" id="BitstreamVeraSans-Roman-69"/>
      <path d="M 56.203125 29.59375 
L 56.203125 25.203125 
L 14.890625 25.203125 
Q 15.484375 15.921875 20.484375 11.0625 
Q 25.484375 6.203125 34.421875 6.203125 
Q 39.59375 6.203125 44.453125 7.46875 
Q 49.3125 8.734375 54.109375 11.28125 
L 54.109375 2.78125 
Q 49.265625 0.734375 44.1875 -0.34375 
Q 39.109375 -1.421875 33.890625 -1.421875 
Q 20.796875 -1.421875 13.15625 6.1875 
Q 5.515625 13.8125 5.515625 26.8125 
Q 5.515625 40.234375 12.765625 48.109375 
Q 20.015625 56 32.328125 56 
Q 43.359375 56 49.78125 48.890625 
Q 56.203125 41.796875 56.203125 29.59375 
M 47.21875 32.234375 
Q 47.125 39.59375 43.09375 43.984375 
Q 39.0625 48.390625 32.421875 48.390625 
Q 24.90625 48.390625 20.390625 44.140625 
Q 15.875 39.890625 15.1875 32.171875 
z
" id="BitstreamVeraSans-Roman-65"/>
      <path d="M 54.890625 33.015625 
L 54.890625 0 
L 45.90625 0 
L 45.90625 32.71875 
Q 45.90625 40.484375 42.875 44.328125 
Q 39.84375 48.1875 33.796875 48.1875 
Q 26.515625 48.1875 22.3125 43.546875 
Q 18.109375 38.921875 18.109375 30.90625 
L 18.109375 0 
L 9.078125 0 
L 9.078125 54.6875 
L 18.109375 54.6875 
L 18.109375 46.1875 
Q 21.34375 51.125 25.703125 53.5625 
Q 30.078125 56 35.796875 56 
Q 45.21875 56 50.046875 50.171875 
Q 54.890625 44.34375 54.890625 33.015625 
" id="BitstreamVeraSans-Roman-6e"/>
      <path d="M 41.109375 46.296875 
Q 39.59375 47.171875 37.8125 47.578125 
Q 36.03125 48 33.890625 48 
Q 26.265625 48 22.1875 43.046875 
Q 18.109375 38.09375 18.109375 28.8125 
L 18.109375 0 
L 9.078125 0 
L 9.078125 54.6875 
L 18.109375 54.6875 
L 18.109375 46.1875 
Q 20.953125 51.171875 25.484375 53.578125 
Q 30.03125 56 36.53125 56 
Q 37.453125 56 38.578125 55.875 
Q 39.703125 55.765625 41.0625 55.515625 
z
" id="BitstreamVeraSans-Roman-72"/>
      <path d="M 9.421875 75.984375 
L 18.40625 75.984375 
L 18.40625 0 
L 9.421875 0 
z
" id="BitstreamVeraSans-Roman-6c"/>
      <path d="M 34.28125 27.484375 
Q 23.390625 27.484375 19.1875 25 
Q 14.984375 22.515625 14.984375 16.5 
Q 14.984375 11.71875 18.140625 8.90625 
Q 21.296875 6.109375 26.703125 6.109375 
Q 34.1875 6.109375 38.703125 11.40625 
Q 43.21875 16.703125 43.21875 25.484375 
L 43.21875 27.484375 
z
M 52.203125 31.203125 
L 52.203125 0 
L 43.21875 0 
L 43.21875 8.296875 
Q 40.140625 3.328125 35.546875 0.953125 
Q 30.953125 -1.421875 24.3125 -1.421875 
Q 15.921875 -1.421875 10.953125 3.296875 
Q 6 8.015625 6 15.921875 
Q 6 25.140625 12.171875 29.828125 
Q 18.359375 34.515625 30.609375 34.515625 
L 43.21875 34.515625 
L 43.21875 35.40625 
Q 43.21875 41.609375 39.140625 45 
Q 35.0625 48.390625 27.6875 48.390625 
Q 23 48.390625 18.546875 47.265625 
Q 14.109375 46.140625 10.015625 43.890625 
L 10.015625 52.203125 
Q 14.9375 54.109375 19.578125 55.046875 
Q 24.21875 56 28.609375 56 
Q 40.484375 56 46.34375 49.84375 
Q 52.203125 43.703125 52.203125 31.203125 
" id="BitstreamVeraSans-Roman-61"/>
     </defs>
     <g transform="translate(56.63025 28.94175)scale(0.144 -0.144)">
      <use xlink:href="#BitstreamVeraSans-Roman-6c"/>
      <use x="27.783203125" xlink:href="#BitstreamVeraSans-Roman-69"/>
      <use x="55.56640625" xlink:href="#BitstreamVeraSans-Roman-6e"/>
      <use x="118.9453125" xlink:href="#BitstreamVeraSans-Roman-65"/>
      <use x="180.46875" xlink:href="#BitstreamVeraSans-Roman-61"/>
      <use x="241.748046875" xlink:href="#BitstreamVeraSans-Roman-72"/>
     </g>
    </g>
    <g id="patch_22">
     <path d="M 126.162 28.94175 
L 154.962 28.94175 
L 154.962 18.86175 
L 126.162 18.86175 
z
" style="fill:#008000;opacity:0.5;stroke:#008000;stroke-linejoin:miter;"/>
    </g>
    <g id="text_8">
     <!-- nonlinear -->
     <defs>
      <path d="M 30.609375 48.390625 
Q 23.390625 48.390625 19.1875 42.75 
Q 14.984375 37.109375 14.984375 27.296875 
Q 14.984375 17.484375 19.15625 11.84375 
Q 23.34375 6.203125 30.609375 6.203125 
Q 37.796875 6.203125 41.984375 11.859375 
Q 46.1875 17.53125 46.1875 27.296875 
Q 46.1875 37.015625 41.984375 42.703125 
Q 37.796875 48.390625 30.609375 48.390625 
M 30.609375 56 
Q 42.328125 56 49.015625 48.375 
Q 55.71875 40.765625 55.71875 27.296875 
Q 55.71875 13.875 49.015625 6.21875 
Q 42.328125 -1.421875 30.609375 -1.421875 
Q 18.84375 -1.421875 12.171875 6.21875 
Q 5.515625 13.875 5.515625 27.296875 
Q 5.515625 40.765625 12.171875 48.375 
Q 18.84375 56 30.609375 56 
" id="BitstreamVeraSans-Roman-6f"/>
     </defs>
     <g transform="translate(166.482 28.94175)scale(0.144 -0.144)">
      <use xlink:href="#BitstreamVeraSans-Roman-6e"/>
      <use x="63.37890625" xlink:href="#BitstreamVeraSans-Roman-6f"/>
      <use x="124.560546875" xlink:href="#BitstreamVeraSans-Roman-6e"/>
      <use x="187.939453125" xlink:href="#BitstreamVeraSans-Roman-6c"/>
      <use x="215.72265625" xlink:href="#BitstreamVeraSans-Roman-69"/>
      <use x="243.505859375" xlink:href="#BitstreamVeraSans-Roman-6e"/>
      <use x="306.884765625" xlink:href="#BitstreamVeraSans-Roman-65"/>
      <use x="368.408203125" xlink:href="#BitstreamVeraSans-Roman-61"/>
      <use x="429.6875" xlink:href="#BitstreamVeraSans-Roman-72"/>
     </g>
    </g>
    <g id="patch_23">
     <path d="M 263.07675 28.94175 
L 291.87675 28.94175 
L 291.87675 18.86175 
L 263.07675 18.86175 
z
" style="fill:#ff0000;opacity:0.5;stroke:#ff0000;stroke-linejoin:miter;"/>
    </g>
    <g id="text_9">
     <!-- no substrate dependence -->
     <defs>
      <path d="M 48.78125 52.59375 
L 48.78125 44.1875 
Q 44.96875 46.296875 41.140625 47.34375 
Q 37.3125 48.390625 33.40625 48.390625 
Q 24.65625 48.390625 19.8125 42.84375 
Q 14.984375 37.3125 14.984375 27.296875 
Q 14.984375 17.28125 19.8125 11.734375 
Q 24.65625 6.203125 33.40625 6.203125 
Q 37.3125 6.203125 41.140625 7.25 
Q 44.96875 8.296875 48.78125 10.40625 
L 48.78125 2.09375 
Q 45.015625 0.34375 40.984375 -0.53125 
Q 36.96875 -1.421875 32.421875 -1.421875 
Q 20.0625 -1.421875 12.78125 6.34375 
Q 5.515625 14.109375 5.515625 27.296875 
Q 5.515625 40.671875 12.859375 48.328125 
Q 20.21875 56 33.015625 56 
Q 37.15625 56 41.109375 55.140625 
Q 45.0625 54.296875 48.78125 52.59375 
" id="BitstreamVeraSans-Roman-63"/>
      <path d="M 18.109375 8.203125 
L 18.109375 -20.796875 
L 9.078125 -20.796875 
L 9.078125 54.6875 
L 18.109375 54.6875 
L 18.109375 46.390625 
Q 20.953125 51.265625 25.265625 53.625 
Q 29.59375 56 35.59375 56 
Q 45.5625 56 51.78125 48.09375 
Q 58.015625 40.1875 58.015625 27.296875 
Q 58.015625 14.40625 51.78125 6.484375 
Q 45.5625 -1.421875 35.59375 -1.421875 
Q 29.59375 -1.421875 25.265625 0.953125 
Q 20.953125 3.328125 18.109375 8.203125 
M 48.6875 27.296875 
Q 48.6875 37.203125 44.609375 42.84375 
Q 40.53125 48.484375 33.40625 48.484375 
Q 26.265625 48.484375 22.1875 42.84375 
Q 18.109375 37.203125 18.109375 27.296875 
Q 18.109375 17.390625 22.1875 11.75 
Q 26.265625 6.109375 33.40625 6.109375 
Q 40.53125 6.109375 44.609375 11.75 
Q 48.6875 17.390625 48.6875 27.296875 
" id="BitstreamVeraSans-Roman-70"/>
      <path id="BitstreamVeraSans-Roman-20"/>
      <path d="M 48.6875 27.296875 
Q 48.6875 37.203125 44.609375 42.84375 
Q 40.53125 48.484375 33.40625 48.484375 
Q 26.265625 48.484375 22.1875 42.84375 
Q 18.109375 37.203125 18.109375 27.296875 
Q 18.109375 17.390625 22.1875 11.75 
Q 26.265625 6.109375 33.40625 6.109375 
Q 40.53125 6.109375 44.609375 11.75 
Q 48.6875 17.390625 48.6875 27.296875 
M 18.109375 46.390625 
Q 20.953125 51.265625 25.265625 53.625 
Q 29.59375 56 35.59375 56 
Q 45.5625 56 51.78125 48.09375 
Q 58.015625 40.1875 58.015625 27.296875 
Q 58.015625 14.40625 51.78125 6.484375 
Q 45.5625 -1.421875 35.59375 -1.421875 
Q 29.59375 -1.421875 25.265625 0.953125 
Q 20.953125 3.328125 18.109375 8.203125 
L 18.109375 0 
L 9.078125 0 
L 9.078125 75.984375 
L 18.109375 75.984375 
z
" id="BitstreamVeraSans-Roman-62"/>
      <path d="M 45.40625 46.390625 
L 45.40625 75.984375 
L 54.390625 75.984375 
L 54.390625 0 
L 45.40625 0 
L 45.40625 8.203125 
Q 42.578125 3.328125 38.25 0.953125 
Q 33.9375 -1.421875 27.875 -1.421875 
Q 17.96875 -1.421875 11.734375 6.484375 
Q 5.515625 14.40625 5.515625 27.296875 
Q 5.515625 40.1875 11.734375 48.09375 
Q 17.96875 56 27.875 56 
Q 33.9375 56 38.25 53.625 
Q 42.578125 51.265625 45.40625 46.390625 
M 14.796875 27.296875 
Q 14.796875 17.390625 18.875 11.75 
Q 22.953125 6.109375 30.078125 6.109375 
Q 37.203125 6.109375 41.296875 11.75 
Q 45.40625 17.390625 45.40625 27.296875 
Q 45.40625 37.203125 41.296875 42.84375 
Q 37.203125 48.484375 30.078125 48.484375 
Q 22.953125 48.484375 18.875 42.84375 
Q 14.796875 37.203125 14.796875 27.296875 
" id="BitstreamVeraSans-Roman-64"/>
      <path d="M 8.5 21.578125 
L 8.5 54.6875 
L 17.484375 54.6875 
L 17.484375 21.921875 
Q 17.484375 14.15625 20.5 10.265625 
Q 23.53125 6.390625 29.59375 6.390625 
Q 36.859375 6.390625 41.078125 11.03125 
Q 45.3125 15.671875 45.3125 23.6875 
L 45.3125 54.6875 
L 54.296875 54.6875 
L 54.296875 0 
L 45.3125 0 
L 45.3125 8.40625 
Q 42.046875 3.421875 37.71875 1 
Q 33.40625 -1.421875 27.6875 -1.421875 
Q 18.265625 -1.421875 13.375 4.4375 
Q 8.5 10.296875 8.5 21.578125 
" id="BitstreamVeraSans-Roman-75"/>
      <path d="M 18.3125 70.21875 
L 18.3125 54.6875 
L 36.8125 54.6875 
L 36.8125 47.703125 
L 18.3125 47.703125 
L 18.3125 18.015625 
Q 18.3125 11.328125 20.140625 9.421875 
Q 21.96875 7.515625 27.59375 7.515625 
L 36.8125 7.515625 
L 36.8125 0 
L 27.59375 0 
Q 17.1875 0 13.234375 3.875 
Q 9.28125 7.765625 9.28125 18.015625 
L 9.28125 47.703125 
L 2.6875 47.703125 
L 2.6875 54.6875 
L 9.28125 54.6875 
L 9.28125 70.21875 
z
" id="BitstreamVeraSans-Roman-74"/>
      <path d="M 44.28125 53.078125 
L 44.28125 44.578125 
Q 40.484375 46.53125 36.375 47.5 
Q 32.28125 48.484375 27.875 48.484375 
Q 21.1875 48.484375 17.84375 46.4375 
Q 14.5 44.390625 14.5 40.28125 
Q 14.5 37.15625 16.890625 35.375 
Q 19.28125 33.59375 26.515625 31.984375 
L 29.59375 31.296875 
Q 39.15625 29.25 43.1875 25.515625 
Q 47.21875 21.78125 47.21875 15.09375 
Q 47.21875 7.46875 41.1875 3.015625 
Q 35.15625 -1.421875 24.609375 -1.421875 
Q 20.21875 -1.421875 15.453125 -0.5625 
Q 10.6875 0.296875 5.421875 2 
L 5.421875 11.28125 
Q 10.40625 8.6875 15.234375 7.390625 
Q 20.0625 6.109375 24.8125 6.109375 
Q 31.15625 6.109375 34.5625 8.28125 
Q 37.984375 10.453125 37.984375 14.40625 
Q 37.984375 18.0625 35.515625 20.015625 
Q 33.0625 21.96875 24.703125 23.78125 
L 21.578125 24.515625 
Q 13.234375 26.265625 9.515625 29.90625 
Q 5.8125 33.546875 5.8125 39.890625 
Q 5.8125 47.609375 11.28125 51.796875 
Q 16.75 56 26.8125 56 
Q 31.78125 56 36.171875 55.265625 
Q 40.578125 54.546875 44.28125 53.078125 
" id="BitstreamVeraSans-Roman-73"/>
     </defs>
     <g transform="translate(303.39675 28.94175)scale(0.144 -0.144)">
      <use xlink:href="#BitstreamVeraSans-Roman-6e"/>
      <use x="63.37890625" xlink:href="#BitstreamVeraSans-Roman-6f"/>
      <use x="124.560546875" xlink:href="#BitstreamVeraSans-Roman-20"/>
      <use x="156.34765625" xlink:href="#BitstreamVeraSans-Roman-73"/>
      <use x="208.447265625" xlink:href="#BitstreamVeraSans-Roman-75"/>
      <use x="271.826171875" xlink:href="#BitstreamVeraSans-Roman-62"/>
      <use x="335.302734375" xlink:href="#BitstreamVeraSans-Roman-73"/>
      <use x="387.40234375" xlink:href="#BitstreamVeraSans-Roman-74"/>
      <use x="426.611328125" xlink:href="#BitstreamVeraSans-Roman-72"/>
      <use x="467.724609375" xlink:href="#BitstreamVeraSans-Roman-61"/>
      <use x="529.00390625" xlink:href="#BitstreamVeraSans-Roman-74"/>
      <use x="568.212890625" xlink:href="#BitstreamVeraSans-Roman-65"/>
      <use x="629.736328125" xlink:href="#BitstreamVeraSans-Roman-20"/>
      <use x="661.5234375" xlink:href="#BitstreamVeraSans-Roman-64"/>
      <use x="725.0" xlink:href="#BitstreamVeraSans-Roman-65"/>
      <use x="786.5234375" xlink:href="#BitstreamVeraSans-Roman-70"/>
      <use x="850.0" xlink:href="#BitstreamVeraSans-Roman-65"/>
      <use x="911.5234375" xlink:href="#BitstreamVeraSans-Roman-6e"/>
      <use x="974.90234375" xlink:href="#BitstreamVeraSans-Roman-64"/>
      <use x="1038.37890625" xlink:href="#BitstreamVeraSans-Roman-65"/>
      <use x="1099.90234375" xlink:href="#BitstreamVeraSans-Roman-6e"/>
      <use x="1163.28125" xlink:href="#BitstreamVeraSans-Roman-63"/>
      <use x="1218.26171875" xlink:href="#BitstreamVeraSans-Roman-65"/>
     </g>
    </g>
   </g>
  </g>
 </g>
 <defs>
  <clipPath id="pc2c2279be7">
   <rect height="453.6" width="504.0" x="0.0" y="50.4"/>
  </clipPath>
 </defs>
</svg>
