<?xml version="1.0" encoding="utf-8" standalone="no"?>
<!DOCTYPE svg PUBLIC "-//W3C//DTD SVG 1.1//EN"
  "http://www.w3.org/Graphics/SVG/1.1/DTD/svg11.dtd">
<!-- Created with matplotlib (http://matplotlib.org/) -->
<svg height="216pt" version="1.1" viewBox="0 0 216 216" width="216pt" xmlns="http://www.w3.org/2000/svg" xmlns:xlink="http://www.w3.org/1999/xlink">
 <defs>
  <style type="text/css">
*{stroke-linecap:butt;stroke-linejoin:round;stroke-miterlimit:100000;}
  </style>
 </defs>
 <g id="figure_1">
  <g id="patch_1">
   <path d="M 0 216 
L 216 216 
L 216 0 
L 0 0 
L 0 216 
z
" style="fill:none;"/>
  </g>
  <g id="axes_1">
   <g id="patch_2">
    <path clip-path="url(#pc282903618)" d="M 34.56 125.28 
C 39.14271 125.28 43.53834 123.45927 46.778805 120.218805 
C 50.01927 116.97834 51.84 112.58271 51.84 108 
C 51.84 103.41729 50.01927 99.02166 46.778805 95.781195 
C 43.53834 92.54073 39.14271 90.72 34.56 90.72 
C 29.97729 90.72 25.58166 92.54073 22.341195 95.781195 
C 19.10073 99.02166 17.28 103.41729 17.28 108 
C 17.28 112.58271 19.10073 116.97834 22.341195 120.218805 
C 25.58166 123.45927 29.97729 125.28 34.56 125.28 
z
" style="fill:#0000ff;opacity:0.3;stroke:#0000ff;stroke-linejoin:miter;"/>
   </g>
   <g id="patch_3">
    <path clip-path="url(#pc282903618)" d="M -0.375509 86.541703 
Q 5.172133 91.136023 11.514278 94.349998 
L 12.531355 92.342997 
Q 14.819307 95.611319 17.708892 98.69099 
Q 13.511486 99.138892 9.141097 99.033001 
L 10.158174 97.026 
Q 3.516913 93.660442 -2.288995 88.852238 
L -0.375509 86.541703 
z
" style="fill:#0000ff;opacity:0.5;stroke:#000000;stroke-linecap:round;"/>
   </g>
   <g id="patch_4">
    <path clip-path="url(#pc282903618)" d="M 18.233969 118.71411 
Q 11.48135 121.221349 5.526893 125.10682 
L 6.756468 126.991135 
Q 2.782043 127.338399 -1.329823 128.301018 
Q 0.380985 124.442006 2.657884 120.710083 
L 3.887459 122.594399 
Q 10.122748 118.525677 17.18973 115.901715 
L 18.233969 118.71411 
z
" style="fill:#008000;opacity:0.5;stroke:#008000;stroke-linecap:round;"/>
   </g>
   <g id="patch_5">
    <path clip-path="url(#pc282903618)" d="M 71.28 61.679094 
C 75.86271 61.679094 80.25834 59.858365 83.498805 56.6179 
C 86.73927 53.377435 88.56 48.981804 88.56 44.399094 
C 88.56 39.816385 86.73927 35.420754 83.498805 32.180289 
C 80.25834 28.939824 75.86271 27.119094 71.28 27.119094 
C 66.69729 27.119094 62.30166 28.939824 59.061195 32.180289 
C 55.82073 35.420754 54 39.816385 54 44.399094 
C 54 48.981804 55.82073 53.377435 59.061195 56.6179 
C 62.30166 59.858365 66.69729 61.679094 71.28 61.679094 
z
" style="fill:#0000ff;opacity:0.3;stroke:#0000ff;stroke-linejoin:miter;"/>
   </g>
   <g id="patch_6">
    <path clip-path="url(#pc282903618)" d="M 144.72 61.679094 
C 149.30271 61.679094 153.69834 59.858365 156.938805 56.6179 
C 160.17927 53.377435 162 48.981804 162 44.399094 
C 162 39.816385 160.17927 35.420754 156.938805 32.180289 
C 153.69834 28.939824 149.30271 27.119094 144.72 27.119094 
C 140.13729 27.119094 135.74166 28.939824 132.501195 32.180289 
C 129.26073 35.420754 127.44 39.816385 127.44 44.399094 
C 127.44 48.981804 129.26073 53.377435 132.501195 56.6179 
C 135.74166 59.858365 140.13729 61.679094 144.72 61.679094 
z
" style="fill:#0000ff;opacity:0.3;stroke:#0000ff;stroke-linejoin:miter;"/>
   </g>
   <g id="patch_7">
    <path clip-path="url(#pc282903618)" d="M 180.771185 24.873204 
Q 174.018566 27.380444 168.064109 31.265914 
L 169.293685 33.15023 
Q 165.319259 33.497493 161.207393 34.460112 
Q 162.918201 30.6011 165.195101 26.869178 
L 166.424676 28.753493 
Q 172.659965 24.684771 179.726946 22.060809 
L 180.771185 24.873204 
z
" style="fill:#0000ff;opacity:0.5;stroke:#000000;stroke-linecap:round;"/>
   </g>
   <g id="patch_8">
    <path clip-path="url(#pc282903618)" d="M 143.604324 24.903282 
Q 144.809301 17.801722 144.421613 10.702276 
L 142.17496 10.824962 
Q 143.861434 7.209376 145.083714 3.167087 
Q 147.570313 6.578196 149.663803 10.41601 
L 147.41715 10.538695 
Q 147.823122 17.972975 146.562049 25.405142 
L 143.604324 24.903282 
z
" style="fill:#008000;opacity:0.5;stroke:#008000;stroke-linecap:round;"/>
   </g>
   <g id="patch_9">
    <path clip-path="url(#pc282903618)" d="M 181.44 125.28 
C 186.02271 125.28 190.41834 123.45927 193.658805 120.218805 
C 196.89927 116.97834 198.72 112.58271 198.72 108 
C 198.72 103.41729 196.89927 99.02166 193.658805 95.781195 
C 190.41834 92.54073 186.02271 90.72 181.44 90.72 
C 176.85729 90.72 172.46166 92.54073 169.221195 95.781195 
C 165.98073 99.02166 164.16 103.41729 164.16 108 
C 164.16 112.58271 165.98073 116.97834 169.221195 120.218805 
C 172.46166 123.45927 176.85729 125.28 181.44 125.28 
z
" style="fill:#0000ff;opacity:0.3;stroke:#0000ff;stroke-linejoin:miter;"/>
   </g>
   <g id="patch_10">
    <path clip-path="url(#pc282903618)" d="M 144.72 188.880906 
C 149.30271 188.880906 153.69834 187.060176 156.938805 183.819711 
C 160.17927 180.579246 162 176.183615 162 171.600906 
C 162 167.018196 160.17927 162.622565 156.938805 159.3821 
C 153.69834 156.141635 149.30271 154.320906 144.72 154.320906 
C 140.13729 154.320906 135.74166 156.141635 132.501195 159.3821 
C 129.26073 162.622565 127.44 167.018196 127.44 171.600906 
C 127.44 176.183615 129.26073 180.579246 132.501195 183.819711 
C 135.74166 187.060176 140.13729 188.880906 144.72 188.880906 
z
" style="fill:#0000ff;opacity:0.3;stroke:#0000ff;stroke-linejoin:miter;"/>
   </g>
   <g id="patch_11">
    <path clip-path="url(#pc282903618)" d="M 143.604324 212.585093 
Q 144.809301 205.483534 144.421613 198.384088 
L 142.17496 198.506773 
Q 143.861434 194.891188 145.083714 190.848898 
Q 147.570313 194.260008 149.663803 198.097821 
L 147.41715 198.220507 
Q 147.823122 205.654786 146.562049 213.086953 
L 143.604324 212.585093 
z
" style="fill:#0000ff;opacity:0.5;stroke:#000000;stroke-linecap:round;"/>
   </g>
   <g id="patch_12">
    <path clip-path="url(#pc282903618)" d="M 162.161707 180.382609 
Q 167.70935 184.976928 174.051494 188.190904 
L 175.068571 186.183903 
Q 177.356523 189.452225 180.246109 192.531895 
Q 176.048702 192.979798 171.678313 192.873907 
L 172.695391 190.866906 
Q 166.054129 187.501348 160.248221 182.693143 
L 162.161707 180.382609 
z
" style="fill:#008000;opacity:0.5;stroke:#008000;stroke-linecap:round;"/>
   </g>
   <g id="patch_13">
    <path clip-path="url(#pc282903618)" d="M 71.28 188.880906 
C 75.86271 188.880906 80.25834 187.060176 83.498805 183.819711 
C 86.73927 180.579246 88.56 176.183615 88.56 171.600906 
C 88.56 167.018196 86.73927 162.622565 83.498805 159.3821 
C 80.25834 156.141635 75.86271 154.320906 71.28 154.320906 
C 66.69729 154.320906 62.30166 156.141635 59.061195 159.3821 
C 55.82073 162.622565 54 167.018196 54 171.600906 
C 54 176.183615 55.82073 180.579246 59.061195 183.819711 
C 62.30166 187.060176 66.69729 188.880906 71.28 188.880906 
z
" style="fill:#0000ff;opacity:0.3;stroke:#0000ff;stroke-linejoin:miter;"/>
   </g>
   <g id="patch_14">
    <path clip-path="url(#pc282903618)" d="M 45.643323 92.094662 
Q 54.947231 81.539027 60.873947 68.942096 
L 58.838027 67.984218 
Q 62.066481 65.532618 65.169657 62.682891 
Q 65.573287 66.875528 65.624427 71.177144 
L 63.588507 70.219267 
Q 57.480057 83.202464 47.893882 94.078341 
L 45.643323 92.094662 
z
" style="fill:#008000;opacity:0.5;stroke:#008000;stroke-linecap:round;"/>
   </g>
   <g id="patch_15">
    <path clip-path="url(#pc282903618)" d="M 173.207235 90.448891 
Q 168.71774 77.113653 160.771837 65.682501 
L 158.92433 66.966721 
Q 158.415409 62.944997 157.499061 58.832705 
Q 161.331806 60.579469 165.082685 62.685989 
L 163.235179 63.970209 
Q 171.424732 75.751881 176.050431 89.49169 
L 173.207235 90.448891 
z
" style="fill:#0000ff;opacity:0.5;stroke:#0000ff;stroke-linecap:round;"/>
   </g>
   <g id="patch_16">
    <path clip-path="url(#pc282903618)" d="M 152.952765 61.950203 
Q 157.44226 75.285441 165.388163 86.716593 
L 167.23567 85.432374 
Q 167.744591 89.454097 168.660939 93.566389 
Q 164.828194 91.819625 161.077315 89.713105 
L 162.924821 88.428886 
Q 154.735268 76.647214 150.109569 62.907405 
L 152.952765 61.950203 
z
" style="fill:#008000;opacity:0.5;stroke:#008000;stroke-linecap:round;"/>
   </g>
   <g id="patch_17">
    <path clip-path="url(#pc282903618)" d="M 125.403911 169.955135 
Q 111.610509 167.175533 97.737889 168.341311 
L 97.926303 170.583408 
Q 94.188928 169.013285 90.169404 167.75072 
Q 93.598519 165.304847 97.298258 163.10975 
L 97.486671 165.351848 
Q 111.784675 164.150323 125.996548 167.014254 
L 125.403911 169.955135 
z
" style="fill:#008000;opacity:0.5;stroke:#008000;stroke-linecap:round;"/>
   </g>
   <g id="patch_18">
    <path clip-path="url(#pc282903618)" d="M 60.196677 60.304433 
Q 50.892769 70.860068 44.966053 83.456998 
L 47.001973 84.414876 
Q 43.773519 86.866476 40.670343 89.716203 
Q 40.266713 85.523566 40.215573 81.22195 
L 42.251493 82.179828 
Q 48.359943 69.196631 57.946118 58.320753 
L 60.196677 60.304433 
z
" style="fill:#0000ff;opacity:0.5;stroke:#0000ff;stroke-linecap:round;"/>
   </g>
   <g id="patch_19">
    <path clip-path="url(#pc282903618)" d="M 90.596089 173.246676 
Q 104.389491 176.026279 118.262111 174.860501 
L 118.073697 172.618403 
Q 121.811072 174.188526 125.830596 175.451091 
Q 122.401481 177.896964 118.701742 180.092061 
L 118.513329 177.849964 
Q 104.215325 179.051489 90.003452 176.187557 
L 90.596089 173.246676 
z
" style="fill:#0000ff;opacity:0.5;stroke:#0000ff;stroke-linecap:round;"/>
   </g>
   <g id="text_1">
    <!-- $S1$ -->
    <defs>
     <path d="M 6.109375 -2.203125 
Q 5.8125 -2.203125 5.5625 -1.859375 
Q 5.328125 -1.515625 5.328125 -1.21875 
L 11.078125 22.125 
Q 11.28125 22.703125 11.921875 22.703125 
L 13.09375 22.703125 
Q 13.484375 22.703125 13.703125 22.40625 
Q 13.921875 22.125 13.921875 21.6875 
Q 13.09375 18.265625 13.09375 15.578125 
Q 13.09375 8.34375 18.0625 4.828125 
Q 23.046875 1.3125 30.609375 1.3125 
Q 33.890625 1.3125 37.0625 2.921875 
Q 40.234375 4.546875 42.59375 7.125 
Q 44.96875 9.71875 46.375 12.90625 
Q 47.796875 16.109375 47.796875 19.390625 
Q 47.796875 22.90625 45.9375 25.65625 
Q 44.09375 28.421875 40.828125 29.203125 
L 28.609375 32.421875 
Q 23.6875 33.734375 20.75 37.71875 
Q 17.828125 41.703125 17.828125 46.6875 
Q 17.828125 52.6875 21.390625 58.25 
Q 24.953125 63.8125 30.6875 67.15625 
Q 36.421875 70.515625 42.390625 70.515625 
Q 46.96875 70.515625 50.796875 68.828125 
Q 54.640625 67.140625 56.6875 63.484375 
L 62.40625 70.21875 
Q 62.984375 70.515625 63.09375 70.515625 
L 63.71875 70.515625 
Q 64.109375 70.515625 64.34375 70.171875 
Q 64.59375 69.828125 64.59375 69.484375 
L 58.796875 46.296875 
Q 58.640625 45.609375 58.015625 45.609375 
L 56.78125 45.609375 
Q 55.90625 45.609375 55.90625 46.6875 
Q 56.390625 49.859375 56.390625 52.203125 
Q 56.390625 56.84375 54.796875 60.28125 
Q 53.21875 63.71875 50.015625 65.5 
Q 46.828125 67.28125 42.09375 67.28125 
Q 38.09375 67.28125 34.125 64.984375 
Q 30.171875 62.703125 27.734375 58.890625 
Q 25.296875 55.078125 25.296875 50.984375 
Q 25.296875 47.75 27.171875 45.265625 
Q 29.046875 42.78125 32.171875 41.890625 
L 44.390625 38.71875 
Q 47.703125 37.84375 50.171875 35.625 
Q 52.640625 33.40625 53.90625 30.34375 
Q 55.171875 27.296875 55.171875 23.6875 
Q 55.171875 18.953125 53.171875 14.328125 
Q 51.171875 9.71875 47.578125 5.90625 
Q 44 2.09375 39.453125 -0.046875 
Q 34.90625 -2.203125 30.171875 -2.203125 
Q 18.265625 -2.203125 13.09375 4.78125 
L 7.515625 -1.90625 
Q 6.9375 -2.203125 6.78125 -2.203125 
z
" id="Cmmi10-53"/>
     <path d="M 9.28125 0 
L 9.28125 3.515625 
Q 21.78125 3.515625 21.78125 6.6875 
L 21.78125 59.1875 
Q 16.609375 56.6875 8.6875 56.6875 
L 8.6875 60.203125 
Q 20.953125 60.203125 27.203125 66.609375 
L 28.609375 66.609375 
Q 28.953125 66.609375 29.265625 66.328125 
Q 29.59375 66.0625 29.59375 65.71875 
L 29.59375 6.6875 
Q 29.59375 3.515625 42.09375 3.515625 
L 42.09375 0 
z
" id="Cmr10-31"/>
    </defs>
    <g transform="translate(25.6 112.415)scale(0.16 -0.16)">
     <use transform="translate(0.0 0.484375)" xlink:href="#Cmmi10-53"/>
     <use transform="translate(61.279296875 0.484375)" xlink:href="#Cmr10-31"/>
    </g>
   </g>
   <g id="text_2">
    <!-- $B1$ -->
    <defs>
     <path d="M 4.984375 0 
Q 4 0 4 1.3125 
Q 4.046875 1.5625 4.1875 2.140625 
Q 4.34375 2.734375 4.578125 3.125 
Q 4.828125 3.515625 5.328125 3.515625 
Q 8.15625 3.515625 10.25 3.65625 
Q 12.359375 3.8125 13.8125 4.203125 
Q 14.984375 4.640625 15.71875 6.890625 
L 29.390625 61.8125 
Q 29.59375 62.796875 29.59375 63.1875 
Q 29.59375 64.265625 28.421875 64.40625 
Q 26.515625 64.796875 21.1875 64.796875 
Q 20.21875 64.796875 20.21875 66.109375 
Q 20.265625 66.359375 20.40625 66.96875 
Q 20.5625 67.578125 20.828125 67.9375 
Q 21.09375 68.3125 21.484375 68.3125 
L 57.328125 68.3125 
Q 60.59375 68.3125 63.796875 67.5 
Q 67 66.703125 69.703125 64.9375 
Q 72.40625 63.1875 74 60.5625 
Q 75.59375 57.953125 75.59375 54.5 
Q 75.59375 50.734375 73.65625 47.5 
Q 71.734375 44.28125 68.671875 41.890625 
Q 65.625 39.5 62.078125 37.953125 
Q 58.546875 36.421875 54.6875 35.6875 
Q 57.421875 35.6875 60.21875 34.609375 
Q 63.03125 33.546875 65.234375 31.6875 
Q 67.4375 29.828125 68.78125 27.234375 
Q 70.125 24.65625 70.125 21.6875 
Q 70.125 15.671875 65.921875 10.6875 
Q 61.71875 5.71875 55.34375 2.859375 
Q 48.96875 0 43.015625 0 
z
M 23.390625 4.296875 
Q 23.390625 3.515625 26.8125 3.515625 
L 41.109375 3.515625 
Q 46 3.515625 50.484375 6.21875 
Q 54.984375 8.9375 57.6875 13.421875 
Q 60.40625 17.921875 60.40625 22.796875 
Q 60.40625 25.78125 59.15625 28.4375 
Q 57.90625 31.109375 55.5625 32.640625 
Q 53.21875 34.1875 50.203125 34.1875 
L 30.71875 34.1875 
L 23.78125 6.5 
Q 23.390625 5.125 23.390625 4.296875 
M 31.390625 36.8125 
L 46.578125 36.8125 
Q 51.375 36.8125 55.890625 39.25 
Q 60.40625 41.703125 63.25 45.890625 
Q 66.109375 50.09375 66.109375 54.78125 
Q 66.109375 59.125 63.390625 61.953125 
Q 60.6875 64.796875 56.390625 64.796875 
L 42.671875 64.796875 
Q 39.984375 64.796875 39.0625 64.296875 
Q 38.140625 63.8125 37.5 61.375 
z
" id="Cmmi10-42"/>
    </defs>
    <g transform="translate(61.2 48.8140943461)scale(0.16 -0.16)">
     <use transform="translate(0.0 0.6875)" xlink:href="#Cmmi10-42"/>
     <use transform="translate(75.78125 0.6875)" xlink:href="#Cmr10-31"/>
    </g>
   </g>
   <g id="text_3">
    <!-- $S2$ -->
    <defs>
     <path d="M 4.984375 0 
L 4.984375 2.6875 
Q 4.984375 2.9375 5.171875 3.21875 
L 20.703125 20.40625 
Q 24.21875 24.21875 26.40625 26.796875 
Q 28.609375 29.390625 30.75 32.765625 
Q 32.90625 36.140625 34.15625 39.625 
Q 35.40625 43.109375 35.40625 47.015625 
Q 35.40625 51.125 33.890625 54.859375 
Q 32.375 58.59375 29.375 60.84375 
Q 26.375 63.09375 22.125 63.09375 
Q 17.78125 63.09375 14.3125 60.46875 
Q 10.84375 57.859375 9.421875 53.71875 
Q 9.8125 53.8125 10.5 53.8125 
Q 12.75 53.8125 14.328125 52.296875 
Q 15.921875 50.78125 15.921875 48.390625 
Q 15.921875 46.09375 14.328125 44.5 
Q 12.75 42.921875 10.5 42.921875 
Q 8.15625 42.921875 6.5625 44.546875 
Q 4.984375 46.1875 4.984375 48.390625 
Q 4.984375 52.15625 6.390625 55.4375 
Q 7.8125 58.734375 10.46875 61.296875 
Q 13.140625 63.875 16.484375 65.234375 
Q 19.828125 66.609375 23.578125 66.609375 
Q 29.296875 66.609375 34.21875 64.1875 
Q 39.15625 61.765625 42.03125 57.34375 
Q 44.921875 52.9375 44.921875 47.015625 
Q 44.921875 42.671875 43.015625 38.765625 
Q 41.109375 34.859375 38.125 31.65625 
Q 35.15625 28.46875 30.515625 24.40625 
Q 25.875 20.359375 24.421875 19 
L 13.09375 8.109375 
L 22.703125 8.109375 
Q 29.78125 8.109375 34.546875 8.21875 
Q 39.3125 8.34375 39.59375 8.59375 
Q 40.765625 9.859375 42 17.828125 
L 44.921875 17.828125 
L 42.09375 0 
z
" id="Cmr10-32"/>
    </defs>
    <g transform="translate(135.76 48.8140943461)scale(0.16 -0.16)">
     <use transform="translate(0.0 0.484375)" xlink:href="#Cmmi10-53"/>
     <use transform="translate(61.279296875 0.484375)" xlink:href="#Cmr10-32"/>
    </g>
   </g>
   <g id="text_4">
    <!-- $B2$ -->
    <g transform="translate(171.36 112.415)scale(0.16 -0.16)">
     <use transform="translate(0.0 0.6875)" xlink:href="#Cmmi10-42"/>
     <use transform="translate(75.78125 0.6875)" xlink:href="#Cmr10-32"/>
    </g>
   </g>
   <g id="text_5">
    <!-- $S3$ -->
    <defs>
     <path d="M 9.515625 7.71875 
Q 11.859375 4.296875 15.8125 2.640625 
Q 19.78125 0.984375 24.3125 0.984375 
Q 30.125 0.984375 32.5625 5.9375 
Q 35.015625 10.890625 35.015625 17.1875 
Q 35.015625 20.015625 34.5 22.84375 
Q 33.984375 25.6875 32.765625 28.125 
Q 31.546875 30.5625 29.421875 32.03125 
Q 27.296875 33.5 24.21875 33.5 
L 17.578125 33.5 
Q 16.703125 33.5 16.703125 34.421875 
L 16.703125 35.296875 
Q 16.703125 36.078125 17.578125 36.078125 
L 23.09375 36.53125 
Q 26.609375 36.53125 28.921875 39.15625 
Q 31.25 41.796875 32.328125 45.578125 
Q 33.40625 49.359375 33.40625 52.78125 
Q 33.40625 57.5625 31.15625 60.640625 
Q 28.90625 63.71875 24.3125 63.71875 
Q 20.515625 63.71875 17.046875 62.28125 
Q 13.578125 60.84375 11.53125 57.90625 
Q 11.71875 57.953125 11.859375 57.984375 
Q 12.015625 58.015625 12.203125 58.015625 
Q 14.453125 58.015625 15.96875 56.453125 
Q 17.484375 54.890625 17.484375 52.6875 
Q 17.484375 50.53125 15.96875 48.96875 
Q 14.453125 47.40625 12.203125 47.40625 
Q 10.015625 47.40625 8.453125 48.96875 
Q 6.890625 50.53125 6.890625 52.6875 
Q 6.890625 56.984375 9.46875 60.15625 
Q 12.0625 63.328125 16.140625 64.96875 
Q 20.21875 66.609375 24.3125 66.609375 
Q 27.34375 66.609375 30.703125 65.703125 
Q 34.078125 64.796875 36.8125 63.109375 
Q 39.546875 61.421875 41.28125 58.78125 
Q 43.015625 56.15625 43.015625 52.78125 
Q 43.015625 48.578125 41.140625 45.015625 
Q 39.265625 41.453125 35.984375 38.859375 
Q 32.71875 36.28125 28.8125 35.015625 
Q 33.15625 34.1875 37.0625 31.734375 
Q 40.96875 29.296875 43.328125 25.484375 
Q 45.703125 21.6875 45.703125 17.28125 
Q 45.703125 11.765625 42.671875 7.296875 
Q 39.65625 2.828125 34.71875 0.3125 
Q 29.78125 -2.203125 24.3125 -2.203125 
Q 19.625 -2.203125 14.90625 -0.40625 
Q 10.203125 1.375 7.203125 4.9375 
Q 4.203125 8.5 4.203125 13.484375 
Q 4.203125 15.96875 5.859375 17.625 
Q 7.515625 19.28125 10.015625 19.28125 
Q 11.625 19.28125 12.96875 18.53125 
Q 14.3125 17.78125 15.0625 16.40625 
Q 15.828125 15.046875 15.828125 13.484375 
Q 15.828125 11.03125 14.109375 9.375 
Q 12.40625 7.71875 10.015625 7.71875 
z
" id="Cmr10-33"/>
    </defs>
    <g transform="translate(135.76 176.015905654)scale(0.16 -0.16)">
     <use transform="translate(0.0 0.484375)" xlink:href="#Cmmi10-53"/>
     <use transform="translate(61.279296875 0.484375)" xlink:href="#Cmr10-33"/>
    </g>
   </g>
   <g id="text_6">
    <!-- $B3$ -->
    <g transform="translate(61.2 176.015905654)scale(0.16 -0.16)">
     <use transform="translate(0.0 0.6875)" xlink:href="#Cmmi10-42"/>
     <use transform="translate(75.78125 0.6875)" xlink:href="#Cmr10-33"/>
    </g>
   </g>
  </g>
 </g>
 <defs>
  <clipPath id="pc282903618">
   <rect height="216.0" width="216.0" x="0.0" y="0.0"/>
  </clipPath>
 </defs>
</svg>
