<?xml version="1.0" encoding="utf-8" standalone="no"?>
<!DOCTYPE svg PUBLIC "-//W3C//DTD SVG 1.1//EN"
  "http://www.w3.org/Graphics/SVG/1.1/DTD/svg11.dtd">
<!-- Created with matplotlib (http://matplotlib.org/) -->
<svg height="504pt" version="1.1" viewBox="0 0 504 504" width="504pt" xmlns="http://www.w3.org/2000/svg" xmlns:xlink="http://www.w3.org/1999/xlink">
 <defs>
  <style type="text/css">
*{stroke-linecap:butt;stroke-linejoin:round;}
  </style>
 </defs>
 <g id="figure_1">
  <g id="patch_1">
   <path d="M 0 504 
L 504 504 
L 504 0 
L 0 0 
z
" style="fill:#ffffff;"/>
  </g>
  <g id="axes_1">
   <g id="patch_2">
    <path clip-path="url(#p52e918c5f5)" d="M 20.16 286.272 
C 22.833247 286.272 25.397365 285.316117 27.287636 283.614873 
C 29.177908 281.913629 30.24 279.605923 30.24 277.2 
C 30.24 274.794077 29.177908 272.486371 27.287636 270.785127 
C 25.397365 269.083883 22.833247 268.128 20.16 268.128 
C 17.486753 268.128 14.922635 269.083883 13.032364 270.785127 
C 11.142092 272.486371 10.08 274.794077 10.08 277.2 
C 10.08 279.605923 11.142092 281.913629 13.032364 283.614873 
C 14.922635 285.316117 17.486753 286.272 20.16 286.272 
z
" style="fill:#0000ff;opacity:0.3;stroke:#0000ff;stroke-linejoin:miter;"/>
   </g>
   <g id="patch_3">
    <path clip-path="url(#p52e918c5f5)" d="M -9.460133 251.523636 
Q 0.035 261.778146 9.530132 272.032655 
Q -4.370555 273.476055 -18.271242 274.919456 
z
" style="fill:#0000ff;opacity:0.5;stroke:#0000ff;stroke-linecap:round;"/>
   </g>
   <g id="patch_4">
    <path clip-path="url(#p52e918c5f5)" d="M 32.007893 281.328945 
Q 18.158881 283.204409 4.309869 285.079873 
Q 11.118905 272.875385 17.927941 260.670897 
z
" style="fill:#0000ff;opacity:0.5;stroke:#0000ff;stroke-linecap:round;"/>
   </g>
   <g id="patch_5">
    <path clip-path="url(#p52e918c5f5)" d="M 74.400256 152.150509 
C 77.073504 152.150509 79.637621 151.194625 81.527893 149.493381 
C 83.418164 147.792137 84.480256 145.484431 84.480256 143.078509 
C 84.480256 140.672586 83.418164 138.36488 81.527893 136.663636 
C 79.637621 134.962392 77.073504 134.006509 74.400256 134.006509 
C 71.727009 134.006509 69.162891 134.962392 67.27262 136.663636 
C 65.382349 138.36488 64.320256 140.672586 64.320256 143.078509 
C 64.320256 145.484431 65.382349 147.792137 67.27262 149.493381 
C 69.162891 151.194625 71.727009 152.150509 74.400256 152.150509 
z
" style="fill:#0000ff;opacity:0.3;stroke:#0000ff;stroke-linejoin:miter;"/>
   </g>
   <g id="patch_6">
    <path clip-path="url(#p52e918c5f5)" d="M 68.968539 104.903104 
Q 69.446255 118.870362 69.923971 132.837619 
Q 58.463535 124.839438 47.0031 116.841256 
z
" style="fill:#0000ff;opacity:0.5;stroke:#0000ff;stroke-linecap:round;"/>
   </g>
   <g id="patch_7">
    <path clip-path="url(#p52e918c5f5)" d="M 81.073085 153.329602 
Q 68.809952 146.626761 56.546819 139.92392 
Q 69.266972 134.135118 81.987124 128.346317 
z
" style="fill:#0000ff;opacity:0.5;stroke:#0000ff;stroke-linecap:round;"/>
   </g>
   <g id="patch_8">
    <path clip-path="url(#p52e918c5f5)" d="M 211.741406 80.785953 
C 214.414654 80.785953 216.978772 79.83007 218.869043 78.128826 
C 220.759314 76.427582 221.821406 74.119876 221.821406 71.713953 
C 221.821406 69.308031 220.759314 67.000325 218.869043 65.299081 
C 216.978772 63.597837 214.414654 62.641953 211.741406 62.641953 
C 209.068159 62.641953 206.504041 63.597837 204.61377 65.299081 
C 202.723499 67.000325 201.661406 69.308031 201.661406 71.713953 
C 201.661406 74.119876 202.723499 76.427582 204.61377 78.128826 
C 206.504041 79.83007 209.068159 80.785953 211.741406 80.785953 
z
" style="fill:#0000ff;opacity:0.3;stroke:#0000ff;stroke-linejoin:miter;"/>
   </g>
   <g id="patch_9">
    <path clip-path="url(#p52e918c5f5)" d="M 234.373696 40.494656 
Q 225.007994 50.867511 215.642291 61.240366 
Q 212.963429 47.524091 210.284566 33.807816 
z
" style="fill:#0000ff;opacity:0.5;stroke:#0000ff;stroke-linecap:round;"/>
   </g>
   <g id="patch_10">
    <path clip-path="url(#p52e918c5f5)" d="M 211.322323 84.75616 
Q 205.840146 71.90088 200.357969 59.0456 
Q 213.931499 62.373026 227.50503 65.700452 
z
" style="fill:#0000ff;opacity:0.5;stroke:#0000ff;stroke-linecap:round;"/>
   </g>
   <g id="patch_11">
    <path clip-path="url(#p52e918c5f5)" d="M 367.92 105.570603 
C 370.593247 105.570603 373.157365 104.61472 375.047636 102.913476 
C 376.937908 101.212232 378 98.904526 378 96.498603 
C 378 94.092681 376.937908 91.784975 375.047636 90.083731 
C 373.157365 88.382486 370.593247 87.426603 367.92 87.426603 
C 365.246753 87.426603 362.682635 88.382486 360.792364 90.083731 
C 358.902092 91.784975 357.84 94.092681 357.84 96.498603 
C 357.84 98.904526 358.902092 101.212232 360.792364 102.913476 
C 362.682635 104.61472 365.246753 105.570603 367.92 105.570603 
z
" style="fill:#0000ff;opacity:0.3;stroke:#0000ff;stroke-linejoin:miter;"/>
   </g>
   <g id="patch_12">
    <path clip-path="url(#p52e918c5f5)" d="M 358.610731 106.575632 
Q 363.419998 93.453763 368.229266 80.331894 
Q 375.841201 92.05243 383.453135 103.772965 
z
" style="fill:#0000ff;opacity:0.5;stroke:#0000ff;stroke-linecap:round;"/>
   </g>
   <g id="patch_13">
    <path clip-path="url(#p52e918c5f5)" d="M 469.858337 214.907445 
C 472.531584 214.907445 475.095702 213.951562 476.985974 212.250318 
C 478.876245 210.549074 479.938337 208.241367 479.938337 205.835445 
C 479.938337 203.429522 478.876245 201.121816 476.985974 199.420572 
C 475.095702 197.719328 472.531584 196.763445 469.858337 196.763445 
C 467.18509 196.763445 464.620972 197.719328 462.730701 199.420572 
C 460.84043 201.121816 459.778337 203.429522 459.778337 205.835445 
C 459.778337 208.241367 460.84043 210.549074 462.730701 212.250318 
C 464.620972 213.951562 467.18509 214.907445 469.858337 214.907445 
z
" style="fill:#0000ff;opacity:0.3;stroke:#0000ff;stroke-linejoin:miter;"/>
   </g>
   <g id="patch_14">
    <path clip-path="url(#p52e918c5f5)" d="M 456.818763 206.329702 
Q 469.25907 199.961716 481.699377 193.593729 
Q 479.329582 207.366767 476.959787 221.139805 
z
" style="fill:#0000ff;opacity:0.5;stroke:#0000ff;stroke-linecap:round;"/>
   </g>
   <g id="patch_15">
    <path clip-path="url(#p52e918c5f5)" d="M 469.858337 357.636555 
C 472.531584 357.636555 475.095702 356.680672 476.985974 354.979428 
C 478.876245 353.278184 479.938337 350.970478 479.938337 348.564555 
C 479.938337 346.158633 478.876245 343.850926 476.985974 342.149682 
C 475.095702 340.448438 472.531584 339.492555 469.858337 339.492555 
C 467.18509 339.492555 464.620972 340.448438 462.730701 342.149682 
C 460.84043 343.850926 459.778337 346.158633 459.778337 348.564555 
C 459.778337 350.970478 460.84043 353.278184 462.730701 354.979428 
C 464.620972 356.680672 467.18509 357.636555 469.858337 357.636555 
z
" style="fill:#0000ff;opacity:0.3;stroke:#0000ff;stroke-linejoin:miter;"/>
   </g>
   <g id="patch_16">
    <path clip-path="url(#p52e918c5f5)" d="M 460.339693 340.882956 
Q 474.075477 343.459917 487.811261 346.036878 
Q 477.508222 355.479329 467.205182 364.92178 
z
" style="fill:#0000ff;opacity:0.5;stroke:#0000ff;stroke-linecap:round;"/>
   </g>
   <g id="patch_17">
    <path clip-path="url(#p52e918c5f5)" d="M 367.92 466.973397 
C 370.593247 466.973397 373.157365 466.017514 375.047636 464.316269 
C 376.937908 462.615025 378 460.307319 378 457.901397 
C 378 455.495474 376.937908 453.187768 375.047636 451.486524 
C 373.157365 449.78528 370.593247 448.829397 367.92 448.829397 
C 365.246753 448.829397 362.682635 449.78528 360.792364 451.486524 
C 358.902092 453.187768 357.84 455.495474 357.84 457.901397 
C 357.84 460.307319 358.902092 462.615025 360.792364 464.316269 
C 362.682635 466.017514 365.246753 466.973397 367.92 466.973397 
z
" style="fill:#0000ff;opacity:0.3;stroke:#0000ff;stroke-linejoin:miter;"/>
   </g>
   <g id="patch_18">
    <path clip-path="url(#p52e918c5f5)" d="M 364.488475 445.833033 
Q 373.983608 456.087542 383.47874 466.342052 
Q 369.578053 467.785452 355.677366 469.228852 
z
" style="fill:#0000ff;opacity:0.5;stroke:#0000ff;stroke-linecap:round;"/>
   </g>
   <g id="patch_19">
    <path clip-path="url(#p52e918c5f5)" d="M 211.741406 491.758047 
C 214.414654 491.758047 216.978772 490.802163 218.869043 489.100919 
C 220.759314 487.399675 221.821406 485.091969 221.821406 482.686047 
C 221.821406 480.280124 220.759314 477.972418 218.869043 476.271174 
C 216.978772 474.56993 214.414654 473.614047 211.741406 473.614047 
C 209.068159 473.614047 206.504041 474.56993 204.61377 476.271174 
C 202.723499 477.972418 201.661406 480.280124 201.661406 482.686047 
C 201.661406 485.091969 202.723499 487.399675 204.61377 489.100919 
C 206.504041 490.802163 209.068159 491.758047 211.741406 491.758047 
z
" style="fill:#0000ff;opacity:0.3;stroke:#0000ff;stroke-linejoin:miter;"/>
   </g>
   <g id="patch_20">
    <path clip-path="url(#p52e918c5f5)" d="M 216.652379 470.085316 
Q 217.130095 484.052574 217.607811 498.019832 
Q 206.147375 490.02165 194.686939 482.023468 
z
" style="fill:#0000ff;opacity:0.5;stroke:#0000ff;stroke-linecap:round;"/>
   </g>
   <g id="patch_21">
    <path clip-path="url(#p52e918c5f5)" d="M 74.400256 420.393491 
C 77.073504 420.393491 79.637621 419.437608 81.527893 417.736364 
C 83.418164 416.03512 84.480256 413.727414 84.480256 411.321491 
C 84.480256 408.915569 83.418164 406.607863 81.527893 404.906619 
C 79.637621 403.205375 77.073504 402.249491 74.400256 402.249491 
C 71.727009 402.249491 69.162891 403.205375 67.27262 404.906619 
C 65.382349 406.607863 64.320256 408.915569 64.320256 411.321491 
C 64.320256 413.727414 65.382349 416.03512 67.27262 417.736364 
C 69.162891 419.437608 71.727009 420.393491 74.400256 420.393491 
z
" style="fill:#0000ff;opacity:0.3;stroke:#0000ff;stroke-linejoin:miter;"/>
   </g>
   <g id="patch_22">
    <path clip-path="url(#p52e918c5f5)" d="M 86.689857 405.676869 
Q 77.324154 416.049723 67.958452 426.422578 
Q 65.279589 412.706303 62.600727 398.990029 
z
" style="fill:#0000ff;opacity:0.5;stroke:#0000ff;stroke-linecap:round;"/>
   </g>
   <g id="patch_23">
    <path clip-path="url(#p52e918c5f5)" d="M 30.093384 268.59025 
Q 197.519066 219.765758 335.808468 114.864151 
L 331.275777 108.888809 
Q 344.862508 106.428402 358.553227 103.485084 
Q 352.670583 116.192373 346.384745 128.806617 
L 341.852055 122.831275 
Q 202.091425 228.848904 32.892961 278.190373 
L 30.093384 268.59025 
z
" style="fill:#0000ff;opacity:0.5;stroke:#0000ff;stroke-linecap:round;"/>
   </g>
   <g id="patch_24">
    <path clip-path="url(#p52e918c5f5)" d="M 32.430733 272.123849 
Q 238.793208 280.04208 433.28859 213.169423 
L 430.850007 206.076941 
Q 444.549431 207.976615 458.463229 209.512199 
Q 448.871551 219.707198 438.978617 229.71855 
L 436.540034 222.626067 
Q 240.277305 290.106385 32.047311 282.116496 
L 32.430733 272.123849 
z
" style="fill:#0000ff;opacity:0.5;stroke:#0000ff;stroke-linecap:round;"/>
   </g>
   <g id="patch_25">
    <path clip-path="url(#p52e918c5f5)" d="M 86.662213 138.001245 
Q 212.484085 142.718279 331.3604 103.653001 
L 329.01893 96.527868 
Q 342.604549 98.644126 356.530104 100.191183 
Q 346.915272 110.381269 336.823829 120.278312 
L 334.482359 113.153179 
Q 213.901946 152.778459 86.287579 147.994225 
L 86.662213 138.001245 
z
" style="fill:#0000ff;opacity:0.5;stroke:#0000ff;stroke-linecap:round;"/>
   </g>
   <g id="patch_26">
    <path clip-path="url(#p52e918c5f5)" d="M 87.533549 142.032644 
Q 255.049798 203.730249 432.724335 201.428652 
L 432.627189 193.929281 
Q 445.022742 200.020213 457.781045 205.791466 
Q 445.497596 212.513151 432.951012 218.927184 
L 432.853865 211.427813 
Q 253.329582 213.753371 84.077428 151.416419 
L 87.533549 142.032644 
z
" style="fill:#0000ff;opacity:0.5;stroke:#0000ff;stroke-linecap:round;"/>
   </g>
   <g id="patch_27">
    <path clip-path="url(#p52e918c5f5)" d="M 222.235052 78.557139 
Q 310.710148 221.260358 443.556529 322.597564 
L 448.105286 316.634443 
Q 454.097613 329.067678 460.600521 341.470942 
Q 446.781091 339.205398 432.942761 336.511511 
L 437.491519 330.548391 
Q 303.181267 228.094523 213.736001 83.826497 
L 222.235052 78.557139 
z
" style="fill:#0000ff;opacity:0.5;stroke:#0000ff;stroke-linecap:round;"/>
   </g>
   <g id="patch_28">
    <path clip-path="url(#p52e918c5f5)" d="M 370.857523 108.39207 
Q 339.879544 264.976624 366.336722 421.5633 
L 373.731906 420.313796 
Q 369.616405 433.47834 365.913127 446.98479 
Q 357.351305 435.902712 349.081294 424.478809 
L 356.476478 423.229305 
Q 329.713817 264.834638 361.047654 106.45133 
L 370.857523 108.39207 
z
" style="fill:#0000ff;opacity:0.5;stroke:#0000ff;stroke-linecap:round;"/>
   </g>
   <g id="patch_29">
    <path clip-path="url(#p52e918c5f5)" d="M 468.059218 218.179208 
Q 405.753207 313.500027 380.218167 423.694219 
L 387.524564 425.387313 
Q 378.674248 435.884209 370.164431 447.020737 
Q 366.394775 433.522898 363.169908 419.743666 
L 370.476305 421.43676 
Q 396.411908 309.513969 459.688752 212.707891 
L 468.059218 218.179208 
z
" style="fill:#0000ff;opacity:0.5;stroke:#0000ff;stroke-linecap:round;"/>
   </g>
   <g id="patch_30">
    <path clip-path="url(#p52e918c5f5)" d="M 463.552463 217.011046 
Q 327.384688 315.253817 235.586396 454.866514 
L 241.853099 458.987004 
Q 229.869338 465.834599 217.951194 473.189432 
Q 219.244653 459.245141 220.964089 445.252039 
L 227.230792 449.372528 
Q 320.040612 308.221435 457.701497 208.90141 
L 463.552463 217.011046 
z
" style="fill:#0000ff;opacity:0.5;stroke:#0000ff;stroke-linecap:round;"/>
   </g>
   <g id="patch_31">
    <path clip-path="url(#p52e918c5f5)" d="M 463.569388 359.730803 
Q 422.109666 389.833241 392.141537 430.654108 
L 398.187255 435.092496 
Q 386.057797 441.038767 374.075727 448.378961 
Q 375.447058 434.398607 378.034861 420.297868 
L 384.080579 424.736256 
Q 414.971935 382.657824 457.694067 351.638794 
L 463.569388 359.730803 
z
" style="fill:#0000ff;opacity:0.5;stroke:#0000ff;stroke-linecap:round;"/>
   </g>
   <g id="patch_32">
    <path clip-path="url(#p52e918c5f5)" d="M 459.932781 357.172627 
Q 341.963028 391.659739 243.893323 464.449826 
L 248.363312 470.472218 
Q 234.805261 472.749514 221.101459 475.688584 
Q 227.003816 462.977896 233.463351 450.397578 
L 237.933339 456.41997 
Q 337.439754 382.563517 457.126838 347.574362 
L 459.932781 357.172627 
z
" style="fill:#0000ff;opacity:0.5;stroke:#0000ff;stroke-linecap:round;"/>
   </g>
   <g id="patch_33">
    <path clip-path="url(#p52e918c5f5)" d="M 355.666484 462.980682 
Q 300.624149 461.040268 248.266745 476.039062 
L 250.332187 483.249052 
Q 237.071931 480.538345 223.112249 478.954202 
Q 232.792518 468.77741 243.447382 459.215753 
L 245.512823 466.425743 
Q 299.393206 450.990661 356.018796 452.986891 
L 355.666484 462.980682 
z
" style="fill:#0000ff;opacity:0.5;stroke:#0000ff;stroke-linecap:round;"/>
   </g>
   <g id="patch_34">
    <path clip-path="url(#p52e918c5f5)" d="M 354.790118 458.949126 
Q 236.611811 415.510976 111.483266 415.853817 
L 111.503815 423.353789 
Q 99.240999 417.135507 86.47873 411.353213 
Q 98.775787 404.64045 111.435317 398.353883 
L 111.455867 405.853854 
Q 238.37816 405.506099 358.240092 449.563089 
L 354.790118 458.949126 
z
" style="fill:#0000ff;opacity:0.5;stroke:#0000ff;stroke-linecap:round;"/>
   </g>
   <g id="patch_35">
    <path clip-path="url(#p52e918c5f5)" d="M 223.994923 477.606761 
Q 279.037258 479.547176 331.394661 464.548381 
L 329.32922 457.338391 
Q 342.589475 460.049098 356.549158 461.633241 
Q 346.868889 471.810033 336.214025 481.37169 
L 334.148583 474.161701 
Q 280.268201 489.596782 223.64261 487.600553 
L 223.994923 477.606761 
z
" style="fill:#0000ff;opacity:0.5;stroke:#0000ff;stroke-linecap:round;"/>
   </g>
   <g id="patch_36">
    <path clip-path="url(#p52e918c5f5)" d="M 199.234188 479.641588 
Q 157.300209 446.299645 107.715421 427.67474 
L 105.078195 434.695783 
Q 96.054374 424.62137 85.771483 415.046649 
Q 99.606712 412.620074 113.868946 411.292307 
L 111.231721 418.313349 
Q 162.290949 437.49208 205.457751 471.814247 
L 199.234188 479.641588 
z
" style="fill:#0000ff;opacity:0.5;stroke:#0000ff;stroke-linecap:round;"/>
   </g>
   <g id="patch_37">
    <path clip-path="url(#p52e918c5f5)" d="M 87.530138 410.273762 
Q 205.708445 453.711912 330.836991 453.369071 
L 330.816441 445.869099 
Q 343.079257 452.087381 355.841526 457.869676 
Q 343.544469 464.582439 330.884939 470.869006 
L 330.86439 463.369034 
Q 203.942096 463.71679 84.080164 419.659799 
L 87.530138 410.273762 
z
" style="fill:#0000ff;opacity:0.5;stroke:#0000ff;stroke-linecap:round;"/>
   </g>
   <g id="patch_38">
    <path clip-path="url(#p52e918c5f5)" d="M 86.907474 414.36595 
Q 128.841454 447.707893 178.426242 466.332798 
L 181.063468 459.311755 
Q 190.087288 469.386168 200.37018 478.960889 
Q 186.534951 481.387464 172.272717 482.715231 
L 174.909942 475.694189 
Q 123.850714 456.515458 80.683912 422.193291 
L 86.907474 414.36595 
z
" style="fill:#0000ff;opacity:0.5;stroke:#0000ff;stroke-linecap:round;"/>
   </g>
   <g id="text_1">
    <!-- $x_{1}$ -->
    <defs>
     <path d="M 47.40625 40.71875 
C 44.203125 40.109375 43 37.71875 43 35.828125 
C 43 33.421875 44.90625 32.625 46.296875 32.625 
C 49.296875 32.625 51.40625 35.21875 51.40625 37.921875 
C 51.40625 42.109375 46.59375 44 42.40625 44 
C 36.296875 44 32.90625 38.015625 32 36.125 
C 29.703125 44 23.5 44 21.703125 44 
C 11.5 44 6.09375 30.9375 6.09375 28.734375 
C 6.09375 28.34375 6.5 27.84375 7.203125 27.84375 
C 8 27.84375 8.203125 28.4375 8.40625 28.84375 
C 11.796875 39.921875 18.5 42.015625 21.40625 42.015625 
C 25.90625 42.015625 26.796875 37.8125 26.796875 35.421875 
C 26.796875 33.234375 26.203125 30.9375 25 26.140625 
L 21.59375 12.46875 
C 20.09375 6.484375 17.203125 1 11.90625 1 
C 11.40625 1 8.90625 1 6.796875 2.296875 
C 10.40625 3 11.203125 5.984375 11.203125 7.1875 
C 11.203125 9.1875 9.703125 10.375 7.796875 10.375 
C 5.40625 10.375 2.796875 8.28125 2.796875 5.09375 
C 2.796875 0.890625 7.5 -1 11.796875 -1 
C 16.59375 -1 20 2.796875 22.09375 6.890625 
C 23.703125 1 28.703125 -1 32.40625 -1 
C 42.59375 -1 48 12.078125 48 14.265625 
C 48 14.765625 47.59375 15.171875 47 15.171875 
C 46.09375 15.171875 46 14.671875 45.703125 13.875 
C 43 5.09375 37.203125 1 32.703125 1 
C 29.203125 1 27.296875 3.59375 27.296875 7.6875 
C 27.296875 9.875 27.703125 11.46875 29.296875 18.0625 
L 32.796875 31.625 
C 34.296875 37.625 37.703125 42.015625 42.296875 42.015625 
C 42.5 42.015625 45.296875 42.015625 47.40625 40.71875 
z
" id="CMMI12-120"/>
     <path d="M 26.59375 63.40625 
C 26.59375 65.5 26.5 65.5 25.09375 65.5 
C 21.203125 61.1875 15.296875 59.796875 9.703125 59.796875 
C 9.40625 59.796875 8.90625 59.796875 8.796875 59.5 
C 8.703125 59.296875 8.703125 59.09375 8.703125 57 
C 11.796875 57 17 57.59375 21 59.984375 
L 21 7.203125 
C 21 3.6875 20.796875 2.5 12.203125 2.5 
L 9.203125 2.5 
L 9.203125 0 
C 14 0 19 0 23.796875 0 
C 28.59375 0 33.59375 0 38.40625 0 
L 38.40625 2.5 
L 35.40625 2.5 
C 26.796875 2.5 26.59375 3.59375 26.59375 7.15625 
z
" id="CMR17-49"/>
    </defs>
    <g transform="translate(9.410842 283.176824)scale(0.24 -0.24)">
     <use transform="translate(0 14.943915)scale(0.996264)" xlink:href="#CMMI12-120"/>
     <use transform="translate(55.43406 0)scale(0.697382)" xlink:href="#CMR17-49"/>
    </g>
   </g>
   <g id="text_2">
    <!-- $x_{2}$ -->
    <defs>
     <path d="M 41.703125 15.453125 
L 39.90625 15.453125 
C 38.90625 8.375 38.09375 7.171875 37.703125 6.5625 
C 37.203125 5.765625 30 5.765625 28.59375 5.765625 
L 9.40625 5.765625 
C 13 9.671875 20 16.75 28.5 24.953125 
C 34.59375 30.734375 41.703125 37.53125 41.703125 47.421875 
C 41.703125 59.21875 32.296875 66 21.796875 66 
C 10.796875 66 4.09375 56.3125 4.09375 47.34375 
C 4.09375 43.4375 7 42.9375 8.203125 42.9375 
C 9.203125 42.9375 12.203125 43.546875 12.203125 47.03125 
C 12.203125 50.109375 9.59375 51 8.203125 51 
C 7.59375 51 7 50.90625 6.59375 50.703125 
C 8.5 59.21875 14.296875 63.40625 20.40625 63.40625 
C 29.09375 63.40625 34.796875 56.515625 34.796875 47.421875 
C 34.796875 38.734375 29.703125 31.25 24 24.75 
L 4.09375 2.28125 
L 4.09375 0 
L 39.296875 0 
z
" id="CMR17-50"/>
    </defs>
    <g transform="translate(63.651099 149.055332)scale(0.24 -0.24)">
     <use transform="translate(0 14.943915)scale(0.996264)" xlink:href="#CMMI12-120"/>
     <use transform="translate(55.43406 0)scale(0.697382)" xlink:href="#CMR17-50"/>
    </g>
   </g>
   <g id="text_3">
    <!-- $x_{3}$ -->
    <defs>
     <path d="M 22.09375 33.703125 
C 31 33.703125 34.90625 25.96875 34.90625 17.03125 
C 34.90625 5 28.5 0.390625 22.703125 0.390625 
C 17.40625 0.390625 8.796875 3.03125 6.09375 10.828125 
C 6.59375 10.625 7.09375 10.625 7.59375 10.625 
C 10 10.625 11.796875 12.21875 11.796875 14.8125 
C 11.796875 17.703125 9.59375 19 7.59375 19 
C 5.90625 19 3.296875 18.203125 3.296875 14.46875 
C 3.296875 5.234375 12.296875 -2 22.90625 -2 
C 34 -2 42.5 6.71875 42.5 16.953125 
C 42.5 26.671875 34.5 33.703125 25 34.796875 
C 32.59375 36.375 39.90625 43.0625 39.90625 52.015625 
C 39.90625 59.6875 32 65.296875 23 65.296875 
C 13.90625 65.296875 5.90625 59.828125 5.90625 52.015625 
C 5.90625 48.59375 8.5 48 9.796875 48 
C 11.90625 48 13.703125 49.296875 13.703125 51.890625 
C 13.703125 54.46875 11.90625 55.765625 9.796875 55.765625 
C 9.40625 55.765625 8.90625 55.765625 8.5 55.578125 
C 11.40625 61.859375 19.296875 63 22.796875 63 
C 26.296875 63 32.90625 61.328125 32.90625 51.875 
C 32.90625 49.109375 32.5 44.1875 29.09375 39.84375 
C 26.09375 36 22.703125 36 19.40625 35.6875 
C 18.90625 35.6875 16.59375 35.453125 16.203125 35.453125 
C 15.5 35.359375 15.09375 35.265625 15.09375 34.5 
C 15.09375 33.796875 15.203125 33.703125 17.203125 33.703125 
z
" id="CMR17-51"/>
    </defs>
    <g transform="translate(200.992249 77.690777)scale(0.24 -0.24)">
     <use transform="translate(0 14.943915)scale(0.996264)" xlink:href="#CMMI12-120"/>
     <use transform="translate(55.43406 0)scale(0.697382)" xlink:href="#CMR17-51"/>
    </g>
   </g>
   <g id="text_4">
    <!-- $x_{4}$ -->
    <defs>
     <path d="M 33.59375 64.40625 
C 33.59375 66.5 33.5 66.5 31.703125 66.5 
L 2 19.59375 
L 2 17 
L 27.796875 17 
L 27.796875 7.140625 
C 27.796875 3.5 27.59375 2.5 20.59375 2.5 
L 18.703125 2.5 
L 18.703125 0 
C 21.90625 0 27.296875 0 30.703125 0 
C 34.09375 0 39.5 0 42.703125 0 
L 42.703125 2.5 
L 40.796875 2.5 
C 33.796875 2.5 33.59375 3.5 33.59375 7.140625 
L 33.59375 17 
L 43.796875 17 
L 43.796875 19.59375 
L 33.59375 19.59375 
z
M 28.09375 57.859375 
L 28.09375 19.59375 
L 4 19.59375 
z
" id="CMR17-52"/>
    </defs>
    <g transform="translate(357.170842 102.475427)scale(0.24 -0.24)">
     <use transform="translate(0 14.943915)scale(0.996264)" xlink:href="#CMMI12-120"/>
     <use transform="translate(55.43406 0)scale(0.697382)" xlink:href="#CMR17-52"/>
    </g>
   </g>
   <g id="text_5">
    <!-- $x_{5}$ -->
    <defs>
     <path d="M 11.40625 57.6875 
C 12.40625 57.28125 16.5 56 20.703125 56 
C 30 56 35.09375 61.109375 38 64.0625 
C 38 64.953125 38 65.5 37.40625 65.5 
C 37.296875 65.5 37.09375 65.5 36.296875 65.046875 
C 32.796875 63.40625 28.703125 62.078125 23.703125 62.078125 
C 20.703125 62.078125 16.203125 62.484375 11.296875 64.671875 
C 10.203125 65.171875 10 65.171875 9.90625 65.171875 
C 9.40625 65.171875 9.296875 65.0625 9.296875 63.078125 
L 9.296875 34.421875 
C 9.296875 32.640625 9.296875 32.140625 10.296875 32.140625 
C 10.796875 32.140625 11 32.34375 11.5 33.03125 
C 14.703125 37.515625 19.09375 39.40625 24.09375 39.40625 
C 27.59375 39.40625 35.09375 37.21875 35.09375 20.140625 
C 35.09375 16.953125 35.09375 11.171875 32.09375 6.578125 
C 29.59375 2.484375 25.703125 0.390625 21.40625 0.390625 
C 14.796875 0.390625 8.09375 5 6.296875 12.71875 
C 6.703125 12.609375 7.5 12.421875 7.90625 12.421875 
C 9.203125 12.421875 11.703125 13.125 11.703125 16.21875 
C 11.703125 18.90625 9.796875 20 7.90625 20 
C 5.59375 20 4.09375 18.59375 4.09375 15.796875 
C 4.09375 7.09375 11 -2 21.59375 -2 
C 31.90625 -2 41.703125 6.875 41.703125 19.75 
C 41.703125 31.71875 33.90625 41 24.203125 41 
C 19.09375 41 14.796875 39.109375 11.40625 35.53125 
z
" id="CMR17-53"/>
    </defs>
    <g transform="translate(459.10918 211.812269)scale(0.24 -0.24)">
     <use transform="translate(0 14.943915)scale(0.996264)" xlink:href="#CMMI12-120"/>
     <use transform="translate(55.43406 0)scale(0.697382)" xlink:href="#CMR17-53"/>
    </g>
   </g>
   <g id="text_6">
    <!-- $x_{6}$ -->
    <defs>
     <path d="M 10.59375 34 
C 10.59375 57.65625 21.796875 63 28.296875 63 
C 30.40625 63 35.5 62.640625 37.5 59 
C 35.90625 59 32.90625 59 32.90625 55.515625 
C 32.90625 52.828125 35.09375 51.921875 36.5 51.921875 
C 37.40625 51.921875 40.09375 52.3125 40.09375 55.625 
C 40.09375 61.78125 35.09375 65.296875 28.203125 65.296875 
C 16.296875 65.296875 3.796875 52.96875 3.796875 31 
C 3.796875 3.953125 15.09375 -2 23.09375 -2 
C 32.796875 -2 42 6.671875 42 20.046875 
C 42 32.515625 33.90625 41.59375 23.703125 41.59375 
C 17.59375 41.59375 13.09375 37.609375 10.59375 30.625 
z
M 23.09375 0.390625 
C 10.796875 0.390625 10.796875 18.75 10.796875 22.4375 
C 10.796875 29.625 14.203125 40 23.5 40 
C 25.203125 40 30.09375 40 33.40625 33.125 
C 35.203125 29.21875 35.203125 25.140625 35.203125 20.140625 
C 35.203125 14.75 35.203125 10.78125 33.09375 6.78125 
C 30.90625 2.671875 27.703125 0.390625 23.09375 0.390625 
z
" id="CMR17-54"/>
    </defs>
    <g transform="translate(459.10918 354.541379)scale(0.24 -0.24)">
     <use transform="translate(0 14.943915)scale(0.996264)" xlink:href="#CMMI12-120"/>
     <use transform="translate(55.43406 0)scale(0.697382)" xlink:href="#CMR17-54"/>
    </g>
   </g>
   <g id="text_7">
    <!-- $x_{7}$ -->
    <defs>
     <path d="M 45.09375 61.578125 
L 45.09375 63.765625 
L 21.59375 63.765625 
C 9.90625 63.765625 9.703125 65.078125 9.296875 67 
L 7.5 67 
L 4.59375 48.34375 
L 6.40625 48.34375 
C 6.703125 50.234375 7.40625 55.3125 8.59375 57.203125 
C 9.203125 58 16.59375 58 18.296875 58 
L 40.296875 58 
L 29.203125 41.578125 
C 21.796875 30.53125 16.703125 15.609375 16.703125 2.578125 
C 16.703125 1.390625 16.703125 -2 20.296875 -2 
C 23.90625 -2 23.90625 1.390625 23.90625 2.671875 
L 23.90625 7.265625 
C 23.90625 23.5625 26.703125 34.3125 31.296875 41.1875 
z
" id="CMR17-55"/>
    </defs>
    <g transform="translate(357.170842 463.878221)scale(0.24 -0.24)">
     <use transform="translate(0 14.943915)scale(0.996264)" xlink:href="#CMMI12-120"/>
     <use transform="translate(55.43406 0)scale(0.697382)" xlink:href="#CMR17-55"/>
    </g>
   </g>
   <g id="text_8">
    <!-- $x_{8}$ -->
    <defs>
     <path d="M 27.203125 35.375 
C 33.5 38.546875 39.90625 43.328125 39.90625 50.984375 
C 39.90625 60.015625 31.09375 65.296875 23 65.296875 
C 13.90625 65.296875 5.90625 58.734375 5.90625 49.6875 
C 5.90625 47.203125 6.5 42.921875 10.40625 39.140625 
C 11.40625 38.15625 15.59375 35.171875 18.296875 33.28125 
C 13.796875 30.984375 3.296875 25.53125 3.296875 14.59375 
C 3.296875 4.359375 13.09375 -2 22.796875 -2 
C 33.5 -2 42.5 5.65625 42.5 15.78125 
C 42.5 24.84375 36.40625 29.015625 32.40625 31.703125 
z
M 14.09375 44.09375 
C 13.296875 44.59375 9.296875 47.671875 9.296875 52.359375 
C 9.296875 58.421875 15.59375 63 22.796875 63 
C 30.703125 63 36.5 57.4375 36.5 50.96875 
C 36.5 41.703125 26.09375 36.421875 25.59375 36.421875 
C 25.5 36.421875 25.40625 36.421875 24.59375 37.03125 
z
M 32.5 23.734375 
C 34 22.640625 38.796875 19.375 38.796875 13.296875 
C 38.796875 5.953125 31.40625 0.390625 23 0.390625 
C 13.90625 0.390625 7 6.84375 7 14.6875 
C 7 22.546875 13.09375 29.09375 20 32.1875 
z
" id="CMR17-56"/>
    </defs>
    <g transform="translate(200.992249 488.66287)scale(0.24 -0.24)">
     <use transform="translate(0 14.943915)scale(0.996264)" xlink:href="#CMMI12-120"/>
     <use transform="translate(55.43406 0)scale(0.697382)" xlink:href="#CMR17-56"/>
    </g>
   </g>
   <g id="text_9">
    <!-- $x_{9}$ -->
    <defs>
     <path d="M 35.203125 29.125 
C 35.203125 7.25 26.09375 0.484375 18.59375 0.484375 
C 16.296875 0.484375 10.703125 0.484375 8.40625 4.59375 
C 11 4.1875 12.90625 5.578125 12.90625 8.09375 
C 12.90625 10.8125 10.703125 11.703125 9.296875 11.703125 
C 8.40625 11.703125 5.703125 11.296875 5.703125 7.90625 
C 5.703125 1.109375 11.59375 -2 18.796875 -2 
C 30.296875 -2 42 10.53125 42 32.390625 
C 42 59.640625 30.796875 65.296875 23.203125 65.296875 
C 13.296875 65.296875 3.796875 56.6875 3.796875 43.40625 
C 3.796875 31.109375 11.90625 22 22.09375 22 
C 30.5 22 34.203125 29.734375 35.203125 33 
z
M 22.296875 23.59375 
C 19.59375 23.59375 15.796875 24.09375 12.703125 30.03125 
C 10.59375 33.890625 10.59375 38.453125 10.59375 43.296875 
C 10.59375 49.15625 10.59375 53.203125 13.40625 57.5625 
C 14.796875 59.640625 17.40625 63 23.203125 63 
C 35 63 35 45.078125 35 41.125 
C 35 34.09375 31.796875 23.59375 22.296875 23.59375 
z
" id="CMR17-57"/>
    </defs>
    <g transform="translate(63.651099 417.298315)scale(0.24 -0.24)">
     <use transform="translate(0 14.943915)scale(0.996264)" xlink:href="#CMMI12-120"/>
     <use transform="translate(55.43406 0)scale(0.697382)" xlink:href="#CMR17-57"/>
    </g>
   </g>
   <g id="legend_1">
    <g id="patch_39">
     <path d="M 101.975204 26.977178 
L 402.024796 26.977178 
Q 404.024796 26.977178 404.024796 24.977178 
L 404.024796 12.04 
Q 404.024796 10.04 402.024796 10.04 
L 101.975204 10.04 
Q 99.975204 10.04 99.975204 12.04 
L 99.975204 24.977178 
Q 99.975204 26.977178 101.975204 26.977178 
z
" style="fill:#ffffff;opacity:0.8;stroke:#cccccc;stroke-linejoin:miter;"/>
    </g>
    <g id="patch_40">
     <path d="M 103.975204 21.04 
L 123.975204 21.04 
L 123.975204 14.04 
L 103.975204 14.04 
z
" style="fill:#0000ff;opacity:0.5;stroke:#0000ff;stroke-linejoin:miter;"/>
    </g>
    <g id="text_10">
     <!-- linear -->
     <defs>
      <path d="M 15.296875 68.6875 
L 3.40625 67.59375 
L 3.40625 65 
C 9.296875 65 10.203125 64.40625 10.203125 59.640625 
L 10.203125 6.65625 
C 10.203125 2.875 9.796875 2.390625 3.40625 2.390625 
L 3.40625 -0.203125 
C 5.796875 0 10.203125 0 12.703125 0 
C 15.296875 0 19.703125 0 22.09375 -0.203125 
L 22.09375 2.390625 
C 15.703125 2.390625 15.296875 2.78125 15.296875 6.65625 
z
" id="CMR17-108"/>
      <path d="M 15.5 61.078125 
C 15.5 63.265625 13.703125 65.15625 11.40625 65.15625 
C 9.203125 65.15625 7.296875 63.375 7.296875 61.078125 
C 7.296875 58.890625 9.09375 57 11.40625 57 
C 13.59375 57 15.5 58.796875 15.5 61.078125 
z
M 3.796875 42.28125 
L 3.796875 39.703125 
C 9.40625 39.703125 10.203125 39.09375 10.203125 34.328125 
L 10.203125 6.671875 
C 10.203125 2.875 9.796875 2.390625 3.40625 2.390625 
L 3.40625 -0.203125 
C 5.796875 0 10.09375 0 12.59375 0 
C 15 0 19.09375 0 21.40625 -0.203125 
L 21.40625 2.390625 
C 15.5 2.390625 15.296875 2.984375 15.296875 6.5625 
L 15.296875 43.375 
z
" id="CMR17-105"/>
      <path d="M 41.5 30.203125 
C 41.5 35.296875 40.5 43.59375 28.703125 43.59375 
C 20.796875 43.59375 16.703125 37.5 15.203125 33.5 
L 15.09375 33.5 
L 15.09375 43.59375 
L 3.296875 42.5 
L 3.296875 39.90625 
C 9.203125 39.90625 10.09375 39.296875 10.09375 34.5 
L 10.09375 6.6875 
C 10.09375 2.875 9.703125 2.390625 3.296875 2.390625 
L 3.296875 -0.203125 
C 5.703125 0 10.09375 0 12.703125 0 
C 15.296875 0 19.796875 0 22.203125 -0.203125 
L 22.203125 2.390625 
C 15.796875 2.390625 15.40625 2.78125 15.40625 6.6875 
L 15.40625 25.90625 
C 15.40625 35.109375 21 42 28 42 
C 35.40625 42 36.203125 35.40625 36.203125 30.59375 
L 36.203125 6.6875 
C 36.203125 2.875 35.796875 2.390625 29.40625 2.390625 
L 29.40625 -0.203125 
C 31.796875 0 36.203125 0 38.796875 0 
C 41.40625 0 45.90625 0 48.296875 -0.203125 
L 48.296875 2.390625 
C 41.90625 2.390625 41.5 2.78125 41.5 6.6875 
z
" id="CMR17-110"/>
      <path d="M 38.09375 23 
C 38.5 23.40625 38.5 23.609375 38.5 24.625 
C 38.5 34.96875 33.09375 44 21.703125 44 
C 11.09375 44 2.703125 33.890625 2.703125 21.609375 
C 2.703125 8.609375 12.203125 -1 22.796875 -1 
C 34 -1 38.40625 9.484375 38.40625 11.5625 
C 38.40625 12.25 37.796875 12.25 37.59375 12.25 
C 36.90625 12.25 36.796875 12.046875 36.40625 10.875 
C 34.203125 4.140625 28.703125 0.796875 23.5 0.796875 
C 19.203125 0.796875 14.90625 3.171875 12.203125 7.5 
C 9.09375 12.546875 9.09375 18.375 9.09375 23 
z
M 9.203125 24.5 
C 9.90625 39.140625 17.59375 42.40625 21.59375 42.40625 
C 28.40625 42.40625 33 35.890625 33.09375 24.5 
z
" id="CMR17-101"/>
      <path d="M 36 25.828125 
C 36 32.375 36 35.84375 31.796875 39.734375 
C 28.09375 43 23.796875 44 20.40625 44 
C 12.5 44 6.796875 37.609375 6.796875 30.796875 
C 6.796875 27 9.796875 27 10.40625 27 
C 11.703125 27 14 27.78125 14 30.53125 
C 14 33 12.09375 34.078125 10.40625 34.078125 
C 10 34.078125 9.5 33.96875 9.203125 33.875 
C 11.296875 40.5 16.703125 42.40625 20.203125 42.40625 
C 25.203125 42.40625 30.703125 37.953125 30.703125 29.453125 
L 30.703125 25 
C 24.796875 25 17.703125 24.203125 12.09375 21.203125 
C 5.796875 17.703125 4 12.703125 4 8.90625 
C 4 1.203125 13 -1 18.296875 -1 
C 23.796875 -1 28.90625 2.171875 31.09375 7.984375 
C 31.296875 3.640625 34.09375 -0.28125 38.5 -0.28125 
C 40.59375 -0.28125 45.90625 1.09375 45.90625 8.859375 
L 45.90625 14.375 
L 44.09375 14.375 
L 44.09375 8.78125 
C 44.09375 2.78125 41.40625 2 40.09375 2 
C 36 2 36 7.15625 36 11.53125 
z
M 30.703125 13.59375 
C 30.703125 4.953125 24.5 0.59375 19 0.59375 
C 14 0.59375 10.09375 4.296875 10.09375 8.90625 
C 10.09375 11.890625 11.40625 17.1875 17.203125 20.390625 
C 22 23.09375 27.5 23.5 30.703125 23.5 
z
" id="CMR17-97"/>
      <path d="M 15 23.390625 
C 15 33 19.09375 42 26.59375 42 
C 27.296875 42 28 41.90625 28.703125 41.59375 
C 28.703125 41.59375 26.5 40.890625 26.5 38.3125 
C 26.5 35.90625 28.40625 34.90625 29.90625 34.90625 
C 31.09375 34.90625 33.296875 35.609375 33.296875 38.40625 
C 33.296875 41.609375 30.09375 43.59375 26.703125 43.59375 
C 19.09375 43.59375 15.796875 36.203125 14.796875 32.703125 
L 14.703125 32.703125 
L 14.703125 43.59375 
L 3.09375 42.5 
L 3.09375 39.90625 
C 9 39.90625 9.90625 39.296875 9.90625 34.5 
L 9.90625 6.6875 
C 9.90625 2.875 9.5 2.390625 3.09375 2.390625 
L 3.09375 -0.203125 
C 5.5 0 10.09375 0 12.703125 0 
C 15.59375 0 20.703125 0 23.40625 -0.203125 
L 23.40625 2.390625 
C 16.203125 2.390625 15 2.390625 15 6.875 
z
" id="CMR17-114"/>
     </defs>
     <g transform="translate(131.975204 21.04)scale(0.1 -0.1)">
      <use transform="scale(0.996264)" xlink:href="#CMR17-108"/>
      <use transform="translate(24.871058 0)scale(0.996264)" xlink:href="#CMR17-105"/>
      <use transform="translate(49.742117 0)scale(0.996264)" xlink:href="#CMR17-110"/>
      <use transform="translate(100.637487 0)scale(0.996264)" xlink:href="#CMR17-101"/>
      <use transform="translate(141.123147 0)scale(0.996264)" xlink:href="#CMR17-97"/>
      <use transform="translate(186.813624 0)scale(0.996264)" xlink:href="#CMR17-114"/>
     </g>
    </g>
    <g id="patch_41">
     <path d="M 176.35605 21.04 
L 196.35605 21.04 
L 196.35605 14.04 
L 176.35605 14.04 
z
" style="fill:#008000;opacity:0.5;stroke:#008000;stroke-linejoin:miter;"/>
    </g>
    <g id="text_11">
     <!-- nonlinear -->
     <defs>
      <path d="M 43.09375 21.1875 
C 43.09375 34 33.796875 44 22.90625 44 
C 12 44 2.703125 34 2.703125 21.1875 
C 2.703125 8.609375 12 -1 22.90625 -1 
C 33.796875 -1 43.09375 8.609375 43.09375 21.1875 
z
M 22.90625 0.796875 
C 18.203125 0.796875 14.203125 3.59375 11.90625 7.5 
C 9.40625 11.984375 9.09375 17.59375 9.09375 22 
C 9.09375 26.203125 9.296875 31.40625 11.90625 35.90625 
C 13.90625 39.203125 17.796875 42.40625 22.90625 42.40625 
C 27.40625 42.40625 31.203125 39.90625 33.59375 36.40625 
C 36.703125 31.703125 36.703125 25.109375 36.703125 22 
C 36.703125 18.09375 36.5 12.109375 33.796875 7.296875 
C 31 2.703125 26.703125 0.796875 22.90625 0.796875 
z
" id="CMR17-111"/>
     </defs>
     <g transform="translate(204.35605 21.04)scale(0.1 -0.1)">
      <use transform="scale(0.996264)" xlink:href="#CMR17-110"/>
      <use transform="translate(50.89537 0)scale(0.996264)" xlink:href="#CMR17-111"/>
      <use transform="translate(96.585847 0)scale(0.996264)" xlink:href="#CMR17-110"/>
      <use transform="translate(147.481217 0)scale(0.996264)" xlink:href="#CMR17-108"/>
      <use transform="translate(172.352275 0)scale(0.996264)" xlink:href="#CMR17-105"/>
      <use transform="translate(197.223334 0)scale(0.996264)" xlink:href="#CMR17-110"/>
      <use transform="translate(248.118703 0)scale(0.996264)" xlink:href="#CMR17-101"/>
      <use transform="translate(288.604364 0)scale(0.996264)" xlink:href="#CMR17-97"/>
      <use transform="translate(334.294841 0)scale(0.996264)" xlink:href="#CMR17-114"/>
     </g>
    </g>
    <g id="patch_42">
     <path d="M 264.787866 21.04 
L 284.787866 21.04 
L 284.787866 14.04 
L 264.787866 14.04 
z
" style="fill:#ff0000;opacity:0.5;stroke:#ff0000;stroke-linejoin:miter;"/>
    </g>
    <g id="text_12">
     <!-- no substrate dependence -->
     <defs>
      <path d="M 30.90625 42.140625 
C 30.90625 43.953125 30.796875 44.046875 30.203125 44.046875 
C 29.796875 44.046875 29.703125 43.953125 28.5 42.453125 
C 28.203125 42.046875 27.296875 41.03125 27 40.640625 
C 23.796875 44.046875 19.296875 44.046875 17.59375 44.046875 
C 6.5 44.046875 2.5 38.234375 2.5 32.4375 
C 2.5 23.40625 12.703125 21.328125 15.59375 20.703125 
C 21.90625 19.421875 24.09375 19.015625 26.203125 17.203125 
C 27.5 16.015625 29.703125 13.8125 29.703125 10.21875 
C 29.703125 6 27.296875 0.59375 18.09375 0.59375 
C 9.40625 0.59375 6.296875 7.1875 4.5 15.953125 
C 4.203125 17.34375 4.203125 17.453125 3.40625 17.453125 
C 2.59375 17.453125 2.5 17.34375 2.5 15.359375 
L 2.5 0.984375 
C 2.5 -0.796875 2.59375 -0.90625 3.203125 -0.90625 
C 3.703125 -0.90625 3.796875 -0.796875 4.296875 0 
C 4.90625 0.890625 6.40625 3.296875 7 4.3125 
C 9 1.609375 12.5 -1 18.09375 -1 
C 28 -1 33.296875 4.421875 33.296875 12.25 
C 33.296875 17.375 30.59375 20.078125 29.296875 21.28125 
C 26.296875 24.390625 22.796875 25.09375 18.59375 25.890625 
C 13.09375 27.109375 6.09375 28.515625 6.09375 34.640625 
C 6.09375 37.234375 7.5 42.765625 17.59375 42.765625 
C 28.296875 42.765625 28.90625 32.71875 29.09375 29.5 
C 29.203125 29 29.703125 28.890625 30 28.890625 
C 30.90625 28.890625 30.90625 29.203125 30.90625 30.90625 
z
" id="CMR17-115"/>
      <path d="M 29.40625 42.078125 
L 29.40625 39.5 
C 35.296875 39.5 36.203125 38.890625 36.203125 34.15625 
L 36.203125 16.125 
C 36.203125 7.8125 31.703125 0.59375 24.296875 0.59375 
C 16.09375 0.59375 15.40625 5.4375 15.40625 10.59375 
L 15.40625 43.171875 
L 3.296875 42.078125 
L 3.296875 39.5 
C 7.296875 39.5 10 39.5 10.09375 35.53125 
L 10.09375 16.53125 
C 10.09375 9.890625 10.09375 5.640625 12.703125 2.859375 
C 14 1.578125 16.5 -1 23.703125 -1 
C 32.203125 -1 35.5 5.890625 36.296875 7.90625 
L 36.40625 7.90625 
L 36.40625 -0.984375 
L 48.296875 -0.984375 
L 48.296875 2 
C 42.40625 2 41.5 2.59375 41.5 7.390625 
L 41.5 43.171875 
z
" id="CMR17-117"/>
      <path d="M 15 68.6875 
L 3.09375 67.59375 
L 3.09375 65 
C 9 65 9.90625 64.40625 9.90625 59.640625 
L 9.90625 -0.203125 
L 11.703125 -0.203125 
L 14.59375 6.890625 
C 17.5 2.203125 21.796875 -1 27.59375 -1 
C 37.59375 -1 47.703125 7.8125 47.703125 21.40625 
C 47.703125 34.1875 38.703125 43.59375 28.59375 43.59375 
C 22.40625 43.59375 18 40.296875 15 36.40625 
z
M 15.203125 31.3125 
C 15.203125 33.09375 15.203125 33.40625 16.59375 35.5 
C 20.5 41.515625 26.09375 42 28 42 
C 31 42 41.296875 40.390625 41.296875 21.5 
C 41.296875 1.6875 29.5 0.59375 27.09375 0.59375 
C 24 0.59375 19.5 1.78125 16.296875 7.59375 
C 15.203125 9.5 15.203125 9.703125 15.203125 11.484375 
z
" id="CMR17-98"/>
      <path d="M 15.09375 40 
L 29.09375 40 
L 29.09375 42.578125 
L 15.09375 42.578125 
L 15.09375 61 
L 13.296875 61 
C 13.09375 50.703125 9.59375 41.6875 1.09375 41.6875 
L 1.09375 40 
L 9.796875 40 
L 9.796875 12.046875 
C 9.796875 10.15625 9.796875 -1 21.40625 -1 
C 27.296875 -1 30.703125 4.78125 30.703125 12.140625 
L 30.703125 17.8125 
L 28.90625 17.8125 
L 28.90625 12.234375 
C 28.90625 5.375 26.203125 0.796875 22 0.796875 
C 19.09375 0.796875 15.09375 2.78125 15.09375 11.84375 
z
" id="CMR17-116"/>
      <path d="M 29.203125 67.59375 
L 29.203125 65 
C 35.09375 65 36 64.40625 36 59.6875 
L 36 36.640625 
C 35.59375 37.140625 31.5 43.59375 23.40625 43.59375 
C 13.203125 43.59375 3.296875 34.5 3.296875 21.3125 
C 3.296875 8.203125 12.59375 -1 22.40625 -1 
C 30.90625 -1 35.296875 5.265625 35.796875 5.9375 
L 35.796875 -0.984375 
L 47.90625 -0.984375 
L 47.90625 2 
C 42 2 41.09375 2.59375 41.09375 7.390625 
L 41.09375 68.6875 
z
M 35.796875 11.796875 
C 35.796875 8.796875 34 6.09375 31.703125 4.09375 
C 28.296875 1.09375 24.90625 0.59375 23 0.59375 
C 20.09375 0.59375 9.703125 2.09375 9.703125 21.1875 
C 9.703125 40.8125 21.296875 42 23.90625 42 
C 28.5 42 32.203125 39.40625 34.5 35.796875 
C 35.796875 33.703125 35.796875 33.40625 35.796875 31.609375 
z
" id="CMR17-100"/>
      <path d="M 22 -16.609375 
C 15.59375 -16.609375 15.203125 -16.203125 15.203125 -12.328125 
L 15.203125 6.28125 
C 18.09375 2.09375 22.296875 -0.59375 27.59375 -0.59375 
C 37.59375 -0.59375 47.703125 8.171875 47.703125 21.6875 
C 47.703125 34.234375 39 43.78125 28.703125 43.78125 
C 22.703125 43.78125 17.796875 40.5 15 36.53125 
L 15 43.78125 
L 3.09375 42.6875 
L 3.09375 40.109375 
C 9 40.109375 9.90625 39.5 9.90625 34.734375 
L 9.90625 -12.328125 
C 9.90625 -16.109375 9.5 -16.609375 3.09375 -16.609375 
L 3.09375 -19.1875 
C 5.5 -19 9.90625 -19 12.5 -19 
C 15.09375 -19 19.59375 -19 22 -19.1875 
z
M 15.203125 31.4375 
C 15.203125 32.84375 15.203125 34.921875 19.09375 38.609375 
C 19.59375 39.015625 23 42 28 42 
C 35.296875 42 41.296875 32.9375 41.296875 21.59375 
C 41.296875 10.25 34.90625 1 27 1 
C 23.40625 1 19.5 2.6875 16.5 7.375 
C 15.203125 9.5625 15.203125 10.15625 15.203125 11.75 
z
" id="CMR17-112"/>
      <path d="M 34.90625 35 
C 33 35 30.203125 35 30.203125 31.515625 
C 30.203125 28.71875 32.5 27.921875 33.796875 27.921875 
C 34.5 27.921875 37.40625 28.234375 37.40625 31.625 
C 37.40625 38.546875 30.59375 43.796875 22.90625 43.796875 
C 12.296875 43.796875 3.296875 34.03125 3.296875 21.296875 
C 3.296875 8.0625 12.703125 -1 22.90625 -1 
C 35.296875 -1 38.40625 10.578125 38.40625 11.6875 
C 38.40625 12.09375 38.296875 12.390625 37.59375 12.390625 
C 36.90625 12.390625 36.796875 12.296875 36.40625 10.984375 
C 33.796875 2.8125 28.09375 0.796875 23.796875 0.796875 
C 17.40625 0.796875 9.703125 6.671875 9.703125 21.390625 
C 9.703125 36.53125 17.09375 42 23 42 
C 26.90625 42 32.703125 40.203125 34.90625 35 
z
" id="CMR17-99"/>
     </defs>
     <g transform="translate(292.787866 21.04)scale(0.1 -0.1)">
      <use transform="scale(0.996264)" xlink:href="#CMR17-110"/>
      <use transform="translate(50.89537 0)scale(0.996264)" xlink:href="#CMR17-111"/>
      <use transform="translate(126.661813 0)scale(0.996264)" xlink:href="#CMR17-115"/>
      <use transform="translate(162.463151 0)scale(0.996264)" xlink:href="#CMR17-117"/>
      <use transform="translate(213.358521 0)scale(0.996264)" xlink:href="#CMR17-98"/>
      <use transform="translate(264.25389 0)scale(0.996264)" xlink:href="#CMR17-115"/>
      <use transform="translate(300.055228 0)scale(0.996264)" xlink:href="#CMR17-116"/>
      <use transform="translate(335.335996 0)scale(0.996264)" xlink:href="#CMR17-114"/>
      <use transform="translate(370.616764 0)scale(0.996264)" xlink:href="#CMR17-97"/>
      <use transform="translate(416.307241 0)scale(0.996264)" xlink:href="#CMR17-116"/>
      <use transform="translate(451.588009 0)scale(0.996264)" xlink:href="#CMR17-101"/>
      <use transform="translate(522.149635 0)scale(0.996264)" xlink:href="#CMR17-100"/>
      <use transform="translate(573.045005 0)scale(0.996264)" xlink:href="#CMR17-101"/>
      <use transform="translate(613.530666 0)scale(0.996264)" xlink:href="#CMR17-112"/>
      <use transform="translate(667.028474 0)scale(0.996264)" xlink:href="#CMR17-101"/>
      <use transform="translate(707.514135 0)scale(0.996264)" xlink:href="#CMR17-110"/>
      <use transform="translate(758.409504 0)scale(0.996264)" xlink:href="#CMR17-100"/>
      <use transform="translate(809.304874 0)scale(0.996264)" xlink:href="#CMR17-101"/>
      <use transform="translate(849.790535 0)scale(0.996264)" xlink:href="#CMR17-110"/>
      <use transform="translate(900.685904 0)scale(0.996264)" xlink:href="#CMR17-99"/>
      <use transform="translate(941.171565 0)scale(0.996264)" xlink:href="#CMR17-101"/>
     </g>
    </g>
   </g>
  </g>
 </g>
 <defs>
  <clipPath id="p52e918c5f5">
   <rect height="453.6" width="504" x="0" y="50.4"/>
  </clipPath>
 </defs>
</svg>
