<?xml version="1.0" encoding="utf-8" standalone="no"?>
<!DOCTYPE svg PUBLIC "-//W3C//DTD SVG 1.1//EN"
  "http://www.w3.org/Graphics/SVG/1.1/DTD/svg11.dtd">
<!-- Created with matplotlib (http://matplotlib.org/) -->
<svg height="216pt" version="1.1" viewBox="0 0 216 216" width="216pt" xmlns="http://www.w3.org/2000/svg" xmlns:xlink="http://www.w3.org/1999/xlink">
 <defs>
  <style type="text/css">
*{stroke-linecap:butt;stroke-linejoin:round;}
  </style>
 </defs>
 <g id="figure_1">
  <g id="patch_1">
   <path d="M 0 216 
L 216 216 
L 216 0 
L 0 0 
z
" style="fill:none;"/>
  </g>
  <g id="axes_1">
   <g id="patch_2">
    <path clip-path="url(#pc64801acca)" d="M 33.696 112.4064 
C 34.5839 112.4064 35.435553 112.05591 36.063394 111.43212 
C 36.691234 110.80833 37.044 109.962172 37.044 109.08 
C 37.044 108.197828 36.691234 107.35167 36.063394 106.72788 
C 35.435553 106.10409 34.5839 105.7536 33.696 105.7536 
C 32.8081 105.7536 31.956447 106.10409 31.328606 106.72788 
C 30.700766 107.35167 30.348 108.197828 30.348 109.08 
C 30.348 109.962172 30.700766 110.80833 31.328606 111.43212 
C 31.956447 112.05591 32.8081 112.4064 33.696 112.4064 
z
" style="fill:#0000ff;opacity:0.3;stroke:#0000ff;stroke-linejoin:miter;"/>
   </g>
   <g id="patch_3">
    <path clip-path="url(#pc64801acca)" d="M 24.877095 101.477727 
Q 27.836821 104.447264 30.796547 107.4168 
Q 26.645082 108.002859 22.493617 108.588918 
z
" style="fill:#0000ff;opacity:0.5;stroke:#0000ff;stroke-linecap:round;"/>
   </g>
   <g id="patch_4">
    <path clip-path="url(#pc64801acca)" d="M 36.012151 110.294921 
Q 31.954623 111.35066 27.897094 112.4064 
Q 29.487019 108.526933 31.076945 104.647467 
z
" style="fill:#0000ff;opacity:0.5;stroke:#0000ff;stroke-linecap:round;"/>
   </g>
   <g id="patch_5">
    <path clip-path="url(#pc64801acca)" d="M 51.711514 63.22852 
C 52.599414 63.22852 53.451067 62.878029 54.078907 62.25424 
C 54.706747 61.63045 55.059514 60.784291 55.059514 59.90212 
C 55.059514 59.019948 54.706747 58.173789 54.078907 57.55 
C 53.451067 56.92621 52.599414 56.57572 51.711514 56.57572 
C 50.823614 56.57572 49.97196 56.92621 49.34412 57.55 
C 48.71628 58.173789 48.363514 59.019948 48.363514 59.90212 
C 48.363514 60.784291 48.71628 61.63045 49.34412 62.25424 
C 49.97196 62.878029 50.823614 63.22852 51.711514 63.22852 
z
" style="fill:#0000ff;opacity:0.3;stroke:#0000ff;stroke-linejoin:miter;"/>
   </g>
   <g id="patch_6">
    <path clip-path="url(#pc64801acca)" d="M 49.855384 48.421273 
Q 50.210907 52.5988 50.56643 56.776326 
Q 47.011095 54.554229 43.45576 52.332132 
z
" style="fill:#0000ff;opacity:0.5;stroke:#0000ff;stroke-linecap:round;"/>
   </g>
   <g id="patch_7">
    <path clip-path="url(#pc64801acca)" d="M 52.704952 62.316067 
Q 48.911096 60.53147 45.117241 58.746873 
Q 48.821232 56.782547 52.525223 54.818221 
z
" style="fill:#0000ff;opacity:0.5;stroke:#0000ff;stroke-linecap:round;"/>
   </g>
   <g id="patch_8">
    <path clip-path="url(#pc64801acca)" d="M 97.328396 37.061516 
C 98.216296 37.061516 99.067949 36.711026 99.695789 36.087236 
C 100.323629 35.463447 100.676396 34.617288 100.676396 33.735116 
C 100.676396 32.852945 100.323629 32.006786 99.695789 31.382996 
C 99.067949 30.759207 98.216296 30.408716 97.328396 30.408716 
C 96.440496 30.408716 95.588842 30.759207 94.961002 31.382996 
C 94.333162 32.006786 93.980396 32.852945 93.980396 33.735116 
C 93.980396 34.617288 94.333162 35.463447 94.961002 36.087236 
C 95.588842 36.711026 96.440496 37.061516 97.328396 37.061516 
z
" style="fill:#0000ff;opacity:0.3;stroke:#0000ff;stroke-linejoin:miter;"/>
   </g>
   <g id="patch_9">
    <path clip-path="url(#pc64801acca)" d="M 103.327869 23.772116 
Q 100.900674 27.190719 98.473479 30.609323 
Q 97.194913 26.616405 95.916348 22.623487 
z
" style="fill:#0000ff;opacity:0.5;stroke:#0000ff;stroke-linecap:round;"/>
   </g>
   <g id="patch_10">
    <path clip-path="url(#pc64801acca)" d="M 96.558445 36.24287 
Q 94.791367 32.440823 93.02429 28.638776 
Q 97.126174 29.506342 101.228058 30.373909 
z
" style="fill:#0000ff;opacity:0.5;stroke:#0000ff;stroke-linecap:round;"/>
   </g>
   <g id="patch_11">
    <path clip-path="url(#pc64801acca)" d="M 149.202 46.149221 
C 150.0899 46.149221 150.941553 45.798731 151.569394 45.174941 
C 152.197234 44.551152 152.55 43.704993 152.55 42.822821 
C 152.55 41.94065 152.197234 41.094491 151.569394 40.470701 
C 150.941553 39.846912 150.0899 39.496421 149.202 39.496421 
C 148.3141 39.496421 147.462447 39.846912 146.834606 40.470701 
C 146.206766 41.094491 145.854 41.94065 145.854 42.822821 
C 145.854 43.704993 146.206766 44.551152 146.834606 45.174941 
C 147.462447 45.798731 148.3141 46.149221 149.202 46.149221 
z
" style="fill:#0000ff;opacity:0.3;stroke:#0000ff;stroke-linejoin:miter;"/>
   </g>
   <g id="patch_12">
    <path clip-path="url(#pc64801acca)" d="M 146.995693 44.259812 
Q 148.098847 40.214917 149.202 36.170021 
Q 151.776024 39.479481 154.350049 42.788941 
z
" style="fill:#0000ff;opacity:0.5;stroke:#0000ff;stroke-linecap:round;"/>
   </g>
   <g id="patch_13">
    <path clip-path="url(#pc64801acca)" d="M 183.060091 86.239396 
C 183.947991 86.239396 184.799644 85.888906 185.427484 85.265116 
C 186.055324 84.641327 186.408091 83.795168 186.408091 82.912996 
C 186.408091 82.030825 186.055324 81.184666 185.427484 80.560876 
C 184.799644 79.937087 183.947991 79.586596 183.060091 79.586596 
C 182.172191 79.586596 181.320537 79.937087 180.692697 80.560876 
C 180.064857 81.184666 179.712091 82.030825 179.712091 82.912996 
C 179.712091 83.795168 180.064857 84.641327 180.692697 85.265116 
C 181.320537 85.888906 182.172191 86.239396 183.060091 86.239396 
z
" style="fill:#0000ff;opacity:0.3;stroke:#0000ff;stroke-linejoin:miter;"/>
   </g>
   <g id="patch_14">
    <path clip-path="url(#pc64801acca)" d="M 180.458846 82.573613 
Q 183.911521 80.195134 187.364196 77.816656 
Q 187.195374 82.005883 187.026552 86.19511 
z
" style="fill:#0000ff;opacity:0.5;stroke:#0000ff;stroke-linecap:round;"/>
   </g>
   <g id="patch_15">
    <path clip-path="url(#pc64801acca)" d="M 183.060091 138.573404 
C 183.947991 138.573404 184.799644 138.222913 185.427484 137.599124 
C 186.055324 136.975334 186.408091 136.129175 186.408091 135.247004 
C 186.408091 134.364832 186.055324 133.518673 185.427484 132.894884 
C 184.799644 132.271094 183.947991 131.920604 183.060091 131.920604 
C 182.172191 131.920604 181.320537 132.271094 180.692697 132.894884 
C 180.064857 133.518673 179.712091 134.364832 179.712091 135.247004 
C 179.712091 136.129175 180.064857 136.975334 180.692697 137.599124 
C 181.320537 138.222913 182.172191 138.573404 183.060091 138.573404 
z
" style="fill:#0000ff;opacity:0.3;stroke:#0000ff;stroke-linejoin:miter;"/>
   </g>
   <g id="patch_16">
    <path clip-path="url(#pc64801acca)" d="M 181.305206 133.314533 
Q 185.479785 133.703145 189.654363 134.091757 
Q 186.838727 137.198252 184.02309 140.304748 
z
" style="fill:#0000ff;opacity:0.5;stroke:#0000ff;stroke-linecap:round;"/>
   </g>
   <g id="patch_17">
    <path clip-path="url(#pc64801acca)" d="M 149.202 178.663579 
C 150.0899 178.663579 150.941553 178.313088 151.569394 177.689299 
C 152.197234 177.065509 152.55 176.21935 152.55 175.337179 
C 152.55 174.455007 152.197234 173.608848 151.569394 172.985059 
C 150.941553 172.361269 150.0899 172.010779 149.202 172.010779 
C 148.3141 172.010779 147.462447 172.361269 146.834606 172.985059 
C 146.206766 173.608848 145.854 174.455007 145.854 175.337179 
C 145.854 176.21935 146.206766 177.065509 146.834606 177.689299 
C 147.462447 178.313088 148.3141 178.663579 149.202 178.663579 
z
" style="fill:#0000ff;opacity:0.3;stroke:#0000ff;stroke-linejoin:miter;"/>
   </g>
   <g id="patch_18">
    <path clip-path="url(#pc64801acca)" d="M 149.081454 172.724506 
Q 152.04118 175.694042 155.000906 178.663579 
Q 150.849441 179.249638 146.697977 179.835697 
z
" style="fill:#0000ff;opacity:0.5;stroke:#0000ff;stroke-linecap:round;"/>
   </g>
   <g id="patch_19">
    <path clip-path="url(#pc64801acca)" d="M 97.328396 187.751284 
C 98.216296 187.751284 99.067949 187.400793 99.695789 186.777004 
C 100.323629 186.153214 100.676396 185.307055 100.676396 184.424884 
C 100.676396 183.542712 100.323629 182.696553 99.695789 182.072764 
C 99.067949 181.448974 98.216296 181.098484 97.328396 181.098484 
C 96.440496 181.098484 95.588842 181.448974 94.961002 182.072764 
C 94.333162 182.696553 93.980396 183.542712 93.980396 184.424884 
C 93.980396 185.307055 94.333162 186.153214 94.961002 186.777004 
C 95.588842 187.400793 96.440496 187.751284 97.328396 187.751284 
z
" style="fill:#0000ff;opacity:0.3;stroke:#0000ff;stroke-linejoin:miter;"/>
   </g>
   <g id="patch_20">
    <path clip-path="url(#pc64801acca)" d="M 98.907516 182.321418 
Q 99.263039 186.498944 99.618563 190.676471 
Q 96.063227 188.454373 92.507892 186.232276 
z
" style="fill:#0000ff;opacity:0.5;stroke:#0000ff;stroke-linecap:round;"/>
   </g>
   <g id="patch_21">
    <path clip-path="url(#pc64801acca)" d="M 51.711514 161.58428 
C 52.599414 161.58428 53.451067 161.23379 54.078907 160.61 
C 54.706747 159.986211 55.059514 159.140052 55.059514 158.25788 
C 55.059514 157.375709 54.706747 156.52955 54.078907 155.90576 
C 53.451067 155.281971 52.599414 154.93148 51.711514 154.93148 
C 50.823614 154.93148 49.97196 155.281971 49.34412 155.90576 
C 48.71628 156.52955 48.363514 157.375709 48.363514 158.25788 
C 48.363514 159.140052 48.71628 159.986211 49.34412 160.61 
C 49.97196 161.23379 50.823614 161.58428 51.711514 161.58428 
z
" style="fill:#0000ff;opacity:0.3;stroke:#0000ff;stroke-linejoin:miter;"/>
   </g>
   <g id="patch_22">
    <path clip-path="url(#pc64801acca)" d="M 54.275737 157.67226 
Q 51.848542 161.090864 49.421347 164.509467 
Q 48.142781 160.516549 46.864215 156.523631 
z
" style="fill:#0000ff;opacity:0.5;stroke:#0000ff;stroke-linecap:round;"/>
   </g>
   <g id="patch_23">
    <path clip-path="url(#pc64801acca)" d="M 38.234515 105.826282 
Q 93.520398 86.933841 138.411395 49.917843 
L 136.979972 48.181891 
Q 141.02677 47.275536 145.095905 46.240288 
Q 143.477584 50.11448 141.751381 53.968397 
L 140.319959 52.232446 
Q 95.007457 89.596005 39.204606 108.665106 
L 38.234515 105.826282 
z
" style="fill:#0000ff;opacity:0.5;stroke:#0000ff;stroke-linecap:round;"/>
   </g>
   <g id="patch_24">
    <path clip-path="url(#pc64801acca)" d="M 39.069768 107.565066 
Q 106.900733 108.843222 170.494151 85.927345 
L 169.731377 83.810584 
Q 173.854494 84.318035 178.034084 84.72617 
Q 175.1952 87.820569 172.273958 90.866453 
L 171.511184 88.749693 
Q 107.397319 111.853112 39.013249 110.564534 
L 39.069768 107.565066 
z
" style="fill:#0000ff;opacity:0.5;stroke:#0000ff;stroke-linecap:round;"/>
   </g>
   <g id="patch_25">
    <path clip-path="url(#pc64801acca)" d="M 57.084528 58.384428 
Q 98.078768 59.039018 136.635339 45.771357 
L 135.903226 43.643797 
Q 139.994996 44.219167 144.176437 44.639324 
Q 141.325221 47.726276 138.343601 50.735663 
L 137.611489 48.608103 
Q 98.557183 62.04704 57.036631 61.384046 
L 57.084528 58.384428 
z
" style="fill:#0000ff;opacity:0.5;stroke:#0000ff;stroke-linecap:round;"/>
   </g>
   <g id="patch_26">
    <path clip-path="url(#pc64801acca)" d="M 57.277327 60.302799 
Q 111.942133 81.189635 170.219821 81.460013 
L 170.23026 79.210038 
Q 173.922403 81.102427 177.714095 82.910075 
Q 173.989714 84.852301 170.195464 86.709957 
L 170.205903 84.459981 
Q 111.381798 84.187068 56.206559 63.105201 
L 57.277327 60.302799 
z
" style="fill:#0000ff;opacity:0.5;stroke:#0000ff;stroke-linecap:round;"/>
   </g>
   <g id="patch_27">
    <path clip-path="url(#pc64801acca)" d="M 101.332439 37.602365 
Q 129.777906 88.479795 174.147078 125.910305 
L 175.597903 124.190534 
Q 177.215397 128.008481 178.963953 131.825269 
Q 174.862603 130.929178 170.761822 129.923101 
L 172.212646 128.203331 
Q 127.425953 90.420595 98.713915 39.066377 
L 101.332439 37.602365 
z
" style="fill:#0000ff;opacity:0.5;stroke:#0000ff;stroke-linecap:round;"/>
   </g>
   <g id="patch_28">
    <path clip-path="url(#pc64801acca)" d="M 149.763945 48.357775 
Q 138.703287 105.409158 148.415136 162.461628 
L 150.633228 162.08405 
Q 149.40529 166.04512 148.278538 170.090117 
Q 145.723245 166.758335 143.239586 163.342645 
L 145.457679 162.965066 
Q 135.654192 105.374266 146.818783 47.786791 
L 149.763945 48.357775 
z
" style="fill:#0000ff;opacity:0.5;stroke:#0000ff;stroke-linecap:round;"/>
   </g>
   <g id="patch_29">
    <path clip-path="url(#pc64801acca)" d="M 181.685693 88.30686 
Q 160.722143 123.239561 152.935559 163.00086 
L 155.143618 163.433271 
Q 152.595567 166.685873 150.137433 170.094701 
Q 148.89382 166.080519 147.783424 161.991901 
L 149.991482 162.424312 
Q 157.879147 122.146851 179.113342 86.76316 
L 181.685693 88.30686 
z
" style="fill:#0000ff;opacity:0.5;stroke:#0000ff;stroke-linecap:round;"/>
   </g>
   <g id="patch_30">
    <path clip-path="url(#pc64801acca)" d="M 179.913222 87.512891 
Q 134.514091 124.072232 105.037287 174.080168 
L 106.975615 175.222701 
Q 103.482228 177.456371 100.011917 179.819061 
Q 100.208954 175.625582 100.51452 171.414257 
L 102.452849 172.55679 
Q 132.207033 122.078272 178.031613 85.176323 
L 179.913222 87.512891 
z
" style="fill:#0000ff;opacity:0.5;stroke:#0000ff;stroke-linecap:round;"/>
   </g>
   <g id="patch_31">
    <path clip-path="url(#pc64801acca)" d="M 179.930552 139.844646 
Q 166.536954 150.850031 157.065047 165.169817 
L 158.941661 166.411114 
Q 155.382323 168.390096 151.87777 170.724399 
Q 152.126483 166.521851 152.686281 162.273456 
L 154.562895 163.514753 
Q 164.283741 148.818618 178.025971 137.526764 
L 179.930552 139.844646 
z
" style="fill:#0000ff;opacity:0.5;stroke:#0000ff;stroke-linecap:round;"/>
   </g>
   <g id="patch_32">
    <path clip-path="url(#pc64801acca)" d="M 178.529503 138.500166 
Q 139.823733 151.81861 108.136787 177.375648 
L 109.549332 179.126995 
Q 105.506178 179.978548 101.431496 181.006812 
Q 103.061555 177.133702 104.840849 173.289172 
L 106.253394 175.040519 
Q 138.349981 149.153086 177.55339 135.663407 
L 178.529503 138.500166 
z
" style="fill:#0000ff;opacity:0.5;stroke:#0000ff;stroke-linecap:round;"/>
   </g>
   <g id="patch_33">
    <path clip-path="url(#pc64801acca)" d="M 143.841734 176.862163 
Q 126.4243 176.718278 109.89638 181.662209 
L 110.541185 183.817836 
Q 106.538372 183.056135 102.350398 182.601455 
Q 105.237475 179.535011 108.391837 176.632413 
L 109.036641 178.78804 
Q 125.997355 173.714648 143.866516 173.862265 
L 143.841734 176.862163 
z
" style="fill:#0000ff;opacity:0.5;stroke:#0000ff;stroke-linecap:round;"/>
   </g>
   <g id="patch_34">
    <path clip-path="url(#pc64801acca)" d="M 143.635314 174.938351 
Q 105.305036 160.386954 64.534451 159.757334 
L 64.499708 162.007066 
Q 60.847221 160.074983 57.057639 158.258388 
Q 60.788442 156.324536 64.615517 154.50796 
L 64.580774 156.757692 
Q 105.877676 157.39544 144.700065 172.133658 
L 143.635314 174.938351 
z
" style="fill:#0000ff;opacity:0.5;stroke:#0000ff;stroke-linecap:round;"/>
   </g>
   <g id="patch_35">
    <path clip-path="url(#pc64801acca)" d="M 102.688661 182.8999 
Q 120.106096 183.043785 136.634015 178.099854 
L 135.989211 175.944227 
Q 139.992024 176.705927 144.179998 177.160607 
Q 141.292921 180.227052 138.138558 183.12965 
L 137.493754 180.974023 
Q 120.53304 186.047414 102.663879 185.899797 
L 102.688661 182.8999 
z
" style="fill:#0000ff;opacity:0.5;stroke:#0000ff;stroke-linecap:round;"/>
   </g>
   <g id="patch_36">
    <path clip-path="url(#pc64801acca)" d="M 92.243222 182.173005 
Q 78.973961 170.939793 63.139057 164.175667 
L 62.255197 166.244795 
Q 59.667342 163.098404 56.740349 160.069595 
Q 60.920506 159.56 65.201398 159.347702 
L 64.317537 161.41683 
Q 80.567691 168.358336 94.181589 179.883303 
L 92.243222 182.173005 
z
" style="fill:#0000ff;opacity:0.5;stroke:#0000ff;stroke-linecap:round;"/>
   </g>
   <g id="patch_37">
    <path clip-path="url(#pc64801acca)" d="M 57.2782 158.656708 
Q 95.608477 173.208105 136.379063 173.837724 
L 136.413806 171.587993 
Q 140.066293 173.520076 143.855875 175.336671 
Q 140.125071 177.270523 136.297997 179.087099 
L 136.33274 176.837367 
Q 95.035837 176.199619 56.213449 161.461401 
L 57.2782 158.656708 
z
" style="fill:#0000ff;opacity:0.5;stroke:#0000ff;stroke-linecap:round;"/>
   </g>
   <g id="patch_38">
    <path clip-path="url(#pc64801acca)" d="M 56.796688 160.509759 
Q 70.065948 171.742971 85.900852 178.507097 
L 86.784713 176.437969 
Q 89.372567 179.584359 92.29956 182.613169 
Q 88.119404 183.122764 83.838512 183.335062 
L 84.722372 181.265934 
Q 68.472218 174.324428 54.858321 162.799461 
L 56.796688 160.509759 
z
" style="fill:#0000ff;opacity:0.5;stroke:#0000ff;stroke-linecap:round;"/>
   </g>
   <g id="text_1">
    <!-- $x_{1}$ -->
    <defs>
     <path d="M 47.40625 40.71875 
C 44.203125 40.109375 43 37.71875 43 35.828125 
C 43 33.421875 44.90625 32.625 46.296875 32.625 
C 49.296875 32.625 51.40625 35.21875 51.40625 37.921875 
C 51.40625 42.109375 46.59375 44 42.40625 44 
C 36.296875 44 32.90625 38.015625 32 36.125 
C 29.703125 44 23.5 44 21.703125 44 
C 11.5 44 6.09375 30.9375 6.09375 28.734375 
C 6.09375 28.34375 6.5 27.84375 7.203125 27.84375 
C 8 27.84375 8.203125 28.4375 8.40625 28.84375 
C 11.796875 39.921875 18.5 42.015625 21.40625 42.015625 
C 25.90625 42.015625 26.796875 37.8125 26.796875 35.421875 
C 26.796875 33.234375 26.203125 30.9375 25 26.140625 
L 21.59375 12.46875 
C 20.09375 6.484375 17.203125 1 11.90625 1 
C 11.40625 1 8.90625 1 6.796875 2.296875 
C 10.40625 3 11.203125 5.984375 11.203125 7.1875 
C 11.203125 9.1875 9.703125 10.375 7.796875 10.375 
C 5.40625 10.375 2.796875 8.28125 2.796875 5.09375 
C 2.796875 0.890625 7.5 -1 11.796875 -1 
C 16.59375 -1 20 2.796875 22.09375 6.890625 
C 23.703125 1 28.703125 -1 32.40625 -1 
C 42.59375 -1 48 12.078125 48 14.265625 
C 48 14.765625 47.59375 15.171875 47 15.171875 
C 46.09375 15.171875 46 14.671875 45.703125 13.875 
C 43 5.09375 37.203125 1 32.703125 1 
C 29.203125 1 27.296875 3.59375 27.296875 7.6875 
C 27.296875 9.875 27.703125 11.46875 29.296875 18.0625 
L 32.796875 31.625 
C 34.296875 37.625 37.703125 42.015625 42.296875 42.015625 
C 42.5 42.015625 45.296875 42.015625 47.40625 40.71875 
z
" id="CMMI12-120"/>
     <path d="M 26.59375 63.40625 
C 26.59375 65.5 26.5 65.5 25.09375 65.5 
C 21.203125 61.1875 15.296875 59.796875 9.703125 59.796875 
C 9.40625 59.796875 8.90625 59.796875 8.796875 59.5 
C 8.703125 59.296875 8.703125 59.09375 8.703125 57 
C 11.796875 57 17 57.59375 21 59.984375 
L 21 7.203125 
C 21 3.6875 20.796875 2.5 12.203125 2.5 
L 9.203125 2.5 
L 9.203125 0 
C 14 0 19 0 23.796875 0 
C 28.59375 0 33.59375 0 38.40625 0 
L 38.40625 2.5 
L 35.40625 2.5 
C 26.796875 2.5 26.59375 3.59375 26.59375 7.15625 
z
" id="CMR17-49"/>
    </defs>
    <g transform="translate(26.471741 113.065056)scale(0.16 -0.16)">
     <use transform="translate(0 14.943915)scale(0.996264)" xlink:href="#CMMI12-120"/>
     <use transform="translate(55.43406 0)scale(0.697382)" xlink:href="#CMR17-49"/>
    </g>
   </g>
   <g id="text_2">
    <!-- $x_{2}$ -->
    <defs>
     <path d="M 41.703125 15.453125 
L 39.90625 15.453125 
C 38.90625 8.375 38.09375 7.171875 37.703125 6.5625 
C 37.203125 5.765625 30 5.765625 28.59375 5.765625 
L 9.40625 5.765625 
C 13 9.671875 20 16.75 28.5 24.953125 
C 34.59375 30.734375 41.703125 37.53125 41.703125 47.421875 
C 41.703125 59.21875 32.296875 66 21.796875 66 
C 10.796875 66 4.09375 56.3125 4.09375 47.34375 
C 4.09375 43.4375 7 42.9375 8.203125 42.9375 
C 9.203125 42.9375 12.203125 43.546875 12.203125 47.03125 
C 12.203125 50.109375 9.59375 51 8.203125 51 
C 7.59375 51 7 50.90625 6.59375 50.703125 
C 8.5 59.21875 14.296875 63.40625 20.40625 63.40625 
C 29.09375 63.40625 34.796875 56.515625 34.796875 47.421875 
C 34.796875 38.734375 29.703125 31.25 24 24.75 
L 4.09375 2.28125 
L 4.09375 0 
L 39.296875 0 
z
" id="CMR17-50"/>
    </defs>
    <g transform="translate(44.487254 63.887176)scale(0.16 -0.16)">
     <use transform="translate(0 14.943915)scale(0.996264)" xlink:href="#CMMI12-120"/>
     <use transform="translate(55.43406 0)scale(0.697382)" xlink:href="#CMR17-50"/>
    </g>
   </g>
   <g id="text_3">
    <!-- $x_{3}$ -->
    <defs>
     <path d="M 22.09375 33.703125 
C 31 33.703125 34.90625 25.96875 34.90625 17.03125 
C 34.90625 5 28.5 0.390625 22.703125 0.390625 
C 17.40625 0.390625 8.796875 3.03125 6.09375 10.828125 
C 6.59375 10.625 7.09375 10.625 7.59375 10.625 
C 10 10.625 11.796875 12.21875 11.796875 14.8125 
C 11.796875 17.703125 9.59375 19 7.59375 19 
C 5.90625 19 3.296875 18.203125 3.296875 14.46875 
C 3.296875 5.234375 12.296875 -2 22.90625 -2 
C 34 -2 42.5 6.71875 42.5 16.953125 
C 42.5 26.671875 34.5 33.703125 25 34.796875 
C 32.59375 36.375 39.90625 43.0625 39.90625 52.015625 
C 39.90625 59.6875 32 65.296875 23 65.296875 
C 13.90625 65.296875 5.90625 59.828125 5.90625 52.015625 
C 5.90625 48.59375 8.5 48 9.796875 48 
C 11.90625 48 13.703125 49.296875 13.703125 51.890625 
C 13.703125 54.46875 11.90625 55.765625 9.796875 55.765625 
C 9.40625 55.765625 8.90625 55.765625 8.5 55.578125 
C 11.40625 61.859375 19.296875 63 22.796875 63 
C 26.296875 63 32.90625 61.328125 32.90625 51.875 
C 32.90625 49.109375 32.5 44.1875 29.09375 39.84375 
C 26.09375 36 22.703125 36 19.40625 35.6875 
C 18.90625 35.6875 16.59375 35.453125 16.203125 35.453125 
C 15.5 35.359375 15.09375 35.265625 15.09375 34.5 
C 15.09375 33.796875 15.203125 33.703125 17.203125 33.703125 
z
" id="CMR17-51"/>
    </defs>
    <g transform="translate(90.104136 37.720172)scale(0.16 -0.16)">
     <use transform="translate(0 14.943915)scale(0.996264)" xlink:href="#CMMI12-120"/>
     <use transform="translate(55.43406 0)scale(0.697382)" xlink:href="#CMR17-51"/>
    </g>
   </g>
   <g id="text_4">
    <!-- $x_{4}$ -->
    <defs>
     <path d="M 33.59375 64.40625 
C 33.59375 66.5 33.5 66.5 31.703125 66.5 
L 2 19.59375 
L 2 17 
L 27.796875 17 
L 27.796875 7.140625 
C 27.796875 3.5 27.59375 2.5 20.59375 2.5 
L 18.703125 2.5 
L 18.703125 0 
C 21.90625 0 27.296875 0 30.703125 0 
C 34.09375 0 39.5 0 42.703125 0 
L 42.703125 2.5 
L 40.796875 2.5 
C 33.796875 2.5 33.59375 3.5 33.59375 7.140625 
L 33.59375 17 
L 43.796875 17 
L 43.796875 19.59375 
L 33.59375 19.59375 
z
M 28.09375 57.859375 
L 28.09375 19.59375 
L 4 19.59375 
z
" id="CMR17-52"/>
    </defs>
    <g transform="translate(141.977741 46.807877)scale(0.16 -0.16)">
     <use transform="translate(0 14.943915)scale(0.996264)" xlink:href="#CMMI12-120"/>
     <use transform="translate(55.43406 0)scale(0.697382)" xlink:href="#CMR17-52"/>
    </g>
   </g>
   <g id="text_5">
    <!-- $x_{5}$ -->
    <defs>
     <path d="M 11.40625 57.6875 
C 12.40625 57.28125 16.5 56 20.703125 56 
C 30 56 35.09375 61.109375 38 64.0625 
C 38 64.953125 38 65.5 37.40625 65.5 
C 37.296875 65.5 37.09375 65.5 36.296875 65.046875 
C 32.796875 63.40625 28.703125 62.078125 23.703125 62.078125 
C 20.703125 62.078125 16.203125 62.484375 11.296875 64.671875 
C 10.203125 65.171875 10 65.171875 9.90625 65.171875 
C 9.40625 65.171875 9.296875 65.0625 9.296875 63.078125 
L 9.296875 34.421875 
C 9.296875 32.640625 9.296875 32.140625 10.296875 32.140625 
C 10.796875 32.140625 11 32.34375 11.5 33.03125 
C 14.703125 37.515625 19.09375 39.40625 24.09375 39.40625 
C 27.59375 39.40625 35.09375 37.21875 35.09375 20.140625 
C 35.09375 16.953125 35.09375 11.171875 32.09375 6.578125 
C 29.59375 2.484375 25.703125 0.390625 21.40625 0.390625 
C 14.796875 0.390625 8.09375 5 6.296875 12.71875 
C 6.703125 12.609375 7.5 12.421875 7.90625 12.421875 
C 9.203125 12.421875 11.703125 13.125 11.703125 16.21875 
C 11.703125 18.90625 9.796875 20 7.90625 20 
C 5.59375 20 4.09375 18.59375 4.09375 15.796875 
C 4.09375 7.09375 11 -2 21.59375 -2 
C 31.90625 -2 41.703125 6.875 41.703125 19.75 
C 41.703125 31.71875 33.90625 41 24.203125 41 
C 19.09375 41 14.796875 39.109375 11.40625 35.53125 
z
" id="CMR17-53"/>
    </defs>
    <g transform="translate(175.835831 86.898053)scale(0.16 -0.16)">
     <use transform="translate(0 14.943915)scale(0.996264)" xlink:href="#CMMI12-120"/>
     <use transform="translate(55.43406 0)scale(0.697382)" xlink:href="#CMR17-53"/>
    </g>
   </g>
   <g id="text_6">
    <!-- $x_{6}$ -->
    <defs>
     <path d="M 10.59375 34 
C 10.59375 57.65625 21.796875 63 28.296875 63 
C 30.40625 63 35.5 62.640625 37.5 59 
C 35.90625 59 32.90625 59 32.90625 55.515625 
C 32.90625 52.828125 35.09375 51.921875 36.5 51.921875 
C 37.40625 51.921875 40.09375 52.3125 40.09375 55.625 
C 40.09375 61.78125 35.09375 65.296875 28.203125 65.296875 
C 16.296875 65.296875 3.796875 52.96875 3.796875 31 
C 3.796875 3.953125 15.09375 -2 23.09375 -2 
C 32.796875 -2 42 6.671875 42 20.046875 
C 42 32.515625 33.90625 41.59375 23.703125 41.59375 
C 17.59375 41.59375 13.09375 37.609375 10.59375 30.625 
z
M 23.09375 0.390625 
C 10.796875 0.390625 10.796875 18.75 10.796875 22.4375 
C 10.796875 29.625 14.203125 40 23.5 40 
C 25.203125 40 30.09375 40 33.40625 33.125 
C 35.203125 29.21875 35.203125 25.140625 35.203125 20.140625 
C 35.203125 14.75 35.203125 10.78125 33.09375 6.78125 
C 30.90625 2.671875 27.703125 0.390625 23.09375 0.390625 
z
" id="CMR17-54"/>
    </defs>
    <g transform="translate(175.835831 139.23206)scale(0.16 -0.16)">
     <use transform="translate(0 14.943915)scale(0.996264)" xlink:href="#CMMI12-120"/>
     <use transform="translate(55.43406 0)scale(0.697382)" xlink:href="#CMR17-54"/>
    </g>
   </g>
   <g id="text_7">
    <!-- $x_{7}$ -->
    <defs>
     <path d="M 45.09375 61.578125 
L 45.09375 63.765625 
L 21.59375 63.765625 
C 9.90625 63.765625 9.703125 65.078125 9.296875 67 
L 7.5 67 
L 4.59375 48.34375 
L 6.40625 48.34375 
C 6.703125 50.234375 7.40625 55.3125 8.59375 57.203125 
C 9.203125 58 16.59375 58 18.296875 58 
L 40.296875 58 
L 29.203125 41.578125 
C 21.796875 30.53125 16.703125 15.609375 16.703125 2.578125 
C 16.703125 1.390625 16.703125 -2 20.296875 -2 
C 23.90625 -2 23.90625 1.390625 23.90625 2.671875 
L 23.90625 7.265625 
C 23.90625 23.5625 26.703125 34.3125 31.296875 41.1875 
z
" id="CMR17-55"/>
    </defs>
    <g transform="translate(141.977741 179.322235)scale(0.16 -0.16)">
     <use transform="translate(0 14.943915)scale(0.996264)" xlink:href="#CMMI12-120"/>
     <use transform="translate(55.43406 0)scale(0.697382)" xlink:href="#CMR17-55"/>
    </g>
   </g>
   <g id="text_8">
    <!-- $x_{8}$ -->
    <defs>
     <path d="M 27.203125 35.375 
C 33.5 38.546875 39.90625 43.328125 39.90625 50.984375 
C 39.90625 60.015625 31.09375 65.296875 23 65.296875 
C 13.90625 65.296875 5.90625 58.734375 5.90625 49.6875 
C 5.90625 47.203125 6.5 42.921875 10.40625 39.140625 
C 11.40625 38.15625 15.59375 35.171875 18.296875 33.28125 
C 13.796875 30.984375 3.296875 25.53125 3.296875 14.59375 
C 3.296875 4.359375 13.09375 -2 22.796875 -2 
C 33.5 -2 42.5 5.65625 42.5 15.78125 
C 42.5 24.84375 36.40625 29.015625 32.40625 31.703125 
z
M 14.09375 44.09375 
C 13.296875 44.59375 9.296875 47.671875 9.296875 52.359375 
C 9.296875 58.421875 15.59375 63 22.796875 63 
C 30.703125 63 36.5 57.4375 36.5 50.96875 
C 36.5 41.703125 26.09375 36.421875 25.59375 36.421875 
C 25.5 36.421875 25.40625 36.421875 24.59375 37.03125 
z
M 32.5 23.734375 
C 34 22.640625 38.796875 19.375 38.796875 13.296875 
C 38.796875 5.953125 31.40625 0.390625 23 0.390625 
C 13.90625 0.390625 7 6.84375 7 14.6875 
C 7 22.546875 13.09375 29.09375 20 32.1875 
z
" id="CMR17-56"/>
    </defs>
    <g transform="translate(90.104136 188.40994)scale(0.16 -0.16)">
     <use transform="translate(0 14.943915)scale(0.996264)" xlink:href="#CMMI12-120"/>
     <use transform="translate(55.43406 0)scale(0.697382)" xlink:href="#CMR17-56"/>
    </g>
   </g>
   <g id="text_9">
    <!-- $x_{9}$ -->
    <defs>
     <path d="M 35.203125 29.125 
C 35.203125 7.25 26.09375 0.484375 18.59375 0.484375 
C 16.296875 0.484375 10.703125 0.484375 8.40625 4.59375 
C 11 4.1875 12.90625 5.578125 12.90625 8.09375 
C 12.90625 10.8125 10.703125 11.703125 9.296875 11.703125 
C 8.40625 11.703125 5.703125 11.296875 5.703125 7.90625 
C 5.703125 1.109375 11.59375 -2 18.796875 -2 
C 30.296875 -2 42 10.53125 42 32.390625 
C 42 59.640625 30.796875 65.296875 23.203125 65.296875 
C 13.296875 65.296875 3.796875 56.6875 3.796875 43.40625 
C 3.796875 31.109375 11.90625 22 22.09375 22 
C 30.5 22 34.203125 29.734375 35.203125 33 
z
M 22.296875 23.59375 
C 19.59375 23.59375 15.796875 24.09375 12.703125 30.03125 
C 10.59375 33.890625 10.59375 38.453125 10.59375 43.296875 
C 10.59375 49.15625 10.59375 53.203125 13.40625 57.5625 
C 14.796875 59.640625 17.40625 63 23.203125 63 
C 35 63 35 45.078125 35 41.125 
C 35 34.09375 31.796875 23.59375 22.296875 23.59375 
z
" id="CMR17-57"/>
    </defs>
    <g transform="translate(44.487254 162.242936)scale(0.16 -0.16)">
     <use transform="translate(0 14.943915)scale(0.996264)" xlink:href="#CMMI12-120"/>
     <use transform="translate(55.43406 0)scale(0.697382)" xlink:href="#CMR17-57"/>
    </g>
   </g>
  </g>
 </g>
 <defs>
  <clipPath id="pc64801acca">
   <rect height="166.32" width="167.4" x="27" y="25.92"/>
  </clipPath>
 </defs>
</svg>
