<?xml version="1.0" encoding="utf-8" standalone="no"?>
<!DOCTYPE svg PUBLIC "-//W3C//DTD SVG 1.1//EN"
  "http://www.w3.org/Graphics/SVG/1.1/DTD/svg11.dtd">
<!-- Created with matplotlib (http://matplotlib.org/) -->
<svg height="216pt" version="1.1" viewBox="0 0 216 216" width="216pt" xmlns="http://www.w3.org/2000/svg" xmlns:xlink="http://www.w3.org/1999/xlink">
 <defs>
  <style type="text/css">
*{stroke-linecap:butt;stroke-linejoin:round;}
  </style>
 </defs>
 <g id="figure_1">
  <g id="patch_1">
   <path d="M 0 216 
L 216 216 
L 216 0 
L 0 0 
z
" style="fill:none;"/>
  </g>
  <g id="axes_1">
   <g id="patch_2">
    <path clip-path="url(#pc8fde7ed19)" d="M 60.48 125.712 
C 64.9195 125.712 69.177767 123.959548 72.316968 120.8406 
C 75.456168 117.721652 77.22 113.490858 77.22 109.08 
C 77.22 104.669142 75.456168 100.438348 72.316968 97.3194 
C 69.177767 94.200452 64.9195 92.448 60.48 92.448 
C 56.0405 92.448 51.782233 94.200452 48.643032 97.3194 
C 45.503832 100.438348 43.74 104.669142 43.74 109.08 
C 43.74 113.490858 45.503832 117.721652 48.643032 120.8406 
C 51.782233 123.959548 56.0405 125.712 60.48 125.712 
z
" style="fill:#0000ff;opacity:0.3;stroke:#0000ff;stroke-linejoin:miter;"/>
   </g>
   <g id="patch_3">
    <path clip-path="url(#pc8fde7ed19)" d="M 33.956356 92.55677 
Q 35.97429 94.163579 38.15184 95.490024 
L 39.322352 93.568461 
Q 41.251244 96.956495 44.102154 100.085712 
Q 39.888586 100.482237 35.420648 99.973671 
L 36.591159 98.052108 
Q 34.252829 96.627725 32.087621 94.903646 
L 33.956356 92.55677 
z
" style="fill:#0000ff;opacity:0.5;stroke:#0000ff;stroke-linecap:round;"/>
   </g>
   <g id="patch_4">
    <path clip-path="url(#pc8fde7ed19)" d="M 44.641444 119.473992 
Q 42.235693 120.404721 39.991376 121.614771 
L 41.059176 123.595252 
Q 37.1608 123.549888 33.020367 124.431083 
Q 34.805253 120.593692 37.499842 116.99365 
L 38.567642 118.974131 
Q 40.977668 117.674736 43.558998 116.67608 
L 44.641444 119.473992 
z
" style="fill:#0000ff;opacity:0.5;stroke:#0000ff;stroke-linecap:round;"/>
   </g>
   <g id="patch_5">
    <path clip-path="url(#pc8fde7ed19)" d="M 95.181167 78.258084 
C 99.620666 78.258084 103.878934 76.505632 107.018134 73.386684 
C 110.157335 70.267736 111.921167 66.036942 111.921167 61.626084 
C 111.921167 57.215226 110.157335 52.984432 107.018134 49.865484 
C 103.878934 46.746537 99.620666 44.994084 95.181167 44.994084 
C 90.741667 44.994084 86.4834 46.746537 83.344199 49.865484 
C 80.204999 52.984432 78.441167 57.215226 78.441167 61.626084 
C 78.441167 66.036942 80.204999 70.267736 83.344199 73.386684 
C 86.4834 76.505632 90.741667 78.258084 95.181167 78.258084 
z
" style="fill:#0000ff;opacity:0.3;stroke:#0000ff;stroke-linejoin:miter;"/>
   </g>
   <g id="patch_6">
    <path clip-path="url(#pc8fde7ed19)" d="M 80.347964 49.879997 
Q 78.71147 47.894414 76.861447 46.149088 
L 75.317441 47.785714 
Q 74.135528 44.072303 71.997412 40.420527 
Q 76.200156 40.906014 80.464127 42.330293 
L 78.920121 43.966919 
Q 80.906919 45.84128 82.663006 47.971966 
L 80.347964 49.879997 
z
" style="fill:#0000ff;opacity:0.5;stroke:#0000ff;stroke-linecap:round;"/>
   </g>
   <g id="patch_7">
    <path clip-path="url(#pc8fde7ed19)" d="M 151.328833 96.383867 
C 155.768333 96.383867 160.0266 94.631415 163.165801 91.512467 
C 166.305001 88.393519 168.068833 84.162725 168.068833 79.751867 
C 168.068833 75.341009 166.305001 71.110215 163.165801 67.991267 
C 160.0266 64.872319 155.768333 63.119867 151.328833 63.119867 
C 146.889334 63.119867 142.631066 64.872319 139.491866 67.991267 
C 136.352665 71.110215 134.588833 75.341009 134.588833 79.751867 
C 134.588833 84.162725 136.352665 88.393519 139.491866 91.512467 
C 142.631066 94.631415 146.889334 96.383867 151.328833 96.383867 
z
" style="fill:#0000ff;opacity:0.3;stroke:#0000ff;stroke-linejoin:miter;"/>
   </g>
   <g id="patch_8">
    <path clip-path="url(#pc8fde7ed19)" d="M 182.56268 77.632185 
Q 179.97135 77.508224 177.414906 77.708175 
L 177.590352 79.951324 
Q 174.044394 78.332942 169.903189 77.462256 
Q 173.08722 74.676354 177.005531 72.47416 
L 177.180978 74.717309 
Q 179.925879 74.502619 182.706026 74.635612 
L 182.56268 77.632185 
z
" style="fill:#0000ff;opacity:0.5;stroke:#0000ff;stroke-linecap:round;"/>
   </g>
   <g id="patch_9">
    <path clip-path="url(#pc8fde7ed19)" d="M 158.000419 62.087898 
Q 159.381474 59.94628 160.473633 57.676337 
L 158.446108 56.700815 
Q 161.627355 54.448415 164.45848 51.300959 
Q 165.271103 55.454671 165.204524 59.952554 
L 163.176999 58.977033 
Q 162.00389 61.415223 160.52165 63.713751 
L 158.000419 62.087898 
z
" style="fill:#0000ff;opacity:0.5;stroke:#0000ff;stroke-linecap:round;"/>
   </g>
   <g id="patch_10">
    <path clip-path="url(#pc8fde7ed19)" d="M 151.328833 155.040133 
C 155.768333 155.040133 160.0266 153.287681 163.165801 150.168733 
C 166.305001 147.049785 168.068833 142.818991 168.068833 138.408133 
C 168.068833 133.997275 166.305001 129.766481 163.165801 126.647533 
C 160.0266 123.528585 155.768333 121.776133 151.328833 121.776133 
C 146.889334 121.776133 142.631066 123.528585 139.491866 126.647533 
C 136.352665 129.766481 134.588833 133.997275 134.588833 138.408133 
C 134.588833 142.818991 136.352665 147.049785 139.491866 150.168733 
C 142.631066 153.287681 146.889334 155.040133 151.328833 155.040133 
z
" style="fill:#0000ff;opacity:0.3;stroke:#0000ff;stroke-linejoin:miter;"/>
   </g>
   <g id="patch_11">
    <path clip-path="url(#pc8fde7ed19)" d="M 170.275802 139.244744 
Q 172.785616 139.901397 175.328216 140.23392 
L 175.619988 138.002919 
Q 178.755087 140.318978 182.627065 142.02645 
Q 178.936162 144.094429 174.647414 145.439591 
L 174.939186 143.208589 
Q 172.209149 142.851553 169.516458 142.147052 
L 170.275802 139.244744 
z
" style="fill:#0000ff;opacity:0.5;stroke:#0000ff;stroke-linecap:round;"/>
   </g>
   <g id="patch_12">
    <path clip-path="url(#pc8fde7ed19)" d="M 95.181167 173.165916 
C 99.620666 173.165916 103.878934 171.413463 107.018134 168.294516 
C 110.157335 165.175568 111.921167 160.944774 111.921167 156.533916 
C 111.921167 152.123058 110.157335 147.892264 107.018134 144.773316 
C 103.878934 141.654368 99.620666 139.901916 95.181167 139.901916 
C 90.741667 139.901916 86.4834 141.654368 83.344199 144.773316 
C 80.204999 147.892264 78.441167 152.123058 78.441167 156.533916 
C 78.441167 160.944774 80.204999 165.175568 83.344199 168.294516 
C 86.4834 171.413463 90.741667 173.165916 95.181167 173.165916 
z
" style="fill:#0000ff;opacity:0.3;stroke:#0000ff;stroke-linejoin:miter;"/>
   </g>
   <g id="patch_13">
    <path clip-path="url(#pc8fde7ed19)" d="M 100.231438 174.712574 
Q 100.382055 177.249851 100.840238 179.720273 
L 103.052511 179.309968 
Q 101.815342 183.004433 101.389188 187.214442 
Q 98.280758 184.344691 95.678269 180.677651 
L 97.890541 180.267346 
Q 97.398371 177.613672 97.23671 174.890346 
L 100.231438 174.712574 
z
" style="fill:#0000ff;opacity:0.5;stroke:#0000ff;stroke-linecap:round;"/>
   </g>
   <g id="patch_14">
    <path clip-path="url(#pc8fde7ed19)" d="M 72.818494 94.890321 
Q 78.233486 90.020826 82.379196 84.148191 
L 80.541066 82.850587 
Q 84.107395 81.060327 87.575312 78.651075 
Q 87.406379 82.868567 86.668167 87.175934 
L 84.830036 85.87833 
Q 80.490008 92.026228 74.824478 97.121022 
L 72.818494 94.890321 
z
" style="fill:#0000ff;opacity:0.5;stroke:#0000ff;stroke-linecap:round;"/>
   </g>
   <g id="patch_15">
    <path clip-path="url(#pc8fde7ed19)" d="M 77.867358 116.300013 
Q 100.426486 128.807196 125.603406 133.434245 
L 126.010102 131.221307 
Q 129.259503 133.725908 132.735147 136.093719 
Q 128.752674 137.443525 124.654446 138.597769 
L 125.061143 136.38483 
Q 99.401283 131.669025 76.412711 118.923751 
L 77.867358 116.300013 
z
" style="fill:#0000ff;opacity:0.5;stroke:#0000ff;stroke-linecap:round;"/>
   </g>
   <g id="patch_16">
    <path clip-path="url(#pc8fde7ed19)" d="M 104.976737 77.628559 
Q 115.854287 100.889647 133.440487 119.332258 
L 135.068835 117.779525 
Q 136.228693 121.714313 137.652948 125.671232 
Q 133.63641 124.426826 129.641007 122.955303 
L 131.269356 121.40257 
Q 113.344571 102.604885 102.25919 78.899362 
L 104.976737 77.628559 
z
" style="fill:#0000ff;opacity:0.5;stroke:#0000ff;stroke-linecap:round;"/>
   </g>
   <g id="patch_17">
    <path clip-path="url(#pc8fde7ed19)" d="M 93.637222 80.300297 
Q 88.699821 105.427854 91.99464 130.625951 
L 94.225648 130.334232 
Q 92.838681 134.196508 91.652693 138.233215 
Q 89.144988 134.855587 86.788953 131.306629 
L 89.019961 131.01491 
Q 85.661567 105.330592 90.693511 79.721877 
L 93.637222 80.300297 
z
" style="fill:#0000ff;opacity:0.5;stroke:#0000ff;stroke-linecap:round;"/>
   </g>
   <g id="patch_18">
    <path clip-path="url(#pc8fde7ed19)" d="M 149.73849 98.437429 
Q 148.247612 105.533804 148.363735 112.690615 
L 150.613439 112.654113 
Q 148.789713 116.203419 147.411868 120.195552 
Q 145.059259 116.690469 143.114426 112.775788 
L 145.36413 112.739286 
Q 145.24255 105.246166 146.802582 97.820624 
L 149.73849 98.437429 
z
" style="fill:#0000ff;opacity:0.5;stroke:#0000ff;stroke-linecap:round;"/>
   </g>
   <g id="patch_19">
    <path clip-path="url(#pc8fde7ed19)" d="M 139.029785 93.96376 
Q 120.158807 111.382972 107.914019 133.734948 
L 109.887321 134.815956 
Q 106.489115 137.114425 103.149986 139.671568 
Q 103.118391 135.466432 103.309647 131.212596 
L 105.282949 132.293604 
Q 117.763459 109.511335 136.994954 91.759341 
L 139.029785 93.96376 
z
" style="fill:#0000ff;opacity:0.5;stroke:#0000ff;stroke-linecap:round;"/>
   </g>
   <g id="patch_20">
    <path clip-path="url(#pc8fde7ed19)" d="M 132.963158 142.682971 
Q 125.673149 143.45458 118.826871 145.798185 
L 119.555574 147.926915 
Q 115.616123 147.287312 111.394374 147.204906 
Q 114.004555 143.888015 117.126565 140.831147 
L 117.855267 142.959878 
Q 125.021293 140.506818 132.647388 139.699635 
L 132.963158 142.682971 
z
" style="fill:#0000ff;opacity:0.5;stroke:#0000ff;stroke-linecap:round;"/>
   </g>
   <g id="text_1">
    <!-- $x_{1}$ -->
    <defs>
     <path d="M 60.015625 54.6875 
L 34.90625 27.875 
L 50.296875 0 
L 39.984375 0 
L 28.421875 21.6875 
L 8.296875 0 
L -2.59375 0 
L 24.3125 28.8125 
L 10.015625 54.6875 
L 20.3125 54.6875 
L 30.8125 34.90625 
L 49.125 54.6875 
z
" id="DejaVuSans-Oblique-78"/>
     <path d="M 12.40625 8.296875 
L 28.515625 8.296875 
L 28.515625 63.921875 
L 10.984375 60.40625 
L 10.984375 69.390625 
L 28.421875 72.90625 
L 38.28125 72.90625 
L 38.28125 8.296875 
L 54.390625 8.296875 
L 54.390625 0 
L 12.40625 0 
z
" id="DejaVuSans-31"/>
    </defs>
    <g transform="translate(51.92 113.495)scale(0.16 -0.16)">
     <use transform="translate(0 0.3125)" xlink:href="#DejaVuSans-Oblique-78"/>
     <use transform="translate(59.179688 -16.09375)scale(0.7)" xlink:href="#DejaVuSans-31"/>
    </g>
   </g>
   <g id="text_2">
    <!-- $x_{2}$ -->
    <defs>
     <path d="M 19.1875 8.296875 
L 53.609375 8.296875 
L 53.609375 0 
L 7.328125 0 
L 7.328125 8.296875 
Q 12.9375 14.109375 22.625 23.890625 
Q 32.328125 33.6875 34.8125 36.53125 
Q 39.546875 41.84375 41.421875 45.53125 
Q 43.3125 49.21875 43.3125 52.78125 
Q 43.3125 58.59375 39.234375 62.25 
Q 35.15625 65.921875 28.609375 65.921875 
Q 23.96875 65.921875 18.8125 64.3125 
Q 13.671875 62.703125 7.8125 59.421875 
L 7.8125 69.390625 
Q 13.765625 71.78125 18.9375 73 
Q 24.125 74.21875 28.421875 74.21875 
Q 39.75 74.21875 46.484375 68.546875 
Q 53.21875 62.890625 53.21875 53.421875 
Q 53.21875 48.921875 51.53125 44.890625 
Q 49.859375 40.875 45.40625 35.40625 
Q 44.1875 33.984375 37.640625 27.21875 
Q 31.109375 20.453125 19.1875 8.296875 
z
" id="DejaVuSans-32"/>
    </defs>
    <g transform="translate(86.621167 66.041084)scale(0.16 -0.16)">
     <use transform="translate(0 0.3125)" xlink:href="#DejaVuSans-Oblique-78"/>
     <use transform="translate(59.179688 -16.09375)scale(0.7)" xlink:href="#DejaVuSans-32"/>
    </g>
   </g>
   <g id="text_3">
    <!-- $x_{3}$ -->
    <defs>
     <path d="M 40.578125 39.3125 
Q 47.65625 37.796875 51.625 33 
Q 55.609375 28.21875 55.609375 21.1875 
Q 55.609375 10.40625 48.1875 4.484375 
Q 40.765625 -1.421875 27.09375 -1.421875 
Q 22.515625 -1.421875 17.65625 -0.515625 
Q 12.796875 0.390625 7.625 2.203125 
L 7.625 11.71875 
Q 11.71875 9.328125 16.59375 8.109375 
Q 21.484375 6.890625 26.8125 6.890625 
Q 36.078125 6.890625 40.9375 10.546875 
Q 45.796875 14.203125 45.796875 21.1875 
Q 45.796875 27.640625 41.28125 31.265625 
Q 36.765625 34.90625 28.71875 34.90625 
L 20.21875 34.90625 
L 20.21875 43.015625 
L 29.109375 43.015625 
Q 36.375 43.015625 40.234375 45.921875 
Q 44.09375 48.828125 44.09375 54.296875 
Q 44.09375 59.90625 40.109375 62.90625 
Q 36.140625 65.921875 28.71875 65.921875 
Q 24.65625 65.921875 20.015625 65.03125 
Q 15.375 64.15625 9.8125 62.3125 
L 9.8125 71.09375 
Q 15.4375 72.65625 20.34375 73.4375 
Q 25.25 74.21875 29.59375 74.21875 
Q 40.828125 74.21875 47.359375 69.109375 
Q 53.90625 64.015625 53.90625 55.328125 
Q 53.90625 49.265625 50.4375 45.09375 
Q 46.96875 40.921875 40.578125 39.3125 
z
" id="DejaVuSans-33"/>
    </defs>
    <g transform="translate(142.768833 84.166867)scale(0.16 -0.16)">
     <use transform="translate(0 0.3125)" xlink:href="#DejaVuSans-Oblique-78"/>
     <use transform="translate(59.179688 -16.09375)scale(0.7)" xlink:href="#DejaVuSans-33"/>
    </g>
   </g>
   <g id="text_4">
    <!-- $x_{4}$ -->
    <defs>
     <path d="M 37.796875 64.3125 
L 12.890625 25.390625 
L 37.796875 25.390625 
z
M 35.203125 72.90625 
L 47.609375 72.90625 
L 47.609375 25.390625 
L 58.015625 25.390625 
L 58.015625 17.1875 
L 47.609375 17.1875 
L 47.609375 0 
L 37.796875 0 
L 37.796875 17.1875 
L 4.890625 17.1875 
L 4.890625 26.703125 
z
" id="DejaVuSans-34"/>
    </defs>
    <g transform="translate(142.768833 142.823133)scale(0.16 -0.16)">
     <use transform="translate(0 0.3125)" xlink:href="#DejaVuSans-Oblique-78"/>
     <use transform="translate(59.179688 -16.09375)scale(0.7)" xlink:href="#DejaVuSans-34"/>
    </g>
   </g>
   <g id="text_5">
    <!-- $x_{5}$ -->
    <defs>
     <path d="M 10.796875 72.90625 
L 49.515625 72.90625 
L 49.515625 64.59375 
L 19.828125 64.59375 
L 19.828125 46.734375 
Q 21.96875 47.46875 24.109375 47.828125 
Q 26.265625 48.1875 28.421875 48.1875 
Q 40.625 48.1875 47.75 41.5 
Q 54.890625 34.8125 54.890625 23.390625 
Q 54.890625 11.625 47.5625 5.09375 
Q 40.234375 -1.421875 26.90625 -1.421875 
Q 22.3125 -1.421875 17.546875 -0.640625 
Q 12.796875 0.140625 7.71875 1.703125 
L 7.71875 11.625 
Q 12.109375 9.234375 16.796875 8.0625 
Q 21.484375 6.890625 26.703125 6.890625 
Q 35.15625 6.890625 40.078125 11.328125 
Q 45.015625 15.765625 45.015625 23.390625 
Q 45.015625 31 40.078125 35.4375 
Q 35.15625 39.890625 26.703125 39.890625 
Q 22.75 39.890625 18.8125 39.015625 
Q 14.890625 38.140625 10.796875 36.28125 
z
" id="DejaVuSans-35"/>
    </defs>
    <g transform="translate(86.621167 160.948916)scale(0.16 -0.16)">
     <use transform="translate(0 0.3125)" xlink:href="#DejaVuSans-Oblique-78"/>
     <use transform="translate(59.179688 -16.09375)scale(0.7)" xlink:href="#DejaVuSans-35"/>
    </g>
   </g>
  </g>
 </g>
 <defs>
  <clipPath id="pc8fde7ed19">
   <rect height="166.32" width="167.4" x="27" y="25.92"/>
  </clipPath>
 </defs>
</svg>
