<?xml version="1.0" encoding="utf-8" standalone="no"?>
<!DOCTYPE svg PUBLIC "-//W3C//DTD SVG 1.1//EN"
  "http://www.w3.org/Graphics/SVG/1.1/DTD/svg11.dtd">
<!-- Created with matplotlib (http://matplotlib.org/) -->
<svg height="1008pt" version="1.1" viewBox="0 0 1008 1008" width="1008pt" xmlns="http://www.w3.org/2000/svg" xmlns:xlink="http://www.w3.org/1999/xlink">
 <defs>
  <style type="text/css">
*{stroke-linecap:butt;stroke-linejoin:round;}
  </style>
 </defs>
 <g id="figure_1">
  <g id="patch_1">
   <path d="M 0 1008 
L 1008 1008 
L 1008 0 
L 0 0 
z
" style="fill:#ffffff;"/>
  </g>
  <g id="axes_1">
   <g id="patch_2">
    <path clip-path="url(#pcaa90576c0)" d="M 96.768 653.184 
C 109.599587 653.184 121.907352 648.085957 130.980655 639.012655 
C 140.053957 629.939352 145.152 617.631587 145.152 604.8 
C 145.152 591.968413 140.053957 579.660648 130.980655 570.587345 
C 121.907352 561.514043 109.599587 556.416 96.768 556.416 
C 83.936413 556.416 71.628648 561.514043 62.555345 570.587345 
C 53.482043 579.660648 48.384 591.968413 48.384 604.8 
C 48.384 617.631587 53.482043 629.939352 62.555345 639.012655 
C 71.628648 648.085957 83.936413 653.184 96.768 653.184 
z
" style="fill:#0000ff;opacity:0.3;stroke:#0000ff;stroke-linejoin:miter;"/>
   </g>
   <g id="patch_3">
    <path clip-path="url(#pcaa90576c0)" d="M 17.718215 553.917284 
Q 24.97707 560.097843 32.987715 564.963302 
L 36.881134 558.553054 
Q 43.156845 569.754506 52.977451 579.952554 
Q 38.929485 581.657457 23.903069 579.920548 
L 27.796489 573.5103 
Q 19.102722 568.22993 11.235319 561.531223 
L 17.718215 553.917284 
z
" style="fill:#0000ff;opacity:0.5;stroke:#0000ff;stroke-linecap:round;"/>
   </g>
   <g id="patch_4">
    <path clip-path="url(#pcaa90576c0)" d="M 54.653298 634.358236 
Q 45.671349 637.55431 37.452416 642.059002 
L 41.057144 648.635926 
Q 28.218546 648.470125 14.476475 651.875996 
Q 20.023968 638.857648 29.041383 626.712845 
L 32.646111 633.289769 
Q 41.565929 628.400931 51.300881 624.936914 
L 54.653298 634.358236 
z
" style="fill:#0000ff;opacity:0.5;stroke:#0000ff;stroke-linecap:round;"/>
   </g>
   <g id="patch_5">
    <path clip-path="url(#pcaa90576c0)" d="M 212.142773 413.605815 
C 224.97436 413.605815 237.282126 408.507772 246.355428 399.43447 
C 255.42873 390.361168 260.526773 378.053402 260.526773 365.221815 
C 260.526773 352.390228 255.42873 340.082463 246.355428 331.009161 
C 237.282126 321.935859 224.97436 316.837815 212.142773 316.837815 
C 199.311186 316.837815 187.003421 321.935859 177.930119 331.009161 
C 168.856817 340.082463 163.758773 352.390228 163.758773 365.221815 
C 163.758773 378.053402 168.856817 390.361168 177.930119 399.43447 
C 187.003421 408.507772 199.311186 413.605815 212.142773 413.605815 
z
" style="fill:#0000ff;opacity:0.3;stroke:#0000ff;stroke-linejoin:miter;"/>
   </g>
   <g id="patch_6">
    <path clip-path="url(#pcaa90576c0)" d="M 202.637748 271.693349 
Q 202.331414 281.222068 203.522 290.518605 
L 210.961242 289.565879 
Q 206.116435 301.456418 204.266328 315.492856 
Q 194.174617 305.572703 186.163771 292.741634 
L 193.603012 291.788908 
Q 192.310896 281.69959 192.642911 271.372031 
L 202.637748 271.693349 
z
" style="fill:#0000ff;opacity:0.5;stroke:#0000ff;stroke-linecap:round;"/>
   </g>
   <g id="patch_7">
    <path clip-path="url(#pcaa90576c0)" d="M 162.775127 350.724474 
Q 154.676182 345.694822 146.02985 342.077632 
L 143.135315 348.996567 
Q 135.260209 338.855571 124.029351 330.235113 
Q 137.666311 326.455511 152.783766 325.933449 
L 149.889231 332.852384 
Q 159.272894 336.778038 168.050815 342.229351 
L 162.775127 350.724474 
z
" style="fill:#0000ff;opacity:0.5;stroke:#0000ff;stroke-linecap:round;"/>
   </g>
   <g id="patch_8">
    <path clip-path="url(#pcaa90576c0)" d="M 471.387535 354.43489 
C 484.219122 354.43489 496.526887 349.336847 505.600189 340.263545 
C 514.673491 331.190242 519.771535 318.882477 519.771535 306.05089 
C 519.771535 293.219303 514.673491 280.911538 505.600189 271.838236 
C 496.526887 262.764933 484.219122 257.66689 471.387535 257.66689 
C 458.555948 257.66689 446.248182 262.764933 437.17488 271.838236 
C 428.101578 280.911538 423.003535 293.219303 423.003535 306.05089 
C 423.003535 318.882477 428.101578 331.190242 437.17488 340.263545 
C 446.248182 349.336847 458.555948 354.43489 471.387535 354.43489 
z
" style="fill:#0000ff;opacity:0.3;stroke:#0000ff;stroke-linejoin:miter;"/>
   </g>
   <g id="patch_9">
    <path clip-path="url(#pcaa90576c0)" d="M 538.584747 240.305517 
Q 530.9439 246.007075 524.417892 252.734209 
L 529.801055 257.956427 
Q 517.483969 261.582234 505.356318 268.887339 
Q 506.820126 254.812207 511.857179 240.549034 
L 517.240342 245.771252 
Q 524.322867 238.470449 532.604286 232.290901 
L 538.584747 240.305517 
z
" style="fill:#0000ff;opacity:0.5;stroke:#0000ff;stroke-linecap:round;"/>
   </g>
   <g id="patch_10">
    <path clip-path="url(#pcaa90576c0)" d="M 451.941788 258.414766 
Q 450.824519 248.946819 448.261653 239.931563 
L 441.047499 241.98241 
Q 444.066 229.502597 443.80342 215.347191 
Q 455.260937 223.652452 465.094681 235.146254 
L 457.880526 237.197101 
Q 460.661945 246.981149 461.872881 257.242842 
L 451.941788 258.414766 
z
" style="fill:#0000ff;opacity:0.5;stroke:#0000ff;stroke-linecap:round;"/>
   </g>
   <g id="patch_11">
    <path clip-path="url(#pcaa90576c0)" d="M 679.285692 520.228138 
C 692.117279 520.228138 704.425045 515.130095 713.498347 506.056793 
C 722.571649 496.983491 727.669692 484.675725 727.669692 471.844138 
C 727.669692 459.012551 722.571649 446.704786 713.498347 437.631484 
C 704.425045 428.558182 692.117279 423.460138 679.285692 423.460138 
C 666.454105 423.460138 654.14634 428.558182 645.073038 437.631484 
C 635.999736 446.704786 630.901692 459.012551 630.901692 471.844138 
C 630.901692 484.675725 635.999736 496.983491 645.073038 506.056793 
C 654.14634 515.130095 666.454105 520.228138 679.285692 520.228138 
z
" style="fill:#0000ff;opacity:0.3;stroke:#0000ff;stroke-linejoin:miter;"/>
   </g>
   <g id="patch_12">
    <path clip-path="url(#pcaa90576c0)" d="M 772.584271 483.389465 
Q 763.362623 480.970473 754.034239 480.062534 
L 753.307692 487.52726 
Q 742.793344 480.158028 729.520516 475.230907 
Q 741.437567 467.599658 755.729516 462.644841 
L 755.002968 470.109567 
Q 765.126848 471.094931 775.121594 473.71672 
L 772.584271 483.389465 
z
" style="fill:#0000ff;opacity:0.5;stroke:#0000ff;stroke-linecap:round;"/>
   </g>
   <g id="patch_13">
    <path clip-path="url(#pcaa90576c0)" d="M 704.404889 426.940204 
Q 711.110622 420.163519 716.561112 412.53887 
L 710.459744 408.177299 
Q 722.098859 402.756222 733.002285 393.725177 
Q 733.652616 407.86127 730.797638 422.715869 
L 724.69627 418.354298 
Q 718.780979 426.629153 711.513071 433.973962 
L 704.404889 426.940204 
z
" style="fill:#0000ff;opacity:0.5;stroke:#0000ff;stroke-linecap:round;"/>
   </g>
   <g id="patch_14">
    <path clip-path="url(#pcaa90576c0)" d="M 679.285692 786.139862 
C 692.117279 786.139862 704.425045 781.041818 713.498347 771.968516 
C 722.571649 762.895214 727.669692 750.587449 727.669692 737.755862 
C 727.669692 724.924275 722.571649 712.616509 713.498347 703.543207 
C 704.425045 694.469905 692.117279 689.371862 679.285692 689.371862 
C 666.454105 689.371862 654.14634 694.469905 645.073038 703.543207 
C 635.999736 712.616509 630.901692 724.924275 630.901692 737.755862 
C 630.901692 750.587449 635.999736 762.895214 645.073038 771.968516 
C 654.14634 781.041818 666.454105 786.139862 679.285692 786.139862 
z
" style="fill:#0000ff;opacity:0.3;stroke:#0000ff;stroke-linejoin:miter;"/>
   </g>
   <g id="patch_15">
    <path clip-path="url(#pcaa90576c0)" d="M 730.054565 729.397696 
Q 739.533747 730.415255 748.893262 729.922729 
L 748.499135 722.433092 
Q 759.994373 728.152933 773.853303 731.04681 
Q 763.206735 740.368969 749.812893 747.398549 
L 749.418765 739.908912 
Q 739.2611 740.443439 728.98723 739.340573 
L 730.054565 729.397696 
z
" style="fill:#0000ff;opacity:0.5;stroke:#0000ff;stroke-linecap:round;"/>
   </g>
   <g id="patch_16">
    <path clip-path="url(#pcaa90576c0)" d="M 471.387535 951.93311 
C 484.219122 951.93311 496.526887 946.835067 505.600189 937.761764 
C 514.673491 928.688462 519.771535 916.380697 519.771535 903.54911 
C 519.771535 890.717523 514.673491 878.409758 505.600189 869.336455 
C 496.526887 860.263153 484.219122 855.16511 471.387535 855.16511 
C 458.555948 855.16511 446.248182 860.263153 437.17488 869.336455 
C 428.101578 878.409758 423.003535 890.717523 423.003535 903.54911 
C 423.003535 916.380697 428.101578 928.688462 437.17488 937.761764 
C 446.248182 946.835067 458.555948 951.93311 471.387535 951.93311 
z
" style="fill:#0000ff;opacity:0.3;stroke:#0000ff;stroke-linejoin:miter;"/>
   </g>
   <g id="patch_17">
    <path clip-path="url(#pcaa90576c0)" d="M 509.576087 938.030582 
Q 514.6907 946.076142 520.911335 953.086621 
L 526.521235 948.108767 
Q 529.216447 960.662369 535.594824 973.30202 
Q 521.66844 970.790469 507.821569 964.701613 
L 513.431469 959.723759 
Q 506.680358 952.115449 501.13696 943.395388 
L 509.576087 938.030582 
z
" style="fill:#0000ff;opacity:0.5;stroke:#0000ff;stroke-linecap:round;"/>
   </g>
   <g id="patch_18">
    <path clip-path="url(#pcaa90576c0)" d="M 212.142773 892.762185 
C 224.97436 892.762185 237.282126 887.664141 246.355428 878.590839 
C 255.42873 869.517537 260.526773 857.209772 260.526773 844.378185 
C 260.526773 831.546598 255.42873 819.238832 246.355428 810.16553 
C 237.282126 801.092228 224.97436 795.994185 212.142773 795.994185 
C 199.311186 795.994185 187.003421 801.092228 177.930119 810.16553 
C 168.856817 819.238832 163.758773 831.546598 163.758773 844.378185 
C 163.758773 857.209772 168.856817 869.517537 177.930119 878.590839 
C 187.003421 887.664141 199.311186 892.762185 212.142773 892.762185 
z
" style="fill:#0000ff;opacity:0.3;stroke:#0000ff;stroke-linejoin:miter;"/>
   </g>
   <g id="patch_19">
    <path clip-path="url(#pcaa90576c0)" d="M 208.994245 895.734043 
Q 205.892882 904.749134 204.290372 913.983584 
L 211.67993 915.265939 
Q 203.545566 925.200183 197.640342 938.067693 
Q 190.920993 925.613681 187.04807 910.991422 
L 194.437628 912.273777 
Q 196.176796 902.251842 199.538162 892.48097 
L 208.994245 895.734043 
z
" style="fill:#0000ff;opacity:0.5;stroke:#0000ff;stroke-linecap:round;"/>
   </g>
   <g id="patch_20">
    <path clip-path="url(#pcaa90576c0)" d="M 145.547459 619.072123 
Q 364.933282 717.464697 604.22953 729.132624 
L 604.594791 721.641523 
Q 616.636486 728.486655 628.968461 735.107828 
Q 616.264183 740.98223 603.377254 746.611858 
L 603.742516 739.120758 
Q 362.562211 727.360965 141.455266 628.196484 
L 145.547459 619.072123 
z
" style="fill:#0000ff;opacity:0.5;stroke:#0000ff;stroke-linecap:round;"/>
   </g>
   <g id="patch_21">
    <path clip-path="url(#pcaa90576c0)" d="M 134.524281 638.825284 
Q 250.565016 776.596425 407.508157 863.299841 
L 411.134895 856.735028 
Q 418.892639 868.162244 427.119863 879.492072 
Q 413.120671 879.251994 399.045767 878.617738 
L 402.672506 872.052925 
Q 244.109051 784.454365 126.875796 645.267386 
L 134.524281 638.825284 
z
" style="fill:#0000ff;opacity:0.5;stroke:#0000ff;stroke-linecap:round;"/>
   </g>
   <g id="patch_22">
    <path clip-path="url(#pcaa90576c0)" d="M 249.899105 399.245168 
Q 404.867963 583.081754 615.40391 697.420945 
L 618.983265 690.830177 
Q 626.862466 702.222123 635.100372 713.538238 
Q 621.105406 713.318711 607.05208 712.799402 
L 610.631436 706.208635 
Q 398.437872 590.969215 242.253254 405.690396 
L 249.899105 399.245168 
z
" style="fill:#0000ff;opacity:0.5;stroke:#0000ff;stroke-linecap:round;"/>
   </g>
   <g id="patch_23">
    <path clip-path="url(#pcaa90576c0)" d="M 490.641751 353.088448 
Q 535.414183 527.564145 639.195864 673.776301 
L 645.311808 669.435191 
Q 647.343211 683.096716 649.839855 696.874196 
Q 637.331185 690.583872 624.925329 683.905556 
L 631.041273 679.564446 
Q 526.188127 531.842766 480.955581 355.574028 
L 490.641751 353.088448 
z
" style="fill:#0000ff;opacity:0.5;stroke:#0000ff;stroke-linecap:round;"/>
   </g>
   <g id="patch_24">
    <path clip-path="url(#pcaa90576c0)" d="M 468.327694 356.783193 
Q 421.219966 592.562962 463.093003 828.455912 
L 470.477564 827.145089 
Q 466.483584 840.408057 462.77254 853.904194 
Q 454.218454 842.825616 445.862361 831.5145 
L 453.246922 830.203676 
Q 411.044205 592.453465 458.521502 354.82396 
L 468.327694 356.783193 
z
" style="fill:#0000ff;opacity:0.5;stroke:#0000ff;stroke-linecap:round;"/>
   </g>
   <g id="patch_25">
    <path clip-path="url(#pcaa90576c0)" d="M 676.207863 522.59554 
Q 661.809645 592.666977 670.787633 662.957162 
L 678.227193 662.006926 
Q 673.554912 674.796058 669.694857 688.291334 
Q 661.255015 677.079024 653.42866 665.17438 
L 660.86822 664.224144 
Q 651.679459 592.283778 666.412513 520.582801 
L 676.207863 522.59554 
z
" style="fill:#0000ff;opacity:0.5;stroke:#0000ff;stroke-linecap:round;"/>
   </g>
   <g id="patch_26">
    <path clip-path="url(#pcaa90576c0)" d="M 637.687653 766.9925 
Q 573.926456 799.424346 524.56906 850.268833 
L 529.950474 855.492853 
Q 517.038408 859.81381 504.080672 865.210065 
Q 507.584653 851.620769 512.012427 838.079454 
L 517.393841 843.303474 
Q 567.909985 791.265327 633.153975 758.079264 
L 637.687653 766.9925 
z
" style="fill:#0000ff;opacity:0.5;stroke:#0000ff;stroke-linecap:round;"/>
   </g>
   <g id="patch_27">
    <path clip-path="url(#pcaa90576c0)" d="M 629.142998 746.060494 
Q 449.078967 750.885892 283.439059 819.530285 
L 286.310402 826.458877 
Q 272.539371 825.399373 258.551765 824.767643 
Q 267.467819 813.972321 276.739259 803.36357 
L 279.610602 810.292162 
Q 446.96061 740.93907 628.875112 736.064083 
L 629.142998 746.060494 
z
" style="fill:#0000ff;opacity:0.5;stroke:#0000ff;stroke-linecap:round;"/>
   </g>
   <g id="patch_28">
    <path clip-path="url(#pcaa90576c0)" d="M 512.985574 874.312472 
Q 576.746771 841.880626 626.104167 791.036139 
L 620.722753 785.812119 
Q 633.634819 781.491162 646.592555 776.094907 
Q 643.088574 789.684203 638.6608 803.225518 
L 633.279386 798.001498 
Q 582.763242 850.039645 517.519252 883.225708 
L 512.985574 874.312472 
z
" style="fill:#0000ff;opacity:0.5;stroke:#0000ff;stroke-linecap:round;"/>
   </g>
   <g id="patch_29">
    <path clip-path="url(#pcaa90576c0)" d="M 422.593458 889.255199 
Q 357.482763 859.625613 286.957109 852.737466 
L 286.228063 860.201948 
Q 274.799261 852.800962 262.501283 846.034705 
Q 275.310519 840.301441 288.658217 835.320342 
L 287.929171 842.784824 
Q 360.110533 849.834681 426.735404 880.153316 
L 422.593458 889.255199 
z
" style="fill:#0000ff;opacity:0.5;stroke:#0000ff;stroke-linecap:round;"/>
   </g>
   <g id="patch_30">
    <path clip-path="url(#pcaa90576c0)" d="M 262.285467 836.073553 
Q 442.349498 831.248155 607.989406 762.603762 
L 605.118063 755.67517 
Q 618.889094 756.734674 632.8767 757.366404 
Q 623.960646 768.161726 614.689207 778.770477 
L 611.817863 771.841885 
Q 444.467855 841.194977 262.553354 846.069964 
L 262.285467 836.073553 
z
" style="fill:#0000ff;opacity:0.5;stroke:#0000ff;stroke-linecap:round;"/>
   </g>
   <g id="text_1">
    <!-- $C_{1}$ -->
    <defs>
     <path d="M 69.484375 67.28125 
L 67.484375 56.890625 
Q 62.796875 61.625 57.546875 63.921875 
Q 52.296875 66.21875 46.1875 66.21875 
Q 37.84375 66.21875 31.515625 62.203125 
Q 25.203125 58.203125 20.609375 50 
Q 17.671875 44.734375 16.125 38.84375 
Q 14.59375 32.953125 14.59375 27 
Q 14.59375 17.046875 19.75 11.8125 
Q 24.90625 6.59375 34.71875 6.59375 
Q 41.5 6.59375 47.75 8.765625 
Q 54 10.9375 59.90625 15.28125 
L 57.625 3.609375 
Q 51.8125 1.125 45.875 -0.140625 
Q 39.9375 -1.421875 33.984375 -1.421875 
Q 19.96875 -1.421875 12.078125 6.1875 
Q 4.203125 13.8125 4.203125 27.390625 
Q 4.203125 36.078125 7.203125 44.46875 
Q 10.203125 52.875 15.828125 59.8125 
Q 21.78125 67.1875 29.421875 70.703125 
Q 37.0625 74.21875 47.21875 74.21875 
Q 53.46875 74.21875 59.0625 72.484375 
Q 64.65625 70.75 69.484375 67.28125 
z
" id="DejaVuSans-Oblique-43"/>
     <path d="M 12.40625 8.296875 
L 28.515625 8.296875 
L 28.515625 63.921875 
L 10.984375 60.40625 
L 10.984375 69.390625 
L 28.421875 72.90625 
L 38.28125 72.90625 
L 38.28125 8.296875 
L 54.390625 8.296875 
L 54.390625 0 
L 12.40625 0 
z
" id="DejaVuSans-31"/>
    </defs>
    <g transform="translate(82.608 611.4225)scale(0.24 -0.24)">
     <use transform="translate(0 0.78125)" xlink:href="#DejaVuSans-Oblique-43"/>
     <use transform="translate(69.824219 -15.625)scale(0.7)" xlink:href="#DejaVuSans-31"/>
    </g>
   </g>
   <g id="text_2">
    <!-- $C_{2}$ -->
    <defs>
     <path d="M 19.1875 8.296875 
L 53.609375 8.296875 
L 53.609375 0 
L 7.328125 0 
L 7.328125 8.296875 
Q 12.9375 14.109375 22.625 23.890625 
Q 32.328125 33.6875 34.8125 36.53125 
Q 39.546875 41.84375 41.421875 45.53125 
Q 43.3125 49.21875 43.3125 52.78125 
Q 43.3125 58.59375 39.234375 62.25 
Q 35.15625 65.921875 28.609375 65.921875 
Q 23.96875 65.921875 18.8125 64.3125 
Q 13.671875 62.703125 7.8125 59.421875 
L 7.8125 69.390625 
Q 13.765625 71.78125 18.9375 73 
Q 24.125 74.21875 28.421875 74.21875 
Q 39.75 74.21875 46.484375 68.546875 
Q 53.21875 62.890625 53.21875 53.421875 
Q 53.21875 48.921875 51.53125 44.890625 
Q 49.859375 40.875 45.40625 35.40625 
Q 44.1875 33.984375 37.640625 27.21875 
Q 31.109375 20.453125 19.1875 8.296875 
z
" id="DejaVuSans-32"/>
    </defs>
    <g transform="translate(197.982773 371.844315)scale(0.24 -0.24)">
     <use transform="translate(0 0.78125)" xlink:href="#DejaVuSans-Oblique-43"/>
     <use transform="translate(69.824219 -15.625)scale(0.7)" xlink:href="#DejaVuSans-32"/>
    </g>
   </g>
   <g id="text_3">
    <!-- $C_{3}$ -->
    <defs>
     <path d="M 40.578125 39.3125 
Q 47.65625 37.796875 51.625 33 
Q 55.609375 28.21875 55.609375 21.1875 
Q 55.609375 10.40625 48.1875 4.484375 
Q 40.765625 -1.421875 27.09375 -1.421875 
Q 22.515625 -1.421875 17.65625 -0.515625 
Q 12.796875 0.390625 7.625 2.203125 
L 7.625 11.71875 
Q 11.71875 9.328125 16.59375 8.109375 
Q 21.484375 6.890625 26.8125 6.890625 
Q 36.078125 6.890625 40.9375 10.546875 
Q 45.796875 14.203125 45.796875 21.1875 
Q 45.796875 27.640625 41.28125 31.265625 
Q 36.765625 34.90625 28.71875 34.90625 
L 20.21875 34.90625 
L 20.21875 43.015625 
L 29.109375 43.015625 
Q 36.375 43.015625 40.234375 45.921875 
Q 44.09375 48.828125 44.09375 54.296875 
Q 44.09375 59.90625 40.109375 62.90625 
Q 36.140625 65.921875 28.71875 65.921875 
Q 24.65625 65.921875 20.015625 65.03125 
Q 15.375 64.15625 9.8125 62.3125 
L 9.8125 71.09375 
Q 15.4375 72.65625 20.34375 73.4375 
Q 25.25 74.21875 29.59375 74.21875 
Q 40.828125 74.21875 47.359375 69.109375 
Q 53.90625 64.015625 53.90625 55.328125 
Q 53.90625 49.265625 50.4375 45.09375 
Q 46.96875 40.921875 40.578125 39.3125 
z
" id="DejaVuSans-33"/>
    </defs>
    <g transform="translate(457.227535 312.67339)scale(0.24 -0.24)">
     <use transform="translate(0 0.78125)" xlink:href="#DejaVuSans-Oblique-43"/>
     <use transform="translate(69.824219 -15.625)scale(0.7)" xlink:href="#DejaVuSans-33"/>
    </g>
   </g>
   <g id="text_4">
    <!-- $C_{4}$ -->
    <defs>
     <path d="M 37.796875 64.3125 
L 12.890625 25.390625 
L 37.796875 25.390625 
z
M 35.203125 72.90625 
L 47.609375 72.90625 
L 47.609375 25.390625 
L 58.015625 25.390625 
L 58.015625 17.1875 
L 47.609375 17.1875 
L 47.609375 0 
L 37.796875 0 
L 37.796875 17.1875 
L 4.890625 17.1875 
L 4.890625 26.703125 
z
" id="DejaVuSans-34"/>
    </defs>
    <g transform="translate(665.125692 478.466638)scale(0.24 -0.24)">
     <use transform="translate(0 0.78125)" xlink:href="#DejaVuSans-Oblique-43"/>
     <use transform="translate(69.824219 -15.625)scale(0.7)" xlink:href="#DejaVuSans-34"/>
    </g>
   </g>
   <g id="text_5">
    <!-- $C_{5}$ -->
    <defs>
     <path d="M 10.796875 72.90625 
L 49.515625 72.90625 
L 49.515625 64.59375 
L 19.828125 64.59375 
L 19.828125 46.734375 
Q 21.96875 47.46875 24.109375 47.828125 
Q 26.265625 48.1875 28.421875 48.1875 
Q 40.625 48.1875 47.75 41.5 
Q 54.890625 34.8125 54.890625 23.390625 
Q 54.890625 11.625 47.5625 5.09375 
Q 40.234375 -1.421875 26.90625 -1.421875 
Q 22.3125 -1.421875 17.546875 -0.640625 
Q 12.796875 0.140625 7.71875 1.703125 
L 7.71875 11.625 
Q 12.109375 9.234375 16.796875 8.0625 
Q 21.484375 6.890625 26.703125 6.890625 
Q 35.15625 6.890625 40.078125 11.328125 
Q 45.015625 15.765625 45.015625 23.390625 
Q 45.015625 31 40.078125 35.4375 
Q 35.15625 39.890625 26.703125 39.890625 
Q 22.75 39.890625 18.8125 39.015625 
Q 14.890625 38.140625 10.796875 36.28125 
z
" id="DejaVuSans-35"/>
    </defs>
    <g transform="translate(665.125692 744.378362)scale(0.24 -0.24)">
     <use transform="translate(0 0.78125)" xlink:href="#DejaVuSans-Oblique-43"/>
     <use transform="translate(69.824219 -15.625)scale(0.7)" xlink:href="#DejaVuSans-35"/>
    </g>
   </g>
   <g id="text_6">
    <!-- $C_{6}$ -->
    <defs>
     <path d="M 33.015625 40.375 
Q 26.375 40.375 22.484375 35.828125 
Q 18.609375 31.296875 18.609375 23.390625 
Q 18.609375 15.53125 22.484375 10.953125 
Q 26.375 6.390625 33.015625 6.390625 
Q 39.65625 6.390625 43.53125 10.953125 
Q 47.40625 15.53125 47.40625 23.390625 
Q 47.40625 31.296875 43.53125 35.828125 
Q 39.65625 40.375 33.015625 40.375 
z
M 52.59375 71.296875 
L 52.59375 62.3125 
Q 48.875 64.0625 45.09375 64.984375 
Q 41.3125 65.921875 37.59375 65.921875 
Q 27.828125 65.921875 22.671875 59.328125 
Q 17.53125 52.734375 16.796875 39.40625 
Q 19.671875 43.65625 24.015625 45.921875 
Q 28.375 48.1875 33.59375 48.1875 
Q 44.578125 48.1875 50.953125 41.515625 
Q 57.328125 34.859375 57.328125 23.390625 
Q 57.328125 12.15625 50.6875 5.359375 
Q 44.046875 -1.421875 33.015625 -1.421875 
Q 20.359375 -1.421875 13.671875 8.265625 
Q 6.984375 17.96875 6.984375 36.375 
Q 6.984375 53.65625 15.1875 63.9375 
Q 23.390625 74.21875 37.203125 74.21875 
Q 40.921875 74.21875 44.703125 73.484375 
Q 48.484375 72.75 52.59375 71.296875 
z
" id="DejaVuSans-36"/>
    </defs>
    <g transform="translate(457.227535 910.17161)scale(0.24 -0.24)">
     <use transform="translate(0 0.78125)" xlink:href="#DejaVuSans-Oblique-43"/>
     <use transform="translate(69.824219 -15.625)scale(0.7)" xlink:href="#DejaVuSans-36"/>
    </g>
   </g>
   <g id="text_7">
    <!-- $C_{7}$ -->
    <defs>
     <path d="M 8.203125 72.90625 
L 55.078125 72.90625 
L 55.078125 68.703125 
L 28.609375 0 
L 18.3125 0 
L 43.21875 64.59375 
L 8.203125 64.59375 
z
" id="DejaVuSans-37"/>
    </defs>
    <g transform="translate(197.982773 851.000685)scale(0.24 -0.24)">
     <use transform="translate(0 0.78125)" xlink:href="#DejaVuSans-Oblique-43"/>
     <use transform="translate(69.824219 -15.625)scale(0.7)" xlink:href="#DejaVuSans-37"/>
    </g>
   </g>
   <g id="legend_1">
    <g id="patch_31">
     <path d="M 237.526563 143.638125 
L 568.873438 143.638125 
Q 570.873438 143.638125 570.873438 141.638125 
L 570.873438 127.96 
Q 570.873438 125.96 568.873438 125.96 
L 237.526563 125.96 
Q 235.526563 125.96 235.526563 127.96 
L 235.526563 141.638125 
Q 235.526563 143.638125 237.526563 143.638125 
z
" style="fill:#ffffff;opacity:0.8;stroke:#cccccc;stroke-linejoin:miter;"/>
    </g>
    <g id="patch_32">
     <path d="M 239.526563 137.558437 
L 259.526563 137.558437 
L 259.526563 130.558437 
L 239.526563 130.558437 
z
" style="fill:#0000ff;opacity:0.5;stroke:#0000ff;stroke-linejoin:miter;"/>
    </g>
    <g id="text_8">
     <!-- linear -->
     <defs>
      <path d="M 9.421875 75.984375 
L 18.40625 75.984375 
L 18.40625 0 
L 9.421875 0 
z
" id="DejaVuSans-6c"/>
      <path d="M 9.421875 54.6875 
L 18.40625 54.6875 
L 18.40625 0 
L 9.421875 0 
z
M 9.421875 75.984375 
L 18.40625 75.984375 
L 18.40625 64.59375 
L 9.421875 64.59375 
z
" id="DejaVuSans-69"/>
      <path d="M 54.890625 33.015625 
L 54.890625 0 
L 45.90625 0 
L 45.90625 32.71875 
Q 45.90625 40.484375 42.875 44.328125 
Q 39.84375 48.1875 33.796875 48.1875 
Q 26.515625 48.1875 22.3125 43.546875 
Q 18.109375 38.921875 18.109375 30.90625 
L 18.109375 0 
L 9.078125 0 
L 9.078125 54.6875 
L 18.109375 54.6875 
L 18.109375 46.1875 
Q 21.34375 51.125 25.703125 53.5625 
Q 30.078125 56 35.796875 56 
Q 45.21875 56 50.046875 50.171875 
Q 54.890625 44.34375 54.890625 33.015625 
z
" id="DejaVuSans-6e"/>
      <path d="M 56.203125 29.59375 
L 56.203125 25.203125 
L 14.890625 25.203125 
Q 15.484375 15.921875 20.484375 11.0625 
Q 25.484375 6.203125 34.421875 6.203125 
Q 39.59375 6.203125 44.453125 7.46875 
Q 49.3125 8.734375 54.109375 11.28125 
L 54.109375 2.78125 
Q 49.265625 0.734375 44.1875 -0.34375 
Q 39.109375 -1.421875 33.890625 -1.421875 
Q 20.796875 -1.421875 13.15625 6.1875 
Q 5.515625 13.8125 5.515625 26.8125 
Q 5.515625 40.234375 12.765625 48.109375 
Q 20.015625 56 32.328125 56 
Q 43.359375 56 49.78125 48.890625 
Q 56.203125 41.796875 56.203125 29.59375 
z
M 47.21875 32.234375 
Q 47.125 39.59375 43.09375 43.984375 
Q 39.0625 48.390625 32.421875 48.390625 
Q 24.90625 48.390625 20.390625 44.140625 
Q 15.875 39.890625 15.1875 32.171875 
z
" id="DejaVuSans-65"/>
      <path d="M 34.28125 27.484375 
Q 23.390625 27.484375 19.1875 25 
Q 14.984375 22.515625 14.984375 16.5 
Q 14.984375 11.71875 18.140625 8.90625 
Q 21.296875 6.109375 26.703125 6.109375 
Q 34.1875 6.109375 38.703125 11.40625 
Q 43.21875 16.703125 43.21875 25.484375 
L 43.21875 27.484375 
z
M 52.203125 31.203125 
L 52.203125 0 
L 43.21875 0 
L 43.21875 8.296875 
Q 40.140625 3.328125 35.546875 0.953125 
Q 30.953125 -1.421875 24.3125 -1.421875 
Q 15.921875 -1.421875 10.953125 3.296875 
Q 6 8.015625 6 15.921875 
Q 6 25.140625 12.171875 29.828125 
Q 18.359375 34.515625 30.609375 34.515625 
L 43.21875 34.515625 
L 43.21875 35.40625 
Q 43.21875 41.609375 39.140625 45 
Q 35.0625 48.390625 27.6875 48.390625 
Q 23 48.390625 18.546875 47.265625 
Q 14.109375 46.140625 10.015625 43.890625 
L 10.015625 52.203125 
Q 14.9375 54.109375 19.578125 55.046875 
Q 24.21875 56 28.609375 56 
Q 40.484375 56 46.34375 49.84375 
Q 52.203125 43.703125 52.203125 31.203125 
z
" id="DejaVuSans-61"/>
      <path d="M 41.109375 46.296875 
Q 39.59375 47.171875 37.8125 47.578125 
Q 36.03125 48 33.890625 48 
Q 26.265625 48 22.1875 43.046875 
Q 18.109375 38.09375 18.109375 28.8125 
L 18.109375 0 
L 9.078125 0 
L 9.078125 54.6875 
L 18.109375 54.6875 
L 18.109375 46.1875 
Q 20.953125 51.171875 25.484375 53.578125 
Q 30.03125 56 36.53125 56 
Q 37.453125 56 38.578125 55.875 
Q 39.703125 55.765625 41.0625 55.515625 
z
" id="DejaVuSans-72"/>
     </defs>
     <g transform="translate(267.526563 137.558437)scale(0.1 -0.1)">
      <use xlink:href="#DejaVuSans-6c"/>
      <use x="27.783203" xlink:href="#DejaVuSans-69"/>
      <use x="55.566406" xlink:href="#DejaVuSans-6e"/>
      <use x="118.945312" xlink:href="#DejaVuSans-65"/>
      <use x="180.46875" xlink:href="#DejaVuSans-61"/>
      <use x="241.748047" xlink:href="#DejaVuSans-72"/>
     </g>
    </g>
    <g id="patch_33">
     <path d="M 315.8125 137.558437 
L 335.8125 137.558437 
L 335.8125 130.558437 
L 315.8125 130.558437 
z
" style="fill:#008000;opacity:0.5;stroke:#008000;stroke-linejoin:miter;"/>
    </g>
    <g id="text_9">
     <!-- nonlinear -->
     <defs>
      <path d="M 30.609375 48.390625 
Q 23.390625 48.390625 19.1875 42.75 
Q 14.984375 37.109375 14.984375 27.296875 
Q 14.984375 17.484375 19.15625 11.84375 
Q 23.34375 6.203125 30.609375 6.203125 
Q 37.796875 6.203125 41.984375 11.859375 
Q 46.1875 17.53125 46.1875 27.296875 
Q 46.1875 37.015625 41.984375 42.703125 
Q 37.796875 48.390625 30.609375 48.390625 
z
M 30.609375 56 
Q 42.328125 56 49.015625 48.375 
Q 55.71875 40.765625 55.71875 27.296875 
Q 55.71875 13.875 49.015625 6.21875 
Q 42.328125 -1.421875 30.609375 -1.421875 
Q 18.84375 -1.421875 12.171875 6.21875 
Q 5.515625 13.875 5.515625 27.296875 
Q 5.515625 40.765625 12.171875 48.375 
Q 18.84375 56 30.609375 56 
z
" id="DejaVuSans-6f"/>
     </defs>
     <g transform="translate(343.8125 137.558437)scale(0.1 -0.1)">
      <use xlink:href="#DejaVuSans-6e"/>
      <use x="63.378906" xlink:href="#DejaVuSans-6f"/>
      <use x="124.560547" xlink:href="#DejaVuSans-6e"/>
      <use x="187.939453" xlink:href="#DejaVuSans-6c"/>
      <use x="215.722656" xlink:href="#DejaVuSans-69"/>
      <use x="243.505859" xlink:href="#DejaVuSans-6e"/>
      <use x="306.884766" xlink:href="#DejaVuSans-65"/>
      <use x="368.408203" xlink:href="#DejaVuSans-61"/>
      <use x="429.6875" xlink:href="#DejaVuSans-72"/>
     </g>
    </g>
    <g id="patch_34">
     <path d="M 410.892188 137.558437 
L 430.892188 137.558437 
L 430.892188 130.558437 
L 410.892188 130.558437 
z
" style="fill:#ff0000;opacity:0.5;stroke:#ff0000;stroke-linejoin:miter;"/>
    </g>
    <g id="text_10">
     <!-- no substrate dependence -->
     <defs>
      <path id="DejaVuSans-20"/>
      <path d="M 44.28125 53.078125 
L 44.28125 44.578125 
Q 40.484375 46.53125 36.375 47.5 
Q 32.28125 48.484375 27.875 48.484375 
Q 21.1875 48.484375 17.84375 46.4375 
Q 14.5 44.390625 14.5 40.28125 
Q 14.5 37.15625 16.890625 35.375 
Q 19.28125 33.59375 26.515625 31.984375 
L 29.59375 31.296875 
Q 39.15625 29.25 43.1875 25.515625 
Q 47.21875 21.78125 47.21875 15.09375 
Q 47.21875 7.46875 41.1875 3.015625 
Q 35.15625 -1.421875 24.609375 -1.421875 
Q 20.21875 -1.421875 15.453125 -0.5625 
Q 10.6875 0.296875 5.421875 2 
L 5.421875 11.28125 
Q 10.40625 8.6875 15.234375 7.390625 
Q 20.0625 6.109375 24.8125 6.109375 
Q 31.15625 6.109375 34.5625 8.28125 
Q 37.984375 10.453125 37.984375 14.40625 
Q 37.984375 18.0625 35.515625 20.015625 
Q 33.0625 21.96875 24.703125 23.78125 
L 21.578125 24.515625 
Q 13.234375 26.265625 9.515625 29.90625 
Q 5.8125 33.546875 5.8125 39.890625 
Q 5.8125 47.609375 11.28125 51.796875 
Q 16.75 56 26.8125 56 
Q 31.78125 56 36.171875 55.265625 
Q 40.578125 54.546875 44.28125 53.078125 
z
" id="DejaVuSans-73"/>
      <path d="M 8.5 21.578125 
L 8.5 54.6875 
L 17.484375 54.6875 
L 17.484375 21.921875 
Q 17.484375 14.15625 20.5 10.265625 
Q 23.53125 6.390625 29.59375 6.390625 
Q 36.859375 6.390625 41.078125 11.03125 
Q 45.3125 15.671875 45.3125 23.6875 
L 45.3125 54.6875 
L 54.296875 54.6875 
L 54.296875 0 
L 45.3125 0 
L 45.3125 8.40625 
Q 42.046875 3.421875 37.71875 1 
Q 33.40625 -1.421875 27.6875 -1.421875 
Q 18.265625 -1.421875 13.375 4.4375 
Q 8.5 10.296875 8.5 21.578125 
z
M 31.109375 56 
z
" id="DejaVuSans-75"/>
      <path d="M 48.6875 27.296875 
Q 48.6875 37.203125 44.609375 42.84375 
Q 40.53125 48.484375 33.40625 48.484375 
Q 26.265625 48.484375 22.1875 42.84375 
Q 18.109375 37.203125 18.109375 27.296875 
Q 18.109375 17.390625 22.1875 11.75 
Q 26.265625 6.109375 33.40625 6.109375 
Q 40.53125 6.109375 44.609375 11.75 
Q 48.6875 17.390625 48.6875 27.296875 
z
M 18.109375 46.390625 
Q 20.953125 51.265625 25.265625 53.625 
Q 29.59375 56 35.59375 56 
Q 45.5625 56 51.78125 48.09375 
Q 58.015625 40.1875 58.015625 27.296875 
Q 58.015625 14.40625 51.78125 6.484375 
Q 45.5625 -1.421875 35.59375 -1.421875 
Q 29.59375 -1.421875 25.265625 0.953125 
Q 20.953125 3.328125 18.109375 8.203125 
L 18.109375 0 
L 9.078125 0 
L 9.078125 75.984375 
L 18.109375 75.984375 
z
" id="DejaVuSans-62"/>
      <path d="M 18.3125 70.21875 
L 18.3125 54.6875 
L 36.8125 54.6875 
L 36.8125 47.703125 
L 18.3125 47.703125 
L 18.3125 18.015625 
Q 18.3125 11.328125 20.140625 9.421875 
Q 21.96875 7.515625 27.59375 7.515625 
L 36.8125 7.515625 
L 36.8125 0 
L 27.59375 0 
Q 17.1875 0 13.234375 3.875 
Q 9.28125 7.765625 9.28125 18.015625 
L 9.28125 47.703125 
L 2.6875 47.703125 
L 2.6875 54.6875 
L 9.28125 54.6875 
L 9.28125 70.21875 
z
" id="DejaVuSans-74"/>
      <path d="M 45.40625 46.390625 
L 45.40625 75.984375 
L 54.390625 75.984375 
L 54.390625 0 
L 45.40625 0 
L 45.40625 8.203125 
Q 42.578125 3.328125 38.25 0.953125 
Q 33.9375 -1.421875 27.875 -1.421875 
Q 17.96875 -1.421875 11.734375 6.484375 
Q 5.515625 14.40625 5.515625 27.296875 
Q 5.515625 40.1875 11.734375 48.09375 
Q 17.96875 56 27.875 56 
Q 33.9375 56 38.25 53.625 
Q 42.578125 51.265625 45.40625 46.390625 
z
M 14.796875 27.296875 
Q 14.796875 17.390625 18.875 11.75 
Q 22.953125 6.109375 30.078125 6.109375 
Q 37.203125 6.109375 41.296875 11.75 
Q 45.40625 17.390625 45.40625 27.296875 
Q 45.40625 37.203125 41.296875 42.84375 
Q 37.203125 48.484375 30.078125 48.484375 
Q 22.953125 48.484375 18.875 42.84375 
Q 14.796875 37.203125 14.796875 27.296875 
z
" id="DejaVuSans-64"/>
      <path d="M 18.109375 8.203125 
L 18.109375 -20.796875 
L 9.078125 -20.796875 
L 9.078125 54.6875 
L 18.109375 54.6875 
L 18.109375 46.390625 
Q 20.953125 51.265625 25.265625 53.625 
Q 29.59375 56 35.59375 56 
Q 45.5625 56 51.78125 48.09375 
Q 58.015625 40.1875 58.015625 27.296875 
Q 58.015625 14.40625 51.78125 6.484375 
Q 45.5625 -1.421875 35.59375 -1.421875 
Q 29.59375 -1.421875 25.265625 0.953125 
Q 20.953125 3.328125 18.109375 8.203125 
z
M 48.6875 27.296875 
Q 48.6875 37.203125 44.609375 42.84375 
Q 40.53125 48.484375 33.40625 48.484375 
Q 26.265625 48.484375 22.1875 42.84375 
Q 18.109375 37.203125 18.109375 27.296875 
Q 18.109375 17.390625 22.1875 11.75 
Q 26.265625 6.109375 33.40625 6.109375 
Q 40.53125 6.109375 44.609375 11.75 
Q 48.6875 17.390625 48.6875 27.296875 
z
" id="DejaVuSans-70"/>
      <path d="M 48.78125 52.59375 
L 48.78125 44.1875 
Q 44.96875 46.296875 41.140625 47.34375 
Q 37.3125 48.390625 33.40625 48.390625 
Q 24.65625 48.390625 19.8125 42.84375 
Q 14.984375 37.3125 14.984375 27.296875 
Q 14.984375 17.28125 19.8125 11.734375 
Q 24.65625 6.203125 33.40625 6.203125 
Q 37.3125 6.203125 41.140625 7.25 
Q 44.96875 8.296875 48.78125 10.40625 
L 48.78125 2.09375 
Q 45.015625 0.34375 40.984375 -0.53125 
Q 36.96875 -1.421875 32.421875 -1.421875 
Q 20.0625 -1.421875 12.78125 6.34375 
Q 5.515625 14.109375 5.515625 27.296875 
Q 5.515625 40.671875 12.859375 48.328125 
Q 20.21875 56 33.015625 56 
Q 37.15625 56 41.109375 55.140625 
Q 45.0625 54.296875 48.78125 52.59375 
z
" id="DejaVuSans-63"/>
     </defs>
     <g transform="translate(438.892188 137.558437)scale(0.1 -0.1)">
      <use xlink:href="#DejaVuSans-6e"/>
      <use x="63.378906" xlink:href="#DejaVuSans-6f"/>
      <use x="124.560547" xlink:href="#DejaVuSans-20"/>
      <use x="156.347656" xlink:href="#DejaVuSans-73"/>
      <use x="208.447266" xlink:href="#DejaVuSans-75"/>
      <use x="271.826172" xlink:href="#DejaVuSans-62"/>
      <use x="335.302734" xlink:href="#DejaVuSans-73"/>
      <use x="387.402344" xlink:href="#DejaVuSans-74"/>
      <use x="426.611328" xlink:href="#DejaVuSans-72"/>
      <use x="467.724609" xlink:href="#DejaVuSans-61"/>
      <use x="529.003906" xlink:href="#DejaVuSans-74"/>
      <use x="568.212891" xlink:href="#DejaVuSans-65"/>
      <use x="629.736328" xlink:href="#DejaVuSans-20"/>
      <use x="661.523438" xlink:href="#DejaVuSans-64"/>
      <use x="725" xlink:href="#DejaVuSans-65"/>
      <use x="786.523438" xlink:href="#DejaVuSans-70"/>
      <use x="850" xlink:href="#DejaVuSans-65"/>
      <use x="911.523438" xlink:href="#DejaVuSans-6e"/>
      <use x="974.902344" xlink:href="#DejaVuSans-64"/>
      <use x="1038.378906" xlink:href="#DejaVuSans-65"/>
      <use x="1099.902344" xlink:href="#DejaVuSans-6e"/>
      <use x="1163.28125" xlink:href="#DejaVuSans-63"/>
      <use x="1218.261719" xlink:href="#DejaVuSans-65"/>
     </g>
    </g>
   </g>
  </g>
 </g>
 <defs>
  <clipPath id="pcaa90576c0">
   <rect height="806.4" width="806.4" x="0" y="201.6"/>
  </clipPath>
 </defs>
</svg>
