<?xml version="1.0" encoding="utf-8" standalone="no"?>
<!DOCTYPE svg PUBLIC "-//W3C//DTD SVG 1.1//EN"
  "http://www.w3.org/Graphics/SVG/1.1/DTD/svg11.dtd">
<!-- Created with matplotlib (http://matplotlib.org/) -->
<svg height="216pt" version="1.1" viewBox="0 0 216 216" width="216pt" xmlns="http://www.w3.org/2000/svg" xmlns:xlink="http://www.w3.org/1999/xlink">
 <defs>
  <style type="text/css">
*{stroke-linecap:butt;stroke-linejoin:round;}
  </style>
 </defs>
 <g id="figure_1">
  <g id="patch_1">
   <path d="M 0 216 
L 216 216 
L 216 0 
L 0 0 
z
" style="fill:none;"/>
  </g>
  <g id="axes_1">
   <g id="patch_2">
    <path clip-path="url(#pdcbbeac610)" d="M 47.088 119.0592 
C 49.7517 119.0592 52.30666 118.007729 54.190181 116.13636 
C 56.073701 114.264991 57.132 111.726515 57.132 109.08 
C 57.132 106.433485 56.073701 103.895009 54.190181 102.02364 
C 52.30666 100.152271 49.7517 99.1008 47.088 99.1008 
C 44.4243 99.1008 41.86934 100.152271 39.985819 102.02364 
C 38.102299 103.895009 37.044 106.433485 37.044 109.08 
C 37.044 111.726515 38.102299 114.264991 39.985819 116.13636 
C 41.86934 118.007729 44.4243 119.0592 47.088 119.0592 
z
" style="fill:#0000ff;opacity:0.3;stroke:#0000ff;stroke-linejoin:miter;"/>
   </g>
   <g id="patch_3">
    <path clip-path="url(#pdcbbeac610)" d="M 31.069895 97.005326 
Q 33.792765 100.193445 36.515636 103.381563 
Q 32.331418 103.646988 28.147201 103.912414 
z
" style="fill:#0000ff;opacity:0.5;stroke:#0000ff;stroke-linecap:round;"/>
   </g>
   <g id="patch_4">
    <path clip-path="url(#pdcbbeac610)" d="M 39.502506 116.317514 
Q 35.375868 117.058448 31.249229 117.799381 
Q 33.132465 114.053511 35.015702 110.30764 
z
" style="fill:#0000ff;opacity:0.5;stroke:#0000ff;stroke-linecap:round;"/>
   </g>
   <g id="patch_5">
    <path clip-path="url(#pdcbbeac610)" d="M 71.038567 69.646199 
C 73.702267 69.646199 76.257227 68.594728 78.140747 66.723359 
C 80.024268 64.851991 81.082567 62.313514 81.082567 59.666999 
C 81.082567 57.020485 80.024268 54.482008 78.140747 52.610639 
C 76.257227 50.739271 73.702267 49.687799 71.038567 49.687799 
C 68.374867 49.687799 65.819907 50.739271 63.936386 52.610639 
C 62.052866 54.482008 60.994567 57.020485 60.994567 59.666999 
C 60.994567 62.313514 62.052866 64.851991 63.936386 66.723359 
C 65.819907 68.594728 68.374867 69.646199 71.038567 69.646199 
z
" style="fill:#0000ff;opacity:0.3;stroke:#0000ff;stroke-linejoin:miter;"/>
   </g>
   <g id="patch_6">
    <path clip-path="url(#pdcbbeac610)" d="M 70.538978 39.664852 
Q 69.735628 43.779795 68.932278 47.894738 
Q 66.122334 44.783092 63.31239 41.671447 
z
" style="fill:#0000ff;opacity:0.5;stroke:#0000ff;stroke-linecap:round;"/>
   </g>
   <g id="patch_7">
    <path clip-path="url(#pdcbbeac610)" d="M 60.625068 58.291747 
Q 57.45825 55.544132 54.291432 52.796517 
Q 58.389615 51.911632 62.487798 51.026747 
z
" style="fill:#0000ff;opacity:0.5;stroke:#0000ff;stroke-linecap:round;"/>
   </g>
   <g id="patch_8">
    <path clip-path="url(#pdcbbeac610)" d="M 124.855002 57.442196 
C 127.518702 57.442196 130.073662 56.390725 131.957182 54.519356 
C 133.840702 52.647988 134.899002 50.109511 134.899002 47.462996 
C 134.899002 44.816481 133.840702 42.278005 131.957182 40.406636 
C 130.073662 38.535268 127.518702 37.483796 124.855002 37.483796 
C 122.191302 37.483796 119.636341 38.535268 117.752821 40.406636 
C 115.869301 42.278005 114.811002 44.816481 114.811002 47.462996 
C 114.811002 50.109511 115.869301 52.647988 117.752821 54.519356 
C 119.636341 56.390725 122.191302 57.442196 124.855002 57.442196 
z
" style="fill:#0000ff;opacity:0.3;stroke:#0000ff;stroke-linejoin:miter;"/>
   </g>
   <g id="patch_9">
    <path clip-path="url(#pdcbbeac610)" d="M 140.252373 34.643952 
Q 136.526819 36.567067 132.801265 38.490182 
Q 133.498105 34.355869 134.194946 30.221557 
z
" style="fill:#0000ff;opacity:0.5;stroke:#0000ff;stroke-linecap:round;"/>
   </g>
   <g id="patch_10">
    <path clip-path="url(#pdcbbeac610)" d="M 119.467395 38.561453 
Q 119.644823 34.372581 119.822251 30.18371 
Q 123.066892 32.838975 126.311532 35.494241 
z
" style="fill:#0000ff;opacity:0.5;stroke:#0000ff;stroke-linecap:round;"/>
   </g>
   <g id="patch_11">
    <path clip-path="url(#pdcbbeac610)" d="M 168.012432 91.637053 
C 170.676132 91.637053 173.231092 90.585582 175.114612 88.714213 
C 176.998132 86.842845 178.056432 84.304368 178.056432 81.657853 
C 178.056432 79.011339 176.998132 76.472862 175.114612 74.601493 
C 173.231092 72.730125 170.676132 71.678653 168.012432 71.678653 
C 165.348732 71.678653 162.793771 72.730125 160.910251 74.601493 
C 159.026731 76.472862 157.968432 79.011339 157.968432 81.657853 
C 157.968432 84.304368 159.026731 86.842845 160.910251 88.714213 
C 162.793771 90.585582 165.348732 91.637053 168.012432 91.637053 
z
" style="fill:#0000ff;opacity:0.3;stroke:#0000ff;stroke-linejoin:miter;"/>
   </g>
   <g id="patch_12">
    <path clip-path="url(#pdcbbeac610)" d="M 187.686119 85.63124 
Q 183.853028 83.932552 180.019937 82.233865 
Q 183.678741 80.186605 187.337545 78.139344 
z
" style="fill:#0000ff;opacity:0.5;stroke:#0000ff;stroke-linecap:round;"/>
   </g>
   <g id="patch_13">
    <path clip-path="url(#pdcbbeac610)" d="M 171.675715 71.891222 
Q 175.07327 69.434652 178.470826 66.978081 
Q 178.397549 71.170068 178.324273 75.362055 
z
" style="fill:#0000ff;opacity:0.5;stroke:#0000ff;stroke-linecap:round;"/>
   </g>
   <g id="patch_14">
    <path clip-path="url(#pdcbbeac610)" d="M 168.012432 146.481347 
C 170.676132 146.481347 173.231092 145.429875 175.114612 143.558507 
C 176.998132 141.687138 178.056432 139.148661 178.056432 136.502147 
C 178.056432 133.855632 176.998132 131.317155 175.114612 129.445787 
C 173.231092 127.574418 170.676132 126.522947 168.012432 126.522947 
C 165.348732 126.522947 162.793771 127.574418 160.910251 129.445787 
C 159.026731 131.317155 157.968432 133.855632 157.968432 136.502147 
C 157.968432 139.148661 159.026731 141.687138 160.910251 143.558507 
C 162.793771 145.429875 165.348732 146.481347 168.012432 146.481347 
z
" style="fill:#0000ff;opacity:0.3;stroke:#0000ff;stroke-linejoin:miter;"/>
   </g>
   <g id="patch_15">
    <path clip-path="url(#pdcbbeac610)" d="M 178.014994 133.248835 
Q 182.057381 134.361144 186.099768 135.473454 
Q 182.784488 138.039978 179.469208 140.606502 
z
" style="fill:#0000ff;opacity:0.5;stroke:#0000ff;stroke-linecap:round;"/>
   </g>
   <g id="patch_16">
    <path clip-path="url(#pdcbbeac610)" d="M 124.855002 180.676204 
C 127.518702 180.676204 130.073662 179.624732 131.957182 177.753364 
C 133.840702 175.881995 134.899002 173.343519 134.899002 170.697004 
C 134.899002 168.050489 133.840702 165.512012 131.957182 163.640644 
C 130.073662 161.769275 127.518702 160.717804 124.855002 160.717804 
C 122.191302 160.717804 119.636341 161.769275 117.752821 163.640644 
C 115.869301 165.512012 114.811002 168.050489 114.811002 170.697004 
C 114.811002 173.343519 115.869301 175.881995 117.752821 177.753364 
C 119.636341 179.624732 122.191302 180.676204 124.855002 180.676204 
z
" style="fill:#0000ff;opacity:0.3;stroke:#0000ff;stroke-linejoin:miter;"/>
   </g>
   <g id="patch_17">
    <path clip-path="url(#pdcbbeac610)" d="M 133.612346 176.40597 
Q 135.276551 180.254158 136.940755 184.102346 
Q 132.863683 183.124797 128.78661 182.147248 
z
" style="fill:#0000ff;opacity:0.5;stroke:#0000ff;stroke-linecap:round;"/>
   </g>
   <g id="patch_18">
    <path clip-path="url(#pdcbbeac610)" d="M 71.038567 168.472201 
C 73.702267 168.472201 76.257227 167.420729 78.140747 165.549361 
C 80.024268 163.677992 81.082567 161.139515 81.082567 158.493001 
C 81.082567 155.846486 80.024268 153.308009 78.140747 151.436641 
C 76.257227 149.565272 73.702267 148.513801 71.038567 148.513801 
C 68.374867 148.513801 65.819907 149.565272 63.936386 151.436641 
C 62.052866 153.308009 60.994567 155.846486 60.994567 158.493001 
C 60.994567 161.139515 62.052866 163.677992 63.936386 165.549361 
C 65.819907 167.420729 68.374867 168.472201 71.038567 168.472201 
z
" style="fill:#0000ff;opacity:0.3;stroke:#0000ff;stroke-linejoin:miter;"/>
   </g>
   <g id="patch_19">
    <path clip-path="url(#pdcbbeac610)" d="M 72.002818 168.845863 
Q 70.01519 172.537401 68.027561 176.22894 
Q 66.266907 172.423914 64.506253 168.618889 
z
" style="fill:#0000ff;opacity:0.5;stroke:#0000ff;stroke-linecap:round;"/>
   </g>
   <g id="patch_20">
    <path clip-path="url(#pdcbbeac610)" d="M 58.840936 112.233819 
Q 101.882818 131.169018 148.585753 134.051012 
L 148.724335 131.805284 
Q 152.291049 133.904305 155.984152 135.90696 
Q 152.163193 137.652837 148.262395 139.291045 
L 148.400977 137.045317 
Q 101.164279 134.130385 57.632893 114.97984 
L 58.840936 112.233819 
z
" style="fill:#0000ff;opacity:0.5;stroke:#0000ff;stroke-linecap:round;"/>
   </g>
   <g id="patch_21">
    <path clip-path="url(#pdcbbeac610)" d="M 56.299454 116.990139 
Q 78.75561 143.07921 108.434161 160.091043 
L 109.553083 158.13899 
Q 111.80422 161.591243 114.259485 165.002471 
Q 110.057881 164.911189 105.823341 164.645834 
L 106.942264 162.693781 
Q 76.817455 145.426152 54.025741 118.947236 
L 56.299454 116.990139 
z
" style="fill:#0000ff;opacity:0.5;stroke:#0000ff;stroke-linecap:round;"/>
   </g>
   <g id="patch_22">
    <path clip-path="url(#pdcbbeac610)" d="M 80.25104 67.579096 
Q 110.800554 103.169915 151.562138 125.90453 
L 152.658122 123.939506 
Q 154.96698 127.374593 157.431844 130.777339 
Q 153.23109 130.69943 149.004841 130.489585 
L 150.100826 128.524562 
Q 108.872347 105.529538 77.974633 69.533059 
L 80.25104 67.579096 
z
" style="fill:#0000ff;opacity:0.5;stroke:#0000ff;stroke-linecap:round;"/>
   </g>
   <g id="patch_23">
    <path clip-path="url(#pdcbbeac610)" d="M 129.699039 58.563454 
Q 138.561571 91.708617 157.833033 119.834934 
L 159.689139 118.563176 
Q 160.217807 122.65311 160.948982 126.794929 
Q 157.202426 124.884541 153.502118 122.802371 
L 155.358225 121.530612 
Q 135.796182 92.980199 126.800853 59.338387 
L 129.699039 58.563454 
z
" style="fill:#0000ff;opacity:0.5;stroke:#0000ff;stroke-linecap:round;"/>
   </g>
   <g id="patch_24">
    <path clip-path="url(#pdcbbeac610)" d="M 124.36877 59.566499 
Q 115.484966 105.409833 122.939614 151.273399 
L 125.160468 150.912422 
Q 123.901329 154.855042 122.764904 158.900271 
Q 120.21729 155.55914 117.757619 152.115678 
L 119.978474 151.754701 
Q 112.438096 105.363695 121.423561 58.995759 
L 124.36877 59.566499 
z
" style="fill:#0000ff;opacity:0.5;stroke:#0000ff;stroke-linecap:round;"/>
   </g>
   <g id="patch_25">
    <path clip-path="url(#pdcbbeac610)" d="M 167.525566 93.750589 
Q 165.329582 105.446296 166.306977 117.170687 
L 168.549199 116.983766 
Q 166.974431 120.702424 165.745839 124.73499 
Q 163.269842 121.324809 161.075125 117.606837 
L 163.317347 117.419916 
Q 162.306256 105.291325 164.577088 93.196984 
L 167.525566 93.750589 
z
" style="fill:#0000ff;opacity:0.5;stroke:#0000ff;stroke-linecap:round;"/>
   </g>
   <g id="patch_26">
    <path clip-path="url(#pdcbbeac610)" d="M 158.19792 143.665477 
Q 147.60463 149.240238 138.974821 157.339288 
L 140.514559 158.979931 
Q 136.620772 160.058404 132.696242 161.601638 
Q 133.831954 157.541763 135.382099 153.511123 
L 136.921837 155.151765 
Q 145.847936 146.774648 156.800809 141.010655 
L 158.19792 143.665477 
z
" style="fill:#0000ff;opacity:0.5;stroke:#0000ff;stroke-linecap:round;"/>
   </g>
   <g id="patch_27">
    <path clip-path="url(#pdcbbeac610)" d="M 156.045704 138.728833 
Q 121.551143 139.864556 89.606642 152.352392 
L 90.425847 154.447959 
Q 86.325378 154.03709 82.1291 153.810507 
Q 84.834196 150.594988 87.695164 147.462734 
L 88.514369 149.558302 
Q 120.938126 136.883114 155.946983 135.730458 
L 156.045704 138.728833 
z
" style="fill:#0000ff;opacity:0.5;stroke:#0000ff;stroke-linecap:round;"/>
   </g>
   <g id="patch_28">
    <path clip-path="url(#pdcbbeac610)" d="M 134.669514 163.533674 
Q 145.262803 157.958912 153.892612 149.859862 
L 152.352874 148.21922 
Q 156.246661 147.140747 160.171191 145.597512 
Q 159.035479 149.657387 157.485334 153.688028 
L 155.945596 152.047385 
Q 147.019497 160.424502 136.066625 166.188496 
L 134.669514 163.533674 
z
" style="fill:#0000ff;opacity:0.5;stroke:#0000ff;stroke-linecap:round;"/>
   </g>
   <g id="patch_29">
    <path clip-path="url(#pdcbbeac610)" d="M 113.108963 167.543452 
Q 102.08677 162.771538 90.326128 161.12627 
L 90.014397 163.354571 
Q 86.734016 160.999155 83.073469 158.910333 
Q 86.945244 157.248677 91.053499 155.926902 
L 90.741768 158.155202 
Q 102.905324 159.856836 114.300867 164.790388 
L 113.108963 167.543452 
z
" style="fill:#0000ff;opacity:0.5;stroke:#0000ff;stroke-linecap:round;"/>
   </g>
   <g id="patch_30">
    <path clip-path="url(#pdcbbeac610)" d="M 83.005294 156.266314 
Q 117.499855 155.130591 149.444356 142.642756 
L 148.625151 140.547188 
Q 152.72562 140.958057 156.921898 141.18464 
Q 154.216802 144.400159 151.355835 147.532413 
L 150.53663 145.436845 
Q 118.112872 158.112033 83.104015 159.264689 
L 83.005294 156.266314 
z
" style="fill:#0000ff;opacity:0.5;stroke:#0000ff;stroke-linecap:round;"/>
   </g>
   <g id="text_1">
    <!-- $C_{1}$ -->
    <defs>
     <path d="M 69.484375 67.28125 
L 67.484375 56.890625 
Q 62.796875 61.625 57.546875 63.921875 
Q 52.296875 66.21875 46.1875 66.21875 
Q 37.84375 66.21875 31.515625 62.203125 
Q 25.203125 58.203125 20.609375 50 
Q 17.671875 44.734375 16.125 38.84375 
Q 14.59375 32.953125 14.59375 27 
Q 14.59375 17.046875 19.75 11.8125 
Q 24.90625 6.59375 34.71875 6.59375 
Q 41.5 6.59375 47.75 8.765625 
Q 54 10.9375 59.90625 15.28125 
L 57.625 3.609375 
Q 51.8125 1.125 45.875 -0.140625 
Q 39.9375 -1.421875 33.984375 -1.421875 
Q 19.96875 -1.421875 12.078125 6.1875 
Q 4.203125 13.8125 4.203125 27.390625 
Q 4.203125 36.078125 7.203125 44.46875 
Q 10.203125 52.875 15.828125 59.8125 
Q 21.78125 67.1875 29.421875 70.703125 
Q 37.0625 74.21875 47.21875 74.21875 
Q 53.46875 74.21875 59.0625 72.484375 
Q 64.65625 70.75 69.484375 67.28125 
z
" id="DejaVuSans-Oblique-43"/>
     <path d="M 12.40625 8.296875 
L 28.515625 8.296875 
L 28.515625 63.921875 
L 10.984375 60.40625 
L 10.984375 69.390625 
L 28.421875 72.90625 
L 38.28125 72.90625 
L 38.28125 8.296875 
L 54.390625 8.296875 
L 54.390625 0 
L 12.40625 0 
z
" id="DejaVuSans-31"/>
    </defs>
    <g transform="translate(37.648 113.495)scale(0.16 -0.16)">
     <use transform="translate(0 0.78125)" xlink:href="#DejaVuSans-Oblique-43"/>
     <use transform="translate(69.824219 -15.625)scale(0.7)" xlink:href="#DejaVuSans-31"/>
    </g>
   </g>
   <g id="text_2">
    <!-- $C_{2}$ -->
    <defs>
     <path d="M 19.1875 8.296875 
L 53.609375 8.296875 
L 53.609375 0 
L 7.328125 0 
L 7.328125 8.296875 
Q 12.9375 14.109375 22.625 23.890625 
Q 32.328125 33.6875 34.8125 36.53125 
Q 39.546875 41.84375 41.421875 45.53125 
Q 43.3125 49.21875 43.3125 52.78125 
Q 43.3125 58.59375 39.234375 62.25 
Q 35.15625 65.921875 28.609375 65.921875 
Q 23.96875 65.921875 18.8125 64.3125 
Q 13.671875 62.703125 7.8125 59.421875 
L 7.8125 69.390625 
Q 13.765625 71.78125 18.9375 73 
Q 24.125 74.21875 28.421875 74.21875 
Q 39.75 74.21875 46.484375 68.546875 
Q 53.21875 62.890625 53.21875 53.421875 
Q 53.21875 48.921875 51.53125 44.890625 
Q 49.859375 40.875 45.40625 35.40625 
Q 44.1875 33.984375 37.640625 27.21875 
Q 31.109375 20.453125 19.1875 8.296875 
z
" id="DejaVuSans-32"/>
    </defs>
    <g transform="translate(61.598567 64.081999)scale(0.16 -0.16)">
     <use transform="translate(0 0.78125)" xlink:href="#DejaVuSans-Oblique-43"/>
     <use transform="translate(69.824219 -15.625)scale(0.7)" xlink:href="#DejaVuSans-32"/>
    </g>
   </g>
   <g id="text_3">
    <!-- $C_{3}$ -->
    <defs>
     <path d="M 40.578125 39.3125 
Q 47.65625 37.796875 51.625 33 
Q 55.609375 28.21875 55.609375 21.1875 
Q 55.609375 10.40625 48.1875 4.484375 
Q 40.765625 -1.421875 27.09375 -1.421875 
Q 22.515625 -1.421875 17.65625 -0.515625 
Q 12.796875 0.390625 7.625 2.203125 
L 7.625 11.71875 
Q 11.71875 9.328125 16.59375 8.109375 
Q 21.484375 6.890625 26.8125 6.890625 
Q 36.078125 6.890625 40.9375 10.546875 
Q 45.796875 14.203125 45.796875 21.1875 
Q 45.796875 27.640625 41.28125 31.265625 
Q 36.765625 34.90625 28.71875 34.90625 
L 20.21875 34.90625 
L 20.21875 43.015625 
L 29.109375 43.015625 
Q 36.375 43.015625 40.234375 45.921875 
Q 44.09375 48.828125 44.09375 54.296875 
Q 44.09375 59.90625 40.109375 62.90625 
Q 36.140625 65.921875 28.71875 65.921875 
Q 24.65625 65.921875 20.015625 65.03125 
Q 15.375 64.15625 9.8125 62.3125 
L 9.8125 71.09375 
Q 15.4375 72.65625 20.34375 73.4375 
Q 25.25 74.21875 29.59375 74.21875 
Q 40.828125 74.21875 47.359375 69.109375 
Q 53.90625 64.015625 53.90625 55.328125 
Q 53.90625 49.265625 50.4375 45.09375 
Q 46.96875 40.921875 40.578125 39.3125 
z
" id="DejaVuSans-33"/>
    </defs>
    <g transform="translate(115.415002 51.877996)scale(0.16 -0.16)">
     <use transform="translate(0 0.78125)" xlink:href="#DejaVuSans-Oblique-43"/>
     <use transform="translate(69.824219 -15.625)scale(0.7)" xlink:href="#DejaVuSans-33"/>
    </g>
   </g>
   <g id="text_4">
    <!-- $C_{4}$ -->
    <defs>
     <path d="M 37.796875 64.3125 
L 12.890625 25.390625 
L 37.796875 25.390625 
z
M 35.203125 72.90625 
L 47.609375 72.90625 
L 47.609375 25.390625 
L 58.015625 25.390625 
L 58.015625 17.1875 
L 47.609375 17.1875 
L 47.609375 0 
L 37.796875 0 
L 37.796875 17.1875 
L 4.890625 17.1875 
L 4.890625 26.703125 
z
" id="DejaVuSans-34"/>
    </defs>
    <g transform="translate(158.572432 86.072853)scale(0.16 -0.16)">
     <use transform="translate(0 0.78125)" xlink:href="#DejaVuSans-Oblique-43"/>
     <use transform="translate(69.824219 -15.625)scale(0.7)" xlink:href="#DejaVuSans-34"/>
    </g>
   </g>
   <g id="text_5">
    <!-- $C_{5}$ -->
    <defs>
     <path d="M 10.796875 72.90625 
L 49.515625 72.90625 
L 49.515625 64.59375 
L 19.828125 64.59375 
L 19.828125 46.734375 
Q 21.96875 47.46875 24.109375 47.828125 
Q 26.265625 48.1875 28.421875 48.1875 
Q 40.625 48.1875 47.75 41.5 
Q 54.890625 34.8125 54.890625 23.390625 
Q 54.890625 11.625 47.5625 5.09375 
Q 40.234375 -1.421875 26.90625 -1.421875 
Q 22.3125 -1.421875 17.546875 -0.640625 
Q 12.796875 0.140625 7.71875 1.703125 
L 7.71875 11.625 
Q 12.109375 9.234375 16.796875 8.0625 
Q 21.484375 6.890625 26.703125 6.890625 
Q 35.15625 6.890625 40.078125 11.328125 
Q 45.015625 15.765625 45.015625 23.390625 
Q 45.015625 31 40.078125 35.4375 
Q 35.15625 39.890625 26.703125 39.890625 
Q 22.75 39.890625 18.8125 39.015625 
Q 14.890625 38.140625 10.796875 36.28125 
z
" id="DejaVuSans-35"/>
    </defs>
    <g transform="translate(158.572432 140.917147)scale(0.16 -0.16)">
     <use transform="translate(0 0.78125)" xlink:href="#DejaVuSans-Oblique-43"/>
     <use transform="translate(69.824219 -15.625)scale(0.7)" xlink:href="#DejaVuSans-35"/>
    </g>
   </g>
   <g id="text_6">
    <!-- $C_{6}$ -->
    <defs>
     <path d="M 33.015625 40.375 
Q 26.375 40.375 22.484375 35.828125 
Q 18.609375 31.296875 18.609375 23.390625 
Q 18.609375 15.53125 22.484375 10.953125 
Q 26.375 6.390625 33.015625 6.390625 
Q 39.65625 6.390625 43.53125 10.953125 
Q 47.40625 15.53125 47.40625 23.390625 
Q 47.40625 31.296875 43.53125 35.828125 
Q 39.65625 40.375 33.015625 40.375 
z
M 52.59375 71.296875 
L 52.59375 62.3125 
Q 48.875 64.0625 45.09375 64.984375 
Q 41.3125 65.921875 37.59375 65.921875 
Q 27.828125 65.921875 22.671875 59.328125 
Q 17.53125 52.734375 16.796875 39.40625 
Q 19.671875 43.65625 24.015625 45.921875 
Q 28.375 48.1875 33.59375 48.1875 
Q 44.578125 48.1875 50.953125 41.515625 
Q 57.328125 34.859375 57.328125 23.390625 
Q 57.328125 12.15625 50.6875 5.359375 
Q 44.046875 -1.421875 33.015625 -1.421875 
Q 20.359375 -1.421875 13.671875 8.265625 
Q 6.984375 17.96875 6.984375 36.375 
Q 6.984375 53.65625 15.1875 63.9375 
Q 23.390625 74.21875 37.203125 74.21875 
Q 40.921875 74.21875 44.703125 73.484375 
Q 48.484375 72.75 52.59375 71.296875 
z
" id="DejaVuSans-36"/>
    </defs>
    <g transform="translate(115.415002 175.112004)scale(0.16 -0.16)">
     <use transform="translate(0 0.78125)" xlink:href="#DejaVuSans-Oblique-43"/>
     <use transform="translate(69.824219 -15.625)scale(0.7)" xlink:href="#DejaVuSans-36"/>
    </g>
   </g>
   <g id="text_7">
    <!-- $C_{7}$ -->
    <defs>
     <path d="M 8.203125 72.90625 
L 55.078125 72.90625 
L 55.078125 68.703125 
L 28.609375 0 
L 18.3125 0 
L 43.21875 64.59375 
L 8.203125 64.59375 
z
" id="DejaVuSans-37"/>
    </defs>
    <g transform="translate(61.598567 162.908001)scale(0.16 -0.16)">
     <use transform="translate(0 0.78125)" xlink:href="#DejaVuSans-Oblique-43"/>
     <use transform="translate(69.824219 -15.625)scale(0.7)" xlink:href="#DejaVuSans-37"/>
    </g>
   </g>
  </g>
 </g>
 <defs>
  <clipPath id="pdcbbeac610">
   <rect height="166.32" width="167.4" x="27" y="25.92"/>
  </clipPath>
 </defs>
</svg>
