<?xml version="1.0" encoding="utf-8" standalone="no"?>
<!DOCTYPE svg PUBLIC "-//W3C//DTD SVG 1.1//EN"
  "http://www.w3.org/Graphics/SVG/1.1/DTD/svg11.dtd">
<!-- Created with matplotlib (https://matplotlib.org/) -->
<svg height="864pt" version="1.1" viewBox="0 0 864 864" width="864pt" xmlns="http://www.w3.org/2000/svg" xmlns:xlink="http://www.w3.org/1999/xlink">
 <defs>
  <style type="text/css">
*{stroke-linecap:butt;stroke-linejoin:round;}
  </style>
 </defs>
 <g id="figure_1">
  <g id="patch_1">
   <path d="M 0 864 
L 864 864 
L 864 0 
L 0 0 
z
" style="fill:#ffffff;"/>
  </g>
  <g id="axes_1">
   <g id="patch_2">
    <path clip-path="url(#pa2c78daa1c)" d="M 110.592 573.696 
C 125.256671 573.696 139.322689 567.869665 149.692177 557.500177 
C 160.061665 547.130689 165.888 533.064671 165.888 518.4 
C 165.888 503.735329 160.061665 489.669311 149.692177 479.299823 
C 139.322689 468.930335 125.256671 463.104 110.592 463.104 
C 95.927329 463.104 81.861311 468.930335 71.491823 479.299823 
C 61.122335 489.669311 55.296 503.735329 55.296 518.4 
C 55.296 533.064671 61.122335 547.130689 71.491823 557.500177 
C 81.861311 567.869665 95.927329 573.696 110.592 573.696 
z
" style="fill:#0000ff;opacity:0.3;stroke:#0000ff;stroke-linejoin:miter;"/>
   </g>
   <g id="patch_3">
    <path clip-path="url(#pa2c78daa1c)" d="M 19.574543 460.611493 
Q 29.451626 469.055189 40.545622 475.375151 
L 44.258042 468.858409 
Q 50.978422 479.937709 60.814962 490.098446 
Q 46.787172 491.820356 31.883309 490.580885 
L 35.595729 484.064142 
Q 23.675994 477.273777 13.076561 468.212561 
L 19.574543 460.611493 
z
" style="fill:#0000ff;opacity:0.5;stroke:#0000ff;stroke-linecap:round;"/>
   </g>
   <g id="patch_4">
    <path clip-path="url(#pa2c78daa1c)" d="M 62.483821 551.414823 
Q 50.232825 555.74678 39.212579 562.194481 
L 43.000034 568.667903 
Q 30.044888 568.948272 16.327161 572.386597 
Q 21.849839 559.37722 30.375184 547.089831 
L 34.162639 553.563253 
Q 46.003134 546.635642 59.150094 541.986872 
L 62.483821 551.414823 
z
" style="fill:#ff0000;opacity:0.5;stroke:#ff0000;stroke-linecap:round;"/>
   </g>
   <g id="patch_5">
    <path clip-path="url(#pa2c78daa1c)" d="M 228.096 370.173102 
C 242.760671 370.173102 256.826689 364.346767 267.196177 353.977278 
C 277.565665 343.60779 283.392 329.541773 283.392 314.877102 
C 283.392 300.212431 277.565665 286.146413 267.196177 275.776925 
C 256.826689 265.407437 242.760671 259.581102 228.096 259.581102 
C 213.431329 259.581102 199.365311 265.407437 188.995823 275.776925 
C 178.626335 286.146413 172.8 300.212431 172.8 314.877102 
C 172.8 329.541773 178.626335 343.60779 188.995823 353.977278 
C 199.365311 364.346767 213.431329 370.173102 228.096 370.173102 
z
" style="fill:#0000ff;opacity:0.3;stroke:#0000ff;stroke-linejoin:miter;"/>
   </g>
   <g id="patch_6">
    <path clip-path="url(#pa2c78daa1c)" d="M 463.104 370.173102 
C 477.768671 370.173102 491.834689 364.346767 502.204177 353.977278 
C 512.573665 343.60779 518.4 329.541773 518.4 314.877102 
C 518.4 300.212431 512.573665 286.146413 502.204177 275.776925 
C 491.834689 265.407437 477.768671 259.581102 463.104 259.581102 
C 448.439329 259.581102 434.373311 265.407437 424.003823 275.776925 
C 413.634335 286.146413 407.808 300.212431 407.808 314.877102 
C 407.808 329.541773 413.634335 343.60779 424.003823 353.977278 
C 434.373311 364.346767 448.439329 370.173102 463.104 370.173102 
z
" style="fill:#0000ff;opacity:0.3;stroke:#0000ff;stroke-linejoin:miter;"/>
   </g>
   <g id="patch_7">
    <path clip-path="url(#pa2c78daa1c)" d="M 458.566414 256.706785 
Q 460.940327 243.931133 460.866577 231.163469 
L 453.366702 231.20679 
Q 459.601468 219.847121 463.482655 206.248058 
Q 471.987768 217.535526 478.366285 231.062386 
L 470.86641 231.105707 
Q 470.945649 244.823682 468.398122 258.533669 
L 458.566414 256.706785 
z
" style="fill:#0000ff;opacity:0.5;stroke:#0000ff;stroke-linecap:round;"/>
   </g>
   <g id="patch_8">
    <path clip-path="url(#pa2c78daa1c)" d="M 580.608 573.696 
C 595.272671 573.696 609.338689 567.869665 619.708177 557.500177 
C 630.077665 547.130689 635.904 533.064671 635.904 518.4 
C 635.904 503.735329 630.077665 489.669311 619.708177 479.299823 
C 609.338689 468.930335 595.272671 463.104 580.608 463.104 
C 565.943329 463.104 551.877311 468.930335 541.507823 479.299823 
C 531.138335 489.669311 525.312 503.735329 525.312 518.4 
C 525.312 533.064671 531.138335 547.130689 541.507823 557.500177 
C 551.877311 567.869665 565.943329 573.696 580.608 573.696 
z
" style="fill:#0000ff;opacity:0.3;stroke:#0000ff;stroke-linejoin:miter;"/>
   </g>
   <g id="patch_9">
    <path clip-path="url(#pa2c78daa1c)" d="M 628.716179 485.385177 
Q 640.967175 481.05322 651.987421 474.605519 
L 648.199966 468.132097 
Q 661.155112 467.851728 674.872839 464.413403 
Q 669.350161 477.42278 660.824816 489.710169 
L 657.037361 483.236747 
Q 645.196866 490.164358 632.049906 494.813128 
L 628.716179 485.385177 
z
" style="fill:#0000ff;opacity:0.5;stroke:#0000ff;stroke-linecap:round;"/>
   </g>
   <g id="patch_10">
    <path clip-path="url(#pa2c78daa1c)" d="M 463.104 777.218898 
C 477.768671 777.218898 491.834689 771.392563 502.204177 761.023075 
C 512.573665 750.653587 518.4 736.587569 518.4 721.922898 
C 518.4 707.258227 512.573665 693.19221 502.204177 682.822722 
C 491.834689 672.453233 477.768671 666.626898 463.104 666.626898 
C 448.439329 666.626898 434.373311 672.453233 424.003823 682.822722 
C 413.634335 693.19221 407.808 707.258227 407.808 721.922898 
C 407.808 736.587569 413.634335 750.653587 424.003823 761.023075 
C 434.373311 771.392563 448.439329 777.218898 463.104 777.218898 
z
" style="fill:#0000ff;opacity:0.3;stroke:#0000ff;stroke-linejoin:miter;"/>
   </g>
   <g id="patch_11">
    <path clip-path="url(#pa2c78daa1c)" d="M 515.749765 747.078391 
Q 525.626848 755.522087 536.720844 761.84205 
L 540.433264 755.325307 
Q 547.153644 766.404607 556.990184 776.565344 
Q 542.962394 778.287254 528.058531 777.047783 
L 531.770951 770.53104 
Q 519.851216 763.740675 509.251784 754.679459 
L 515.749765 747.078391 
z
" style="fill:#0000ff;opacity:0.5;stroke:#0000ff;stroke-linecap:round;"/>
   </g>
   <g id="patch_12">
    <path clip-path="url(#pa2c78daa1c)" d="M 228.096 777.218898 
C 242.760671 777.218898 256.826689 771.392563 267.196177 761.023075 
C 277.565665 750.653587 283.392 736.587569 283.392 721.922898 
C 283.392 707.258227 277.565665 693.19221 267.196177 682.822722 
C 256.826689 672.453233 242.760671 666.626898 228.096 666.626898 
C 213.431329 666.626898 199.365311 672.453233 188.995823 682.822722 
C 178.626335 693.19221 172.8 707.258227 172.8 721.922898 
C 172.8 736.587569 178.626335 750.653587 188.995823 761.023075 
C 199.365311 771.392563 213.431329 777.218898 228.096 777.218898 
z
" style="fill:#0000ff;opacity:0.3;stroke:#0000ff;stroke-linejoin:miter;"/>
   </g>
   <g id="patch_13">
    <path clip-path="url(#pa2c78daa1c)" d="M 232.633586 780.093215 
Q 230.259673 792.868867 230.333423 805.636531 
L 237.833298 805.59321 
Q 231.598532 816.952879 227.717345 830.551942 
Q 219.212232 819.264474 212.833715 805.737614 
L 220.33359 805.694293 
Q 220.254351 791.976318 222.801878 778.266331 
L 232.633586 780.093215 
z
" style="fill:#ff0000;opacity:0.5;stroke:#ff0000;stroke-linecap:round;"/>
   </g>
   <g id="patch_14">
    <path clip-path="url(#pa2c78daa1c)" d="M 143.029992 470.59338 
Q 175.886364 434.293827 196.019436 390.304616 
L 189.199769 387.183376 
Q 199.866955 378.916643 210.089852 369.2683 
Q 211.615982 383.237724 211.931994 397.587508 
L 205.112326 394.466268 
Q 184.336597 439.859636 150.443936 477.304076 
L 143.029992 470.59338 
z
" style="fill:#ff0000;opacity:0.5;stroke:#ff0000;stroke-linecap:round;"/>
   </g>
   <g id="patch_15">
    <path clip-path="url(#pa2c78daa1c)" d="M 168.155353 522.545096 
Q 333.381757 555.77112 498.795303 528.089683 
L 497.557416 520.692546 
Q 510.725351 524.826949 524.21958 528.56984 
Q 513.113738 537.098873 501.683708 545.349669 
L 500.44582 537.952532 
Q 333.215836 565.937944 166.18388 532.348834 
L 168.155353 522.545096 
z
" style="fill:#ff0000;opacity:0.5;stroke:#ff0000;stroke-linecap:round;"/>
   </g>
   <g id="patch_16">
    <path clip-path="url(#pa2c78daa1c)" d="M 158.369928 550.773677 
Q 260.693312 641.053884 387.412289 689.504009 
L 390.090759 682.498597 
Q 399.313237 692.717722 409.115725 702.72623 
Q 395.224538 704.533509 381.162523 705.84997 
L 383.840994 698.844558 
Q 255.433136 649.7487 151.753923 558.272242 
L 158.369928 550.773677 
z
" style="fill:#ff0000;opacity:0.5;stroke:#ff0000;stroke-linecap:round;"/>
   </g>
   <g id="patch_17">
    <path clip-path="url(#pa2c78daa1c)" d="M 135.774752 570.395436 
Q 150.782901 616.999664 178.812139 656.430022 
L 184.925045 652.084637 
Q 186.750653 665.456057 189.994915 679.133518 
Q 177.133974 673.470473 164.548691 666.569255 
L 170.661597 662.22387 
Q 141.737652 621.534876 126.256146 573.460751 
L 135.774752 570.395436 
z
" style="fill:#ff0000;opacity:0.5;stroke:#ff0000;stroke-linecap:round;"/>
   </g>
   <g id="patch_18">
    <path clip-path="url(#pa2c78daa1c)" d="M 285.716744 319.065917 
Q 333.581264 329.370593 381.743575 324.81174 
L 381.036814 317.345115 
Q 393.529607 322.449802 406.996767 326.478919 
Q 395.661956 334.785299 383.392685 342.233865 
L 382.685923 334.76724 
Q 332.986249 339.471614 283.612082 328.841929 
L 285.716744 319.065917 
z
" style="fill:#ff0000;opacity:0.5;stroke:#ff0000;stroke-linecap:round;"/>
   </g>
   <g id="patch_19">
    <path clip-path="url(#pa2c78daa1c)" d="M 223.948537 372.44084 
Q 196.925277 506.195593 218.325726 640.162508 
L 225.731826 638.979426 
Q 221.493043 652.075888 217.726665 665.569346 
Q 209.215922 654.442865 201.044826 642.923033 
L 208.450926 641.739951 
Q 186.765257 505.987556 214.146587 370.460494 
L 223.948537 372.44084 
z
" style="fill:#ff0000;opacity:0.5;stroke:#ff0000;stroke-linecap:round;"/>
   </g>
   <g id="text_1">
    <!-- $C_{labile}$ -->
    <defs>
     <path d="M 69.484375 67.28125 
L 67.484375 56.890625 
Q 62.796875 61.625 57.546875 63.921875 
Q 52.296875 66.21875 46.1875 66.21875 
Q 37.84375 66.21875 31.515625 62.203125 
Q 25.203125 58.203125 20.609375 50 
Q 17.671875 44.734375 16.125 38.84375 
Q 14.59375 32.953125 14.59375 27 
Q 14.59375 17.046875 19.75 11.8125 
Q 24.90625 6.59375 34.71875 6.59375 
Q 41.5 6.59375 47.75 8.765625 
Q 54 10.9375 59.90625 15.28125 
L 57.625 3.609375 
Q 51.8125 1.125 45.875 -0.140625 
Q 39.9375 -1.421875 33.984375 -1.421875 
Q 19.96875 -1.421875 12.078125 6.1875 
Q 4.203125 13.8125 4.203125 27.390625 
Q 4.203125 36.078125 7.203125 44.46875 
Q 10.203125 52.875 15.828125 59.8125 
Q 21.78125 67.1875 29.421875 70.703125 
Q 37.0625 74.21875 47.21875 74.21875 
Q 53.46875 74.21875 59.0625 72.484375 
Q 64.65625 70.75 69.484375 67.28125 
z
" id="DejaVuSans-Oblique-67"/>
     <path d="M 18.3125 75.984375 
L 27.296875 75.984375 
L 12.5 0 
L 3.515625 0 
z
" id="DejaVuSans-Oblique-108"/>
     <path d="M 53.71875 31.203125 
L 47.609375 0 
L 38.625 0 
L 40.28125 8.296875 
Q 36.328125 3.421875 31.265625 1 
Q 26.21875 -1.421875 20.015625 -1.421875 
Q 13.03125 -1.421875 8.5625 2.84375 
Q 4.109375 7.125 4.109375 13.8125 
Q 4.109375 23.390625 11.75 28.953125 
Q 19.390625 34.515625 32.8125 34.515625 
L 45.3125 34.515625 
L 45.796875 36.921875 
Q 45.90625 37.3125 45.953125 37.765625 
Q 46 38.234375 46 39.203125 
Q 46 43.5625 42.453125 45.96875 
Q 38.921875 48.390625 32.515625 48.390625 
Q 28.125 48.390625 23.5 47.265625 
Q 18.890625 46.140625 14.015625 43.890625 
L 15.578125 52.203125 
Q 20.65625 54.109375 25.515625 55.046875 
Q 30.375 56 34.90625 56 
Q 44.578125 56 49.625 51.796875 
Q 54.6875 47.609375 54.6875 39.59375 
Q 54.6875 37.984375 54.4375 35.8125 
Q 54.203125 33.640625 53.71875 31.203125 
z
M 44 27.484375 
L 35.015625 27.484375 
Q 23.96875 27.484375 18.671875 24.53125 
Q 13.375 21.578125 13.375 15.375 
Q 13.375 11.078125 16.078125 8.640625 
Q 18.796875 6.203125 23.578125 6.203125 
Q 30.90625 6.203125 36.375 11.453125 
Q 41.84375 16.703125 43.609375 25.484375 
z
" id="DejaVuSans-Oblique-97"/>
     <path d="M 49.515625 33.40625 
Q 49.515625 40.484375 46.265625 44.484375 
Q 43.015625 48.484375 37.3125 48.484375 
Q 33.15625 48.484375 29.515625 46.453125 
Q 25.875 44.4375 23.1875 40.578125 
Q 20.359375 36.53125 18.71875 31.171875 
Q 17.09375 25.828125 17.09375 20.515625 
Q 17.09375 13.765625 20.28125 9.9375 
Q 23.484375 6.109375 29.109375 6.109375 
Q 33.34375 6.109375 36.953125 8.078125 
Q 40.578125 10.0625 43.3125 13.921875 
Q 46.09375 17.921875 47.796875 23.234375 
Q 49.515625 28.5625 49.515625 33.40625 
z
M 21.578125 46.390625 
Q 24.90625 50.875 29.90625 53.4375 
Q 34.90625 56 40.375 56 
Q 48.78125 56 53.734375 50.328125 
Q 58.6875 44.671875 58.6875 35.015625 
Q 58.6875 27.09375 55.78125 19.671875 
Q 52.875 12.25 47.515625 6.5 
Q 44 2.6875 39.40625 0.625 
Q 34.8125 -1.421875 29.78125 -1.421875 
Q 24.46875 -1.421875 20.5625 1.015625 
Q 16.65625 3.46875 14.203125 8.296875 
L 12.59375 0 
L 3.609375 0 
L 18.40625 75.984375 
L 27.390625 75.984375 
z
" id="DejaVuSans-Oblique-98"/>
     <path d="M 18.3125 75.984375 
L 27.296875 75.984375 
L 25.09375 64.59375 
L 16.109375 64.59375 
z
M 14.203125 54.6875 
L 23.1875 54.6875 
L 12.5 0 
L 3.515625 0 
z
" id="DejaVuSans-Oblique-105"/>
     <path d="M 48.09375 32.234375 
Q 48.25 33.015625 48.3125 33.84375 
Q 48.390625 34.671875 48.390625 35.5 
Q 48.390625 41.453125 44.890625 44.921875 
Q 41.40625 48.390625 35.40625 48.390625 
Q 28.71875 48.390625 23.578125 44.15625 
Q 18.453125 39.9375 15.828125 32.171875 
z
M 55.90625 25.203125 
L 14.109375 25.203125 
Q 13.8125 23.34375 13.71875 22.265625 
Q 13.625 21.1875 13.625 20.40625 
Q 13.625 13.625 17.796875 9.90625 
Q 21.96875 6.203125 29.59375 6.203125 
Q 35.453125 6.203125 40.671875 7.515625 
Q 45.90625 8.84375 50.390625 11.375 
L 48.6875 2.484375 
Q 43.84375 0.53125 38.6875 -0.4375 
Q 33.546875 -1.421875 28.21875 -1.421875 
Q 16.84375 -1.421875 10.71875 4.015625 
Q 4.59375 9.46875 4.59375 19.484375 
Q 4.59375 28.03125 7.640625 35.375 
Q 10.6875 42.71875 16.609375 48.484375 
Q 20.40625 52.09375 25.65625 54.046875 
Q 30.90625 56 36.8125 56 
Q 46.09375 56 51.578125 50.4375 
Q 57.078125 44.875 57.078125 35.5 
Q 57.078125 33.25 56.78125 30.6875 
Q 56.5 28.125 55.90625 25.203125 
z
" id="DejaVuSans-Oblique-101"/>
    </defs>
    <g transform="translate(79.152 525.0225)scale(0.24 -0.24)">
     <use transform="translate(0 0.78125)" xlink:href="#DejaVuSans-Oblique-67"/>
     <use transform="translate(69.824219 -15.625)scale(0.7)" xlink:href="#DejaVuSans-Oblique-108"/>
     <use transform="translate(89.272461 -15.625)scale(0.7)" xlink:href="#DejaVuSans-Oblique-97"/>
     <use transform="translate(132.167969 -15.625)scale(0.7)" xlink:href="#DejaVuSans-Oblique-98"/>
     <use transform="translate(176.601562 -15.625)scale(0.7)" xlink:href="#DejaVuSans-Oblique-105"/>
     <use transform="translate(196.049805 -15.625)scale(0.7)" xlink:href="#DejaVuSans-Oblique-108"/>
     <use transform="translate(215.498047 -15.625)scale(0.7)" xlink:href="#DejaVuSans-Oblique-101"/>
    </g>
   </g>
   <g id="text_2">
    <!-- $C_{bud}$ -->
    <defs>
     <path d="M 6.6875 21.6875 
L 13.09375 54.6875 
L 22.125 54.6875 
L 15.71875 22.015625 
Q 15.234375 19.625 15.015625 17.921875 
Q 14.796875 16.21875 14.796875 15.09375 
Q 14.796875 10.9375 17.328125 8.65625 
Q 19.875 6.390625 24.515625 6.390625 
Q 31.734375 6.390625 37 11.265625 
Q 42.28125 16.15625 43.890625 24.421875 
L 49.90625 54.6875 
L 58.890625 54.6875 
L 48.296875 0 
L 39.3125 0 
L 41.109375 8.59375 
Q 37.3125 3.8125 32.0625 1.1875 
Q 26.8125 -1.421875 20.90625 -1.421875 
Q 13.71875 -1.421875 9.71875 2.515625 
Q 5.71875 6.453125 5.71875 13.484375 
Q 5.71875 14.9375 5.953125 17.140625 
Q 6.203125 19.34375 6.6875 21.6875 
z
" id="DejaVuSans-Oblique-117"/>
     <path d="M 41.796875 8.203125 
Q 38.1875 3.46875 33.25 1.015625 
Q 28.328125 -1.421875 22.3125 -1.421875 
Q 14.109375 -1.421875 9.34375 4.171875 
Q 4.59375 9.765625 4.59375 19.484375 
Q 4.59375 27.59375 7.46875 34.9375 
Q 10.359375 42.28125 15.828125 48.09375 
Q 19.4375 51.953125 23.96875 53.96875 
Q 28.515625 56 33.5 56 
Q 38.765625 56 42.796875 53.453125 
Q 46.828125 50.921875 49.03125 46.1875 
L 54.890625 75.984375 
L 63.921875 75.984375 
L 49.125 0 
L 40.09375 0 
z
M 13.921875 21.09375 
Q 13.921875 14.015625 17.109375 10.0625 
Q 20.3125 6.109375 25.984375 6.109375 
Q 30.171875 6.109375 33.765625 8.125 
Q 37.359375 10.15625 40.09375 14.109375 
Q 42.96875 18.21875 44.625 23.578125 
Q 46.296875 28.953125 46.296875 34.1875 
Q 46.296875 40.96875 43.09375 44.765625 
Q 39.890625 48.578125 34.28125 48.578125 
Q 30.03125 48.578125 26.359375 46.578125 
Q 22.703125 44.578125 20.125 40.828125 
Q 17.28125 36.765625 15.59375 31.390625 
Q 13.921875 26.03125 13.921875 21.09375 
z
" id="DejaVuSans-Oblique-100"/>
    </defs>
    <g transform="translate(203.376 321.499602)scale(0.24 -0.24)">
     <use transform="translate(0 0.78125)" xlink:href="#DejaVuSans-Oblique-67"/>
     <use transform="translate(69.824219 -15.625)scale(0.7)" xlink:href="#DejaVuSans-Oblique-98"/>
     <use transform="translate(114.257812 -15.625)scale(0.7)" xlink:href="#DejaVuSans-Oblique-117"/>
     <use transform="translate(158.623047 -15.625)scale(0.7)" xlink:href="#DejaVuSans-Oblique-100"/>
    </g>
   </g>
   <g id="text_3">
    <!-- $C_{leaf}$ -->
    <defs>
     <path d="M 47.796875 75.984375 
L 46.390625 68.5 
L 37.796875 68.5 
Q 32.90625 68.5 30.6875 66.578125 
Q 28.46875 64.65625 27.390625 59.515625 
L 26.421875 54.6875 
L 41.21875 54.6875 
L 39.890625 47.703125 
L 25.09375 47.703125 
L 15.828125 0 
L 6.78125 0 
L 16.109375 47.703125 
L 7.515625 47.703125 
L 8.796875 54.6875 
L 17.390625 54.6875 
L 18.109375 58.5 
Q 19.96875 68.171875 24.625 72.078125 
Q 29.296875 75.984375 39.3125 75.984375 
z
" id="DejaVuSans-Oblique-102"/>
    </defs>
    <g transform="translate(438.744 321.499602)scale(0.24 -0.24)">
     <use transform="translate(0 0.78125)" xlink:href="#DejaVuSans-Oblique-67"/>
     <use transform="translate(69.824219 -15.625)scale(0.7)" xlink:href="#DejaVuSans-Oblique-108"/>
     <use transform="translate(89.272461 -15.625)scale(0.7)" xlink:href="#DejaVuSans-Oblique-101"/>
     <use transform="translate(132.338867 -15.625)scale(0.7)" xlink:href="#DejaVuSans-Oblique-97"/>
     <use transform="translate(175.234375 -15.625)scale(0.7)" xlink:href="#DejaVuSans-Oblique-102"/>
    </g>
   </g>
   <g id="text_4">
    <!-- $C_{wood}$ -->
    <defs>
     <path d="M 8.5 54.6875 
L 17.390625 54.6875 
L 19.671875 10.6875 
L 40.09375 54.6875 
L 50.484375 54.6875 
L 53.515625 10.6875 
L 72.90625 54.6875 
L 81.890625 54.6875 
L 56.890625 0 
L 46.390625 0 
L 43.703125 45.3125 
L 22.796875 0 
L 12.203125 0 
z
" id="DejaVuSans-Oblique-119"/>
     <path d="M 25.390625 -1.421875 
Q 15.765625 -1.421875 10.171875 4.515625 
Q 4.59375 10.453125 4.59375 20.703125 
Q 4.59375 26.65625 6.515625 32.828125 
Q 8.453125 39.015625 11.53125 43.21875 
Q 16.359375 49.75 22.3125 52.875 
Q 28.265625 56 35.796875 56 
Q 45.125 56 50.859375 50.1875 
Q 56.59375 44.390625 56.59375 35.015625 
Q 56.59375 28.515625 54.6875 22.0625 
Q 52.78125 15.625 49.703125 11.375 
Q 44.921875 4.828125 38.96875 1.703125 
Q 33.015625 -1.421875 25.390625 -1.421875 
z
M 13.921875 21 
Q 13.921875 13.578125 17.015625 9.890625 
Q 20.125 6.203125 26.421875 6.203125 
Q 35.453125 6.203125 41.375 14.078125 
Q 47.3125 21.96875 47.3125 34.078125 
Q 47.3125 41.15625 44.140625 44.765625 
Q 40.96875 48.390625 34.8125 48.390625 
Q 29.734375 48.390625 25.78125 46.015625 
Q 21.828125 43.65625 18.703125 38.8125 
Q 16.40625 35.203125 15.15625 30.5625 
Q 13.921875 25.921875 13.921875 21 
z
" id="DejaVuSans-Oblique-111"/>
    </defs>
    <g transform="translate(549.408 525.0225)scale(0.24 -0.24)">
     <use transform="translate(0 0.78125)" xlink:href="#DejaVuSans-Oblique-67"/>
     <use transform="translate(69.824219 -15.625)scale(0.7)" xlink:href="#DejaVuSans-Oblique-119"/>
     <use transform="translate(127.075195 -15.625)scale(0.7)" xlink:href="#DejaVuSans-Oblique-111"/>
     <use transform="translate(169.902344 -15.625)scale(0.7)" xlink:href="#DejaVuSans-Oblique-111"/>
     <use transform="translate(212.729492 -15.625)scale(0.7)" xlink:href="#DejaVuSans-Oblique-100"/>
    </g>
   </g>
   <g id="text_5">
    <!-- $C_{root}$ -->
    <defs>
     <path d="M 44.578125 46.390625 
Q 43.21875 47.125 41.453125 47.515625 
Q 39.703125 47.90625 37.703125 47.90625 
Q 30.515625 47.90625 25.140625 42.453125 
Q 19.78125 37.015625 18.015625 27.875 
L 12.5 0 
L 3.515625 0 
L 14.203125 54.6875 
L 23.1875 54.6875 
L 21.484375 46.1875 
Q 25.046875 50.921875 30 53.453125 
Q 34.96875 56 40.578125 56 
Q 42.046875 56 43.453125 55.828125 
Q 44.875 55.671875 46.296875 55.28125 
z
" id="DejaVuSans-Oblique-114"/>
     <path d="M 42.28125 54.6875 
L 40.921875 47.703125 
L 23 47.703125 
L 17.1875 18.015625 
Q 16.890625 16.359375 16.75 15.234375 
Q 16.609375 14.109375 16.609375 13.484375 
Q 16.609375 10.359375 18.484375 8.9375 
Q 20.359375 7.515625 24.515625 7.515625 
L 33.59375 7.515625 
L 32.078125 0 
L 23.484375 0 
Q 15.484375 0 11.546875 3.125 
Q 7.625 6.25 7.625 12.59375 
Q 7.625 13.71875 7.765625 15.0625 
Q 7.90625 16.40625 8.203125 18.015625 
L 14.015625 47.703125 
L 6.390625 47.703125 
L 7.8125 54.6875 
L 15.28125 54.6875 
L 18.3125 70.21875 
L 27.296875 70.21875 
L 24.3125 54.6875 
z
" id="DejaVuSans-Oblique-116"/>
    </defs>
    <g transform="translate(437.304 728.545398)scale(0.24 -0.24)">
     <use transform="translate(0 0.78125)" xlink:href="#DejaVuSans-Oblique-67"/>
     <use transform="translate(69.824219 -15.625)scale(0.7)" xlink:href="#DejaVuSans-Oblique-114"/>
     <use transform="translate(98.603516 -15.625)scale(0.7)" xlink:href="#DejaVuSans-Oblique-111"/>
     <use transform="translate(141.430664 -15.625)scale(0.7)" xlink:href="#DejaVuSans-Oblique-111"/>
     <use transform="translate(184.257812 -15.625)scale(0.7)" xlink:href="#DejaVuSans-Oblique-116"/>
    </g>
   </g>
   <g id="text_6">
    <!-- $C_{labileRa}$ -->
    <defs>
     <path d="M 25.203125 64.796875 
L 20.21875 38.921875 
L 32.90625 38.921875 
Q 40.375 38.921875 44.984375 43.046875 
Q 49.609375 47.171875 49.609375 53.8125 
Q 49.609375 59.125 46.5 61.953125 
Q 43.40625 64.796875 37.59375 64.796875 
z
M 43.3125 35.015625 
Q 46.4375 34.28125 48.515625 31.390625 
Q 50.59375 28.515625 53.328125 19.921875 
L 59.515625 0 
L 49.125 0 
L 43.40625 18.703125 
Q 41.21875 25.921875 38.328125 28.359375 
Q 35.453125 30.8125 29.5 30.8125 
L 18.609375 30.8125 
L 12.59375 0 
L 2.6875 0 
L 16.890625 72.90625 
L 39.109375 72.90625 
Q 49.21875 72.90625 54.609375 68.328125 
Q 60.015625 63.765625 60.015625 55.171875 
Q 60.015625 47.5625 55.421875 41.984375 
Q 50.828125 36.421875 43.3125 35.015625 
z
" id="DejaVuSans-Oblique-82"/>
    </defs>
    <g transform="translate(185.736 728.545398)scale(0.24 -0.24)">
     <use transform="translate(0 0.78125)" xlink:href="#DejaVuSans-Oblique-67"/>
     <use transform="translate(69.824219 -15.625)scale(0.7)" xlink:href="#DejaVuSans-Oblique-108"/>
     <use transform="translate(89.272461 -15.625)scale(0.7)" xlink:href="#DejaVuSans-Oblique-97"/>
     <use transform="translate(132.167969 -15.625)scale(0.7)" xlink:href="#DejaVuSans-Oblique-98"/>
     <use transform="translate(176.601562 -15.625)scale(0.7)" xlink:href="#DejaVuSans-Oblique-105"/>
     <use transform="translate(196.049805 -15.625)scale(0.7)" xlink:href="#DejaVuSans-Oblique-108"/>
     <use transform="translate(215.498047 -15.625)scale(0.7)" xlink:href="#DejaVuSans-Oblique-101"/>
     <use transform="translate(258.564453 -15.625)scale(0.7)" xlink:href="#DejaVuSans-Oblique-82"/>
     <use transform="translate(307.202148 -15.625)scale(0.7)" xlink:href="#DejaVuSans-Oblique-97"/>
    </g>
   </g>
   <g id="legend_1">
    <g id="patch_20">
     <path d="M 179.926563 126.358125 
L 511.273438 126.358125 
Q 513.273438 126.358125 513.273438 124.358125 
L 513.273438 110.68 
Q 513.273438 108.68 511.273438 108.68 
L 179.926563 108.68 
Q 177.926563 108.68 177.926563 110.68 
L 177.926563 124.358125 
Q 177.926563 126.358125 179.926563 126.358125 
z
" style="fill:#ffffff;opacity:0.8;stroke:#cccccc;stroke-linejoin:miter;"/>
    </g>
    <g id="patch_21">
     <path d="M 181.926563 120.278437 
L 201.926563 120.278437 
L 201.926563 113.278437 
L 181.926563 113.278437 
z
" style="fill:#0000ff;opacity:0.5;stroke:#0000ff;stroke-linejoin:miter;"/>
    </g>
    <g id="text_7">
     <!-- linear -->
     <defs>
      <path d="M 9.421875 75.984375 
L 18.40625 75.984375 
L 18.40625 0 
L 9.421875 0 
z
" id="DejaVuSans-108"/>
      <path d="M 9.421875 54.6875 
L 18.40625 54.6875 
L 18.40625 0 
L 9.421875 0 
z
M 9.421875 75.984375 
L 18.40625 75.984375 
L 18.40625 64.59375 
L 9.421875 64.59375 
z
" id="DejaVuSans-105"/>
      <path d="M 54.890625 33.015625 
L 54.890625 0 
L 45.90625 0 
L 45.90625 32.71875 
Q 45.90625 40.484375 42.875 44.328125 
Q 39.84375 48.1875 33.796875 48.1875 
Q 26.515625 48.1875 22.3125 43.546875 
Q 18.109375 38.921875 18.109375 30.90625 
L 18.109375 0 
L 9.078125 0 
L 9.078125 54.6875 
L 18.109375 54.6875 
L 18.109375 46.1875 
Q 21.34375 51.125 25.703125 53.5625 
Q 30.078125 56 35.796875 56 
Q 45.21875 56 50.046875 50.171875 
Q 54.890625 44.34375 54.890625 33.015625 
z
" id="DejaVuSans-110"/>
      <path d="M 56.203125 29.59375 
L 56.203125 25.203125 
L 14.890625 25.203125 
Q 15.484375 15.921875 20.484375 11.0625 
Q 25.484375 6.203125 34.421875 6.203125 
Q 39.59375 6.203125 44.453125 7.46875 
Q 49.3125 8.734375 54.109375 11.28125 
L 54.109375 2.78125 
Q 49.265625 0.734375 44.1875 -0.34375 
Q 39.109375 -1.421875 33.890625 -1.421875 
Q 20.796875 -1.421875 13.15625 6.1875 
Q 5.515625 13.8125 5.515625 26.8125 
Q 5.515625 40.234375 12.765625 48.109375 
Q 20.015625 56 32.328125 56 
Q 43.359375 56 49.78125 48.890625 
Q 56.203125 41.796875 56.203125 29.59375 
z
M 47.21875 32.234375 
Q 47.125 39.59375 43.09375 43.984375 
Q 39.0625 48.390625 32.421875 48.390625 
Q 24.90625 48.390625 20.390625 44.140625 
Q 15.875 39.890625 15.1875 32.171875 
z
" id="DejaVuSans-101"/>
      <path d="M 34.28125 27.484375 
Q 23.390625 27.484375 19.1875 25 
Q 14.984375 22.515625 14.984375 16.5 
Q 14.984375 11.71875 18.140625 8.90625 
Q 21.296875 6.109375 26.703125 6.109375 
Q 34.1875 6.109375 38.703125 11.40625 
Q 43.21875 16.703125 43.21875 25.484375 
L 43.21875 27.484375 
z
M 52.203125 31.203125 
L 52.203125 0 
L 43.21875 0 
L 43.21875 8.296875 
Q 40.140625 3.328125 35.546875 0.953125 
Q 30.953125 -1.421875 24.3125 -1.421875 
Q 15.921875 -1.421875 10.953125 3.296875 
Q 6 8.015625 6 15.921875 
Q 6 25.140625 12.171875 29.828125 
Q 18.359375 34.515625 30.609375 34.515625 
L 43.21875 34.515625 
L 43.21875 35.40625 
Q 43.21875 41.609375 39.140625 45 
Q 35.0625 48.390625 27.6875 48.390625 
Q 23 48.390625 18.546875 47.265625 
Q 14.109375 46.140625 10.015625 43.890625 
L 10.015625 52.203125 
Q 14.9375 54.109375 19.578125 55.046875 
Q 24.21875 56 28.609375 56 
Q 40.484375 56 46.34375 49.84375 
Q 52.203125 43.703125 52.203125 31.203125 
z
" id="DejaVuSans-97"/>
      <path d="M 41.109375 46.296875 
Q 39.59375 47.171875 37.8125 47.578125 
Q 36.03125 48 33.890625 48 
Q 26.265625 48 22.1875 43.046875 
Q 18.109375 38.09375 18.109375 28.8125 
L 18.109375 0 
L 9.078125 0 
L 9.078125 54.6875 
L 18.109375 54.6875 
L 18.109375 46.1875 
Q 20.953125 51.171875 25.484375 53.578125 
Q 30.03125 56 36.53125 56 
Q 37.453125 56 38.578125 55.875 
Q 39.703125 55.765625 41.0625 55.515625 
z
" id="DejaVuSans-114"/>
     </defs>
     <g transform="translate(209.926563 120.278437)scale(0.1 -0.1)">
      <use xlink:href="#DejaVuSans-108"/>
      <use x="27.783203" xlink:href="#DejaVuSans-105"/>
      <use x="55.566406" xlink:href="#DejaVuSans-110"/>
      <use x="118.945312" xlink:href="#DejaVuSans-101"/>
      <use x="180.46875" xlink:href="#DejaVuSans-97"/>
      <use x="241.748047" xlink:href="#DejaVuSans-114"/>
     </g>
    </g>
    <g id="patch_22">
     <path d="M 258.2125 120.278437 
L 278.2125 120.278437 
L 278.2125 113.278437 
L 258.2125 113.278437 
z
" style="fill:#008000;opacity:0.5;stroke:#008000;stroke-linejoin:miter;"/>
    </g>
    <g id="text_8">
     <!-- nonlinear -->
     <defs>
      <path d="M 30.609375 48.390625 
Q 23.390625 48.390625 19.1875 42.75 
Q 14.984375 37.109375 14.984375 27.296875 
Q 14.984375 17.484375 19.15625 11.84375 
Q 23.34375 6.203125 30.609375 6.203125 
Q 37.796875 6.203125 41.984375 11.859375 
Q 46.1875 17.53125 46.1875 27.296875 
Q 46.1875 37.015625 41.984375 42.703125 
Q 37.796875 48.390625 30.609375 48.390625 
z
M 30.609375 56 
Q 42.328125 56 49.015625 48.375 
Q 55.71875 40.765625 55.71875 27.296875 
Q 55.71875 13.875 49.015625 6.21875 
Q 42.328125 -1.421875 30.609375 -1.421875 
Q 18.84375 -1.421875 12.171875 6.21875 
Q 5.515625 13.875 5.515625 27.296875 
Q 5.515625 40.765625 12.171875 48.375 
Q 18.84375 56 30.609375 56 
z
" id="DejaVuSans-111"/>
     </defs>
     <g transform="translate(286.2125 120.278437)scale(0.1 -0.1)">
      <use xlink:href="#DejaVuSans-110"/>
      <use x="63.378906" xlink:href="#DejaVuSans-111"/>
      <use x="124.560547" xlink:href="#DejaVuSans-110"/>
      <use x="187.939453" xlink:href="#DejaVuSans-108"/>
      <use x="215.722656" xlink:href="#DejaVuSans-105"/>
      <use x="243.505859" xlink:href="#DejaVuSans-110"/>
      <use x="306.884766" xlink:href="#DejaVuSans-101"/>
      <use x="368.408203" xlink:href="#DejaVuSans-97"/>
      <use x="429.6875" xlink:href="#DejaVuSans-114"/>
     </g>
    </g>
    <g id="patch_23">
     <path d="M 353.292188 120.278437 
L 373.292188 120.278437 
L 373.292188 113.278437 
L 353.292188 113.278437 
z
" style="fill:#ff0000;opacity:0.5;stroke:#ff0000;stroke-linejoin:miter;"/>
    </g>
    <g id="text_9">
     <!-- no substrate dependence -->
     <defs>
      <path id="DejaVuSans-32"/>
      <path d="M 44.28125 53.078125 
L 44.28125 44.578125 
Q 40.484375 46.53125 36.375 47.5 
Q 32.28125 48.484375 27.875 48.484375 
Q 21.1875 48.484375 17.84375 46.4375 
Q 14.5 44.390625 14.5 40.28125 
Q 14.5 37.15625 16.890625 35.375 
Q 19.28125 33.59375 26.515625 31.984375 
L 29.59375 31.296875 
Q 39.15625 29.25 43.1875 25.515625 
Q 47.21875 21.78125 47.21875 15.09375 
Q 47.21875 7.46875 41.1875 3.015625 
Q 35.15625 -1.421875 24.609375 -1.421875 
Q 20.21875 -1.421875 15.453125 -0.5625 
Q 10.6875 0.296875 5.421875 2 
L 5.421875 11.28125 
Q 10.40625 8.6875 15.234375 7.390625 
Q 20.0625 6.109375 24.8125 6.109375 
Q 31.15625 6.109375 34.5625 8.28125 
Q 37.984375 10.453125 37.984375 14.40625 
Q 37.984375 18.0625 35.515625 20.015625 
Q 33.0625 21.96875 24.703125 23.78125 
L 21.578125 24.515625 
Q 13.234375 26.265625 9.515625 29.90625 
Q 5.8125 33.546875 5.8125 39.890625 
Q 5.8125 47.609375 11.28125 51.796875 
Q 16.75 56 26.8125 56 
Q 31.78125 56 36.171875 55.265625 
Q 40.578125 54.546875 44.28125 53.078125 
z
" id="DejaVuSans-115"/>
      <path d="M 8.5 21.578125 
L 8.5 54.6875 
L 17.484375 54.6875 
L 17.484375 21.921875 
Q 17.484375 14.15625 20.5 10.265625 
Q 23.53125 6.390625 29.59375 6.390625 
Q 36.859375 6.390625 41.078125 11.03125 
Q 45.3125 15.671875 45.3125 23.6875 
L 45.3125 54.6875 
L 54.296875 54.6875 
L 54.296875 0 
L 45.3125 0 
L 45.3125 8.40625 
Q 42.046875 3.421875 37.71875 1 
Q 33.40625 -1.421875 27.6875 -1.421875 
Q 18.265625 -1.421875 13.375 4.4375 
Q 8.5 10.296875 8.5 21.578125 
z
M 31.109375 56 
z
" id="DejaVuSans-117"/>
      <path d="M 48.6875 27.296875 
Q 48.6875 37.203125 44.609375 42.84375 
Q 40.53125 48.484375 33.40625 48.484375 
Q 26.265625 48.484375 22.1875 42.84375 
Q 18.109375 37.203125 18.109375 27.296875 
Q 18.109375 17.390625 22.1875 11.75 
Q 26.265625 6.109375 33.40625 6.109375 
Q 40.53125 6.109375 44.609375 11.75 
Q 48.6875 17.390625 48.6875 27.296875 
z
M 18.109375 46.390625 
Q 20.953125 51.265625 25.265625 53.625 
Q 29.59375 56 35.59375 56 
Q 45.5625 56 51.78125 48.09375 
Q 58.015625 40.1875 58.015625 27.296875 
Q 58.015625 14.40625 51.78125 6.484375 
Q 45.5625 -1.421875 35.59375 -1.421875 
Q 29.59375 -1.421875 25.265625 0.953125 
Q 20.953125 3.328125 18.109375 8.203125 
L 18.109375 0 
L 9.078125 0 
L 9.078125 75.984375 
L 18.109375 75.984375 
z
" id="DejaVuSans-98"/>
      <path d="M 18.3125 70.21875 
L 18.3125 54.6875 
L 36.8125 54.6875 
L 36.8125 47.703125 
L 18.3125 47.703125 
L 18.3125 18.015625 
Q 18.3125 11.328125 20.140625 9.421875 
Q 21.96875 7.515625 27.59375 7.515625 
L 36.8125 7.515625 
L 36.8125 0 
L 27.59375 0 
Q 17.1875 0 13.234375 3.875 
Q 9.28125 7.765625 9.28125 18.015625 
L 9.28125 47.703125 
L 2.6875 47.703125 
L 2.6875 54.6875 
L 9.28125 54.6875 
L 9.28125 70.21875 
z
" id="DejaVuSans-116"/>
      <path d="M 45.40625 46.390625 
L 45.40625 75.984375 
L 54.390625 75.984375 
L 54.390625 0 
L 45.40625 0 
L 45.40625 8.203125 
Q 42.578125 3.328125 38.25 0.953125 
Q 33.9375 -1.421875 27.875 -1.421875 
Q 17.96875 -1.421875 11.734375 6.484375 
Q 5.515625 14.40625 5.515625 27.296875 
Q 5.515625 40.1875 11.734375 48.09375 
Q 17.96875 56 27.875 56 
Q 33.9375 56 38.25 53.625 
Q 42.578125 51.265625 45.40625 46.390625 
z
M 14.796875 27.296875 
Q 14.796875 17.390625 18.875 11.75 
Q 22.953125 6.109375 30.078125 6.109375 
Q 37.203125 6.109375 41.296875 11.75 
Q 45.40625 17.390625 45.40625 27.296875 
Q 45.40625 37.203125 41.296875 42.84375 
Q 37.203125 48.484375 30.078125 48.484375 
Q 22.953125 48.484375 18.875 42.84375 
Q 14.796875 37.203125 14.796875 27.296875 
z
" id="DejaVuSans-100"/>
      <path d="M 18.109375 8.203125 
L 18.109375 -20.796875 
L 9.078125 -20.796875 
L 9.078125 54.6875 
L 18.109375 54.6875 
L 18.109375 46.390625 
Q 20.953125 51.265625 25.265625 53.625 
Q 29.59375 56 35.59375 56 
Q 45.5625 56 51.78125 48.09375 
Q 58.015625 40.1875 58.015625 27.296875 
Q 58.015625 14.40625 51.78125 6.484375 
Q 45.5625 -1.421875 35.59375 -1.421875 
Q 29.59375 -1.421875 25.265625 0.953125 
Q 20.953125 3.328125 18.109375 8.203125 
z
M 48.6875 27.296875 
Q 48.6875 37.203125 44.609375 42.84375 
Q 40.53125 48.484375 33.40625 48.484375 
Q 26.265625 48.484375 22.1875 42.84375 
Q 18.109375 37.203125 18.109375 27.296875 
Q 18.109375 17.390625 22.1875 11.75 
Q 26.265625 6.109375 33.40625 6.109375 
Q 40.53125 6.109375 44.609375 11.75 
Q 48.6875 17.390625 48.6875 27.296875 
z
" id="DejaVuSans-112"/>
      <path d="M 48.78125 52.59375 
L 48.78125 44.1875 
Q 44.96875 46.296875 41.140625 47.34375 
Q 37.3125 48.390625 33.40625 48.390625 
Q 24.65625 48.390625 19.8125 42.84375 
Q 14.984375 37.3125 14.984375 27.296875 
Q 14.984375 17.28125 19.8125 11.734375 
Q 24.65625 6.203125 33.40625 6.203125 
Q 37.3125 6.203125 41.140625 7.25 
Q 44.96875 8.296875 48.78125 10.40625 
L 48.78125 2.09375 
Q 45.015625 0.34375 40.984375 -0.53125 
Q 36.96875 -1.421875 32.421875 -1.421875 
Q 20.0625 -1.421875 12.78125 6.34375 
Q 5.515625 14.109375 5.515625 27.296875 
Q 5.515625 40.671875 12.859375 48.328125 
Q 20.21875 56 33.015625 56 
Q 37.15625 56 41.109375 55.140625 
Q 45.0625 54.296875 48.78125 52.59375 
z
" id="DejaVuSans-99"/>
     </defs>
     <g transform="translate(381.292188 120.278437)scale(0.1 -0.1)">
      <use xlink:href="#DejaVuSans-110"/>
      <use x="63.378906" xlink:href="#DejaVuSans-111"/>
      <use x="124.560547" xlink:href="#DejaVuSans-32"/>
      <use x="156.347656" xlink:href="#DejaVuSans-115"/>
      <use x="208.447266" xlink:href="#DejaVuSans-117"/>
      <use x="271.826172" xlink:href="#DejaVuSans-98"/>
      <use x="335.302734" xlink:href="#DejaVuSans-115"/>
      <use x="387.402344" xlink:href="#DejaVuSans-116"/>
      <use x="426.611328" xlink:href="#DejaVuSans-114"/>
      <use x="467.724609" xlink:href="#DejaVuSans-97"/>
      <use x="529.003906" xlink:href="#DejaVuSans-116"/>
      <use x="568.212891" xlink:href="#DejaVuSans-101"/>
      <use x="629.736328" xlink:href="#DejaVuSans-32"/>
      <use x="661.523438" xlink:href="#DejaVuSans-100"/>
      <use x="725" xlink:href="#DejaVuSans-101"/>
      <use x="786.523438" xlink:href="#DejaVuSans-112"/>
      <use x="850" xlink:href="#DejaVuSans-101"/>
      <use x="911.523438" xlink:href="#DejaVuSans-110"/>
      <use x="974.902344" xlink:href="#DejaVuSans-100"/>
      <use x="1038.378906" xlink:href="#DejaVuSans-101"/>
      <use x="1099.902344" xlink:href="#DejaVuSans-110"/>
      <use x="1163.28125" xlink:href="#DejaVuSans-99"/>
      <use x="1218.261719" xlink:href="#DejaVuSans-101"/>
     </g>
    </g>
   </g>
  </g>
 </g>
 <defs>
  <clipPath id="pa2c78daa1c">
   <rect height="691.2" width="691.2" x="0" y="172.8"/>
  </clipPath>
 </defs>
</svg>
