<?xml version="1.0" encoding="utf-8" standalone="no"?>
<!DOCTYPE svg PUBLIC "-//W3C//DTD SVG 1.1//EN"
  "http://www.w3.org/Graphics/SVG/1.1/DTD/svg11.dtd">
<!-- Created with matplotlib (http://matplotlib.org/) -->
<svg height="216pt" version="1.1" viewBox="0 0 216 216" width="216pt" xmlns="http://www.w3.org/2000/svg" xmlns:xlink="http://www.w3.org/1999/xlink">
 <defs>
  <style type="text/css">
*{stroke-linecap:butt;stroke-linejoin:round;}
  </style>
 </defs>
 <g id="figure_1">
  <g id="patch_1">
   <path d="M 0 216 
L 216 216 
L 216 0 
L 0 0 
z
" style="fill:none;"/>
  </g>
  <g id="axes_1">
   <g id="patch_2">
    <path clip-path="url(#p14a53b87e8)" d="M 53.784 122.3856 
C 57.3356 122.3856 60.742214 120.983638 63.253574 118.48848 
C 65.764934 115.993322 67.176 112.608686 67.176 109.08 
C 67.176 105.551314 65.764934 102.166678 63.253574 99.67152 
C 60.742214 97.176362 57.3356 95.7744 53.784 95.7744 
C 50.2324 95.7744 46.825786 97.176362 44.314426 99.67152 
C 41.803066 102.166678 40.392 105.551314 40.392 109.08 
C 40.392 112.608686 41.803066 115.993322 44.314426 118.48848 
C 46.825786 120.983638 50.2324 122.3856 53.784 122.3856 
z
" style="fill:#0000ff;opacity:0.3;stroke:#0000ff;stroke-linejoin:miter;"/>
   </g>
   <g id="patch_3">
    <path clip-path="url(#p14a53b87e8)" d="M 33.04957 95.860932 
Q 33.784721 96.432651 34.546127 96.958055 
L 35.824014 95.106163 
Q 37.497856 98.5678 40.306783 101.737015 
Q 36.084524 102.091618 31.564389 101.279136 
L 32.842276 99.427244 
Q 32.010511 98.853289 31.207879 98.22909 
L 33.04957 95.860932 
z
" style="fill:#0000ff;opacity:0.5;stroke:#0000ff;stroke-linecap:round;"/>
   </g>
   <g id="patch_4">
    <path clip-path="url(#p14a53b87e8)" d="M 82.242 73.412903 
C 85.7936 73.412903 89.200214 72.010941 91.711574 69.515783 
C 94.222934 67.020625 95.634 63.635989 95.634 60.107303 
C 95.634 56.578616 94.222934 53.193981 91.711574 50.698823 
C 89.200214 48.203665 85.7936 46.801703 82.242 46.801703 
C 78.6904 46.801703 75.283786 48.203665 72.772426 50.698823 
C 70.261066 53.193981 68.85 56.578616 68.85 60.107303 
C 68.85 63.635989 70.261066 67.020625 72.772426 69.515783 
C 75.283786 72.010941 78.6904 73.412903 82.242 73.412903 
z
" style="fill:#0000ff;opacity:0.3;stroke:#0000ff;stroke-linejoin:miter;"/>
   </g>
   <g id="patch_5">
    <path clip-path="url(#p14a53b87e8)" d="M 68.182993 53.36797 
Q 67.447842 52.796251 66.686437 52.270848 
L 65.408549 54.12274 
Q 63.734708 50.661103 60.92578 47.491888 
Q 65.14804 47.137285 69.668175 47.949767 
L 68.390287 49.801659 
Q 69.222053 50.375614 70.024685 50.999813 
L 68.182993 53.36797 
z
" style="fill:#0000ff;opacity:0.5;stroke:#0000ff;stroke-linecap:round;"/>
   </g>
   <g id="patch_6">
    <path clip-path="url(#p14a53b87e8)" d="M 139.158 73.412903 
C 142.7096 73.412903 146.116214 72.010941 148.627574 69.515783 
C 151.138934 67.020625 152.55 63.635989 152.55 60.107303 
C 152.55 56.578616 151.138934 53.193981 148.627574 50.698823 
C 146.116214 48.203665 142.7096 46.801703 139.158 46.801703 
C 135.6064 46.801703 132.199786 48.203665 129.688426 50.698823 
C 127.177066 53.193981 125.766 56.578616 125.766 60.107303 
C 125.766 63.635989 127.177066 67.020625 129.688426 69.515783 
C 132.199786 72.010941 135.6064 73.412903 139.158 73.412903 
z
" style="fill:#0000ff;opacity:0.3;stroke:#0000ff;stroke-linejoin:miter;"/>
   </g>
   <g id="patch_7">
    <path clip-path="url(#p14a53b87e8)" d="M 138.008554 44.620877 
Q 138.133675 43.731742 138.20905 42.842864 
L 135.967096 42.652752 
Q 138.14146 39.482488 139.494073 35.469003 
Q 141.901943 38.95612 143.440276 43.286459 
L 141.198322 43.096347 
Q 141.115948 44.067764 140.979284 45.038926 
L 138.008554 44.620877 
z
" style="fill:#0000ff;opacity:0.5;stroke:#0000ff;stroke-linecap:round;"/>
   </g>
   <g id="patch_8">
    <path clip-path="url(#p14a53b87e8)" d="M 167.616 122.3856 
C 171.1676 122.3856 174.574214 120.983638 177.085574 118.48848 
C 179.596934 115.993322 181.008 112.608686 181.008 109.08 
C 181.008 105.551314 179.596934 102.166678 177.085574 99.67152 
C 174.574214 97.176362 171.1676 95.7744 167.616 95.7744 
C 164.0644 95.7744 160.657786 97.176362 158.146426 99.67152 
C 155.635066 102.166678 154.224 105.551314 154.224 109.08 
C 154.224 112.608686 155.635066 115.993322 158.146426 118.48848 
C 160.657786 120.983638 164.0644 122.3856 167.616 122.3856 
z
" style="fill:#0000ff;opacity:0.3;stroke:#0000ff;stroke-linejoin:miter;"/>
   </g>
   <g id="patch_9">
    <path clip-path="url(#p14a53b87e8)" d="M 180.531014 100.346348 
Q 181.395663 100.000381 182.233585 99.60837 
L 181.280134 97.570373 
Q 185.113286 97.873058 189.267051 97.048296 
Q 187.441589 100.872025 184.458305 104.363695 
L 183.504854 102.325699 
Q 182.5895 102.753936 181.645483 103.131659 
L 180.531014 100.346348 
z
" style="fill:#0000ff;opacity:0.5;stroke:#0000ff;stroke-linecap:round;"/>
   </g>
   <g id="patch_10">
    <path clip-path="url(#p14a53b87e8)" d="M 139.158 171.358297 
C 142.7096 171.358297 146.116214 169.956335 148.627574 167.461177 
C 151.138934 164.966019 152.55 161.581384 152.55 158.052697 
C 152.55 154.524011 151.138934 151.139375 148.627574 148.644217 
C 146.116214 146.149059 142.7096 144.747097 139.158 144.747097 
C 135.6064 144.747097 132.199786 146.149059 129.688426 148.644217 
C 127.177066 151.139375 125.766 154.524011 125.766 158.052697 
C 125.766 161.581384 127.177066 164.966019 129.688426 167.461177 
C 132.199786 169.956335 135.6064 171.358297 139.158 171.358297 
z
" style="fill:#0000ff;opacity:0.3;stroke:#0000ff;stroke-linejoin:miter;"/>
   </g>
   <g id="patch_11">
    <path clip-path="url(#p14a53b87e8)" d="M 153.217007 164.79203 
Q 153.952158 165.363749 154.713563 165.889152 
L 155.991451 164.03726 
Q 157.665292 167.498897 160.47422 170.668112 
Q 156.25196 171.022715 151.731825 170.210233 
L 153.009713 168.358341 
Q 152.177947 167.784386 151.375315 167.160187 
L 153.217007 164.79203 
z
" style="fill:#0000ff;opacity:0.5;stroke:#0000ff;stroke-linecap:round;"/>
   </g>
   <g id="patch_12">
    <path clip-path="url(#p14a53b87e8)" d="M 82.242 171.358297 
C 85.7936 171.358297 89.200214 169.956335 91.711574 167.461177 
C 94.222934 164.966019 95.634 161.581384 95.634 158.052697 
C 95.634 154.524011 94.222934 151.139375 91.711574 148.644217 
C 89.200214 146.149059 85.7936 144.747097 82.242 144.747097 
C 78.6904 144.747097 75.283786 146.149059 72.772426 148.644217 
C 70.261066 151.139375 68.85 154.524011 68.85 158.052697 
C 68.85 161.581384 70.261066 164.966019 72.772426 167.461177 
C 75.283786 169.956335 78.6904 171.358297 82.242 171.358297 
z
" style="fill:#0000ff;opacity:0.3;stroke:#0000ff;stroke-linejoin:miter;"/>
   </g>
   <g id="patch_13">
    <path clip-path="url(#p14a53b87e8)" d="M 83.391446 173.539123 
Q 83.266325 174.428258 83.19095 175.317136 
L 85.432904 175.507248 
Q 83.25854 178.677512 81.905927 182.690997 
Q 79.498057 179.20388 77.959724 174.873541 
L 80.201678 175.063653 
Q 80.284052 174.092236 80.420716 173.121074 
L 83.391446 173.539123 
z
" style="fill:#0000ff;opacity:0.5;stroke:#0000ff;stroke-linecap:round;"/>
   </g>
   <g id="patch_14">
    <path clip-path="url(#p14a53b87e8)" d="M 62.420328 96.263628 
Q 68.675433 89.125285 72.92835 80.769963 
L 70.923165 79.74931 
Q 74.208143 77.438666 77.339247 74.611602 
Q 77.706833 78.812524 77.607115 83.151487 
L 75.60193 82.130833 
Q 71.178897 90.820368 64.676639 98.240762 
L 62.420328 96.263628 
z
" style="fill:#0000ff;opacity:0.5;stroke:#0000ff;stroke-linecap:round;"/>
   </g>
   <g id="patch_15">
    <path clip-path="url(#p14a53b87e8)" d="M 67.699988 102.254309 
Q 96.706867 92.336642 120.69913 73.589093 
L 119.313766 71.816167 
Q 123.356217 71.037892 127.441106 70.03384 
Q 125.782592 73.899096 123.931646 77.72592 
L 122.546282 75.952994 
Q 98.15572 95.011774 68.670548 105.092973 
L 67.699988 102.254309 
z
" style="fill:#0000ff;opacity:0.5;stroke:#0000ff;stroke-linecap:round;"/>
   </g>
   <g id="patch_16">
    <path clip-path="url(#p14a53b87e8)" d="M 69.256941 110.078505 
Q 107.033973 117.417381 144.850662 111.593053 
L 144.508167 109.369273 
Q 148.428126 110.663162 152.470237 111.81243 
Q 149.120713 114.349683 145.649817 116.781873 
L 145.307322 114.558093 
Q 106.974499 120.461913 68.684832 113.023448 
L 69.256941 110.078505 
z
" style="fill:#0000ff;opacity:0.5;stroke:#0000ff;stroke-linecap:round;"/>
   </g>
   <g id="patch_17">
    <path clip-path="url(#p14a53b87e8)" d="M 66.68101 117.634904 
Q 89.884692 137.666211 118.178623 148.911612 
L 119.009652 146.820705 
Q 121.722079 149.917232 124.650823 152.936418 
Q 120.477176 153.456158 116.239554 153.790394 
L 117.070584 151.699487 
Q 88.306918 140.267391 64.720612 119.905772 
L 66.68101 117.634904 
z
" style="fill:#008000;opacity:0.5;stroke:#008000;stroke-linecap:round;"/>
   </g>
   <g id="patch_18">
    <path clip-path="url(#p14a53b87e8)" d="M 60.631068 122.908471 
Q 63.734075 131.872281 68.88389 139.700165 
L 70.76359 138.463546 
Q 71.145474 142.463538 72.052862 146.58555 
Q 68.219511 144.823025 64.497922 142.585609 
L 66.377623 141.34899 
Q 61.021766 133.207917 57.796125 123.889845 
L 60.631068 122.908471 
z
" style="fill:#008000;opacity:0.5;stroke:#008000;stroke-linecap:round;"/>
   </g>
   <g id="patch_19">
    <path clip-path="url(#p14a53b87e8)" d="M 73.605672 72.923675 
Q 67.350567 80.062017 63.09765 88.41734 
L 65.102835 89.437993 
Q 61.817857 91.748637 58.686753 94.5757 
Q 58.319167 90.374778 58.418885 86.035816 
L 60.42407 87.056469 
Q 64.847103 78.366934 71.349361 70.946541 
L 73.605672 72.923675 
z
" style="fill:#0000ff;opacity:0.5;stroke:#0000ff;stroke-linecap:round;"/>
   </g>
   <g id="text_1">
    <!-- $C_{A}$ -->
    <defs>
     <path d="M 69.484375 67.28125 
L 67.484375 56.890625 
Q 62.796875 61.625 57.546875 63.921875 
Q 52.296875 66.21875 46.1875 66.21875 
Q 37.84375 66.21875 31.515625 62.203125 
Q 25.203125 58.203125 20.609375 50 
Q 17.671875 44.734375 16.125 38.84375 
Q 14.59375 32.953125 14.59375 27 
Q 14.59375 17.046875 19.75 11.8125 
Q 24.90625 6.59375 34.71875 6.59375 
Q 41.5 6.59375 47.75 8.765625 
Q 54 10.9375 59.90625 15.28125 
L 57.625 3.609375 
Q 51.8125 1.125 45.875 -0.140625 
Q 39.9375 -1.421875 33.984375 -1.421875 
Q 19.96875 -1.421875 12.078125 6.1875 
Q 4.203125 13.8125 4.203125 27.390625 
Q 4.203125 36.078125 7.203125 44.46875 
Q 10.203125 52.875 15.828125 59.8125 
Q 21.78125 67.1875 29.421875 70.703125 
Q 37.0625 74.21875 47.21875 74.21875 
Q 53.46875 74.21875 59.0625 72.484375 
Q 64.65625 70.75 69.484375 67.28125 
z
" id="DejaVuSans-Oblique-43"/>
     <path d="M 36.8125 72.90625 
L 48 72.90625 
L 61.53125 0 
L 51.21875 0 
L 48.1875 18.703125 
L 15.375 18.703125 
L 5.078125 0 
L -5.328125 0 
z
M 40.375 63.1875 
L 19.921875 26.90625 
L 46.6875 26.90625 
z
" id="DejaVuSans-Oblique-41"/>
    </defs>
    <g transform="translate(44.104 113.495)scale(0.16 -0.16)">
     <use transform="translate(0 0.78125)" xlink:href="#DejaVuSans-Oblique-43"/>
     <use transform="translate(69.824219 -15.625)scale(0.7)" xlink:href="#DejaVuSans-Oblique-41"/>
    </g>
   </g>
   <g id="text_2">
    <!-- $C_{S}$ -->
    <defs>
     <path d="M 60.296875 70.515625 
L 58.40625 60.890625 
Q 53.46875 63.53125 48.609375 64.875 
Q 43.75 66.21875 39.203125 66.21875 
Q 30.375 66.21875 25.140625 62.359375 
Q 19.921875 58.5 19.921875 52.09375 
Q 19.921875 48.578125 21.84375 46.703125 
Q 23.78125 44.828125 31.78125 42.671875 
L 37.703125 41.21875 
Q 47.703125 38.625 51.609375 34.640625 
Q 55.515625 30.671875 55.515625 23.484375 
Q 55.515625 12.453125 46.84375 5.515625 
Q 38.1875 -1.421875 24.03125 -1.421875 
Q 18.21875 -1.421875 12.359375 -0.265625 
Q 6.5 0.875 0.59375 3.21875 
L 2.59375 13.375 
Q 8.015625 10.015625 13.453125 8.296875 
Q 18.890625 6.59375 24.3125 6.59375 
Q 33.546875 6.59375 39.109375 10.6875 
Q 44.671875 14.796875 44.671875 21.390625 
Q 44.671875 25.78125 42.453125 28.046875 
Q 40.234375 30.328125 32.90625 32.171875 
L 27 33.6875 
Q 16.890625 36.328125 13.203125 39.765625 
Q 9.515625 43.21875 9.515625 49.421875 
Q 9.515625 60.296875 17.890625 67.25 
Q 26.265625 74.21875 39.703125 74.21875 
Q 44.921875 74.21875 50.046875 73.28125 
Q 55.171875 72.359375 60.296875 70.515625 
z
" id="DejaVuSans-Oblique-53"/>
    </defs>
    <g transform="translate(72.882 64.522303)scale(0.16 -0.16)">
     <use transform="translate(0 0.78125)" xlink:href="#DejaVuSans-Oblique-43"/>
     <use transform="translate(69.824219 -15.625)scale(0.7)" xlink:href="#DejaVuSans-Oblique-53"/>
    </g>
   </g>
   <g id="text_3">
    <!-- $C_{L}$ -->
    <defs>
     <path d="M 16.796875 72.90625 
L 26.703125 72.90625 
L 14.203125 8.203125 
L 49.703125 8.203125 
L 48.09375 0 
L 2.6875 0 
z
" id="DejaVuSans-Oblique-4c"/>
    </defs>
    <g transform="translate(130.198 64.522303)scale(0.16 -0.16)">
     <use transform="translate(0 0.78125)" xlink:href="#DejaVuSans-Oblique-43"/>
     <use transform="translate(69.824219 -15.625)scale(0.7)" xlink:href="#DejaVuSans-Oblique-4c"/>
    </g>
   </g>
   <g id="text_4">
    <!-- $C_{R}$ -->
    <defs>
     <path d="M 25.203125 64.796875 
L 20.21875 38.921875 
L 32.90625 38.921875 
Q 40.375 38.921875 44.984375 43.046875 
Q 49.609375 47.171875 49.609375 53.8125 
Q 49.609375 59.125 46.5 61.953125 
Q 43.40625 64.796875 37.59375 64.796875 
z
M 43.3125 35.015625 
Q 46.4375 34.28125 48.515625 31.390625 
Q 50.59375 28.515625 53.328125 19.921875 
L 59.515625 0 
L 49.125 0 
L 43.40625 18.703125 
Q 41.21875 25.921875 38.328125 28.359375 
Q 35.453125 30.8125 29.5 30.8125 
L 18.609375 30.8125 
L 12.59375 0 
L 2.6875 0 
L 16.890625 72.90625 
L 39.109375 72.90625 
Q 49.21875 72.90625 54.609375 68.328125 
Q 60.015625 63.765625 60.015625 55.171875 
Q 60.015625 47.5625 55.421875 41.984375 
Q 50.828125 36.421875 43.3125 35.015625 
z
" id="DejaVuSans-Oblique-52"/>
    </defs>
    <g transform="translate(157.856 113.495)scale(0.16 -0.16)">
     <use transform="translate(0 0.78125)" xlink:href="#DejaVuSans-Oblique-43"/>
     <use transform="translate(69.824219 -15.625)scale(0.7)" xlink:href="#DejaVuSans-Oblique-52"/>
    </g>
   </g>
   <g id="text_5">
    <!-- $C_{WL}$ -->
    <defs>
     <path d="M 9.625 72.90625 
L 19.1875 72.90625 
L 22.703125 10.890625 
L 50.203125 72.90625 
L 61.1875 72.90625 
L 64.796875 10.890625 
L 92 72.90625 
L 102 72.90625 
L 69.578125 0 
L 57.171875 0 
L 53.8125 60.796875 
L 26.515625 0 
L 14.109375 0 
z
" id="DejaVuSans-Oblique-57"/>
    </defs>
    <g transform="translate(124.678 162.467697)scale(0.16 -0.16)">
     <use transform="translate(0 0.78125)" xlink:href="#DejaVuSans-Oblique-43"/>
     <use transform="translate(69.824219 -15.625)scale(0.7)" xlink:href="#DejaVuSans-Oblique-57"/>
     <use transform="translate(139.038086 -15.625)scale(0.7)" xlink:href="#DejaVuSans-Oblique-4c"/>
    </g>
   </g>
   <g id="text_6">
    <!-- $C_{WR}$ -->
    <g transform="translate(66.962 162.467697)scale(0.16 -0.16)">
     <use transform="translate(0 0.78125)" xlink:href="#DejaVuSans-Oblique-43"/>
     <use transform="translate(69.824219 -15.625)scale(0.7)" xlink:href="#DejaVuSans-Oblique-57"/>
     <use transform="translate(139.038086 -15.625)scale(0.7)" xlink:href="#DejaVuSans-Oblique-52"/>
    </g>
   </g>
  </g>
 </g>
 <defs>
  <clipPath id="p14a53b87e8">
   <rect height="166.32" width="167.4" x="27" y="25.92"/>
  </clipPath>
 </defs>
</svg>
