<?xml version="1.0" encoding="utf-8" standalone="no"?>
<!DOCTYPE svg PUBLIC "-//W3C//DTD SVG 1.1//EN"
  "http://www.w3.org/Graphics/SVG/1.1/DTD/svg11.dtd">
<!-- Created with matplotlib (http://matplotlib.org/) -->
<svg height="1296pt" version="1.1" viewBox="0 0 1296 1296" width="1296pt" xmlns="http://www.w3.org/2000/svg" xmlns:xlink="http://www.w3.org/1999/xlink">
 <defs>
  <style type="text/css">
*{stroke-linecap:butt;stroke-linejoin:round;}
  </style>
 </defs>
 <g id="figure_1">
  <g id="patch_1">
   <path d="M 0 1296 
L 1296 1296 
L 1296 0 
L 0 0 
z
" style="fill:#ffffff;"/>
  </g>
  <g id="axes_1">
   <g id="patch_2">
    <path clip-path="url(#p2748ad4a34)" d="M 41.472 798.336 
C 46.971251 798.336 52.246008 796.151124 56.134566 792.262566 
C 60.023124 788.374008 62.208 783.099251 62.208 777.6 
C 62.208 772.100749 60.023124 766.825992 56.134566 762.937434 
C 52.246008 759.048876 46.971251 756.864 41.472 756.864 
C 35.972749 756.864 30.697992 759.048876 26.809434 762.937434 
C 22.920876 766.825992 20.736 772.100749 20.736 777.6 
C 20.736 783.099251 22.920876 788.374008 26.809434 792.262566 
C 30.697992 796.151124 35.972749 798.336 41.472 798.336 
z
" style="fill:#0000ff;opacity:0.3;stroke:#0000ff;stroke-linejoin:miter;"/>
   </g>
   <g id="patch_3">
    <path clip-path="url(#p2748ad4a34)" d="M 2.699604 745.996418 
Q 12.166653 756.276859 21.633702 766.557301 
Q 7.72912 767.962675 -6.175463 769.368049 
z
" style="fill:#0000ff;opacity:0.5;stroke:#0000ff;stroke-linecap:round;"/>
   </g>
   <g id="patch_4">
    <path clip-path="url(#p2748ad4a34)" d="M 34.353995 790.927912 
Q 20.717346 793.986396 7.080698 797.04488 
Q 12.8159 784.300471 18.551102 771.556062 
z
" style="fill:#0000ff;opacity:0.5;stroke:#0000ff;stroke-linecap:round;"/>
   </g>
   <g id="patch_5">
    <path clip-path="url(#p2748ad4a34)" d="M 153.051956 491.772591 
C 158.551207 491.772591 163.825964 489.587715 167.714522 485.699157 
C 171.60308 481.810599 173.787956 476.535842 173.787956 471.036591 
C 173.787956 465.537339 171.60308 460.262583 167.714522 456.374025 
C 163.825964 452.485467 158.551207 450.300591 153.051956 450.300591 
C 147.552704 450.300591 142.277948 452.485467 138.38939 456.374025 
C 134.500832 460.262583 132.315956 465.537339 132.315956 471.036591 
C 132.315956 476.535842 134.500832 481.810599 138.38939 485.699157 
C 142.277948 489.587715 147.552704 491.772591 153.051956 491.772591 
z
" style="fill:#0000ff;opacity:0.3;stroke:#0000ff;stroke-linejoin:miter;"/>
   </g>
   <g id="patch_6">
    <path clip-path="url(#p2748ad4a34)" d="M 143.664969 421.904427 
Q 144.309009 435.865004 144.953048 449.825581 
Q 133.398163 441.964466 121.843277 434.103352 
z
" style="fill:#0000ff;opacity:0.5;stroke:#0000ff;stroke-linecap:round;"/>
   </g>
   <g id="patch_7">
    <path clip-path="url(#p2748ad4a34)" d="M 139.032231 476.670998 
Q 126.619997 470.248464 114.207762 463.82593 
Q 126.79313 457.749663 139.378498 451.673396 
z
" style="fill:#0000ff;opacity:0.5;stroke:#0000ff;stroke-linecap:round;"/>
   </g>
   <g id="patch_8">
    <path clip-path="url(#p2748ad4a34)" d="M 435.582322 328.653608 
C 441.081573 328.653608 446.35633 326.468732 450.244888 322.580174 
C 454.133446 318.691616 456.318322 313.416859 456.318322 307.917608 
C 456.318322 302.418356 454.133446 297.1436 450.244888 293.255042 
C 446.35633 289.366484 441.081573 287.181608 435.582322 287.181608 
C 430.08307 287.181608 424.808314 289.366484 420.919756 293.255042 
C 417.031198 297.1436 414.846322 302.418356 414.846322 307.917608 
C 414.846322 313.416859 417.031198 318.691616 420.919756 322.580174 
C 424.808314 326.468732 430.08307 328.653608 435.582322 328.653608 
z
" style="fill:#0000ff;opacity:0.3;stroke:#0000ff;stroke-linejoin:miter;"/>
   </g>
   <g id="patch_9">
    <path clip-path="url(#p2748ad4a34)" d="M 459.973019 264.246348 
Q 451.492696 275.354751 443.012373 286.463154 
Q 439.213844 273.013854 435.415316 259.564554 
z
" style="fill:#0000ff;opacity:0.5;stroke:#0000ff;stroke-linecap:round;"/>
   </g>
   <g id="patch_10">
    <path clip-path="url(#p2748ad4a34)" d="M 421.220862 303.222109 
Q 415.840865 290.323732 410.460867 277.425355 
Q 424.007567 280.860383 437.554267 284.295411 
z
" style="fill:#0000ff;opacity:0.5;stroke:#0000ff;stroke-linecap:round;"/>
   </g>
   <g id="patch_11">
    <path clip-path="url(#p2748ad4a34)" d="M 756.864 385.304236 
C 762.363251 385.304236 767.638008 383.11936 771.526566 379.230802 
C 775.415124 375.342244 777.6 370.067488 777.6 364.568236 
C 777.6 359.068985 775.415124 353.794228 771.526566 349.90567 
C 767.638008 346.017112 762.363251 343.832236 756.864 343.832236 
C 751.364749 343.832236 746.089992 346.017112 742.201434 349.90567 
C 738.312876 353.794228 736.128 359.068985 736.128 364.568236 
C 736.128 370.067488 738.312876 375.342244 742.201434 379.230802 
C 746.089992 383.11936 751.364749 385.304236 756.864 385.304236 
z
" style="fill:#0000ff;opacity:0.3;stroke:#0000ff;stroke-linejoin:miter;"/>
   </g>
   <g id="patch_12">
    <path clip-path="url(#p2748ad4a34)" d="M 748.880693 351.739907 
Q 753.050292 338.400981 757.219891 325.062055 
Q 765.389272 336.40109 773.558653 347.740125 
z
" style="fill:#0000ff;opacity:0.5;stroke:#0000ff;stroke-linecap:round;"/>
   </g>
   <g id="patch_13">
    <path clip-path="url(#p2748ad4a34)" d="M 966.565722 635.217017 
C 972.064974 635.217017 977.33973 633.032141 981.228288 629.143583 
C 985.116846 625.255025 987.301722 619.980269 987.301722 614.481017 
C 987.301722 608.981766 985.116846 603.707009 981.228288 599.818451 
C 977.33973 595.929893 972.064974 593.745017 966.565722 593.745017 
C 961.066471 593.745017 955.791714 595.929893 951.903156 599.818451 
C 948.014598 603.707009 945.829722 608.981766 945.829722 614.481017 
C 945.829722 619.980269 948.014598 625.255025 951.903156 629.143583 
C 955.791714 633.032141 961.066471 635.217017 966.565722 635.217017 
z
" style="fill:#0000ff;opacity:0.3;stroke:#0000ff;stroke-linejoin:miter;"/>
   </g>
   <g id="patch_14">
    <path clip-path="url(#p2748ad4a34)" d="M 968.696045 599.522376 
Q 980.46424 591.984332 992.232434 584.446289 
Q 991.201952 598.383671 990.17147 612.321052 
z
" style="fill:#0000ff;opacity:0.5;stroke:#0000ff;stroke-linecap:round;"/>
   </g>
   <g id="patch_15">
    <path clip-path="url(#p2748ad4a34)" d="M 966.565722 961.454983 
C 972.064974 961.454983 977.33973 959.270107 981.228288 955.381549 
C 985.116846 951.492991 987.301722 946.218234 987.301722 940.718983 
C 987.301722 935.219731 985.116846 929.944975 981.228288 926.056417 
C 977.33973 922.167859 972.064974 919.982983 966.565722 919.982983 
C 961.066471 919.982983 955.791714 922.167859 951.903156 926.056417 
C 948.014598 929.944975 945.829722 935.219731 945.829722 940.718983 
C 945.829722 946.218234 948.014598 951.492991 951.903156 955.381549 
C 955.791714 959.270107 961.066471 961.454983 966.565722 961.454983 
z
" style="fill:#0000ff;opacity:0.3;stroke:#0000ff;stroke-linejoin:miter;"/>
   </g>
   <g id="patch_16">
    <path clip-path="url(#p2748ad4a34)" d="M 977.812874 930.629344 
Q 991.673194 932.419317 1005.533515 934.209291 
Q 995.785344 944.223563 986.037173 954.237836 
z
" style="fill:#0000ff;opacity:0.5;stroke:#0000ff;stroke-linecap:round;"/>
   </g>
   <g id="patch_17">
    <path clip-path="url(#p2748ad4a34)" d="M 756.864 1211.367764 
C 762.363251 1211.367764 767.638008 1209.182888 771.526566 1205.29433 
C 775.415124 1201.405772 777.6 1196.131015 777.6 1190.631764 
C 777.6 1185.132512 775.415124 1179.857756 771.526566 1175.969198 
C 767.638008 1172.08064 762.363251 1169.895764 756.864 1169.895764 
C 751.364749 1169.895764 746.089992 1172.08064 742.201434 1175.969198 
C 738.312876 1179.857756 736.128 1185.132512 736.128 1190.631764 
C 736.128 1196.131015 738.312876 1201.405772 742.201434 1205.29433 
C 746.089992 1209.182888 751.364749 1211.367764 756.864 1211.367764 
z
" style="fill:#0000ff;opacity:0.3;stroke:#0000ff;stroke-linejoin:miter;"/>
   </g>
   <g id="patch_18">
    <path clip-path="url(#p2748ad4a34)" d="M 771.965313 1190.132181 
Q 781.432362 1200.412623 790.899411 1210.693065 
Q 776.994828 1212.098439 763.090245 1213.503813 
z
" style="fill:#0000ff;opacity:0.5;stroke:#0000ff;stroke-linecap:round;"/>
   </g>
   <g id="patch_19">
    <path clip-path="url(#p2748ad4a34)" d="M 435.582322 1268.018392 
C 441.081573 1268.018392 446.35633 1265.833516 450.244888 1261.944958 
C 454.133446 1258.0564 456.318322 1252.781644 456.318322 1247.282392 
C 456.318322 1241.783141 454.133446 1236.508384 450.244888 1232.619826 
C 446.35633 1228.731268 441.081573 1226.546392 435.582322 1226.546392 
C 430.08307 1226.546392 424.808314 1228.731268 420.919756 1232.619826 
C 417.031198 1236.508384 414.846322 1241.783141 414.846322 1247.282392 
C 414.846322 1252.781644 417.031198 1258.0564 420.919756 1261.944958 
C 424.808314 1265.833516 430.08307 1268.018392 435.582322 1268.018392 
z
" style="fill:#0000ff;opacity:0.3;stroke:#0000ff;stroke-linejoin:miter;"/>
   </g>
   <g id="patch_20">
    <path clip-path="url(#p2748ad4a34)" d="M 447.471724 1256.606626 
Q 448.115764 1270.567204 448.759803 1284.527781 
Q 437.204918 1276.666666 425.650032 1268.805552 
z
" style="fill:#0000ff;opacity:0.5;stroke:#0000ff;stroke-linecap:round;"/>
   </g>
   <g id="patch_21">
    <path clip-path="url(#p2748ad4a34)" d="M 153.051956 1104.899409 
C 158.551207 1104.899409 163.825964 1102.714533 167.714522 1098.825975 
C 171.60308 1094.937417 173.787956 1089.662661 173.787956 1084.163409 
C 173.787956 1078.664158 171.60308 1073.389401 167.714522 1069.500843 
C 163.825964 1065.612285 158.551207 1063.427409 153.051956 1063.427409 
C 147.552704 1063.427409 142.277948 1065.612285 138.38939 1069.500843 
C 134.500832 1073.389401 132.315956 1078.664158 132.315956 1084.163409 
C 132.315956 1089.662661 134.500832 1094.937417 138.38939 1098.825975 
C 142.277948 1102.714533 147.552704 1104.899409 153.051956 1104.899409 
z
" style="fill:#0000ff;opacity:0.3;stroke:#0000ff;stroke-linejoin:miter;"/>
   </g>
   <g id="patch_22">
    <path clip-path="url(#p2748ad4a34)" d="M 156.166264 1098.948547 
Q 147.685941 1110.056951 139.205618 1121.165354 
Q 135.407089 1107.716054 131.60856 1094.266753 
z
" style="fill:#0000ff;opacity:0.5;stroke:#0000ff;stroke-linecap:round;"/>
   </g>
   <g id="patch_23">
    <path clip-path="url(#p2748ad4a34)" d="M 61.119064 764.7922 
Q 425.49933 641.178903 717.152687 391.572751 
L 712.27606 385.874636 
Q 725.768024 382.554492 739.297607 379.002955 
Q 734.010082 391.952889 728.531482 404.868352 
L 723.654855 399.170238 
Q 430.537159 650.029618 64.331661 774.262111 
L 61.119064 764.7922 
z
" style="fill:#0000ff;opacity:0.5;stroke:#0000ff;stroke-linecap:round;"/>
   </g>
   <g id="patch_24">
    <path clip-path="url(#p2748ad4a34)" d="M 64.317333 772.284426 
Q 506.754526 782.064874 920.011433 626.288972 
L 917.366032 619.271005 
Q 931.193823 620.738133 945.121535 622.026381 
Q 935.726022 632.387934 926.184035 642.664227 
L 923.538634 635.64626 
Q 508.469621 792.105231 64.096329 782.281984 
L 64.317333 772.284426 
z
" style="fill:#0000ff;opacity:0.5;stroke:#0000ff;stroke-linecap:round;"/>
   </g>
   <g id="patch_25">
    <path clip-path="url(#p2748ad4a34)" d="M 175.891615 465.720644 
Q 452.037475 471.725161 710.319323 376.318635 
L 707.720537 369.283274 
Q 721.496644 370.857758 735.430488 372.151896 
Q 726.022264 382.510667 716.383158 392.734478 
L 713.784372 385.699117 
Q 453.719944 481.764108 175.674227 475.718281 
L 175.891615 465.720644 
z
" style="fill:#0000ff;opacity:0.5;stroke:#0000ff;stroke-linecap:round;"/>
   </g>
   <g id="patch_26">
    <path clip-path="url(#p2748ad4a34)" d="M 176.335176 473.854136 
Q 534.923749 613.379977 918.786924 609.641735 
L 918.713889 602.142091 
Q 931.183481 608.27118 943.830626 614.247193 
Q 931.45609 620.768663 918.957339 627.140906 
L 918.884304 619.641261 
Q 533.09382 623.398272 172.709026 483.173527 
L 176.335176 473.854136 
z
" style="fill:#0000ff;opacity:0.5;stroke:#0000ff;stroke-linecap:round;"/>
   </g>
   <g id="patch_27">
    <path clip-path="url(#p2748ad4a34)" d="M 451.60722 325.042138 
Q 636.616522 662.421425 933.075669 906.300258 
L 937.8404 900.508251 
Q 943.452959 913.218706 949.299927 925.926025 
Q 935.628563 922.967563 921.957965 919.814941 
L 926.722696 914.022934 
Q 628.775079 668.919628 442.83904 329.850361 
L 451.60722 325.042138 
z
" style="fill:#0000ff;opacity:0.5;stroke:#0000ff;stroke-linecap:round;"/>
   </g>
   <g id="patch_28">
    <path clip-path="url(#p2748ad4a34)" d="M 758.132348 387.986993 
Q 682.994471 765.356208 753.333061 1142.7385 
L 760.706086 1141.364275 
Q 756.835434 1154.708731 753.146363 1168.201461 
Q 744.575154 1157.147364 736.129335 1145.945025 
L 743.50236 1144.5708 
Q 672.810613 765.293738 748.324866 386.034228 
L 758.132348 387.986993 
z
" style="fill:#0000ff;opacity:0.5;stroke:#0000ff;stroke-linecap:round;"/>
   </g>
   <g id="patch_29">
    <path clip-path="url(#p2748ad4a34)" d="M 959.749637 636.918716 
Q 816.476643 873.065787 769.960195 1144.447692 
L 777.35239 1145.714757 
Q 769.100793 1156.857974 761.013114 1168.277968 
Q 756.746268 1154.950822 752.71174 1141.491206 
L 760.103935 1142.758271 
Q 806.941425 869.503375 951.200124 631.731633 
L 959.749637 636.918716 
z
" style="fill:#0000ff;opacity:0.5;stroke:#0000ff;stroke-linecap:round;"/>
   </g>
   <g id="patch_30">
    <path clip-path="url(#p2748ad4a34)" d="M 952.484047 633.236104 
Q 652.356837 874.019998 463.662662 1208.32438 
L 470.194062 1212.010952 
Q 458.651319 1219.74539 447.152367 1227.710133 
Q 447.691877 1213.732736 448.422728 1199.722378 
L 454.954129 1203.40895 
Q 644.595704 867.426085 946.226292 625.436071 
L 952.484047 633.236104 
z
" style="fill:#0000ff;opacity:0.5;stroke:#0000ff;stroke-linecap:round;"/>
   </g>
   <g id="patch_31">
    <path clip-path="url(#p2748ad4a34)" d="M 952.487189 959.472025 
Q 851.197488 1040.905807 785.05226 1151.867949 
L 791.494497 1155.708207 
Q 779.848984 1163.034537 768.316937 1170.995563 
Q 768.900447 1156.995723 770.020374 1142.907347 
L 776.462611 1146.747605 
Q 843.529243 1034.239759 946.221395 951.678449 
L 952.487189 959.472025 
z
" style="fill:#0000ff;opacity:0.5;stroke:#0000ff;stroke-linecap:round;"/>
   </g>
   <g id="patch_32">
    <path clip-path="url(#p2748ad4a34)" d="M 946.921624 953.525963 
Q 685.375731 1042.331009 475.301138 1220.321412 
L 480.149434 1226.043652 
Q 466.665622 1229.275827 453.129471 1232.82539 
Q 458.427401 1219.873528 463.988448 1206.969519 
L 468.836744 1212.691759 
Q 680.361205 1033.472922 943.706509 944.056906 
L 946.921624 953.525963 
z
" style="fill:#0000ff;opacity:0.5;stroke:#0000ff;stroke-linecap:round;"/>
   </g>
   <g id="patch_33">
    <path clip-path="url(#p2748ad4a34)" d="M 734.024995 1195.947921 
Q 604.087956 1193.222052 482.092682 1235.706652 
L 484.559252 1242.78945 
Q 470.928996 1240.916153 456.977687 1239.601995 
Q 466.423606 1229.252569 476.337353 1219.180122 
L 478.803922 1226.26292 
Q 602.498592 1183.18651 734.234732 1185.950121 
L 734.024995 1195.947921 
z
" style="fill:#0000ff;opacity:0.5;stroke:#0000ff;stroke-linecap:round;"/>
   </g>
   <g id="patch_34">
    <path clip-path="url(#p2748ad4a34)" d="M 733.58358 1187.815496 
Q 476.145019 1087.725649 200.808518 1089.040863 
L 200.844344 1096.540778 
Q 188.437542 1090.34954 175.786634 1084.367793 
Q 188.17038 1077.851535 200.724926 1071.541063 
L 200.760751 1079.040977 
Q 477.997537 1077.716686 737.207251 1178.495142 
L 733.58358 1187.815496 
z
" style="fill:#0000ff;opacity:0.5;stroke:#0000ff;stroke-linecap:round;"/>
   </g>
   <g id="patch_35">
    <path clip-path="url(#p2748ad4a34)" d="M 458.421327 1241.966235 
Q 588.358366 1244.692103 710.35364 1202.207504 
L 707.88707 1195.124706 
Q 721.517326 1196.998003 735.468635 1198.312161 
Q 726.022716 1208.661587 716.108969 1218.734034 
L 713.6424 1211.651236 
Q 589.947729 1254.727646 458.21159 1251.964035 
L 458.421327 1241.966235 
z
" style="fill:#0000ff;opacity:0.5;stroke:#0000ff;stroke-linecap:round;"/>
   </g>
   <g id="patch_36">
    <path clip-path="url(#p2748ad4a34)" d="M 414.669469 1236.674175 
Q 316.884077 1151.06412 196.121701 1105.192161 
L 193.458468 1112.203379 
Q 184.221219 1102.006991 174.37862 1092.032559 
Q 188.267097 1090.176158 202.335912 1088.83265 
L 199.672679 1095.843869 
Q 322.117276 1142.354825 421.256599 1229.150233 
L 414.669469 1236.674175 
z
" style="fill:#0000ff;opacity:0.5;stroke:#0000ff;stroke-linecap:round;"/>
   </g>
   <g id="patch_37">
    <path clip-path="url(#p2748ad4a34)" d="M 176.332376 1086.979677 
Q 433.770937 1187.069524 709.107438 1185.75431 
L 709.071612 1178.254395 
Q 721.478414 1184.445633 734.129322 1190.42738 
Q 721.745576 1196.943638 709.19103 1203.25411 
L 709.155204 1195.754195 
Q 431.918419 1197.078487 172.708705 1096.300031 
L 176.332376 1086.979677 
z
" style="fill:#0000ff;opacity:0.5;stroke:#0000ff;stroke-linecap:round;"/>
   </g>
   <g id="patch_38">
    <path clip-path="url(#p2748ad4a34)" d="M 173.964809 1094.771626 
Q 271.750201 1180.381681 392.512576 1226.253641 
L 395.175809 1219.242422 
Q 404.413059 1229.43881 414.255657 1239.413242 
Q 400.367181 1241.269643 386.298366 1242.613151 
L 388.961599 1235.601932 
Q 266.517002 1189.090976 167.377679 1102.295568 
L 173.964809 1094.771626 
z
" style="fill:#0000ff;opacity:0.5;stroke:#0000ff;stroke-linecap:round;"/>
   </g>
   <g id="text_1">
    <!-- $x_{1}$ -->
    <defs>
     <path d="M 60.015625 54.6875 
L 34.90625 27.875 
L 50.296875 0 
L 39.984375 0 
L 28.421875 21.6875 
L 8.296875 0 
L -2.59375 0 
L 24.3125 28.8125 
L 10.015625 54.6875 
L 20.3125 54.6875 
L 30.8125 34.90625 
L 49.125 54.6875 
z
" id="DejaVuSans-Oblique-78"/>
     <path d="M 12.40625 8.296875 
L 28.515625 8.296875 
L 28.515625 63.921875 
L 10.984375 60.40625 
L 10.984375 69.390625 
L 28.421875 72.90625 
L 38.28125 72.90625 
L 38.28125 8.296875 
L 54.390625 8.296875 
L 54.390625 0 
L 12.40625 0 
z
" id="DejaVuSans-31"/>
    </defs>
    <g transform="translate(28.632 784.2225)scale(0.24 -0.24)">
     <use transform="translate(0 0.3125)" xlink:href="#DejaVuSans-Oblique-78"/>
     <use transform="translate(59.179688 -16.09375)scale(0.7)" xlink:href="#DejaVuSans-31"/>
    </g>
   </g>
   <g id="text_2">
    <!-- $x_{2}$ -->
    <defs>
     <path d="M 19.1875 8.296875 
L 53.609375 8.296875 
L 53.609375 0 
L 7.328125 0 
L 7.328125 8.296875 
Q 12.9375 14.109375 22.625 23.890625 
Q 32.328125 33.6875 34.8125 36.53125 
Q 39.546875 41.84375 41.421875 45.53125 
Q 43.3125 49.21875 43.3125 52.78125 
Q 43.3125 58.59375 39.234375 62.25 
Q 35.15625 65.921875 28.609375 65.921875 
Q 23.96875 65.921875 18.8125 64.3125 
Q 13.671875 62.703125 7.8125 59.421875 
L 7.8125 69.390625 
Q 13.765625 71.78125 18.9375 73 
Q 24.125 74.21875 28.421875 74.21875 
Q 39.75 74.21875 46.484375 68.546875 
Q 53.21875 62.890625 53.21875 53.421875 
Q 53.21875 48.921875 51.53125 44.890625 
Q 49.859375 40.875 45.40625 35.40625 
Q 44.1875 33.984375 37.640625 27.21875 
Q 31.109375 20.453125 19.1875 8.296875 
z
" id="DejaVuSans-32"/>
    </defs>
    <g transform="translate(140.211956 477.659091)scale(0.24 -0.24)">
     <use transform="translate(0 0.3125)" xlink:href="#DejaVuSans-Oblique-78"/>
     <use transform="translate(59.179688 -16.09375)scale(0.7)" xlink:href="#DejaVuSans-32"/>
    </g>
   </g>
   <g id="text_3">
    <!-- $x_{3}$ -->
    <defs>
     <path d="M 40.578125 39.3125 
Q 47.65625 37.796875 51.625 33 
Q 55.609375 28.21875 55.609375 21.1875 
Q 55.609375 10.40625 48.1875 4.484375 
Q 40.765625 -1.421875 27.09375 -1.421875 
Q 22.515625 -1.421875 17.65625 -0.515625 
Q 12.796875 0.390625 7.625 2.203125 
L 7.625 11.71875 
Q 11.71875 9.328125 16.59375 8.109375 
Q 21.484375 6.890625 26.8125 6.890625 
Q 36.078125 6.890625 40.9375 10.546875 
Q 45.796875 14.203125 45.796875 21.1875 
Q 45.796875 27.640625 41.28125 31.265625 
Q 36.765625 34.90625 28.71875 34.90625 
L 20.21875 34.90625 
L 20.21875 43.015625 
L 29.109375 43.015625 
Q 36.375 43.015625 40.234375 45.921875 
Q 44.09375 48.828125 44.09375 54.296875 
Q 44.09375 59.90625 40.109375 62.90625 
Q 36.140625 65.921875 28.71875 65.921875 
Q 24.65625 65.921875 20.015625 65.03125 
Q 15.375 64.15625 9.8125 62.3125 
L 9.8125 71.09375 
Q 15.4375 72.65625 20.34375 73.4375 
Q 25.25 74.21875 29.59375 74.21875 
Q 40.828125 74.21875 47.359375 69.109375 
Q 53.90625 64.015625 53.90625 55.328125 
Q 53.90625 49.265625 50.4375 45.09375 
Q 46.96875 40.921875 40.578125 39.3125 
z
" id="DejaVuSans-33"/>
    </defs>
    <g transform="translate(422.742322 314.540108)scale(0.24 -0.24)">
     <use transform="translate(0 0.3125)" xlink:href="#DejaVuSans-Oblique-78"/>
     <use transform="translate(59.179688 -16.09375)scale(0.7)" xlink:href="#DejaVuSans-33"/>
    </g>
   </g>
   <g id="text_4">
    <!-- $x_{4}$ -->
    <defs>
     <path d="M 37.796875 64.3125 
L 12.890625 25.390625 
L 37.796875 25.390625 
z
M 35.203125 72.90625 
L 47.609375 72.90625 
L 47.609375 25.390625 
L 58.015625 25.390625 
L 58.015625 17.1875 
L 47.609375 17.1875 
L 47.609375 0 
L 37.796875 0 
L 37.796875 17.1875 
L 4.890625 17.1875 
L 4.890625 26.703125 
z
" id="DejaVuSans-34"/>
    </defs>
    <g transform="translate(744.024 371.190736)scale(0.24 -0.24)">
     <use transform="translate(0 0.3125)" xlink:href="#DejaVuSans-Oblique-78"/>
     <use transform="translate(59.179688 -16.09375)scale(0.7)" xlink:href="#DejaVuSans-34"/>
    </g>
   </g>
   <g id="text_5">
    <!-- $x_{5}$ -->
    <defs>
     <path d="M 10.796875 72.90625 
L 49.515625 72.90625 
L 49.515625 64.59375 
L 19.828125 64.59375 
L 19.828125 46.734375 
Q 21.96875 47.46875 24.109375 47.828125 
Q 26.265625 48.1875 28.421875 48.1875 
Q 40.625 48.1875 47.75 41.5 
Q 54.890625 34.8125 54.890625 23.390625 
Q 54.890625 11.625 47.5625 5.09375 
Q 40.234375 -1.421875 26.90625 -1.421875 
Q 22.3125 -1.421875 17.546875 -0.640625 
Q 12.796875 0.140625 7.71875 1.703125 
L 7.71875 11.625 
Q 12.109375 9.234375 16.796875 8.0625 
Q 21.484375 6.890625 26.703125 6.890625 
Q 35.15625 6.890625 40.078125 11.328125 
Q 45.015625 15.765625 45.015625 23.390625 
Q 45.015625 31 40.078125 35.4375 
Q 35.15625 39.890625 26.703125 39.890625 
Q 22.75 39.890625 18.8125 39.015625 
Q 14.890625 38.140625 10.796875 36.28125 
z
" id="DejaVuSans-35"/>
    </defs>
    <g transform="translate(953.725722 621.103517)scale(0.24 -0.24)">
     <use transform="translate(0 0.3125)" xlink:href="#DejaVuSans-Oblique-78"/>
     <use transform="translate(59.179688 -16.09375)scale(0.7)" xlink:href="#DejaVuSans-35"/>
    </g>
   </g>
   <g id="text_6">
    <!-- $x_{6}$ -->
    <defs>
     <path d="M 33.015625 40.375 
Q 26.375 40.375 22.484375 35.828125 
Q 18.609375 31.296875 18.609375 23.390625 
Q 18.609375 15.53125 22.484375 10.953125 
Q 26.375 6.390625 33.015625 6.390625 
Q 39.65625 6.390625 43.53125 10.953125 
Q 47.40625 15.53125 47.40625 23.390625 
Q 47.40625 31.296875 43.53125 35.828125 
Q 39.65625 40.375 33.015625 40.375 
z
M 52.59375 71.296875 
L 52.59375 62.3125 
Q 48.875 64.0625 45.09375 64.984375 
Q 41.3125 65.921875 37.59375 65.921875 
Q 27.828125 65.921875 22.671875 59.328125 
Q 17.53125 52.734375 16.796875 39.40625 
Q 19.671875 43.65625 24.015625 45.921875 
Q 28.375 48.1875 33.59375 48.1875 
Q 44.578125 48.1875 50.953125 41.515625 
Q 57.328125 34.859375 57.328125 23.390625 
Q 57.328125 12.15625 50.6875 5.359375 
Q 44.046875 -1.421875 33.015625 -1.421875 
Q 20.359375 -1.421875 13.671875 8.265625 
Q 6.984375 17.96875 6.984375 36.375 
Q 6.984375 53.65625 15.1875 63.9375 
Q 23.390625 74.21875 37.203125 74.21875 
Q 40.921875 74.21875 44.703125 73.484375 
Q 48.484375 72.75 52.59375 71.296875 
z
" id="DejaVuSans-36"/>
    </defs>
    <g transform="translate(953.725722 947.341483)scale(0.24 -0.24)">
     <use transform="translate(0 0.3125)" xlink:href="#DejaVuSans-Oblique-78"/>
     <use transform="translate(59.179688 -16.09375)scale(0.7)" xlink:href="#DejaVuSans-36"/>
    </g>
   </g>
   <g id="text_7">
    <!-- $x_{7}$ -->
    <defs>
     <path d="M 8.203125 72.90625 
L 55.078125 72.90625 
L 55.078125 68.703125 
L 28.609375 0 
L 18.3125 0 
L 43.21875 64.59375 
L 8.203125 64.59375 
z
" id="DejaVuSans-37"/>
    </defs>
    <g transform="translate(744.024 1197.254264)scale(0.24 -0.24)">
     <use transform="translate(0 0.3125)" xlink:href="#DejaVuSans-Oblique-78"/>
     <use transform="translate(59.179688 -16.09375)scale(0.7)" xlink:href="#DejaVuSans-37"/>
    </g>
   </g>
   <g id="text_8">
    <!-- $x_{8}$ -->
    <defs>
     <path d="M 31.78125 34.625 
Q 24.75 34.625 20.71875 30.859375 
Q 16.703125 27.09375 16.703125 20.515625 
Q 16.703125 13.921875 20.71875 10.15625 
Q 24.75 6.390625 31.78125 6.390625 
Q 38.8125 6.390625 42.859375 10.171875 
Q 46.921875 13.96875 46.921875 20.515625 
Q 46.921875 27.09375 42.890625 30.859375 
Q 38.875 34.625 31.78125 34.625 
z
M 21.921875 38.8125 
Q 15.578125 40.375 12.03125 44.71875 
Q 8.5 49.078125 8.5 55.328125 
Q 8.5 64.0625 14.71875 69.140625 
Q 20.953125 74.21875 31.78125 74.21875 
Q 42.671875 74.21875 48.875 69.140625 
Q 55.078125 64.0625 55.078125 55.328125 
Q 55.078125 49.078125 51.53125 44.71875 
Q 48 40.375 41.703125 38.8125 
Q 48.828125 37.15625 52.796875 32.3125 
Q 56.78125 27.484375 56.78125 20.515625 
Q 56.78125 9.90625 50.3125 4.234375 
Q 43.84375 -1.421875 31.78125 -1.421875 
Q 19.734375 -1.421875 13.25 4.234375 
Q 6.78125 9.90625 6.78125 20.515625 
Q 6.78125 27.484375 10.78125 32.3125 
Q 14.796875 37.15625 21.921875 38.8125 
z
M 18.3125 54.390625 
Q 18.3125 48.734375 21.84375 45.5625 
Q 25.390625 42.390625 31.78125 42.390625 
Q 38.140625 42.390625 41.71875 45.5625 
Q 45.3125 48.734375 45.3125 54.390625 
Q 45.3125 60.0625 41.71875 63.234375 
Q 38.140625 66.40625 31.78125 66.40625 
Q 25.390625 66.40625 21.84375 63.234375 
Q 18.3125 60.0625 18.3125 54.390625 
z
" id="DejaVuSans-38"/>
    </defs>
    <g transform="translate(422.742322 1253.904892)scale(0.24 -0.24)">
     <use transform="translate(0 0.3125)" xlink:href="#DejaVuSans-Oblique-78"/>
     <use transform="translate(59.179688 -16.09375)scale(0.7)" xlink:href="#DejaVuSans-38"/>
    </g>
   </g>
   <g id="text_9">
    <!-- $x_{9}$ -->
    <defs>
     <path d="M 10.984375 1.515625 
L 10.984375 10.5 
Q 14.703125 8.734375 18.5 7.8125 
Q 22.3125 6.890625 25.984375 6.890625 
Q 35.75 6.890625 40.890625 13.453125 
Q 46.046875 20.015625 46.78125 33.40625 
Q 43.953125 29.203125 39.59375 26.953125 
Q 35.25 24.703125 29.984375 24.703125 
Q 19.046875 24.703125 12.671875 31.3125 
Q 6.296875 37.9375 6.296875 49.421875 
Q 6.296875 60.640625 12.9375 67.421875 
Q 19.578125 74.21875 30.609375 74.21875 
Q 43.265625 74.21875 49.921875 64.515625 
Q 56.59375 54.828125 56.59375 36.375 
Q 56.59375 19.140625 48.40625 8.859375 
Q 40.234375 -1.421875 26.421875 -1.421875 
Q 22.703125 -1.421875 18.890625 -0.6875 
Q 15.09375 0.046875 10.984375 1.515625 
z
M 30.609375 32.421875 
Q 37.25 32.421875 41.125 36.953125 
Q 45.015625 41.5 45.015625 49.421875 
Q 45.015625 57.28125 41.125 61.84375 
Q 37.25 66.40625 30.609375 66.40625 
Q 23.96875 66.40625 20.09375 61.84375 
Q 16.21875 57.28125 16.21875 49.421875 
Q 16.21875 41.5 20.09375 36.953125 
Q 23.96875 32.421875 30.609375 32.421875 
z
" id="DejaVuSans-39"/>
    </defs>
    <g transform="translate(140.211956 1090.785909)scale(0.24 -0.24)">
     <use transform="translate(0 0.3125)" xlink:href="#DejaVuSans-Oblique-78"/>
     <use transform="translate(59.179688 -16.09375)scale(0.7)" xlink:href="#DejaVuSans-39"/>
    </g>
   </g>
   <g id="legend_1">
    <g id="patch_39">
     <path d="M 352.726562 178.198125 
L 684.073437 178.198125 
Q 686.073437 178.198125 686.073437 176.198125 
L 686.073437 162.52 
Q 686.073437 160.52 684.073437 160.52 
L 352.726562 160.52 
Q 350.726562 160.52 350.726562 162.52 
L 350.726562 176.198125 
Q 350.726562 178.198125 352.726562 178.198125 
z
" style="fill:#ffffff;opacity:0.8;stroke:#cccccc;stroke-linejoin:miter;"/>
    </g>
    <g id="patch_40">
     <path d="M 354.726562 172.118437 
L 374.726562 172.118437 
L 374.726562 165.118437 
L 354.726562 165.118437 
z
" style="fill:#0000ff;opacity:0.5;stroke:#0000ff;stroke-linejoin:miter;"/>
    </g>
    <g id="text_10">
     <!-- linear -->
     <defs>
      <path d="M 9.421875 75.984375 
L 18.40625 75.984375 
L 18.40625 0 
L 9.421875 0 
z
" id="DejaVuSans-6c"/>
      <path d="M 9.421875 54.6875 
L 18.40625 54.6875 
L 18.40625 0 
L 9.421875 0 
z
M 9.421875 75.984375 
L 18.40625 75.984375 
L 18.40625 64.59375 
L 9.421875 64.59375 
z
" id="DejaVuSans-69"/>
      <path d="M 54.890625 33.015625 
L 54.890625 0 
L 45.90625 0 
L 45.90625 32.71875 
Q 45.90625 40.484375 42.875 44.328125 
Q 39.84375 48.1875 33.796875 48.1875 
Q 26.515625 48.1875 22.3125 43.546875 
Q 18.109375 38.921875 18.109375 30.90625 
L 18.109375 0 
L 9.078125 0 
L 9.078125 54.6875 
L 18.109375 54.6875 
L 18.109375 46.1875 
Q 21.34375 51.125 25.703125 53.5625 
Q 30.078125 56 35.796875 56 
Q 45.21875 56 50.046875 50.171875 
Q 54.890625 44.34375 54.890625 33.015625 
z
" id="DejaVuSans-6e"/>
      <path d="M 56.203125 29.59375 
L 56.203125 25.203125 
L 14.890625 25.203125 
Q 15.484375 15.921875 20.484375 11.0625 
Q 25.484375 6.203125 34.421875 6.203125 
Q 39.59375 6.203125 44.453125 7.46875 
Q 49.3125 8.734375 54.109375 11.28125 
L 54.109375 2.78125 
Q 49.265625 0.734375 44.1875 -0.34375 
Q 39.109375 -1.421875 33.890625 -1.421875 
Q 20.796875 -1.421875 13.15625 6.1875 
Q 5.515625 13.8125 5.515625 26.8125 
Q 5.515625 40.234375 12.765625 48.109375 
Q 20.015625 56 32.328125 56 
Q 43.359375 56 49.78125 48.890625 
Q 56.203125 41.796875 56.203125 29.59375 
z
M 47.21875 32.234375 
Q 47.125 39.59375 43.09375 43.984375 
Q 39.0625 48.390625 32.421875 48.390625 
Q 24.90625 48.390625 20.390625 44.140625 
Q 15.875 39.890625 15.1875 32.171875 
z
" id="DejaVuSans-65"/>
      <path d="M 34.28125 27.484375 
Q 23.390625 27.484375 19.1875 25 
Q 14.984375 22.515625 14.984375 16.5 
Q 14.984375 11.71875 18.140625 8.90625 
Q 21.296875 6.109375 26.703125 6.109375 
Q 34.1875 6.109375 38.703125 11.40625 
Q 43.21875 16.703125 43.21875 25.484375 
L 43.21875 27.484375 
z
M 52.203125 31.203125 
L 52.203125 0 
L 43.21875 0 
L 43.21875 8.296875 
Q 40.140625 3.328125 35.546875 0.953125 
Q 30.953125 -1.421875 24.3125 -1.421875 
Q 15.921875 -1.421875 10.953125 3.296875 
Q 6 8.015625 6 15.921875 
Q 6 25.140625 12.171875 29.828125 
Q 18.359375 34.515625 30.609375 34.515625 
L 43.21875 34.515625 
L 43.21875 35.40625 
Q 43.21875 41.609375 39.140625 45 
Q 35.0625 48.390625 27.6875 48.390625 
Q 23 48.390625 18.546875 47.265625 
Q 14.109375 46.140625 10.015625 43.890625 
L 10.015625 52.203125 
Q 14.9375 54.109375 19.578125 55.046875 
Q 24.21875 56 28.609375 56 
Q 40.484375 56 46.34375 49.84375 
Q 52.203125 43.703125 52.203125 31.203125 
z
" id="DejaVuSans-61"/>
      <path d="M 41.109375 46.296875 
Q 39.59375 47.171875 37.8125 47.578125 
Q 36.03125 48 33.890625 48 
Q 26.265625 48 22.1875 43.046875 
Q 18.109375 38.09375 18.109375 28.8125 
L 18.109375 0 
L 9.078125 0 
L 9.078125 54.6875 
L 18.109375 54.6875 
L 18.109375 46.1875 
Q 20.953125 51.171875 25.484375 53.578125 
Q 30.03125 56 36.53125 56 
Q 37.453125 56 38.578125 55.875 
Q 39.703125 55.765625 41.0625 55.515625 
z
" id="DejaVuSans-72"/>
     </defs>
     <g transform="translate(382.726562 172.118437)scale(0.1 -0.1)">
      <use xlink:href="#DejaVuSans-6c"/>
      <use x="27.783203" xlink:href="#DejaVuSans-69"/>
      <use x="55.566406" xlink:href="#DejaVuSans-6e"/>
      <use x="118.945312" xlink:href="#DejaVuSans-65"/>
      <use x="180.46875" xlink:href="#DejaVuSans-61"/>
      <use x="241.748047" xlink:href="#DejaVuSans-72"/>
     </g>
    </g>
    <g id="patch_41">
     <path d="M 431.0125 172.118437 
L 451.0125 172.118437 
L 451.0125 165.118437 
L 431.0125 165.118437 
z
" style="fill:#008000;opacity:0.5;stroke:#008000;stroke-linejoin:miter;"/>
    </g>
    <g id="text_11">
     <!-- nonlinear -->
     <defs>
      <path d="M 30.609375 48.390625 
Q 23.390625 48.390625 19.1875 42.75 
Q 14.984375 37.109375 14.984375 27.296875 
Q 14.984375 17.484375 19.15625 11.84375 
Q 23.34375 6.203125 30.609375 6.203125 
Q 37.796875 6.203125 41.984375 11.859375 
Q 46.1875 17.53125 46.1875 27.296875 
Q 46.1875 37.015625 41.984375 42.703125 
Q 37.796875 48.390625 30.609375 48.390625 
z
M 30.609375 56 
Q 42.328125 56 49.015625 48.375 
Q 55.71875 40.765625 55.71875 27.296875 
Q 55.71875 13.875 49.015625 6.21875 
Q 42.328125 -1.421875 30.609375 -1.421875 
Q 18.84375 -1.421875 12.171875 6.21875 
Q 5.515625 13.875 5.515625 27.296875 
Q 5.515625 40.765625 12.171875 48.375 
Q 18.84375 56 30.609375 56 
z
" id="DejaVuSans-6f"/>
     </defs>
     <g transform="translate(459.0125 172.118437)scale(0.1 -0.1)">
      <use xlink:href="#DejaVuSans-6e"/>
      <use x="63.378906" xlink:href="#DejaVuSans-6f"/>
      <use x="124.560547" xlink:href="#DejaVuSans-6e"/>
      <use x="187.939453" xlink:href="#DejaVuSans-6c"/>
      <use x="215.722656" xlink:href="#DejaVuSans-69"/>
      <use x="243.505859" xlink:href="#DejaVuSans-6e"/>
      <use x="306.884766" xlink:href="#DejaVuSans-65"/>
      <use x="368.408203" xlink:href="#DejaVuSans-61"/>
      <use x="429.6875" xlink:href="#DejaVuSans-72"/>
     </g>
    </g>
    <g id="patch_42">
     <path d="M 526.092188 172.118437 
L 546.092188 172.118437 
L 546.092188 165.118437 
L 526.092188 165.118437 
z
" style="fill:#ff0000;opacity:0.5;stroke:#ff0000;stroke-linejoin:miter;"/>
    </g>
    <g id="text_12">
     <!-- no substrate dependence -->
     <defs>
      <path id="DejaVuSans-20"/>
      <path d="M 44.28125 53.078125 
L 44.28125 44.578125 
Q 40.484375 46.53125 36.375 47.5 
Q 32.28125 48.484375 27.875 48.484375 
Q 21.1875 48.484375 17.84375 46.4375 
Q 14.5 44.390625 14.5 40.28125 
Q 14.5 37.15625 16.890625 35.375 
Q 19.28125 33.59375 26.515625 31.984375 
L 29.59375 31.296875 
Q 39.15625 29.25 43.1875 25.515625 
Q 47.21875 21.78125 47.21875 15.09375 
Q 47.21875 7.46875 41.1875 3.015625 
Q 35.15625 -1.421875 24.609375 -1.421875 
Q 20.21875 -1.421875 15.453125 -0.5625 
Q 10.6875 0.296875 5.421875 2 
L 5.421875 11.28125 
Q 10.40625 8.6875 15.234375 7.390625 
Q 20.0625 6.109375 24.8125 6.109375 
Q 31.15625 6.109375 34.5625 8.28125 
Q 37.984375 10.453125 37.984375 14.40625 
Q 37.984375 18.0625 35.515625 20.015625 
Q 33.0625 21.96875 24.703125 23.78125 
L 21.578125 24.515625 
Q 13.234375 26.265625 9.515625 29.90625 
Q 5.8125 33.546875 5.8125 39.890625 
Q 5.8125 47.609375 11.28125 51.796875 
Q 16.75 56 26.8125 56 
Q 31.78125 56 36.171875 55.265625 
Q 40.578125 54.546875 44.28125 53.078125 
z
" id="DejaVuSans-73"/>
      <path d="M 8.5 21.578125 
L 8.5 54.6875 
L 17.484375 54.6875 
L 17.484375 21.921875 
Q 17.484375 14.15625 20.5 10.265625 
Q 23.53125 6.390625 29.59375 6.390625 
Q 36.859375 6.390625 41.078125 11.03125 
Q 45.3125 15.671875 45.3125 23.6875 
L 45.3125 54.6875 
L 54.296875 54.6875 
L 54.296875 0 
L 45.3125 0 
L 45.3125 8.40625 
Q 42.046875 3.421875 37.71875 1 
Q 33.40625 -1.421875 27.6875 -1.421875 
Q 18.265625 -1.421875 13.375 4.4375 
Q 8.5 10.296875 8.5 21.578125 
z
M 31.109375 56 
z
" id="DejaVuSans-75"/>
      <path d="M 48.6875 27.296875 
Q 48.6875 37.203125 44.609375 42.84375 
Q 40.53125 48.484375 33.40625 48.484375 
Q 26.265625 48.484375 22.1875 42.84375 
Q 18.109375 37.203125 18.109375 27.296875 
Q 18.109375 17.390625 22.1875 11.75 
Q 26.265625 6.109375 33.40625 6.109375 
Q 40.53125 6.109375 44.609375 11.75 
Q 48.6875 17.390625 48.6875 27.296875 
z
M 18.109375 46.390625 
Q 20.953125 51.265625 25.265625 53.625 
Q 29.59375 56 35.59375 56 
Q 45.5625 56 51.78125 48.09375 
Q 58.015625 40.1875 58.015625 27.296875 
Q 58.015625 14.40625 51.78125 6.484375 
Q 45.5625 -1.421875 35.59375 -1.421875 
Q 29.59375 -1.421875 25.265625 0.953125 
Q 20.953125 3.328125 18.109375 8.203125 
L 18.109375 0 
L 9.078125 0 
L 9.078125 75.984375 
L 18.109375 75.984375 
z
" id="DejaVuSans-62"/>
      <path d="M 18.3125 70.21875 
L 18.3125 54.6875 
L 36.8125 54.6875 
L 36.8125 47.703125 
L 18.3125 47.703125 
L 18.3125 18.015625 
Q 18.3125 11.328125 20.140625 9.421875 
Q 21.96875 7.515625 27.59375 7.515625 
L 36.8125 7.515625 
L 36.8125 0 
L 27.59375 0 
Q 17.1875 0 13.234375 3.875 
Q 9.28125 7.765625 9.28125 18.015625 
L 9.28125 47.703125 
L 2.6875 47.703125 
L 2.6875 54.6875 
L 9.28125 54.6875 
L 9.28125 70.21875 
z
" id="DejaVuSans-74"/>
      <path d="M 45.40625 46.390625 
L 45.40625 75.984375 
L 54.390625 75.984375 
L 54.390625 0 
L 45.40625 0 
L 45.40625 8.203125 
Q 42.578125 3.328125 38.25 0.953125 
Q 33.9375 -1.421875 27.875 -1.421875 
Q 17.96875 -1.421875 11.734375 6.484375 
Q 5.515625 14.40625 5.515625 27.296875 
Q 5.515625 40.1875 11.734375 48.09375 
Q 17.96875 56 27.875 56 
Q 33.9375 56 38.25 53.625 
Q 42.578125 51.265625 45.40625 46.390625 
z
M 14.796875 27.296875 
Q 14.796875 17.390625 18.875 11.75 
Q 22.953125 6.109375 30.078125 6.109375 
Q 37.203125 6.109375 41.296875 11.75 
Q 45.40625 17.390625 45.40625 27.296875 
Q 45.40625 37.203125 41.296875 42.84375 
Q 37.203125 48.484375 30.078125 48.484375 
Q 22.953125 48.484375 18.875 42.84375 
Q 14.796875 37.203125 14.796875 27.296875 
z
" id="DejaVuSans-64"/>
      <path d="M 18.109375 8.203125 
L 18.109375 -20.796875 
L 9.078125 -20.796875 
L 9.078125 54.6875 
L 18.109375 54.6875 
L 18.109375 46.390625 
Q 20.953125 51.265625 25.265625 53.625 
Q 29.59375 56 35.59375 56 
Q 45.5625 56 51.78125 48.09375 
Q 58.015625 40.1875 58.015625 27.296875 
Q 58.015625 14.40625 51.78125 6.484375 
Q 45.5625 -1.421875 35.59375 -1.421875 
Q 29.59375 -1.421875 25.265625 0.953125 
Q 20.953125 3.328125 18.109375 8.203125 
z
M 48.6875 27.296875 
Q 48.6875 37.203125 44.609375 42.84375 
Q 40.53125 48.484375 33.40625 48.484375 
Q 26.265625 48.484375 22.1875 42.84375 
Q 18.109375 37.203125 18.109375 27.296875 
Q 18.109375 17.390625 22.1875 11.75 
Q 26.265625 6.109375 33.40625 6.109375 
Q 40.53125 6.109375 44.609375 11.75 
Q 48.6875 17.390625 48.6875 27.296875 
z
" id="DejaVuSans-70"/>
      <path d="M 48.78125 52.59375 
L 48.78125 44.1875 
Q 44.96875 46.296875 41.140625 47.34375 
Q 37.3125 48.390625 33.40625 48.390625 
Q 24.65625 48.390625 19.8125 42.84375 
Q 14.984375 37.3125 14.984375 27.296875 
Q 14.984375 17.28125 19.8125 11.734375 
Q 24.65625 6.203125 33.40625 6.203125 
Q 37.3125 6.203125 41.140625 7.25 
Q 44.96875 8.296875 48.78125 10.40625 
L 48.78125 2.09375 
Q 45.015625 0.34375 40.984375 -0.53125 
Q 36.96875 -1.421875 32.421875 -1.421875 
Q 20.0625 -1.421875 12.78125 6.34375 
Q 5.515625 14.109375 5.515625 27.296875 
Q 5.515625 40.671875 12.859375 48.328125 
Q 20.21875 56 33.015625 56 
Q 37.15625 56 41.109375 55.140625 
Q 45.0625 54.296875 48.78125 52.59375 
z
" id="DejaVuSans-63"/>
     </defs>
     <g transform="translate(554.092188 172.118437)scale(0.1 -0.1)">
      <use xlink:href="#DejaVuSans-6e"/>
      <use x="63.378906" xlink:href="#DejaVuSans-6f"/>
      <use x="124.560547" xlink:href="#DejaVuSans-20"/>
      <use x="156.347656" xlink:href="#DejaVuSans-73"/>
      <use x="208.447266" xlink:href="#DejaVuSans-75"/>
      <use x="271.826172" xlink:href="#DejaVuSans-62"/>
      <use x="335.302734" xlink:href="#DejaVuSans-73"/>
      <use x="387.402344" xlink:href="#DejaVuSans-74"/>
      <use x="426.611328" xlink:href="#DejaVuSans-72"/>
      <use x="467.724609" xlink:href="#DejaVuSans-61"/>
      <use x="529.003906" xlink:href="#DejaVuSans-74"/>
      <use x="568.212891" xlink:href="#DejaVuSans-65"/>
      <use x="629.736328" xlink:href="#DejaVuSans-20"/>
      <use x="661.523438" xlink:href="#DejaVuSans-64"/>
      <use x="725" xlink:href="#DejaVuSans-65"/>
      <use x="786.523438" xlink:href="#DejaVuSans-70"/>
      <use x="850" xlink:href="#DejaVuSans-65"/>
      <use x="911.523438" xlink:href="#DejaVuSans-6e"/>
      <use x="974.902344" xlink:href="#DejaVuSans-64"/>
      <use x="1038.378906" xlink:href="#DejaVuSans-65"/>
      <use x="1099.902344" xlink:href="#DejaVuSans-6e"/>
      <use x="1163.28125" xlink:href="#DejaVuSans-63"/>
      <use x="1218.261719" xlink:href="#DejaVuSans-65"/>
     </g>
    </g>
   </g>
  </g>
 </g>
 <defs>
  <clipPath id="p2748ad4a34">
   <rect height="1036.8" width="1036.8" x="0" y="259.2"/>
  </clipPath>
 </defs>
</svg>
